<?xml version="1.0" encoding="UTF-8" standalone="no"?>
<!DOCTYPE svg PUBLIC "-//W3C//DTD SVG 1.1//EN"
 "http://www.w3.org/Graphics/SVG/1.1/DTD/svg11.dtd">
<!-- Generated by graphviz version 2.38.0 (20140413.2041)
 -->
<!-- Title: SuiteCRMClient.clsSuiteCRMHelper.getRelationships Pages: 1 -->
<svg width="608pt" height="88pt"
 viewBox="0.00 0.00 608.00 88.00" xmlns="http://www.w3.org/2000/svg" xmlns:xlink="http://www.w3.org/1999/xlink">
<g id="graph0" class="graph" transform="scale(1 1) rotate(0) translate(4 84)">
<title>SuiteCRMClient.clsSuiteCRMHelper.getRelationships</title>
<polygon fill="white" stroke="none" points="-4,4 -4,-84 604,-84 604,4 -4,4"/>
<!-- Node1 -->
<g id="node1" class="node"><title>Node1</title>
<polygon fill="#bfbfbf" stroke="black" points="0,-24.5 0,-54.5 194,-54.5 194,-24.5 0,-24.5"/>
<text text-anchor="start" x="8" y="-42.5" font-family="Helvetica,sans-Serif" font-size="10.00">SuiteCRMClient.clsSuiteCRMHelper.get</text>
<text text-anchor="middle" x="97" y="-31.5" font-family="Helvetica,sans-Serif" font-size="10.00">Relationships</text>
</g>
<!-- Node2 -->
<g id="node2" class="node"><title>Node2</title>
<g id="a_node2"><a xlink:href="class_suite_c_r_m_add_in_1_1_business_logic_1_1_appointment_syncing.html#a5d2d80bf950c4a4fd241610e65bd4713" target="_top" xlink:title="SuiteCRMAddIn.BusinessLogic.\lAppointmentSyncing.IsMatch">
<polygon fill="white" stroke="black" points="230.5,-49.5 230.5,-79.5 388.5,-79.5 388.5,-49.5 230.5,-49.5"/>
<text text-anchor="start" x="238.5" y="-67.5" font-family="Helvetica,sans-Serif" font-size="10.00">SuiteCRMAddIn.BusinessLogic.</text>
<text text-anchor="middle" x="309.5" y="-56.5" font-family="Helvetica,sans-Serif" font-size="10.00">AppointmentSyncing.IsMatch</text>
</a>
</g>
</g>
<!-- Node1&#45;&gt;Node2 -->
<g id="edge1" class="edge"><title>Node1&#45;&gt;Node2</title>
<path fill="none" stroke="midnightblue" d="M203.996,-52.0886C212.85,-53.1401 221.697,-54.1908 230.286,-55.2109"/>
<polygon fill="midnightblue" stroke="midnightblue" points="204.353,-48.6065 194.01,-50.9026 203.528,-55.5576 204.353,-48.6065"/>
</g>
<!-- Node3 -->
<g id="node3" class="node"><title>Node3</title>
<g id="a_node3"><a xlink:href="class_suite_c_r_m_add_in_1_1_business_logic_1_1_appointment_syncing.html#af477f9f681874a701880737a2383b5fc" target="_top" xlink:title="Synchronise items in the specified folder with the specified SuiteCRM module. ">
<polygon fill="white" stroke="black" points="230,-0.5 230,-30.5 389,-30.5 389,-0.5 230,-0.5"/>
<text text-anchor="start" x="238" y="-18.5" font-family="Helvetica,sans-Serif" font-size="10.00">SuiteCRMAddIn.BusinessLogic.</text>
<text text-anchor="middle" x="309.5" y="-7.5" font-family="Helvetica,sans-Serif" font-size="10.00">AppointmentSyncing.SyncFolder</text>
</a>
</g>
</g>
<!-- Node1&#45;&gt;Node3 -->
<g id="edge2" class="edge"><title>Node1&#45;&gt;Node3</title>
<path fill="none" stroke="midnightblue" d="M204.19,-27.3928C212.87,-26.4032 221.542,-25.4145 229.969,-24.4536"/>
<polygon fill="midnightblue" stroke="midnightblue" points="203.549,-23.9431 194.01,-28.5535 204.342,-30.8981 203.549,-23.9431"/>
</g>
<!-- Node4 -->
<g id="node4" class="node"><title>Node4</title>
<g id="a_node4"><a xlink:href="class_suite_c_r_m_add_in_1_1_business_logic_1_1_appointment_syncing.html#a7cee33973de0521341615a899e970cba" target="_top" xlink:title="Action method of the thread. ">
<polygon fill="white" stroke="black" points="425,-0.5 425,-30.5 600,-30.5 600,-0.5 425,-0.5"/>
<text text-anchor="start" x="433" y="-18.5" font-family="Helvetica,sans-Serif" font-size="10.00">SuiteCRMAddIn.BusinessLogic.</text>
<text text-anchor="middle" x="512.5" y="-7.5" font-family="Helvetica,sans-Serif" font-size="10.00">AppointmentSyncing.SynchroniseAll</text>
</a>
</g>
</g>
<!-- Node3&#45;&gt;Node4 -->
<g id="edge3" class="edge"><title>Node3&#45;&gt;Node4</title>
<path fill="none" stroke="midnightblue" d="M399.101,-15.5C407.7,-15.5 416.418,-15.5 424.996,-15.5"/>
<polygon fill="midnightblue" stroke="midnightblue" points="399.075,-12.0001 389.075,-15.5 399.075,-19.0001 399.075,-12.0001"/>
</g>
</g>
</svg>
