<?xml version="1.0" encoding="UTF-8" standalone="no"?>
<!DOCTYPE svg PUBLIC "-//W3C//DTD SVG 1.1//EN"
 "http://www.w3.org/Graphics/SVG/1.1/DTD/svg11.dtd">
<!-- Generated by graphviz version 2.38.0 (20140413.2041)
 -->
<!-- Title: SuiteCRMAddIn.RibbonImageHelper.Convert Pages: 1 -->
<svg width="583pt" height="112pt"
 viewBox="0.00 0.00 583.00 112.00" xmlns="http://www.w3.org/2000/svg" xmlns:xlink="http://www.w3.org/1999/xlink">
<g id="graph0" class="graph" transform="scale(1 1) rotate(0) translate(4 108)">
<title>SuiteCRMAddIn.RibbonImageHelper.Convert</title>
<polygon fill="white" stroke="none" points="-4,4 -4,-108 579,-108 579,4 -4,4"/>
<!-- Node1 -->
<g id="node1" class="node"><title>Node1</title>
<polygon fill="#bfbfbf" stroke="black" points="0,-48.5 0,-78.5 149,-78.5 149,-48.5 0,-48.5"/>
<text text-anchor="start" x="8" y="-66.5" font-family="Helvetica,sans-Serif" font-size="10.00">SuiteCRMAddIn.RibbonImage</text>
<text text-anchor="middle" x="74.5" y="-55.5" font-family="Helvetica,sans-Serif" font-size="10.00">Helper.Convert</text>
</g>
<!-- Node2 -->
<g id="node2" class="node"><title>Node2</title>
<g id="a_node2"><a xlink:href="class_suite_c_r_m_add_in_1_1_suite_c_r_m_ribbon.html#ae6aab5ef7679e0841e1e29f5ab3fc2a4" target="_top" xlink:title="SuiteCRMAddIn.SuiteCRMRibbon.\lGetImage">
<polygon fill="white" stroke="black" points="185,-73.5 185,-103.5 355,-103.5 355,-73.5 185,-73.5"/>
<text text-anchor="start" x="193" y="-91.5" font-family="Helvetica,sans-Serif" font-size="10.00">SuiteCRMAddIn.SuiteCRMRibbon.</text>
<text text-anchor="middle" x="270" y="-80.5" font-family="Helvetica,sans-Serif" font-size="10.00">GetImage</text>
</a>
</g>
</g>
<!-- Node1&#45;&gt;Node2 -->
<g id="edge1" class="edge"><title>Node1&#45;&gt;Node2</title>
<path fill="none" stroke="midnightblue" d="M159.125,-74.3042C167.641,-75.4046 176.297,-76.5228 184.82,-77.624"/>
<polygon fill="midnightblue" stroke="midnightblue" points="159.572,-70.833 149.206,-73.0227 158.675,-77.7753 159.572,-70.833"/>
</g>
<!-- Node3 -->
<g id="node3" class="node"><title>Node3</title>
<g id="a_node3"><a xlink:href="class_suite_c_r_m_add_in_1_1_this_add_in.html#a3d3136423943e3e4f71d3ea2b1062147" target="_top" xlink:title="SuiteCRMAddIn.ThisAddIn.\lManualArchive">
<polygon fill="white" stroke="black" points="201,-24.5 201,-54.5 339,-54.5 339,-24.5 201,-24.5"/>
<text text-anchor="start" x="209" y="-42.5" font-family="Helvetica,sans-Serif" font-size="10.00">SuiteCRMAddIn.ThisAddIn.</text>
<text text-anchor="middle" x="270" y="-31.5" font-family="Helvetica,sans-Serif" font-size="10.00">ManualArchive</text>
</a>
</g>
</g>
<!-- Node1&#45;&gt;Node3 -->
<g id="edge2" class="edge"><title>Node1&#45;&gt;Node3</title>
<path fill="none" stroke="midnightblue" d="M159.254,-53.1118C173.166,-51.3864 187.443,-49.6156 200.906,-47.9458"/>
<polygon fill="midnightblue" stroke="midnightblue" points="158.699,-49.6538 149.206,-54.3582 159.561,-56.6006 158.699,-49.6538"/>
</g>
<!-- Node4 -->
<g id="node4" class="node"><title>Node4</title>
<g id="a_node4"><a xlink:href="class_suite_c_r_m_add_in_1_1_suite_c_r_m_ribbon.html#af45e3d97607869f229558ab49c84379b" target="_top" xlink:title="SuiteCRMAddIn.SuiteCRMRibbon.btn\lArchive_Action">
<polygon fill="white" stroke="black" points="391,-49.5 391,-79.5 575,-79.5 575,-49.5 391,-49.5"/>
<text text-anchor="start" x="399" y="-67.5" font-family="Helvetica,sans-Serif" font-size="10.00">SuiteCRMAddIn.SuiteCRMRibbon.btn</text>
<text text-anchor="middle" x="483" y="-56.5" font-family="Helvetica,sans-Serif" font-size="10.00">Archive_Action</text>
</a>
</g>
</g>
<!-- Node3&#45;&gt;Node4 -->
<g id="edge3" class="edge"><title>Node3&#45;&gt;Node4</title>
<path fill="none" stroke="midnightblue" d="M349.423,-48.7918C362.956,-50.3952 377.126,-52.0742 390.959,-53.7132"/>
<polygon fill="midnightblue" stroke="midnightblue" points="349.557,-45.2833 339.214,-47.5823 348.733,-52.2346 349.557,-45.2833"/>
</g>
<!-- Node5 -->
<g id="node5" class="node"><title>Node5</title>
<g id="a_node5"><a xlink:href="class_suite_c_r_m_add_in_1_1_this_add_in.html#a4672086c412924ca3bf5c6aa52466c89" target="_top" xlink:title="SuiteCRMAddIn.ThisAddIn.\lStartSynchronisationProcesses">
<polygon fill="white" stroke="black" points="406,-0.5 406,-30.5 560,-30.5 560,-0.5 406,-0.5"/>
<text text-anchor="start" x="414" y="-18.5" font-family="Helvetica,sans-Serif" font-size="10.00">SuiteCRMAddIn.ThisAddIn.</text>
<text text-anchor="middle" x="483" y="-7.5" font-family="Helvetica,sans-Serif" font-size="10.00">StartSynchronisationProcesses</text>
</a>
</g>
</g>
<!-- Node3&#45;&gt;Node5 -->
<g id="edge4" class="edge"><title>Node3&#45;&gt;Node5</title>
<path fill="none" stroke="midnightblue" d="M349.359,-30.5872C367.869,-28.4817 387.575,-26.2403 405.98,-24.1469"/>
<polygon fill="midnightblue" stroke="midnightblue" points="348.755,-27.1332 339.214,-31.741 349.546,-34.0884 348.755,-27.1332"/>
</g>
</g>
</svg>
