<?xml version="1.0" encoding="UTF-8" standalone="no"?>
<!DOCTYPE svg PUBLIC "-//W3C//DTD SVG 1.1//EN"
 "http://www.w3.org/Graphics/SVG/1.1/DTD/svg11.dtd">
<!-- Generated by graphviz version 2.38.0 (20140413.2041)
 -->
<!-- Title: SuiteCRMAddIn.BusinessLogic.SyncDirection.ToString Pages: 1 -->
<svg width="397pt" height="99pt"
 viewBox="0.00 0.00 397.00 98.50" xmlns="http://www.w3.org/2000/svg" xmlns:xlink="http://www.w3.org/1999/xlink">
<g id="graph0" class="graph" transform="scale(1 1) rotate(0) translate(4 94.5)">
<title>SuiteCRMAddIn.BusinessLogic.SyncDirection.ToString</title>
<polygon fill="white" stroke="none" points="-4,4 -4,-94.5 393,-94.5 393,4 -4,4"/>
<!-- Node1 -->
<g id="node1" class="node"><title>Node1</title>
<polygon fill="#bfbfbf" stroke="black" points="0,-33 0,-63 158,-63 158,-33 0,-33"/>
<text text-anchor="start" x="8" y="-51" font-family="Helvetica,sans-Serif" font-size="10.00">SuiteCRMAddIn.BusinessLogic.</text>
<text text-anchor="middle" x="79" y="-40" font-family="Helvetica,sans-Serif" font-size="10.00">SyncDirection.ToString</text>
</g>
<!-- Node2 -->
<g id="node2" class="node"><title>Node2</title>
<g id="a_node2"><a xlink:href="class_suite_c_r_m_add_in_1_1_dialogs_1_1_settings_dialog.html#a55bf341eb6cf34acaa004c221719b4ba" target="_top" xlink:title="SuiteCRMAddIn.Dialogs.Settings\lDialog.SettingsDialog">
<polygon fill="white" stroke="black" points="210,-60 210,-90 373,-90 373,-60 210,-60"/>
<text text-anchor="start" x="218" y="-78" font-family="Helvetica,sans-Serif" font-size="10.00">SuiteCRMAddIn.Dialogs.Settings</text>
<text text-anchor="middle" x="291.5" y="-67" font-family="Helvetica,sans-Serif" font-size="10.00">Dialog.SettingsDialog</text>
</a>
</g>
</g>
<!-- Node1&#45;&gt;Node2 -->
<g id="edge1" class="edge"><title>Node1&#45;&gt;Node2</title>
<path fill="none" stroke="midnightblue" d="M168.056,-59.2945C181.869,-61.0663 196.088,-62.8901 209.727,-64.6395"/>
<polygon fill="midnightblue" stroke="midnightblue" points="168.447,-55.8162 158.083,-58.0154 167.557,-62.7593 168.447,-55.8162"/>
</g>
<!-- Node3 -->
<g id="node3" class="node"><title>Node3</title>
<g id="a_node3"><a xlink:href="class_suite_c_r_m_add_in_1_1_business_logic_1_1_tests_1_1_sync_direction_tests.html#a633e2d3efe844bc6cd1cce8af39040af" target="_top" xlink:title="SuiteCRMAddIn.BusinessLogic.\lTests.SyncDirectionTests.SyncDirection\lToStringTest">
<polygon fill="white" stroke="black" points="194,-0.5 194,-41.5 389,-41.5 389,-0.5 194,-0.5"/>
<text text-anchor="start" x="202" y="-29.5" font-family="Helvetica,sans-Serif" font-size="10.00">SuiteCRMAddIn.BusinessLogic.</text>
<text text-anchor="start" x="202" y="-18.5" font-family="Helvetica,sans-Serif" font-size="10.00">Tests.SyncDirectionTests.SyncDirection</text>
<text text-anchor="middle" x="291.5" y="-7.5" font-family="Helvetica,sans-Serif" font-size="10.00">ToStringTest</text>
</a>
</g>
</g>
<!-- Node1&#45;&gt;Node3 -->
<g id="edge2" class="edge"><title>Node1&#45;&gt;Node3</title>
<path fill="none" stroke="midnightblue" d="M168.056,-36.7055C176.624,-35.6065 185.348,-34.4875 193.993,-33.3786"/>
<polygon fill="midnightblue" stroke="midnightblue" points="167.557,-33.2407 158.083,-37.9846 168.447,-40.1838 167.557,-33.2407"/>
</g>
</g>
</svg>
