<?xml version="1.0" encoding="UTF-8" standalone="no"?>
<!DOCTYPE svg PUBLIC "-//W3C//DTD SVG 1.1//EN"
 "http://www.w3.org/Graphics/SVG/1.1/DTD/svg11.dtd">
<!-- Generated by graphviz version 2.38.0 (20140413.2041)
 -->
<!-- Title: SuiteCRMAddIn.BusinessLogic.SyncDirection.AllowInbound Pages: 1 -->
<svg width="874pt" height="188pt"
 viewBox="0.00 0.00 874.00 188.00" xmlns="http://www.w3.org/2000/svg" xmlns:xlink="http://www.w3.org/1999/xlink">
<g id="graph0" class="graph" transform="scale(1 1) rotate(0) translate(4 184)">
<title>SuiteCRMAddIn.BusinessLogic.SyncDirection.AllowInbound</title>
<polygon fill="white" stroke="none" points="-4,4 -4,-184 870,-184 870,4 -4,4"/>
<!-- Node1 -->
<g id="node1" class="node"><title>Node1</title>
<polygon fill="#bfbfbf" stroke="black" points="0,-66 0,-96 158,-96 158,-66 0,-66"/>
<text text-anchor="start" x="8" y="-84" font-family="Helvetica,sans-Serif" font-size="10.00">SuiteCRMAddIn.BusinessLogic.</text>
<text text-anchor="middle" x="79" y="-73" font-family="Helvetica,sans-Serif" font-size="10.00">SyncDirection.AllowInbound</text>
</g>
<!-- Node2 -->
<g id="node2" class="node"><title>Node2</title>
<g id="a_node2"><a xlink:href="class_suite_c_r_m_add_in_1_1_business_logic_1_1_c_r_m_permissions_cache.html#ae827e3294d872f8fedc440b83ad0b8d2" target="_top" xlink:title="Check whether my synchroniser is allowed access to the specified CRM module, with the specified permi...">
<polygon fill="white" stroke="black" points="203.5,-120 203.5,-150 379.5,-150 379.5,-120 203.5,-120"/>
<text text-anchor="start" x="211.5" y="-138" font-family="Helvetica,sans-Serif" font-size="10.00">SuiteCRMAddIn.BusinessLogic.</text>
<text text-anchor="middle" x="291.5" y="-127" font-family="Helvetica,sans-Serif" font-size="10.00">CRMPermissionsCache.HasAccess</text>
</a>
</g>
</g>
<!-- Node1&#45;&gt;Node2 -->
<g id="edge1" class="edge"><title>Node1&#45;&gt;Node2</title>
<path fill="none" stroke="midnightblue" d="M146.559,-98.6778C162.116,-102.765 178.631,-107.067 194,-111 205.457,-113.932 217.691,-117.013 229.467,-119.954"/>
<polygon fill="midnightblue" stroke="midnightblue" points="147.058,-95.1899 136.496,-96.0293 145.276,-101.959 147.058,-95.1899"/>
</g>
<!-- Node6 -->
<g id="node6" class="node"><title>Node6</title>
<g id="a_node6"><a xlink:href="class_suite_c_r_m_add_in_1_1_business_logic_1_1_synchroniser.html#a7a06c39aa036e83ea768865282597051" target="_top" xlink:title="If I am currently configured to do so, synchronise the items for which I am responsible once...">
<polygon fill="white" stroke="black" points="204.5,-60.5 204.5,-101.5 378.5,-101.5 378.5,-60.5 204.5,-60.5"/>
<text text-anchor="start" x="212.5" y="-89.5" font-family="Helvetica,sans-Serif" font-size="10.00">SuiteCRMAddIn.BusinessLogic.</text>
<text text-anchor="start" x="212.5" y="-78.5" font-family="Helvetica,sans-Serif" font-size="10.00">Synchroniser&lt; Outlook.Appointment</text>
<text text-anchor="middle" x="291.5" y="-67.5" font-family="Helvetica,sans-Serif" font-size="10.00">Item &gt;::PerformIteration</text>
</a>
</g>
</g>
<!-- Node1&#45;&gt;Node6 -->
<g id="edge5" class="edge"><title>Node1&#45;&gt;Node6</title>
<path fill="none" stroke="midnightblue" d="M168.089,-81C180.103,-81 192.424,-81 204.403,-81"/>
<polygon fill="midnightblue" stroke="midnightblue" points="168.083,-77.5001 158.083,-81 168.083,-84.5001 168.083,-77.5001"/>
</g>
<!-- Node7 -->
<g id="node7" class="node"><title>Node7</title>
<g id="a_node7"><a xlink:href="class_suite_c_r_m_add_in_1_1_business_logic_1_1_tests_1_1_sync_direction_tests.html#a5e436d4f5ef103f9e95df6bcbfc62a04" target="_top" xlink:title="SuiteCRMAddIn.BusinessLogic.\lTests.SyncDirectionTests.SyncDirection\lAllowInboundTest">
<polygon fill="white" stroke="black" points="194,-0.5 194,-41.5 389,-41.5 389,-0.5 194,-0.5"/>
<text text-anchor="start" x="202" y="-29.5" font-family="Helvetica,sans-Serif" font-size="10.00">SuiteCRMAddIn.BusinessLogic.</text>
<text text-anchor="start" x="202" y="-18.5" font-family="Helvetica,sans-Serif" font-size="10.00">Tests.SyncDirectionTests.SyncDirection</text>
<text text-anchor="middle" x="291.5" y="-7.5" font-family="Helvetica,sans-Serif" font-size="10.00">AllowInboundTest</text>
</a>
</g>
</g>
<!-- Node1&#45;&gt;Node7 -->
<g id="edge6" class="edge"><title>Node1&#45;&gt;Node7</title>
<path fill="none" stroke="midnightblue" d="M142.504,-63.184C166.398,-56.3734 193.833,-48.5536 218.539,-41.5114"/>
<polygon fill="midnightblue" stroke="midnightblue" points="141.504,-59.8297 132.846,-65.9369 143.423,-66.5616 141.504,-59.8297"/>
</g>
<!-- Node3 -->
<g id="node3" class="node"><title>Node3</title>
<g id="a_node3"><a xlink:href="class_suite_c_r_m_add_in_1_1_business_logic_1_1_c_r_m_permissions_cache.html#ae9c79ed281f1327a689fdd041641b947" target="_top" xlink:title="Check whether my synchroniser is allowed import access for the specified CRM module. ">
<polygon fill="white" stroke="black" points="425.5,-144 425.5,-174 629.5,-174 629.5,-144 425.5,-144"/>
<text text-anchor="start" x="433.5" y="-162" font-family="Helvetica,sans-Serif" font-size="10.00">SuiteCRMAddIn.BusinessLogic.</text>
<text text-anchor="middle" x="527.5" y="-151" font-family="Helvetica,sans-Serif" font-size="10.00">CRMPermissionsCache.HasImportAccess</text>
</a>
</g>
</g>
<!-- Node2&#45;&gt;Node3 -->
<g id="edge2" class="edge"><title>Node2&#45;&gt;Node3</title>
<path fill="none" stroke="midnightblue" d="M389.885,-144.988C401.644,-146.194 413.675,-147.428 425.485,-148.64"/>
<polygon fill="midnightblue" stroke="midnightblue" points="389.938,-141.475 379.633,-143.937 389.224,-148.439 389.938,-141.475"/>
</g>
<!-- Node5 -->
<g id="node5" class="node"><title>Node5</title>
<g id="a_node5"><a xlink:href="class_suite_c_r_m_add_in_1_1_business_logic_1_1_c_r_m_permissions_cache.html#a042a30c67613cb37d8f3d001bccdd032" target="_top" xlink:title="Check whether my synchroniser is allowed export access for the specified CRM module. ">
<polygon fill="white" stroke="black" points="425,-95 425,-125 630,-125 630,-95 425,-95"/>
<text text-anchor="start" x="433" y="-113" font-family="Helvetica,sans-Serif" font-size="10.00">SuiteCRMAddIn.BusinessLogic.</text>
<text text-anchor="middle" x="527.5" y="-102" font-family="Helvetica,sans-Serif" font-size="10.00">CRMPermissionsCache.HasExportAccess</text>
</a>
</g>
</g>
<!-- Node2&#45;&gt;Node5 -->
<g id="edge4" class="edge"><title>Node2&#45;&gt;Node5</title>
<path fill="none" stroke="midnightblue" d="M389.705,-124.615C401.257,-123.381 413.074,-122.118 424.688,-120.877"/>
<polygon fill="midnightblue" stroke="midnightblue" points="389.205,-121.148 379.633,-125.691 389.948,-128.109 389.205,-121.148"/>
</g>
<!-- Node4 -->
<g id="node4" class="node"><title>Node4</title>
<g id="a_node4"><a xlink:href="class_suite_c_r_m_add_in_1_1_business_logic_1_1_c_r_m_permissions_cache.html#a9228e56ed8852ceb135b9835b52e025c" target="_top" xlink:title="Check whether my synchroniser is allowed both import and export access for the specified CRM module...">
<polygon fill="white" stroke="black" points="666,-138.5 666,-179.5 866,-179.5 866,-138.5 666,-138.5"/>
<text text-anchor="start" x="674" y="-167.5" font-family="Helvetica,sans-Serif" font-size="10.00">SuiteCRMAddIn.BusinessLogic.</text>
<text text-anchor="start" x="674" y="-156.5" font-family="Helvetica,sans-Serif" font-size="10.00">CRMPermissionsCache.HasImportExport</text>
<text text-anchor="middle" x="766" y="-145.5" font-family="Helvetica,sans-Serif" font-size="10.00">Access</text>
</a>
</g>
</g>
<!-- Node3&#45;&gt;Node4 -->
<g id="edge3" class="edge"><title>Node3&#45;&gt;Node4</title>
<path fill="none" stroke="midnightblue" d="M639.92,-159C648.547,-159 657.222,-159 665.762,-159"/>
<polygon fill="midnightblue" stroke="midnightblue" points="639.827,-155.5 629.826,-159 639.826,-162.5 639.827,-155.5"/>
</g>
</g>
</svg>
