<?xml version="1.0" encoding="UTF-8" standalone="no"?>
<!DOCTYPE svg PUBLIC "-//W3C//DTD SVG 1.1//EN"
 "http://www.w3.org/Graphics/SVG/1.1/DTD/svg11.dtd">
<!-- Generated by graphviz version 2.38.0 (20140413.2041)
 -->
<!-- Title: SuiteCRMAddIn.BusinessLogic.TaskSyncing.EnsureSynchronisationPropertyForOutlookItem Pages: 1 -->
<svg width="573pt" height="50pt"
 viewBox="0.00 0.00 573.00 50.00" xmlns="http://www.w3.org/2000/svg" xmlns:xlink="http://www.w3.org/1999/xlink">
<g id="graph0" class="graph" transform="scale(1 1) rotate(0) translate(4 46)">
<title>SuiteCRMAddIn.BusinessLogic.TaskSyncing.EnsureSynchronisationPropertyForOutlookItem</title>
<polygon fill="white" stroke="none" points="-4,4 -4,-46 569,-46 569,4 -4,4"/>
<!-- Node1 -->
<g id="node1" class="node"><title>Node1</title>
<polygon fill="#bfbfbf" stroke="black" points="0,-0.5 0,-41.5 177,-41.5 177,-0.5 0,-0.5"/>
<text text-anchor="start" x="8" y="-29.5" font-family="Helvetica,sans-Serif" font-size="10.00">SuiteCRMAddIn.BusinessLogic.</text>
<text text-anchor="start" x="8" y="-18.5" font-family="Helvetica,sans-Serif" font-size="10.00">TaskSyncing.EnsureSynchronisation</text>
<text text-anchor="middle" x="88.5" y="-7.5" font-family="Helvetica,sans-Serif" font-size="10.00">PropertyForOutlookItem</text>
</g>
<!-- Node2 -->
<g id="node2" class="node"><title>Node2</title>
<g id="a_node2"><a xlink:href="class_suite_c_r_m_add_in_1_1_business_logic_1_1_task_syncing.html#a214d7e1a0000e29128954b3e6516fbb8" target="_top" xlink:title="SuiteCRMAddIn.BusinessLogic.\lTaskSyncing.SaveItem">
<polygon fill="white" stroke="black" points="213,-6 213,-36 371,-36 371,-6 213,-6"/>
<text text-anchor="start" x="221" y="-24" font-family="Helvetica,sans-Serif" font-size="10.00">SuiteCRMAddIn.BusinessLogic.</text>
<text text-anchor="middle" x="292" y="-13" font-family="Helvetica,sans-Serif" font-size="10.00">TaskSyncing.SaveItem</text>
</a>
</g>
</g>
<!-- Node1&#45;&gt;Node2 -->
<g id="edge1" class="edge"><title>Node1&#45;&gt;Node2</title>
<path fill="none" stroke="midnightblue" d="M177.002,-21C185.459,-21 194.042,-21 202.509,-21"/>
<polygon fill="midnightblue" stroke="midnightblue" points="202.761,-24.5001 212.761,-21 202.761,-17.5001 202.761,-24.5001"/>
</g>
<!-- Node3 -->
<g id="node3" class="node"><title>Node3</title>
<g id="a_node3"><a xlink:href="class_suite_c_r_m_add_in_1_1_business_logic_1_1_task_syncing.html#ac49de51ba359f2bf8567a6630e0b4183" target="_top" xlink:title="Log a message regarding this Outlook appointment. ">
<polygon fill="white" stroke="black" points="407,-6 407,-36 565,-36 565,-6 407,-6"/>
<text text-anchor="start" x="415" y="-24" font-family="Helvetica,sans-Serif" font-size="10.00">SuiteCRMAddIn.BusinessLogic.</text>
<text text-anchor="middle" x="486" y="-13" font-family="Helvetica,sans-Serif" font-size="10.00">TaskSyncing.LogItemAction</text>
</a>
</g>
</g>
<!-- Node2&#45;&gt;Node3 -->
<g id="edge2" class="edge"><title>Node2&#45;&gt;Node3</title>
<path fill="none" stroke="midnightblue" d="M371.094,-21C379.601,-21 388.302,-21 396.918,-21"/>
<polygon fill="midnightblue" stroke="midnightblue" points="396.975,-24.5001 406.975,-21 396.975,-17.5001 396.975,-24.5001"/>
</g>
</g>
</svg>
