<?xml version="1.0" encoding="UTF-8" standalone="no"?>
<!DOCTYPE svg PUBLIC "-//W3C//DTD SVG 1.1//EN"
 "http://www.w3.org/Graphics/SVG/1.1/DTD/svg11.dtd">
<!-- Generated by graphviz version 2.38.0 (20140413.2041)
 -->
<!-- Title: SuiteCRMAddIn.clsGlobals.GetEmailAddressForExchangeServer Pages: 1 -->
<svg width="363pt" height="88pt"
 viewBox="0.00 0.00 363.00 88.00" xmlns="http://www.w3.org/2000/svg" xmlns:xlink="http://www.w3.org/1999/xlink">
<g id="graph0" class="graph" transform="scale(1 1) rotate(0) translate(4 84)">
<title>SuiteCRMAddIn.clsGlobals.GetEmailAddressForExchangeServer</title>
<polygon fill="white" stroke="none" points="-4,4 -4,-84 359,-84 359,4 -4,4"/>
<!-- Node1 -->
<g id="node1" class="node"><title>Node1</title>
<polygon fill="#bfbfbf" stroke="black" points="0,-24.5 0,-54.5 179,-54.5 179,-24.5 0,-24.5"/>
<text text-anchor="start" x="8" y="-42.5" font-family="Helvetica,sans-Serif" font-size="10.00">SuiteCRMAddIn.clsGlobals.</text>
<text text-anchor="middle" x="89.5" y="-31.5" font-family="Helvetica,sans-Serif" font-size="10.00">GetEmailAddressForExchangeServer</text>
</g>
<!-- Node2 -->
<g id="node2" class="node"><title>Node2</title>
<g id="a_node2"><a xlink:href="class_suite_c_r_m_add_in_1_1cls_globals.html#ada6c04fd217f11855056ffd1dc1baa65" target="_top" xlink:title="SuiteCRMAddIn.clsGlobals.\lGetSMTPEmailAddress">
<polygon fill="white" stroke="black" points="215,-49.5 215,-79.5 355,-79.5 355,-49.5 215,-49.5"/>
<text text-anchor="start" x="223" y="-67.5" font-family="Helvetica,sans-Serif" font-size="10.00">SuiteCRMAddIn.clsGlobals.</text>
<text text-anchor="middle" x="285" y="-56.5" font-family="Helvetica,sans-Serif" font-size="10.00">GetSMTPEmailAddress</text>
</a>
</g>
</g>
<!-- Node1&#45;&gt;Node2 -->
<g id="edge1" class="edge"><title>Node1&#45;&gt;Node2</title>
<path fill="none" stroke="midnightblue" d="M189.222,-52.2548C197.903,-53.3764 206.563,-54.4952 214.922,-55.5751"/>
<polygon fill="midnightblue" stroke="midnightblue" points="189.405,-48.7494 179.039,-50.9391 188.508,-55.6917 189.405,-48.7494"/>
</g>
<!-- Node3 -->
<g id="node3" class="node"><title>Node3</title>
<g id="a_node3"><a xlink:href="class_suite_c_r_m_add_in_1_1cls_globals.html#a75a1f24fe7ad4a3a10d546306947c769" target="_top" xlink:title="SuiteCRMAddIn.clsGlobals.\lGetSenderAddress">
<polygon fill="white" stroke="black" points="215,-0.5 215,-30.5 355,-30.5 355,-0.5 215,-0.5"/>
<text text-anchor="start" x="223" y="-18.5" font-family="Helvetica,sans-Serif" font-size="10.00">SuiteCRMAddIn.clsGlobals.</text>
<text text-anchor="middle" x="285" y="-7.5" font-family="Helvetica,sans-Serif" font-size="10.00">GetSenderAddress</text>
</a>
</g>
</g>
<!-- Node1&#45;&gt;Node3 -->
<g id="edge2" class="edge"><title>Node1&#45;&gt;Node3</title>
<path fill="none" stroke="midnightblue" d="M189.222,-27.2554C197.903,-26.1787 206.563,-25.1046 214.922,-24.0679"/>
<polygon fill="midnightblue" stroke="midnightblue" points="188.532,-23.8141 179.039,-28.5184 189.394,-30.7609 188.532,-23.8141"/>
</g>
</g>
</svg>
