<?xml version="1.0" encoding="UTF-8" standalone="no"?>
<!DOCTYPE svg PUBLIC "-//W3C//DTD SVG 1.1//EN"
 "http://www.w3.org/Graphics/SVG/1.1/DTD/svg11.dtd">
<!-- Generated by graphviz version 2.38.0 (20140413.2041)
 -->
<!-- Title: SuiteCRMClient.Email.ArchiveableEmail.Save Pages: 1 -->
<svg width="601pt" height="39pt"
 viewBox="0.00 0.00 601.00 39.00" xmlns="http://www.w3.org/2000/svg" xmlns:xlink="http://www.w3.org/1999/xlink">
<g id="graph0" class="graph" transform="scale(1 1) rotate(0) translate(4 35)">
<title>SuiteCRMClient.Email.ArchiveableEmail.Save</title>
<polygon fill="white" stroke="none" points="-4,4 -4,-35 597,-35 597,4 -4,4"/>
<!-- Node1 -->
<g id="node1" class="node"><title>Node1</title>
<polygon fill="#bfbfbf" stroke="black" points="0,-0.5 0,-30.5 170,-30.5 170,-0.5 0,-0.5"/>
<text text-anchor="start" x="8" y="-18.5" font-family="Helvetica,sans-Serif" font-size="10.00">SuiteCRMClient.Email.Archiveable</text>
<text text-anchor="middle" x="85" y="-7.5" font-family="Helvetica,sans-Serif" font-size="10.00">Email.Save</text>
</g>
<!-- Node2 -->
<g id="node2" class="node"><title>Node2</title>
<g id="a_node2"><a xlink:href="class_suite_c_r_m_client_1_1_email_1_1_archiveable_email.html#a8432205a44b9dd2f40679ed7d8b73a64" target="_top" xlink:title="Get contact ids of all email addresses in my From, To, or CC fields which are known to CRM and not in...">
<polygon fill="white" stroke="black" points="206,-0.5 206,-30.5 376,-30.5 376,-0.5 206,-0.5"/>
<text text-anchor="start" x="214" y="-18.5" font-family="Helvetica,sans-Serif" font-size="10.00">SuiteCRMClient.Email.Archiveable</text>
<text text-anchor="middle" x="291" y="-7.5" font-family="Helvetica,sans-Serif" font-size="10.00">Email.GetValidContactIDs</text>
</a>
</g>
</g>
<!-- Node1&#45;&gt;Node2 -->
<g id="edge1" class="edge"><title>Node1&#45;&gt;Node2</title>
<path fill="none" stroke="midnightblue" d="M170.152,-15.5C178.501,-15.5 187.015,-15.5 195.46,-15.5"/>
<polygon fill="midnightblue" stroke="midnightblue" points="195.712,-19.0001 205.712,-15.5 195.712,-12.0001 195.712,-19.0001"/>
</g>
<!-- Node3 -->
<g id="node3" class="node"><title>Node3</title>
<g id="a_node3"><a xlink:href="class_suite_c_r_m_client_1_1cls_suite_c_r_m_helper.html#a80f04ec3ab185a736b6633c0df69c536" target="_top" xlink:title="SuiteCRMClient.clsSuiteCRMHelper.\lEnsureLoggedIn">
<polygon fill="white" stroke="black" points="412,-0.5 412,-30.5 593,-30.5 593,-0.5 412,-0.5"/>
<text text-anchor="start" x="420" y="-18.5" font-family="Helvetica,sans-Serif" font-size="10.00">SuiteCRMClient.clsSuiteCRMHelper.</text>
<text text-anchor="middle" x="502.5" y="-7.5" font-family="Helvetica,sans-Serif" font-size="10.00">EnsureLoggedIn</text>
</a>
</g>
</g>
<!-- Node2&#45;&gt;Node3 -->
<g id="edge2" class="edge"><title>Node2&#45;&gt;Node3</title>
<path fill="none" stroke="midnightblue" d="M376.005,-15.5C384.514,-15.5 393.213,-15.5 401.866,-15.5"/>
<polygon fill="midnightblue" stroke="midnightblue" points="401.989,-19.0001 411.988,-15.5 401.988,-12.0001 401.989,-19.0001"/>
</g>
</g>
</svg>
