<?xml version="1.0" encoding="UTF-8" standalone="no"?>
<!DOCTYPE svg PUBLIC "-//W3C//DTD SVG 1.1//EN"
 "http://www.w3.org/Graphics/SVG/1.1/DTD/svg11.dtd">
<!-- Generated by graphviz version 2.38.0 (20140413.2041)
 -->
<!-- Title: SuiteCRMAddIn.BusinessLogic.TaskSyncing Pages: 1 -->
<svg width="326pt" height="117pt"
 viewBox="0.00 0.00 325.50 117.00" xmlns="http://www.w3.org/2000/svg" xmlns:xlink="http://www.w3.org/1999/xlink">
<g id="graph0" class="graph" transform="scale(1 1) rotate(0) translate(4 113)">
<title>SuiteCRMAddIn.BusinessLogic.TaskSyncing</title>
<polygon fill="white" stroke="none" points="-4,4 -4,-113 321.5,-113 321.5,4 -4,4"/>
<!-- Node1 -->
<g id="node1" class="node"><title>Node1</title>
<polygon fill="#bfbfbf" stroke="black" points="75.5,-0.5 75.5,-30.5 233.5,-30.5 233.5,-0.5 75.5,-0.5"/>
<text text-anchor="start" x="83.5" y="-18.5" font-family="Helvetica,sans-Serif" font-size="10.00">SuiteCRMAddIn.BusinessLogic.</text>
<text text-anchor="middle" x="154.5" y="-7.5" font-family="Helvetica,sans-Serif" font-size="10.00">TaskSyncing</text>
</g>
<!-- Node2 -->
<g id="node2" class="node"><title>Node2</title>
<g id="a_node2"><a xlink:href="class_suite_c_r_m_add_in_1_1_business_logic_1_1_synchroniser.html" target="_top" xlink:title="Synchroniser\&lt; Outlook.Task\lItem \&gt;">
<polygon fill="white" stroke="black" points="0,-78.5 0,-108.5 141,-108.5 141,-78.5 0,-78.5"/>
<text text-anchor="start" x="8" y="-96.5" font-family="Helvetica,sans-Serif" font-size="10.00">Synchroniser&lt; Outlook.Task</text>
<text text-anchor="middle" x="70.5" y="-85.5" font-family="Helvetica,sans-Serif" font-size="10.00">Item &gt;</text>
</a>
</g>
</g>
<!-- Node2&#45;&gt;Node1 -->
<g id="edge1" class="edge"><title>Node2&#45;&gt;Node1</title>
<path fill="none" stroke="midnightblue" d="M93.8275,-71.3941C108.154,-58.4322 126.12,-42.1775 138.771,-30.7309"/>
<polygon fill="midnightblue" stroke="midnightblue" points="91.3669,-68.9004 86.2998,-78.205 96.0633,-74.0912 91.3669,-68.9004"/>
</g>
<!-- Node3 -->
<g id="node3" class="node"><title>Node3</title>
<g id="a_node3"><a xlink:href="class_suite_c_r_m_add_in_1_1_business_logic_1_1_sync_direction.html" target="_top" xlink:title="A direction in which things may be synchronised. Directions are named with respect to CRM...">
<polygon fill="white" stroke="black" points="159.5,-78.5 159.5,-108.5 317.5,-108.5 317.5,-78.5 159.5,-78.5"/>
<text text-anchor="start" x="167.5" y="-96.5" font-family="Helvetica,sans-Serif" font-size="10.00">SuiteCRMAddIn.BusinessLogic.</text>
<text text-anchor="middle" x="238.5" y="-85.5" font-family="Helvetica,sans-Serif" font-size="10.00">SyncDirection</text>
</a>
</g>
</g>
<!-- Node3&#45;&gt;Node1 -->
<g id="edge2" class="edge"><title>Node3&#45;&gt;Node1</title>
<path fill="none" stroke="#9a32cd" stroke-dasharray="5,2" d="M215.172,-71.3941C200.846,-58.4322 182.88,-42.1775 170.229,-30.7309"/>
<polygon fill="#9a32cd" stroke="#9a32cd" points="212.937,-74.0912 222.7,-78.205 217.633,-68.9004 212.937,-74.0912"/>
<text text-anchor="middle" x="224" y="-52" font-family="Helvetica,sans-Serif" font-size="10.00"> Direction</text>
</g>
</g>
</svg>
