<?xml version="1.0" encoding="UTF-8" standalone="no"?>
<!DOCTYPE svg PUBLIC "-//W3C//DTD SVG 1.1//EN"
 "http://www.w3.org/Graphics/SVG/1.1/DTD/svg11.dtd">
<!-- Generated by graphviz version 2.38.0 (20140413.2041)
 -->
<!-- Title: SuiteCRMAddIn.BusinessLogic.RepeatingProcess Pages: 1 -->
<svg width="387pt" height="197pt"
 viewBox="0.00 0.00 387.00 196.50" xmlns="http://www.w3.org/2000/svg" xmlns:xlink="http://www.w3.org/1999/xlink">
<g id="graph0" class="graph" transform="scale(1 1) rotate(0) translate(4 192.5)">
<title>SuiteCRMAddIn.BusinessLogic.RepeatingProcess</title>
<polygon fill="white" stroke="none" points="-4,4 -4,-192.5 383,-192.5 383,4 -4,4"/>
<!-- Node1 -->
<g id="node1" class="node"><title>Node1</title>
<polygon fill="#bfbfbf" stroke="black" points="0,-73.5 0,-103.5 158,-103.5 158,-73.5 0,-73.5"/>
<text text-anchor="start" x="8" y="-91.5" font-family="Helvetica,sans-Serif" font-size="10.00">SuiteCRMAddIn.BusinessLogic.</text>
<text text-anchor="middle" x="79" y="-80.5" font-family="Helvetica,sans-Serif" font-size="10.00">RepeatingProcess</text>
</g>
<!-- Node2 -->
<g id="node2" class="node"><title>Node2</title>
<g id="a_node2"><a xlink:href="class_suite_c_r_m_add_in_1_1_business_logic_1_1_c_r_m_permissions_cache.html" target="_top" xlink:title="Cache of CRM import/export permissions, flushed hourly. ">
<polygon fill="white" stroke="black" points="194,-147 194,-188 379,-188 379,-147 194,-147"/>
<text text-anchor="start" x="202" y="-176" font-family="Helvetica,sans-Serif" font-size="10.00">SuiteCRMAddIn.BusinessLogic.</text>
<text text-anchor="start" x="202" y="-165" font-family="Helvetica,sans-Serif" font-size="10.00">CRMPermissionsCache&lt; OutlookItem</text>
<text text-anchor="middle" x="286.5" y="-154" font-family="Helvetica,sans-Serif" font-size="10.00">Type &gt;</text>
</a>
</g>
</g>
<!-- Node1&#45;&gt;Node2 -->
<g id="edge1" class="edge"><title>Node1&#45;&gt;Node2</title>
<path fill="none" stroke="midnightblue" d="M121.211,-107.841C142.685,-117.595 169.511,-129.279 194,-138.5 201.642,-141.377 209.71,-144.216 217.762,-146.925"/>
<polygon fill="midnightblue" stroke="midnightblue" points="122.603,-104.629 112.054,-103.652 119.691,-110.995 122.603,-104.629"/>
</g>
<!-- Node3 -->
<g id="node3" class="node"><title>Node3</title>
<g id="a_node3"><a xlink:href="class_suite_c_r_m_add_in_1_1_business_logic_1_1_email_archiving.html" target="_top" xlink:title="The agent which handles the automatic and manual archiving of emails. ">
<polygon fill="white" stroke="black" points="207.5,-98.5 207.5,-128.5 365.5,-128.5 365.5,-98.5 207.5,-98.5"/>
<text text-anchor="start" x="215.5" y="-116.5" font-family="Helvetica,sans-Serif" font-size="10.00">SuiteCRMAddIn.BusinessLogic.</text>
<text text-anchor="middle" x="286.5" y="-105.5" font-family="Helvetica,sans-Serif" font-size="10.00">EmailArchiving</text>
</a>
</g>
</g>
<!-- Node1&#45;&gt;Node3 -->
<g id="edge2" class="edge"><title>Node1&#45;&gt;Node3</title>
<path fill="none" stroke="midnightblue" d="M168.567,-99.2746C181.5,-100.848 194.738,-102.458 207.441,-104.004"/>
<polygon fill="midnightblue" stroke="midnightblue" points="168.626,-95.7561 158.277,-98.0227 167.781,-102.705 168.626,-95.7561"/>
</g>
<!-- Node4 -->
<g id="node4" class="node"><title>Node4</title>
<g id="a_node4"><a xlink:href="class_suite_c_r_m_add_in_1_1_business_logic_1_1_synchroniser.html" target="_top" xlink:title="Synchronise items of the class for which I am responsible. ">
<polygon fill="white" stroke="black" points="203,-49.5 203,-79.5 370,-79.5 370,-49.5 203,-49.5"/>
<text text-anchor="start" x="211" y="-67.5" font-family="Helvetica,sans-Serif" font-size="10.00">SuiteCRMAddIn.BusinessLogic.</text>
<text text-anchor="middle" x="286.5" y="-56.5" font-family="Helvetica,sans-Serif" font-size="10.00">Synchroniser&lt; OutlookItemType &gt;</text>
</a>
</g>
</g>
<!-- Node1&#45;&gt;Node4 -->
<g id="edge3" class="edge"><title>Node1&#45;&gt;Node4</title>
<path fill="none" stroke="midnightblue" d="M168.315,-78.1858C179.828,-76.8413 191.587,-75.468 202.999,-74.1352"/>
<polygon fill="midnightblue" stroke="midnightblue" points="167.803,-74.7217 158.277,-79.3582 168.615,-81.6745 167.803,-74.7217"/>
</g>
<!-- Node5 -->
<g id="node5" class="node"><title>Node5</title>
<g id="a_node5"><a xlink:href="class_suite_c_r_m_add_in_1_1_daemon_1_1_daemon_worker.html" target="_top" xlink:title="A thing which maintains a queue of tasks (instances of DaemonAction) and executes them in turn...">
<polygon fill="white" stroke="black" points="203,-0.5 203,-30.5 370,-30.5 370,-0.5 203,-0.5"/>
<text text-anchor="start" x="211" y="-18.5" font-family="Helvetica,sans-Serif" font-size="10.00">SuiteCRMAddIn.Daemon.Daemon</text>
<text text-anchor="middle" x="286.5" y="-7.5" font-family="Helvetica,sans-Serif" font-size="10.00">Worker</text>
</a>
</g>
</g>
<!-- Node1&#45;&gt;Node5 -->
<g id="edge4" class="edge"><title>Node1&#45;&gt;Node5</title>
<path fill="none" stroke="midnightblue" d="M121.89,-69.3C143.217,-59.9264 169.71,-48.8912 194,-40.5 204.273,-36.9512 215.331,-33.5705 226.086,-30.5072"/>
<polygon fill="midnightblue" stroke="midnightblue" points="120.202,-66.2197 112.48,-73.4744 123.04,-72.6183 120.202,-66.2197"/>
</g>
</g>
</svg>
