<?xml version="1.0" encoding="UTF-8" standalone="no"?>
<!DOCTYPE svg PUBLIC "-//W3C//DTD SVG 1.1//EN"
 "http://www.w3.org/Graphics/SVG/1.1/DTD/svg11.dtd">
<!-- Generated by graphviz version 2.38.0 (20140413.2041)
 -->
<!-- Title: SuiteCRMAddIn.ThisAddIn.ManualArchive Pages: 1 -->
<svg width="789pt" height="295pt"
 viewBox="0.00 0.00 789.00 294.50" xmlns="http://www.w3.org/2000/svg" xmlns:xlink="http://www.w3.org/1999/xlink">
<g id="graph0" class="graph" transform="scale(1 1) rotate(0) translate(4 290.5)">
<title>SuiteCRMAddIn.ThisAddIn.ManualArchive</title>
<polygon fill="white" stroke="none" points="-4,4 -4,-290.5 785,-290.5 785,4 -4,4"/>
<!-- Node1 -->
<g id="node1" class="node"><title>Node1</title>
<polygon fill="#bfbfbf" stroke="black" points="0,-133 0,-163 138,-163 138,-133 0,-133"/>
<text text-anchor="start" x="8" y="-151" font-family="Helvetica,sans-Serif" font-size="10.00">SuiteCRMAddIn.ThisAddIn.</text>
<text text-anchor="middle" x="69" y="-140" font-family="Helvetica,sans-Serif" font-size="10.00">ManualArchive</text>
</g>
<!-- Node2 -->
<g id="node2" class="node"><title>Node2</title>
<g id="a_node2"><a xlink:href="class_suite_c_r_m_add_in_1_1_this_add_in.html#a8052836bf64ac24c9334d6ac28ec967e" target="_top" xlink:title="SuiteCRMAddIn.ThisAddIn.\lShowArchiveForm">
<polygon fill="white" stroke="black" points="199,-256 199,-286 337,-286 337,-256 199,-256"/>
<text text-anchor="start" x="207" y="-274" font-family="Helvetica,sans-Serif" font-size="10.00">SuiteCRMAddIn.ThisAddIn.</text>
<text text-anchor="middle" x="268" y="-263" font-family="Helvetica,sans-Serif" font-size="10.00">ShowArchiveForm</text>
</a>
</g>
</g>
<!-- Node1&#45;&gt;Node2 -->
<g id="edge1" class="edge"><title>Node1&#45;&gt;Node2</title>
<path fill="none" stroke="midnightblue" d="M81.6822,-163.238C99.2891,-185.128 134.766,-225.226 174,-247 178.83,-249.68 183.966,-252.069 189.25,-254.196"/>
<polygon fill="midnightblue" stroke="midnightblue" points="188.291,-257.573 198.885,-257.75 190.714,-251.006 188.291,-257.573"/>
</g>
<!-- Node3 -->
<g id="node3" class="node"><title>Node3</title>
<g id="a_node3"><a xlink:href="class_suite_c_r_m_client_1_1_user_session.html#a61cf62b4a67202acf08a834cbe44c5ab" target="_top" xlink:title="The documentation at http://support.sugarcrm.com/Documentation/Sugar_Developer/Sugar_Developer_Guide_...">
<polygon fill="white" stroke="black" points="193,-207 193,-237 343,-237 343,-207 193,-207"/>
<text text-anchor="start" x="201" y="-225" font-family="Helvetica,sans-Serif" font-size="10.00">SuiteCRMClient.UserSession.</text>
<text text-anchor="middle" x="268" y="-214" font-family="Helvetica,sans-Serif" font-size="10.00">LogOut</text>
</a>
</g>
</g>
<!-- Node1&#45;&gt;Node3 -->
<g id="edge2" class="edge"><title>Node1&#45;&gt;Node3</title>
<path fill="none" stroke="midnightblue" d="M97.6068,-163.106C118.204,-173.92 147.28,-188.236 174,-198 179.859,-200.141 185.991,-202.168 192.191,-204.07"/>
<polygon fill="midnightblue" stroke="midnightblue" points="191.38,-207.48 201.962,-206.953 193.361,-200.766 191.38,-207.48"/>
</g>
<!-- Node4 -->
<g id="node4" class="node"><title>Node4</title>
<g id="a_node4"><a xlink:href="class_suite_c_r_m_add_in_1_1_business_logic_1_1_repeating_process.html#aa335ddd9d301cfa4c127e795ec5beeb5" target="_top" xlink:title="Prepare to shutdown all running processes. ">
<polygon fill="white" stroke="black" points="174,-158 174,-188 362,-188 362,-158 174,-158"/>
<text text-anchor="start" x="182" y="-176" font-family="Helvetica,sans-Serif" font-size="10.00">SuiteCRMAddIn.BusinessLogic.</text>
<text text-anchor="middle" x="268" y="-165" font-family="Helvetica,sans-Serif" font-size="10.00">RepeatingProcess.PrepareShutdownAll</text>
</a>
</g>
</g>
<!-- Node1&#45;&gt;Node4 -->
<g id="edge3" class="edge"><title>Node1&#45;&gt;Node4</title>
<path fill="none" stroke="midnightblue" d="M138.072,-156.639C146.385,-157.694 155.019,-158.789 163.703,-159.891"/>
<polygon fill="midnightblue" stroke="midnightblue" points="163.543,-163.399 173.904,-161.186 164.424,-156.455 163.543,-163.399"/>
</g>
<!-- Node8 -->
<g id="node8" class="node"><title>Node8</title>
<g id="a_node8"><a xlink:href="class_suite_c_r_m_add_in_1_1_ribbon_image_helper.html#ab6c37f7066ccafd90143fe3803cb3c8b" target="_top" xlink:title="SuiteCRMAddIn.RibbonImage\lHelper.Convert">
<polygon fill="white" stroke="black" points="193.5,-109 193.5,-139 342.5,-139 342.5,-109 193.5,-109"/>
<text text-anchor="start" x="201.5" y="-127" font-family="Helvetica,sans-Serif" font-size="10.00">SuiteCRMAddIn.RibbonImage</text>
<text text-anchor="middle" x="268" y="-116" font-family="Helvetica,sans-Serif" font-size="10.00">Helper.Convert</text>
</a>
</g>
</g>
<!-- Node1&#45;&gt;Node8 -->
<g id="edge7" class="edge"><title>Node1&#45;&gt;Node8</title>
<path fill="none" stroke="midnightblue" d="M138.072,-139.707C152.53,-137.946 167.958,-136.066 182.931,-134.242"/>
<polygon fill="midnightblue" stroke="midnightblue" points="183.703,-137.674 193.207,-132.99 182.857,-130.725 183.703,-137.674"/>
</g>
<!-- Node9 -->
<g id="node9" class="node"><title>Node9</title>
<g id="a_node9"><a xlink:href="class_suite_c_r_m_add_in_1_1_this_add_in.html#a241a0e53ef17a70dfa4b991bce8df910" target="_top" xlink:title="SuiteCRMAddIn.ThisAddIn.\lShowSettingsForm">
<polygon fill="white" stroke="black" points="199,-60 199,-90 337,-90 337,-60 199,-60"/>
<text text-anchor="start" x="207" y="-78" font-family="Helvetica,sans-Serif" font-size="10.00">SuiteCRMAddIn.ThisAddIn.</text>
<text text-anchor="middle" x="268" y="-67" font-family="Helvetica,sans-Serif" font-size="10.00">ShowSettingsForm</text>
</a>
</g>
</g>
<!-- Node1&#45;&gt;Node9 -->
<g id="edge8" class="edge"><title>Node1&#45;&gt;Node9</title>
<path fill="none" stroke="midnightblue" d="M99.0278,-132.985C119.584,-122.756 148.011,-109.413 174,-100 180.809,-97.5339 187.975,-95.1866 195.184,-92.9886"/>
<polygon fill="midnightblue" stroke="midnightblue" points="196.412,-96.2756 205.011,-90.0866 194.429,-89.5622 196.412,-96.2756"/>
</g>
<!-- Node10 -->
<g id="node10" class="node"><title>Node10</title>
<g id="a_node10"><a xlink:href="class_suite_c_r_m_add_in_1_1_business_logic_1_1_email_archiving.html#a28d7941e33b094c344e5691a1a6be644" target="_top" xlink:title="SuiteCRMAddIn.BusinessLogic.\lEmailArchiving.ProcessEligibleNew\lMailItem">
<polygon fill="white" stroke="black" points="181.5,-0.5 181.5,-41.5 354.5,-41.5 354.5,-0.5 181.5,-0.5"/>
<text text-anchor="start" x="189.5" y="-29.5" font-family="Helvetica,sans-Serif" font-size="10.00">SuiteCRMAddIn.BusinessLogic.</text>
<text text-anchor="start" x="189.5" y="-18.5" font-family="Helvetica,sans-Serif" font-size="10.00">EmailArchiving.ProcessEligibleNew</text>
<text text-anchor="middle" x="268" y="-7.5" font-family="Helvetica,sans-Serif" font-size="10.00">MailItem</text>
</a>
</g>
</g>
<!-- Node1&#45;&gt;Node10 -->
<g id="edge9" class="edge"><title>Node1&#45;&gt;Node10</title>
<path fill="none" stroke="midnightblue" d="M82.5286,-132.674C100.631,-111.465 136.11,-73.2671 174,-51 177.017,-49.2271 180.151,-47.5452 183.364,-45.9511"/>
<polygon fill="midnightblue" stroke="midnightblue" points="184.985,-49.0578 192.597,-41.6884 182.051,-42.7024 184.985,-49.0578"/>
</g>
<!-- Node5 -->
<g id="node5" class="node"><title>Node5</title>
<g id="a_node5"><a xlink:href="class_suite_c_r_m_add_in_1_1_business_logic_1_1_repeating_process.html#a75baab6367c7ce36a63695d23a646c95" target="_top" xlink:title="Put me into a mode where I finish all the work I have to do quickly. ">
<polygon fill="white" stroke="black" points="398,-182 398,-212 575,-212 575,-182 398,-182"/>
<text text-anchor="start" x="406" y="-200" font-family="Helvetica,sans-Serif" font-size="10.00">SuiteCRMAddIn.BusinessLogic.</text>
<text text-anchor="middle" x="486.5" y="-189" font-family="Helvetica,sans-Serif" font-size="10.00">RepeatingProcess.PrepareShutdown</text>
</a>
</g>
</g>
<!-- Node4&#45;&gt;Node5 -->
<g id="edge4" class="edge"><title>Node4&#45;&gt;Node5</title>
<path fill="none" stroke="midnightblue" d="M362.072,-183.317C370.639,-184.267 379.335,-185.231 387.94,-186.185"/>
<polygon fill="midnightblue" stroke="midnightblue" points="387.662,-189.676 397.987,-187.299 388.434,-182.718 387.662,-189.676"/>
</g>
<!-- Node7 -->
<g id="node7" class="node"><title>Node7</title>
<g id="a_node7"><a xlink:href="class_suite_c_r_m_add_in_1_1_business_logic_1_1_repeating_process.html#a1484b532908abdfad6640cc758cd2f37" target="_top" xlink:title="Stop me at the end of my current iteration; does not force an immediate stop unless no work is curren...">
<polygon fill="white" stroke="black" points="407.5,-133 407.5,-163 565.5,-163 565.5,-133 407.5,-133"/>
<text text-anchor="start" x="415.5" y="-151" font-family="Helvetica,sans-Serif" font-size="10.00">SuiteCRMAddIn.BusinessLogic.</text>
<text text-anchor="middle" x="486.5" y="-140" font-family="Helvetica,sans-Serif" font-size="10.00">RepeatingProcess.Stop</text>
</a>
</g>
</g>
<!-- Node4&#45;&gt;Node7 -->
<g id="edge6" class="edge"><title>Node4&#45;&gt;Node7</title>
<path fill="none" stroke="midnightblue" d="M362.072,-162.253C373.773,-160.902 385.715,-159.523 397.337,-158.181"/>
<polygon fill="midnightblue" stroke="midnightblue" points="397.921,-161.636 407.453,-157.012 397.118,-154.683 397.921,-161.636"/>
</g>
<!-- Node6 -->
<g id="node6" class="node"><title>Node6</title>
<g id="a_node6"><a xlink:href="class_suite_c_r_m_add_in_1_1_business_logic_1_1_repeating_process.html#a13a459becdd7115fdd3af289318e74b7" target="_top" xlink:title="Do whatever it is I do, once. ">
<polygon fill="white" stroke="black" points="611,-182 611,-212 781,-212 781,-182 611,-182"/>
<text text-anchor="start" x="619" y="-200" font-family="Helvetica,sans-Serif" font-size="10.00">SuiteCRMAddIn.BusinessLogic.</text>
<text text-anchor="middle" x="696" y="-189" font-family="Helvetica,sans-Serif" font-size="10.00">RepeatingProcess.PerformIteration</text>
</a>
</g>
</g>
<!-- Node5&#45;&gt;Node6 -->
<g id="edge5" class="edge"><title>Node5&#45;&gt;Node6</title>
<path fill="none" stroke="midnightblue" d="M575.198,-197C583.704,-197 592.358,-197 600.924,-197"/>
<polygon fill="midnightblue" stroke="midnightblue" points="600.924,-200.5 610.924,-197 600.924,-193.5 600.924,-200.5"/>
</g>
</g>
</svg>
