<?xml version="1.0" encoding="UTF-8" standalone="no"?>
<!DOCTYPE svg PUBLIC "-//W3C//DTD SVG 1.1//EN"
 "http://www.w3.org/Graphics/SVG/1.1/DTD/svg11.dtd">
<!-- Generated by graphviz version 2.38.0 (20140413.2041)
 -->
<!-- Title: SuiteCRMAddIn.BusinessLogic.EmailAccountsArchiveSettings.Clear Pages: 1 -->
<svg width="830pt" height="50pt"
 viewBox="0.00 0.00 830.00 50.00" xmlns="http://www.w3.org/2000/svg" xmlns:xlink="http://www.w3.org/1999/xlink">
<g id="graph0" class="graph" transform="scale(1 1) rotate(0) translate(4 46)">
<title>SuiteCRMAddIn.BusinessLogic.EmailAccountsArchiveSettings.Clear</title>
<polygon fill="white" stroke="none" points="-4,4 -4,-46 826,-46 826,4 -4,4"/>
<!-- Node1 -->
<g id="node1" class="node"><title>Node1</title>
<polygon fill="#bfbfbf" stroke="black" points="0,-6 0,-36 178,-36 178,-6 0,-6"/>
<text text-anchor="start" x="8" y="-24" font-family="Helvetica,sans-Serif" font-size="10.00">SuiteCRMAddIn.BusinessLogic.</text>
<text text-anchor="middle" x="89" y="-13" font-family="Helvetica,sans-Serif" font-size="10.00">EmailAccountsArchiveSettings.Clear</text>
</g>
<!-- Node2 -->
<g id="node2" class="node"><title>Node2</title>
<g id="a_node2"><a xlink:href="class_suite_c_r_m_add_in_1_1_business_logic_1_1_email_accounts_archive_settings.html#a1480c984997d01b643c3db7831dec8c0" target="_top" xlink:title="SuiteCRMAddIn.BusinessLogic.\lEmailAccountsArchiveSettings.Email\lAccountsArchiveSettings">
<polygon fill="white" stroke="black" points="214,-0.5 214,-41.5 393,-41.5 393,-0.5 214,-0.5"/>
<text text-anchor="start" x="222" y="-29.5" font-family="Helvetica,sans-Serif" font-size="10.00">SuiteCRMAddIn.BusinessLogic.</text>
<text text-anchor="start" x="222" y="-18.5" font-family="Helvetica,sans-Serif" font-size="10.00">EmailAccountsArchiveSettings.Email</text>
<text text-anchor="middle" x="303.5" y="-7.5" font-family="Helvetica,sans-Serif" font-size="10.00">AccountsArchiveSettings</text>
</a>
</g>
</g>
<!-- Node1&#45;&gt;Node2 -->
<g id="edge1" class="edge"><title>Node1&#45;&gt;Node2</title>
<path fill="none" stroke="midnightblue" d="M188.52,-21C196.958,-21 205.462,-21 213.818,-21"/>
<polygon fill="midnightblue" stroke="midnightblue" points="188.273,-17.5001 178.273,-21 188.273,-24.5001 188.273,-17.5001"/>
</g>
<!-- Node3 -->
<g id="node3" class="node"><title>Node3</title>
<g id="a_node3"><a xlink:href="class_suite_c_r_m_add_in_1_1_business_logic_1_1_email_accounts_archive_settings.html#a27ae6b3fa16f5ec92fe043a467c1db08" target="_top" xlink:title="SuiteCRMAddIn.BusinessLogic.\lEmailAccountsArchiveSettings.Combine">
<polygon fill="white" stroke="black" points="429,-6 429,-36 623,-36 623,-6 429,-6"/>
<text text-anchor="start" x="437" y="-24" font-family="Helvetica,sans-Serif" font-size="10.00">SuiteCRMAddIn.BusinessLogic.</text>
<text text-anchor="middle" x="526" y="-13" font-family="Helvetica,sans-Serif" font-size="10.00">EmailAccountsArchiveSettings.Combine</text>
</a>
</g>
</g>
<!-- Node2&#45;&gt;Node3 -->
<g id="edge2" class="edge"><title>Node2&#45;&gt;Node3</title>
<path fill="none" stroke="midnightblue" d="M403.474,-21C411.917,-21 420.45,-21 428.871,-21"/>
<polygon fill="midnightblue" stroke="midnightblue" points="403.233,-17.5001 393.233,-21 403.233,-24.5001 403.233,-17.5001"/>
</g>
<!-- Node4 -->
<g id="node4" class="node"><title>Node4</title>
<g id="a_node4"><a xlink:href="class_suite_c_r_m_add_in_1_1_dialogs_1_1_settings_dialog.html#a55bf341eb6cf34acaa004c221719b4ba" target="_top" xlink:title="SuiteCRMAddIn.Dialogs.Settings\lDialog.SettingsDialog">
<polygon fill="white" stroke="black" points="659,-6 659,-36 822,-36 822,-6 659,-6"/>
<text text-anchor="start" x="667" y="-24" font-family="Helvetica,sans-Serif" font-size="10.00">SuiteCRMAddIn.Dialogs.Settings</text>
<text text-anchor="middle" x="740.5" y="-13" font-family="Helvetica,sans-Serif" font-size="10.00">Dialog.SettingsDialog</text>
</a>
</g>
</g>
<!-- Node3&#45;&gt;Node4 -->
<g id="edge3" class="edge"><title>Node3&#45;&gt;Node4</title>
<path fill="none" stroke="midnightblue" d="M633.335,-21C641.893,-21 650.45,-21 658.784,-21"/>
<polygon fill="midnightblue" stroke="midnightblue" points="633.302,-17.5001 623.302,-21 633.302,-24.5001 633.302,-17.5001"/>
</g>
</g>
</svg>
