<?xml version="1.0" encoding="UTF-8" standalone="no"?>
<!DOCTYPE svg PUBLIC "-//W3C//DTD SVG 1.1//EN"
 "http://www.w3.org/Graphics/SVG/1.1/DTD/svg11.dtd">
<!-- Generated by graphviz version 2.38.0 (20140413.2041)
 -->
<!-- Title: SuiteCRMAddIn.ProtoItems.ProtoContact.AsNameValues Pages: 1 -->
<svg width="371pt" height="88pt"
 viewBox="0.00 0.00 371.00 88.00" xmlns="http://www.w3.org/2000/svg" xmlns:xlink="http://www.w3.org/1999/xlink">
<g id="graph0" class="graph" transform="scale(1 1) rotate(0) translate(4 84)">
<title>SuiteCRMAddIn.ProtoItems.ProtoContact.AsNameValues</title>
<polygon fill="white" stroke="none" points="-4,4 -4,-84 367,-84 367,4 -4,4"/>
<!-- Node1 -->
<g id="node1" class="node"><title>Node1</title>
<polygon fill="#bfbfbf" stroke="black" points="0,-24.5 0,-54.5 146,-54.5 146,-24.5 0,-24.5"/>
<text text-anchor="start" x="8" y="-42.5" font-family="Helvetica,sans-Serif" font-size="10.00">SuiteCRMAddIn.ProtoItems.</text>
<text text-anchor="middle" x="73" y="-31.5" font-family="Helvetica,sans-Serif" font-size="10.00">ProtoContact.AsNameValues</text>
</g>
<!-- Node2 -->
<g id="node2" class="node"><title>Node2</title>
<g id="a_node2"><a xlink:href="class_suite_c_r_m_client_1_1cls_suite_c_r_m_helper.html#a0e1f5bda4e7a7ebf6f9ee988086dd79d" target="_top" xlink:title="SuiteCRMClient.clsSuiteCRMHelper.\lSetNameValuePair">
<polygon fill="white" stroke="black" points="182,-49.5 182,-79.5 363,-79.5 363,-49.5 182,-49.5"/>
<text text-anchor="start" x="190" y="-67.5" font-family="Helvetica,sans-Serif" font-size="10.00">SuiteCRMClient.clsSuiteCRMHelper.</text>
<text text-anchor="middle" x="272.5" y="-56.5" font-family="Helvetica,sans-Serif" font-size="10.00">SetNameValuePair</text>
</a>
</g>
</g>
<!-- Node1&#45;&gt;Node2 -->
<g id="edge1" class="edge"><title>Node1&#45;&gt;Node2</title>
<path fill="none" stroke="midnightblue" d="M146.14,-48.6317C154.456,-49.6844 163.045,-50.7715 171.644,-51.86"/>
<polygon fill="midnightblue" stroke="midnightblue" points="171.368,-55.3529 181.728,-53.1365 172.247,-48.4083 171.368,-55.3529"/>
</g>
<!-- Node3 -->
<g id="node3" class="node"><title>Node3</title>
<g id="a_node3"><a xlink:href="class_suite_c_r_m_client_1_1cls_suite_c_r_m_helper.html#a050637c0cbd1012cf9cf58c5cb3d179c" target="_top" xlink:title="Return the CRM id of the current user. ">
<polygon fill="white" stroke="black" points="182,-0.5 182,-30.5 363,-30.5 363,-0.5 182,-0.5"/>
<text text-anchor="start" x="190" y="-18.5" font-family="Helvetica,sans-Serif" font-size="10.00">SuiteCRMClient.clsSuiteCRMHelper.</text>
<text text-anchor="middle" x="272.5" y="-7.5" font-family="Helvetica,sans-Serif" font-size="10.00">GetUserId</text>
</a>
</g>
</g>
<!-- Node1&#45;&gt;Node3 -->
<g id="edge2" class="edge"><title>Node1&#45;&gt;Node3</title>
<path fill="none" stroke="midnightblue" d="M146.14,-30.7336C154.456,-29.723 163.045,-28.6794 171.644,-27.6344"/>
<polygon fill="midnightblue" stroke="midnightblue" points="172.224,-31.0898 181.728,-26.409 171.379,-24.1409 172.224,-31.0898"/>
</g>
</g>
</svg>
