<?xml version="1.0" encoding="UTF-8" standalone="no"?>
<!DOCTYPE svg PUBLIC "-//W3C//DTD SVG 1.1//EN"
 "http://www.w3.org/Graphics/SVG/1.1/DTD/svg11.dtd">
<!-- Generated by graphviz version 2.38.0 (20140413.2041)
 -->
<!-- Title: SuiteCRMAddIn.ThisAddIn Pages: 1 -->
<svg width="281pt" height="117pt"
 viewBox="0.00 0.00 280.50 117.00" xmlns="http://www.w3.org/2000/svg" xmlns:xlink="http://www.w3.org/1999/xlink">
<g id="graph0" class="graph" transform="scale(1 1) rotate(0) translate(4 113)">
<title>SuiteCRMAddIn.ThisAddIn</title>
<polygon fill="white" stroke="none" points="-4,4 -4,-113 276.5,-113 276.5,4 -4,4"/>
<!-- Node1 -->
<g id="node1" class="node"><title>Node1</title>
<polygon fill="#bfbfbf" stroke="black" points="66,-0.5 66,-19.5 201,-19.5 201,-0.5 66,-0.5"/>
<text text-anchor="middle" x="133.5" y="-7.5" font-family="Helvetica,sans-Serif" font-size="10.00">SuiteCRMAddIn.ThisAddIn</text>
</g>
<!-- Node2 -->
<g id="node2" class="node"><title>Node2</title>
<polygon fill="white" stroke="#bfbfbf" points="0,-67.5 0,-108.5 137,-108.5 137,-67.5 0,-67.5"/>
<text text-anchor="start" x="8" y="-96.5" font-family="Helvetica,sans-Serif" font-size="10.00">Microsoft::Office::</text>
<text text-anchor="start" x="8" y="-85.5" font-family="Helvetica,sans-Serif" font-size="10.00">Tools::Outlook::OutlookAdd</text>
<text text-anchor="middle" x="68.5" y="-74.5" font-family="Helvetica,sans-Serif" font-size="10.00">InBase</text>
</g>
<!-- Node2&#45;&gt;Node1 -->
<g id="edge1" class="edge"><title>Node2&#45;&gt;Node1</title>
<path fill="none" stroke="midnightblue" d="M92.0722,-59.4386C104.12,-45.3516 117.943,-29.1897 126.186,-19.552"/>
<polygon fill="midnightblue" stroke="midnightblue" points="89.0789,-57.5536 85.2391,-67.4281 94.3987,-62.1034 89.0789,-57.5536"/>
</g>
<!-- Node3 -->
<g id="node3" class="node"><title>Node3</title>
<polygon fill="white" stroke="#bfbfbf" points="155.5,-78.5 155.5,-97.5 243.5,-97.5 243.5,-78.5 155.5,-78.5"/>
<text text-anchor="middle" x="199.5" y="-85.5" font-family="Helvetica,sans-Serif" font-size="10.00">SuiteCRMClient</text>
</g>
<!-- Node3&#45;&gt;Node1 -->
<g id="edge2" class="edge"><title>Node3&#45;&gt;Node1</title>
<path fill="none" stroke="#9a32cd" stroke-dasharray="5,2" d="M185.121,-70.4421C171.53,-54.7918 151.674,-31.9282 140.983,-19.6165"/>
<polygon fill="#9a32cd" stroke="#9a32cd" points="182.729,-73.0264 191.929,-78.2818 188.015,-68.4366 182.729,-73.0264"/>
<text text-anchor="middle" x="219.5" y="-41" font-family="Helvetica,sans-Serif" font-size="10.00"> SuiteCRMUserSession</text>
</g>
</g>
</svg>
