<?xml version="1.0" encoding="UTF-8" standalone="no"?>
<!DOCTYPE svg PUBLIC "-//W3C//DTD SVG 1.1//EN"
 "http://www.w3.org/Graphics/SVG/1.1/DTD/svg11.dtd">
<!-- Generated by graphviz version 2.38.0 (20140413.2041)
 -->
<!-- Title: SuiteCRMAddIn.BusinessLogic.Synchroniser.ConstructAndDespatchCrmItem Pages: 1 -->
<svg width="439pt" height="110pt"
 viewBox="0.00 0.00 439.00 110.00" xmlns="http://www.w3.org/2000/svg" xmlns:xlink="http://www.w3.org/1999/xlink">
<g id="graph0" class="graph" transform="scale(1 1) rotate(0) translate(4 106)">
<title>SuiteCRMAddIn.BusinessLogic.Synchroniser.ConstructAndDespatchCrmItem</title>
<polygon fill="white" stroke="none" points="-4,4 -4,-106 435,-106 435,4 -4,4"/>
<!-- Node1 -->
<g id="node1" class="node"><title>Node1</title>
<polygon fill="#bfbfbf" stroke="black" points="0,-30.5 0,-71.5 179,-71.5 179,-30.5 0,-30.5"/>
<text text-anchor="start" x="8" y="-59.5" font-family="Helvetica,sans-Serif" font-size="10.00">SuiteCRMAddIn.BusinessLogic.</text>
<text text-anchor="start" x="8" y="-48.5" font-family="Helvetica,sans-Serif" font-size="10.00">Synchroniser.ConstructAndDespatch</text>
<text text-anchor="middle" x="89.5" y="-37.5" font-family="Helvetica,sans-Serif" font-size="10.00">CrmItem</text>
</g>
<!-- Node2 -->
<g id="node2" class="node"><title>Node2</title>
<g id="a_node2"><a xlink:href="class_suite_c_r_m_add_in_1_1_business_logic_1_1_synchroniser.html#aecaeaaae371d340839392edf8d8f396e" target="_top" xlink:title="Add the Outlook item referenced by this sync state, which may not exist in CRM, to CRM...">
<polygon fill="white" stroke="black" points="215,-60.5 215,-101.5 431,-101.5 431,-60.5 215,-60.5"/>
<text text-anchor="start" x="223" y="-89.5" font-family="Helvetica,sans-Serif" font-size="10.00">SuiteCRMAddIn.BusinessLogic.</text>
<text text-anchor="start" x="223" y="-78.5" font-family="Helvetica,sans-Serif" font-size="10.00">Synchroniser&lt; Outlook.Appointment</text>
<text text-anchor="middle" x="323" y="-67.5" font-family="Helvetica,sans-Serif" font-size="10.00">Item &gt;::AddOrUpdateItemFromOutlookToCrm</text>
</a>
</g>
</g>
<!-- Node1&#45;&gt;Node2 -->
<g id="edge1" class="edge"><title>Node1&#45;&gt;Node2</title>
<path fill="none" stroke="midnightblue" d="M189.002,-63.7648C197.573,-64.8756 206.273,-66.003 214.909,-67.1221"/>
<polygon fill="midnightblue" stroke="midnightblue" points="189.378,-60.2844 179.011,-62.4701 188.478,-67.2263 189.378,-60.2844"/>
</g>
<!-- Node3 -->
<g id="node3" class="node"><title>Node3</title>
<g id="a_node3"><a xlink:href="class_suite_c_r_m_add_in_1_1_business_logic_1_1_synchroniser.html#a74c61ab39aee93111cef4af1c400305a" target="_top" xlink:title="Find the SyncState whose item is this item; if it does not already exist, construct and return it...">
<polygon fill="white" stroke="black" points="236,-0.5 236,-41.5 410,-41.5 410,-0.5 236,-0.5"/>
<text text-anchor="start" x="244" y="-29.5" font-family="Helvetica,sans-Serif" font-size="10.00">SuiteCRMAddIn.BusinessLogic.</text>
<text text-anchor="start" x="244" y="-18.5" font-family="Helvetica,sans-Serif" font-size="10.00">Synchroniser&lt; Outlook.Appointment</text>
<text text-anchor="middle" x="323" y="-7.5" font-family="Helvetica,sans-Serif" font-size="10.00">Item &gt;::AddOrGetSyncState</text>
</a>
</g>
</g>
<!-- Node1&#45;&gt;Node3 -->
<g id="edge2" class="edge"><title>Node1&#45;&gt;Node3</title>
<path fill="none" stroke="midnightblue" d="M189.142,-38.2171C204.668,-36.205 220.615,-34.1385 235.83,-32.1667"/>
<polygon fill="midnightblue" stroke="midnightblue" points="188.478,-34.7737 179.011,-39.5299 189.378,-41.7156 188.478,-34.7737"/>
</g>
</g>
</svg>
