<?xml version="1.0" encoding="UTF-8" standalone="no"?>
<!DOCTYPE svg PUBLIC "-//W3C//DTD SVG 1.1//EN"
 "http://www.w3.org/Graphics/SVG/1.1/DTD/svg11.dtd">
<!-- Generated by graphviz version 2.38.0 (20140413.2041)
 -->
<!-- Title: SuiteCRMAddIn.BusinessLogic.CRMPermissionsCache.HasImportAccess Pages: 1 -->
<svg width="858pt" height="137pt"
 viewBox="0.00 0.00 858.00 137.00" xmlns="http://www.w3.org/2000/svg" xmlns:xlink="http://www.w3.org/1999/xlink">
<g id="graph0" class="graph" transform="scale(1 1) rotate(0) translate(4 133)">
<title>SuiteCRMAddIn.BusinessLogic.CRMPermissionsCache.HasImportAccess</title>
<polygon fill="white" stroke="none" points="-4,4 -4,-133 854,-133 854,4 -4,4"/>
<!-- Node1 -->
<g id="node1" class="node"><title>Node1</title>
<polygon fill="#bfbfbf" stroke="black" points="0,-49.5 0,-79.5 204,-79.5 204,-49.5 0,-49.5"/>
<text text-anchor="start" x="8" y="-67.5" font-family="Helvetica,sans-Serif" font-size="10.00">SuiteCRMAddIn.BusinessLogic.</text>
<text text-anchor="middle" x="102" y="-56.5" font-family="Helvetica,sans-Serif" font-size="10.00">CRMPermissionsCache.HasImportAccess</text>
</g>
<!-- Node2 -->
<g id="node2" class="node"><title>Node2</title>
<g id="a_node2"><a xlink:href="class_suite_c_r_m_add_in_1_1_business_logic_1_1_c_r_m_permissions_cache.html#ae827e3294d872f8fedc440b83ad0b8d2" target="_top" xlink:title="Check whether my synchroniser is allowed access to the specified CRM module, with the specified permi...">
<polygon fill="white" stroke="black" points="240,-49.5 240,-79.5 416,-79.5 416,-49.5 240,-49.5"/>
<text text-anchor="start" x="248" y="-67.5" font-family="Helvetica,sans-Serif" font-size="10.00">SuiteCRMAddIn.BusinessLogic.</text>
<text text-anchor="middle" x="328" y="-56.5" font-family="Helvetica,sans-Serif" font-size="10.00">CRMPermissionsCache.HasAccess</text>
</a>
</g>
</g>
<!-- Node1&#45;&gt;Node2 -->
<g id="edge1" class="edge"><title>Node1&#45;&gt;Node2</title>
<path fill="none" stroke="midnightblue" d="M204.187,-64.5C212.677,-64.5 221.25,-64.5 229.71,-64.5"/>
<polygon fill="midnightblue" stroke="midnightblue" points="229.959,-68.0001 239.959,-64.5 229.959,-61.0001 229.959,-68.0001"/>
</g>
<!-- Node3 -->
<g id="node3" class="node"><title>Node3</title>
<g id="a_node3"><a xlink:href="class_suite_c_r_m_client_1_1cls_suite_c_r_m_helper.html#afd19c20b8c3d82655e35d46d7829197f" target="_top" xlink:title="Get the list of modules installed in the connected CRM instance, with their associated access control...">
<polygon fill="white" stroke="black" points="452,-98.5 452,-128.5 633,-128.5 633,-98.5 452,-98.5"/>
<text text-anchor="start" x="460" y="-116.5" font-family="Helvetica,sans-Serif" font-size="10.00">SuiteCRMClient.clsSuiteCRMHelper.</text>
<text text-anchor="middle" x="542.5" y="-105.5" font-family="Helvetica,sans-Serif" font-size="10.00">GetModules</text>
</a>
</g>
</g>
<!-- Node2&#45;&gt;Node3 -->
<g id="edge2" class="edge"><title>Node2&#45;&gt;Node3</title>
<path fill="none" stroke="midnightblue" d="M394.201,-79.5346C417.046,-84.8024 442.883,-90.7601 466.468,-96.1984"/>
<polygon fill="midnightblue" stroke="midnightblue" points="465.891,-99.6573 476.422,-98.4938 467.464,-92.8363 465.891,-99.6573"/>
</g>
<!-- Node5 -->
<g id="node5" class="node"><title>Node5</title>
<g id="a_node5"><a xlink:href="class_suite_c_r_m_add_in_1_1_business_logic_1_1_sync_direction.html#ad456cb19bab5eb78bc35f7b305274d01" target="_top" xlink:title="Does this direction allow outbound transfers from Outlook? ">
<polygon fill="white" stroke="black" points="463.5,-49.5 463.5,-79.5 621.5,-79.5 621.5,-49.5 463.5,-49.5"/>
<text text-anchor="start" x="471.5" y="-67.5" font-family="Helvetica,sans-Serif" font-size="10.00">SuiteCRMAddIn.BusinessLogic.</text>
<text text-anchor="middle" x="542.5" y="-56.5" font-family="Helvetica,sans-Serif" font-size="10.00">SyncDirection.AllowOutbound</text>
</a>
</g>
</g>
<!-- Node2&#45;&gt;Node5 -->
<g id="edge4" class="edge"><title>Node2&#45;&gt;Node5</title>
<path fill="none" stroke="midnightblue" d="M416.045,-64.5C428.313,-64.5 440.934,-64.5 453.225,-64.5"/>
<polygon fill="midnightblue" stroke="midnightblue" points="453.456,-68.0001 463.456,-64.5 453.456,-61.0001 453.456,-68.0001"/>
</g>
<!-- Node6 -->
<g id="node6" class="node"><title>Node6</title>
<g id="a_node6"><a xlink:href="class_suite_c_r_m_add_in_1_1_business_logic_1_1_sync_direction.html#a96a16ea01111b3c05734e87d75eeef96" target="_top" xlink:title="Does this direction allow inbound transfers to Outlook? ">
<polygon fill="white" stroke="black" points="463.5,-0.5 463.5,-30.5 621.5,-30.5 621.5,-0.5 463.5,-0.5"/>
<text text-anchor="start" x="471.5" y="-18.5" font-family="Helvetica,sans-Serif" font-size="10.00">SuiteCRMAddIn.BusinessLogic.</text>
<text text-anchor="middle" x="542.5" y="-7.5" font-family="Helvetica,sans-Serif" font-size="10.00">SyncDirection.AllowInbound</text>
</a>
</g>
</g>
<!-- Node2&#45;&gt;Node6 -->
<g id="edge5" class="edge"><title>Node2&#45;&gt;Node6</title>
<path fill="none" stroke="midnightblue" d="M394.201,-49.4654C417.046,-44.1976 442.883,-38.2399 466.468,-32.8016"/>
<polygon fill="midnightblue" stroke="midnightblue" points="467.464,-36.1637 476.422,-30.5062 465.891,-29.3427 467.464,-36.1637"/>
</g>
<!-- Node4 -->
<g id="node4" class="node"><title>Node4</title>
<g id="a_node4"><a xlink:href="class_suite_c_r_m_client_1_1cls_suite_c_r_m_helper.html#a80f04ec3ab185a736b6633c0df69c536" target="_top" xlink:title="SuiteCRMClient.clsSuiteCRMHelper.\lEnsureLoggedIn">
<polygon fill="white" stroke="black" points="669,-98.5 669,-128.5 850,-128.5 850,-98.5 669,-98.5"/>
<text text-anchor="start" x="677" y="-116.5" font-family="Helvetica,sans-Serif" font-size="10.00">SuiteCRMClient.clsSuiteCRMHelper.</text>
<text text-anchor="middle" x="759.5" y="-105.5" font-family="Helvetica,sans-Serif" font-size="10.00">EnsureLoggedIn</text>
</a>
</g>
</g>
<!-- Node3&#45;&gt;Node4 -->
<g id="edge3" class="edge"><title>Node3&#45;&gt;Node4</title>
<path fill="none" stroke="midnightblue" d="M633.123,-113.5C641.478,-113.5 649.982,-113.5 658.424,-113.5"/>
<polygon fill="midnightblue" stroke="midnightblue" points="658.677,-117 668.677,-113.5 658.677,-110 658.677,-117"/>
</g>
</g>
</svg>
