<?xml version="1.0" encoding="UTF-8" standalone="no"?>
<!DOCTYPE svg PUBLIC "-//W3C//DTD SVG 1.1//EN"
 "http://www.w3.org/Graphics/SVG/1.1/DTD/svg11.dtd">
<!-- Generated by graphviz version 2.38.0 (20140413.2041)
 -->
<!-- Title: SuiteCRMAddIn.BusinessLogic.RepeatingProcess.PerformIteration Pages: 1 -->
<svg width="1034pt" height="112pt"
 viewBox="0.00 0.00 1034.00 112.00" xmlns="http://www.w3.org/2000/svg" xmlns:xlink="http://www.w3.org/1999/xlink">
<g id="graph0" class="graph" transform="scale(1 1) rotate(0) translate(4 108)">
<title>SuiteCRMAddIn.BusinessLogic.RepeatingProcess.PerformIteration</title>
<polygon fill="white" stroke="none" points="-4,4 -4,-108 1030,-108 1030,4 -4,4"/>
<!-- Node1 -->
<g id="node1" class="node"><title>Node1</title>
<polygon fill="#bfbfbf" stroke="black" points="0,-48.5 0,-78.5 170,-78.5 170,-48.5 0,-48.5"/>
<text text-anchor="start" x="8" y="-66.5" font-family="Helvetica,sans-Serif" font-size="10.00">SuiteCRMAddIn.BusinessLogic.</text>
<text text-anchor="middle" x="85" y="-55.5" font-family="Helvetica,sans-Serif" font-size="10.00">RepeatingProcess.PerformIteration</text>
</g>
<!-- Node2 -->
<g id="node2" class="node"><title>Node2</title>
<g id="a_node2"><a xlink:href="class_suite_c_r_m_add_in_1_1_business_logic_1_1_repeating_process.html#a75baab6367c7ce36a63695d23a646c95" target="_top" xlink:title="Put me into a mode where I finish all the work I have to do quickly. ">
<polygon fill="white" stroke="black" points="206,-48.5 206,-78.5 383,-78.5 383,-48.5 206,-48.5"/>
<text text-anchor="start" x="214" y="-66.5" font-family="Helvetica,sans-Serif" font-size="10.00">SuiteCRMAddIn.BusinessLogic.</text>
<text text-anchor="middle" x="294.5" y="-55.5" font-family="Helvetica,sans-Serif" font-size="10.00">RepeatingProcess.PrepareShutdown</text>
</a>
</g>
</g>
<!-- Node1&#45;&gt;Node2 -->
<g id="edge1" class="edge"><title>Node1&#45;&gt;Node2</title>
<path fill="none" stroke="midnightblue" d="M180.121,-63.5C188.705,-63.5 197.378,-63.5 205.901,-63.5"/>
<polygon fill="midnightblue" stroke="midnightblue" points="180.099,-60.0001 170.099,-63.5 180.099,-67.0001 180.099,-60.0001"/>
</g>
<!-- Node3 -->
<g id="node3" class="node"><title>Node3</title>
<g id="a_node3"><a xlink:href="class_suite_c_r_m_add_in_1_1_business_logic_1_1_repeating_process.html#aa335ddd9d301cfa4c127e795ec5beeb5" target="_top" xlink:title="Prepare to shutdown all running processes. ">
<polygon fill="white" stroke="black" points="419,-48.5 419,-78.5 607,-78.5 607,-48.5 419,-48.5"/>
<text text-anchor="start" x="427" y="-66.5" font-family="Helvetica,sans-Serif" font-size="10.00">SuiteCRMAddIn.BusinessLogic.</text>
<text text-anchor="middle" x="513" y="-55.5" font-family="Helvetica,sans-Serif" font-size="10.00">RepeatingProcess.PrepareShutdownAll</text>
</a>
</g>
</g>
<!-- Node2&#45;&gt;Node3 -->
<g id="edge2" class="edge"><title>Node2&#45;&gt;Node3</title>
<path fill="none" stroke="midnightblue" d="M393.481,-63.5C401.917,-63.5 410.436,-63.5 418.832,-63.5"/>
<polygon fill="midnightblue" stroke="midnightblue" points="393.247,-60.0001 383.247,-63.5 393.247,-67.0001 393.247,-60.0001"/>
</g>
<!-- Node4 -->
<g id="node4" class="node"><title>Node4</title>
<g id="a_node4"><a xlink:href="class_suite_c_r_m_add_in_1_1_dialogs_1_1_shutting_down_dialog.html#a30e50091326bca134b6e405c1f53ff34" target="_top" xlink:title="Create a new instance of a ShuttingDownDialog with this number of tasks to complete. ">
<polygon fill="white" stroke="black" points="643,-73.5 643,-103.5 806,-103.5 806,-73.5 643,-73.5"/>
<text text-anchor="start" x="651" y="-91.5" font-family="Helvetica,sans-Serif" font-size="10.00">SuiteCRMAddIn.Dialogs.Shutting</text>
<text text-anchor="middle" x="724.5" y="-80.5" font-family="Helvetica,sans-Serif" font-size="10.00">DownDialog.ShuttingDownDialog</text>
</a>
</g>
</g>
<!-- Node3&#45;&gt;Node4 -->
<g id="edge3" class="edge"><title>Node3&#45;&gt;Node4</title>
<path fill="none" stroke="midnightblue" d="M617.195,-75.8144C625.803,-76.8416 634.425,-77.8705 642.828,-78.8733"/>
<polygon fill="midnightblue" stroke="midnightblue" points="617.454,-72.3206 607.11,-74.611 616.625,-79.2713 617.454,-72.3206"/>
</g>
<!-- Node5 -->
<g id="node5" class="node"><title>Node5</title>
<g id="a_node5"><a xlink:href="class_suite_c_r_m_add_in_1_1_this_add_in.html#a3d3136423943e3e4f71d3ea2b1062147" target="_top" xlink:title="SuiteCRMAddIn.ThisAddIn.\lManualArchive">
<polygon fill="white" stroke="black" points="655.5,-24.5 655.5,-54.5 793.5,-54.5 793.5,-24.5 655.5,-24.5"/>
<text text-anchor="start" x="663.5" y="-42.5" font-family="Helvetica,sans-Serif" font-size="10.00">SuiteCRMAddIn.ThisAddIn.</text>
<text text-anchor="middle" x="724.5" y="-31.5" font-family="Helvetica,sans-Serif" font-size="10.00">ManualArchive</text>
</a>
</g>
</g>
<!-- Node3&#45;&gt;Node5 -->
<g id="edge4" class="edge"><title>Node3&#45;&gt;Node5</title>
<path fill="none" stroke="midnightblue" d="M617.066,-51.6929C630.112,-50.1984 643.192,-48.6999 655.498,-47.2902"/>
<polygon fill="midnightblue" stroke="midnightblue" points="616.646,-48.218 607.11,-52.8335 617.443,-55.1725 616.646,-48.218"/>
</g>
<!-- Node6 -->
<g id="node6" class="node"><title>Node6</title>
<g id="a_node6"><a xlink:href="class_suite_c_r_m_add_in_1_1_suite_c_r_m_ribbon.html#af45e3d97607869f229558ab49c84379b" target="_top" xlink:title="SuiteCRMAddIn.SuiteCRMRibbon.btn\lArchive_Action">
<polygon fill="white" stroke="black" points="842,-49.5 842,-79.5 1026,-79.5 1026,-49.5 842,-49.5"/>
<text text-anchor="start" x="850" y="-67.5" font-family="Helvetica,sans-Serif" font-size="10.00">SuiteCRMAddIn.SuiteCRMRibbon.btn</text>
<text text-anchor="middle" x="934" y="-56.5" font-family="Helvetica,sans-Serif" font-size="10.00">Archive_Action</text>
</a>
</g>
</g>
<!-- Node5&#45;&gt;Node6 -->
<g id="edge5" class="edge"><title>Node5&#45;&gt;Node6</title>
<path fill="none" stroke="midnightblue" d="M803.961,-48.9531C816.302,-50.44 829.151,-51.988 841.75,-53.5061"/>
<polygon fill="midnightblue" stroke="midnightblue" points="804.078,-45.4419 793.731,-47.7206 803.24,-52.3917 804.078,-45.4419"/>
</g>
<!-- Node7 -->
<g id="node7" class="node"><title>Node7</title>
<g id="a_node7"><a xlink:href="class_suite_c_r_m_add_in_1_1_this_add_in.html#a4672086c412924ca3bf5c6aa52466c89" target="_top" xlink:title="SuiteCRMAddIn.ThisAddIn.\lStartSynchronisationProcesses">
<polygon fill="white" stroke="black" points="857,-0.5 857,-30.5 1011,-30.5 1011,-0.5 857,-0.5"/>
<text text-anchor="start" x="865" y="-18.5" font-family="Helvetica,sans-Serif" font-size="10.00">SuiteCRMAddIn.ThisAddIn.</text>
<text text-anchor="middle" x="934" y="-7.5" font-family="Helvetica,sans-Serif" font-size="10.00">StartSynchronisationProcesses</text>
</a>
</g>
</g>
<!-- Node5&#45;&gt;Node7 -->
<g id="edge6" class="edge"><title>Node5&#45;&gt;Node7</title>
<path fill="none" stroke="midnightblue" d="M803.821,-30.4412C821.185,-28.4328 839.562,-26.3073 856.838,-24.3091"/>
<polygon fill="midnightblue" stroke="midnightblue" points="803.262,-26.9824 793.731,-31.6083 804.067,-33.936 803.262,-26.9824"/>
</g>
</g>
</svg>
