<?xml version="1.0" encoding="UTF-8" standalone="no"?>
<!DOCTYPE svg PUBLIC "-//W3C//DTD SVG 1.1//EN"
 "http://www.w3.org/Graphics/SVG/1.1/DTD/svg11.dtd">
<!-- Generated by graphviz version 2.38.0 (20140413.2041)
 -->
<!-- Title: SuiteCRMClient.clsSuiteCRMHelper.GetModules Pages: 1 -->
<svg width="890pt" height="182pt"
 viewBox="0.00 0.00 890.00 182.00" xmlns="http://www.w3.org/2000/svg" xmlns:xlink="http://www.w3.org/1999/xlink">
<g id="graph0" class="graph" transform="scale(1 1) rotate(0) translate(4 178)">
<title>SuiteCRMClient.clsSuiteCRMHelper.GetModules</title>
<polygon fill="white" stroke="none" points="-4,4 -4,-178 886,-178 886,4 -4,4"/>
<!-- Node1 -->
<g id="node1" class="node"><title>Node1</title>
<polygon fill="#bfbfbf" stroke="black" points="0,-60 0,-90 181,-90 181,-60 0,-60"/>
<text text-anchor="start" x="8" y="-78" font-family="Helvetica,sans-Serif" font-size="10.00">SuiteCRMClient.clsSuiteCRMHelper.</text>
<text text-anchor="middle" x="90.5" y="-67" font-family="Helvetica,sans-Serif" font-size="10.00">GetModules</text>
</g>
<!-- Node2 -->
<g id="node2" class="node"><title>Node2</title>
<g id="a_node2"><a xlink:href="class_suite_c_r_m_add_in_1_1_business_logic_1_1_c_r_m_permissions_cache.html#ae827e3294d872f8fedc440b83ad0b8d2" target="_top" xlink:title="Check whether my synchroniser is allowed access to the specified CRM module, with the specified permi...">
<polygon fill="white" stroke="black" points="223,-114 223,-144 399,-144 399,-114 223,-114"/>
<text text-anchor="start" x="231" y="-132" font-family="Helvetica,sans-Serif" font-size="10.00">SuiteCRMAddIn.BusinessLogic.</text>
<text text-anchor="middle" x="311" y="-121" font-family="Helvetica,sans-Serif" font-size="10.00">CRMPermissionsCache.HasAccess</text>
</a>
</g>
</g>
<!-- Node1&#45;&gt;Node2 -->
<g id="edge1" class="edge"><title>Node1&#45;&gt;Node2</title>
<path fill="none" stroke="midnightblue" d="M162.105,-92.4493C190.144,-99.3787 222.08,-107.272 249.083,-113.945"/>
<polygon fill="midnightblue" stroke="midnightblue" points="162.912,-89.0435 152.364,-90.042 161.233,-95.8391 162.912,-89.0435"/>
</g>
<!-- Node6 -->
<g id="node6" class="node"><title>Node6</title>
<g id="a_node6"><a xlink:href="class_suite_c_r_m_add_in_1_1_dialogs_1_1_with_custom_modules_selector_form.html#aab22450249b6290af8e945ebfdedfb16" target="_top" xlink:title="SuiteCRMAddIn.Dialogs.With\lCustomModulesSelectorForm.Populate\lCustomModulesListView">
<polygon fill="white" stroke="black" points="217,-54.5 217,-95.5 405,-95.5 405,-54.5 217,-54.5"/>
<text text-anchor="start" x="225" y="-83.5" font-family="Helvetica,sans-Serif" font-size="10.00">SuiteCRMAddIn.Dialogs.With</text>
<text text-anchor="start" x="225" y="-72.5" font-family="Helvetica,sans-Serif" font-size="10.00">CustomModulesSelectorForm.Populate</text>
<text text-anchor="middle" x="311" y="-61.5" font-family="Helvetica,sans-Serif" font-size="10.00">CustomModulesListView</text>
</a>
</g>
</g>
<!-- Node1&#45;&gt;Node6 -->
<g id="edge5" class="edge"><title>Node1&#45;&gt;Node6</title>
<path fill="none" stroke="midnightblue" d="M191.009,-75C199.576,-75 208.223,-75 216.737,-75"/>
<polygon fill="midnightblue" stroke="midnightblue" points="191.003,-71.5001 181.003,-75 191.003,-78.5001 191.003,-71.5001"/>
</g>
<!-- Node7 -->
<g id="node7" class="node"><title>Node7</title>
<g id="a_node7"><a xlink:href="class_suite_c_r_m_client_1_1cls_suite_c_r_m_helper.html#a510c1dedb473b52cb4d3ce9d5761b57b" target="_top" xlink:title="Return only those modules which have relationships to the email module. ">
<polygon fill="white" stroke="black" points="219,-6 219,-36 403,-36 403,-6 219,-6"/>
<text text-anchor="start" x="227" y="-24" font-family="Helvetica,sans-Serif" font-size="10.00">SuiteCRMClient.clsSuiteCRMHelper.</text>
<text text-anchor="middle" x="311" y="-13" font-family="Helvetica,sans-Serif" font-size="10.00">GetModulesHavingEmailRelationships</text>
</a>
</g>
</g>
<!-- Node1&#45;&gt;Node7 -->
<g id="edge6" class="edge"><title>Node1&#45;&gt;Node7</title>
<path fill="none" stroke="midnightblue" d="M162.105,-57.5507C190.144,-50.6213 222.08,-42.7284 249.083,-36.0549"/>
<polygon fill="midnightblue" stroke="midnightblue" points="161.233,-54.1609 152.364,-59.958 162.912,-60.9565 161.233,-54.1609"/>
</g>
<!-- Node3 -->
<g id="node3" class="node"><title>Node3</title>
<g id="a_node3"><a xlink:href="class_suite_c_r_m_add_in_1_1_business_logic_1_1_c_r_m_permissions_cache.html#ae9c79ed281f1327a689fdd041641b947" target="_top" xlink:title="Check whether my synchroniser is allowed import access for the specified CRM module. ">
<polygon fill="white" stroke="black" points="441.5,-138 441.5,-168 645.5,-168 645.5,-138 441.5,-138"/>
<text text-anchor="start" x="449.5" y="-156" font-family="Helvetica,sans-Serif" font-size="10.00">SuiteCRMAddIn.BusinessLogic.</text>
<text text-anchor="middle" x="543.5" y="-145" font-family="Helvetica,sans-Serif" font-size="10.00">CRMPermissionsCache.HasImportAccess</text>
</a>
</g>
</g>
<!-- Node2&#45;&gt;Node3 -->
<g id="edge2" class="edge"><title>Node2&#45;&gt;Node3</title>
<path fill="none" stroke="midnightblue" d="M409.234,-139.124C419.839,-140.228 430.654,-141.354 441.305,-142.463"/>
<polygon fill="midnightblue" stroke="midnightblue" points="409.451,-135.628 399.142,-138.073 408.726,-142.59 409.451,-135.628"/>
</g>
<!-- Node5 -->
<g id="node5" class="node"><title>Node5</title>
<g id="a_node5"><a xlink:href="class_suite_c_r_m_add_in_1_1_business_logic_1_1_c_r_m_permissions_cache.html#a042a30c67613cb37d8f3d001bccdd032" target="_top" xlink:title="Check whether my synchroniser is allowed export access for the specified CRM module. ">
<polygon fill="white" stroke="black" points="441,-89 441,-119 646,-119 646,-89 441,-89"/>
<text text-anchor="start" x="449" y="-107" font-family="Helvetica,sans-Serif" font-size="10.00">SuiteCRMAddIn.BusinessLogic.</text>
<text text-anchor="middle" x="543.5" y="-96" font-family="Helvetica,sans-Serif" font-size="10.00">CRMPermissionsCache.HasExportAccess</text>
</a>
</g>
</g>
<!-- Node2&#45;&gt;Node5 -->
<g id="edge4" class="edge"><title>Node2&#45;&gt;Node5</title>
<path fill="none" stroke="midnightblue" d="M409.14,-118.464C419.646,-117.325 430.358,-116.163 440.915,-115.018"/>
<polygon fill="midnightblue" stroke="midnightblue" points="408.706,-114.991 399.142,-119.549 409.461,-121.95 408.706,-114.991"/>
</g>
<!-- Node4 -->
<g id="node4" class="node"><title>Node4</title>
<g id="a_node4"><a xlink:href="class_suite_c_r_m_add_in_1_1_business_logic_1_1_c_r_m_permissions_cache.html#a9228e56ed8852ceb135b9835b52e025c" target="_top" xlink:title="Check whether my synchroniser is allowed both import and export access for the specified CRM module...">
<polygon fill="white" stroke="black" points="682,-132.5 682,-173.5 882,-173.5 882,-132.5 682,-132.5"/>
<text text-anchor="start" x="690" y="-161.5" font-family="Helvetica,sans-Serif" font-size="10.00">SuiteCRMAddIn.BusinessLogic.</text>
<text text-anchor="start" x="690" y="-150.5" font-family="Helvetica,sans-Serif" font-size="10.00">CRMPermissionsCache.HasImportExport</text>
<text text-anchor="middle" x="782" y="-139.5" font-family="Helvetica,sans-Serif" font-size="10.00">Access</text>
</a>
</g>
</g>
<!-- Node3&#45;&gt;Node4 -->
<g id="edge3" class="edge"><title>Node3&#45;&gt;Node4</title>
<path fill="none" stroke="midnightblue" d="M655.92,-153C664.547,-153 673.222,-153 681.762,-153"/>
<polygon fill="midnightblue" stroke="midnightblue" points="655.827,-149.5 645.826,-153 655.826,-156.5 655.827,-149.5"/>
</g>
<!-- Node8 -->
<g id="node8" class="node"><title>Node8</title>
<g id="a_node8"><a xlink:href="class_suite_c_r_m_add_in_1_1_dialogs_1_1_custom_modules_dialog.html#ad43594486079041890b2cff4f96d3f23" target="_top" xlink:title="Populate this list view with custom modules, marking those saved in my settings as selected...">
<polygon fill="white" stroke="black" points="446.5,-0.5 446.5,-41.5 640.5,-41.5 640.5,-0.5 446.5,-0.5"/>
<text text-anchor="start" x="454.5" y="-29.5" font-family="Helvetica,sans-Serif" font-size="10.00">SuiteCRMAddIn.Dialogs.Custom</text>
<text text-anchor="start" x="454.5" y="-18.5" font-family="Helvetica,sans-Serif" font-size="10.00">ModulesDialog.PopulateCustomModules</text>
<text text-anchor="middle" x="543.5" y="-7.5" font-family="Helvetica,sans-Serif" font-size="10.00">ListView</text>
</a>
</g>
</g>
<!-- Node7&#45;&gt;Node8 -->
<g id="edge7" class="edge"><title>Node7&#45;&gt;Node8</title>
<path fill="none" stroke="midnightblue" d="M413.171,-21C424.203,-21 435.41,-21 446.38,-21"/>
<polygon fill="midnightblue" stroke="midnightblue" points="413.1,-17.5001 403.1,-21 413.1,-24.5001 413.1,-17.5001"/>
</g>
<!-- Node9 -->
<g id="node9" class="node"><title>Node9</title>
<g id="a_node9"><a xlink:href="class_suite_c_r_m_add_in_1_1_dialogs_1_1_custom_modules_dialog.html#a0690a5a0bafdb53508b3bb0e9743b422" target="_top" xlink:title="SuiteCRMAddIn.Dialogs.Custom\lModulesDialog.CustomModulesDialog">
<polygon fill="white" stroke="black" points="690.5,-6 690.5,-36 873.5,-36 873.5,-6 690.5,-6"/>
<text text-anchor="start" x="698.5" y="-24" font-family="Helvetica,sans-Serif" font-size="10.00">SuiteCRMAddIn.Dialogs.Custom</text>
<text text-anchor="middle" x="782" y="-13" font-family="Helvetica,sans-Serif" font-size="10.00">ModulesDialog.CustomModulesDialog</text>
</a>
</g>
</g>
<!-- Node8&#45;&gt;Node9 -->
<g id="edge8" class="edge"><title>Node8&#45;&gt;Node9</title>
<path fill="none" stroke="midnightblue" d="M650.73,-21C663.92,-21 677.312,-21 690.239,-21"/>
<polygon fill="midnightblue" stroke="midnightblue" points="650.694,-17.5001 640.694,-21 650.694,-24.5001 650.694,-17.5001"/>
</g>
</g>
</svg>
