<?xml version="1.0" encoding="UTF-8" standalone="no"?>
<!DOCTYPE svg PUBLIC "-//W3C//DTD SVG 1.1//EN"
 "http://www.w3.org/Graphics/SVG/1.1/DTD/svg11.dtd">
<!-- Generated by graphviz version 2.38.0 (20140413.2041)
 -->
<!-- Title: SuiteCRMAddIn.BusinessLogic.RepeatingProcess.PrepareShutdownAll Pages: 1 -->
<svg width="615pt" height="112pt"
 viewBox="0.00 0.00 615.00 112.00" xmlns="http://www.w3.org/2000/svg" xmlns:xlink="http://www.w3.org/1999/xlink">
<g id="graph0" class="graph" transform="scale(1 1) rotate(0) translate(4 108)">
<title>SuiteCRMAddIn.BusinessLogic.RepeatingProcess.PrepareShutdownAll</title>
<polygon fill="white" stroke="none" points="-4,4 -4,-108 611,-108 611,4 -4,4"/>
<!-- Node1 -->
<g id="node1" class="node"><title>Node1</title>
<polygon fill="#bfbfbf" stroke="black" points="0,-48.5 0,-78.5 188,-78.5 188,-48.5 0,-48.5"/>
<text text-anchor="start" x="8" y="-66.5" font-family="Helvetica,sans-Serif" font-size="10.00">SuiteCRMAddIn.BusinessLogic.</text>
<text text-anchor="middle" x="94" y="-55.5" font-family="Helvetica,sans-Serif" font-size="10.00">RepeatingProcess.PrepareShutdownAll</text>
</g>
<!-- Node2 -->
<g id="node2" class="node"><title>Node2</title>
<g id="a_node2"><a xlink:href="class_suite_c_r_m_add_in_1_1_dialogs_1_1_shutting_down_dialog.html#a30e50091326bca134b6e405c1f53ff34" target="_top" xlink:title="Create a new instance of a ShuttingDownDialog with this number of tasks to complete. ">
<polygon fill="white" stroke="black" points="224,-73.5 224,-103.5 387,-103.5 387,-73.5 224,-73.5"/>
<text text-anchor="start" x="232" y="-91.5" font-family="Helvetica,sans-Serif" font-size="10.00">SuiteCRMAddIn.Dialogs.Shutting</text>
<text text-anchor="middle" x="305.5" y="-80.5" font-family="Helvetica,sans-Serif" font-size="10.00">DownDialog.ShuttingDownDialog</text>
</a>
</g>
</g>
<!-- Node1&#45;&gt;Node2 -->
<g id="edge1" class="edge"><title>Node1&#45;&gt;Node2</title>
<path fill="none" stroke="midnightblue" d="M198.195,-75.8144C206.803,-76.8416 215.425,-77.8705 223.828,-78.8733"/>
<polygon fill="midnightblue" stroke="midnightblue" points="198.454,-72.3206 188.11,-74.611 197.625,-79.2713 198.454,-72.3206"/>
</g>
<!-- Node3 -->
<g id="node3" class="node"><title>Node3</title>
<g id="a_node3"><a xlink:href="class_suite_c_r_m_add_in_1_1_this_add_in.html#a3d3136423943e3e4f71d3ea2b1062147" target="_top" xlink:title="SuiteCRMAddIn.ThisAddIn.\lManualArchive">
<polygon fill="white" stroke="black" points="236.5,-24.5 236.5,-54.5 374.5,-54.5 374.5,-24.5 236.5,-24.5"/>
<text text-anchor="start" x="244.5" y="-42.5" font-family="Helvetica,sans-Serif" font-size="10.00">SuiteCRMAddIn.ThisAddIn.</text>
<text text-anchor="middle" x="305.5" y="-31.5" font-family="Helvetica,sans-Serif" font-size="10.00">ManualArchive</text>
</a>
</g>
</g>
<!-- Node1&#45;&gt;Node3 -->
<g id="edge2" class="edge"><title>Node1&#45;&gt;Node3</title>
<path fill="none" stroke="midnightblue" d="M198.066,-51.6929C211.112,-50.1984 224.192,-48.6999 236.498,-47.2902"/>
<polygon fill="midnightblue" stroke="midnightblue" points="197.646,-48.218 188.11,-52.8335 198.443,-55.1725 197.646,-48.218"/>
</g>
<!-- Node4 -->
<g id="node4" class="node"><title>Node4</title>
<g id="a_node4"><a xlink:href="class_suite_c_r_m_add_in_1_1_suite_c_r_m_ribbon.html#af45e3d97607869f229558ab49c84379b" target="_top" xlink:title="SuiteCRMAddIn.SuiteCRMRibbon.btn\lArchive_Action">
<polygon fill="white" stroke="black" points="423,-49.5 423,-79.5 607,-79.5 607,-49.5 423,-49.5"/>
<text text-anchor="start" x="431" y="-67.5" font-family="Helvetica,sans-Serif" font-size="10.00">SuiteCRMAddIn.SuiteCRMRibbon.btn</text>
<text text-anchor="middle" x="515" y="-56.5" font-family="Helvetica,sans-Serif" font-size="10.00">Archive_Action</text>
</a>
</g>
</g>
<!-- Node3&#45;&gt;Node4 -->
<g id="edge3" class="edge"><title>Node3&#45;&gt;Node4</title>
<path fill="none" stroke="midnightblue" d="M384.961,-48.9531C397.302,-50.44 410.151,-51.988 422.75,-53.5061"/>
<polygon fill="midnightblue" stroke="midnightblue" points="385.078,-45.4419 374.731,-47.7206 384.24,-52.3917 385.078,-45.4419"/>
</g>
<!-- Node5 -->
<g id="node5" class="node"><title>Node5</title>
<g id="a_node5"><a xlink:href="class_suite_c_r_m_add_in_1_1_this_add_in.html#a4672086c412924ca3bf5c6aa52466c89" target="_top" xlink:title="SuiteCRMAddIn.ThisAddIn.\lStartSynchronisationProcesses">
<polygon fill="white" stroke="black" points="438,-0.5 438,-30.5 592,-30.5 592,-0.5 438,-0.5"/>
<text text-anchor="start" x="446" y="-18.5" font-family="Helvetica,sans-Serif" font-size="10.00">SuiteCRMAddIn.ThisAddIn.</text>
<text text-anchor="middle" x="515" y="-7.5" font-family="Helvetica,sans-Serif" font-size="10.00">StartSynchronisationProcesses</text>
</a>
</g>
</g>
<!-- Node3&#45;&gt;Node5 -->
<g id="edge4" class="edge"><title>Node3&#45;&gt;Node5</title>
<path fill="none" stroke="midnightblue" d="M384.821,-30.4412C402.185,-28.4328 420.562,-26.3073 437.838,-24.3091"/>
<polygon fill="midnightblue" stroke="midnightblue" points="384.262,-26.9824 374.731,-31.6083 385.067,-33.936 384.262,-26.9824"/>
</g>
</g>
</svg>
