<?xml version="1.0" encoding="UTF-8" standalone="no"?>
<!DOCTYPE svg PUBLIC "-//W3C//DTD SVG 1.1//EN"
 "http://www.w3.org/Graphics/SVG/1.1/DTD/svg11.dtd">
<!-- Generated by graphviz version 2.38.0 (20140413.2041)
 -->
<!-- Title: SuiteCRMAddIn.BusinessLogic.Synchroniser.RemoveFromCrm Pages: 1 -->
<svg width="376pt" height="110pt"
 viewBox="0.00 0.00 376.00 110.00" xmlns="http://www.w3.org/2000/svg" xmlns:xlink="http://www.w3.org/1999/xlink">
<g id="graph0" class="graph" transform="scale(1 1) rotate(0) translate(4 106)">
<title>SuiteCRMAddIn.BusinessLogic.Synchroniser.RemoveFromCrm</title>
<polygon fill="white" stroke="none" points="-4,4 -4,-106 372,-106 372,4 -4,4"/>
<!-- Node1 -->
<g id="node1" class="node"><title>Node1</title>
<polygon fill="#bfbfbf" stroke="black" points="0,-36 0,-66 158,-66 158,-36 0,-36"/>
<text text-anchor="start" x="8" y="-54" font-family="Helvetica,sans-Serif" font-size="10.00">SuiteCRMAddIn.BusinessLogic.</text>
<text text-anchor="middle" x="79" y="-43" font-family="Helvetica,sans-Serif" font-size="10.00">Synchroniser.RemoveFromCrm</text>
</g>
<!-- Node2 -->
<g id="node2" class="node"><title>Node2</title>
<g id="a_node2"><a xlink:href="class_suite_c_r_m_add_in_1_1_business_logic_1_1_synchroniser.html#a114e9d2ea81e95090ab852204fed2dcc" target="_top" xlink:title="Deal, in CRM, with items deleted in Outlook. ">
<polygon fill="white" stroke="black" points="194,-60.5 194,-101.5 368,-101.5 368,-60.5 194,-60.5"/>
<text text-anchor="start" x="202" y="-89.5" font-family="Helvetica,sans-Serif" font-size="10.00">SuiteCRMAddIn.BusinessLogic.</text>
<text text-anchor="start" x="202" y="-78.5" font-family="Helvetica,sans-Serif" font-size="10.00">Synchroniser&lt; Outlook.Appointment</text>
<text text-anchor="middle" x="281" y="-67.5" font-family="Helvetica,sans-Serif" font-size="10.00">Item &gt;::RemoveDeletedItems</text>
</a>
</g>
</g>
<!-- Node1&#45;&gt;Node2 -->
<g id="edge1" class="edge"><title>Node1&#45;&gt;Node2</title>
<path fill="none" stroke="midnightblue" d="M168.16,-64.224C176.717,-65.5075 185.391,-66.8086 193.927,-68.089"/>
<polygon fill="midnightblue" stroke="midnightblue" points="168.593,-60.7499 158.185,-62.7277 167.555,-67.6724 168.593,-60.7499"/>
</g>
<!-- Node3 -->
<g id="node3" class="node"><title>Node3</title>
<g id="a_node3"><a xlink:href="class_suite_c_r_m_add_in_1_1_business_logic_1_1_synchroniser.html#a39a299e28dff602fec9c2291328e27d4" target="_top" xlink:title="Entry point from event handler, called when an Outlook item of class AppointmentItem is believed to h...">
<polygon fill="white" stroke="black" points="194,-0.5 194,-41.5 368,-41.5 368,-0.5 194,-0.5"/>
<text text-anchor="start" x="202" y="-29.5" font-family="Helvetica,sans-Serif" font-size="10.00">SuiteCRMAddIn.BusinessLogic.</text>
<text text-anchor="start" x="202" y="-18.5" font-family="Helvetica,sans-Serif" font-size="10.00">Synchroniser&lt; Outlook.Appointment</text>
<text text-anchor="middle" x="281" y="-7.5" font-family="Helvetica,sans-Serif" font-size="10.00">Item &gt;::OutlookItemChanged</text>
</a>
</g>
</g>
<!-- Node1&#45;&gt;Node3 -->
<g id="edge2" class="edge"><title>Node1&#45;&gt;Node3</title>
<path fill="none" stroke="midnightblue" d="M168.16,-37.776C176.717,-36.4925 185.391,-35.1914 193.927,-33.911"/>
<polygon fill="midnightblue" stroke="midnightblue" points="167.555,-34.3276 158.185,-39.2723 168.593,-41.2501 167.555,-34.3276"/>
</g>
</g>
</svg>
