<?xml version="1.0" encoding="UTF-8" standalone="no"?>
<!DOCTYPE svg PUBLIC "-//W3C//DTD SVG 1.1//EN"
 "http://www.w3.org/Graphics/SVG/1.1/DTD/svg11.dtd">
<!-- Generated by graphviz version 2.38.0 (20140413.2041)
 -->
<!-- Title: SuiteCRMAddIn.BusinessLogic.ContactSyncing Pages: 1 -->
<svg width="338pt" height="117pt"
 viewBox="0.00 0.00 338.00 117.00" xmlns="http://www.w3.org/2000/svg" xmlns:xlink="http://www.w3.org/1999/xlink">
<g id="graph0" class="graph" transform="scale(1 1) rotate(0) translate(4 113)">
<title>SuiteCRMAddIn.BusinessLogic.ContactSyncing</title>
<polygon fill="white" stroke="none" points="-4,4 -4,-113 334,-113 334,4 -4,4"/>
<!-- Node1 -->
<g id="node1" class="node"><title>Node1</title>
<polygon fill="#bfbfbf" stroke="black" points="85,-0.5 85,-30.5 243,-30.5 243,-0.5 85,-0.5"/>
<text text-anchor="start" x="93" y="-18.5" font-family="Helvetica,sans-Serif" font-size="10.00">SuiteCRMAddIn.BusinessLogic.</text>
<text text-anchor="middle" x="164" y="-7.5" font-family="Helvetica,sans-Serif" font-size="10.00">ContactSyncing</text>
</g>
<!-- Node2 -->
<g id="node2" class="node"><title>Node2</title>
<g id="a_node2"><a xlink:href="class_suite_c_r_m_add_in_1_1_business_logic_1_1_synchroniser.html" target="_top" xlink:title="Synchroniser\&lt; Outlook.Contact\lItem \&gt;">
<polygon fill="white" stroke="black" points="0,-78.5 0,-108.5 154,-108.5 154,-78.5 0,-78.5"/>
<text text-anchor="start" x="8" y="-96.5" font-family="Helvetica,sans-Serif" font-size="10.00">Synchroniser&lt; Outlook.Contact</text>
<text text-anchor="middle" x="77" y="-85.5" font-family="Helvetica,sans-Serif" font-size="10.00">Item &gt;</text>
</a>
</g>
</g>
<!-- Node2&#45;&gt;Node1 -->
<g id="edge1" class="edge"><title>Node2&#45;&gt;Node1</title>
<path fill="none" stroke="midnightblue" d="M101.161,-71.3941C115.999,-58.4322 134.606,-42.1775 147.709,-30.7309"/>
<polygon fill="midnightblue" stroke="midnightblue" points="98.5926,-68.9901 93.364,-78.205 103.198,-74.2619 98.5926,-68.9901"/>
</g>
<!-- Node3 -->
<g id="node3" class="node"><title>Node3</title>
<g id="a_node3"><a xlink:href="class_suite_c_r_m_add_in_1_1_business_logic_1_1_sync_direction.html" target="_top" xlink:title="A direction in which things may be synchronised. Directions are named with respect to CRM...">
<polygon fill="white" stroke="black" points="172,-78.5 172,-108.5 330,-108.5 330,-78.5 172,-78.5"/>
<text text-anchor="start" x="180" y="-96.5" font-family="Helvetica,sans-Serif" font-size="10.00">SuiteCRMAddIn.BusinessLogic.</text>
<text text-anchor="middle" x="251" y="-85.5" font-family="Helvetica,sans-Serif" font-size="10.00">SyncDirection</text>
</a>
</g>
</g>
<!-- Node3&#45;&gt;Node1 -->
<g id="edge2" class="edge"><title>Node3&#45;&gt;Node1</title>
<path fill="none" stroke="#9a32cd" stroke-dasharray="5,2" d="M226.839,-71.3941C212.001,-58.4322 193.394,-42.1775 180.291,-30.7309"/>
<polygon fill="#9a32cd" stroke="#9a32cd" points="224.802,-74.2619 234.636,-78.205 229.407,-68.9901 224.802,-74.2619"/>
<text text-anchor="middle" x="234.5" y="-52" font-family="Helvetica,sans-Serif" font-size="10.00"> Direction</text>
</g>
</g>
</svg>
