<?xml version="1.0" encoding="UTF-8" standalone="no"?>
<!DOCTYPE svg PUBLIC "-//W3C//DTD SVG 1.1//EN"
 "http://www.w3.org/Graphics/SVG/1.1/DTD/svg11.dtd">
<!-- Generated by graphviz version 2.38.0 (20140413.2041)
 -->
<!-- Title: SuiteCRMClient.clsSuiteCRMHelper.GetFields Pages: 1 -->
<svg width="858pt" height="50pt"
 viewBox="0.00 0.00 858.00 50.00" xmlns="http://www.w3.org/2000/svg" xmlns:xlink="http://www.w3.org/1999/xlink">
<g id="graph0" class="graph" transform="scale(1 1) rotate(0) translate(4 46)">
<title>SuiteCRMClient.clsSuiteCRMHelper.GetFields</title>
<polygon fill="white" stroke="none" points="-4,4 -4,-46 854,-46 854,4 -4,4"/>
<!-- Node1 -->
<g id="node1" class="node"><title>Node1</title>
<polygon fill="#bfbfbf" stroke="black" points="0,-6 0,-36 181,-36 181,-6 0,-6"/>
<text text-anchor="start" x="8" y="-24" font-family="Helvetica,sans-Serif" font-size="10.00">SuiteCRMClient.clsSuiteCRMHelper.</text>
<text text-anchor="middle" x="90.5" y="-13" font-family="Helvetica,sans-Serif" font-size="10.00">GetFields</text>
</g>
<!-- Node2 -->
<g id="node2" class="node"><title>Node2</title>
<g id="a_node2"><a xlink:href="class_suite_c_r_m_client_1_1cls_suite_c_r_m_helper.html#a510c1dedb473b52cb4d3ce9d5761b57b" target="_top" xlink:title="Return only those modules which have relationships to the email module. ">
<polygon fill="white" stroke="black" points="217,-6 217,-36 401,-36 401,-6 217,-6"/>
<text text-anchor="start" x="225" y="-24" font-family="Helvetica,sans-Serif" font-size="10.00">SuiteCRMClient.clsSuiteCRMHelper.</text>
<text text-anchor="middle" x="309" y="-13" font-family="Helvetica,sans-Serif" font-size="10.00">GetModulesHavingEmailRelationships</text>
</a>
</g>
</g>
<!-- Node1&#45;&gt;Node2 -->
<g id="edge1" class="edge"><title>Node1&#45;&gt;Node2</title>
<path fill="none" stroke="midnightblue" d="M191.372,-21C199.815,-21 208.326,-21 216.699,-21"/>
<polygon fill="midnightblue" stroke="midnightblue" points="191.122,-17.5001 181.122,-21 191.122,-24.5001 191.122,-17.5001"/>
</g>
<!-- Node3 -->
<g id="node3" class="node"><title>Node3</title>
<g id="a_node3"><a xlink:href="class_suite_c_r_m_add_in_1_1_dialogs_1_1_custom_modules_dialog.html#ad43594486079041890b2cff4f96d3f23" target="_top" xlink:title="Populate this list view with custom modules, marking those saved in my settings as selected...">
<polygon fill="white" stroke="black" points="437,-0.5 437,-41.5 631,-41.5 631,-0.5 437,-0.5"/>
<text text-anchor="start" x="445" y="-29.5" font-family="Helvetica,sans-Serif" font-size="10.00">SuiteCRMAddIn.Dialogs.Custom</text>
<text text-anchor="start" x="445" y="-18.5" font-family="Helvetica,sans-Serif" font-size="10.00">ModulesDialog.PopulateCustomModules</text>
<text text-anchor="middle" x="534" y="-7.5" font-family="Helvetica,sans-Serif" font-size="10.00">ListView</text>
</a>
</g>
</g>
<!-- Node2&#45;&gt;Node3 -->
<g id="edge2" class="edge"><title>Node2&#45;&gt;Node3</title>
<path fill="none" stroke="midnightblue" d="M411.046,-21C419.625,-21 428.288,-21 436.829,-21"/>
<polygon fill="midnightblue" stroke="midnightblue" points="411.024,-17.5001 401.024,-21 411.024,-24.5001 411.024,-17.5001"/>
</g>
<!-- Node4 -->
<g id="node4" class="node"><title>Node4</title>
<g id="a_node4"><a xlink:href="class_suite_c_r_m_add_in_1_1_dialogs_1_1_custom_modules_dialog.html#a0690a5a0bafdb53508b3bb0e9743b422" target="_top" xlink:title="SuiteCRMAddIn.Dialogs.Custom\lModulesDialog.CustomModulesDialog">
<polygon fill="white" stroke="black" points="667,-6 667,-36 850,-36 850,-6 667,-6"/>
<text text-anchor="start" x="675" y="-24" font-family="Helvetica,sans-Serif" font-size="10.00">SuiteCRMAddIn.Dialogs.Custom</text>
<text text-anchor="middle" x="758.5" y="-13" font-family="Helvetica,sans-Serif" font-size="10.00">ModulesDialog.CustomModulesDialog</text>
</a>
</g>
</g>
<!-- Node3&#45;&gt;Node4 -->
<g id="edge3" class="edge"><title>Node3&#45;&gt;Node4</title>
<path fill="none" stroke="midnightblue" d="M641.526,-21C649.937,-21 658.384,-21 666.675,-21"/>
<polygon fill="midnightblue" stroke="midnightblue" points="641.298,-17.5001 631.298,-21 641.298,-24.5001 641.298,-17.5001"/>
</g>
</g>
</svg>
