<?xml version="1.0" encoding="UTF-8" standalone="no"?>
<!DOCTYPE svg PUBLIC "-//W3C//DTD SVG 1.1//EN"
 "http://www.w3.org/Graphics/SVG/1.1/DTD/svg11.dtd">
<!-- Generated by graphviz version 2.38.0 (20140413.2041)
 -->
<!-- Title: SuiteCRMAddIn.ThisAddIn.Authenticate Pages: 1 -->
<svg width="518pt" height="110pt"
 viewBox="0.00 0.00 518.00 110.00" xmlns="http://www.w3.org/2000/svg" xmlns:xlink="http://www.w3.org/1999/xlink">
<g id="graph0" class="graph" transform="scale(1 1) rotate(0) translate(4 106)">
<title>SuiteCRMAddIn.ThisAddIn.Authenticate</title>
<polygon fill="white" stroke="none" points="-4,4 -4,-106 514,-106 514,4 -4,4"/>
<!-- Node1 -->
<g id="node1" class="node"><title>Node1</title>
<polygon fill="#bfbfbf" stroke="black" points="0,-49.5 0,-79.5 138,-79.5 138,-49.5 0,-49.5"/>
<text text-anchor="start" x="8" y="-67.5" font-family="Helvetica,sans-Serif" font-size="10.00">SuiteCRMAddIn.ThisAddIn.</text>
<text text-anchor="middle" x="69" y="-56.5" font-family="Helvetica,sans-Serif" font-size="10.00">Authenticate</text>
</g>
<!-- Node2 -->
<g id="node2" class="node"><title>Node2</title>
<g id="a_node2"><a xlink:href="class_suite_c_r_m_client_1_1_user_session.html#a85104699962c1ee8d45e5659237661e7" target="_top" xlink:title="Authenticate against LDAP using my configured credentials. ">
<polygon fill="white" stroke="black" points="360,-71.5 360,-101.5 510,-101.5 510,-71.5 360,-71.5"/>
<text text-anchor="start" x="368" y="-89.5" font-family="Helvetica,sans-Serif" font-size="10.00">SuiteCRMClient.UserSession.</text>
<text text-anchor="middle" x="435" y="-78.5" font-family="Helvetica,sans-Serif" font-size="10.00">AuthenticateLDAP</text>
</a>
</g>
</g>
<!-- Node1&#45;&gt;Node2 -->
<g id="edge1" class="edge"><title>Node1&#45;&gt;Node2</title>
<path fill="none" stroke="midnightblue" d="M121.938,-79.5274C138.435,-83.6126 156.85,-87.4676 174,-89.5 232.417,-96.4226 298.731,-95.5202 349.766,-92.9654"/>
<polygon fill="midnightblue" stroke="midnightblue" points="349.963,-96.46 359.763,-92.4343 349.591,-89.4699 349.963,-96.46"/>
</g>
<!-- Node3 -->
<g id="node3" class="node"><title>Node3</title>
<g id="a_node3"><a xlink:href="class_suite_c_r_m_client_1_1_user_session.html#a8382d9c050d8e5da8924dc536cd03245" target="_top" xlink:title="Logs in to the CRM server. ">
<polygon fill="white" stroke="black" points="174,-49.5 174,-79.5 324,-79.5 324,-49.5 174,-49.5"/>
<text text-anchor="start" x="182" y="-67.5" font-family="Helvetica,sans-Serif" font-size="10.00">SuiteCRMClient.UserSession.</text>
<text text-anchor="middle" x="249" y="-56.5" font-family="Helvetica,sans-Serif" font-size="10.00">Login</text>
</a>
</g>
</g>
<!-- Node1&#45;&gt;Node3 -->
<g id="edge2" class="edge"><title>Node1&#45;&gt;Node3</title>
<path fill="none" stroke="midnightblue" d="M138.056,-64.5C146.451,-64.5 155.109,-64.5 163.708,-64.5"/>
<polygon fill="midnightblue" stroke="midnightblue" points="163.756,-68.0001 173.756,-64.5 163.756,-61.0001 163.756,-68.0001"/>
</g>
<!-- Node4 -->
<g id="node4" class="node"><title>Node4</title>
<g id="a_node4"><a xlink:href="class_suite_c_r_m_add_in_1_1_this_add_in.html#a8f019e8cd74b651865a318ef26ceb30f" target="_top" xlink:title="SuiteCRMAddIn.ThisAddIn.\lShowAndLogError">
<polygon fill="white" stroke="black" points="180,-0.5 180,-30.5 318,-30.5 318,-0.5 180,-0.5"/>
<text text-anchor="start" x="188" y="-18.5" font-family="Helvetica,sans-Serif" font-size="10.00">SuiteCRMAddIn.ThisAddIn.</text>
<text text-anchor="middle" x="249" y="-7.5" font-family="Helvetica,sans-Serif" font-size="10.00">ShowAndLogError</text>
</a>
</g>
</g>
<!-- Node1&#45;&gt;Node4 -->
<g id="edge4" class="edge"><title>Node1&#45;&gt;Node4</title>
<path fill="none" stroke="midnightblue" d="M124.858,-49.3986C143.386,-44.2981 164.242,-38.5571 183.45,-33.2695"/>
<polygon fill="midnightblue" stroke="midnightblue" points="184.61,-36.5802 193.323,-30.5516 182.753,-29.8313 184.61,-36.5802"/>
</g>
<!-- Node3&#45;&gt;Node2 -->
<g id="edge3" class="edge"><title>Node3&#45;&gt;Node2</title>
<path fill="none" stroke="midnightblue" d="M324.044,-73.3531C332.514,-74.3658 341.195,-75.4037 349.784,-76.4307"/>
<polygon fill="midnightblue" stroke="midnightblue" points="349.463,-79.9171 359.808,-77.6292 350.294,-72.9666 349.463,-79.9171"/>
</g>
</g>
</svg>
