<?xml version="1.0" encoding="UTF-8" standalone="no"?>
<!DOCTYPE svg PUBLIC "-//W3C//DTD SVG 1.1//EN"
 "http://www.w3.org/Graphics/SVG/1.1/DTD/svg11.dtd">
<!-- Generated by graphviz version 2.38.0 (20140413.2041)
 -->
<!-- Title: SuiteCRMAddIn.BusinessLogic.EmailArchiving.CreateEmailRelationshipOrFail Pages: 1 -->
<svg width="400pt" height="50pt"
 viewBox="0.00 0.00 400.00 50.00" xmlns="http://www.w3.org/2000/svg" xmlns:xlink="http://www.w3.org/1999/xlink">
<g id="graph0" class="graph" transform="scale(1 1) rotate(0) translate(4 46)">
<title>SuiteCRMAddIn.BusinessLogic.EmailArchiving.CreateEmailRelationshipOrFail</title>
<polygon fill="white" stroke="none" points="-4,4 -4,-46 396,-46 396,4 -4,4"/>
<!-- Node1 -->
<g id="node1" class="node"><title>Node1</title>
<polygon fill="#bfbfbf" stroke="black" points="0,-0.5 0,-41.5 193,-41.5 193,-0.5 0,-0.5"/>
<text text-anchor="start" x="8" y="-29.5" font-family="Helvetica,sans-Serif" font-size="10.00">SuiteCRMAddIn.BusinessLogic.</text>
<text text-anchor="start" x="8" y="-18.5" font-family="Helvetica,sans-Serif" font-size="10.00">EmailArchiving.CreateEmailRelationship</text>
<text text-anchor="middle" x="96.5" y="-7.5" font-family="Helvetica,sans-Serif" font-size="10.00">OrFail</text>
</g>
<!-- Node2 -->
<g id="node2" class="node"><title>Node2</title>
<g id="a_node2"><a xlink:href="class_suite_c_r_m_add_in_1_1_business_logic_1_1_email_archiving.html#a0dcfbb2286b3d50c3ea8863705b19501" target="_top" xlink:title="SuiteCRMAddIn.BusinessLogic.\lEmailArchiving.ArchiveEmailWith\lEntityRelationships">
<polygon fill="white" stroke="black" points="229,-0.5 229,-41.5 392,-41.5 392,-0.5 229,-0.5"/>
<text text-anchor="start" x="237" y="-29.5" font-family="Helvetica,sans-Serif" font-size="10.00">SuiteCRMAddIn.BusinessLogic.</text>
<text text-anchor="start" x="237" y="-18.5" font-family="Helvetica,sans-Serif" font-size="10.00">EmailArchiving.ArchiveEmailWith</text>
<text text-anchor="middle" x="310.5" y="-7.5" font-family="Helvetica,sans-Serif" font-size="10.00">EntityRelationships</text>
</a>
</g>
</g>
<!-- Node1&#45;&gt;Node2 -->
<g id="edge1" class="edge"><title>Node1&#45;&gt;Node2</title>
<path fill="none" stroke="midnightblue" d="M203.293,-21C211.846,-21 220.401,-21 228.735,-21"/>
<polygon fill="midnightblue" stroke="midnightblue" points="203.266,-17.5001 193.266,-21 203.266,-24.5001 203.266,-17.5001"/>
</g>
</g>
</svg>
