<?xml version="1.0" encoding="UTF-8" standalone="no"?>
<!DOCTYPE svg PUBLIC "-//W3C//DTD SVG 1.1//EN"
 "http://www.w3.org/Graphics/SVG/1.1/DTD/svg11.dtd">
<!-- Generated by graphviz version 2.38.0 (20140413.2041)
 -->
<!-- Title: SuiteCRMAddIn.Dialogs.ArchiveDialog.Search Pages: 1 -->
<svg width="819pt" height="317pt"
 viewBox="0.00 0.00 819.00 317.00" xmlns="http://www.w3.org/2000/svg" xmlns:xlink="http://www.w3.org/1999/xlink">
<g id="graph0" class="graph" transform="scale(1 1) rotate(0) translate(4 313)">
<title>SuiteCRMAddIn.Dialogs.ArchiveDialog.Search</title>
<polygon fill="white" stroke="none" points="-4,4 -4,-313 815,-313 815,4 -4,4"/>
<!-- Node1 -->
<g id="node1" class="node"><title>Node1</title>
<polygon fill="#bfbfbf" stroke="black" points="0,-122.5 0,-152.5 160,-152.5 160,-122.5 0,-122.5"/>
<text text-anchor="start" x="8" y="-140.5" font-family="Helvetica,sans-Serif" font-size="10.00">SuiteCRMAddIn.Dialogs.Archive</text>
<text text-anchor="middle" x="80" y="-129.5" font-family="Helvetica,sans-Serif" font-size="10.00">Dialog.Search</text>
</g>
<!-- Node2 -->
<g id="node2" class="node"><title>Node2</title>
<g id="a_node2"><a xlink:href="struct_suite_c_r_m_add_in_1_1_wait_cursor.html#a7ba13e6acae32dbe5c97f21ba6c323b9" target="_top" xlink:title="SuiteCRMAddIn.WaitCursor.For">
<polygon fill="white" stroke="black" points="207.5,-284 207.5,-303 365.5,-303 365.5,-284 207.5,-284"/>
<text text-anchor="middle" x="286.5" y="-291" font-family="Helvetica,sans-Serif" font-size="10.00">SuiteCRMAddIn.WaitCursor.For</text>
</a>
</g>
</g>
<!-- Node1&#45;&gt;Node2 -->
<g id="edge1" class="edge"><title>Node1&#45;&gt;Node2</title>
<path fill="none" stroke="midnightblue" d="M89.9525,-152.763C106.977,-180.411 146.755,-238.759 196,-269.5 203.258,-274.031 211.364,-277.715 219.651,-280.709"/>
<polygon fill="midnightblue" stroke="midnightblue" points="218.831,-284.123 229.424,-283.915 221.013,-277.472 218.831,-284.123"/>
</g>
<!-- Node4 -->
<g id="node4" class="node"><title>Node4</title>
<g id="a_node4"><a xlink:href="class_suite_c_r_m_client_1_1cls_suite_c_r_m_helper.html#a717fcb29df379f859e5bf91cbc1083c8" target="_top" xlink:title="SuiteCRMClient.clsSuiteCRMHelper.\lGetEntryList">
<polygon fill="white" stroke="black" points="413,-213.5 413,-243.5 594,-243.5 594,-213.5 413,-213.5"/>
<text text-anchor="start" x="421" y="-231.5" font-family="Helvetica,sans-Serif" font-size="10.00">SuiteCRMClient.clsSuiteCRMHelper.</text>
<text text-anchor="middle" x="503.5" y="-220.5" font-family="Helvetica,sans-Serif" font-size="10.00">GetEntryList</text>
</a>
</g>
</g>
<!-- Node1&#45;&gt;Node4 -->
<g id="edge3" class="edge"><title>Node1&#45;&gt;Node4</title>
<path fill="none" stroke="midnightblue" d="M92.389,-152.586C111.028,-175.869 150.555,-219.634 196,-236.5 271.791,-264.629 365.53,-256.567 429.246,-245.355"/>
<polygon fill="midnightblue" stroke="midnightblue" points="429.999,-248.775 439.206,-243.533 428.74,-241.889 429.999,-248.775"/>
</g>
<!-- Node6 -->
<g id="node6" class="node"><title>Node6</title>
<g id="a_node6"><a xlink:href="class_suite_c_r_m_add_in_1_1cls_globals.html#afcc5dc742f8dabdeb434dfb493a9d191" target="_top" xlink:title="SuiteCRMAddIn.clsGlobals.\lMySqlEscape">
<polygon fill="white" stroke="black" points="216.5,-196.5 216.5,-226.5 356.5,-226.5 356.5,-196.5 216.5,-196.5"/>
<text text-anchor="start" x="224.5" y="-214.5" font-family="Helvetica,sans-Serif" font-size="10.00">SuiteCRMAddIn.clsGlobals.</text>
<text text-anchor="middle" x="286.5" y="-203.5" font-family="Helvetica,sans-Serif" font-size="10.00">MySqlEscape</text>
</a>
</g>
</g>
<!-- Node1&#45;&gt;Node6 -->
<g id="edge5" class="edge"><title>Node1&#45;&gt;Node6</title>
<path fill="none" stroke="midnightblue" d="M112.226,-152.576C135.077,-163.237 167.02,-177.377 196,-187.5 201.98,-189.589 208.238,-191.603 214.546,-193.516"/>
<polygon fill="midnightblue" stroke="midnightblue" points="213.888,-196.97 224.469,-196.435 215.863,-190.255 213.888,-196.97"/>
</g>
<!-- Node7 -->
<g id="node7" class="node"><title>Node7</title>
<g id="a_node7"><a xlink:href="class_suite_c_r_m_client_1_1cls_suite_c_r_m_helper.html#a6aaf13d4bb3d9a87db8540482a5e9754" target="_top" xlink:title="Get the names of all the fields of the module with this name whose data type is char or varchar or na...">
<polygon fill="white" stroke="black" points="196,-147.5 196,-177.5 377,-177.5 377,-147.5 196,-147.5"/>
<text text-anchor="start" x="204" y="-165.5" font-family="Helvetica,sans-Serif" font-size="10.00">SuiteCRMClient.clsSuiteCRMHelper.</text>
<text text-anchor="middle" x="286.5" y="-154.5" font-family="Helvetica,sans-Serif" font-size="10.00">GetCharacterFields</text>
</a>
</g>
</g>
<!-- Node1&#45;&gt;Node7 -->
<g id="edge6" class="edge"><title>Node1&#45;&gt;Node7</title>
<path fill="none" stroke="midnightblue" d="M160.065,-147.166C168.467,-148.193 177.089,-149.247 185.688,-150.298"/>
<polygon fill="midnightblue" stroke="midnightblue" points="185.406,-153.79 195.757,-151.529 186.255,-146.841 185.406,-153.79"/>
</g>
<!-- Node9 -->
<g id="node9" class="node"><title>Node9</title>
<g id="a_node9"><a xlink:href="class_suite_c_r_m_client_1_1cls_suite_c_r_m_helper.html#a54a65e000ff00bb87a5e8bf5e2ef8d43" target="_top" xlink:title="Find the fields, among the fields of this module, which are links and where the name of the relations...">
<polygon fill="white" stroke="black" points="196,-98.5 196,-128.5 377,-128.5 377,-98.5 196,-98.5"/>
<text text-anchor="start" x="204" y="-116.5" font-family="Helvetica,sans-Serif" font-size="10.00">SuiteCRMClient.clsSuiteCRMHelper.</text>
<text text-anchor="middle" x="286.5" y="-105.5" font-family="Helvetica,sans-Serif" font-size="10.00">GetActivitiesLinks</text>
</a>
</g>
</g>
<!-- Node1&#45;&gt;Node9 -->
<g id="edge9" class="edge"><title>Node1&#45;&gt;Node9</title>
<path fill="none" stroke="midnightblue" d="M160.065,-128.221C168.467,-127.235 177.089,-126.223 185.688,-125.214"/>
<polygon fill="midnightblue" stroke="midnightblue" points="186.233,-128.674 195.757,-124.032 185.417,-121.722 186.233,-128.674"/>
</g>
<!-- Node10 -->
<g id="node10" class="node"><title>Node10</title>
<g id="a_node10"><a xlink:href="class_suite_c_r_m_client_1_1cls_suite_c_r_m_helper.html#aedb6c3b87ff73bef81eb4cb8d16fe2ae" target="_top" xlink:title="SuiteCRMClient.clsSuiteCRMHelper.\lGetValueByKey">
<polygon fill="white" stroke="black" points="196,-49.5 196,-79.5 377,-79.5 377,-49.5 196,-49.5"/>
<text text-anchor="start" x="204" y="-67.5" font-family="Helvetica,sans-Serif" font-size="10.00">SuiteCRMClient.clsSuiteCRMHelper.</text>
<text text-anchor="middle" x="286.5" y="-56.5" font-family="Helvetica,sans-Serif" font-size="10.00">GetValueByKey</text>
</a>
</g>
</g>
<!-- Node1&#45;&gt;Node10 -->
<g id="edge11" class="edge"><title>Node1&#45;&gt;Node10</title>
<path fill="none" stroke="midnightblue" d="M114.293,-122.324C137.031,-112.278 167.997,-99.2137 196,-89.5 202.916,-87.1009 210.192,-84.7669 217.483,-82.5502"/>
<polygon fill="midnightblue" stroke="midnightblue" points="218.813,-85.8066 227.403,-79.6051 216.82,-79.0961 218.813,-85.8066"/>
</g>
<!-- Node11 -->
<g id="node11" class="node"><title>Node11</title>
<g id="a_node11"><a xlink:href="class_suite_c_r_m_add_in_1_1_dialogs_1_1_archive_dialog.html#a3160bc88861f266746f9631068fc9ed7" target="_top" xlink:title="SuiteCRMAddIn.Dialogs.Archive\lDialog.btnSearch_Click">
<polygon fill="white" stroke="black" points="206.5,-0.5 206.5,-30.5 366.5,-30.5 366.5,-0.5 206.5,-0.5"/>
<text text-anchor="start" x="214.5" y="-18.5" font-family="Helvetica,sans-Serif" font-size="10.00">SuiteCRMAddIn.Dialogs.Archive</text>
<text text-anchor="middle" x="286.5" y="-7.5" font-family="Helvetica,sans-Serif" font-size="10.00">Dialog.btnSearch_Click</text>
</a>
</g>
</g>
<!-- Node1&#45;&gt;Node11 -->
<g id="edge12" class="edge"><title>Node1&#45;&gt;Node11</title>
<path fill="none" stroke="midnightblue" d="M90.087,-122.273C108.262,-98.6811 151.209,-55.1923 196,-31.5 196.307,-31.3373 196.616,-31.1757 196.926,-31.0149"/>
<polygon fill="midnightblue" stroke="midnightblue" points="198.651,-34.0708 206.189,-26.6257 195.653,-27.745 198.651,-34.0708"/>
</g>
<!-- Node3 -->
<g id="node3" class="node"><title>Node3</title>
<g id="a_node3"><a xlink:href="struct_suite_c_r_m_add_in_1_1_wait_cursor.html#a5a3235a0e82ff01664e64e15a542babc" target="_top" xlink:title="SuiteCRMAddIn.WaitCursor.\lWaitCursor">
<polygon fill="white" stroke="black" points="432,-278.5 432,-308.5 575,-308.5 575,-278.5 432,-278.5"/>
<text text-anchor="start" x="440" y="-296.5" font-family="Helvetica,sans-Serif" font-size="10.00">SuiteCRMAddIn.WaitCursor.</text>
<text text-anchor="middle" x="503.5" y="-285.5" font-family="Helvetica,sans-Serif" font-size="10.00">WaitCursor</text>
</a>
</g>
</g>
<!-- Node2&#45;&gt;Node3 -->
<g id="edge2" class="edge"><title>Node2&#45;&gt;Node3</title>
<path fill="none" stroke="midnightblue" d="M365.728,-293.5C383.963,-293.5 403.415,-293.5 421.756,-293.5"/>
<polygon fill="midnightblue" stroke="midnightblue" points="421.817,-297 431.817,-293.5 421.817,-290 421.817,-297"/>
</g>
<!-- Node5 -->
<g id="node5" class="node"><title>Node5</title>
<g id="a_node5"><a xlink:href="class_suite_c_r_m_client_1_1cls_suite_c_r_m_helper.html#a80f04ec3ab185a736b6633c0df69c536" target="_top" xlink:title="SuiteCRMClient.clsSuiteCRMHelper.\lEnsureLoggedIn">
<polygon fill="white" stroke="black" points="630,-180.5 630,-210.5 811,-210.5 811,-180.5 630,-180.5"/>
<text text-anchor="start" x="638" y="-198.5" font-family="Helvetica,sans-Serif" font-size="10.00">SuiteCRMClient.clsSuiteCRMHelper.</text>
<text text-anchor="middle" x="720.5" y="-187.5" font-family="Helvetica,sans-Serif" font-size="10.00">EnsureLoggedIn</text>
</a>
</g>
</g>
<!-- Node4&#45;&gt;Node5 -->
<g id="edge4" class="edge"><title>Node4&#45;&gt;Node5</title>
<path fill="none" stroke="midnightblue" d="M594.123,-214.744C602.57,-213.447 611.168,-212.128 619.702,-210.818"/>
<polygon fill="midnightblue" stroke="midnightblue" points="620.324,-214.263 629.677,-209.287 619.262,-207.345 620.324,-214.263"/>
</g>
<!-- Node8 -->
<g id="node8" class="node"><title>Node8</title>
<g id="a_node8"><a xlink:href="class_suite_c_r_m_client_1_1cls_suite_c_r_m_helper.html#aae0adc545d51a81ed1297ceaa8b1522a" target="_top" xlink:title="Get the module fields data for the module with this name, if any. ">
<polygon fill="white" stroke="black" points="413,-147.5 413,-177.5 594,-177.5 594,-147.5 413,-147.5"/>
<text text-anchor="start" x="421" y="-165.5" font-family="Helvetica,sans-Serif" font-size="10.00">SuiteCRMClient.clsSuiteCRMHelper.</text>
<text text-anchor="middle" x="503.5" y="-154.5" font-family="Helvetica,sans-Serif" font-size="10.00">GetFieldsForModule</text>
</a>
</g>
</g>
<!-- Node7&#45;&gt;Node8 -->
<g id="edge7" class="edge"><title>Node7&#45;&gt;Node8</title>
<path fill="none" stroke="midnightblue" d="M377.123,-162.5C385.478,-162.5 393.982,-162.5 402.424,-162.5"/>
<polygon fill="midnightblue" stroke="midnightblue" points="402.677,-166 412.677,-162.5 402.677,-159 402.677,-166"/>
</g>
<!-- Node8&#45;&gt;Node5 -->
<g id="edge8" class="edge"><title>Node8&#45;&gt;Node5</title>
<path fill="none" stroke="midnightblue" d="M594.123,-176.256C602.57,-177.553 611.168,-178.872 619.702,-180.182"/>
<polygon fill="midnightblue" stroke="midnightblue" points="619.262,-183.655 629.677,-181.713 620.324,-176.737 619.262,-183.655"/>
</g>
<!-- Node9&#45;&gt;Node8 -->
<g id="edge10" class="edge"><title>Node9&#45;&gt;Node8</title>
<path fill="none" stroke="midnightblue" d="M353.468,-128.535C376.685,-133.826 402.956,-139.813 426.904,-145.271"/>
<polygon fill="midnightblue" stroke="midnightblue" points="426.129,-148.684 436.657,-147.494 427.684,-141.859 426.129,-148.684"/>
</g>
<!-- Node11&#45;&gt;Node1 -->
<g id="edge13" class="edge"><title>Node11&#45;&gt;Node1</title>
<path fill="none" stroke="midnightblue" d="M247.564,-30.5584C231.1,-35.2103 211.972,-41.0515 196,-49.5 162.894,-67.0116 130.795,-95.3383 108.962,-115.289"/>
<polygon fill="midnightblue" stroke="midnightblue" points="106.404,-112.886 101.399,-122.225 111.135,-118.045 106.404,-112.886"/>
</g>
</g>
</svg>
