<?xml version="1.0" encoding="UTF-8" standalone="no"?>
<!DOCTYPE svg PUBLIC "-//W3C//DTD SVG 1.1//EN"
 "http://www.w3.org/Graphics/SVG/1.1/DTD/svg11.dtd">
<!-- Generated by graphviz version 2.38.0 (20140413.2041)
 -->
<!-- Title: SuiteCRMClient.clsSuiteCRMHelper.EnsureLoggedIn Pages: 1 -->
<svg width="561pt" height="39pt"
 viewBox="0.00 0.00 561.00 39.00" xmlns="http://www.w3.org/2000/svg" xmlns:xlink="http://www.w3.org/1999/xlink">
<g id="graph0" class="graph" transform="scale(1 1) rotate(0) translate(4 35)">
<title>SuiteCRMClient.clsSuiteCRMHelper.EnsureLoggedIn</title>
<polygon fill="white" stroke="none" points="-4,4 -4,-35 557,-35 557,4 -4,4"/>
<!-- Node1 -->
<g id="node1" class="node"><title>Node1</title>
<polygon fill="#bfbfbf" stroke="black" points="5.68434e-14,-0.5 5.68434e-14,-30.5 181,-30.5 181,-0.5 5.68434e-14,-0.5"/>
<text text-anchor="start" x="8" y="-18.5" font-family="Helvetica,sans-Serif" font-size="10.00">SuiteCRMClient.clsSuiteCRMHelper.</text>
<text text-anchor="middle" x="90.5" y="-7.5" font-family="Helvetica,sans-Serif" font-size="10.00">EnsureLoggedIn</text>
</g>
<!-- Node2 -->
<g id="node2" class="node"><title>Node2</title>
<g id="a_node2"><a xlink:href="class_suite_c_r_m_client_1_1_user_session.html#a8382d9c050d8e5da8924dc536cd03245" target="_top" xlink:title="Logs in to the CRM server. ">
<polygon fill="white" stroke="black" points="217,-0.5 217,-30.5 367,-30.5 367,-0.5 217,-0.5"/>
<text text-anchor="start" x="225" y="-18.5" font-family="Helvetica,sans-Serif" font-size="10.00">SuiteCRMClient.UserSession.</text>
<text text-anchor="middle" x="292" y="-7.5" font-family="Helvetica,sans-Serif" font-size="10.00">Login</text>
</a>
</g>
</g>
<!-- Node1&#45;&gt;Node2 -->
<g id="edge1" class="edge"><title>Node1&#45;&gt;Node2</title>
<path fill="none" stroke="midnightblue" d="M181.038,-15.5C189.58,-15.5 198.224,-15.5 206.714,-15.5"/>
<polygon fill="midnightblue" stroke="midnightblue" points="206.977,-19.0001 216.977,-15.5 206.977,-12.0001 206.977,-19.0001"/>
</g>
<!-- Node3 -->
<g id="node3" class="node"><title>Node3</title>
<g id="a_node3"><a xlink:href="class_suite_c_r_m_client_1_1_user_session.html#a85104699962c1ee8d45e5659237661e7" target="_top" xlink:title="Authenticate against LDAP using my configured credentials. ">
<polygon fill="white" stroke="black" points="403,-0.5 403,-30.5 553,-30.5 553,-0.5 403,-0.5"/>
<text text-anchor="start" x="411" y="-18.5" font-family="Helvetica,sans-Serif" font-size="10.00">SuiteCRMClient.UserSession.</text>
<text text-anchor="middle" x="478" y="-7.5" font-family="Helvetica,sans-Serif" font-size="10.00">AuthenticateLDAP</text>
</a>
</g>
</g>
<!-- Node2&#45;&gt;Node3 -->
<g id="edge2" class="edge"><title>Node2&#45;&gt;Node3</title>
<path fill="none" stroke="midnightblue" d="M367.044,-15.5C375.514,-15.5 384.195,-15.5 392.784,-15.5"/>
<polygon fill="midnightblue" stroke="midnightblue" points="392.808,-19.0001 402.808,-15.5 392.807,-12.0001 392.808,-19.0001"/>
</g>
</g>
</svg>
