<?xml version="1.0" encoding="UTF-8" standalone="no"?>
<!DOCTYPE svg PUBLIC "-//W3C//DTD SVG 1.1//EN"
 "http://www.w3.org/Graphics/SVG/1.1/DTD/svg11.dtd">
<!-- Generated by graphviz version 2.38.0 (20140413.2041)
 -->
<!-- Title: SuiteCRMAddIn.BusinessLogic.ContactSyncing.EnsureSynchronisationPropertyForOutlookItem Pages: 1 -->
<svg width="392pt" height="50pt"
 viewBox="0.00 0.00 392.00 50.00" xmlns="http://www.w3.org/2000/svg" xmlns:xlink="http://www.w3.org/1999/xlink">
<g id="graph0" class="graph" transform="scale(1 1) rotate(0) translate(4 46)">
<title>SuiteCRMAddIn.BusinessLogic.ContactSyncing.EnsureSynchronisationPropertyForOutlookItem</title>
<polygon fill="white" stroke="none" points="-4,4 -4,-46 388,-46 388,4 -4,4"/>
<!-- Node1 -->
<g id="node1" class="node"><title>Node1</title>
<polygon fill="#bfbfbf" stroke="black" points="0,-0.5 0,-41.5 190,-41.5 190,-0.5 0,-0.5"/>
<text text-anchor="start" x="8" y="-29.5" font-family="Helvetica,sans-Serif" font-size="10.00">SuiteCRMAddIn.BusinessLogic.</text>
<text text-anchor="start" x="8" y="-18.5" font-family="Helvetica,sans-Serif" font-size="10.00">ContactSyncing.EnsureSynchronisation</text>
<text text-anchor="middle" x="95" y="-7.5" font-family="Helvetica,sans-Serif" font-size="10.00">PropertyForOutlookItem</text>
</g>
<!-- Node2 -->
<g id="node2" class="node"><title>Node2</title>
<g id="a_node2"><a xlink:href="class_suite_c_r_m_add_in_1_1_business_logic_1_1_contact_syncing.html#ae0c207e0086d51d9c11ff9baca2d8fba" target="_top" xlink:title="SuiteCRMAddIn.BusinessLogic.\lContactSyncing.SaveItem">
<polygon fill="white" stroke="black" points="226,-6 226,-36 384,-36 384,-6 226,-6"/>
<text text-anchor="start" x="234" y="-24" font-family="Helvetica,sans-Serif" font-size="10.00">SuiteCRMAddIn.BusinessLogic.</text>
<text text-anchor="middle" x="305" y="-13" font-family="Helvetica,sans-Serif" font-size="10.00">ContactSyncing.SaveItem</text>
</a>
</g>
</g>
<!-- Node1&#45;&gt;Node2 -->
<g id="edge1" class="edge"><title>Node1&#45;&gt;Node2</title>
<path fill="none" stroke="midnightblue" d="M190.263,-21C198.745,-21 207.315,-21 215.743,-21"/>
<polygon fill="midnightblue" stroke="midnightblue" points="215.938,-24.5001 225.938,-21 215.938,-17.5001 215.938,-24.5001"/>
</g>
</g>
</svg>
