<?xml version="1.0" encoding="UTF-8" standalone="no"?>
<!DOCTYPE svg PUBLIC "-//W3C//DTD SVG 1.1//EN"
 "http://www.w3.org/Graphics/SVG/1.1/DTD/svg11.dtd">
<!-- Generated by graphviz version 2.38.0 (20140413.2041)
 -->
<!-- Title: SuiteCRMAddIn.BusinessLogic.Synchroniser.OutlookItemChanged Pages: 1 -->
<svg width="387pt" height="50pt"
 viewBox="0.00 0.00 387.00 50.00" xmlns="http://www.w3.org/2000/svg" xmlns:xlink="http://www.w3.org/1999/xlink">
<g id="graph0" class="graph" transform="scale(1 1) rotate(0) translate(4 46)">
<title>SuiteCRMAddIn.BusinessLogic.Synchroniser.OutlookItemChanged</title>
<polygon fill="white" stroke="none" points="-4,4 -4,-46 383,-46 383,4 -4,4"/>
<!-- Node1 -->
<g id="node1" class="node"><title>Node1</title>
<polygon fill="#bfbfbf" stroke="black" points="0,-6 0,-36 169,-36 169,-6 0,-6"/>
<text text-anchor="start" x="8" y="-24" font-family="Helvetica,sans-Serif" font-size="10.00">SuiteCRMAddIn.BusinessLogic.</text>
<text text-anchor="middle" x="84.5" y="-13" font-family="Helvetica,sans-Serif" font-size="10.00">Synchroniser.OutlookItemChanged</text>
</g>
<!-- Node2 -->
<g id="node2" class="node"><title>Node2</title>
<g id="a_node2"><a xlink:href="class_suite_c_r_m_add_in_1_1_business_logic_1_1_synchroniser.html#a01a34d935fcf3713eda789a4de64dabc" target="_top" xlink:title="SuiteCRMAddIn.BusinessLogic.\lSynchroniser\&lt; Outlook.Appointment\lItem \&gt;::Items_ItemChange">
<polygon fill="white" stroke="black" points="205,-0.5 205,-41.5 379,-41.5 379,-0.5 205,-0.5"/>
<text text-anchor="start" x="213" y="-29.5" font-family="Helvetica,sans-Serif" font-size="10.00">SuiteCRMAddIn.BusinessLogic.</text>
<text text-anchor="start" x="213" y="-18.5" font-family="Helvetica,sans-Serif" font-size="10.00">Synchroniser&lt; Outlook.Appointment</text>
<text text-anchor="middle" x="292" y="-7.5" font-family="Helvetica,sans-Serif" font-size="10.00">Item &gt;::Items_ItemChange</text>
</a>
</g>
</g>
<!-- Node1&#45;&gt;Node2 -->
<g id="edge1" class="edge"><title>Node1&#45;&gt;Node2</title>
<path fill="none" stroke="midnightblue" d="M179.091,-21C187.661,-21 196.317,-21 204.817,-21"/>
<polygon fill="midnightblue" stroke="midnightblue" points="179.085,-17.5001 169.085,-21 179.085,-24.5001 179.085,-17.5001"/>
</g>
</g>
</svg>
