<?xml version="1.0" encoding="UTF-8" standalone="no"?>
<!DOCTYPE svg PUBLIC "-//W3C//DTD SVG 1.1//EN"
 "http://www.w3.org/Graphics/SVG/1.1/DTD/svg11.dtd">
<!-- Generated by graphviz version 2.38.0 (20140413.2041)
 -->
<!-- Title: SuiteCRMAddIn.SuiteCRMRibbon.btnSendAndArchive_Action Pages: 1 -->
<svg width="391pt" height="235pt"
 viewBox="0.00 0.00 391.00 235.00" xmlns="http://www.w3.org/2000/svg" xmlns:xlink="http://www.w3.org/1999/xlink">
<g id="graph0" class="graph" transform="scale(1 1) rotate(0) translate(4 231)">
<title>SuiteCRMAddIn.SuiteCRMRibbon.btnSendAndArchive_Action</title>
<polygon fill="white" stroke="none" points="-4,4 -4,-231 387,-231 387,4 -4,4"/>
<!-- Node1 -->
<g id="node1" class="node"><title>Node1</title>
<polygon fill="#bfbfbf" stroke="black" points="0,-98.5 0,-128.5 184,-128.5 184,-98.5 0,-98.5"/>
<text text-anchor="start" x="8" y="-116.5" font-family="Helvetica,sans-Serif" font-size="10.00">SuiteCRMAddIn.SuiteCRMRibbon.btn</text>
<text text-anchor="middle" x="92" y="-105.5" font-family="Helvetica,sans-Serif" font-size="10.00">SendAndArchive_Action</text>
</g>
<!-- Node2 -->
<g id="node2" class="node"><title>Node2</title>
<g id="a_node2"><a xlink:href="class_suite_c_r_m_add_in_1_1_this_add_in.html#a8f019e8cd74b651865a318ef26ceb30f" target="_top" xlink:title="SuiteCRMAddIn.ThisAddIn.\lShowAndLogError">
<polygon fill="white" stroke="black" points="232.5,-196.5 232.5,-226.5 370.5,-226.5 370.5,-196.5 232.5,-196.5"/>
<text text-anchor="start" x="240.5" y="-214.5" font-family="Helvetica,sans-Serif" font-size="10.00">SuiteCRMAddIn.ThisAddIn.</text>
<text text-anchor="middle" x="301.5" y="-203.5" font-family="Helvetica,sans-Serif" font-size="10.00">ShowAndLogError</text>
</a>
</g>
</g>
<!-- Node1&#45;&gt;Node2 -->
<g id="edge1" class="edge"><title>Node1&#45;&gt;Node2</title>
<path fill="none" stroke="midnightblue" d="M115.087,-128.561C139.772,-144.863 181.362,-170.768 220,-187.5 224.45,-189.427 229.102,-191.258 233.828,-192.986"/>
<polygon fill="midnightblue" stroke="midnightblue" points="232.999,-196.403 243.593,-196.385 235.3,-189.792 232.999,-196.403"/>
</g>
<!-- Node3 -->
<g id="node3" class="node"><title>Node3</title>
<g id="a_node3"><a xlink:href="interface_suite_c_r_m_client_1_1_logging_1_1_i_logger.html#a382e4f42b88246eedbe5bf63149a18d6" target="_top" xlink:title="Adds this message to the log. ">
<polygon fill="white" stroke="black" points="220,-147.5 220,-177.5 383,-177.5 383,-147.5 220,-147.5"/>
<text text-anchor="start" x="228" y="-165.5" font-family="Helvetica,sans-Serif" font-size="10.00">SuiteCRMClient.Logging.ILogger.</text>
<text text-anchor="middle" x="301.5" y="-154.5" font-family="Helvetica,sans-Serif" font-size="10.00">AddEntry</text>
</a>
</g>
</g>
<!-- Node1&#45;&gt;Node3 -->
<g id="edge2" class="edge"><title>Node1&#45;&gt;Node3</title>
<path fill="none" stroke="midnightblue" d="M156.667,-128.535C178.875,-133.779 203.978,-139.707 226.925,-145.126"/>
<polygon fill="midnightblue" stroke="midnightblue" points="226.417,-148.602 236.953,-147.494 228.025,-141.789 226.417,-148.602"/>
</g>
<!-- Node4 -->
<g id="node4" class="node"><title>Node4</title>
<g id="a_node4"><a xlink:href="class_suite_c_r_m_add_in_1_1_this_add_in.html#a241a0e53ef17a70dfa4b991bce8df910" target="_top" xlink:title="SuiteCRMAddIn.ThisAddIn.\lShowSettingsForm">
<polygon fill="white" stroke="black" points="232.5,-98.5 232.5,-128.5 370.5,-128.5 370.5,-98.5 232.5,-98.5"/>
<text text-anchor="start" x="240.5" y="-116.5" font-family="Helvetica,sans-Serif" font-size="10.00">SuiteCRMAddIn.ThisAddIn.</text>
<text text-anchor="middle" x="301.5" y="-105.5" font-family="Helvetica,sans-Serif" font-size="10.00">ShowSettingsForm</text>
</a>
</g>
</g>
<!-- Node1&#45;&gt;Node4 -->
<g id="edge3" class="edge"><title>Node1&#45;&gt;Node4</title>
<path fill="none" stroke="midnightblue" d="M184.013,-113.5C196.688,-113.5 209.621,-113.5 222.04,-113.5"/>
<polygon fill="midnightblue" stroke="midnightblue" points="222.333,-117 232.333,-113.5 222.333,-110 222.333,-117"/>
</g>
<!-- Node5 -->
<g id="node5" class="node"><title>Node5</title>
<g id="a_node5"><a xlink:href="class_suite_c_r_m_add_in_1_1_this_add_in.html#a8052836bf64ac24c9334d6ac28ec967e" target="_top" xlink:title="SuiteCRMAddIn.ThisAddIn.\lShowArchiveForm">
<polygon fill="white" stroke="black" points="232.5,-49.5 232.5,-79.5 370.5,-79.5 370.5,-49.5 232.5,-49.5"/>
<text text-anchor="start" x="240.5" y="-67.5" font-family="Helvetica,sans-Serif" font-size="10.00">SuiteCRMAddIn.ThisAddIn.</text>
<text text-anchor="middle" x="301.5" y="-56.5" font-family="Helvetica,sans-Serif" font-size="10.00">ShowArchiveForm</text>
</a>
</g>
</g>
<!-- Node1&#45;&gt;Node5 -->
<g id="edge4" class="edge"><title>Node1&#45;&gt;Node5</title>
<path fill="none" stroke="midnightblue" d="M156.667,-98.4654C178.875,-93.2211 203.978,-87.2931 226.925,-81.8745"/>
<polygon fill="midnightblue" stroke="midnightblue" points="228.025,-85.2108 236.953,-79.5062 226.417,-78.3982 228.025,-85.2108"/>
</g>
<!-- Node6 -->
<g id="node6" class="node"><title>Node6</title>
<g id="a_node6"><a xlink:href="class_suite_c_r_m_add_in_1_1_robustness.html#a1c4263fa0ac98393772c3dec7d97a0af" target="_top" xlink:title="SuiteCRMAddIn.Robustness.\lDoOrLogError">
<polygon fill="white" stroke="black" points="228.5,-0.5 228.5,-30.5 374.5,-30.5 374.5,-0.5 228.5,-0.5"/>
<text text-anchor="start" x="236.5" y="-18.5" font-family="Helvetica,sans-Serif" font-size="10.00">SuiteCRMAddIn.Robustness.</text>
<text text-anchor="middle" x="301.5" y="-7.5" font-family="Helvetica,sans-Serif" font-size="10.00">DoOrLogError</text>
</a>
</g>
</g>
<!-- Node1&#45;&gt;Node6 -->
<g id="edge5" class="edge"><title>Node1&#45;&gt;Node6</title>
<path fill="none" stroke="midnightblue" d="M115.606,-98.4546C140.403,-82.447 181.772,-57.1786 220,-40.5 225.328,-38.1756 230.94,-35.9707 236.62,-33.9041"/>
<polygon fill="midnightblue" stroke="midnightblue" points="237.916,-37.1588 246.205,-30.5602 235.611,-30.5494 237.916,-37.1588"/>
</g>
</g>
</svg>
