<?xml version="1.0" encoding="UTF-8" standalone="no"?>
<!DOCTYPE svg PUBLIC "-//W3C//DTD SVG 1.1//EN"
 "http://www.w3.org/Graphics/SVG/1.1/DTD/svg11.dtd">
<!-- Generated by graphviz version 2.38.0 (20140413.2041)
 -->
<!-- Title: SuiteCRMAddIn.BusinessLogic.AppointmentSyncing.EnsureSynchronisationPropertyForOutlookItem Pages: 1 -->
<svg width="870pt" height="50pt"
 viewBox="0.00 0.00 870.00 50.00" xmlns="http://www.w3.org/2000/svg" xmlns:xlink="http://www.w3.org/1999/xlink">
<g id="graph0" class="graph" transform="scale(1 1) rotate(0) translate(4 46)">
<title>SuiteCRMAddIn.BusinessLogic.AppointmentSyncing.EnsureSynchronisationPropertyForOutlookItem</title>
<polygon fill="white" stroke="none" points="-4,4 -4,-46 866,-46 866,4 -4,4"/>
<!-- Node1 -->
<g id="node1" class="node"><title>Node1</title>
<polygon fill="#bfbfbf" stroke="black" points="0,-0.5 0,-41.5 210,-41.5 210,-0.5 0,-0.5"/>
<text text-anchor="start" x="8" y="-29.5" font-family="Helvetica,sans-Serif" font-size="10.00">SuiteCRMAddIn.BusinessLogic.</text>
<text text-anchor="start" x="8" y="-18.5" font-family="Helvetica,sans-Serif" font-size="10.00">AppointmentSyncing.EnsureSynchronisation</text>
<text text-anchor="middle" x="105" y="-7.5" font-family="Helvetica,sans-Serif" font-size="10.00">PropertyForOutlookItem</text>
</g>
<!-- Node2 -->
<g id="node2" class="node"><title>Node2</title>
<g id="a_node2"><a xlink:href="class_suite_c_r_m_add_in_1_1_business_logic_1_1_appointment_syncing.html#a8a922e6ddd966e890c8203d4c91912d1" target="_top" xlink:title="Specialisation: in addition to the standard properties, meetings also require an organiser property...">
<polygon fill="white" stroke="black" points="246,-0.5 246,-41.5 456,-41.5 456,-0.5 246,-0.5"/>
<text text-anchor="start" x="254" y="-29.5" font-family="Helvetica,sans-Serif" font-size="10.00">SuiteCRMAddIn.BusinessLogic.</text>
<text text-anchor="start" x="254" y="-18.5" font-family="Helvetica,sans-Serif" font-size="10.00">AppointmentSyncing.EnsureSynchronisation</text>
<text text-anchor="middle" x="351" y="-7.5" font-family="Helvetica,sans-Serif" font-size="10.00">PropertiesForOutlookItem</text>
</a>
</g>
</g>
<!-- Node1&#45;&gt;Node2 -->
<g id="edge1" class="edge"><title>Node1&#45;&gt;Node2</title>
<path fill="none" stroke="midnightblue" d="M220.453,-14.2615C228.899,-14.2357 237.394,-14.2533 245.774,-14.3141"/>
<polygon fill="midnightblue" stroke="midnightblue" points="220.168,-10.7628 210.186,-14.3144 220.204,-17.7627 220.168,-10.7628"/>
</g>
<!-- Node2&#45;&gt;Node1 -->
<g id="edge2" class="edge"><title>Node2&#45;&gt;Node1</title>
<path fill="none" stroke="midnightblue" d="M235.506,-27.7386C227.06,-27.7642 218.566,-27.7466 210.186,-27.6856"/>
<polygon fill="midnightblue" stroke="midnightblue" points="235.792,-31.2373 245.774,-27.6859 235.756,-24.2374 235.792,-31.2373"/>
</g>
<!-- Node3 -->
<g id="node3" class="node"><title>Node3</title>
<g id="a_node3"><a xlink:href="class_suite_c_r_m_add_in_1_1_business_logic_1_1_appointment_syncing.html#af477f9f681874a701880737a2383b5fc" target="_top" xlink:title="Synchronise items in the specified folder with the specified SuiteCRM module. ">
<polygon fill="white" stroke="black" points="492,-6 492,-36 651,-36 651,-6 492,-6"/>
<text text-anchor="start" x="500" y="-24" font-family="Helvetica,sans-Serif" font-size="10.00">SuiteCRMAddIn.BusinessLogic.</text>
<text text-anchor="middle" x="571.5" y="-13" font-family="Helvetica,sans-Serif" font-size="10.00">AppointmentSyncing.SyncFolder</text>
</a>
</g>
</g>
<!-- Node2&#45;&gt;Node3 -->
<g id="edge3" class="edge"><title>Node2&#45;&gt;Node3</title>
<path fill="none" stroke="midnightblue" d="M466.246,-21C474.858,-21 483.428,-21 491.742,-21"/>
<polygon fill="midnightblue" stroke="midnightblue" points="466.131,-17.5001 456.131,-21 466.131,-24.5001 466.131,-17.5001"/>
</g>
<!-- Node4 -->
<g id="node4" class="node"><title>Node4</title>
<g id="a_node4"><a xlink:href="class_suite_c_r_m_add_in_1_1_business_logic_1_1_appointment_syncing.html#a7cee33973de0521341615a899e970cba" target="_top" xlink:title="Action method of the thread. ">
<polygon fill="white" stroke="black" points="687,-6 687,-36 862,-36 862,-6 687,-6"/>
<text text-anchor="start" x="695" y="-24" font-family="Helvetica,sans-Serif" font-size="10.00">SuiteCRMAddIn.BusinessLogic.</text>
<text text-anchor="middle" x="774.5" y="-13" font-family="Helvetica,sans-Serif" font-size="10.00">AppointmentSyncing.SynchroniseAll</text>
</a>
</g>
</g>
<!-- Node3&#45;&gt;Node4 -->
<g id="edge4" class="edge"><title>Node3&#45;&gt;Node4</title>
<path fill="none" stroke="midnightblue" d="M661.101,-21C669.7,-21 678.418,-21 686.996,-21"/>
<polygon fill="midnightblue" stroke="midnightblue" points="661.075,-17.5001 651.075,-21 661.075,-24.5001 661.075,-17.5001"/>
</g>
</g>
</svg>
