<?xml version="1.0" encoding="UTF-8" standalone="no"?>
<!DOCTYPE svg PUBLIC "-//W3C//DTD SVG 1.1//EN"
 "http://www.w3.org/Graphics/SVG/1.1/DTD/svg11.dtd">
<!-- Generated by graphviz version 2.38.0 (20140413.2041)
 -->
<!-- Title: SuiteCRMAddIn.BusinessLogic.Synchroniser.SaveItem Pages: 1 -->
<svg width="418pt" height="302pt"
 viewBox="0.00 0.00 418.00 302.00" xmlns="http://www.w3.org/2000/svg" xmlns:xlink="http://www.w3.org/1999/xlink">
<g id="graph0" class="graph" transform="scale(1 1) rotate(0) translate(4 298)">
<title>SuiteCRMAddIn.BusinessLogic.Synchroniser.SaveItem</title>
<polygon fill="white" stroke="none" points="-4,4 -4,-298 414,-298 414,4 -4,4"/>
<!-- Node1 -->
<g id="node1" class="node"><title>Node1</title>
<polygon fill="#bfbfbf" stroke="black" points="0,-132 0,-162 158,-162 158,-132 0,-132"/>
<text text-anchor="start" x="8" y="-150" font-family="Helvetica,sans-Serif" font-size="10.00">SuiteCRMAddIn.BusinessLogic.</text>
<text text-anchor="middle" x="79" y="-139" font-family="Helvetica,sans-Serif" font-size="10.00">Synchroniser.SaveItem</text>
</g>
<!-- Node2 -->
<g id="node2" class="node"><title>Node2</title>
<g id="a_node2"><a xlink:href="class_suite_c_r_m_add_in_1_1_business_logic_1_1_synchroniser.html#abcb946129e1e15078229006b25068e06" target="_top" xlink:title="SuiteCRMAddIn.BusinessLogic.\lSynchroniser\&lt; Outlook.Appointment\lItem \&gt;::PrepareShutdown">
<polygon fill="white" stroke="black" points="215,-252.5 215,-293.5 389,-293.5 389,-252.5 215,-252.5"/>
<text text-anchor="start" x="223" y="-281.5" font-family="Helvetica,sans-Serif" font-size="10.00">SuiteCRMAddIn.BusinessLogic.</text>
<text text-anchor="start" x="223" y="-270.5" font-family="Helvetica,sans-Serif" font-size="10.00">Synchroniser&lt; Outlook.Appointment</text>
<text text-anchor="middle" x="302" y="-259.5" font-family="Helvetica,sans-Serif" font-size="10.00">Item &gt;::PrepareShutdown</text>
</a>
</g>
</g>
<!-- Node1&#45;&gt;Node2 -->
<g id="edge1" class="edge"><title>Node1&#45;&gt;Node2</title>
<path fill="none" stroke="midnightblue" d="M100.944,-169.524C122.366,-191.295 157.584,-223.734 194,-243 200.651,-246.519 207.758,-249.661 215.029,-252.461"/>
<polygon fill="midnightblue" stroke="midnightblue" points="103.431,-167.061 93.9624,-162.307 98.3996,-171.928 103.431,-167.061"/>
</g>
<!-- Node3 -->
<g id="node3" class="node"><title>Node3</title>
<g id="a_node3"><a xlink:href="class_suite_c_r_m_add_in_1_1_business_logic_1_1_synchroniser.html#aecaeaaae371d340839392edf8d8f396e" target="_top" xlink:title="Add the Outlook item referenced by this sync state, which may not exist in CRM, to CRM...">
<polygon fill="white" stroke="black" points="194,-192.5 194,-233.5 410,-233.5 410,-192.5 194,-192.5"/>
<text text-anchor="start" x="202" y="-221.5" font-family="Helvetica,sans-Serif" font-size="10.00">SuiteCRMAddIn.BusinessLogic.</text>
<text text-anchor="start" x="202" y="-210.5" font-family="Helvetica,sans-Serif" font-size="10.00">Synchroniser&lt; Outlook.Appointment</text>
<text text-anchor="middle" x="302" y="-199.5" font-family="Helvetica,sans-Serif" font-size="10.00">Item &gt;::AddOrUpdateItemFromOutlookToCrm</text>
</a>
</g>
</g>
<!-- Node1&#45;&gt;Node3 -->
<g id="edge2" class="edge"><title>Node1&#45;&gt;Node3</title>
<path fill="none" stroke="midnightblue" d="M136.169,-165.137C154.56,-170.968 175.116,-177.373 194,-183 204.539,-186.141 215.689,-189.37 226.656,-192.493"/>
<polygon fill="midnightblue" stroke="midnightblue" points="137.076,-161.752 126.486,-162.056 134.954,-168.423 137.076,-161.752"/>
</g>
<!-- Node4 -->
<g id="node4" class="node"><title>Node4</title>
<g id="a_node4"><a xlink:href="class_suite_c_r_m_add_in_1_1_business_logic_1_1_synchroniser.html#a8c1e906f4a8c369c69e5cdbb73c1cfb2" target="_top" xlink:title="Every Outlook item which is to be synchronised must have a property SOModifiedDate, a property SType, and a property SEntryId, referencing respectively the last time it was modified, the type of CRM item it is to be synchronised with, and the id of the CRM item it is to be synchronised with. ">
<polygon fill="white" stroke="black" points="204,-121 204,-173 400,-173 400,-121 204,-121"/>
<text text-anchor="start" x="212" y="-161" font-family="Helvetica,sans-Serif" font-size="10.00">SuiteCRMAddIn.BusinessLogic.</text>
<text text-anchor="start" x="212" y="-150" font-family="Helvetica,sans-Serif" font-size="10.00">Synchroniser&lt; Outlook.Appointment</text>
<text text-anchor="start" x="212" y="-139" font-family="Helvetica,sans-Serif" font-size="10.00">Item &gt;::EnsureSynchronisationProperties</text>
<text text-anchor="middle" x="302" y="-128" font-family="Helvetica,sans-Serif" font-size="10.00">ForOutlookItem</text>
</a>
</g>
</g>
<!-- Node1&#45;&gt;Node4 -->
<g id="edge3" class="edge"><title>Node1&#45;&gt;Node4</title>
<path fill="none" stroke="midnightblue" d="M168.387,-147C180.064,-147 192.084,-147 203.897,-147"/>
<polygon fill="midnightblue" stroke="midnightblue" points="168.227,-143.5 158.227,-147 168.227,-150.5 168.227,-143.5"/>
</g>
<!-- Node5 -->
<g id="node5" class="node"><title>Node5</title>
<g id="a_node5"><a xlink:href="class_suite_c_r_m_add_in_1_1_business_logic_1_1_synchroniser.html#a3c7972ebc9fde19403be4cb526b58898" target="_top" xlink:title="Entry point from event handler when an item is added in Outlook. ">
<polygon fill="white" stroke="black" points="215,-60.5 215,-101.5 389,-101.5 389,-60.5 215,-60.5"/>
<text text-anchor="start" x="223" y="-89.5" font-family="Helvetica,sans-Serif" font-size="10.00">SuiteCRMAddIn.BusinessLogic.</text>
<text text-anchor="start" x="223" y="-78.5" font-family="Helvetica,sans-Serif" font-size="10.00">Synchroniser&lt; Outlook.Appointment</text>
<text text-anchor="middle" x="302" y="-67.5" font-family="Helvetica,sans-Serif" font-size="10.00">Item &gt;::OutlookItemAdded</text>
</a>
</g>
</g>
<!-- Node1&#45;&gt;Node5 -->
<g id="edge4" class="edge"><title>Node1&#45;&gt;Node5</title>
<path fill="none" stroke="midnightblue" d="M138.206,-128.935C156.087,-123.438 175.838,-117.419 194,-112 205.49,-108.572 217.691,-104.986 229.585,-101.52"/>
<polygon fill="midnightblue" stroke="midnightblue" points="137.014,-125.64 128.487,-131.928 139.074,-132.33 137.014,-125.64"/>
</g>
<!-- Node6 -->
<g id="node6" class="node"><title>Node6</title>
<g id="a_node6"><a xlink:href="class_suite_c_r_m_add_in_1_1_business_logic_1_1_synchroniser.html#a39a299e28dff602fec9c2291328e27d4" target="_top" xlink:title="Entry point from event handler, called when an Outlook item of class AppointmentItem is believed to h...">
<polygon fill="white" stroke="black" points="215,-0.5 215,-41.5 389,-41.5 389,-0.5 215,-0.5"/>
<text text-anchor="start" x="223" y="-29.5" font-family="Helvetica,sans-Serif" font-size="10.00">SuiteCRMAddIn.BusinessLogic.</text>
<text text-anchor="start" x="223" y="-18.5" font-family="Helvetica,sans-Serif" font-size="10.00">Synchroniser&lt; Outlook.Appointment</text>
<text text-anchor="middle" x="302" y="-7.5" font-family="Helvetica,sans-Serif" font-size="10.00">Item &gt;::OutlookItemChanged</text>
</a>
</g>
</g>
<!-- Node1&#45;&gt;Node6 -->
<g id="edge5" class="edge"><title>Node1&#45;&gt;Node6</title>
<path fill="none" stroke="midnightblue" d="M100.944,-124.476C122.366,-102.705 157.584,-70.2665 194,-51 200.651,-47.4814 207.758,-44.3386 215.029,-41.5387"/>
<polygon fill="midnightblue" stroke="midnightblue" points="98.3996,-122.072 93.9624,-131.693 103.431,-126.939 98.3996,-122.072"/>
</g>
</g>
</svg>
