<?xml version="1.0" encoding="UTF-8" standalone="no"?>
<!DOCTYPE svg PUBLIC "-//W3C//DTD SVG 1.1//EN"
 "http://www.w3.org/Graphics/SVG/1.1/DTD/svg11.dtd">
<!-- Generated by graphviz version 2.38.0 (20140413.2041)
 -->
<!-- Title: SuiteCRMClient.RestService.CreateGetRequest Pages: 1 -->
<svg width="565pt" height="94pt"
 viewBox="0.00 0.00 565.00 93.50" xmlns="http://www.w3.org/2000/svg" xmlns:xlink="http://www.w3.org/1999/xlink">
<g id="graph0" class="graph" transform="scale(1 1) rotate(0) translate(4 89.5)">
<title>SuiteCRMClient.RestService.CreateGetRequest</title>
<polygon fill="white" stroke="none" points="-4,4 -4,-89.5 561,-89.5 561,4 -4,4"/>
<!-- Node1 -->
<g id="node1" class="node"><title>Node1</title>
<polygon fill="#bfbfbf" stroke="black" points="0,-24.5 0,-54.5 148,-54.5 148,-24.5 0,-24.5"/>
<text text-anchor="start" x="8" y="-42.5" font-family="Helvetica,sans-Serif" font-size="10.00">SuiteCRMClient.RestService.</text>
<text text-anchor="middle" x="74" y="-31.5" font-family="Helvetica,sans-Serif" font-size="10.00">CreateGetRequest</text>
</g>
<!-- Node2 -->
<g id="node2" class="node"><title>Node2</title>
<g id="a_node2"><a xlink:href="class_suite_c_r_m_add_in_1_1_business_logic_1_1_licence_validation_helper.html#afbc91cc3a89487a4f8a4d737adbab0c4" target="_top" xlink:title="Validate my key pair. ">
<polygon fill="white" stroke="black" points="184,-49.5 184,-79.5 344,-79.5 344,-49.5 184,-49.5"/>
<text text-anchor="start" x="192" y="-67.5" font-family="Helvetica,sans-Serif" font-size="10.00">SuiteCRMAddIn.BusinessLogic.</text>
<text text-anchor="middle" x="264" y="-56.5" font-family="Helvetica,sans-Serif" font-size="10.00">LicenceValidationHelper.Validate</text>
</a>
</g>
</g>
<!-- Node1&#45;&gt;Node2 -->
<g id="edge1" class="edge"><title>Node1&#45;&gt;Node2</title>
<path fill="none" stroke="midnightblue" d="M158.143,-50.5563C166.655,-51.6881 175.286,-52.836 183.754,-53.962"/>
<polygon fill="midnightblue" stroke="midnightblue" points="158.598,-47.086 148.224,-49.2372 157.675,-54.025 158.598,-47.086"/>
</g>
<!-- Node4 -->
<g id="node4" class="node"><title>Node4</title>
<g id="a_node4"><a xlink:href="class_suite_c_r_m_client_1_1_rest_service.html#a6d0b46aa7af3eb53333815366ac73f76" target="_top" xlink:title="Get a response of type T from my base URL by appending these parameters. ">
<polygon fill="white" stroke="black" points="190,-0.5 190,-30.5 338,-30.5 338,-0.5 190,-0.5"/>
<text text-anchor="start" x="198" y="-18.5" font-family="Helvetica,sans-Serif" font-size="10.00">SuiteCRMClient.RestService.</text>
<text text-anchor="middle" x="264" y="-7.5" font-family="Helvetica,sans-Serif" font-size="10.00">GetResponse&lt; T &gt;</text>
</a>
</g>
</g>
<!-- Node1&#45;&gt;Node4 -->
<g id="edge3" class="edge"><title>Node1&#45;&gt;Node4</title>
<path fill="none" stroke="midnightblue" d="M158.278,-28.8687C168.842,-27.5201 179.589,-26.1482 189.976,-24.8222"/>
<polygon fill="midnightblue" stroke="midnightblue" points="157.7,-25.414 148.224,-30.1523 158.587,-32.3577 157.7,-25.414"/>
</g>
<!-- Node3 -->
<g id="node3" class="node"><title>Node3</title>
<g id="a_node3"><a xlink:href="class_suite_c_r_m_add_in_1_1_business_logic_1_1_tests_1_1_licence_validation_helper_tests.html#a99b34331b764d9dc42f1cd52f818bf9b" target="_top" xlink:title="SuiteCRMAddIn.BusinessLogic.\lTests.LicenceValidationHelperTests.\lLicenceValidationHelperValidateTest">
<polygon fill="white" stroke="black" points="380,-44 380,-85 557,-85 557,-44 380,-44"/>
<text text-anchor="start" x="388" y="-73" font-family="Helvetica,sans-Serif" font-size="10.00">SuiteCRMAddIn.BusinessLogic.</text>
<text text-anchor="start" x="388" y="-62" font-family="Helvetica,sans-Serif" font-size="10.00">Tests.LicenceValidationHelperTests.</text>
<text text-anchor="middle" x="468.5" y="-51" font-family="Helvetica,sans-Serif" font-size="10.00">LicenceValidationHelperValidateTest</text>
</a>
</g>
</g>
<!-- Node2&#45;&gt;Node3 -->
<g id="edge2" class="edge"><title>Node2&#45;&gt;Node3</title>
<path fill="none" stroke="midnightblue" d="M354.349,-64.5C362.759,-64.5 371.28,-64.5 379.676,-64.5"/>
<polygon fill="midnightblue" stroke="midnightblue" points="354.162,-61.0001 344.162,-64.5 354.162,-68.0001 354.162,-61.0001"/>
</g>
</g>
</svg>
