<?xml version="1.0" encoding="UTF-8" standalone="no"?>
<!DOCTYPE svg PUBLIC "-//W3C//DTD SVG 1.1//EN"
 "http://www.w3.org/Graphics/SVG/1.1/DTD/svg11.dtd">
<!-- Generated by graphviz version 2.38.0 (20140413.2041)
 -->
<!-- Title: SuiteCRMAddIn.BusinessLogic.CRMPermissionsCache.HasAccess Pages: 1 -->
<svg width="618pt" height="137pt"
 viewBox="0.00 0.00 618.00 137.00" xmlns="http://www.w3.org/2000/svg" xmlns:xlink="http://www.w3.org/1999/xlink">
<g id="graph0" class="graph" transform="scale(1 1) rotate(0) translate(4 133)">
<title>SuiteCRMAddIn.BusinessLogic.CRMPermissionsCache.HasAccess</title>
<polygon fill="white" stroke="none" points="-4,4 -4,-133 614,-133 614,4 -4,4"/>
<!-- Node1 -->
<g id="node1" class="node"><title>Node1</title>
<polygon fill="#bfbfbf" stroke="black" points="0,-49.5 0,-79.5 176,-79.5 176,-49.5 0,-49.5"/>
<text text-anchor="start" x="8" y="-67.5" font-family="Helvetica,sans-Serif" font-size="10.00">SuiteCRMAddIn.BusinessLogic.</text>
<text text-anchor="middle" x="88" y="-56.5" font-family="Helvetica,sans-Serif" font-size="10.00">CRMPermissionsCache.HasAccess</text>
</g>
<!-- Node2 -->
<g id="node2" class="node"><title>Node2</title>
<g id="a_node2"><a xlink:href="class_suite_c_r_m_client_1_1cls_suite_c_r_m_helper.html#afd19c20b8c3d82655e35d46d7829197f" target="_top" xlink:title="Get the list of modules installed in the connected CRM instance, with their associated access control...">
<polygon fill="white" stroke="black" points="212,-98.5 212,-128.5 393,-128.5 393,-98.5 212,-98.5"/>
<text text-anchor="start" x="220" y="-116.5" font-family="Helvetica,sans-Serif" font-size="10.00">SuiteCRMClient.clsSuiteCRMHelper.</text>
<text text-anchor="middle" x="302.5" y="-105.5" font-family="Helvetica,sans-Serif" font-size="10.00">GetModules</text>
</a>
</g>
</g>
<!-- Node1&#45;&gt;Node2 -->
<g id="edge1" class="edge"><title>Node1&#45;&gt;Node2</title>
<path fill="none" stroke="midnightblue" d="M154.201,-79.5346C177.046,-84.8024 202.883,-90.7601 226.468,-96.1984"/>
<polygon fill="midnightblue" stroke="midnightblue" points="225.891,-99.6573 236.422,-98.4938 227.464,-92.8363 225.891,-99.6573"/>
</g>
<!-- Node4 -->
<g id="node4" class="node"><title>Node4</title>
<g id="a_node4"><a xlink:href="class_suite_c_r_m_add_in_1_1_business_logic_1_1_sync_direction.html#ad456cb19bab5eb78bc35f7b305274d01" target="_top" xlink:title="Does this direction allow outbound transfers from Outlook? ">
<polygon fill="white" stroke="black" points="223.5,-49.5 223.5,-79.5 381.5,-79.5 381.5,-49.5 223.5,-49.5"/>
<text text-anchor="start" x="231.5" y="-67.5" font-family="Helvetica,sans-Serif" font-size="10.00">SuiteCRMAddIn.BusinessLogic.</text>
<text text-anchor="middle" x="302.5" y="-56.5" font-family="Helvetica,sans-Serif" font-size="10.00">SyncDirection.AllowOutbound</text>
</a>
</g>
</g>
<!-- Node1&#45;&gt;Node4 -->
<g id="edge3" class="edge"><title>Node1&#45;&gt;Node4</title>
<path fill="none" stroke="midnightblue" d="M176.045,-64.5C188.313,-64.5 200.934,-64.5 213.225,-64.5"/>
<polygon fill="midnightblue" stroke="midnightblue" points="213.456,-68.0001 223.456,-64.5 213.456,-61.0001 213.456,-68.0001"/>
</g>
<!-- Node5 -->
<g id="node5" class="node"><title>Node5</title>
<g id="a_node5"><a xlink:href="class_suite_c_r_m_add_in_1_1_business_logic_1_1_sync_direction.html#a96a16ea01111b3c05734e87d75eeef96" target="_top" xlink:title="Does this direction allow inbound transfers to Outlook? ">
<polygon fill="white" stroke="black" points="223.5,-0.5 223.5,-30.5 381.5,-30.5 381.5,-0.5 223.5,-0.5"/>
<text text-anchor="start" x="231.5" y="-18.5" font-family="Helvetica,sans-Serif" font-size="10.00">SuiteCRMAddIn.BusinessLogic.</text>
<text text-anchor="middle" x="302.5" y="-7.5" font-family="Helvetica,sans-Serif" font-size="10.00">SyncDirection.AllowInbound</text>
</a>
</g>
</g>
<!-- Node1&#45;&gt;Node5 -->
<g id="edge4" class="edge"><title>Node1&#45;&gt;Node5</title>
<path fill="none" stroke="midnightblue" d="M154.201,-49.4654C177.046,-44.1976 202.883,-38.2399 226.468,-32.8016"/>
<polygon fill="midnightblue" stroke="midnightblue" points="227.464,-36.1637 236.422,-30.5062 225.891,-29.3427 227.464,-36.1637"/>
</g>
<!-- Node3 -->
<g id="node3" class="node"><title>Node3</title>
<g id="a_node3"><a xlink:href="class_suite_c_r_m_client_1_1cls_suite_c_r_m_helper.html#a80f04ec3ab185a736b6633c0df69c536" target="_top" xlink:title="SuiteCRMClient.clsSuiteCRMHelper.\lEnsureLoggedIn">
<polygon fill="white" stroke="black" points="429,-98.5 429,-128.5 610,-128.5 610,-98.5 429,-98.5"/>
<text text-anchor="start" x="437" y="-116.5" font-family="Helvetica,sans-Serif" font-size="10.00">SuiteCRMClient.clsSuiteCRMHelper.</text>
<text text-anchor="middle" x="519.5" y="-105.5" font-family="Helvetica,sans-Serif" font-size="10.00">EnsureLoggedIn</text>
</a>
</g>
</g>
<!-- Node2&#45;&gt;Node3 -->
<g id="edge2" class="edge"><title>Node2&#45;&gt;Node3</title>
<path fill="none" stroke="midnightblue" d="M393.123,-113.5C401.478,-113.5 409.982,-113.5 418.424,-113.5"/>
<polygon fill="midnightblue" stroke="midnightblue" points="418.677,-117 428.677,-113.5 418.677,-110 418.677,-117"/>
</g>
</g>
</svg>
