<?xml version="1.0" encoding="UTF-8" standalone="no"?>
<!DOCTYPE svg PUBLIC "-//W3C//DTD SVG 1.1//EN"
 "http://www.w3.org/Graphics/SVG/1.1/DTD/svg11.dtd">
<!-- Generated by graphviz version 2.38.0 (20140413.2041)
 -->
<!-- Title: SuiteCRMAddIn.BusinessLogic.Synchroniser.GetExistingSyncState Pages: 1 -->
<svg width="391pt" height="230pt"
 viewBox="0.00 0.00 391.00 230.00" xmlns="http://www.w3.org/2000/svg" xmlns:xlink="http://www.w3.org/1999/xlink">
<g id="graph0" class="graph" transform="scale(1 1) rotate(0) translate(4 226)">
<title>SuiteCRMAddIn.BusinessLogic.Synchroniser.GetExistingSyncState</title>
<polygon fill="white" stroke="none" points="-4,4 -4,-226 387,-226 387,4 -4,4"/>
<!-- Node1 -->
<g id="node1" class="node"><title>Node1</title>
<polygon fill="#bfbfbf" stroke="black" points="0,-96 0,-126 173,-126 173,-96 0,-96"/>
<text text-anchor="start" x="8" y="-114" font-family="Helvetica,sans-Serif" font-size="10.00">SuiteCRMAddIn.BusinessLogic.</text>
<text text-anchor="middle" x="86.5" y="-103" font-family="Helvetica,sans-Serif" font-size="10.00">Synchroniser.GetExistingSyncState</text>
</g>
<!-- Node2 -->
<g id="node2" class="node"><title>Node2</title>
<g id="a_node2"><a xlink:href="class_suite_c_r_m_add_in_1_1_business_logic_1_1_synchroniser.html#ab8a2a620b9cbc2b45e2519c148e9e52e" target="_top" xlink:title="Find the SyncState whose item is this item; if it does not already exist, construct and return it...">
<polygon fill="white" stroke="black" points="209,-180.5 209,-221.5 383,-221.5 383,-180.5 209,-180.5"/>
<text text-anchor="start" x="217" y="-209.5" font-family="Helvetica,sans-Serif" font-size="10.00">SuiteCRMAddIn.BusinessLogic.</text>
<text text-anchor="start" x="217" y="-198.5" font-family="Helvetica,sans-Serif" font-size="10.00">Synchroniser&lt; Outlook.Appointment</text>
<text text-anchor="middle" x="296" y="-187.5" font-family="Helvetica,sans-Serif" font-size="10.00">Item &gt;::AddOrGetSyncState</text>
</a>
</g>
</g>
<!-- Node1&#45;&gt;Node2 -->
<g id="edge1" class="edge"><title>Node1&#45;&gt;Node2</title>
<path fill="none" stroke="midnightblue" d="M124.546,-130.777C148.334,-143.103 180.08,-158.869 209,-171 216.728,-174.242 224.943,-177.427 233.111,-180.44"/>
<polygon fill="midnightblue" stroke="midnightblue" points="126.004,-127.59 115.52,-126.066 122.766,-133.795 126.004,-127.59"/>
</g>
<!-- Node3 -->
<g id="node3" class="node"><title>Node3</title>
<g id="a_node3"><a xlink:href="class_suite_c_r_m_add_in_1_1_business_logic_1_1_synchroniser.html#a7ac6cd84d0926cbe0ac99c1325cbfdd5" target="_top" xlink:title="Get the existing sync state representing this item, if it exists, else null. ">
<polygon fill="white" stroke="black" points="209,-120.5 209,-161.5 383,-161.5 383,-120.5 209,-120.5"/>
<text text-anchor="start" x="217" y="-149.5" font-family="Helvetica,sans-Serif" font-size="10.00">SuiteCRMAddIn.BusinessLogic.</text>
<text text-anchor="start" x="217" y="-138.5" font-family="Helvetica,sans-Serif" font-size="10.00">Synchroniser&lt; Outlook.Appointment</text>
<text text-anchor="middle" x="296" y="-127.5" font-family="Helvetica,sans-Serif" font-size="10.00">Item &gt;::GetExistingSyncState</text>
</a>
</g>
</g>
<!-- Node1&#45;&gt;Node3 -->
<g id="edge2" class="edge"><title>Node1&#45;&gt;Node3</title>
<path fill="none" stroke="midnightblue" d="M183.144,-124.828C191.744,-126.071 200.419,-127.326 208.931,-128.556"/>
<polygon fill="midnightblue" stroke="midnightblue" points="183.494,-121.342 173.096,-123.375 182.492,-128.27 183.494,-121.342"/>
</g>
<!-- Node4 -->
<g id="node4" class="node"><title>Node4</title>
<g id="a_node4"><a xlink:href="class_suite_c_r_m_add_in_1_1_business_logic_1_1_synchroniser.html#a3c7972ebc9fde19403be4cb526b58898" target="_top" xlink:title="Entry point from event handler when an item is added in Outlook. ">
<polygon fill="white" stroke="black" points="209,-60.5 209,-101.5 383,-101.5 383,-60.5 209,-60.5"/>
<text text-anchor="start" x="217" y="-89.5" font-family="Helvetica,sans-Serif" font-size="10.00">SuiteCRMAddIn.BusinessLogic.</text>
<text text-anchor="start" x="217" y="-78.5" font-family="Helvetica,sans-Serif" font-size="10.00">Synchroniser&lt; Outlook.Appointment</text>
<text text-anchor="middle" x="296" y="-67.5" font-family="Helvetica,sans-Serif" font-size="10.00">Item &gt;::OutlookItemAdded</text>
</a>
</g>
</g>
<!-- Node1&#45;&gt;Node4 -->
<g id="edge3" class="edge"><title>Node1&#45;&gt;Node4</title>
<path fill="none" stroke="midnightblue" d="M183.144,-97.172C191.744,-95.9286 200.419,-94.6744 208.931,-93.4438"/>
<polygon fill="midnightblue" stroke="midnightblue" points="182.492,-93.7297 173.096,-98.6246 183.494,-100.658 182.492,-93.7297"/>
</g>
<!-- Node5 -->
<g id="node5" class="node"><title>Node5</title>
<g id="a_node5"><a xlink:href="class_suite_c_r_m_add_in_1_1_business_logic_1_1_synchroniser.html#a39a299e28dff602fec9c2291328e27d4" target="_top" xlink:title="Entry point from event handler, called when an Outlook item of class AppointmentItem is believed to h...">
<polygon fill="white" stroke="black" points="209,-0.5 209,-41.5 383,-41.5 383,-0.5 209,-0.5"/>
<text text-anchor="start" x="217" y="-29.5" font-family="Helvetica,sans-Serif" font-size="10.00">SuiteCRMAddIn.BusinessLogic.</text>
<text text-anchor="start" x="217" y="-18.5" font-family="Helvetica,sans-Serif" font-size="10.00">Synchroniser&lt; Outlook.Appointment</text>
<text text-anchor="middle" x="296" y="-7.5" font-family="Helvetica,sans-Serif" font-size="10.00">Item &gt;::OutlookItemChanged</text>
</a>
</g>
</g>
<!-- Node1&#45;&gt;Node5 -->
<g id="edge4" class="edge"><title>Node1&#45;&gt;Node5</title>
<path fill="none" stroke="midnightblue" d="M124.546,-91.2233C148.334,-78.8969 180.08,-63.1306 209,-51 216.728,-47.7582 224.943,-44.5729 233.111,-41.5596"/>
<polygon fill="midnightblue" stroke="midnightblue" points="122.766,-88.2045 115.52,-95.9337 126.004,-94.4105 122.766,-88.2045"/>
</g>
</g>
</svg>
