<?xml version="1.0" encoding="UTF-8" standalone="no"?>
<!DOCTYPE svg PUBLIC "-//W3C//DTD SVG 1.1//EN"
 "http://www.w3.org/Graphics/SVG/1.1/DTD/svg11.dtd">
<!-- Generated by graphviz version 2.38.0 (20140413.2041)
 -->
<!-- Title: SuiteCRMAddIn.Dialogs.EmailAccountArchiveSettingsControl Pages: 1 -->
<svg width="257pt" height="163pt"
 viewBox="0.00 0.00 256.50 163.00" xmlns="http://www.w3.org/2000/svg" xmlns:xlink="http://www.w3.org/1999/xlink">
<g id="graph0" class="graph" transform="scale(1 1) rotate(0) translate(4 159)">
<title>SuiteCRMAddIn.Dialogs.EmailAccountArchiveSettingsControl</title>
<polygon fill="white" stroke="none" points="-4,4 -4,-159 252.5,-159 252.5,4 -4,4"/>
<!-- Node1 -->
<g id="node1" class="node"><title>Node1</title>
<polygon fill="#bfbfbf" stroke="black" points="0,-0.5 0,-30.5 153,-30.5 153,-0.5 0,-0.5"/>
<text text-anchor="start" x="8" y="-18.5" font-family="Helvetica,sans-Serif" font-size="10.00">SuiteCRMAddIn.Dialogs.Email</text>
<text text-anchor="middle" x="76.5" y="-7.5" font-family="Helvetica,sans-Serif" font-size="10.00">AccountArchiveSettingsControl</text>
</g>
<!-- Node2 -->
<g id="node2" class="node"><title>Node2</title>
<polygon fill="white" stroke="#bfbfbf" points="1,-78.5 1,-97.5 70,-97.5 70,-78.5 1,-78.5"/>
<text text-anchor="middle" x="35.5" y="-85.5" font-family="Helvetica,sans-Serif" font-size="10.00">UserControl</text>
</g>
<!-- Node2&#45;&gt;Node1 -->
<g id="edge1" class="edge"><title>Node2&#45;&gt;Node1</title>
<path fill="none" stroke="midnightblue" d="M45.5711,-69.6827C52.5663,-57.6542 61.7699,-41.8286 68.3139,-30.5762"/>
<polygon fill="midnightblue" stroke="midnightblue" points="42.5292,-67.9513 40.5274,-78.3553 48.5803,-71.4704 42.5292,-67.9513"/>
</g>
<!-- Node3 -->
<g id="node3" class="node"><title>Node3</title>
<g id="a_node3"><a xlink:href="interface_suite_c_r_m_client_1_1_logging_1_1_i_logger.html" target="_top" xlink:title="Interface implemented by all logging classes ">
<polygon fill="white" stroke="black" points="88.5,-78.5 88.5,-97.5 248.5,-97.5 248.5,-78.5 88.5,-78.5"/>
<text text-anchor="middle" x="168.5" y="-85.5" font-family="Helvetica,sans-Serif" font-size="10.00">SuiteCRMClient.Logging.ILogger</text>
</a>
</g>
</g>
<!-- Node3&#45;&gt;Node1 -->
<g id="edge2" class="edge"><title>Node3&#45;&gt;Node1</title>
<path fill="none" stroke="#9a32cd" stroke-dasharray="5,2" d="M149.09,-72.1262C133.096,-59.8698 110.571,-42.6084 94.8689,-30.5762"/>
<polygon fill="#9a32cd" stroke="#9a32cd" points="147.153,-75.0509 157.219,-78.3553 151.41,-69.4947 147.153,-75.0509"/>
<text text-anchor="middle" x="140" y="-52" font-family="Helvetica,sans-Serif" font-size="10.00"> Log</text>
</g>
<!-- Node4 -->
<g id="node4" class="node"><title>Node4</title>
<polygon fill="white" stroke="#bfbfbf" points="134.5,-135.5 134.5,-154.5 202.5,-154.5 202.5,-135.5 134.5,-135.5"/>
<text text-anchor="middle" x="168.5" y="-142.5" font-family="Helvetica,sans-Serif" font-size="10.00">IDisposable</text>
</g>
<!-- Node4&#45;&gt;Node3 -->
<g id="edge3" class="edge"><title>Node4&#45;&gt;Node3</title>
<path fill="none" stroke="midnightblue" d="M168.5,-125.117C168.5,-115.817 168.5,-105.056 168.5,-97.7149"/>
<polygon fill="midnightblue" stroke="midnightblue" points="165,-125.406 168.5,-135.406 172,-125.406 165,-125.406"/>
</g>
</g>
</svg>
