<?xml version="1.0" encoding="UTF-8" standalone="no"?>
<!DOCTYPE svg PUBLIC "-//W3C//DTD SVG 1.1//EN"
 "http://www.w3.org/Graphics/SVG/1.1/DTD/svg11.dtd">
<!-- Generated by graphviz version 2.38.0 (20140413.2041)
 -->
<!-- Title: SuiteCRMAddIn.BusinessLogic.AppointmentSyncing.EnsureSynchronisationPropertyForOutlookItem Pages: 1 -->
<svg width="681pt" height="296pt"
 viewBox="0.00 0.00 681.00 295.50" xmlns="http://www.w3.org/2000/svg" xmlns:xlink="http://www.w3.org/1999/xlink">
<g id="graph0" class="graph" transform="scale(1 1) rotate(0) translate(4 291.5)">
<title>SuiteCRMAddIn.BusinessLogic.AppointmentSyncing.EnsureSynchronisationPropertyForOutlookItem</title>
<polygon fill="white" stroke="none" points="-4,4 -4,-291.5 677,-291.5 677,4 -4,4"/>
<!-- Node1 -->
<g id="node1" class="node"><title>Node1</title>
<polygon fill="#bfbfbf" stroke="black" points="0,-114.5 0,-155.5 210,-155.5 210,-114.5 0,-114.5"/>
<text text-anchor="start" x="8" y="-143.5" font-family="Helvetica,sans-Serif" font-size="10.00">SuiteCRMAddIn.BusinessLogic.</text>
<text text-anchor="start" x="8" y="-132.5" font-family="Helvetica,sans-Serif" font-size="10.00">AppointmentSyncing.EnsureSynchronisation</text>
<text text-anchor="middle" x="105" y="-121.5" font-family="Helvetica,sans-Serif" font-size="10.00">PropertyForOutlookItem</text>
</g>
<!-- Node2 -->
<g id="node2" class="node"><title>Node2</title>
<g id="a_node2"><a xlink:href="class_suite_c_r_m_add_in_1_1_business_logic_1_1_appointment_syncing.html#a7a750ce308027fee659e8c543cb99b42" target="_top" xlink:title="SuiteCRMAddIn.BusinessLogic.\lAppointmentSyncing.SaveItem">
<polygon fill="white" stroke="black" points="272,-257 272,-287 430,-287 430,-257 272,-257"/>
<text text-anchor="start" x="280" y="-275" font-family="Helvetica,sans-Serif" font-size="10.00">SuiteCRMAddIn.BusinessLogic.</text>
<text text-anchor="middle" x="351" y="-264" font-family="Helvetica,sans-Serif" font-size="10.00">AppointmentSyncing.SaveItem</text>
</a>
</g>
</g>
<!-- Node1&#45;&gt;Node2 -->
<g id="edge1" class="edge"><title>Node1&#45;&gt;Node2</title>
<path fill="none" stroke="midnightblue" d="M127.52,-155.614C153.606,-179.558 199.829,-218.738 246,-242 254.874,-246.471 264.518,-250.375 274.237,-253.755"/>
<polygon fill="midnightblue" stroke="midnightblue" points="273.361,-257.151 283.954,-256.962 275.555,-250.504 273.361,-257.151"/>
</g>
<!-- Node3 -->
<g id="node3" class="node"><title>Node3</title>
<g id="a_node3"><a xlink:href="class_suite_c_r_m_add_in_1_1_business_logic_1_1_appointment_syncing.html#a505217ef3946d0f9996301472cabc026" target="_top" xlink:title="Log a message regarding this Outlook appointment. ">
<polygon fill="white" stroke="black" points="496,-235 496,-265 669,-265 669,-235 496,-235"/>
<text text-anchor="start" x="504" y="-253" font-family="Helvetica,sans-Serif" font-size="10.00">SuiteCRMAddIn.BusinessLogic.</text>
<text text-anchor="middle" x="582.5" y="-242" font-family="Helvetica,sans-Serif" font-size="10.00">AppointmentSyncing.LogItemAction</text>
</a>
</g>
</g>
<!-- Node1&#45;&gt;Node3 -->
<g id="edge3" class="edge"><title>Node1&#45;&gt;Node3</title>
<path fill="none" stroke="midnightblue" d="M136.802,-155.524C164.248,-172.751 206.127,-196.494 246,-209 324.42,-233.596 417.457,-243.551 485.642,-247.523"/>
<polygon fill="midnightblue" stroke="midnightblue" points="485.764,-251.035 495.941,-248.089 486.148,-244.046 485.764,-251.035"/>
</g>
<!-- Node4 -->
<g id="node4" class="node"><title>Node4</title>
<g id="a_node4"><a xlink:href="class_suite_c_r_m_client_1_1cls_suite_c_r_m_helper.html#a050637c0cbd1012cf9cf58c5cb3d179c" target="_top" xlink:title="Return the CRM id of the current user. ">
<polygon fill="white" stroke="black" points="260.5,-169 260.5,-199 441.5,-199 441.5,-169 260.5,-169"/>
<text text-anchor="start" x="268.5" y="-187" font-family="Helvetica,sans-Serif" font-size="10.00">SuiteCRMClient.clsSuiteCRMHelper.</text>
<text text-anchor="middle" x="351" y="-176" font-family="Helvetica,sans-Serif" font-size="10.00">GetUserId</text>
</a>
</g>
</g>
<!-- Node1&#45;&gt;Node4 -->
<g id="edge4" class="edge"><title>Node1&#45;&gt;Node4</title>
<path fill="none" stroke="midnightblue" d="M208.417,-155.567C227.344,-159.368 246.916,-163.299 265.248,-166.98"/>
<polygon fill="midnightblue" stroke="midnightblue" points="264.799,-170.46 275.292,-168.997 266.177,-163.597 264.799,-170.46"/>
</g>
<!-- Node5 -->
<g id="node5" class="node"><title>Node5</title>
<g id="a_node5"><a xlink:href="class_suite_c_r_m_client_1_1cls_suite_c_r_m_helper.html#a3ce19594e2c04282ab6e9737c3a9b84f" target="_top" xlink:title="SuiteCRMClient.clsSuiteCRMHelper.get\lRelationship">
<polygon fill="white" stroke="black" points="254,-120 254,-150 448,-150 448,-120 254,-120"/>
<text text-anchor="start" x="262" y="-138" font-family="Helvetica,sans-Serif" font-size="10.00">SuiteCRMClient.clsSuiteCRMHelper.get</text>
<text text-anchor="middle" x="351" y="-127" font-family="Helvetica,sans-Serif" font-size="10.00">Relationship</text>
</a>
</g>
</g>
<!-- Node1&#45;&gt;Node5 -->
<g id="edge5" class="edge"><title>Node1&#45;&gt;Node5</title>
<path fill="none" stroke="midnightblue" d="M210.186,-135C221.293,-135 232.601,-135 243.732,-135"/>
<polygon fill="midnightblue" stroke="midnightblue" points="243.893,-138.5 253.893,-135 243.893,-131.5 243.893,-138.5"/>
</g>
<!-- Node7 -->
<g id="node7" class="node"><title>Node7</title>
<g id="a_node7"><a xlink:href="class_suite_c_r_m_add_in_1_1_business_logic_1_1_appointment_syncing.html#a8a922e6ddd966e890c8203d4c91912d1" target="_top" xlink:title="Specialisation: in addition to the standard properties, meetings also require an organiser property...">
<polygon fill="white" stroke="black" points="246,-60.5 246,-101.5 456,-101.5 456,-60.5 246,-60.5"/>
<text text-anchor="start" x="254" y="-89.5" font-family="Helvetica,sans-Serif" font-size="10.00">SuiteCRMAddIn.BusinessLogic.</text>
<text text-anchor="start" x="254" y="-78.5" font-family="Helvetica,sans-Serif" font-size="10.00">AppointmentSyncing.EnsureSynchronisation</text>
<text text-anchor="middle" x="351" y="-67.5" font-family="Helvetica,sans-Serif" font-size="10.00">PropertiesForOutlookItem</text>
</a>
</g>
</g>
<!-- Node1&#45;&gt;Node7 -->
<g id="edge7" class="edge"><title>Node1&#45;&gt;Node7</title>
<path fill="none" stroke="midnightblue" d="M171.388,-114.472C191.308,-109.538 213.816,-104.33 235.972,-99.4985"/>
<polygon fill="midnightblue" stroke="midnightblue" points="236.74,-102.913 245.776,-97.3802 235.262,-96.0713 236.74,-102.913"/>
</g>
<!-- Node8 -->
<g id="node8" class="node"><title>Node8</title>
<g id="a_node8"><a xlink:href="class_suite_c_r_m_add_in_1_1_business_logic_1_1_synchroniser.html#a9a2c3473c4dc60793fed0588c66f8666" target="_top" xlink:title="Parse a date time object from a user property, assuming the ISO 8601 date&#45;time format but ommitting t...">
<polygon fill="white" stroke="black" points="251,-0.5 251,-41.5 451,-41.5 451,-0.5 251,-0.5"/>
<text text-anchor="start" x="259" y="-29.5" font-family="Helvetica,sans-Serif" font-size="10.00">SuiteCRMAddIn.BusinessLogic.</text>
<text text-anchor="start" x="259" y="-18.5" font-family="Helvetica,sans-Serif" font-size="10.00">Synchroniser&lt; Outlook.Appointment</text>
<text text-anchor="middle" x="351" y="-7.5" font-family="Helvetica,sans-Serif" font-size="10.00">Item &gt;::ParseDateTimeFromUserProperty</text>
</a>
</g>
</g>
<!-- Node1&#45;&gt;Node8 -->
<g id="edge9" class="edge"><title>Node1&#45;&gt;Node8</title>
<path fill="none" stroke="midnightblue" d="M135.104,-114.462C162.615,-95.8073 205.588,-68.5946 246,-51 250.777,-48.9201 255.74,-46.9389 260.791,-45.0593"/>
<polygon fill="midnightblue" stroke="midnightblue" points="262.343,-48.2221 270.589,-41.5707 259.995,-41.6276 262.343,-48.2221"/>
</g>
<!-- Node2&#45;&gt;Node3 -->
<g id="edge2" class="edge"><title>Node2&#45;&gt;Node3</title>
<path fill="none" stroke="midnightblue" d="M430.018,-264.521C447.89,-262.808 467.091,-260.967 485.617,-259.191"/>
<polygon fill="midnightblue" stroke="midnightblue" points="486.206,-262.651 495.827,-258.213 485.538,-255.683 486.206,-262.651"/>
</g>
<!-- Node6 -->
<g id="node6" class="node"><title>Node6</title>
<g id="a_node6"><a xlink:href="class_suite_c_r_m_client_1_1cls_suite_c_r_m_helper.html#a80f04ec3ab185a736b6633c0df69c536" target="_top" xlink:title="SuiteCRMClient.clsSuiteCRMHelper.\lEnsureLoggedIn">
<polygon fill="white" stroke="black" points="492,-120 492,-150 673,-150 673,-120 492,-120"/>
<text text-anchor="start" x="500" y="-138" font-family="Helvetica,sans-Serif" font-size="10.00">SuiteCRMClient.clsSuiteCRMHelper.</text>
<text text-anchor="middle" x="582.5" y="-127" font-family="Helvetica,sans-Serif" font-size="10.00">EnsureLoggedIn</text>
</a>
</g>
</g>
<!-- Node5&#45;&gt;Node6 -->
<g id="edge6" class="edge"><title>Node5&#45;&gt;Node6</title>
<path fill="none" stroke="midnightblue" d="M448.331,-135C459.319,-135 470.539,-135 481.573,-135"/>
<polygon fill="midnightblue" stroke="midnightblue" points="481.641,-138.5 491.641,-135 481.641,-131.5 481.641,-138.5"/>
</g>
<!-- Node7&#45;&gt;Node1 -->
<g id="edge8" class="edge"><title>Node7&#45;&gt;Node1</title>
<path fill="none" stroke="midnightblue" d="M284.626,-101.525C264.693,-106.462 242.167,-111.673 219.996,-116.508"/>
<polygon fill="midnightblue" stroke="midnightblue" points="219.221,-113.095 210.186,-118.628 220.699,-119.937 219.221,-113.095"/>
</g>
</g>
</svg>
