<?xml version="1.0" encoding="UTF-8" standalone="no"?>
<!DOCTYPE svg PUBLIC "-//W3C//DTD SVG 1.1//EN"
 "http://www.w3.org/Graphics/SVG/1.1/DTD/svg11.dtd">
<!-- Generated by graphviz version 2.38.0 (20140413.2041)
 -->
<!-- Title: SuiteCRMAddIn.BusinessLogic.AppointmentSyncing.ConstructAndDespatchCrmItem Pages: 1 -->
<svg width="829pt" height="219pt"
 viewBox="0.00 0.00 829.00 218.50" xmlns="http://www.w3.org/2000/svg" xmlns:xlink="http://www.w3.org/1999/xlink">
<g id="graph0" class="graph" transform="scale(1 1) rotate(0) translate(4 214.5)">
<title>SuiteCRMAddIn.BusinessLogic.AppointmentSyncing.ConstructAndDespatchCrmItem</title>
<polygon fill="white" stroke="none" points="-4,4 -4,-214.5 825,-214.5 825,4 -4,4"/>
<!-- Node1 -->
<g id="node1" class="node"><title>Node1</title>
<polygon fill="#bfbfbf" stroke="black" points="0,-90.5 0,-131.5 170,-131.5 170,-90.5 0,-90.5"/>
<text text-anchor="start" x="8" y="-119.5" font-family="Helvetica,sans-Serif" font-size="10.00">SuiteCRMAddIn.BusinessLogic.</text>
<text text-anchor="start" x="8" y="-108.5" font-family="Helvetica,sans-Serif" font-size="10.00">AppointmentSyncing.ConstructAnd</text>
<text text-anchor="middle" x="85" y="-97.5" font-family="Helvetica,sans-Serif" font-size="10.00">DespatchCrmItem</text>
</g>
<!-- Node2 -->
<g id="node2" class="node"><title>Node2</title>
<g id="a_node2"><a xlink:href="class_suite_c_r_m_client_1_1cls_suite_c_r_m_helper.html#a7bbecd35543154e9785fcfd7788f54e8" target="_top" xlink:title="Sets an entry in CRM and returns the id. &#39;Unsafe&#39; because if it fails (for whatever reason)...">
<polygon fill="white" stroke="black" points="206,-180 206,-210 387,-210 387,-180 206,-180"/>
<text text-anchor="start" x="214" y="-198" font-family="Helvetica,sans-Serif" font-size="10.00">SuiteCRMClient.clsSuiteCRMHelper.</text>
<text text-anchor="middle" x="296.5" y="-187" font-family="Helvetica,sans-Serif" font-size="10.00">SetEntryUnsafe</text>
</a>
</g>
</g>
<!-- Node1&#45;&gt;Node2 -->
<g id="edge1" class="edge"><title>Node1&#45;&gt;Node2</title>
<path fill="none" stroke="midnightblue" d="M122.428,-131.629C145.78,-144.24 177.038,-160.005 206,-171 211.492,-173.085 217.238,-175.063 223.054,-176.923"/>
<polygon fill="midnightblue" stroke="midnightblue" points="222.289,-180.349 232.876,-179.939 224.344,-173.658 222.289,-180.349"/>
</g>
<!-- Node5 -->
<g id="node5" class="node"><title>Node5</title>
<g id="a_node5"><a xlink:href="class_suite_c_r_m_add_in_1_1_business_logic_1_1_synchroniser.html#a22031f77a31ab4d27818815ebc85786d" target="_top" xlink:title="Get the existing sync state representing this item, if it exists, else null. ">
<polygon fill="white" stroke="black" points="209.5,-120.5 209.5,-161.5 383.5,-161.5 383.5,-120.5 209.5,-120.5"/>
<text text-anchor="start" x="217.5" y="-149.5" font-family="Helvetica,sans-Serif" font-size="10.00">SuiteCRMAddIn.BusinessLogic.</text>
<text text-anchor="start" x="217.5" y="-138.5" font-family="Helvetica,sans-Serif" font-size="10.00">Synchroniser&lt; Outlook.Appointment</text>
<text text-anchor="middle" x="296.5" y="-127.5" font-family="Helvetica,sans-Serif" font-size="10.00">Item &gt;::GetExistingSyncState</text>
</a>
</g>
</g>
<!-- Node1&#45;&gt;Node5 -->
<g id="edge4" class="edge"><title>Node1&#45;&gt;Node5</title>
<path fill="none" stroke="midnightblue" d="M170.005,-123.029C179.636,-124.409 189.512,-125.823 199.287,-127.223"/>
<polygon fill="midnightblue" stroke="midnightblue" points="199.029,-130.721 209.424,-128.674 200.021,-123.792 199.029,-130.721"/>
</g>
<!-- Node6 -->
<g id="node6" class="node"><title>Node6</title>
<g id="a_node6"><a xlink:href="class_suite_c_r_m_add_in_1_1_business_logic_1_1_synchroniser.html#a3df7723090576b81797aa38a31eb67aa" target="_top" xlink:title="Remove the item implied by this sync state from CRM. ">
<polygon fill="white" stroke="black" points="209.5,-60.5 209.5,-101.5 383.5,-101.5 383.5,-60.5 209.5,-60.5"/>
<text text-anchor="start" x="217.5" y="-89.5" font-family="Helvetica,sans-Serif" font-size="10.00">SuiteCRMAddIn.BusinessLogic.</text>
<text text-anchor="start" x="217.5" y="-78.5" font-family="Helvetica,sans-Serif" font-size="10.00">Synchroniser&lt; Outlook.Appointment</text>
<text text-anchor="middle" x="296.5" y="-67.5" font-family="Helvetica,sans-Serif" font-size="10.00">Item &gt;::RemoveFromCrm</text>
</a>
</g>
</g>
<!-- Node1&#45;&gt;Node6 -->
<g id="edge5" class="edge"><title>Node1&#45;&gt;Node6</title>
<path fill="none" stroke="midnightblue" d="M170.005,-98.9707C179.636,-97.5915 189.512,-96.1773 199.287,-94.7775"/>
<polygon fill="midnightblue" stroke="midnightblue" points="200.021,-98.2082 209.424,-93.3259 199.029,-91.2789 200.021,-98.2082"/>
</g>
<!-- Node7 -->
<g id="node7" class="node"><title>Node7</title>
<g id="a_node7"><a xlink:href="class_suite_c_r_m_add_in_1_1_business_logic_1_1_synchroniser.html#a05ac2253c88bd7232ef6c3b5c0714f21" target="_top" xlink:title="Remove an item from ItemsSyncState. ">
<polygon fill="white" stroke="black" points="209.5,-0.5 209.5,-41.5 383.5,-41.5 383.5,-0.5 209.5,-0.5"/>
<text text-anchor="start" x="217.5" y="-29.5" font-family="Helvetica,sans-Serif" font-size="10.00">SuiteCRMAddIn.BusinessLogic.</text>
<text text-anchor="start" x="217.5" y="-18.5" font-family="Helvetica,sans-Serif" font-size="10.00">Synchroniser&lt; Outlook.Appointment</text>
<text text-anchor="middle" x="296.5" y="-7.5" font-family="Helvetica,sans-Serif" font-size="10.00">Item &gt;::RemoveItemSyncState</text>
</a>
</g>
</g>
<!-- Node1&#45;&gt;Node7 -->
<g id="edge6" class="edge"><title>Node1&#45;&gt;Node7</title>
<path fill="none" stroke="midnightblue" d="M123.735,-90.4233C147.057,-78.1376 177.819,-62.7004 206,-51 210.796,-49.0087 215.776,-47.0508 220.821,-45.1484"/>
<polygon fill="midnightblue" stroke="midnightblue" points="222.393,-48.2996 230.571,-41.5644 219.978,-41.7294 222.393,-48.2996"/>
</g>
<!-- Node3 -->
<g id="node3" class="node"><title>Node3</title>
<g id="a_node3"><a xlink:href="class_suite_c_r_m_client_1_1cls_suite_c_r_m_helper.html#a428cdd093678cff52df358c232c8350c" target="_top" xlink:title="SuiteCRMClient.clsSuiteCRMHelper.\lSetEntry">
<polygon fill="white" stroke="black" points="423,-180 423,-210 604,-210 604,-180 423,-180"/>
<text text-anchor="start" x="431" y="-198" font-family="Helvetica,sans-Serif" font-size="10.00">SuiteCRMClient.clsSuiteCRMHelper.</text>
<text text-anchor="middle" x="513.5" y="-187" font-family="Helvetica,sans-Serif" font-size="10.00">SetEntry</text>
</a>
</g>
</g>
<!-- Node2&#45;&gt;Node3 -->
<g id="edge2" class="edge"><title>Node2&#45;&gt;Node3</title>
<path fill="none" stroke="midnightblue" d="M387.123,-195C395.478,-195 403.982,-195 412.424,-195"/>
<polygon fill="midnightblue" stroke="midnightblue" points="412.677,-198.5 422.677,-195 412.677,-191.5 412.677,-198.5"/>
</g>
<!-- Node4 -->
<g id="node4" class="node"><title>Node4</title>
<g id="a_node4"><a xlink:href="class_suite_c_r_m_client_1_1cls_suite_c_r_m_helper.html#a80f04ec3ab185a736b6633c0df69c536" target="_top" xlink:title="SuiteCRMClient.clsSuiteCRMHelper.\lEnsureLoggedIn">
<polygon fill="white" stroke="black" points="640,-180 640,-210 821,-210 821,-180 640,-180"/>
<text text-anchor="start" x="648" y="-198" font-family="Helvetica,sans-Serif" font-size="10.00">SuiteCRMClient.clsSuiteCRMHelper.</text>
<text text-anchor="middle" x="730.5" y="-187" font-family="Helvetica,sans-Serif" font-size="10.00">EnsureLoggedIn</text>
</a>
</g>
</g>
<!-- Node3&#45;&gt;Node4 -->
<g id="edge3" class="edge"><title>Node3&#45;&gt;Node4</title>
<path fill="none" stroke="midnightblue" d="M604.123,-195C612.478,-195 620.982,-195 629.424,-195"/>
<polygon fill="midnightblue" stroke="midnightblue" points="629.677,-198.5 639.677,-195 629.677,-191.5 629.677,-198.5"/>
</g>
</g>
</svg>
