<?xml version="1.0" encoding="UTF-8" standalone="no"?>
<!DOCTYPE svg PUBLIC "-//W3C//DTD SVG 1.1//EN"
 "http://www.w3.org/Graphics/SVG/1.1/DTD/svg11.dtd">
<!-- Generated by graphviz version 2.38.0 (20140413.2041)
 -->
<!-- Title: SuiteCRMAddIn.SuiteCRMRibbon.btnArchive_Action Pages: 1 -->
<svg width="1009pt" height="295pt"
 viewBox="0.00 0.00 1009.00 294.50" xmlns="http://www.w3.org/2000/svg" xmlns:xlink="http://www.w3.org/1999/xlink">
<g id="graph0" class="graph" transform="scale(1 1) rotate(0) translate(4 290.5)">
<title>SuiteCRMAddIn.SuiteCRMRibbon.btnArchive_Action</title>
<polygon fill="white" stroke="none" points="-4,4 -4,-290.5 1005,-290.5 1005,4 -4,4"/>
<!-- Node1 -->
<g id="node1" class="node"><title>Node1</title>
<polygon fill="#bfbfbf" stroke="black" points="0,-133 0,-163 184,-163 184,-133 0,-133"/>
<text text-anchor="start" x="8" y="-151" font-family="Helvetica,sans-Serif" font-size="10.00">SuiteCRMAddIn.SuiteCRMRibbon.btn</text>
<text text-anchor="middle" x="92" y="-140" font-family="Helvetica,sans-Serif" font-size="10.00">Archive_Action</text>
</g>
<!-- Node2 -->
<g id="node2" class="node"><title>Node2</title>
<g id="a_node2"><a xlink:href="class_suite_c_r_m_add_in_1_1_this_add_in.html#a3d3136423943e3e4f71d3ea2b1062147" target="_top" xlink:title="SuiteCRMAddIn.ThisAddIn.\lManualArchive">
<polygon fill="white" stroke="black" points="220,-133 220,-163 358,-163 358,-133 220,-133"/>
<text text-anchor="start" x="228" y="-151" font-family="Helvetica,sans-Serif" font-size="10.00">SuiteCRMAddIn.ThisAddIn.</text>
<text text-anchor="middle" x="289" y="-140" font-family="Helvetica,sans-Serif" font-size="10.00">ManualArchive</text>
</a>
</g>
</g>
<!-- Node1&#45;&gt;Node2 -->
<g id="edge1" class="edge"><title>Node1&#45;&gt;Node2</title>
<path fill="none" stroke="midnightblue" d="M184.22,-148C192.747,-148 201.338,-148 209.731,-148"/>
<polygon fill="midnightblue" stroke="midnightblue" points="209.853,-151.5 219.853,-148 209.853,-144.5 209.853,-151.5"/>
</g>
<!-- Node3 -->
<g id="node3" class="node"><title>Node3</title>
<g id="a_node3"><a xlink:href="class_suite_c_r_m_add_in_1_1_this_add_in.html#a8052836bf64ac24c9334d6ac28ec967e" target="_top" xlink:title="SuiteCRMAddIn.ThisAddIn.\lShowArchiveForm">
<polygon fill="white" stroke="black" points="419,-256 419,-286 557,-286 557,-256 419,-256"/>
<text text-anchor="start" x="427" y="-274" font-family="Helvetica,sans-Serif" font-size="10.00">SuiteCRMAddIn.ThisAddIn.</text>
<text text-anchor="middle" x="488" y="-263" font-family="Helvetica,sans-Serif" font-size="10.00">ShowArchiveForm</text>
</a>
</g>
</g>
<!-- Node2&#45;&gt;Node3 -->
<g id="edge2" class="edge"><title>Node2&#45;&gt;Node3</title>
<path fill="none" stroke="midnightblue" d="M301.682,-163.238C319.289,-185.128 354.766,-225.226 394,-247 398.83,-249.68 403.966,-252.069 409.25,-254.196"/>
<polygon fill="midnightblue" stroke="midnightblue" points="408.291,-257.573 418.885,-257.75 410.714,-251.006 408.291,-257.573"/>
</g>
<!-- Node4 -->
<g id="node4" class="node"><title>Node4</title>
<g id="a_node4"><a xlink:href="class_suite_c_r_m_client_1_1_user_session.html#a61cf62b4a67202acf08a834cbe44c5ab" target="_top" xlink:title="The documentation at http://support.sugarcrm.com/Documentation/Sugar_Developer/Sugar_Developer_Guide_...">
<polygon fill="white" stroke="black" points="413,-207 413,-237 563,-237 563,-207 413,-207"/>
<text text-anchor="start" x="421" y="-225" font-family="Helvetica,sans-Serif" font-size="10.00">SuiteCRMClient.UserSession.</text>
<text text-anchor="middle" x="488" y="-214" font-family="Helvetica,sans-Serif" font-size="10.00">LogOut</text>
</a>
</g>
</g>
<!-- Node2&#45;&gt;Node4 -->
<g id="edge3" class="edge"><title>Node2&#45;&gt;Node4</title>
<path fill="none" stroke="midnightblue" d="M317.607,-163.106C338.204,-173.92 367.28,-188.236 394,-198 399.859,-200.141 405.991,-202.168 412.191,-204.07"/>
<polygon fill="midnightblue" stroke="midnightblue" points="411.38,-207.48 421.962,-206.953 413.361,-200.766 411.38,-207.48"/>
</g>
<!-- Node5 -->
<g id="node5" class="node"><title>Node5</title>
<g id="a_node5"><a xlink:href="class_suite_c_r_m_add_in_1_1_business_logic_1_1_repeating_process.html#aa335ddd9d301cfa4c127e795ec5beeb5" target="_top" xlink:title="Prepare to shutdown all running processes. ">
<polygon fill="white" stroke="black" points="394,-158 394,-188 582,-188 582,-158 394,-158"/>
<text text-anchor="start" x="402" y="-176" font-family="Helvetica,sans-Serif" font-size="10.00">SuiteCRMAddIn.BusinessLogic.</text>
<text text-anchor="middle" x="488" y="-165" font-family="Helvetica,sans-Serif" font-size="10.00">RepeatingProcess.PrepareShutdownAll</text>
</a>
</g>
</g>
<!-- Node2&#45;&gt;Node5 -->
<g id="edge4" class="edge"><title>Node2&#45;&gt;Node5</title>
<path fill="none" stroke="midnightblue" d="M358.072,-156.639C366.385,-157.694 375.019,-158.789 383.703,-159.891"/>
<polygon fill="midnightblue" stroke="midnightblue" points="383.543,-163.399 393.904,-161.186 384.424,-156.455 383.543,-163.399"/>
</g>
<!-- Node9 -->
<g id="node9" class="node"><title>Node9</title>
<g id="a_node9"><a xlink:href="class_suite_c_r_m_add_in_1_1_ribbon_image_helper.html#ab6c37f7066ccafd90143fe3803cb3c8b" target="_top" xlink:title="SuiteCRMAddIn.RibbonImage\lHelper.Convert">
<polygon fill="white" stroke="black" points="413.5,-109 413.5,-139 562.5,-139 562.5,-109 413.5,-109"/>
<text text-anchor="start" x="421.5" y="-127" font-family="Helvetica,sans-Serif" font-size="10.00">SuiteCRMAddIn.RibbonImage</text>
<text text-anchor="middle" x="488" y="-116" font-family="Helvetica,sans-Serif" font-size="10.00">Helper.Convert</text>
</a>
</g>
</g>
<!-- Node2&#45;&gt;Node9 -->
<g id="edge8" class="edge"><title>Node2&#45;&gt;Node9</title>
<path fill="none" stroke="midnightblue" d="M358.072,-139.707C372.53,-137.946 387.958,-136.066 402.931,-134.242"/>
<polygon fill="midnightblue" stroke="midnightblue" points="403.703,-137.674 413.207,-132.99 402.857,-130.725 403.703,-137.674"/>
</g>
<!-- Node10 -->
<g id="node10" class="node"><title>Node10</title>
<g id="a_node10"><a xlink:href="class_suite_c_r_m_add_in_1_1_this_add_in.html#a241a0e53ef17a70dfa4b991bce8df910" target="_top" xlink:title="SuiteCRMAddIn.ThisAddIn.\lShowSettingsForm">
<polygon fill="white" stroke="black" points="419,-60 419,-90 557,-90 557,-60 419,-60"/>
<text text-anchor="start" x="427" y="-78" font-family="Helvetica,sans-Serif" font-size="10.00">SuiteCRMAddIn.ThisAddIn.</text>
<text text-anchor="middle" x="488" y="-67" font-family="Helvetica,sans-Serif" font-size="10.00">ShowSettingsForm</text>
</a>
</g>
</g>
<!-- Node2&#45;&gt;Node10 -->
<g id="edge9" class="edge"><title>Node2&#45;&gt;Node10</title>
<path fill="none" stroke="midnightblue" d="M319.028,-132.985C339.584,-122.756 368.011,-109.413 394,-100 400.809,-97.5339 407.975,-95.1866 415.184,-92.9886"/>
<polygon fill="midnightblue" stroke="midnightblue" points="416.412,-96.2756 425.011,-90.0866 414.429,-89.5622 416.412,-96.2756"/>
</g>
<!-- Node11 -->
<g id="node11" class="node"><title>Node11</title>
<g id="a_node11"><a xlink:href="class_suite_c_r_m_add_in_1_1_business_logic_1_1_email_archiving.html#a28d7941e33b094c344e5691a1a6be644" target="_top" xlink:title="SuiteCRMAddIn.BusinessLogic.\lEmailArchiving.ProcessEligibleNew\lMailItem">
<polygon fill="white" stroke="black" points="401.5,-0.5 401.5,-41.5 574.5,-41.5 574.5,-0.5 401.5,-0.5"/>
<text text-anchor="start" x="409.5" y="-29.5" font-family="Helvetica,sans-Serif" font-size="10.00">SuiteCRMAddIn.BusinessLogic.</text>
<text text-anchor="start" x="409.5" y="-18.5" font-family="Helvetica,sans-Serif" font-size="10.00">EmailArchiving.ProcessEligibleNew</text>
<text text-anchor="middle" x="488" y="-7.5" font-family="Helvetica,sans-Serif" font-size="10.00">MailItem</text>
</a>
</g>
</g>
<!-- Node2&#45;&gt;Node11 -->
<g id="edge10" class="edge"><title>Node2&#45;&gt;Node11</title>
<path fill="none" stroke="midnightblue" d="M302.529,-132.674C320.631,-111.465 356.11,-73.2671 394,-51 397.017,-49.2271 400.151,-47.5452 403.364,-45.9511"/>
<polygon fill="midnightblue" stroke="midnightblue" points="404.985,-49.0578 412.597,-41.6884 402.051,-42.7024 404.985,-49.0578"/>
</g>
<!-- Node6 -->
<g id="node6" class="node"><title>Node6</title>
<g id="a_node6"><a xlink:href="class_suite_c_r_m_add_in_1_1_business_logic_1_1_repeating_process.html#a75baab6367c7ce36a63695d23a646c95" target="_top" xlink:title="Put me into a mode where I finish all the work I have to do quickly. ">
<polygon fill="white" stroke="black" points="618,-182 618,-212 795,-212 795,-182 618,-182"/>
<text text-anchor="start" x="626" y="-200" font-family="Helvetica,sans-Serif" font-size="10.00">SuiteCRMAddIn.BusinessLogic.</text>
<text text-anchor="middle" x="706.5" y="-189" font-family="Helvetica,sans-Serif" font-size="10.00">RepeatingProcess.PrepareShutdown</text>
</a>
</g>
</g>
<!-- Node5&#45;&gt;Node6 -->
<g id="edge5" class="edge"><title>Node5&#45;&gt;Node6</title>
<path fill="none" stroke="midnightblue" d="M582.072,-183.317C590.639,-184.267 599.335,-185.231 607.94,-186.185"/>
<polygon fill="midnightblue" stroke="midnightblue" points="607.662,-189.676 617.987,-187.299 608.434,-182.718 607.662,-189.676"/>
</g>
<!-- Node8 -->
<g id="node8" class="node"><title>Node8</title>
<g id="a_node8"><a xlink:href="class_suite_c_r_m_add_in_1_1_business_logic_1_1_repeating_process.html#a1484b532908abdfad6640cc758cd2f37" target="_top" xlink:title="Stop me at the end of my current iteration; does not force an immediate stop unless no work is curren...">
<polygon fill="white" stroke="black" points="627.5,-133 627.5,-163 785.5,-163 785.5,-133 627.5,-133"/>
<text text-anchor="start" x="635.5" y="-151" font-family="Helvetica,sans-Serif" font-size="10.00">SuiteCRMAddIn.BusinessLogic.</text>
<text text-anchor="middle" x="706.5" y="-140" font-family="Helvetica,sans-Serif" font-size="10.00">RepeatingProcess.Stop</text>
</a>
</g>
</g>
<!-- Node5&#45;&gt;Node8 -->
<g id="edge7" class="edge"><title>Node5&#45;&gt;Node8</title>
<path fill="none" stroke="midnightblue" d="M582.072,-162.253C593.773,-160.902 605.715,-159.523 617.337,-158.181"/>
<polygon fill="midnightblue" stroke="midnightblue" points="617.921,-161.636 627.453,-157.012 617.118,-154.683 617.921,-161.636"/>
</g>
<!-- Node7 -->
<g id="node7" class="node"><title>Node7</title>
<g id="a_node7"><a xlink:href="class_suite_c_r_m_add_in_1_1_business_logic_1_1_repeating_process.html#a13a459becdd7115fdd3af289318e74b7" target="_top" xlink:title="Do whatever it is I do, once. ">
<polygon fill="white" stroke="black" points="831,-182 831,-212 1001,-212 1001,-182 831,-182"/>
<text text-anchor="start" x="839" y="-200" font-family="Helvetica,sans-Serif" font-size="10.00">SuiteCRMAddIn.BusinessLogic.</text>
<text text-anchor="middle" x="916" y="-189" font-family="Helvetica,sans-Serif" font-size="10.00">RepeatingProcess.PerformIteration</text>
</a>
</g>
</g>
<!-- Node6&#45;&gt;Node7 -->
<g id="edge6" class="edge"><title>Node6&#45;&gt;Node7</title>
<path fill="none" stroke="midnightblue" d="M795.198,-197C803.704,-197 812.358,-197 820.924,-197"/>
<polygon fill="midnightblue" stroke="midnightblue" points="820.924,-200.5 830.924,-197 820.924,-193.5 820.924,-200.5"/>
</g>
</g>
</svg>
