<?xml version="1.0" encoding="UTF-8" standalone="no"?>
<!DOCTYPE svg PUBLIC "-//W3C//DTD SVG 1.1//EN"
 "http://www.w3.org/Graphics/SVG/1.1/DTD/svg11.dtd">
<!-- Generated by graphviz version 2.38.0 (20140413.2041)
 -->
<!-- Title: SuiteCRMAddIn.BusinessLogic.AppointmentSyncing.SaveItem Pages: 1 -->
<svg width="1064pt" height="50pt"
 viewBox="0.00 0.00 1064.00 50.00" xmlns="http://www.w3.org/2000/svg" xmlns:xlink="http://www.w3.org/1999/xlink">
<g id="graph0" class="graph" transform="scale(1 1) rotate(0) translate(4 46)">
<title>SuiteCRMAddIn.BusinessLogic.AppointmentSyncing.SaveItem</title>
<polygon fill="white" stroke="none" points="-4,4 -4,-46 1060,-46 1060,4 -4,4"/>
<!-- Node1 -->
<g id="node1" class="node"><title>Node1</title>
<polygon fill="#bfbfbf" stroke="black" points="0,-6 0,-36 158,-36 158,-6 0,-6"/>
<text text-anchor="start" x="8" y="-24" font-family="Helvetica,sans-Serif" font-size="10.00">SuiteCRMAddIn.BusinessLogic.</text>
<text text-anchor="middle" x="79" y="-13" font-family="Helvetica,sans-Serif" font-size="10.00">AppointmentSyncing.SaveItem</text>
</g>
<!-- Node2 -->
<g id="node2" class="node"><title>Node2</title>
<g id="a_node2"><a xlink:href="class_suite_c_r_m_add_in_1_1_business_logic_1_1_appointment_syncing.html#a778c161dea3f5934089e5866b59f9dad" target="_top" xlink:title="Ensure that this Outlook item has a property of this name with this value. ">
<polygon fill="white" stroke="black" points="194,-0.5 194,-41.5 404,-41.5 404,-0.5 194,-0.5"/>
<text text-anchor="start" x="202" y="-29.5" font-family="Helvetica,sans-Serif" font-size="10.00">SuiteCRMAddIn.BusinessLogic.</text>
<text text-anchor="start" x="202" y="-18.5" font-family="Helvetica,sans-Serif" font-size="10.00">AppointmentSyncing.EnsureSynchronisation</text>
<text text-anchor="middle" x="299" y="-7.5" font-family="Helvetica,sans-Serif" font-size="10.00">PropertyForOutlookItem</text>
</a>
</g>
</g>
<!-- Node1&#45;&gt;Node2 -->
<g id="edge1" class="edge"><title>Node1&#45;&gt;Node2</title>
<path fill="none" stroke="midnightblue" d="M168.266,-21C176.692,-21 185.29,-21 193.847,-21"/>
<polygon fill="midnightblue" stroke="midnightblue" points="168.087,-17.5001 158.087,-21 168.087,-24.5001 168.087,-17.5001"/>
</g>
<!-- Node3 -->
<g id="node3" class="node"><title>Node3</title>
<g id="a_node3"><a xlink:href="class_suite_c_r_m_add_in_1_1_business_logic_1_1_appointment_syncing.html#a8a922e6ddd966e890c8203d4c91912d1" target="_top" xlink:title="Specialisation: in addition to the standard properties, meetings also require an organiser property...">
<polygon fill="white" stroke="black" points="440,-0.5 440,-41.5 650,-41.5 650,-0.5 440,-0.5"/>
<text text-anchor="start" x="448" y="-29.5" font-family="Helvetica,sans-Serif" font-size="10.00">SuiteCRMAddIn.BusinessLogic.</text>
<text text-anchor="start" x="448" y="-18.5" font-family="Helvetica,sans-Serif" font-size="10.00">AppointmentSyncing.EnsureSynchronisation</text>
<text text-anchor="middle" x="545" y="-7.5" font-family="Helvetica,sans-Serif" font-size="10.00">PropertiesForOutlookItem</text>
</a>
</g>
</g>
<!-- Node2&#45;&gt;Node3 -->
<g id="edge2" class="edge"><title>Node2&#45;&gt;Node3</title>
<path fill="none" stroke="midnightblue" d="M414.453,-14.2615C422.899,-14.2357 431.394,-14.2533 439.774,-14.3141"/>
<polygon fill="midnightblue" stroke="midnightblue" points="414.168,-10.7628 404.186,-14.3144 414.204,-17.7627 414.168,-10.7628"/>
</g>
<!-- Node3&#45;&gt;Node2 -->
<g id="edge3" class="edge"><title>Node3&#45;&gt;Node2</title>
<path fill="none" stroke="midnightblue" d="M429.506,-27.7386C421.06,-27.7642 412.566,-27.7466 404.186,-27.6856"/>
<polygon fill="midnightblue" stroke="midnightblue" points="429.792,-31.2373 439.774,-27.6859 429.756,-24.2374 429.792,-31.2373"/>
</g>
<!-- Node4 -->
<g id="node4" class="node"><title>Node4</title>
<g id="a_node4"><a xlink:href="class_suite_c_r_m_add_in_1_1_business_logic_1_1_appointment_syncing.html#af477f9f681874a701880737a2383b5fc" target="_top" xlink:title="Synchronise items in the specified folder with the specified SuiteCRM module. ">
<polygon fill="white" stroke="black" points="686,-6 686,-36 845,-36 845,-6 686,-6"/>
<text text-anchor="start" x="694" y="-24" font-family="Helvetica,sans-Serif" font-size="10.00">SuiteCRMAddIn.BusinessLogic.</text>
<text text-anchor="middle" x="765.5" y="-13" font-family="Helvetica,sans-Serif" font-size="10.00">AppointmentSyncing.SyncFolder</text>
</a>
</g>
</g>
<!-- Node3&#45;&gt;Node4 -->
<g id="edge4" class="edge"><title>Node3&#45;&gt;Node4</title>
<path fill="none" stroke="midnightblue" d="M660.246,-21C668.858,-21 677.428,-21 685.742,-21"/>
<polygon fill="midnightblue" stroke="midnightblue" points="660.131,-17.5001 650.131,-21 660.131,-24.5001 660.131,-17.5001"/>
</g>
<!-- Node5 -->
<g id="node5" class="node"><title>Node5</title>
<g id="a_node5"><a xlink:href="class_suite_c_r_m_add_in_1_1_business_logic_1_1_appointment_syncing.html#a7cee33973de0521341615a899e970cba" target="_top" xlink:title="Action method of the thread. ">
<polygon fill="white" stroke="black" points="881,-6 881,-36 1056,-36 1056,-6 881,-6"/>
<text text-anchor="start" x="889" y="-24" font-family="Helvetica,sans-Serif" font-size="10.00">SuiteCRMAddIn.BusinessLogic.</text>
<text text-anchor="middle" x="968.5" y="-13" font-family="Helvetica,sans-Serif" font-size="10.00">AppointmentSyncing.SynchroniseAll</text>
</a>
</g>
</g>
<!-- Node4&#45;&gt;Node5 -->
<g id="edge5" class="edge"><title>Node4&#45;&gt;Node5</title>
<path fill="none" stroke="midnightblue" d="M855.101,-21C863.7,-21 872.418,-21 880.996,-21"/>
<polygon fill="midnightblue" stroke="midnightblue" points="855.075,-17.5001 845.075,-21 855.075,-24.5001 855.075,-17.5001"/>
</g>
</g>
</svg>
