<?xml version="1.0" encoding="UTF-8" standalone="no"?>
<!DOCTYPE svg PUBLIC "-//W3C//DTD SVG 1.1//EN"
 "http://www.w3.org/Graphics/SVG/1.1/DTD/svg11.dtd">
<!-- Generated by graphviz version 2.38.0 (20140413.2041)
 -->
<!-- Title: SuiteCRMAddIn.Dialogs.WithCustomModulesSelectorForm.PopulateCustomModulesListView Pages: 1 -->
<svg width="630pt" height="50pt"
 viewBox="0.00 0.00 630.00 50.00" xmlns="http://www.w3.org/2000/svg" xmlns:xlink="http://www.w3.org/1999/xlink">
<g id="graph0" class="graph" transform="scale(1 1) rotate(0) translate(4 46)">
<title>SuiteCRMAddIn.Dialogs.WithCustomModulesSelectorForm.PopulateCustomModulesListView</title>
<polygon fill="white" stroke="none" points="-4,4 -4,-46 626,-46 626,4 -4,4"/>
<!-- Node1 -->
<g id="node1" class="node"><title>Node1</title>
<polygon fill="#bfbfbf" stroke="black" points="0,-0.5 0,-41.5 188,-41.5 188,-0.5 0,-0.5"/>
<text text-anchor="start" x="8" y="-29.5" font-family="Helvetica,sans-Serif" font-size="10.00">SuiteCRMAddIn.Dialogs.With</text>
<text text-anchor="start" x="8" y="-18.5" font-family="Helvetica,sans-Serif" font-size="10.00">CustomModulesSelectorForm.Populate</text>
<text text-anchor="middle" x="94" y="-7.5" font-family="Helvetica,sans-Serif" font-size="10.00">CustomModulesListView</text>
</g>
<!-- Node2 -->
<g id="node2" class="node"><title>Node2</title>
<g id="a_node2"><a xlink:href="class_suite_c_r_m_client_1_1cls_suite_c_r_m_helper.html#afd19c20b8c3d82655e35d46d7829197f" target="_top" xlink:title="Get the list of modules installed in the connected CRM instance, with their associated access control...">
<polygon fill="white" stroke="black" points="224,-6 224,-36 405,-36 405,-6 224,-6"/>
<text text-anchor="start" x="232" y="-24" font-family="Helvetica,sans-Serif" font-size="10.00">SuiteCRMClient.clsSuiteCRMHelper.</text>
<text text-anchor="middle" x="314.5" y="-13" font-family="Helvetica,sans-Serif" font-size="10.00">GetModules</text>
</a>
</g>
</g>
<!-- Node1&#45;&gt;Node2 -->
<g id="edge1" class="edge"><title>Node1&#45;&gt;Node2</title>
<path fill="none" stroke="midnightblue" d="M188.297,-21C196.709,-21 205.249,-21 213.713,-21"/>
<polygon fill="midnightblue" stroke="midnightblue" points="213.985,-24.5001 223.985,-21 213.985,-17.5001 213.985,-24.5001"/>
</g>
<!-- Node3 -->
<g id="node3" class="node"><title>Node3</title>
<g id="a_node3"><a xlink:href="class_suite_c_r_m_client_1_1cls_suite_c_r_m_helper.html#a80f04ec3ab185a736b6633c0df69c536" target="_top" xlink:title="SuiteCRMClient.clsSuiteCRMHelper.\lEnsureLoggedIn">
<polygon fill="white" stroke="black" points="441,-6 441,-36 622,-36 622,-6 441,-6"/>
<text text-anchor="start" x="449" y="-24" font-family="Helvetica,sans-Serif" font-size="10.00">SuiteCRMClient.clsSuiteCRMHelper.</text>
<text text-anchor="middle" x="531.5" y="-13" font-family="Helvetica,sans-Serif" font-size="10.00">EnsureLoggedIn</text>
</a>
</g>
</g>
<!-- Node2&#45;&gt;Node3 -->
<g id="edge2" class="edge"><title>Node2&#45;&gt;Node3</title>
<path fill="none" stroke="midnightblue" d="M405.123,-21C413.478,-21 421.982,-21 430.424,-21"/>
<polygon fill="midnightblue" stroke="midnightblue" points="430.677,-24.5001 440.677,-21 430.677,-17.5001 430.677,-24.5001"/>
</g>
</g>
</svg>
