<?xml version="1.0" encoding="UTF-8" standalone="no"?>
<!DOCTYPE svg PUBLIC "-//W3C//DTD SVG 1.1//EN"
 "http://www.w3.org/Graphics/SVG/1.1/DTD/svg11.dtd">
<!-- Generated by graphviz version 2.38.0 (20140413.2041)
 -->
<!-- Title: SuiteCRMAddIn.Robustness.DoOrLogError Pages: 1 -->
<svg width="374pt" height="88pt"
 viewBox="0.00 0.00 374.00 88.00" xmlns="http://www.w3.org/2000/svg" xmlns:xlink="http://www.w3.org/1999/xlink">
<g id="graph0" class="graph" transform="scale(1 1) rotate(0) translate(4 84)">
<title>SuiteCRMAddIn.Robustness.DoOrLogError</title>
<polygon fill="white" stroke="none" points="-4,4 -4,-84 370,-84 370,4 -4,4"/>
<!-- Node1 -->
<g id="node1" class="node"><title>Node1</title>
<polygon fill="#bfbfbf" stroke="black" points="0,-24.5 0,-54.5 146,-54.5 146,-24.5 0,-24.5"/>
<text text-anchor="start" x="8" y="-42.5" font-family="Helvetica,sans-Serif" font-size="10.00">SuiteCRMAddIn.Robustness.</text>
<text text-anchor="middle" x="73" y="-31.5" font-family="Helvetica,sans-Serif" font-size="10.00">DoOrLogError</text>
</g>
<!-- Node2 -->
<g id="node2" class="node"><title>Node2</title>
<g id="a_node2"><a xlink:href="class_suite_c_r_m_add_in_1_1_dialogs_1_1frm_address_book.html#a3f4f6f3af970c21ddfe73c19c93e02d2" target="_top" xlink:title="SuiteCRMAddIn.Dialogs.frm\lAddressBook.frmAddressBook">
<polygon fill="white" stroke="black" points="198.5,-49.5 198.5,-79.5 349.5,-79.5 349.5,-49.5 198.5,-49.5"/>
<text text-anchor="start" x="206.5" y="-67.5" font-family="Helvetica,sans-Serif" font-size="10.00">SuiteCRMAddIn.Dialogs.frm</text>
<text text-anchor="middle" x="274" y="-56.5" font-family="Helvetica,sans-Serif" font-size="10.00">AddressBook.frmAddressBook</text>
</a>
</g>
</g>
<!-- Node1&#45;&gt;Node2 -->
<g id="edge1" class="edge"><title>Node1&#45;&gt;Node2</title>
<path fill="none" stroke="midnightblue" d="M156.213,-49.8282C170.203,-51.5859 184.665,-53.4026 198.444,-55.1336"/>
<polygon fill="midnightblue" stroke="midnightblue" points="156.483,-46.3348 146.125,-48.5609 155.611,-53.2802 156.483,-46.3348"/>
</g>
<!-- Node3 -->
<g id="node3" class="node"><title>Node3</title>
<g id="a_node3"><a xlink:href="class_suite_c_r_m_add_in_1_1_suite_c_r_m_ribbon.html#ae7ab1a21f9a62df6f3c3138c99358a6c" target="_top" xlink:title="Send, and also archive to CRM, the current message in the composer window. ">
<polygon fill="white" stroke="black" points="182,-0.5 182,-30.5 366,-30.5 366,-0.5 182,-0.5"/>
<text text-anchor="start" x="190" y="-18.5" font-family="Helvetica,sans-Serif" font-size="10.00">SuiteCRMAddIn.SuiteCRMRibbon.btn</text>
<text text-anchor="middle" x="274" y="-7.5" font-family="Helvetica,sans-Serif" font-size="10.00">SendAndArchive_Action</text>
</a>
</g>
</g>
<!-- Node1&#45;&gt;Node3 -->
<g id="edge2" class="edge"><title>Node1&#45;&gt;Node3</title>
<path fill="none" stroke="midnightblue" d="M156.274,-29.5775C164.677,-28.5641 173.249,-27.5303 181.74,-26.5062"/>
<polygon fill="midnightblue" stroke="midnightblue" points="155.634,-26.1293 146.125,-30.8015 156.472,-33.0789 155.634,-26.1293"/>
</g>
</g>
</svg>
