<?xml version="1.0" encoding="UTF-8" standalone="no"?>
<!DOCTYPE svg PUBLIC "-//W3C//DTD SVG 1.1//EN"
 "http://www.w3.org/Graphics/SVG/1.1/DTD/svg11.dtd">
<!-- Generated by graphviz version 2.38.0 (20140413.2041)
 -->
<!-- Title: SuiteCRMClient.clsSuiteCRMHelper.GetModulesHavingEmailRelationships Pages: 1 -->
<svg width="641pt" height="50pt"
 viewBox="0.00 0.00 641.00 50.00" xmlns="http://www.w3.org/2000/svg" xmlns:xlink="http://www.w3.org/1999/xlink">
<g id="graph0" class="graph" transform="scale(1 1) rotate(0) translate(4 46)">
<title>SuiteCRMClient.clsSuiteCRMHelper.GetModulesHavingEmailRelationships</title>
<polygon fill="white" stroke="none" points="-4,4 -4,-46 637,-46 637,4 -4,4"/>
<!-- Node1 -->
<g id="node1" class="node"><title>Node1</title>
<polygon fill="#bfbfbf" stroke="black" points="0,-6 0,-36 184,-36 184,-6 0,-6"/>
<text text-anchor="start" x="8" y="-24" font-family="Helvetica,sans-Serif" font-size="10.00">SuiteCRMClient.clsSuiteCRMHelper.</text>
<text text-anchor="middle" x="92" y="-13" font-family="Helvetica,sans-Serif" font-size="10.00">GetModulesHavingEmailRelationships</text>
</g>
<!-- Node2 -->
<g id="node2" class="node"><title>Node2</title>
<g id="a_node2"><a xlink:href="class_suite_c_r_m_add_in_1_1_dialogs_1_1_custom_modules_dialog.html#ad43594486079041890b2cff4f96d3f23" target="_top" xlink:title="Populate this list view with custom modules, marking those saved in my settings as selected...">
<polygon fill="white" stroke="black" points="220,-0.5 220,-41.5 414,-41.5 414,-0.5 220,-0.5"/>
<text text-anchor="start" x="228" y="-29.5" font-family="Helvetica,sans-Serif" font-size="10.00">SuiteCRMAddIn.Dialogs.Custom</text>
<text text-anchor="start" x="228" y="-18.5" font-family="Helvetica,sans-Serif" font-size="10.00">ModulesDialog.PopulateCustomModules</text>
<text text-anchor="middle" x="317" y="-7.5" font-family="Helvetica,sans-Serif" font-size="10.00">ListView</text>
</a>
</g>
</g>
<!-- Node1&#45;&gt;Node2 -->
<g id="edge1" class="edge"><title>Node1&#45;&gt;Node2</title>
<path fill="none" stroke="midnightblue" d="M194.046,-21C202.625,-21 211.288,-21 219.829,-21"/>
<polygon fill="midnightblue" stroke="midnightblue" points="194.024,-17.5001 184.024,-21 194.024,-24.5001 194.024,-17.5001"/>
</g>
<!-- Node3 -->
<g id="node3" class="node"><title>Node3</title>
<g id="a_node3"><a xlink:href="class_suite_c_r_m_add_in_1_1_dialogs_1_1_custom_modules_dialog.html#a0690a5a0bafdb53508b3bb0e9743b422" target="_top" xlink:title="SuiteCRMAddIn.Dialogs.Custom\lModulesDialog.CustomModulesDialog">
<polygon fill="white" stroke="black" points="450,-6 450,-36 633,-36 633,-6 450,-6"/>
<text text-anchor="start" x="458" y="-24" font-family="Helvetica,sans-Serif" font-size="10.00">SuiteCRMAddIn.Dialogs.Custom</text>
<text text-anchor="middle" x="541.5" y="-13" font-family="Helvetica,sans-Serif" font-size="10.00">ModulesDialog.CustomModulesDialog</text>
</a>
</g>
</g>
<!-- Node2&#45;&gt;Node3 -->
<g id="edge2" class="edge"><title>Node2&#45;&gt;Node3</title>
<path fill="none" stroke="midnightblue" d="M424.526,-21C432.937,-21 441.384,-21 449.675,-21"/>
<polygon fill="midnightblue" stroke="midnightblue" points="424.298,-17.5001 414.298,-21 424.298,-24.5001 424.298,-17.5001"/>
</g>
</g>
</svg>
