<?xml version="1.0" encoding="UTF-8" standalone="no"?>
<!DOCTYPE svg PUBLIC "-//W3C//DTD SVG 1.1//EN"
 "http://www.w3.org/Graphics/SVG/1.1/DTD/svg11.dtd">
<!-- Generated by graphviz version 2.38.0 (20140413.2041)
 -->
<!-- Title: SuiteCRMAddIn.ThisAddIn.StartSynchronisationProcesses Pages: 1 -->
<svg width="999pt" height="294pt"
 viewBox="0.00 0.00 999.00 294.00" xmlns="http://www.w3.org/2000/svg" xmlns:xlink="http://www.w3.org/1999/xlink">
<g id="graph0" class="graph" transform="scale(1 1) rotate(0) translate(4 290)">
<title>SuiteCRMAddIn.ThisAddIn.StartSynchronisationProcesses</title>
<polygon fill="white" stroke="none" points="-4,4 -4,-290 995,-290 995,4 -4,4"/>
<!-- Node1 -->
<g id="node1" class="node"><title>Node1</title>
<polygon fill="#bfbfbf" stroke="black" points="0,-108.5 0,-138.5 154,-138.5 154,-108.5 0,-108.5"/>
<text text-anchor="start" x="8" y="-126.5" font-family="Helvetica,sans-Serif" font-size="10.00">SuiteCRMAddIn.ThisAddIn.</text>
<text text-anchor="middle" x="77" y="-115.5" font-family="Helvetica,sans-Serif" font-size="10.00">StartSynchronisationProcesses</text>
</g>
<!-- Node2 -->
<g id="node2" class="node"><title>Node2</title>
<g id="a_node2"><a xlink:href="class_suite_c_r_m_add_in_1_1_business_logic_1_1_repeating_process.html#a1807d77e723339e933844895c68b3b4f" target="_top" xlink:title="If I am not currently running, set me running. ">
<polygon fill="white" stroke="black" points="190,-157.5 190,-187.5 348,-187.5 348,-157.5 190,-157.5"/>
<text text-anchor="start" x="198" y="-175.5" font-family="Helvetica,sans-Serif" font-size="10.00">SuiteCRMAddIn.BusinessLogic.</text>
<text text-anchor="middle" x="269" y="-164.5" font-family="Helvetica,sans-Serif" font-size="10.00">RepeatingProcess.Start</text>
</a>
</g>
</g>
<!-- Node1&#45;&gt;Node2 -->
<g id="edge1" class="edge"><title>Node1&#45;&gt;Node2</title>
<path fill="none" stroke="midnightblue" d="M136.297,-138.535C156.45,-143.732 179.206,-149.601 200.064,-154.98"/>
<polygon fill="midnightblue" stroke="midnightblue" points="199.256,-158.386 209.813,-157.494 201.004,-151.607 199.256,-158.386"/>
</g>
<!-- Node3 -->
<g id="node3" class="node"><title>Node3</title>
<g id="a_node3"><a xlink:href="class_suite_c_r_m_add_in_1_1_this_add_in.html#a3d3136423943e3e4f71d3ea2b1062147" target="_top" xlink:title="SuiteCRMAddIn.ThisAddIn.\lManualArchive">
<polygon fill="white" stroke="black" points="200,-108.5 200,-138.5 338,-138.5 338,-108.5 200,-108.5"/>
<text text-anchor="start" x="208" y="-126.5" font-family="Helvetica,sans-Serif" font-size="10.00">SuiteCRMAddIn.ThisAddIn.</text>
<text text-anchor="middle" x="269" y="-115.5" font-family="Helvetica,sans-Serif" font-size="10.00">ManualArchive</text>
</a>
</g>
</g>
<!-- Node1&#45;&gt;Node3 -->
<g id="edge3" class="edge"><title>Node1&#45;&gt;Node3</title>
<path fill="none" stroke="midnightblue" d="M154.185,-123.5C165.844,-123.5 177.896,-123.5 189.601,-123.5"/>
<polygon fill="midnightblue" stroke="midnightblue" points="189.779,-127 199.779,-123.5 189.779,-120 189.779,-127"/>
</g>
<!-- Node11 -->
<g id="node11" class="node"><title>Node11</title>
<g id="a_node11"><a xlink:href="class_suite_c_r_m_add_in_1_1_this_add_in.html#a241a0e53ef17a70dfa4b991bce8df910" target="_top" xlink:title="SuiteCRMAddIn.ThisAddIn.\lShowSettingsForm">
<polygon fill="white" stroke="black" points="409,-0.5 409,-30.5 547,-30.5 547,-0.5 409,-0.5"/>
<text text-anchor="start" x="417" y="-18.5" font-family="Helvetica,sans-Serif" font-size="10.00">SuiteCRMAddIn.ThisAddIn.</text>
<text text-anchor="middle" x="478" y="-7.5" font-family="Helvetica,sans-Serif" font-size="10.00">ShowSettingsForm</text>
</a>
</g>
</g>
<!-- Node1&#45;&gt;Node11 -->
<g id="edge13" class="edge"><title>Node1&#45;&gt;Node11</title>
<path fill="none" stroke="midnightblue" d="M131.826,-108.455C192.892,-91.4498 295.496,-63.066 384,-39.5 391.79,-37.4258 399.954,-35.2791 408.073,-33.1613"/>
<polygon fill="midnightblue" stroke="midnightblue" points="409.13,-36.5031 417.927,-30.5992 407.368,-29.7284 409.13,-36.5031"/>
</g>
<!-- Node2&#45;&gt;Node2 -->
<g id="edge2" class="edge"><title>Node2&#45;&gt;Node2</title>
<path fill="none" stroke="midnightblue" d="M235.54,-187.659C227.472,-197.057 238.625,-206 269,-206 287.51,-206 298.882,-202.679 303.116,-197.958"/>
<polygon fill="midnightblue" stroke="midnightblue" points="306.589,-197.416 302.46,-187.659 299.603,-197.861 306.589,-197.416"/>
</g>
<!-- Node4 -->
<g id="node4" class="node"><title>Node4</title>
<g id="a_node4"><a xlink:href="class_suite_c_r_m_add_in_1_1_this_add_in.html#a8052836bf64ac24c9334d6ac28ec967e" target="_top" xlink:title="SuiteCRMAddIn.ThisAddIn.\lShowArchiveForm">
<polygon fill="white" stroke="black" points="409,-255.5 409,-285.5 547,-285.5 547,-255.5 409,-255.5"/>
<text text-anchor="start" x="417" y="-273.5" font-family="Helvetica,sans-Serif" font-size="10.00">SuiteCRMAddIn.ThisAddIn.</text>
<text text-anchor="middle" x="478" y="-262.5" font-family="Helvetica,sans-Serif" font-size="10.00">ShowArchiveForm</text>
</a>
</g>
</g>
<!-- Node3&#45;&gt;Node4 -->
<g id="edge4" class="edge"><title>Node3&#45;&gt;Node4</title>
<path fill="none" stroke="midnightblue" d="M335.991,-138.637C340.338,-141.151 344.407,-144.083 348,-147.5 381.927,-179.763 349.34,-215.024 384,-246.5 388.508,-250.593 393.621,-254.007 399.077,-256.853"/>
<polygon fill="midnightblue" stroke="midnightblue" points="397.979,-260.197 408.534,-261.123 400.86,-253.818 397.979,-260.197"/>
</g>
<!-- Node5 -->
<g id="node5" class="node"><title>Node5</title>
<g id="a_node5"><a xlink:href="class_suite_c_r_m_client_1_1_user_session.html#a61cf62b4a67202acf08a834cbe44c5ab" target="_top" xlink:title="The documentation at http://support.sugarcrm.com/Documentation/Sugar_Developer/Sugar_Developer_Guide_...">
<polygon fill="white" stroke="black" points="403,-206.5 403,-236.5 553,-236.5 553,-206.5 403,-206.5"/>
<text text-anchor="start" x="411" y="-224.5" font-family="Helvetica,sans-Serif" font-size="10.00">SuiteCRMClient.UserSession.</text>
<text text-anchor="middle" x="478" y="-213.5" font-family="Helvetica,sans-Serif" font-size="10.00">LogOut</text>
</a>
</g>
</g>
<!-- Node3&#45;&gt;Node5 -->
<g id="edge5" class="edge"><title>Node3&#45;&gt;Node5</title>
<path fill="none" stroke="midnightblue" d="M332.222,-138.548C337.791,-141.091 343.149,-144.053 348,-147.5 370.028,-163.154 361.695,-181.244 384,-196.5 387.079,-198.606 390.328,-200.535 393.694,-202.301"/>
<polygon fill="midnightblue" stroke="midnightblue" points="392.301,-205.514 402.839,-206.609 395.283,-199.181 392.301,-205.514"/>
</g>
<!-- Node6 -->
<g id="node6" class="node"><title>Node6</title>
<g id="a_node6"><a xlink:href="class_suite_c_r_m_add_in_1_1_business_logic_1_1_repeating_process.html#aa335ddd9d301cfa4c127e795ec5beeb5" target="_top" xlink:title="Prepare to shutdown all running processes. ">
<polygon fill="white" stroke="black" points="384,-157.5 384,-187.5 572,-187.5 572,-157.5 384,-157.5"/>
<text text-anchor="start" x="392" y="-175.5" font-family="Helvetica,sans-Serif" font-size="10.00">SuiteCRMAddIn.BusinessLogic.</text>
<text text-anchor="middle" x="478" y="-164.5" font-family="Helvetica,sans-Serif" font-size="10.00">RepeatingProcess.PrepareShutdownAll</text>
</a>
</g>
</g>
<!-- Node3&#45;&gt;Node6 -->
<g id="edge6" class="edge"><title>Node3&#45;&gt;Node6</title>
<path fill="none" stroke="midnightblue" d="M333.514,-138.535C355.668,-143.779 380.711,-149.707 403.602,-155.126"/>
<polygon fill="midnightblue" stroke="midnightblue" points="403.069,-158.596 413.607,-157.494 404.682,-151.784 403.069,-158.596"/>
</g>
<!-- Node10 -->
<g id="node10" class="node"><title>Node10</title>
<g id="a_node10"><a xlink:href="class_suite_c_r_m_add_in_1_1_ribbon_image_helper.html#ab6c37f7066ccafd90143fe3803cb3c8b" target="_top" xlink:title="SuiteCRMAddIn.RibbonImage\lHelper.Convert">
<polygon fill="white" stroke="black" points="403.5,-108.5 403.5,-138.5 552.5,-138.5 552.5,-108.5 403.5,-108.5"/>
<text text-anchor="start" x="411.5" y="-126.5" font-family="Helvetica,sans-Serif" font-size="10.00">SuiteCRMAddIn.RibbonImage</text>
<text text-anchor="middle" x="478" y="-115.5" font-family="Helvetica,sans-Serif" font-size="10.00">Helper.Convert</text>
</a>
</g>
</g>
<!-- Node3&#45;&gt;Node10 -->
<g id="edge10" class="edge"><title>Node3&#45;&gt;Node10</title>
<path fill="none" stroke="midnightblue" d="M338.066,-123.5C355.664,-123.5 374.817,-123.5 393.12,-123.5"/>
<polygon fill="midnightblue" stroke="midnightblue" points="393.185,-127 403.185,-123.5 393.185,-120 393.185,-127"/>
</g>
<!-- Node3&#45;&gt;Node11 -->
<g id="edge11" class="edge"><title>Node3&#45;&gt;Node11</title>
<path fill="none" stroke="midnightblue" d="M288.893,-108.198C315.776,-86.669 364.018,-49.0001 384,-39.5 388.894,-37.1731 394.045,-35.0503 399.308,-33.1171"/>
<polygon fill="midnightblue" stroke="midnightblue" points="400.546,-36.3926 408.871,-29.8392 398.276,-29.7708 400.546,-36.3926"/>
</g>
<!-- Node12 -->
<g id="node12" class="node"><title>Node12</title>
<g id="a_node12"><a xlink:href="class_suite_c_r_m_add_in_1_1_business_logic_1_1_email_archiving.html#a28d7941e33b094c344e5691a1a6be644" target="_top" xlink:title="SuiteCRMAddIn.BusinessLogic.\lEmailArchiving.ProcessEligibleNew\lMailItem">
<polygon fill="white" stroke="black" points="391.5,-49 391.5,-90 564.5,-90 564.5,-49 391.5,-49"/>
<text text-anchor="start" x="399.5" y="-78" font-family="Helvetica,sans-Serif" font-size="10.00">SuiteCRMAddIn.BusinessLogic.</text>
<text text-anchor="start" x="399.5" y="-67" font-family="Helvetica,sans-Serif" font-size="10.00">EmailArchiving.ProcessEligibleNew</text>
<text text-anchor="middle" x="478" y="-56" font-family="Helvetica,sans-Serif" font-size="10.00">MailItem</text>
</a>
</g>
</g>
<!-- Node3&#45;&gt;Node12 -->
<g id="edge12" class="edge"><title>Node3&#45;&gt;Node12</title>
<path fill="none" stroke="midnightblue" d="M327.661,-108.458C346.56,-103.528 368.014,-97.9311 388.648,-92.5485"/>
<polygon fill="midnightblue" stroke="midnightblue" points="389.583,-95.9217 398.376,-90.0107 387.816,-89.1484 389.583,-95.9217"/>
</g>
<!-- Node7 -->
<g id="node7" class="node"><title>Node7</title>
<g id="a_node7"><a xlink:href="class_suite_c_r_m_add_in_1_1_business_logic_1_1_repeating_process.html#a75baab6367c7ce36a63695d23a646c95" target="_top" xlink:title="Put me into a mode where I finish all the work I have to do quickly. ">
<polygon fill="white" stroke="black" points="608,-182.5 608,-212.5 785,-212.5 785,-182.5 608,-182.5"/>
<text text-anchor="start" x="616" y="-200.5" font-family="Helvetica,sans-Serif" font-size="10.00">SuiteCRMAddIn.BusinessLogic.</text>
<text text-anchor="middle" x="696.5" y="-189.5" font-family="Helvetica,sans-Serif" font-size="10.00">RepeatingProcess.PrepareShutdown</text>
</a>
</g>
</g>
<!-- Node6&#45;&gt;Node7 -->
<g id="edge7" class="edge"><title>Node6&#45;&gt;Node7</title>
<path fill="none" stroke="midnightblue" d="M572.072,-183.247C580.639,-184.237 589.335,-185.241 597.94,-186.234"/>
<polygon fill="midnightblue" stroke="midnightblue" points="597.652,-189.724 607.987,-187.395 598.455,-182.771 597.652,-189.724"/>
</g>
<!-- Node9 -->
<g id="node9" class="node"><title>Node9</title>
<g id="a_node9"><a xlink:href="class_suite_c_r_m_add_in_1_1_business_logic_1_1_repeating_process.html#a1484b532908abdfad6640cc758cd2f37" target="_top" xlink:title="Stop me at the end of my current iteration; does not force an immediate stop unless no work is curren...">
<polygon fill="white" stroke="black" points="617.5,-133.5 617.5,-163.5 775.5,-163.5 775.5,-133.5 617.5,-133.5"/>
<text text-anchor="start" x="625.5" y="-151.5" font-family="Helvetica,sans-Serif" font-size="10.00">SuiteCRMAddIn.BusinessLogic.</text>
<text text-anchor="middle" x="696.5" y="-140.5" font-family="Helvetica,sans-Serif" font-size="10.00">RepeatingProcess.Stop</text>
</a>
</g>
</g>
<!-- Node6&#45;&gt;Node9 -->
<g id="edge9" class="edge"><title>Node6&#45;&gt;Node9</title>
<path fill="none" stroke="midnightblue" d="M572.072,-162.183C583.773,-160.885 595.715,-159.562 607.337,-158.273"/>
<polygon fill="midnightblue" stroke="midnightblue" points="607.9,-161.732 617.453,-157.152 607.128,-154.775 607.9,-161.732"/>
</g>
<!-- Node8 -->
<g id="node8" class="node"><title>Node8</title>
<g id="a_node8"><a xlink:href="class_suite_c_r_m_add_in_1_1_business_logic_1_1_repeating_process.html#a13a459becdd7115fdd3af289318e74b7" target="_top" xlink:title="Do whatever it is I do, once. ">
<polygon fill="white" stroke="black" points="821,-182.5 821,-212.5 991,-212.5 991,-182.5 821,-182.5"/>
<text text-anchor="start" x="829" y="-200.5" font-family="Helvetica,sans-Serif" font-size="10.00">SuiteCRMAddIn.BusinessLogic.</text>
<text text-anchor="middle" x="906" y="-189.5" font-family="Helvetica,sans-Serif" font-size="10.00">RepeatingProcess.PerformIteration</text>
</a>
</g>
</g>
<!-- Node7&#45;&gt;Node8 -->
<g id="edge8" class="edge"><title>Node7&#45;&gt;Node8</title>
<path fill="none" stroke="midnightblue" d="M785.198,-197.5C793.704,-197.5 802.358,-197.5 810.924,-197.5"/>
<polygon fill="midnightblue" stroke="midnightblue" points="810.924,-201 820.924,-197.5 810.924,-194 810.924,-201"/>
</g>
</g>
</svg>
