<?xml version="1.0" encoding="UTF-8" standalone="no"?>
<!DOCTYPE svg PUBLIC "-//W3C//DTD SVG 1.1//EN"
 "http://www.w3.org/Graphics/SVG/1.1/DTD/svg11.dtd">
<!-- Generated by graphviz version 2.38.0 (20140413.2041)
 -->
<!-- Title: SuiteCRMAddIn.BusinessLogic.TaskSyncing.AddOrUpdateItemFromCrmToOutlook Pages: 1 -->
<svg width="413pt" height="279pt"
 viewBox="0.00 0.00 413.00 279.00" xmlns="http://www.w3.org/2000/svg" xmlns:xlink="http://www.w3.org/1999/xlink">
<g id="graph0" class="graph" transform="scale(1 1) rotate(0) translate(4 275)">
<title>SuiteCRMAddIn.BusinessLogic.TaskSyncing.AddOrUpdateItemFromCrmToOutlook</title>
<polygon fill="white" stroke="none" points="-4,4 -4,-275 409,-275 409,4 -4,4"/>
<!-- Node1 -->
<g id="node1" class="node"><title>Node1</title>
<polygon fill="#bfbfbf" stroke="black" points="0,-121 0,-162 178,-162 178,-121 0,-121"/>
<text text-anchor="start" x="8" y="-150" font-family="Helvetica,sans-Serif" font-size="10.00">SuiteCRMAddIn.BusinessLogic.</text>
<text text-anchor="start" x="8" y="-139" font-family="Helvetica,sans-Serif" font-size="10.00">TaskSyncing.AddOrUpdateItemFrom</text>
<text text-anchor="middle" x="89" y="-128" font-family="Helvetica,sans-Serif" font-size="10.00">CrmToOutlook</text>
</g>
<!-- Node2 -->
<g id="node2" class="node"><title>Node2</title>
<g id="a_node2"><a xlink:href="class_suite_c_r_m_client_1_1cls_suite_c_r_m_helper.html#a050637c0cbd1012cf9cf58c5cb3d179c" target="_top" xlink:title="Return the CRM id of the current user. ">
<polygon fill="white" stroke="black" points="219,-240.5 219,-270.5 400,-270.5 400,-240.5 219,-240.5"/>
<text text-anchor="start" x="227" y="-258.5" font-family="Helvetica,sans-Serif" font-size="10.00">SuiteCRMClient.clsSuiteCRMHelper.</text>
<text text-anchor="middle" x="309.5" y="-247.5" font-family="Helvetica,sans-Serif" font-size="10.00">GetUserId</text>
</a>
</g>
</g>
<!-- Node1&#45;&gt;Node2 -->
<g id="edge1" class="edge"><title>Node1&#45;&gt;Node2</title>
<path fill="none" stroke="midnightblue" d="M112.976,-162.357C136.659,-182.797 175.462,-213.438 214,-231.5 218.323,-233.526 222.84,-235.397 227.456,-237.122"/>
<polygon fill="midnightblue" stroke="midnightblue" points="226.446,-240.476 237.041,-240.462 228.75,-233.866 226.446,-240.476"/>
</g>
<!-- Node3 -->
<g id="node3" class="node"><title>Node3</title>
<g id="a_node3"><a xlink:href="class_suite_c_r_m_add_in_1_1_business_logic_1_1_synchroniser.html#a22031f77a31ab4d27818815ebc85786d" target="_top" xlink:title="Get the existing sync state representing this item, if it exists, else null. ">
<polygon fill="white" stroke="black" points="229,-181 229,-222 390,-222 390,-181 229,-181"/>
<text text-anchor="start" x="237" y="-210" font-family="Helvetica,sans-Serif" font-size="10.00">SuiteCRMAddIn.BusinessLogic.</text>
<text text-anchor="start" x="237" y="-199" font-family="Helvetica,sans-Serif" font-size="10.00">Synchroniser&lt; Outlook.TaskItem</text>
<text text-anchor="middle" x="309.5" y="-188" font-family="Helvetica,sans-Serif" font-size="10.00"> &gt;::GetExistingSyncState</text>
</a>
</g>
</g>
<!-- Node1&#45;&gt;Node3 -->
<g id="edge2" class="edge"><title>Node1&#45;&gt;Node3</title>
<path fill="none" stroke="midnightblue" d="M164.89,-162.065C183.913,-167.288 204.483,-172.937 223.949,-178.282"/>
<polygon fill="midnightblue" stroke="midnightblue" points="223.138,-181.689 233.708,-180.962 224.992,-174.939 223.138,-181.689"/>
</g>
<!-- Node4 -->
<g id="node4" class="node"><title>Node4</title>
<g id="a_node4"><a xlink:href="class_suite_c_r_m_add_in_1_1_business_logic_1_1_synchroniser.html#a9e06c6056beacdb87f5d807f4739b9ba" target="_top" xlink:title="Find any existing Outlook items which appear to be identical to this CRM item. ">
<polygon fill="white" stroke="black" points="229,-121 229,-162 390,-162 390,-121 229,-121"/>
<text text-anchor="start" x="237" y="-150" font-family="Helvetica,sans-Serif" font-size="10.00">SuiteCRMAddIn.BusinessLogic.</text>
<text text-anchor="start" x="237" y="-139" font-family="Helvetica,sans-Serif" font-size="10.00">Synchroniser&lt; Outlook.TaskItem</text>
<text text-anchor="middle" x="309.5" y="-128" font-family="Helvetica,sans-Serif" font-size="10.00"> &gt;::FindMatches</text>
</a>
</g>
</g>
<!-- Node1&#45;&gt;Node4 -->
<g id="edge3" class="edge"><title>Node1&#45;&gt;Node4</title>
<path fill="none" stroke="midnightblue" d="M178.242,-141.5C191.55,-141.5 205.291,-141.5 218.632,-141.5"/>
<polygon fill="midnightblue" stroke="midnightblue" points="218.743,-145 228.743,-141.5 218.743,-138 218.743,-145"/>
</g>
<!-- Node5 -->
<g id="node5" class="node"><title>Node5</title>
<g id="a_node5"><a xlink:href="class_suite_c_r_m_add_in_1_1_business_logic_1_1_synchroniser.html#a8c1e906f4a8c369c69e5cdbb73c1cfb2" target="_top" xlink:title="Every Outlook item which is to be synchronised must have a property SOModifiedDate, a property SType, and a property SEntryId, referencing respectively the last time it was modified, the type of CRM item it is to be synchronised with, and the id of the CRM item it is to be synchronised with. ">
<polygon fill="white" stroke="black" points="214,-49.5 214,-101.5 405,-101.5 405,-49.5 214,-49.5"/>
<text text-anchor="start" x="222" y="-89.5" font-family="Helvetica,sans-Serif" font-size="10.00">SuiteCRMAddIn.BusinessLogic.</text>
<text text-anchor="start" x="222" y="-78.5" font-family="Helvetica,sans-Serif" font-size="10.00">Synchroniser&lt; Outlook.TaskItem</text>
<text text-anchor="start" x="222" y="-67.5" font-family="Helvetica,sans-Serif" font-size="10.00"> &gt;::EnsureSynchronisationPropertiesFor</text>
<text text-anchor="middle" x="309.5" y="-56.5" font-family="Helvetica,sans-Serif" font-size="10.00">OutlookItem</text>
</a>
</g>
</g>
<!-- Node1&#45;&gt;Node5 -->
<g id="edge4" class="edge"><title>Node1&#45;&gt;Node5</title>
<path fill="none" stroke="midnightblue" d="M157.937,-120.979C175.14,-115.783 193.946,-110.102 212.257,-104.571"/>
<polygon fill="midnightblue" stroke="midnightblue" points="213.509,-107.849 222.069,-101.607 211.485,-101.148 213.509,-107.849"/>
</g>
<!-- Node6 -->
<g id="node6" class="node"><title>Node6</title>
<g id="a_node6"><a xlink:href="class_suite_c_r_m_add_in_1_1_business_logic_1_1_task_syncing.html#ac49de51ba359f2bf8567a6630e0b4183" target="_top" xlink:title="Log a message regarding this Outlook appointment. ">
<polygon fill="white" stroke="black" points="230.5,-0.5 230.5,-30.5 388.5,-30.5 388.5,-0.5 230.5,-0.5"/>
<text text-anchor="start" x="238.5" y="-18.5" font-family="Helvetica,sans-Serif" font-size="10.00">SuiteCRMAddIn.BusinessLogic.</text>
<text text-anchor="middle" x="309.5" y="-7.5" font-family="Helvetica,sans-Serif" font-size="10.00">TaskSyncing.LogItemAction</text>
</a>
</g>
</g>
<!-- Node1&#45;&gt;Node6 -->
<g id="edge5" class="edge"><title>Node1&#45;&gt;Node6</title>
<path fill="none" stroke="midnightblue" d="M109.559,-120.996C132.503,-98.1129 172.682,-61.544 214,-40.5 218.608,-38.1533 223.457,-36.011 228.425,-34.0578"/>
<polygon fill="midnightblue" stroke="midnightblue" points="229.899,-37.2458 238.094,-30.5306 227.501,-30.6696 229.899,-37.2458"/>
</g>
</g>
</svg>
