<?xml version="1.0" encoding="UTF-8" standalone="no"?>
<!DOCTYPE svg PUBLIC "-//W3C//DTD SVG 1.1//EN"
 "http://www.w3.org/Graphics/SVG/1.1/DTD/svg11.dtd">
<!-- Generated by graphviz version 2.38.0 (20140413.2041)
 -->
<!-- Title: SuiteCRMAddIn.BusinessLogic.CRMPermissionsCache.HasExportAccess Pages: 1 -->
<svg width="859pt" height="137pt"
 viewBox="0.00 0.00 859.00 137.00" xmlns="http://www.w3.org/2000/svg" xmlns:xlink="http://www.w3.org/1999/xlink">
<g id="graph0" class="graph" transform="scale(1 1) rotate(0) translate(4 133)">
<title>SuiteCRMAddIn.BusinessLogic.CRMPermissionsCache.HasExportAccess</title>
<polygon fill="white" stroke="none" points="-4,4 -4,-133 855,-133 855,4 -4,4"/>
<!-- Node1 -->
<g id="node1" class="node"><title>Node1</title>
<polygon fill="#bfbfbf" stroke="black" points="0,-49.5 0,-79.5 205,-79.5 205,-49.5 0,-49.5"/>
<text text-anchor="start" x="8" y="-67.5" font-family="Helvetica,sans-Serif" font-size="10.00">SuiteCRMAddIn.BusinessLogic.</text>
<text text-anchor="middle" x="102.5" y="-56.5" font-family="Helvetica,sans-Serif" font-size="10.00">CRMPermissionsCache.HasExportAccess</text>
</g>
<!-- Node2 -->
<g id="node2" class="node"><title>Node2</title>
<g id="a_node2"><a xlink:href="class_suite_c_r_m_add_in_1_1_business_logic_1_1_c_r_m_permissions_cache.html#ae827e3294d872f8fedc440b83ad0b8d2" target="_top" xlink:title="Check whether my synchroniser is allowed access to the specified CRM module, with the specified permi...">
<polygon fill="white" stroke="black" points="241,-49.5 241,-79.5 417,-79.5 417,-49.5 241,-49.5"/>
<text text-anchor="start" x="249" y="-67.5" font-family="Helvetica,sans-Serif" font-size="10.00">SuiteCRMAddIn.BusinessLogic.</text>
<text text-anchor="middle" x="329" y="-56.5" font-family="Helvetica,sans-Serif" font-size="10.00">CRMPermissionsCache.HasAccess</text>
</a>
</g>
</g>
<!-- Node1&#45;&gt;Node2 -->
<g id="edge1" class="edge"><title>Node1&#45;&gt;Node2</title>
<path fill="none" stroke="midnightblue" d="M205.24,-64.5C213.653,-64.5 222.146,-64.5 230.526,-64.5"/>
<polygon fill="midnightblue" stroke="midnightblue" points="230.68,-68.0001 240.68,-64.5 230.68,-61.0001 230.68,-68.0001"/>
</g>
<!-- Node3 -->
<g id="node3" class="node"><title>Node3</title>
<g id="a_node3"><a xlink:href="class_suite_c_r_m_client_1_1cls_suite_c_r_m_helper.html#afd19c20b8c3d82655e35d46d7829197f" target="_top" xlink:title="Get the list of modules installed in the connected CRM instance, with their associated access control...">
<polygon fill="white" stroke="black" points="453,-98.5 453,-128.5 634,-128.5 634,-98.5 453,-98.5"/>
<text text-anchor="start" x="461" y="-116.5" font-family="Helvetica,sans-Serif" font-size="10.00">SuiteCRMClient.clsSuiteCRMHelper.</text>
<text text-anchor="middle" x="543.5" y="-105.5" font-family="Helvetica,sans-Serif" font-size="10.00">GetModules</text>
</a>
</g>
</g>
<!-- Node2&#45;&gt;Node3 -->
<g id="edge2" class="edge"><title>Node2&#45;&gt;Node3</title>
<path fill="none" stroke="midnightblue" d="M395.201,-79.5346C418.046,-84.8024 443.883,-90.7601 467.468,-96.1984"/>
<polygon fill="midnightblue" stroke="midnightblue" points="466.891,-99.6573 477.422,-98.4938 468.464,-92.8363 466.891,-99.6573"/>
</g>
<!-- Node5 -->
<g id="node5" class="node"><title>Node5</title>
<g id="a_node5"><a xlink:href="class_suite_c_r_m_add_in_1_1_business_logic_1_1_sync_direction.html#ad456cb19bab5eb78bc35f7b305274d01" target="_top" xlink:title="Does this direction allow outbound transfers from Outlook? ">
<polygon fill="white" stroke="black" points="464.5,-49.5 464.5,-79.5 622.5,-79.5 622.5,-49.5 464.5,-49.5"/>
<text text-anchor="start" x="472.5" y="-67.5" font-family="Helvetica,sans-Serif" font-size="10.00">SuiteCRMAddIn.BusinessLogic.</text>
<text text-anchor="middle" x="543.5" y="-56.5" font-family="Helvetica,sans-Serif" font-size="10.00">SyncDirection.AllowOutbound</text>
</a>
</g>
</g>
<!-- Node2&#45;&gt;Node5 -->
<g id="edge4" class="edge"><title>Node2&#45;&gt;Node5</title>
<path fill="none" stroke="midnightblue" d="M417.045,-64.5C429.313,-64.5 441.934,-64.5 454.225,-64.5"/>
<polygon fill="midnightblue" stroke="midnightblue" points="454.456,-68.0001 464.456,-64.5 454.456,-61.0001 454.456,-68.0001"/>
</g>
<!-- Node6 -->
<g id="node6" class="node"><title>Node6</title>
<g id="a_node6"><a xlink:href="class_suite_c_r_m_add_in_1_1_business_logic_1_1_sync_direction.html#a96a16ea01111b3c05734e87d75eeef96" target="_top" xlink:title="Does this direction allow inbound transfers to Outlook? ">
<polygon fill="white" stroke="black" points="464.5,-0.5 464.5,-30.5 622.5,-30.5 622.5,-0.5 464.5,-0.5"/>
<text text-anchor="start" x="472.5" y="-18.5" font-family="Helvetica,sans-Serif" font-size="10.00">SuiteCRMAddIn.BusinessLogic.</text>
<text text-anchor="middle" x="543.5" y="-7.5" font-family="Helvetica,sans-Serif" font-size="10.00">SyncDirection.AllowInbound</text>
</a>
</g>
</g>
<!-- Node2&#45;&gt;Node6 -->
<g id="edge5" class="edge"><title>Node2&#45;&gt;Node6</title>
<path fill="none" stroke="midnightblue" d="M395.201,-49.4654C418.046,-44.1976 443.883,-38.2399 467.468,-32.8016"/>
<polygon fill="midnightblue" stroke="midnightblue" points="468.464,-36.1637 477.422,-30.5062 466.891,-29.3427 468.464,-36.1637"/>
</g>
<!-- Node4 -->
<g id="node4" class="node"><title>Node4</title>
<g id="a_node4"><a xlink:href="class_suite_c_r_m_client_1_1cls_suite_c_r_m_helper.html#a80f04ec3ab185a736b6633c0df69c536" target="_top" xlink:title="SuiteCRMClient.clsSuiteCRMHelper.\lEnsureLoggedIn">
<polygon fill="white" stroke="black" points="670,-98.5 670,-128.5 851,-128.5 851,-98.5 670,-98.5"/>
<text text-anchor="start" x="678" y="-116.5" font-family="Helvetica,sans-Serif" font-size="10.00">SuiteCRMClient.clsSuiteCRMHelper.</text>
<text text-anchor="middle" x="760.5" y="-105.5" font-family="Helvetica,sans-Serif" font-size="10.00">EnsureLoggedIn</text>
</a>
</g>
</g>
<!-- Node3&#45;&gt;Node4 -->
<g id="edge3" class="edge"><title>Node3&#45;&gt;Node4</title>
<path fill="none" stroke="midnightblue" d="M634.123,-113.5C642.478,-113.5 650.982,-113.5 659.424,-113.5"/>
<polygon fill="midnightblue" stroke="midnightblue" points="659.677,-117 669.677,-113.5 659.677,-110 659.677,-117"/>
</g>
</g>
</svg>
