<?xml version="1.0" encoding="UTF-8" standalone="no"?>
<!DOCTYPE svg PUBLIC "-//W3C//DTD SVG 1.1//EN"
 "http://www.w3.org/Graphics/SVG/1.1/DTD/svg11.dtd">
<!-- Generated by graphviz version 2.38.0 (20140413.2041)
 -->
<!-- Title: SuiteCRMAddIn.BusinessLogic.AppointmentSyncing.AddOrUpdateItemFromOutlookToCrm Pages: 1 -->
<svg width="478pt" height="99pt"
 viewBox="0.00 0.00 478.00 98.50" xmlns="http://www.w3.org/2000/svg" xmlns:xlink="http://www.w3.org/1999/xlink">
<g id="graph0" class="graph" transform="scale(1 1) rotate(0) translate(4 94.5)">
<title>SuiteCRMAddIn.BusinessLogic.AppointmentSyncing.AddOrUpdateItemFromOutlookToCrm</title>
<polygon fill="white" stroke="none" points="-4,4 -4,-94.5 474,-94.5 474,4 -4,4"/>
<!-- Node1 -->
<g id="node1" class="node"><title>Node1</title>
<polygon fill="#bfbfbf" stroke="black" points="0,-22 0,-63 188,-63 188,-22 0,-22"/>
<text text-anchor="start" x="8" y="-51" font-family="Helvetica,sans-Serif" font-size="10.00">SuiteCRMAddIn.BusinessLogic.</text>
<text text-anchor="start" x="8" y="-40" font-family="Helvetica,sans-Serif" font-size="10.00">AppointmentSyncing.AddOrUpdateItem</text>
<text text-anchor="middle" x="94" y="-29" font-family="Helvetica,sans-Serif" font-size="10.00">FromOutlookToCrm</text>
</g>
<!-- Node2 -->
<g id="node2" class="node"><title>Node2</title>
<g id="a_node2"><a xlink:href="class_suite_c_r_m_add_in_1_1_business_logic_1_1_synchroniser.html#afd9141a746526bfab3c4488bc4103ccc" target="_top" xlink:title="Perform all the necessary checking before adding or updating an item on CRM. ">
<polygon fill="white" stroke="black" points="224,-49 224,-90 470,-90 470,-49 224,-49"/>
<text text-anchor="start" x="232" y="-78" font-family="Helvetica,sans-Serif" font-size="10.00">SuiteCRMAddIn.BusinessLogic.</text>
<text text-anchor="start" x="232" y="-67" font-family="Helvetica,sans-Serif" font-size="10.00">Synchroniser&lt; Outlook.Appointment</text>
<text text-anchor="middle" x="347" y="-56" font-family="Helvetica,sans-Serif" font-size="10.00">Item &gt;::ShouldAddOrUpdateItemFromOutlookToCrm</text>
</a>
</g>
</g>
<!-- Node1&#45;&gt;Node2 -->
<g id="edge1" class="edge"><title>Node1&#45;&gt;Node2</title>
<path fill="none" stroke="midnightblue" d="M188.106,-52.5154C196.429,-53.4107 204.956,-54.328 213.527,-55.2499"/>
<polygon fill="midnightblue" stroke="midnightblue" points="213.281,-58.7436 223.598,-56.3333 214.03,-51.7838 213.281,-58.7436"/>
</g>
<!-- Node3 -->
<g id="node3" class="node"><title>Node3</title>
<g id="a_node3"><a xlink:href="class_suite_c_r_m_add_in_1_1_business_logic_1_1_appointment_syncing.html#a505217ef3946d0f9996301472cabc026" target="_top" xlink:title="Log a message regarding this Outlook appointment. ">
<polygon fill="white" stroke="black" points="260.5,-0.5 260.5,-30.5 433.5,-30.5 433.5,-0.5 260.5,-0.5"/>
<text text-anchor="start" x="268.5" y="-18.5" font-family="Helvetica,sans-Serif" font-size="10.00">SuiteCRMAddIn.BusinessLogic.</text>
<text text-anchor="middle" x="347" y="-7.5" font-family="Helvetica,sans-Serif" font-size="10.00">AppointmentSyncing.LogItemAction</text>
</a>
</g>
</g>
<!-- Node1&#45;&gt;Node3 -->
<g id="edge2" class="edge"><title>Node1&#45;&gt;Node3</title>
<path fill="none" stroke="midnightblue" d="M188.106,-32.4846C208.277,-30.3148 229.646,-28.0162 249.928,-25.8345"/>
<polygon fill="midnightblue" stroke="midnightblue" points="250.535,-29.2894 260.103,-24.7399 249.786,-22.3296 250.535,-29.2894"/>
</g>
</g>
</svg>
