<?xml version="1.0" encoding="UTF-8" standalone="no"?>
<!DOCTYPE svg PUBLIC "-//W3C//DTD SVG 1.1//EN"
 "http://www.w3.org/Graphics/SVG/1.1/DTD/svg11.dtd">
<!-- Generated by graphviz version 2.38.0 (20140413.2041)
 -->
<!-- Title: SuiteCRMAddIn.BusinessLogic.Synchroniser.AddOrUpdateItemFromOutlookToCrm Pages: 1 -->
<svg width="396pt" height="99pt"
 viewBox="0.00 0.00 396.00 98.50" xmlns="http://www.w3.org/2000/svg" xmlns:xlink="http://www.w3.org/1999/xlink">
<g id="graph0" class="graph" transform="scale(1 1) rotate(0) translate(4 94.5)">
<title>SuiteCRMAddIn.BusinessLogic.Synchroniser.AddOrUpdateItemFromOutlookToCrm</title>
<polygon fill="white" stroke="none" points="-4,4 -4,-94.5 392,-94.5 392,4 -4,4"/>
<!-- Node1 -->
<g id="node1" class="node"><title>Node1</title>
<polygon fill="#bfbfbf" stroke="black" points="0,-22 0,-63 178,-63 178,-22 0,-22"/>
<text text-anchor="start" x="8" y="-51" font-family="Helvetica,sans-Serif" font-size="10.00">SuiteCRMAddIn.BusinessLogic.</text>
<text text-anchor="start" x="8" y="-40" font-family="Helvetica,sans-Serif" font-size="10.00">Synchroniser.AddOrUpdateItemFrom</text>
<text text-anchor="middle" x="89" y="-29" font-family="Helvetica,sans-Serif" font-size="10.00">OutlookToCrm</text>
</g>
<!-- Node1&#45;&gt;Node1 -->
<g id="edge2" class="edge"><title>Node1&#45;&gt;Node1</title>
<path fill="none" stroke="midnightblue" d="M52.5267,-73.3561C57.9506,-78.1966 70.1084,-81.5 89,-81.5 119.227,-81.5 132.215,-73.0433 127.964,-63.3644"/>
<polygon fill="midnightblue" stroke="midnightblue" points="55.8509,-72.221 50.0361,-63.3644 49.0587,-73.9141 55.8509,-72.221"/>
</g>
<!-- Node2 -->
<g id="node2" class="node"><title>Node2</title>
<g id="a_node2"><a xlink:href="class_suite_c_r_m_add_in_1_1_business_logic_1_1_synchroniser.html#a483e9fe3f7b8356dd85b53d7d4014f50" target="_top" xlink:title="Given a list of items which exist in Outlook but are missing from CRM, resolve how to handle them...">
<polygon fill="white" stroke="black" points="214,-49 214,-90 388,-90 388,-49 214,-49"/>
<text text-anchor="start" x="222" y="-78" font-family="Helvetica,sans-Serif" font-size="10.00">SuiteCRMAddIn.BusinessLogic.</text>
<text text-anchor="start" x="222" y="-67" font-family="Helvetica,sans-Serif" font-size="10.00">Synchroniser&lt; Outlook.Appointment</text>
<text text-anchor="middle" x="301" y="-56" font-family="Helvetica,sans-Serif" font-size="10.00">Item &gt;::ResolveUnmatchedItems</text>
</a>
</g>
</g>
<!-- Node1&#45;&gt;Node2 -->
<g id="edge1" class="edge"><title>Node1&#45;&gt;Node2</title>
<path fill="none" stroke="midnightblue" d="M188.146,-55.1187C196.699,-56.2185 205.314,-57.326 213.761,-58.4121"/>
<polygon fill="midnightblue" stroke="midnightblue" points="188.511,-51.637 178.146,-53.8331 187.618,-58.5798 188.511,-51.637"/>
</g>
<!-- Node3 -->
<g id="node3" class="node"><title>Node3</title>
<g id="a_node3"><a xlink:href="class_suite_c_r_m_add_in_1_1_daemon_1_1_transmit_new_action.html#a55790387c92492d415f9745f35977082" target="_top" xlink:title="Perform this action. ">
<polygon fill="white" stroke="black" points="216.5,-0.5 216.5,-30.5 385.5,-30.5 385.5,-0.5 216.5,-0.5"/>
<text text-anchor="start" x="224.5" y="-18.5" font-family="Helvetica,sans-Serif" font-size="10.00">SuiteCRMAddIn.Daemon.Transmit</text>
<text text-anchor="middle" x="301" y="-7.5" font-family="Helvetica,sans-Serif" font-size="10.00">NewAction.Perform</text>
</a>
</g>
</g>
<!-- Node1&#45;&gt;Node3 -->
<g id="edge3" class="edge"><title>Node1&#45;&gt;Node3</title>
<path fill="none" stroke="midnightblue" d="M188.31,-29.8601C197.716,-28.6507 207.195,-27.4321 216.441,-26.2433"/>
<polygon fill="midnightblue" stroke="midnightblue" points="187.618,-26.4202 178.146,-31.1669 188.511,-33.363 187.618,-26.4202"/>
</g>
</g>
</svg>
