<?xml version="1.0" encoding="UTF-8" standalone="no"?>
<!DOCTYPE svg PUBLIC "-//W3C//DTD SVG 1.1//EN"
 "http://www.w3.org/Graphics/SVG/1.1/DTD/svg11.dtd">
<!-- Generated by graphviz version 2.38.0 (20140413.2041)
 -->
<!-- Title: SuiteCRMAddIn.ThisAddIn.ShowSettingsForm Pages: 1 -->
<svg width="586pt" height="230pt"
 viewBox="0.00 0.00 586.00 230.00" xmlns="http://www.w3.org/2000/svg" xmlns:xlink="http://www.w3.org/1999/xlink">
<g id="graph0" class="graph" transform="scale(1 1) rotate(0) translate(4 226)">
<title>SuiteCRMAddIn.ThisAddIn.ShowSettingsForm</title>
<polygon fill="white" stroke="none" points="-4,4 -4,-226 582,-226 582,4 -4,4"/>
<!-- Node1 -->
<g id="node1" class="node"><title>Node1</title>
<polygon fill="#bfbfbf" stroke="black" points="0,-93.5 0,-123.5 138,-123.5 138,-93.5 0,-93.5"/>
<text text-anchor="start" x="8" y="-111.5" font-family="Helvetica,sans-Serif" font-size="10.00">SuiteCRMAddIn.ThisAddIn.</text>
<text text-anchor="middle" x="69" y="-100.5" font-family="Helvetica,sans-Serif" font-size="10.00">ShowSettingsForm</text>
</g>
<!-- Node2 -->
<g id="node2" class="node"><title>Node2</title>
<g id="a_node2"><a xlink:href="class_suite_c_r_m_add_in_1_1_dialogs_1_1frm_address_book.html#a3f4f6f3af970c21ddfe73c19c93e02d2" target="_top" xlink:title="SuiteCRMAddIn.Dialogs.frm\lAddressBook.frmAddressBook">
<polygon fill="white" stroke="black" points="190.5,-191.5 190.5,-221.5 341.5,-221.5 341.5,-191.5 190.5,-191.5"/>
<text text-anchor="start" x="198.5" y="-209.5" font-family="Helvetica,sans-Serif" font-size="10.00">SuiteCRMAddIn.Dialogs.frm</text>
<text text-anchor="middle" x="266" y="-198.5" font-family="Helvetica,sans-Serif" font-size="10.00">AddressBook.frmAddressBook</text>
</a>
</g>
</g>
<!-- Node1&#45;&gt;Node2 -->
<g id="edge1" class="edge"><title>Node1&#45;&gt;Node2</title>
<path fill="none" stroke="midnightblue" d="M94.9181,-130.178C115.037,-146.666 144.723,-168.783 174,-182.5 181.25,-185.897 189.058,-188.872 196.946,-191.464"/>
<polygon fill="midnightblue" stroke="midnightblue" points="97.0949,-127.436 87.1729,-123.721 92.6122,-132.813 97.0949,-127.436"/>
</g>
<!-- Node3 -->
<g id="node3" class="node"><title>Node3</title>
<g id="a_node3"><a xlink:href="class_suite_c_r_m_add_in_1_1_suite_c_r_m_ribbon.html#ac7bad1d88ebad66fa5002435b445767d" target="_top" xlink:title="SuiteCRMAddIn.SuiteCRMRibbon.btn\lSettings_Action">
<polygon fill="white" stroke="black" points="174,-142.5 174,-172.5 358,-172.5 358,-142.5 174,-142.5"/>
<text text-anchor="start" x="182" y="-160.5" font-family="Helvetica,sans-Serif" font-size="10.00">SuiteCRMAddIn.SuiteCRMRibbon.btn</text>
<text text-anchor="middle" x="266" y="-149.5" font-family="Helvetica,sans-Serif" font-size="10.00">Settings_Action</text>
</a>
</g>
</g>
<!-- Node1&#45;&gt;Node3 -->
<g id="edge2" class="edge"><title>Node1&#45;&gt;Node3</title>
<path fill="none" stroke="midnightblue" d="M139.551,-125.977C161.043,-131.377 184.515,-137.276 205.282,-142.494"/>
<polygon fill="midnightblue" stroke="midnightblue" points="140.383,-122.577 129.832,-123.535 138.677,-129.366 140.383,-122.577"/>
</g>
<!-- Node4 -->
<g id="node4" class="node"><title>Node4</title>
<g id="a_node4"><a xlink:href="class_suite_c_r_m_add_in_1_1_suite_c_r_m_ribbon.html#ae7ab1a21f9a62df6f3c3138c99358a6c" target="_top" xlink:title="Send, and also archive to CRM, the current message in the composer window. ">
<polygon fill="white" stroke="black" points="174,-93.5 174,-123.5 358,-123.5 358,-93.5 174,-93.5"/>
<text text-anchor="start" x="182" y="-111.5" font-family="Helvetica,sans-Serif" font-size="10.00">SuiteCRMAddIn.SuiteCRMRibbon.btn</text>
<text text-anchor="middle" x="266" y="-100.5" font-family="Helvetica,sans-Serif" font-size="10.00">SendAndArchive_Action</text>
</a>
</g>
</g>
<!-- Node1&#45;&gt;Node4 -->
<g id="edge3" class="edge"><title>Node1&#45;&gt;Node4</title>
<path fill="none" stroke="midnightblue" d="M148.335,-108.5C156.738,-108.5 165.339,-108.5 173.874,-108.5"/>
<polygon fill="midnightblue" stroke="midnightblue" points="148.202,-105 138.202,-108.5 148.202,-112 148.202,-105"/>
</g>
<!-- Node5 -->
<g id="node5" class="node"><title>Node5</title>
<g id="a_node5"><a xlink:href="class_suite_c_r_m_add_in_1_1_this_add_in.html#a4672086c412924ca3bf5c6aa52466c89" target="_top" xlink:title="SuiteCRMAddIn.ThisAddIn.\lStartSynchronisationProcesses">
<polygon fill="white" stroke="black" points="409,-49.5 409,-79.5 563,-79.5 563,-49.5 409,-49.5"/>
<text text-anchor="start" x="417" y="-67.5" font-family="Helvetica,sans-Serif" font-size="10.00">SuiteCRMAddIn.ThisAddIn.</text>
<text text-anchor="middle" x="486" y="-56.5" font-family="Helvetica,sans-Serif" font-size="10.00">StartSynchronisationProcesses</text>
</a>
</g>
</g>
<!-- Node1&#45;&gt;Node5 -->
<g id="edge4" class="edge"><title>Node1&#45;&gt;Node5</title>
<path fill="none" stroke="midnightblue" d="M137.477,-91.2536C149.573,-88.6417 162.111,-86.2422 174,-84.5 253.63,-72.8306 345.723,-67.9698 408.91,-65.9452"/>
<polygon fill="midnightblue" stroke="midnightblue" points="136.444,-87.8978 127.444,-93.4878 137.965,-94.7304 136.444,-87.8978"/>
</g>
<!-- Node6 -->
<g id="node6" class="node"><title>Node6</title>
<g id="a_node6"><a xlink:href="class_suite_c_r_m_add_in_1_1_this_add_in.html#a3d3136423943e3e4f71d3ea2b1062147" target="_top" xlink:title="SuiteCRMAddIn.ThisAddIn.\lManualArchive">
<polygon fill="white" stroke="black" points="197,-5.5 197,-35.5 335,-35.5 335,-5.5 197,-5.5"/>
<text text-anchor="start" x="205" y="-23.5" font-family="Helvetica,sans-Serif" font-size="10.00">SuiteCRMAddIn.ThisAddIn.</text>
<text text-anchor="middle" x="266" y="-12.5" font-family="Helvetica,sans-Serif" font-size="10.00">ManualArchive</text>
</a>
</g>
</g>
<!-- Node1&#45;&gt;Node6 -->
<g id="edge5" class="edge"><title>Node1&#45;&gt;Node6</title>
<path fill="none" stroke="midnightblue" d="M102.86,-88.051C122.924,-76.107 149.376,-61.3078 174,-50.5 186.491,-45.0178 200.316,-39.9697 213.34,-35.6399"/>
<polygon fill="midnightblue" stroke="midnightblue" points="100.882,-85.1565 94.1206,-93.3132 104.493,-91.1533 100.882,-85.1565"/>
</g>
<!-- Node6&#45;&gt;Node5 -->
<g id="edge7" class="edge"><title>Node6&#45;&gt;Node5</title>
<path fill="none" stroke="midnightblue" d="M345.077,-36.2586C366.422,-40.5668 389.492,-45.2232 410.625,-49.4884"/>
<polygon fill="midnightblue" stroke="midnightblue" points="345.575,-32.7886 335.08,-34.2409 344.19,-39.6502 345.575,-32.7886"/>
</g>
<!-- Node7 -->
<g id="node7" class="node"><title>Node7</title>
<g id="a_node7"><a xlink:href="class_suite_c_r_m_add_in_1_1_suite_c_r_m_ribbon.html#af45e3d97607869f229558ab49c84379b" target="_top" xlink:title="SuiteCRMAddIn.SuiteCRMRibbon.btn\lArchive_Action">
<polygon fill="white" stroke="black" points="394,-0.5 394,-30.5 578,-30.5 578,-0.5 394,-0.5"/>
<text text-anchor="start" x="402" y="-18.5" font-family="Helvetica,sans-Serif" font-size="10.00">SuiteCRMAddIn.SuiteCRMRibbon.btn</text>
<text text-anchor="middle" x="486" y="-7.5" font-family="Helvetica,sans-Serif" font-size="10.00">Archive_Action</text>
</a>
</g>
</g>
<!-- Node6&#45;&gt;Node7 -->
<g id="edge6" class="edge"><title>Node6&#45;&gt;Node7</title>
<path fill="none" stroke="midnightblue" d="M345.279,-18.7046C361.027,-18.3434 377.707,-17.9608 393.85,-17.5906"/>
<polygon fill="midnightblue" stroke="midnightblue" points="344.997,-15.2101 335.08,-18.9385 345.158,-22.2082 344.997,-15.2101"/>
</g>
</g>
</svg>
