<?xml version="1.0" encoding="UTF-8" standalone="no"?>
<!DOCTYPE svg PUBLIC "-//W3C//DTD SVG 1.1//EN"
 "http://www.w3.org/Graphics/SVG/1.1/DTD/svg11.dtd">
<!-- Generated by graphviz version 2.38.0 (20140413.2041)
 -->
<!-- Title: SuiteCRMAddIn.BusinessLogic.CRMPermissionsCache.HasImportExportAccess Pages: 1 -->
<svg width="1095pt" height="137pt"
 viewBox="0.00 0.00 1095.00 137.00" xmlns="http://www.w3.org/2000/svg" xmlns:xlink="http://www.w3.org/1999/xlink">
<g id="graph0" class="graph" transform="scale(1 1) rotate(0) translate(4 133)">
<title>SuiteCRMAddIn.BusinessLogic.CRMPermissionsCache.HasImportExportAccess</title>
<polygon fill="white" stroke="none" points="-4,4 -4,-133 1091,-133 1091,4 -4,4"/>
<!-- Node1 -->
<g id="node1" class="node"><title>Node1</title>
<polygon fill="#bfbfbf" stroke="black" points="0,-19 0,-60 200,-60 200,-19 0,-19"/>
<text text-anchor="start" x="8" y="-48" font-family="Helvetica,sans-Serif" font-size="10.00">SuiteCRMAddIn.BusinessLogic.</text>
<text text-anchor="start" x="8" y="-37" font-family="Helvetica,sans-Serif" font-size="10.00">CRMPermissionsCache.HasImportExport</text>
<text text-anchor="middle" x="100" y="-26" font-family="Helvetica,sans-Serif" font-size="10.00">Access</text>
</g>
<!-- Node2 -->
<g id="node2" class="node"><title>Node2</title>
<g id="a_node2"><a xlink:href="class_suite_c_r_m_add_in_1_1_business_logic_1_1_c_r_m_permissions_cache.html#ae9c79ed281f1327a689fdd041641b947" target="_top" xlink:title="Check whether my synchroniser is allowed import access for the specified CRM module. ">
<polygon fill="white" stroke="black" points="236.5,-49.5 236.5,-79.5 440.5,-79.5 440.5,-49.5 236.5,-49.5"/>
<text text-anchor="start" x="244.5" y="-67.5" font-family="Helvetica,sans-Serif" font-size="10.00">SuiteCRMAddIn.BusinessLogic.</text>
<text text-anchor="middle" x="338.5" y="-56.5" font-family="Helvetica,sans-Serif" font-size="10.00">CRMPermissionsCache.HasImportAccess</text>
</a>
</g>
</g>
<!-- Node1&#45;&gt;Node2 -->
<g id="edge1" class="edge"><title>Node1&#45;&gt;Node2</title>
<path fill="none" stroke="midnightblue" d="M200.269,-49.9936C208.81,-50.8964 217.486,-51.8135 226.113,-52.7255"/>
<polygon fill="midnightblue" stroke="midnightblue" points="225.894,-56.2218 236.207,-53.7925 226.63,-49.2606 225.894,-56.2218"/>
</g>
<!-- Node8 -->
<g id="node8" class="node"><title>Node8</title>
<g id="a_node8"><a xlink:href="class_suite_c_r_m_add_in_1_1_business_logic_1_1_c_r_m_permissions_cache.html#a9ea223961813f76467b4ee2fd1e192a6" target="_top" xlink:title="Check whether my synchroniser is allowed export access for its default CRM module. ">
<polygon fill="white" stroke="black" points="236,-0.5 236,-30.5 441,-30.5 441,-0.5 236,-0.5"/>
<text text-anchor="start" x="244" y="-18.5" font-family="Helvetica,sans-Serif" font-size="10.00">SuiteCRMAddIn.BusinessLogic.</text>
<text text-anchor="middle" x="338.5" y="-7.5" font-family="Helvetica,sans-Serif" font-size="10.00">CRMPermissionsCache.HasExportAccess</text>
</a>
</g>
</g>
<!-- Node1&#45;&gt;Node8 -->
<g id="edge7" class="edge"><title>Node1&#45;&gt;Node8</title>
<path fill="none" stroke="midnightblue" d="M200.269,-29.4262C208.719,-28.5687 217.301,-27.6978 225.838,-26.8315"/>
<polygon fill="midnightblue" stroke="midnightblue" points="226.231,-30.3096 235.827,-25.8178 225.525,-23.3454 226.231,-30.3096"/>
</g>
<!-- Node3 -->
<g id="node3" class="node"><title>Node3</title>
<g id="a_node3"><a xlink:href="class_suite_c_r_m_add_in_1_1_business_logic_1_1_c_r_m_permissions_cache.html#ae827e3294d872f8fedc440b83ad0b8d2" target="_top" xlink:title="Check whether my synchroniser is allowed access to the specified CRM module, with the specified permi...">
<polygon fill="white" stroke="black" points="477,-49.5 477,-79.5 653,-79.5 653,-49.5 477,-49.5"/>
<text text-anchor="start" x="485" y="-67.5" font-family="Helvetica,sans-Serif" font-size="10.00">SuiteCRMAddIn.BusinessLogic.</text>
<text text-anchor="middle" x="565" y="-56.5" font-family="Helvetica,sans-Serif" font-size="10.00">CRMPermissionsCache.HasAccess</text>
</a>
</g>
</g>
<!-- Node2&#45;&gt;Node3 -->
<g id="edge2" class="edge"><title>Node2&#45;&gt;Node3</title>
<path fill="none" stroke="midnightblue" d="M440.585,-64.5C449.285,-64.5 458.075,-64.5 466.743,-64.5"/>
<polygon fill="midnightblue" stroke="midnightblue" points="466.851,-68.0001 476.851,-64.5 466.851,-61.0001 466.851,-68.0001"/>
</g>
<!-- Node4 -->
<g id="node4" class="node"><title>Node4</title>
<g id="a_node4"><a xlink:href="class_suite_c_r_m_client_1_1cls_suite_c_r_m_helper.html#afd19c20b8c3d82655e35d46d7829197f" target="_top" xlink:title="Get the list of modules installed in the connected CRM instance, with their associated access control...">
<polygon fill="white" stroke="black" points="689,-98.5 689,-128.5 870,-128.5 870,-98.5 689,-98.5"/>
<text text-anchor="start" x="697" y="-116.5" font-family="Helvetica,sans-Serif" font-size="10.00">SuiteCRMClient.clsSuiteCRMHelper.</text>
<text text-anchor="middle" x="779.5" y="-105.5" font-family="Helvetica,sans-Serif" font-size="10.00">GetModules</text>
</a>
</g>
</g>
<!-- Node3&#45;&gt;Node4 -->
<g id="edge3" class="edge"><title>Node3&#45;&gt;Node4</title>
<path fill="none" stroke="midnightblue" d="M631.201,-79.5346C654.046,-84.8024 679.883,-90.7601 703.468,-96.1984"/>
<polygon fill="midnightblue" stroke="midnightblue" points="702.891,-99.6573 713.422,-98.4938 704.464,-92.8363 702.891,-99.6573"/>
</g>
<!-- Node6 -->
<g id="node6" class="node"><title>Node6</title>
<g id="a_node6"><a xlink:href="class_suite_c_r_m_add_in_1_1_business_logic_1_1_sync_direction.html#ad456cb19bab5eb78bc35f7b305274d01" target="_top" xlink:title="Does this direction allow outbound transfers from Outlook? ">
<polygon fill="white" stroke="black" points="700.5,-49.5 700.5,-79.5 858.5,-79.5 858.5,-49.5 700.5,-49.5"/>
<text text-anchor="start" x="708.5" y="-67.5" font-family="Helvetica,sans-Serif" font-size="10.00">SuiteCRMAddIn.BusinessLogic.</text>
<text text-anchor="middle" x="779.5" y="-56.5" font-family="Helvetica,sans-Serif" font-size="10.00">SyncDirection.AllowOutbound</text>
</a>
</g>
</g>
<!-- Node3&#45;&gt;Node6 -->
<g id="edge5" class="edge"><title>Node3&#45;&gt;Node6</title>
<path fill="none" stroke="midnightblue" d="M653.045,-64.5C665.313,-64.5 677.934,-64.5 690.225,-64.5"/>
<polygon fill="midnightblue" stroke="midnightblue" points="690.456,-68.0001 700.456,-64.5 690.456,-61.0001 690.456,-68.0001"/>
</g>
<!-- Node7 -->
<g id="node7" class="node"><title>Node7</title>
<g id="a_node7"><a xlink:href="class_suite_c_r_m_add_in_1_1_business_logic_1_1_sync_direction.html#a96a16ea01111b3c05734e87d75eeef96" target="_top" xlink:title="Does this direction allow inbound transfers to Outlook? ">
<polygon fill="white" stroke="black" points="700.5,-0.5 700.5,-30.5 858.5,-30.5 858.5,-0.5 700.5,-0.5"/>
<text text-anchor="start" x="708.5" y="-18.5" font-family="Helvetica,sans-Serif" font-size="10.00">SuiteCRMAddIn.BusinessLogic.</text>
<text text-anchor="middle" x="779.5" y="-7.5" font-family="Helvetica,sans-Serif" font-size="10.00">SyncDirection.AllowInbound</text>
</a>
</g>
</g>
<!-- Node3&#45;&gt;Node7 -->
<g id="edge6" class="edge"><title>Node3&#45;&gt;Node7</title>
<path fill="none" stroke="midnightblue" d="M631.201,-49.4654C654.046,-44.1976 679.883,-38.2399 703.468,-32.8016"/>
<polygon fill="midnightblue" stroke="midnightblue" points="704.464,-36.1637 713.422,-30.5062 702.891,-29.3427 704.464,-36.1637"/>
</g>
<!-- Node5 -->
<g id="node5" class="node"><title>Node5</title>
<g id="a_node5"><a xlink:href="class_suite_c_r_m_client_1_1cls_suite_c_r_m_helper.html#a80f04ec3ab185a736b6633c0df69c536" target="_top" xlink:title="SuiteCRMClient.clsSuiteCRMHelper.\lEnsureLoggedIn">
<polygon fill="white" stroke="black" points="906,-98.5 906,-128.5 1087,-128.5 1087,-98.5 906,-98.5"/>
<text text-anchor="start" x="914" y="-116.5" font-family="Helvetica,sans-Serif" font-size="10.00">SuiteCRMClient.clsSuiteCRMHelper.</text>
<text text-anchor="middle" x="996.5" y="-105.5" font-family="Helvetica,sans-Serif" font-size="10.00">EnsureLoggedIn</text>
</a>
</g>
</g>
<!-- Node4&#45;&gt;Node5 -->
<g id="edge4" class="edge"><title>Node4&#45;&gt;Node5</title>
<path fill="none" stroke="midnightblue" d="M870.123,-113.5C878.478,-113.5 886.982,-113.5 895.424,-113.5"/>
<polygon fill="midnightblue" stroke="midnightblue" points="895.677,-117 905.677,-113.5 895.677,-110 895.677,-117"/>
</g>
</g>
</svg>
