<?xml version="1.0" encoding="UTF-8" standalone="no"?>
<!DOCTYPE svg PUBLIC "-//W3C//DTD SVG 1.1//EN"
 "http://www.w3.org/Graphics/SVG/1.1/DTD/svg11.dtd">
<!-- Generated by graphviz version 2.38.0 (20140413.2041)
 -->
<!-- Title: SuiteCRMClient.UserSession.AuthenticateLDAP Pages: 1 -->
<svg width="735pt" height="137pt"
 viewBox="0.00 0.00 735.00 137.00" xmlns="http://www.w3.org/2000/svg" xmlns:xlink="http://www.w3.org/1999/xlink">
<g id="graph0" class="graph" transform="scale(1 1) rotate(0) translate(4 133)">
<title>SuiteCRMClient.UserSession.AuthenticateLDAP</title>
<polygon fill="white" stroke="none" points="-4,4 -4,-133 731,-133 731,4 -4,4"/>
<!-- Node1 -->
<g id="node1" class="node"><title>Node1</title>
<polygon fill="#bfbfbf" stroke="black" points="0,-49.5 0,-79.5 150,-79.5 150,-49.5 0,-49.5"/>
<text text-anchor="start" x="8" y="-67.5" font-family="Helvetica,sans-Serif" font-size="10.00">SuiteCRMClient.UserSession.</text>
<text text-anchor="middle" x="75" y="-56.5" font-family="Helvetica,sans-Serif" font-size="10.00">AuthenticateLDAP</text>
</g>
<!-- Node2 -->
<g id="node2" class="node"><title>Node2</title>
<g id="a_node2"><a xlink:href="class_suite_c_r_m_add_in_1_1_dialogs_1_1_settings_dialog.html#a55bf341eb6cf34acaa004c221719b4ba" target="_top" xlink:title="SuiteCRMAddIn.Dialogs.Settings\lDialog.SettingsDialog">
<polygon fill="white" stroke="black" points="381,-98.5 381,-128.5 544,-128.5 544,-98.5 381,-98.5"/>
<text text-anchor="start" x="389" y="-116.5" font-family="Helvetica,sans-Serif" font-size="10.00">SuiteCRMAddIn.Dialogs.Settings</text>
<text text-anchor="middle" x="462.5" y="-105.5" font-family="Helvetica,sans-Serif" font-size="10.00">Dialog.SettingsDialog</text>
</a>
</g>
</g>
<!-- Node1&#45;&gt;Node2 -->
<g id="edge1" class="edge"><title>Node1&#45;&gt;Node2</title>
<path fill="none" stroke="midnightblue" d="M148.466,-81.6467C160.935,-84.2135 173.805,-86.6237 186,-88.5 251.15,-98.5235 325.631,-104.985 380.711,-108.823"/>
<polygon fill="midnightblue" stroke="midnightblue" points="149.079,-78.1991 138.572,-79.5619 147.636,-85.0487 149.079,-78.1991"/>
</g>
<!-- Node3 -->
<g id="node3" class="node"><title>Node3</title>
<g id="a_node3"><a xlink:href="class_suite_c_r_m_add_in_1_1_this_add_in.html#aee77aec45c87898261c4ca5f91ae2476" target="_top" xlink:title="SuiteCRMAddIn.ThisAddIn.\lAuthenticate">
<polygon fill="white" stroke="black" points="393.5,-0.5 393.5,-30.5 531.5,-30.5 531.5,-0.5 393.5,-0.5"/>
<text text-anchor="start" x="401.5" y="-18.5" font-family="Helvetica,sans-Serif" font-size="10.00">SuiteCRMAddIn.ThisAddIn.</text>
<text text-anchor="middle" x="462.5" y="-7.5" font-family="Helvetica,sans-Serif" font-size="10.00">Authenticate</text>
</a>
</g>
</g>
<!-- Node1&#45;&gt;Node3 -->
<g id="edge2" class="edge"><title>Node1&#45;&gt;Node3</title>
<path fill="none" stroke="midnightblue" d="M145.474,-47.2019C158.86,-44.2978 172.817,-41.5624 186,-39.5 256.202,-28.5173 337.313,-22.2118 393.256,-18.8463"/>
<polygon fill="midnightblue" stroke="midnightblue" points="144.374,-43.8609 135.371,-49.4472 145.892,-50.6942 144.374,-43.8609"/>
</g>
<!-- Node5 -->
<g id="node5" class="node"><title>Node5</title>
<g id="a_node5"><a xlink:href="class_suite_c_r_m_client_1_1_user_session.html#a8382d9c050d8e5da8924dc536cd03245" target="_top" xlink:title="Logs in to the CRM server. ">
<polygon fill="white" stroke="black" points="186,-49.5 186,-79.5 336,-79.5 336,-49.5 186,-49.5"/>
<text text-anchor="start" x="194" y="-67.5" font-family="Helvetica,sans-Serif" font-size="10.00">SuiteCRMClient.UserSession.</text>
<text text-anchor="middle" x="261" y="-56.5" font-family="Helvetica,sans-Serif" font-size="10.00">Login</text>
</a>
</g>
</g>
<!-- Node1&#45;&gt;Node5 -->
<g id="edge4" class="edge"><title>Node1&#45;&gt;Node5</title>
<path fill="none" stroke="midnightblue" d="M160.066,-64.5C168.654,-64.5 177.336,-64.5 185.808,-64.5"/>
<polygon fill="midnightblue" stroke="midnightblue" points="160.045,-61.0001 150.044,-64.5 160.044,-68.0001 160.045,-61.0001"/>
</g>
<!-- Node4 -->
<g id="node4" class="node"><title>Node4</title>
<g id="a_node4"><a xlink:href="class_suite_c_r_m_add_in_1_1_this_add_in.html#a7079a786abcf4e8a54fe271e79838ff1" target="_top" xlink:title="SuiteCRMAddIn.ThisAddIn.\lSuiteCRMAuthenticate">
<polygon fill="white" stroke="black" points="589,-0.5 589,-30.5 727,-30.5 727,-0.5 589,-0.5"/>
<text text-anchor="start" x="597" y="-18.5" font-family="Helvetica,sans-Serif" font-size="10.00">SuiteCRMAddIn.ThisAddIn.</text>
<text text-anchor="middle" x="658" y="-7.5" font-family="Helvetica,sans-Serif" font-size="10.00">SuiteCRMAuthenticate</text>
</a>
</g>
</g>
<!-- Node3&#45;&gt;Node4 -->
<g id="edge3" class="edge"><title>Node3&#45;&gt;Node4</title>
<path fill="none" stroke="midnightblue" d="M541.822,-15.5C557.366,-15.5 573.568,-15.5 588.743,-15.5"/>
<polygon fill="midnightblue" stroke="midnightblue" points="541.721,-12.0001 531.721,-15.5 541.721,-19.0001 541.721,-12.0001"/>
</g>
<!-- Node5&#45;&gt;Node2 -->
<g id="edge5" class="edge"><title>Node5&#45;&gt;Node2</title>
<path fill="none" stroke="midnightblue" d="M333.156,-81.9768C355.144,-87.3775 379.158,-93.2755 400.403,-98.4938"/>
<polygon fill="midnightblue" stroke="midnightblue" points="333.759,-78.521 323.212,-79.5346 332.089,-85.3189 333.759,-78.521"/>
</g>
<!-- Node5&#45;&gt;Node3 -->
<g id="edge6" class="edge"><title>Node5&#45;&gt;Node3</title>
<path fill="none" stroke="midnightblue" d="M333.156,-47.0232C355.144,-41.6225 379.158,-35.7245 400.403,-30.5062"/>
<polygon fill="midnightblue" stroke="midnightblue" points="332.089,-43.6811 323.212,-49.4654 333.759,-50.479 332.089,-43.6811"/>
</g>
<!-- Node6 -->
<g id="node6" class="node"><title>Node6</title>
<g id="a_node6"><a xlink:href="class_suite_c_r_m_client_1_1cls_suite_c_r_m_helper.html#a904c9976d221e646adedb16b93a7bd74" target="_top" xlink:title="SuiteCRMClient.clsSuiteCRMHelper.\lEnsureLoggedIn">
<polygon fill="white" stroke="black" points="372,-49.5 372,-79.5 553,-79.5 553,-49.5 372,-49.5"/>
<text text-anchor="start" x="380" y="-67.5" font-family="Helvetica,sans-Serif" font-size="10.00">SuiteCRMClient.clsSuiteCRMHelper.</text>
<text text-anchor="middle" x="462.5" y="-56.5" font-family="Helvetica,sans-Serif" font-size="10.00">EnsureLoggedIn</text>
</a>
</g>
</g>
<!-- Node5&#45;&gt;Node6 -->
<g id="edge7" class="edge"><title>Node5&#45;&gt;Node6</title>
<path fill="none" stroke="midnightblue" d="M346.209,-64.5C354.652,-64.5 363.247,-64.5 371.745,-64.5"/>
<polygon fill="midnightblue" stroke="midnightblue" points="346.003,-61.0001 336.003,-64.5 346.003,-68.0001 346.003,-61.0001"/>
</g>
</g>
</svg>
