<?xml version="1.0" encoding="UTF-8" standalone="no"?>
<!DOCTYPE svg PUBLIC "-//W3C//DTD SVG 1.1//EN"
 "http://www.w3.org/Graphics/SVG/1.1/DTD/svg11.dtd">
<!-- Generated by graphviz version 2.38.0 (20140413.2041)
 -->
<!-- Title: SuiteCRMClient.Logging.AbstractLogger Pages: 1 -->
<svg width="320pt" height="207pt"
 viewBox="0.00 0.00 319.50 207.00" xmlns="http://www.w3.org/2000/svg" xmlns:xlink="http://www.w3.org/1999/xlink">
<g id="graph0" class="graph" transform="scale(1 1) rotate(0) translate(4 203)">
<title>SuiteCRMClient.Logging.AbstractLogger</title>
<polygon fill="white" stroke="none" points="-4,4 -4,-203 315.5,-203 315.5,4 -4,4"/>
<!-- Node1 -->
<g id="node1" class="node"><title>Node1</title>
<polygon fill="#bfbfbf" stroke="black" points="68,-56.5 68,-86.5 232,-86.5 232,-56.5 68,-56.5"/>
<text text-anchor="start" x="76" y="-74.5" font-family="Helvetica,sans-Serif" font-size="10.00">SuiteCRMClient.Logging.Abstract</text>
<text text-anchor="middle" x="150" y="-63.5" font-family="Helvetica,sans-Serif" font-size="10.00">Logger</text>
</g>
<!-- Node4 -->
<g id="node4" class="node"><title>Node4</title>
<g id="a_node4"><a xlink:href="class_suite_c_r_m_add_in_1_1_file_logger.html" target="_top" xlink:title="A logger which logs to file? ">
<polygon fill="white" stroke="black" points="0,-0.5 0,-19.5 136,-19.5 136,-0.5 0,-0.5"/>
<text text-anchor="middle" x="68" y="-7.5" font-family="Helvetica,sans-Serif" font-size="10.00">SuiteCRMAddIn.FileLogger</text>
</a>
</g>
</g>
<!-- Node1&#45;&gt;Node4 -->
<g id="edge3" class="edge"><title>Node1&#45;&gt;Node4</title>
<path fill="none" stroke="midnightblue" d="M122.414,-50.483C107.968,-40.0013 91.0263,-27.7081 79.9317,-19.6578"/>
<polygon fill="midnightblue" stroke="midnightblue" points="120.418,-53.3592 130.567,-56.3993 124.529,-47.6936 120.418,-53.3592"/>
</g>
<!-- Node5 -->
<g id="node5" class="node"><title>Node5</title>
<g id="a_node5"><a xlink:href="class_suite_c_r_m_add_in_1_1_log4_net_logger.html" target="_top" xlink:title="SuiteCRMAddIn.Log4NetLogger">
<polygon fill="white" stroke="black" points="154.5,-0.5 154.5,-19.5 311.5,-19.5 311.5,-0.5 154.5,-0.5"/>
<text text-anchor="middle" x="233" y="-7.5" font-family="Helvetica,sans-Serif" font-size="10.00">SuiteCRMAddIn.Log4NetLogger</text>
</a>
</g>
</g>
<!-- Node1&#45;&gt;Node5 -->
<g id="edge4" class="edge"><title>Node1&#45;&gt;Node5</title>
<path fill="none" stroke="midnightblue" d="M177.923,-50.483C192.544,-40.0013 209.693,-27.7081 220.923,-19.6578"/>
<polygon fill="midnightblue" stroke="midnightblue" points="175.758,-47.7284 169.67,-56.3993 179.836,-53.4176 175.758,-47.7284"/>
</g>
<!-- Node2 -->
<g id="node2" class="node"><title>Node2</title>
<g id="a_node2"><a xlink:href="interface_suite_c_r_m_client_1_1_logging_1_1_i_logger.html" target="_top" xlink:title="Interface implemented by all logging classes ">
<polygon fill="white" stroke="black" points="125.5,-123.5 125.5,-142.5 174.5,-142.5 174.5,-123.5 125.5,-123.5"/>
<text text-anchor="middle" x="150" y="-130.5" font-family="Helvetica,sans-Serif" font-size="10.00">ILogger</text>
</a>
</g>
</g>
<!-- Node2&#45;&gt;Node1 -->
<g id="edge1" class="edge"><title>Node2&#45;&gt;Node1</title>
<path fill="none" stroke="midnightblue" d="M150,-113.235C150,-104.586 150,-94.4969 150,-86.523"/>
<polygon fill="midnightblue" stroke="midnightblue" points="146.5,-113.475 150,-123.475 153.5,-113.475 146.5,-113.475"/>
</g>
<!-- Node3 -->
<g id="node3" class="node"><title>Node3</title>
<polygon fill="white" stroke="#bfbfbf" points="116,-179.5 116,-198.5 184,-198.5 184,-179.5 116,-179.5"/>
<text text-anchor="middle" x="150" y="-186.5" font-family="Helvetica,sans-Serif" font-size="10.00">IDisposable</text>
</g>
<!-- Node3&#45;&gt;Node2 -->
<g id="edge2" class="edge"><title>Node3&#45;&gt;Node2</title>
<path fill="none" stroke="midnightblue" d="M150,-168.805C150,-159.91 150,-149.78 150,-142.751"/>
<polygon fill="midnightblue" stroke="midnightblue" points="146.5,-169.083 150,-179.083 153.5,-169.083 146.5,-169.083"/>
</g>
</g>
</svg>
