<?xml version="1.0" encoding="UTF-8" standalone="no"?>
<!DOCTYPE svg PUBLIC "-//W3C//DTD SVG 1.1//EN"
 "http://www.w3.org/Graphics/SVG/1.1/DTD/svg11.dtd">
<!-- Generated by graphviz version 2.38.0 (20140413.2041)
 -->
<!-- Title: SuiteCRMAddIn.Daemon.FetchEmailCategoriesAction Pages: 1 -->
<svg width="163pt" height="151pt"
 viewBox="0.00 0.00 163.00 151.00" xmlns="http://www.w3.org/2000/svg" xmlns:xlink="http://www.w3.org/1999/xlink">
<g id="graph0" class="graph" transform="scale(1 1) rotate(0) translate(4 147)">
<title>SuiteCRMAddIn.Daemon.FetchEmailCategoriesAction</title>
<polygon fill="white" stroke="none" points="-4,4 -4,-147 159,-147 159,4 -4,4"/>
<!-- Node1 -->
<g id="node1" class="node"><title>Node1</title>
<polygon fill="#bfbfbf" stroke="black" points="0,-0.5 0,-30.5 155,-30.5 155,-0.5 0,-0.5"/>
<text text-anchor="start" x="8" y="-18.5" font-family="Helvetica,sans-Serif" font-size="10.00">SuiteCRMAddIn.Daemon.Fetch</text>
<text text-anchor="middle" x="77.5" y="-7.5" font-family="Helvetica,sans-Serif" font-size="10.00">EmailCategoriesAction</text>
</g>
<!-- Node2 -->
<g id="node2" class="node"><title>Node2</title>
<g id="a_node2"><a xlink:href="class_suite_c_r_m_add_in_1_1_daemon_1_1_abstract_daemon_action.html" target="_top" xlink:title="The Attempts/MaxAttempts plumbing for implementing a DaemonAction. Of course, you do not need to spec...">
<polygon fill="white" stroke="black" points="18.5,-67.5 18.5,-86.5 136.5,-86.5 136.5,-67.5 18.5,-67.5"/>
<text text-anchor="middle" x="77.5" y="-74.5" font-family="Helvetica,sans-Serif" font-size="10.00">AbstractDaemonAction</text>
</a>
</g>
</g>
<!-- Node2&#45;&gt;Node1 -->
<g id="edge1" class="edge"><title>Node2&#45;&gt;Node1</title>
<path fill="none" stroke="midnightblue" d="M77.5,-57.2349C77.5,-48.5864 77.5,-38.4969 77.5,-30.523"/>
<polygon fill="midnightblue" stroke="midnightblue" points="74.0001,-57.4751 77.5,-67.4751 81.0001,-57.4751 74.0001,-57.4751"/>
</g>
<!-- Node3 -->
<g id="node3" class="node"><title>Node3</title>
<g id="a_node3"><a xlink:href="interface_suite_c_r_m_add_in_1_1_daemon_1_1_daemon_action.html" target="_top" xlink:title="An action to be queued and performed by the DaemonWorker.">
<polygon fill="white" stroke="black" points="37,-123.5 37,-142.5 118,-142.5 118,-123.5 37,-123.5"/>
<text text-anchor="middle" x="77.5" y="-130.5" font-family="Helvetica,sans-Serif" font-size="10.00">DaemonAction</text>
</a>
</g>
</g>
<!-- Node3&#45;&gt;Node2 -->
<g id="edge2" class="edge"><title>Node3&#45;&gt;Node2</title>
<path fill="none" stroke="midnightblue" d="M77.5,-112.805C77.5,-103.91 77.5,-93.7798 77.5,-86.7511"/>
<polygon fill="midnightblue" stroke="midnightblue" points="74.0001,-113.083 77.5,-123.083 81.0001,-113.083 74.0001,-113.083"/>
</g>
</g>
</svg>
