<?xml version="1.0" encoding="UTF-8" standalone="no"?>
<!DOCTYPE svg PUBLIC "-//W3C//DTD SVG 1.1//EN"
 "http://www.w3.org/Graphics/SVG/1.1/DTD/svg11.dtd">
<!-- Generated by graphviz version 2.38.0 (20140413.2041)
 -->
<!-- Title: SuiteCRMAddIn.BusinessLogic.AppointmentSyncing.EnsureSynchronisationPropertiesForOutlookItem Pages: 1 -->
<svg width="917pt" height="236pt"
 viewBox="0.00 0.00 917.00 235.50" xmlns="http://www.w3.org/2000/svg" xmlns:xlink="http://www.w3.org/1999/xlink">
<g id="graph0" class="graph" transform="scale(1 1) rotate(0) translate(4 231.5)">
<title>SuiteCRMAddIn.BusinessLogic.AppointmentSyncing.EnsureSynchronisationPropertiesForOutlookItem</title>
<polygon fill="white" stroke="none" points="-4,4 -4,-231.5 913,-231.5 913,4 -4,4"/>
<!-- Node1 -->
<g id="node1" class="node"><title>Node1</title>
<polygon fill="#bfbfbf" stroke="black" points="0,-103.5 0,-144.5 210,-144.5 210,-103.5 0,-103.5"/>
<text text-anchor="start" x="8" y="-132.5" font-family="Helvetica,sans-Serif" font-size="10.00">SuiteCRMAddIn.BusinessLogic.</text>
<text text-anchor="start" x="8" y="-121.5" font-family="Helvetica,sans-Serif" font-size="10.00">AppointmentSyncing.EnsureSynchronisation</text>
<text text-anchor="middle" x="105" y="-110.5" font-family="Helvetica,sans-Serif" font-size="10.00">PropertiesForOutlookItem</text>
</g>
<!-- Node2 -->
<g id="node2" class="node"><title>Node2</title>
<g id="a_node2"><a xlink:href="class_suite_c_r_m_add_in_1_1_business_logic_1_1_appointment_syncing.html#a778c161dea3f5934089e5866b59f9dad" target="_top" xlink:title="Ensure that this Outlook item has a property of this name with this value. ">
<polygon fill="white" stroke="black" points="246,-103.5 246,-144.5 456,-144.5 456,-103.5 246,-103.5"/>
<text text-anchor="start" x="254" y="-132.5" font-family="Helvetica,sans-Serif" font-size="10.00">SuiteCRMAddIn.BusinessLogic.</text>
<text text-anchor="start" x="254" y="-121.5" font-family="Helvetica,sans-Serif" font-size="10.00">AppointmentSyncing.EnsureSynchronisation</text>
<text text-anchor="middle" x="351" y="-110.5" font-family="Helvetica,sans-Serif" font-size="10.00">PropertyForOutlookItem</text>
</a>
</g>
</g>
<!-- Node1&#45;&gt;Node2 -->
<g id="edge1" class="edge"><title>Node1&#45;&gt;Node2</title>
<path fill="none" stroke="midnightblue" d="M210.186,-117.314C218.566,-117.253 227.06,-117.236 235.506,-117.261"/>
<polygon fill="midnightblue" stroke="midnightblue" points="235.756,-120.763 245.774,-117.314 235.792,-113.763 235.756,-120.763"/>
</g>
<!-- Node2&#45;&gt;Node1 -->
<g id="edge8" class="edge"><title>Node2&#45;&gt;Node1</title>
<path fill="none" stroke="midnightblue" d="M245.774,-130.686C237.394,-130.747 228.899,-130.764 220.453,-130.739"/>
<polygon fill="midnightblue" stroke="midnightblue" points="220.204,-127.237 210.186,-130.686 220.168,-134.237 220.204,-127.237"/>
</g>
<!-- Node3 -->
<g id="node3" class="node"><title>Node3</title>
<g id="a_node3"><a xlink:href="class_suite_c_r_m_add_in_1_1_business_logic_1_1_appointment_syncing.html#a7a750ce308027fee659e8c543cb99b42" target="_top" xlink:title="SuiteCRMAddIn.BusinessLogic.\lAppointmentSyncing.SaveItem">
<polygon fill="white" stroke="black" points="513,-197 513,-227 671,-227 671,-197 513,-197"/>
<text text-anchor="start" x="521" y="-215" font-family="Helvetica,sans-Serif" font-size="10.00">SuiteCRMAddIn.BusinessLogic.</text>
<text text-anchor="middle" x="592" y="-204" font-family="Helvetica,sans-Serif" font-size="10.00">AppointmentSyncing.SaveItem</text>
</a>
</g>
</g>
<!-- Node2&#45;&gt;Node3 -->
<g id="edge2" class="edge"><title>Node2&#45;&gt;Node3</title>
<path fill="none" stroke="midnightblue" d="M398.537,-144.631C425.565,-156.272 460.416,-170.703 492,-182 503.675,-186.176 516.254,-190.282 528.4,-194.051"/>
<polygon fill="midnightblue" stroke="midnightblue" points="527.435,-197.416 538.022,-196.997 529.484,-190.723 527.435,-197.416"/>
</g>
<!-- Node4 -->
<g id="node4" class="node"><title>Node4</title>
<g id="a_node4"><a xlink:href="class_suite_c_r_m_add_in_1_1_business_logic_1_1_appointment_syncing.html#a505217ef3946d0f9996301472cabc026" target="_top" xlink:title="Log a message regarding this Outlook appointment. ">
<polygon fill="white" stroke="black" points="732,-175 732,-205 905,-205 905,-175 732,-175"/>
<text text-anchor="start" x="740" y="-193" font-family="Helvetica,sans-Serif" font-size="10.00">SuiteCRMAddIn.BusinessLogic.</text>
<text text-anchor="middle" x="818.5" y="-182" font-family="Helvetica,sans-Serif" font-size="10.00">AppointmentSyncing.LogItemAction</text>
</a>
</g>
</g>
<!-- Node2&#45;&gt;Node4 -->
<g id="edge4" class="edge"><title>Node2&#45;&gt;Node4</title>
<path fill="none" stroke="midnightblue" d="M456.256,-143.227C468.294,-145.266 480.406,-147.236 492,-149 568.967,-160.712 656.539,-171.605 721.449,-179.216"/>
<polygon fill="midnightblue" stroke="midnightblue" points="721.329,-182.725 731.667,-180.408 722.14,-175.772 721.329,-182.725"/>
</g>
<!-- Node5 -->
<g id="node5" class="node"><title>Node5</title>
<g id="a_node5"><a xlink:href="class_suite_c_r_m_client_1_1cls_suite_c_r_m_helper.html#a050637c0cbd1012cf9cf58c5cb3d179c" target="_top" xlink:title="Return the CRM id of the current user. ">
<polygon fill="white" stroke="black" points="501.5,-109 501.5,-139 682.5,-139 682.5,-109 501.5,-109"/>
<text text-anchor="start" x="509.5" y="-127" font-family="Helvetica,sans-Serif" font-size="10.00">SuiteCRMClient.clsSuiteCRMHelper.</text>
<text text-anchor="middle" x="592" y="-116" font-family="Helvetica,sans-Serif" font-size="10.00">GetUserId</text>
</a>
</g>
</g>
<!-- Node2&#45;&gt;Node5 -->
<g id="edge5" class="edge"><title>Node2&#45;&gt;Node5</title>
<path fill="none" stroke="midnightblue" d="M456.134,-124C467.809,-124 479.683,-124 491.3,-124"/>
<polygon fill="midnightblue" stroke="midnightblue" points="491.432,-127.5 501.432,-124 491.432,-120.5 491.432,-127.5"/>
</g>
<!-- Node6 -->
<g id="node6" class="node"><title>Node6</title>
<g id="a_node6"><a xlink:href="class_suite_c_r_m_client_1_1cls_suite_c_r_m_helper.html#a3ce19594e2c04282ab6e9737c3a9b84f" target="_top" xlink:title="SuiteCRMClient.clsSuiteCRMHelper.get\lRelationship">
<polygon fill="white" stroke="black" points="495,-60 495,-90 689,-90 689,-60 495,-60"/>
<text text-anchor="start" x="503" y="-78" font-family="Helvetica,sans-Serif" font-size="10.00">SuiteCRMClient.clsSuiteCRMHelper.get</text>
<text text-anchor="middle" x="592" y="-67" font-family="Helvetica,sans-Serif" font-size="10.00">Relationship</text>
</a>
</g>
</g>
<!-- Node2&#45;&gt;Node6 -->
<g id="edge6" class="edge"><title>Node2&#45;&gt;Node6</title>
<path fill="none" stroke="midnightblue" d="M452.319,-103.433C470.858,-99.6317 490.029,-95.7012 507.984,-92.0199"/>
<polygon fill="midnightblue" stroke="midnightblue" points="508.73,-95.44 517.823,-90.0028 507.324,-88.5826 508.73,-95.44"/>
</g>
<!-- Node8 -->
<g id="node8" class="node"><title>Node8</title>
<g id="a_node8"><a xlink:href="class_suite_c_r_m_add_in_1_1_business_logic_1_1_synchroniser.html#a9a2c3473c4dc60793fed0588c66f8666" target="_top" xlink:title="Parse a date time object from a user property, assuming the ISO 8601 date&#45;time format but ommitting t...">
<polygon fill="white" stroke="black" points="492,-0.5 492,-41.5 692,-41.5 692,-0.5 492,-0.5"/>
<text text-anchor="start" x="500" y="-29.5" font-family="Helvetica,sans-Serif" font-size="10.00">SuiteCRMAddIn.BusinessLogic.</text>
<text text-anchor="start" x="500" y="-18.5" font-family="Helvetica,sans-Serif" font-size="10.00">Synchroniser&lt; Outlook.Appointment</text>
<text text-anchor="middle" x="592" y="-7.5" font-family="Helvetica,sans-Serif" font-size="10.00">Item &gt;::ParseDateTimeFromUserProperty</text>
</a>
</g>
</g>
<!-- Node2&#45;&gt;Node8 -->
<g id="edge9" class="edge"><title>Node2&#45;&gt;Node8</title>
<path fill="none" stroke="midnightblue" d="M387.094,-103.361C414.897,-87.5899 455.073,-66.0687 492,-51 497.144,-48.9008 502.491,-46.8708 507.916,-44.924"/>
<polygon fill="midnightblue" stroke="midnightblue" points="509.441,-48.0995 517.74,-41.5125 507.145,-41.4869 509.441,-48.0995"/>
</g>
<!-- Node3&#45;&gt;Node4 -->
<g id="edge3" class="edge"><title>Node3&#45;&gt;Node4</title>
<path fill="none" stroke="midnightblue" d="M671.204,-204.336C687.447,-202.745 704.741,-201.05 721.537,-199.404"/>
<polygon fill="midnightblue" stroke="midnightblue" points="722.307,-202.845 731.918,-198.387 721.624,-195.879 722.307,-202.845"/>
</g>
<!-- Node7 -->
<g id="node7" class="node"><title>Node7</title>
<g id="a_node7"><a xlink:href="class_suite_c_r_m_client_1_1cls_suite_c_r_m_helper.html#a80f04ec3ab185a736b6633c0df69c536" target="_top" xlink:title="SuiteCRMClient.clsSuiteCRMHelper.\lEnsureLoggedIn">
<polygon fill="white" stroke="black" points="728,-60 728,-90 909,-90 909,-60 728,-60"/>
<text text-anchor="start" x="736" y="-78" font-family="Helvetica,sans-Serif" font-size="10.00">SuiteCRMClient.clsSuiteCRMHelper.</text>
<text text-anchor="middle" x="818.5" y="-67" font-family="Helvetica,sans-Serif" font-size="10.00">EnsureLoggedIn</text>
</a>
</g>
</g>
<!-- Node6&#45;&gt;Node7 -->
<g id="edge7" class="edge"><title>Node6&#45;&gt;Node7</title>
<path fill="none" stroke="midnightblue" d="M689.185,-75C698.624,-75 708.218,-75 717.692,-75"/>
<polygon fill="midnightblue" stroke="midnightblue" points="717.912,-78.5001 727.912,-75 717.912,-71.5001 717.912,-78.5001"/>
</g>
</g>
</svg>
