<?xml version="1.0" encoding="UTF-8" standalone="no"?>
<!DOCTYPE svg PUBLIC "-//W3C//DTD SVG 1.1//EN"
 "http://www.w3.org/Graphics/SVG/1.1/DTD/svg11.dtd">
<!-- Generated by graphviz version 2.38.0 (20140413.2041)
 -->
<!-- Title: SuiteCRMAddIn.Dialogs.ArchiveDialog.Search Pages: 1 -->
<svg width="560pt" height="39pt"
 viewBox="0.00 0.00 560.00 39.00" xmlns="http://www.w3.org/2000/svg" xmlns:xlink="http://www.w3.org/1999/xlink">
<g id="graph0" class="graph" transform="scale(1 1) rotate(0) translate(4 35)">
<title>SuiteCRMAddIn.Dialogs.ArchiveDialog.Search</title>
<polygon fill="white" stroke="none" points="-4,4 -4,-35 556,-35 556,4 -4,4"/>
<!-- Node1 -->
<g id="node1" class="node"><title>Node1</title>
<polygon fill="#bfbfbf" stroke="black" points="0,-0.5 0,-30.5 160,-30.5 160,-0.5 0,-0.5"/>
<text text-anchor="start" x="8" y="-18.5" font-family="Helvetica,sans-Serif" font-size="10.00">SuiteCRMAddIn.Dialogs.Archive</text>
<text text-anchor="middle" x="80" y="-7.5" font-family="Helvetica,sans-Serif" font-size="10.00">Dialog.Search</text>
</g>
<!-- Node2 -->
<g id="node2" class="node"><title>Node2</title>
<g id="a_node2"><a xlink:href="class_suite_c_r_m_add_in_1_1_dialogs_1_1_archive_dialog.html#a3160bc88861f266746f9631068fc9ed7" target="_top" xlink:title="SuiteCRMAddIn.Dialogs.Archive\lDialog.btnSearch_Click">
<polygon fill="white" stroke="black" points="196,-0.5 196,-30.5 356,-30.5 356,-0.5 196,-0.5"/>
<text text-anchor="start" x="204" y="-18.5" font-family="Helvetica,sans-Serif" font-size="10.00">SuiteCRMAddIn.Dialogs.Archive</text>
<text text-anchor="middle" x="276" y="-7.5" font-family="Helvetica,sans-Serif" font-size="10.00">Dialog.btnSearch_Click</text>
</a>
</g>
</g>
<!-- Node1&#45;&gt;Node2 -->
<g id="edge1" class="edge"><title>Node1&#45;&gt;Node2</title>
<path fill="none" stroke="midnightblue" d="M170.436,-8.76828C178.884,-8.72738 187.408,-8.75512 195.752,-8.85149"/>
<polygon fill="midnightblue" stroke="midnightblue" points="170.158,-5.27034 160.187,-8.8522 170.215,-12.2701 170.158,-5.27034"/>
</g>
<!-- Node2&#45;&gt;Node1 -->
<g id="edge2" class="edge"><title>Node2&#45;&gt;Node1</title>
<path fill="none" stroke="midnightblue" d="M185.502,-22.232C177.054,-22.2726 168.529,-22.2445 160.187,-22.1478"/>
<polygon fill="midnightblue" stroke="midnightblue" points="185.781,-25.73 195.752,-22.1485 185.724,-18.7302 185.781,-25.73"/>
</g>
<!-- Node3 -->
<g id="node3" class="node"><title>Node3</title>
<g id="a_node3"><a xlink:href="class_suite_c_r_m_add_in_1_1_dialogs_1_1_archive_dialog.html#a1f34c87c999c13b787aab281472014cd" target="_top" xlink:title="Clean up any resources being used. ">
<polygon fill="white" stroke="black" points="392,-0.5 392,-30.5 552,-30.5 552,-0.5 392,-0.5"/>
<text text-anchor="start" x="400" y="-18.5" font-family="Helvetica,sans-Serif" font-size="10.00">SuiteCRMAddIn.Dialogs.Archive</text>
<text text-anchor="middle" x="472" y="-7.5" font-family="Helvetica,sans-Serif" font-size="10.00">Dialog.Dispose</text>
</a>
</g>
</g>
<!-- Node2&#45;&gt;Node3 -->
<g id="edge3" class="edge"><title>Node2&#45;&gt;Node3</title>
<path fill="none" stroke="midnightblue" d="M366.436,-15.5C374.884,-15.5 383.408,-15.5 391.752,-15.5"/>
<polygon fill="midnightblue" stroke="midnightblue" points="366.187,-12.0001 356.187,-15.5 366.187,-19.0001 366.187,-12.0001"/>
</g>
</g>
</svg>
