<?xml version="1.0" encoding="UTF-8" standalone="no"?>
<!DOCTYPE svg PUBLIC "-//W3C//DTD SVG 1.1//EN"
 "http://www.w3.org/Graphics/SVG/1.1/DTD/svg11.dtd">
<!-- Generated by graphviz version 2.38.0 (20140413.2041)
 -->
<!-- Title: SuiteCRMAddIn.BusinessLogic.Synchroniser.EnsureSynchronisationPropertiesForOutlookItem Pages: 1 -->
<svg width="437pt" height="122pt"
 viewBox="0.00 0.00 437.00 121.50" xmlns="http://www.w3.org/2000/svg" xmlns:xlink="http://www.w3.org/1999/xlink">
<g id="graph0" class="graph" transform="scale(1 1) rotate(0) translate(4 117.5)">
<title>SuiteCRMAddIn.BusinessLogic.Synchroniser.EnsureSynchronisationPropertiesForOutlookItem</title>
<polygon fill="white" stroke="none" points="-4,4 -4,-117.5 433,-117.5 433,4 -4,4"/>
<!-- Node1 -->
<g id="node1" class="node"><title>Node1</title>
<polygon fill="#bfbfbf" stroke="black" points="0,-39 0,-80 177,-80 177,-39 0,-39"/>
<text text-anchor="start" x="8" y="-68" font-family="Helvetica,sans-Serif" font-size="10.00">SuiteCRMAddIn.BusinessLogic.</text>
<text text-anchor="start" x="8" y="-57" font-family="Helvetica,sans-Serif" font-size="10.00">Synchroniser.EnsureSynchronisation</text>
<text text-anchor="middle" x="88.5" y="-46" font-family="Helvetica,sans-Serif" font-size="10.00">PropertiesForOutlookItem</text>
</g>
<!-- Node2 -->
<g id="node2" class="node"><title>Node2</title>
<g id="a_node2"><a xlink:href="class_suite_c_r_m_add_in_1_1_business_logic_1_1_synchroniser.html#aecaeaaae371d340839392edf8d8f396e" target="_top" xlink:title="Add the Outlook item referenced by this sync state, which may not exist in CRM, to CRM...">
<polygon fill="white" stroke="black" points="213,-72 213,-113 429,-113 429,-72 213,-72"/>
<text text-anchor="start" x="221" y="-101" font-family="Helvetica,sans-Serif" font-size="10.00">SuiteCRMAddIn.BusinessLogic.</text>
<text text-anchor="start" x="221" y="-90" font-family="Helvetica,sans-Serif" font-size="10.00">Synchroniser&lt; Outlook.Appointment</text>
<text text-anchor="middle" x="321" y="-79" font-family="Helvetica,sans-Serif" font-size="10.00">Item &gt;::AddOrUpdateItemFromOutlookToCrm</text>
</a>
</g>
</g>
<!-- Node1&#45;&gt;Node2 -->
<g id="edge1" class="edge"><title>Node1&#45;&gt;Node2</title>
<path fill="none" stroke="midnightblue" d="M187.426,-73.5197C195.788,-74.7169 204.274,-75.9319 212.704,-77.1388"/>
<polygon fill="midnightblue" stroke="midnightblue" points="187.695,-70.0227 177.3,-72.07 186.703,-76.952 187.695,-70.0227"/>
</g>
<!-- Node3 -->
<g id="node3" class="node"><title>Node3</title>
<g id="a_node3"><a xlink:href="class_suite_c_r_m_add_in_1_1_business_logic_1_1_synchroniser.html#abfeb55205a9baa610f5b0fa8ad680bd4" target="_top" xlink:title="Set up synchronisation properties for this outlook item from this CRM item, assuming my default CRM m...">
<polygon fill="white" stroke="black" points="223,-0.5 223,-52.5 419,-52.5 419,-0.5 223,-0.5"/>
<text text-anchor="start" x="231" y="-40.5" font-family="Helvetica,sans-Serif" font-size="10.00">SuiteCRMAddIn.BusinessLogic.</text>
<text text-anchor="start" x="231" y="-29.5" font-family="Helvetica,sans-Serif" font-size="10.00">Synchroniser&lt; Outlook.Appointment</text>
<text text-anchor="start" x="231" y="-18.5" font-family="Helvetica,sans-Serif" font-size="10.00">Item &gt;::EnsureSynchronisationProperties</text>
<text text-anchor="middle" x="321" y="-7.5" font-family="Helvetica,sans-Serif" font-size="10.00">ForOutlookItem</text>
</a>
</g>
</g>
<!-- Node1&#45;&gt;Node3 -->
<g id="edge2" class="edge"><title>Node1&#45;&gt;Node3</title>
<path fill="none" stroke="midnightblue" d="M187.504,-45.469C199.202,-43.7943 211.142,-42.0849 222.828,-40.4118"/>
<polygon fill="midnightblue" stroke="midnightblue" points="186.703,-42.048 177.3,-46.93 187.695,-48.9773 186.703,-42.048"/>
</g>
</g>
</svg>
