<?xml version="1.0" encoding="UTF-8" standalone="no"?>
<!DOCTYPE svg PUBLIC "-//W3C//DTD SVG 1.1//EN"
 "http://www.w3.org/Graphics/SVG/1.1/DTD/svg11.dtd">
<!-- Generated by graphviz version 2.38.0 (20140413.2041)
 -->
<!-- Title: SuiteCRMAddIn.BusinessLogic.Synchroniser.LogItemAction Pages: 1 -->
<svg width="423pt" height="410pt"
 viewBox="0.00 0.00 423.00 410.00" xmlns="http://www.w3.org/2000/svg" xmlns:xlink="http://www.w3.org/1999/xlink">
<g id="graph0" class="graph" transform="scale(1 1) rotate(0) translate(4 406)">
<title>SuiteCRMAddIn.BusinessLogic.Synchroniser.LogItemAction</title>
<polygon fill="white" stroke="none" points="-4,4 -4,-406 419,-406 419,4 -4,4"/>
<!-- Node1 -->
<g id="node1" class="node"><title>Node1</title>
<polygon fill="#bfbfbf" stroke="black" points="0,-186 0,-216 158,-216 158,-186 0,-186"/>
<text text-anchor="start" x="8" y="-204" font-family="Helvetica,sans-Serif" font-size="10.00">SuiteCRMAddIn.BusinessLogic.</text>
<text text-anchor="middle" x="79" y="-193" font-family="Helvetica,sans-Serif" font-size="10.00">Synchroniser.LogItemAction</text>
</g>
<!-- Node2 -->
<g id="node2" class="node"><title>Node2</title>
<g id="a_node2"><a xlink:href="class_suite_c_r_m_add_in_1_1_business_logic_1_1_synchroniser.html#aecaeaaae371d340839392edf8d8f396e" target="_top" xlink:title="Add the Outlook item referenced by this sync state, which may not exist in CRM, to CRM...">
<polygon fill="white" stroke="black" points="196.5,-360.5 196.5,-401.5 412.5,-401.5 412.5,-360.5 196.5,-360.5"/>
<text text-anchor="start" x="204.5" y="-389.5" font-family="Helvetica,sans-Serif" font-size="10.00">SuiteCRMAddIn.BusinessLogic.</text>
<text text-anchor="start" x="204.5" y="-378.5" font-family="Helvetica,sans-Serif" font-size="10.00">Synchroniser&lt; Outlook.Appointment</text>
<text text-anchor="middle" x="304.5" y="-367.5" font-family="Helvetica,sans-Serif" font-size="10.00">Item &gt;::AddOrUpdateItemFromOutlookToCrm</text>
</a>
</g>
</g>
<!-- Node1&#45;&gt;Node2 -->
<g id="edge1" class="edge"><title>Node1&#45;&gt;Node2</title>
<path fill="none" stroke="midnightblue" d="M92.0191,-225.506C109.699,-258.968 145.897,-318.501 194,-351 199.226,-354.531 204.857,-357.648 210.71,-360.399"/>
<polygon fill="midnightblue" stroke="midnightblue" points="95.0234,-223.695 87.3311,-216.409 88.8011,-226.902 95.0234,-223.695"/>
</g>
<!-- Node3 -->
<g id="node3" class="node"><title>Node3</title>
<g id="a_node3"><a xlink:href="class_suite_c_r_m_add_in_1_1_business_logic_1_1_synchroniser.html#ae80c795df262f881c995b9cadd54a5d4" target="_top" xlink:title="Update these items, which may or may not already exist in Outlook. ">
<polygon fill="white" stroke="black" points="194,-300.5 194,-341.5 415,-341.5 415,-300.5 194,-300.5"/>
<text text-anchor="start" x="202" y="-329.5" font-family="Helvetica,sans-Serif" font-size="10.00">SuiteCRMAddIn.BusinessLogic.</text>
<text text-anchor="start" x="202" y="-318.5" font-family="Helvetica,sans-Serif" font-size="10.00">Synchroniser&lt; Outlook.Appointment</text>
<text text-anchor="middle" x="304.5" y="-307.5" font-family="Helvetica,sans-Serif" font-size="10.00">Item &gt;::AddOrUpdateItemsFromCrmToOutlook</text>
</a>
</g>
</g>
<!-- Node1&#45;&gt;Node3 -->
<g id="edge2" class="edge"><title>Node1&#45;&gt;Node3</title>
<path fill="none" stroke="midnightblue" d="M102.211,-223.056C123.905,-243.436 158.721,-273.175 194,-291 200.949,-294.511 208.361,-297.653 215.927,-300.456"/>
<polygon fill="midnightblue" stroke="midnightblue" points="104.484,-220.387 94.8356,-216.011 99.6488,-225.449 104.484,-220.387"/>
</g>
<!-- Node4 -->
<g id="node4" class="node"><title>Node4</title>
<g id="a_node4"><a xlink:href="class_suite_c_r_m_add_in_1_1_business_logic_1_1_synchroniser.html#a9e06c6056beacdb87f5d807f4739b9ba" target="_top" xlink:title="Find any existing Outlook items which appear to be identical to this CRM item. ">
<polygon fill="white" stroke="black" points="217.5,-240.5 217.5,-281.5 391.5,-281.5 391.5,-240.5 217.5,-240.5"/>
<text text-anchor="start" x="225.5" y="-269.5" font-family="Helvetica,sans-Serif" font-size="10.00">SuiteCRMAddIn.BusinessLogic.</text>
<text text-anchor="start" x="225.5" y="-258.5" font-family="Helvetica,sans-Serif" font-size="10.00">Synchroniser&lt; Outlook.Appointment</text>
<text text-anchor="middle" x="304.5" y="-247.5" font-family="Helvetica,sans-Serif" font-size="10.00">Item &gt;::FindMatches</text>
</a>
</g>
</g>
<!-- Node1&#45;&gt;Node4 -->
<g id="edge3" class="edge"><title>Node1&#45;&gt;Node4</title>
<path fill="none" stroke="midnightblue" d="M146.026,-218.725C171.475,-225.557 200.746,-233.415 227.095,-240.489"/>
<polygon fill="midnightblue" stroke="midnightblue" points="146.676,-215.276 136.11,-216.063 144.861,-222.036 146.676,-215.276"/>
</g>
<!-- Node5 -->
<g id="node5" class="node"><title>Node5</title>
<g id="a_node5"><a xlink:href="class_suite_c_r_m_add_in_1_1_business_logic_1_1_synchroniser.html#a3c7972ebc9fde19403be4cb526b58898" target="_top" xlink:title="Entry point from event handler when an item is added in Outlook. ">
<polygon fill="white" stroke="black" points="217.5,-180.5 217.5,-221.5 391.5,-221.5 391.5,-180.5 217.5,-180.5"/>
<text text-anchor="start" x="225.5" y="-209.5" font-family="Helvetica,sans-Serif" font-size="10.00">SuiteCRMAddIn.BusinessLogic.</text>
<text text-anchor="start" x="225.5" y="-198.5" font-family="Helvetica,sans-Serif" font-size="10.00">Synchroniser&lt; Outlook.Appointment</text>
<text text-anchor="middle" x="304.5" y="-187.5" font-family="Helvetica,sans-Serif" font-size="10.00">Item &gt;::OutlookItemAdded</text>
</a>
</g>
</g>
<!-- Node1&#45;&gt;Node5 -->
<g id="edge4" class="edge"><title>Node1&#45;&gt;Node5</title>
<path fill="none" stroke="midnightblue" d="M168.609,-201C184.664,-201 201.386,-201 217.369,-201"/>
<polygon fill="midnightblue" stroke="midnightblue" points="168.169,-197.5 158.169,-201 168.169,-204.5 168.169,-197.5"/>
</g>
<!-- Node6 -->
<g id="node6" class="node"><title>Node6</title>
<g id="a_node6"><a xlink:href="class_suite_c_r_m_add_in_1_1_business_logic_1_1_synchroniser.html#a39a299e28dff602fec9c2291328e27d4" target="_top" xlink:title="Entry point from event handler, called when an Outlook item of class AppointmentItem is believed to h...">
<polygon fill="white" stroke="black" points="217.5,-120.5 217.5,-161.5 391.5,-161.5 391.5,-120.5 217.5,-120.5"/>
<text text-anchor="start" x="225.5" y="-149.5" font-family="Helvetica,sans-Serif" font-size="10.00">SuiteCRMAddIn.BusinessLogic.</text>
<text text-anchor="start" x="225.5" y="-138.5" font-family="Helvetica,sans-Serif" font-size="10.00">Synchroniser&lt; Outlook.Appointment</text>
<text text-anchor="middle" x="304.5" y="-127.5" font-family="Helvetica,sans-Serif" font-size="10.00">Item &gt;::OutlookItemChanged</text>
</a>
</g>
</g>
<!-- Node1&#45;&gt;Node6 -->
<g id="edge5" class="edge"><title>Node1&#45;&gt;Node6</title>
<path fill="none" stroke="midnightblue" d="M146.026,-183.275C171.475,-176.443 200.746,-168.585 227.095,-161.511"/>
<polygon fill="midnightblue" stroke="midnightblue" points="144.861,-179.964 136.11,-185.937 146.676,-186.724 144.861,-179.964"/>
</g>
<!-- Node7 -->
<g id="node7" class="node"><title>Node7</title>
<g id="a_node7"><a xlink:href="class_suite_c_r_m_add_in_1_1_business_logic_1_1_synchroniser.html#a16525ef3c5803a03599802b5d4416d24" target="_top" xlink:title="Remove an outlook item and its associated sync state. ">
<polygon fill="white" stroke="black" points="217.5,-60.5 217.5,-101.5 391.5,-101.5 391.5,-60.5 217.5,-60.5"/>
<text text-anchor="start" x="225.5" y="-89.5" font-family="Helvetica,sans-Serif" font-size="10.00">SuiteCRMAddIn.BusinessLogic.</text>
<text text-anchor="start" x="225.5" y="-78.5" font-family="Helvetica,sans-Serif" font-size="10.00">Synchroniser&lt; Outlook.Appointment</text>
<text text-anchor="middle" x="304.5" y="-67.5" font-family="Helvetica,sans-Serif" font-size="10.00">Item &gt;::RemoveItemAndSyncState</text>
</a>
</g>
</g>
<!-- Node1&#45;&gt;Node7 -->
<g id="edge6" class="edge"><title>Node1&#45;&gt;Node7</title>
<path fill="none" stroke="midnightblue" d="M102.211,-178.944C123.905,-158.564 158.721,-128.825 194,-111 201.389,-107.267 209.301,-103.951 217.365,-101.016"/>
<polygon fill="midnightblue" stroke="midnightblue" points="99.6488,-176.551 94.8356,-185.989 104.484,-181.613 99.6488,-176.551"/>
</g>
<!-- Node8 -->
<g id="node8" class="node"><title>Node8</title>
<g id="a_node8"><a xlink:href="class_suite_c_r_m_add_in_1_1_business_logic_1_1_synchroniser.html#a05ac2253c88bd7232ef6c3b5c0714f21" target="_top" xlink:title="Remove an item from ItemsSyncState. ">
<polygon fill="white" stroke="black" points="217.5,-0.5 217.5,-41.5 391.5,-41.5 391.5,-0.5 217.5,-0.5"/>
<text text-anchor="start" x="225.5" y="-29.5" font-family="Helvetica,sans-Serif" font-size="10.00">SuiteCRMAddIn.BusinessLogic.</text>
<text text-anchor="start" x="225.5" y="-18.5" font-family="Helvetica,sans-Serif" font-size="10.00">Synchroniser&lt; Outlook.Appointment</text>
<text text-anchor="middle" x="304.5" y="-7.5" font-family="Helvetica,sans-Serif" font-size="10.00">Item &gt;::RemoveItemSyncState</text>
</a>
</g>
</g>
<!-- Node1&#45;&gt;Node8 -->
<g id="edge7" class="edge"><title>Node1&#45;&gt;Node8</title>
<path fill="none" stroke="midnightblue" d="M92.0191,-176.494C109.699,-143.032 145.897,-83.4987 194,-51 201.186,-46.1448 209.137,-42.0723 217.377,-38.6569"/>
<polygon fill="midnightblue" stroke="midnightblue" points="88.8011,-175.098 87.3311,-185.591 95.0234,-178.305 88.8011,-175.098"/>
</g>
</g>
</svg>
