<?xml version="1.0" encoding="UTF-8" standalone="no"?>
<!DOCTYPE svg PUBLIC "-//W3C//DTD SVG 1.1//EN"
 "http://www.w3.org/Graphics/SVG/1.1/DTD/svg11.dtd">
<!-- Generated by graphviz version 2.38.0 (20140413.2041)
 -->
<!-- Title: SuiteCRMAddIn.Daemon.TransmitUpdateAction&lt; OutlookItemType &gt; Pages: 1 -->
<svg width="177pt" height="151pt"
 viewBox="0.00 0.00 177.00 151.00" xmlns="http://www.w3.org/2000/svg" xmlns:xlink="http://www.w3.org/1999/xlink">
<g id="graph0" class="graph" transform="scale(1 1) rotate(0) translate(4 147)">
<title>SuiteCRMAddIn.Daemon.TransmitUpdateAction&lt; OutlookItemType &gt;</title>
<polygon fill="white" stroke="none" points="-4,4 -4,-147 173,-147 173,4 -4,4"/>
<!-- Node1 -->
<g id="node1" class="node"><title>Node1</title>
<polygon fill="#bfbfbf" stroke="black" points="-1.42109e-14,-0.5 -1.42109e-14,-30.5 169,-30.5 169,-0.5 -1.42109e-14,-0.5"/>
<text text-anchor="start" x="8" y="-18.5" font-family="Helvetica,sans-Serif" font-size="10.00">SuiteCRMAddIn.Daemon.Transmit</text>
<text text-anchor="middle" x="84.5" y="-7.5" font-family="Helvetica,sans-Serif" font-size="10.00">UpdateAction&lt; OutlookItemType &gt;</text>
</g>
<!-- Node2 -->
<g id="node2" class="node"><title>Node2</title>
<g id="a_node2"><a xlink:href="class_suite_c_r_m_add_in_1_1_daemon_1_1_abstract_daemon_action.html" target="_top" xlink:title="The Attempts/MaxAttempts plumbing for implementing a DaemonAction. Of course, you do not need to spec...">
<polygon fill="white" stroke="black" points="25.5,-67.5 25.5,-86.5 143.5,-86.5 143.5,-67.5 25.5,-67.5"/>
<text text-anchor="middle" x="84.5" y="-74.5" font-family="Helvetica,sans-Serif" font-size="10.00">AbstractDaemonAction</text>
</a>
</g>
</g>
<!-- Node2&#45;&gt;Node1 -->
<g id="edge1" class="edge"><title>Node2&#45;&gt;Node1</title>
<path fill="none" stroke="midnightblue" d="M84.5,-57.2349C84.5,-48.5864 84.5,-38.4969 84.5,-30.523"/>
<polygon fill="midnightblue" stroke="midnightblue" points="81.0001,-57.4751 84.5,-67.4751 88.0001,-57.4751 81.0001,-57.4751"/>
</g>
<!-- Node3 -->
<g id="node3" class="node"><title>Node3</title>
<g id="a_node3"><a xlink:href="interface_suite_c_r_m_add_in_1_1_daemon_1_1_daemon_action.html" target="_top" xlink:title="An action to be queued and performed by the DaemonWorker.">
<polygon fill="white" stroke="black" points="44,-123.5 44,-142.5 125,-142.5 125,-123.5 44,-123.5"/>
<text text-anchor="middle" x="84.5" y="-130.5" font-family="Helvetica,sans-Serif" font-size="10.00">DaemonAction</text>
</a>
</g>
</g>
<!-- Node3&#45;&gt;Node2 -->
<g id="edge2" class="edge"><title>Node3&#45;&gt;Node2</title>
<path fill="none" stroke="midnightblue" d="M84.5,-112.805C84.5,-103.91 84.5,-93.7798 84.5,-86.7511"/>
<polygon fill="midnightblue" stroke="midnightblue" points="81.0001,-113.083 84.5,-123.083 88.0001,-113.083 81.0001,-113.083"/>
</g>
</g>
</svg>
