<?xml version="1.0" encoding="UTF-8" standalone="no"?>
<!DOCTYPE svg PUBLIC "-//W3C//DTD SVG 1.1//EN"
 "http://www.w3.org/Graphics/SVG/1.1/DTD/svg11.dtd">
<!-- Generated by graphviz version 2.38.0 (20140413.2041)
 -->
<!-- Title: SuiteCRMAddIn.BusinessLogic.AppointmentSyncing.AddOrUpdateItemFromCrmToOutlook Pages: 1 -->
<svg width="406pt" height="170pt"
 viewBox="0.00 0.00 406.00 170.00" xmlns="http://www.w3.org/2000/svg" xmlns:xlink="http://www.w3.org/1999/xlink">
<g id="graph0" class="graph" transform="scale(1 1) rotate(0) translate(4 166)">
<title>SuiteCRMAddIn.BusinessLogic.AppointmentSyncing.AddOrUpdateItemFromCrmToOutlook</title>
<polygon fill="white" stroke="none" points="-4,4 -4,-166 402,-166 402,4 -4,4"/>
<!-- Node1 -->
<g id="node1" class="node"><title>Node1</title>
<polygon fill="#bfbfbf" stroke="black" points="0,-60.5 0,-101.5 188,-101.5 188,-60.5 0,-60.5"/>
<text text-anchor="start" x="8" y="-89.5" font-family="Helvetica,sans-Serif" font-size="10.00">SuiteCRMAddIn.BusinessLogic.</text>
<text text-anchor="start" x="8" y="-78.5" font-family="Helvetica,sans-Serif" font-size="10.00">AppointmentSyncing.AddOrUpdateItem</text>
<text text-anchor="middle" x="94" y="-67.5" font-family="Helvetica,sans-Serif" font-size="10.00">FromCrmToOutlook</text>
</g>
<!-- Node2 -->
<g id="node2" class="node"><title>Node2</title>
<g id="a_node2"><a xlink:href="class_suite_c_r_m_add_in_1_1_business_logic_1_1_synchroniser.html#a3b36dda96fe8a94bf705c125ab2ff7a7" target="_top" xlink:title="Get a date stamp for midnight five days ago (why?). ">
<polygon fill="white" stroke="black" points="224,-120.5 224,-161.5 398,-161.5 398,-120.5 224,-120.5"/>
<text text-anchor="start" x="232" y="-149.5" font-family="Helvetica,sans-Serif" font-size="10.00">SuiteCRMAddIn.BusinessLogic.</text>
<text text-anchor="start" x="232" y="-138.5" font-family="Helvetica,sans-Serif" font-size="10.00">Synchroniser&lt; Outlook.Appointment</text>
<text text-anchor="middle" x="311" y="-127.5" font-family="Helvetica,sans-Serif" font-size="10.00">Item &gt;::GetStartDate</text>
</a>
</g>
</g>
<!-- Node1&#45;&gt;Node2 -->
<g id="edge1" class="edge"><title>Node1&#45;&gt;Node2</title>
<path fill="none" stroke="midnightblue" d="M168.69,-101.565C187.323,-106.764 207.464,-112.385 226.541,-117.709"/>
<polygon fill="midnightblue" stroke="midnightblue" points="225.834,-121.145 236.406,-120.462 227.715,-114.403 225.834,-121.145"/>
</g>
<!-- Node3 -->
<g id="node3" class="node"><title>Node3</title>
<g id="a_node3"><a xlink:href="class_suite_c_r_m_add_in_1_1_business_logic_1_1_synchroniser.html#a22031f77a31ab4d27818815ebc85786d" target="_top" xlink:title="Get the existing sync state representing this item, if it exists, else null. ">
<polygon fill="white" stroke="black" points="224,-60.5 224,-101.5 398,-101.5 398,-60.5 224,-60.5"/>
<text text-anchor="start" x="232" y="-89.5" font-family="Helvetica,sans-Serif" font-size="10.00">SuiteCRMAddIn.BusinessLogic.</text>
<text text-anchor="start" x="232" y="-78.5" font-family="Helvetica,sans-Serif" font-size="10.00">Synchroniser&lt; Outlook.Appointment</text>
<text text-anchor="middle" x="311" y="-67.5" font-family="Helvetica,sans-Serif" font-size="10.00">Item &gt;::GetExistingSyncState</text>
</a>
</g>
</g>
<!-- Node1&#45;&gt;Node3 -->
<g id="edge2" class="edge"><title>Node1&#45;&gt;Node3</title>
<path fill="none" stroke="midnightblue" d="M188.052,-81C196.617,-81 205.306,-81 213.897,-81"/>
<polygon fill="midnightblue" stroke="midnightblue" points="213.924,-84.5001 223.924,-81 213.924,-77.5001 213.924,-84.5001"/>
</g>
<!-- Node4 -->
<g id="node4" class="node"><title>Node4</title>
<g id="a_node4"><a xlink:href="class_suite_c_r_m_add_in_1_1_business_logic_1_1_synchroniser.html#a9e06c6056beacdb87f5d807f4739b9ba" target="_top" xlink:title="Find any existing Outlook items which appear to be identical to this CRM item. ">
<polygon fill="white" stroke="black" points="224,-0.5 224,-41.5 398,-41.5 398,-0.5 224,-0.5"/>
<text text-anchor="start" x="232" y="-29.5" font-family="Helvetica,sans-Serif" font-size="10.00">SuiteCRMAddIn.BusinessLogic.</text>
<text text-anchor="start" x="232" y="-18.5" font-family="Helvetica,sans-Serif" font-size="10.00">Synchroniser&lt; Outlook.Appointment</text>
<text text-anchor="middle" x="311" y="-7.5" font-family="Helvetica,sans-Serif" font-size="10.00">Item &gt;::FindMatches</text>
</a>
</g>
</g>
<!-- Node1&#45;&gt;Node4 -->
<g id="edge3" class="edge"><title>Node1&#45;&gt;Node4</title>
<path fill="none" stroke="midnightblue" d="M168.69,-60.4353C187.323,-55.2355 207.464,-49.6147 226.541,-44.2909"/>
<polygon fill="midnightblue" stroke="midnightblue" points="227.715,-47.597 236.406,-41.5378 225.834,-40.8547 227.715,-47.597"/>
</g>
</g>
</svg>
