<?xml version="1.0" encoding="UTF-8" standalone="no"?>
<!DOCTYPE svg PUBLIC "-//W3C//DTD SVG 1.1//EN"
 "http://www.w3.org/Graphics/SVG/1.1/DTD/svg11.dtd">
<!-- Generated by graphviz version 2.38.0 (20140413.2041)
 -->
<!-- Title: SuiteCRMAddIn.Dialogs.ArchiveDialog.Dispose Pages: 1 -->
<svg width="1211pt" height="268pt"
 viewBox="0.00 0.00 1211.00 268.00" xmlns="http://www.w3.org/2000/svg" xmlns:xlink="http://www.w3.org/1999/xlink">
<g id="graph0" class="graph" transform="scale(1 1) rotate(0) translate(4 264)">
<title>SuiteCRMAddIn.Dialogs.ArchiveDialog.Dispose</title>
<polygon fill="white" stroke="none" points="-4,4 -4,-264 1207,-264 1207,4 -4,4"/>
<!-- Node1 -->
<g id="node1" class="node"><title>Node1</title>
<polygon fill="#bfbfbf" stroke="black" points="0,-122.5 0,-152.5 160,-152.5 160,-122.5 0,-122.5"/>
<text text-anchor="start" x="8" y="-140.5" font-family="Helvetica,sans-Serif" font-size="10.00">SuiteCRMAddIn.Dialogs.Archive</text>
<text text-anchor="middle" x="80" y="-129.5" font-family="Helvetica,sans-Serif" font-size="10.00">Dialog.Dispose</text>
</g>
<!-- Node2 -->
<g id="node2" class="node"><title>Node2</title>
<g id="a_node2"><a xlink:href="class_suite_c_r_m_add_in_1_1_dialogs_1_1_archive_dialog.html#a3160bc88861f266746f9631068fc9ed7" target="_top" xlink:title="SuiteCRMAddIn.Dialogs.Archive\lDialog.btnSearch_Click">
<polygon fill="white" stroke="black" points="196,-122.5 196,-152.5 356,-152.5 356,-122.5 196,-122.5"/>
<text text-anchor="start" x="204" y="-140.5" font-family="Helvetica,sans-Serif" font-size="10.00">SuiteCRMAddIn.Dialogs.Archive</text>
<text text-anchor="middle" x="276" y="-129.5" font-family="Helvetica,sans-Serif" font-size="10.00">Dialog.btnSearch_Click</text>
</a>
</g>
</g>
<!-- Node1&#45;&gt;Node2 -->
<g id="edge1" class="edge"><title>Node1&#45;&gt;Node2</title>
<path fill="none" stroke="midnightblue" d="M160.187,-137.5C168.529,-137.5 177.054,-137.5 185.502,-137.5"/>
<polygon fill="midnightblue" stroke="midnightblue" points="185.752,-141 195.752,-137.5 185.752,-134 185.752,-141"/>
</g>
<!-- Node3 -->
<g id="node3" class="node"><title>Node3</title>
<g id="a_node3"><a xlink:href="class_suite_c_r_m_add_in_1_1_dialogs_1_1_archive_dialog.html#a1b2d6e63a13ef6a7a3331a99cbd122e7" target="_top" xlink:title="SuiteCRMAddIn.Dialogs.Archive\lDialog.Search">
<polygon fill="white" stroke="black" points="392,-122.5 392,-152.5 552,-152.5 552,-122.5 392,-122.5"/>
<text text-anchor="start" x="400" y="-140.5" font-family="Helvetica,sans-Serif" font-size="10.00">SuiteCRMAddIn.Dialogs.Archive</text>
<text text-anchor="middle" x="472" y="-129.5" font-family="Helvetica,sans-Serif" font-size="10.00">Dialog.Search</text>
</a>
</g>
</g>
<!-- Node2&#45;&gt;Node3 -->
<g id="edge2" class="edge"><title>Node2&#45;&gt;Node3</title>
<path fill="none" stroke="midnightblue" d="M356.187,-130.852C364.529,-130.755 373.054,-130.727 381.502,-130.768"/>
<polygon fill="midnightblue" stroke="midnightblue" points="381.724,-134.27 391.752,-130.851 381.781,-127.27 381.724,-134.27"/>
</g>
<!-- Node3&#45;&gt;Node2 -->
<g id="edge14" class="edge"><title>Node3&#45;&gt;Node2</title>
<path fill="none" stroke="midnightblue" d="M391.752,-144.149C383.408,-144.245 374.884,-144.273 366.436,-144.232"/>
<polygon fill="midnightblue" stroke="midnightblue" points="366.215,-140.73 356.187,-144.148 366.158,-147.73 366.215,-140.73"/>
</g>
<!-- Node4 -->
<g id="node4" class="node"><title>Node4</title>
<g id="a_node4"><a xlink:href="struct_suite_c_r_m_add_in_1_1_wait_cursor.html#a7ba13e6acae32dbe5c97f21ba6c323b9" target="_top" xlink:title="SuiteCRMAddIn.WaitCursor.For">
<polygon fill="white" stroke="black" points="599.5,-235 599.5,-254 757.5,-254 757.5,-235 599.5,-235"/>
<text text-anchor="middle" x="678.5" y="-242" font-family="Helvetica,sans-Serif" font-size="10.00">SuiteCRMAddIn.WaitCursor.For</text>
</a>
</g>
</g>
<!-- Node3&#45;&gt;Node4 -->
<g id="edge3" class="edge"><title>Node3&#45;&gt;Node4</title>
<path fill="none" stroke="midnightblue" d="M489.664,-152.574C510.985,-171.105 549.748,-202.324 588,-220.5 597.79,-225.152 608.626,-229.017 619.279,-232.188"/>
<polygon fill="midnightblue" stroke="midnightblue" points="618.403,-235.578 628.976,-234.908 620.293,-228.838 618.403,-235.578"/>
</g>
<!-- Node6 -->
<g id="node6" class="node"><title>Node6</title>
<g id="a_node6"><a xlink:href="class_suite_c_r_m_client_1_1cls_suite_c_r_m_helper.html#a717fcb29df379f859e5bf91cbc1083c8" target="_top" xlink:title="SuiteCRMClient.clsSuiteCRMHelper.\lGetEntryList">
<polygon fill="white" stroke="black" points="805,-164.5 805,-194.5 986,-194.5 986,-164.5 805,-164.5"/>
<text text-anchor="start" x="813" y="-182.5" font-family="Helvetica,sans-Serif" font-size="10.00">SuiteCRMClient.clsSuiteCRMHelper.</text>
<text text-anchor="middle" x="895.5" y="-171.5" font-family="Helvetica,sans-Serif" font-size="10.00">GetEntryList</text>
</a>
</g>
</g>
<!-- Node3&#45;&gt;Node6 -->
<g id="edge5" class="edge"><title>Node3&#45;&gt;Node6</title>
<path fill="none" stroke="midnightblue" d="M499.377,-152.698C522.041,-164.827 556.028,-180.85 588,-187.5 655.862,-201.614 733.989,-199.3 794.38,-193.618"/>
<polygon fill="midnightblue" stroke="midnightblue" points="795.07,-197.067 804.677,-192.601 794.381,-190.101 795.07,-197.067"/>
</g>
<!-- Node8 -->
<g id="node8" class="node"><title>Node8</title>
<g id="a_node8"><a xlink:href="class_suite_c_r_m_add_in_1_1cls_globals.html#afcc5dc742f8dabdeb434dfb493a9d191" target="_top" xlink:title="SuiteCRMAddIn.clsGlobals.\lMySqlEscape">
<polygon fill="white" stroke="black" points="608.5,-147.5 608.5,-177.5 748.5,-177.5 748.5,-147.5 608.5,-147.5"/>
<text text-anchor="start" x="616.5" y="-165.5" font-family="Helvetica,sans-Serif" font-size="10.00">SuiteCRMAddIn.clsGlobals.</text>
<text text-anchor="middle" x="678.5" y="-154.5" font-family="Helvetica,sans-Serif" font-size="10.00">MySqlEscape</text>
</a>
</g>
</g>
<!-- Node3&#45;&gt;Node8 -->
<g id="edge7" class="edge"><title>Node3&#45;&gt;Node8</title>
<path fill="none" stroke="midnightblue" d="M552.065,-147.166C567.133,-149.008 582.91,-150.936 597.992,-152.78"/>
<polygon fill="midnightblue" stroke="midnightblue" points="597.954,-156.301 608.305,-154.041 598.803,-149.353 597.954,-156.301"/>
</g>
<!-- Node9 -->
<g id="node9" class="node"><title>Node9</title>
<g id="a_node9"><a xlink:href="class_suite_c_r_m_client_1_1cls_suite_c_r_m_helper.html#a6aaf13d4bb3d9a87db8540482a5e9754" target="_top" xlink:title="Get the names of all the fields of the module with this name whose data type is char or varchar or na...">
<polygon fill="white" stroke="black" points="588,-98.5 588,-128.5 769,-128.5 769,-98.5 588,-98.5"/>
<text text-anchor="start" x="596" y="-116.5" font-family="Helvetica,sans-Serif" font-size="10.00">SuiteCRMClient.clsSuiteCRMHelper.</text>
<text text-anchor="middle" x="678.5" y="-105.5" font-family="Helvetica,sans-Serif" font-size="10.00">GetCharacterFields</text>
</a>
</g>
</g>
<!-- Node3&#45;&gt;Node9 -->
<g id="edge8" class="edge"><title>Node3&#45;&gt;Node9</title>
<path fill="none" stroke="midnightblue" d="M552.065,-128.221C560.467,-127.235 569.089,-126.223 577.688,-125.214"/>
<polygon fill="midnightblue" stroke="midnightblue" points="578.233,-128.674 587.757,-124.032 577.417,-121.722 578.233,-128.674"/>
</g>
<!-- Node11 -->
<g id="node11" class="node"><title>Node11</title>
<g id="a_node11"><a xlink:href="class_suite_c_r_m_client_1_1cls_suite_c_r_m_helper.html#a54a65e000ff00bb87a5e8bf5e2ef8d43" target="_top" xlink:title="Find the fields, among the fields of this module, which are links and where the name of the relations...">
<polygon fill="white" stroke="black" points="588,-49.5 588,-79.5 769,-79.5 769,-49.5 588,-49.5"/>
<text text-anchor="start" x="596" y="-67.5" font-family="Helvetica,sans-Serif" font-size="10.00">SuiteCRMClient.clsSuiteCRMHelper.</text>
<text text-anchor="middle" x="678.5" y="-56.5" font-family="Helvetica,sans-Serif" font-size="10.00">GetActivitiesLinks</text>
</a>
</g>
</g>
<!-- Node3&#45;&gt;Node11 -->
<g id="edge11" class="edge"><title>Node3&#45;&gt;Node11</title>
<path fill="none" stroke="midnightblue" d="M505.238,-122.319C528.032,-111.943 559.485,-98.3433 588,-88.5 593.988,-86.4331 600.251,-84.4342 606.563,-82.5314"/>
<polygon fill="midnightblue" stroke="midnightblue" points="607.876,-85.7937 616.49,-79.6242 605.909,-79.0759 607.876,-85.7937"/>
</g>
<!-- Node12 -->
<g id="node12" class="node"><title>Node12</title>
<g id="a_node12"><a xlink:href="class_suite_c_r_m_client_1_1cls_suite_c_r_m_helper.html#aedb6c3b87ff73bef81eb4cb8d16fe2ae" target="_top" xlink:title="SuiteCRMClient.clsSuiteCRMHelper.\lGetValueByKey">
<polygon fill="white" stroke="black" points="588,-0.5 588,-30.5 769,-30.5 769,-0.5 588,-0.5"/>
<text text-anchor="start" x="596" y="-18.5" font-family="Helvetica,sans-Serif" font-size="10.00">SuiteCRMClient.clsSuiteCRMHelper.</text>
<text text-anchor="middle" x="678.5" y="-7.5" font-family="Helvetica,sans-Serif" font-size="10.00">GetValueByKey</text>
</a>
</g>
</g>
<!-- Node3&#45;&gt;Node12 -->
<g id="edge13" class="edge"><title>Node3&#45;&gt;Node12</title>
<path fill="none" stroke="midnightblue" d="M486.673,-122.164C506.772,-100.553 546.436,-61.3436 588,-39.5 591.685,-37.5635 595.539,-35.7733 599.491,-34.1196"/>
<polygon fill="midnightblue" stroke="midnightblue" points="600.787,-37.3712 608.855,-30.504 598.265,-30.841 600.787,-37.3712"/>
</g>
<!-- Node5 -->
<g id="node5" class="node"><title>Node5</title>
<g id="a_node5"><a xlink:href="struct_suite_c_r_m_add_in_1_1_wait_cursor.html#a5a3235a0e82ff01664e64e15a542babc" target="_top" xlink:title="SuiteCRMAddIn.WaitCursor.\lWaitCursor">
<polygon fill="white" stroke="black" points="824,-229.5 824,-259.5 967,-259.5 967,-229.5 824,-229.5"/>
<text text-anchor="start" x="832" y="-247.5" font-family="Helvetica,sans-Serif" font-size="10.00">SuiteCRMAddIn.WaitCursor.</text>
<text text-anchor="middle" x="895.5" y="-236.5" font-family="Helvetica,sans-Serif" font-size="10.00">WaitCursor</text>
</a>
</g>
</g>
<!-- Node4&#45;&gt;Node5 -->
<g id="edge4" class="edge"><title>Node4&#45;&gt;Node5</title>
<path fill="none" stroke="midnightblue" d="M757.728,-244.5C775.963,-244.5 795.415,-244.5 813.756,-244.5"/>
<polygon fill="midnightblue" stroke="midnightblue" points="813.817,-248 823.817,-244.5 813.817,-241 813.817,-248"/>
</g>
<!-- Node7 -->
<g id="node7" class="node"><title>Node7</title>
<g id="a_node7"><a xlink:href="class_suite_c_r_m_client_1_1cls_suite_c_r_m_helper.html#a80f04ec3ab185a736b6633c0df69c536" target="_top" xlink:title="SuiteCRMClient.clsSuiteCRMHelper.\lEnsureLoggedIn">
<polygon fill="white" stroke="black" points="1022,-131.5 1022,-161.5 1203,-161.5 1203,-131.5 1022,-131.5"/>
<text text-anchor="start" x="1030" y="-149.5" font-family="Helvetica,sans-Serif" font-size="10.00">SuiteCRMClient.clsSuiteCRMHelper.</text>
<text text-anchor="middle" x="1112.5" y="-138.5" font-family="Helvetica,sans-Serif" font-size="10.00">EnsureLoggedIn</text>
</a>
</g>
</g>
<!-- Node6&#45;&gt;Node7 -->
<g id="edge6" class="edge"><title>Node6&#45;&gt;Node7</title>
<path fill="none" stroke="midnightblue" d="M986.123,-165.744C994.57,-164.447 1003.17,-163.128 1011.7,-161.818"/>
<polygon fill="midnightblue" stroke="midnightblue" points="1012.32,-165.263 1021.68,-160.287 1011.26,-158.345 1012.32,-165.263"/>
</g>
<!-- Node10 -->
<g id="node10" class="node"><title>Node10</title>
<g id="a_node10"><a xlink:href="class_suite_c_r_m_client_1_1cls_suite_c_r_m_helper.html#aae0adc545d51a81ed1297ceaa8b1522a" target="_top" xlink:title="Get the module fields data for the module with this name, if any. ">
<polygon fill="white" stroke="black" points="805,-98.5 805,-128.5 986,-128.5 986,-98.5 805,-98.5"/>
<text text-anchor="start" x="813" y="-116.5" font-family="Helvetica,sans-Serif" font-size="10.00">SuiteCRMClient.clsSuiteCRMHelper.</text>
<text text-anchor="middle" x="895.5" y="-105.5" font-family="Helvetica,sans-Serif" font-size="10.00">GetFieldsForModule</text>
</a>
</g>
</g>
<!-- Node9&#45;&gt;Node10 -->
<g id="edge9" class="edge"><title>Node9&#45;&gt;Node10</title>
<path fill="none" stroke="midnightblue" d="M769.123,-113.5C777.478,-113.5 785.982,-113.5 794.424,-113.5"/>
<polygon fill="midnightblue" stroke="midnightblue" points="794.677,-117 804.677,-113.5 794.677,-110 794.677,-117"/>
</g>
<!-- Node10&#45;&gt;Node7 -->
<g id="edge10" class="edge"><title>Node10&#45;&gt;Node7</title>
<path fill="none" stroke="midnightblue" d="M986.123,-127.256C994.57,-128.553 1003.17,-129.872 1011.7,-131.182"/>
<polygon fill="midnightblue" stroke="midnightblue" points="1011.26,-134.655 1021.68,-132.713 1012.32,-127.737 1011.26,-134.655"/>
</g>
<!-- Node11&#45;&gt;Node10 -->
<g id="edge12" class="edge"><title>Node11&#45;&gt;Node10</title>
<path fill="none" stroke="midnightblue" d="M745.468,-79.5346C768.685,-84.8259 794.956,-90.8133 818.904,-96.2712"/>
<polygon fill="midnightblue" stroke="midnightblue" points="818.129,-99.6841 828.657,-98.4938 819.684,-92.8591 818.129,-99.6841"/>
</g>
</g>
</svg>
