<?xml version="1.0" encoding="UTF-8" standalone="no"?>
<!DOCTYPE svg PUBLIC "-//W3C//DTD SVG 1.1//EN"
 "http://www.w3.org/Graphics/SVG/1.1/DTD/svg11.dtd">
<!-- Generated by graphviz version 2.38.0 (20140413.2041)
 -->
<!-- Title: SuiteCRMAddIn.BusinessLogic.RepeatingProcess Pages: 1 -->
<svg width="168pt" height="163pt"
 viewBox="0.00 0.00 168.00 163.00" xmlns="http://www.w3.org/2000/svg" xmlns:xlink="http://www.w3.org/1999/xlink">
<g id="graph0" class="graph" transform="scale(1 1) rotate(0) translate(4 159)">
<title>SuiteCRMAddIn.BusinessLogic.RepeatingProcess</title>
<polygon fill="white" stroke="none" points="-4,4 -4,-159 164,-159 164,4 -4,4"/>
<!-- Node1 -->
<g id="node1" class="node"><title>Node1</title>
<polygon fill="#bfbfbf" stroke="black" points="1,-0.5 1,-30.5 159,-30.5 159,-0.5 1,-0.5"/>
<text text-anchor="start" x="9" y="-18.5" font-family="Helvetica,sans-Serif" font-size="10.00">SuiteCRMAddIn.BusinessLogic.</text>
<text text-anchor="middle" x="80" y="-7.5" font-family="Helvetica,sans-Serif" font-size="10.00">RepeatingProcess</text>
</g>
<!-- Node2 -->
<g id="node2" class="node"><title>Node2</title>
<g id="a_node2"><a xlink:href="interface_suite_c_r_m_client_1_1_logging_1_1_i_logger.html" target="_top" xlink:title="Interface implemented by all logging classes ">
<polygon fill="white" stroke="black" points="0,-78.5 0,-97.5 160,-97.5 160,-78.5 0,-78.5"/>
<text text-anchor="middle" x="80" y="-85.5" font-family="Helvetica,sans-Serif" font-size="10.00">SuiteCRMClient.Logging.ILogger</text>
</a>
</g>
</g>
<!-- Node2&#45;&gt;Node1 -->
<g id="edge1" class="edge"><title>Node2&#45;&gt;Node1</title>
<path fill="none" stroke="#9a32cd" stroke-dasharray="5,2" d="M80,-68.2362C80,-56.4079 80,-41.3829 80,-30.5762"/>
<polygon fill="#9a32cd" stroke="#9a32cd" points="76.5001,-68.3553 80,-78.3553 83.5001,-68.3554 76.5001,-68.3553"/>
<text text-anchor="middle" x="89.5" y="-52" font-family="Helvetica,sans-Serif" font-size="10.00"> Log</text>
</g>
<!-- Node3 -->
<g id="node3" class="node"><title>Node3</title>
<polygon fill="white" stroke="#bfbfbf" points="46,-135.5 46,-154.5 114,-154.5 114,-135.5 46,-135.5"/>
<text text-anchor="middle" x="80" y="-142.5" font-family="Helvetica,sans-Serif" font-size="10.00">IDisposable</text>
</g>
<!-- Node3&#45;&gt;Node2 -->
<g id="edge2" class="edge"><title>Node3&#45;&gt;Node2</title>
<path fill="none" stroke="midnightblue" d="M80,-125.117C80,-115.817 80,-105.056 80,-97.7149"/>
<polygon fill="midnightblue" stroke="midnightblue" points="76.5001,-125.406 80,-135.406 83.5001,-125.406 76.5001,-125.406"/>
</g>
</g>
</svg>
