<?xml version="1.0" encoding="UTF-8" standalone="no"?>
<!DOCTYPE svg PUBLIC "-//W3C//DTD SVG 1.1//EN"
 "http://www.w3.org/Graphics/SVG/1.1/DTD/svg11.dtd">
<!-- Generated by graphviz version 2.38.0 (20140413.2041)
 -->
<!-- Title: SuiteCRMAddIn.BusinessLogic.Synchroniser.ShouldAddOrUpdateItemFromOutlookToCrm Pages: 1 -->
<svg width="445pt" height="68pt"
 viewBox="0.00 0.00 445.00 68.00" xmlns="http://www.w3.org/2000/svg" xmlns:xlink="http://www.w3.org/1999/xlink">
<g id="graph0" class="graph" transform="scale(1 1) rotate(0) translate(4 64)">
<title>SuiteCRMAddIn.BusinessLogic.Synchroniser.ShouldAddOrUpdateItemFromOutlookToCrm</title>
<polygon fill="white" stroke="none" points="-4,4 -4,-64 441,-64 441,4 -4,4"/>
<!-- Node1 -->
<g id="node1" class="node"><title>Node1</title>
<polygon fill="#bfbfbf" stroke="black" points="0,-0.5 0,-41.5 185,-41.5 185,-0.5 0,-0.5"/>
<text text-anchor="start" x="8" y="-29.5" font-family="Helvetica,sans-Serif" font-size="10.00">SuiteCRMAddIn.BusinessLogic.</text>
<text text-anchor="start" x="8" y="-18.5" font-family="Helvetica,sans-Serif" font-size="10.00">Synchroniser.ShouldAddOrUpdateItem</text>
<text text-anchor="middle" x="92.5" y="-7.5" font-family="Helvetica,sans-Serif" font-size="10.00">FromOutlookToCrm</text>
</g>
<!-- Node1&#45;&gt;Node1 -->
<g id="edge1" class="edge"><title>Node1&#45;&gt;Node1</title>
<path fill="none" stroke="midnightblue" d="M51.8976,-51.8561C57.9356,-56.6966 71.4697,-60 92.5,-60 126.148,-60 140.607,-51.5433 135.875,-41.8644"/>
<polygon fill="midnightblue" stroke="midnightblue" points="55.1715,-50.5645 49.1251,-41.8644 48.4264,-52.4362 55.1715,-50.5645"/>
</g>
<!-- Node2 -->
<g id="node2" class="node"><title>Node2</title>
<g id="a_node2"><a xlink:href="class_suite_c_r_m_add_in_1_1_business_logic_1_1_synchroniser.html#aecaeaaae371d340839392edf8d8f396e" target="_top" xlink:title="Add the Outlook item referenced by this sync state, which may not exist in CRM, to CRM...">
<polygon fill="white" stroke="black" points="221,-0.5 221,-41.5 437,-41.5 437,-0.5 221,-0.5"/>
<text text-anchor="start" x="229" y="-29.5" font-family="Helvetica,sans-Serif" font-size="10.00">SuiteCRMAddIn.BusinessLogic.</text>
<text text-anchor="start" x="229" y="-18.5" font-family="Helvetica,sans-Serif" font-size="10.00">Synchroniser&lt; Outlook.Appointment</text>
<text text-anchor="middle" x="329" y="-7.5" font-family="Helvetica,sans-Serif" font-size="10.00">Item &gt;::AddOrUpdateItemFromOutlookToCrm</text>
</a>
</g>
</g>
<!-- Node1&#45;&gt;Node2 -->
<g id="edge2" class="edge"><title>Node1&#45;&gt;Node2</title>
<path fill="none" stroke="midnightblue" d="M195.386,-21C203.814,-21 212.349,-21 220.814,-21"/>
<polygon fill="midnightblue" stroke="midnightblue" points="195.171,-17.5001 185.171,-21 195.171,-24.5001 195.171,-17.5001"/>
</g>
</g>
</svg>
