<?xml version="1.0" encoding="UTF-8" standalone="no"?>
<!DOCTYPE svg PUBLIC "-//W3C//DTD SVG 1.1//EN"
 "http://www.w3.org/Graphics/SVG/1.1/DTD/svg11.dtd">
<!-- Generated by graphviz version 2.38.0 (20140413.2041)
 -->
<!-- Title: SuiteCRMAddIn.BusinessLogic.ContactSyncing.LogItemAction Pages: 1 -->
<svg width="446pt" height="50pt"
 viewBox="0.00 0.00 446.00 50.00" xmlns="http://www.w3.org/2000/svg" xmlns:xlink="http://www.w3.org/1999/xlink">
<g id="graph0" class="graph" transform="scale(1 1) rotate(0) translate(4 46)">
<title>SuiteCRMAddIn.BusinessLogic.ContactSyncing.LogItemAction</title>
<polygon fill="white" stroke="none" points="-4,4 -4,-46 442,-46 442,4 -4,4"/>
<!-- Node1 -->
<g id="node1" class="node"><title>Node1</title>
<polygon fill="#bfbfbf" stroke="black" points="0,-6 0,-36 158,-36 158,-6 0,-6"/>
<text text-anchor="start" x="8" y="-24" font-family="Helvetica,sans-Serif" font-size="10.00">SuiteCRMAddIn.BusinessLogic.</text>
<text text-anchor="middle" x="79" y="-13" font-family="Helvetica,sans-Serif" font-size="10.00">ContactSyncing.LogItemAction</text>
</g>
<!-- Node2 -->
<g id="node2" class="node"><title>Node2</title>
<g id="a_node2"><a xlink:href="class_suite_c_r_m_add_in_1_1_business_logic_1_1_synchroniser.html#a8c1e906f4a8c369c69e5cdbb73c1cfb2" target="_top" xlink:title="Every Outlook item which is to be synchronised must have a property SOModifiedDate, a property SType, and a property SEntryId, referencing respectively the last time it was modified, the type of CRM item it is to be synchronised with, and the id of the CRM item it is to be synchronised with. ">
<polygon fill="white" stroke="black" points="194,-0.5 194,-41.5 438,-41.5 438,-0.5 194,-0.5"/>
<text text-anchor="start" x="202" y="-29.5" font-family="Helvetica,sans-Serif" font-size="10.00">SuiteCRMAddIn.BusinessLogic.</text>
<text text-anchor="start" x="202" y="-18.5" font-family="Helvetica,sans-Serif" font-size="10.00">Synchroniser&lt; Outlook.ContactItem</text>
<text text-anchor="middle" x="316" y="-7.5" font-family="Helvetica,sans-Serif" font-size="10.00"> &gt;::EnsureSynchronisationPropertiesForOutlookItem</text>
</a>
</g>
</g>
<!-- Node1&#45;&gt;Node2 -->
<g id="edge1" class="edge"><title>Node1&#45;&gt;Node2</title>
<path fill="none" stroke="midnightblue" d="M158.252,-21C166.505,-21 175.05,-21 183.696,-21"/>
<polygon fill="midnightblue" stroke="midnightblue" points="183.881,-24.5001 193.881,-21 183.881,-17.5001 183.881,-24.5001"/>
</g>
</g>
</svg>
