<?xml version="1.0" encoding="UTF-8" standalone="no"?>
<!DOCTYPE svg PUBLIC "-//W3C//DTD SVG 1.1//EN"
 "http://www.w3.org/Graphics/SVG/1.1/DTD/svg11.dtd">
<!-- Generated by graphviz version 2.38.0 (20140413.2041)
 -->
<!-- Title: SuiteCRMAddIn.ProtoItems.ProtoTask.AsNameValues Pages: 1 -->
<svg width="367pt" height="88pt"
 viewBox="0.00 0.00 367.00 88.00" xmlns="http://www.w3.org/2000/svg" xmlns:xlink="http://www.w3.org/1999/xlink">
<g id="graph0" class="graph" transform="scale(1 1) rotate(0) translate(4 84)">
<title>SuiteCRMAddIn.ProtoItems.ProtoTask.AsNameValues</title>
<polygon fill="white" stroke="none" points="-4,4 -4,-84 363,-84 363,4 -4,4"/>
<!-- Node1 -->
<g id="node1" class="node"><title>Node1</title>
<polygon fill="#bfbfbf" stroke="black" points="0,-24.5 0,-54.5 142,-54.5 142,-24.5 0,-24.5"/>
<text text-anchor="start" x="8" y="-42.5" font-family="Helvetica,sans-Serif" font-size="10.00">SuiteCRMAddIn.ProtoItems.</text>
<text text-anchor="middle" x="71" y="-31.5" font-family="Helvetica,sans-Serif" font-size="10.00">ProtoTask.AsNameValues</text>
</g>
<!-- Node2 -->
<g id="node2" class="node"><title>Node2</title>
<g id="a_node2"><a xlink:href="class_suite_c_r_m_client_1_1cls_suite_c_r_m_helper.html#a0e1f5bda4e7a7ebf6f9ee988086dd79d" target="_top" xlink:title="SuiteCRMClient.clsSuiteCRMHelper.\lSetNameValuePair">
<polygon fill="white" stroke="black" points="178,-49.5 178,-79.5 359,-79.5 359,-49.5 178,-49.5"/>
<text text-anchor="start" x="186" y="-67.5" font-family="Helvetica,sans-Serif" font-size="10.00">SuiteCRMClient.clsSuiteCRMHelper.</text>
<text text-anchor="middle" x="268.5" y="-56.5" font-family="Helvetica,sans-Serif" font-size="10.00">SetNameValuePair</text>
</a>
</g>
</g>
<!-- Node1&#45;&gt;Node2 -->
<g id="edge1" class="edge"><title>Node1&#45;&gt;Node2</title>
<path fill="none" stroke="midnightblue" d="M142.028,-48.455C150.375,-49.5224 159.017,-50.6274 167.68,-51.7353"/>
<polygon fill="midnightblue" stroke="midnightblue" points="167.48,-55.2381 177.843,-53.0349 168.368,-48.2947 167.48,-55.2381"/>
</g>
<!-- Node3 -->
<g id="node3" class="node"><title>Node3</title>
<g id="a_node3"><a xlink:href="class_suite_c_r_m_client_1_1cls_suite_c_r_m_helper.html#a050637c0cbd1012cf9cf58c5cb3d179c" target="_top" xlink:title="Return the CRM id of the current user. ">
<polygon fill="white" stroke="black" points="178,-0.5 178,-30.5 359,-30.5 359,-0.5 178,-0.5"/>
<text text-anchor="start" x="186" y="-18.5" font-family="Helvetica,sans-Serif" font-size="10.00">SuiteCRMClient.clsSuiteCRMHelper.</text>
<text text-anchor="middle" x="268.5" y="-7.5" font-family="Helvetica,sans-Serif" font-size="10.00">GetUserId</text>
</a>
</g>
</g>
<!-- Node1&#45;&gt;Node3 -->
<g id="edge2" class="edge"><title>Node1&#45;&gt;Node3</title>
<path fill="none" stroke="midnightblue" d="M142.028,-30.9032C150.375,-29.8785 159.017,-28.8177 167.68,-27.7542"/>
<polygon fill="midnightblue" stroke="midnightblue" points="168.344,-31.199 177.843,-26.5065 167.491,-24.2511 168.344,-31.199"/>
</g>
</g>
</svg>
