<?xml version="1.0" encoding="UTF-8" standalone="no"?>
<!DOCTYPE svg PUBLIC "-//W3C//DTD SVG 1.1//EN"
 "http://www.w3.org/Graphics/SVG/1.1/DTD/svg11.dtd">
<!-- Generated by graphviz version 2.38.0 (20140413.2041)
 -->
<!-- Title: SuiteCRMClient.clsSuiteCRMHelper.SetEntry Pages: 1 -->
<svg width="633pt" height="279pt"
 viewBox="0.00 0.00 633.00 278.50" xmlns="http://www.w3.org/2000/svg" xmlns:xlink="http://www.w3.org/1999/xlink">
<g id="graph0" class="graph" transform="scale(1 1) rotate(0) translate(4 274.5)">
<title>SuiteCRMClient.clsSuiteCRMHelper.SetEntry</title>
<polygon fill="white" stroke="none" points="-4,4 -4,-274.5 629,-274.5 629,4 -4,4"/>
<!-- Node1 -->
<g id="node1" class="node"><title>Node1</title>
<polygon fill="#bfbfbf" stroke="black" points="0,-114.5 0,-144.5 181,-144.5 181,-114.5 0,-114.5"/>
<text text-anchor="start" x="8" y="-132.5" font-family="Helvetica,sans-Serif" font-size="10.00">SuiteCRMClient.clsSuiteCRMHelper.</text>
<text text-anchor="middle" x="90.5" y="-121.5" font-family="Helvetica,sans-Serif" font-size="10.00">SetEntry</text>
</g>
<!-- Node2 -->
<g id="node2" class="node"><title>Node2</title>
<g id="a_node2"><a xlink:href="class_suite_c_r_m_client_1_1cls_suite_c_r_m_helper.html#a7bbecd35543154e9785fcfd7788f54e8" target="_top" xlink:title="Sets an entry in CRM and returns the id. &#39;Unsafe&#39; because if it fails (for whatever reason)...">
<polygon fill="white" stroke="black" points="217,-114.5 217,-144.5 398,-144.5 398,-114.5 217,-114.5"/>
<text text-anchor="start" x="225" y="-132.5" font-family="Helvetica,sans-Serif" font-size="10.00">SuiteCRMClient.clsSuiteCRMHelper.</text>
<text text-anchor="middle" x="307.5" y="-121.5" font-family="Helvetica,sans-Serif" font-size="10.00">SetEntryUnsafe</text>
</a>
</g>
</g>
<!-- Node1&#45;&gt;Node2 -->
<g id="edge1" class="edge"><title>Node1&#45;&gt;Node2</title>
<path fill="none" stroke="midnightblue" d="M191.374,-129.5C199.815,-129.5 208.319,-129.5 216.677,-129.5"/>
<polygon fill="midnightblue" stroke="midnightblue" points="191.123,-126 181.123,-129.5 191.122,-133 191.123,-126"/>
</g>
<!-- Node3 -->
<g id="node3" class="node"><title>Node3</title>
<g id="a_node3"><a xlink:href="class_suite_c_r_m_add_in_1_1_business_logic_1_1_appointment_syncing.html#aedf9bb06e59be22da446a8c56d5c52c1" target="_top" xlink:title="Construct a JSON packet representing this Outlook item, and despatch it to CRM. ">
<polygon fill="white" stroke="black" points="444.5,-229 444.5,-270 614.5,-270 614.5,-229 444.5,-229"/>
<text text-anchor="start" x="452.5" y="-258" font-family="Helvetica,sans-Serif" font-size="10.00">SuiteCRMAddIn.BusinessLogic.</text>
<text text-anchor="start" x="452.5" y="-247" font-family="Helvetica,sans-Serif" font-size="10.00">AppointmentSyncing.ConstructAnd</text>
<text text-anchor="middle" x="529.5" y="-236" font-family="Helvetica,sans-Serif" font-size="10.00">DespatchCrmItem</text>
</a>
</g>
</g>
<!-- Node2&#45;&gt;Node3 -->
<g id="edge2" class="edge"><title>Node2&#45;&gt;Node3</title>
<path fill="none" stroke="midnightblue" d="M333.62,-151.179C357.919,-171.229 396.48,-200.688 434,-219.5 440.847,-222.933 448.17,-226.079 455.595,-228.934"/>
<polygon fill="midnightblue" stroke="midnightblue" points="335.562,-148.241 325.645,-144.513 331.072,-153.612 335.562,-148.241"/>
</g>
<!-- Node4 -->
<g id="node4" class="node"><title>Node4</title>
<g id="a_node4"><a xlink:href="class_suite_c_r_m_add_in_1_1_business_logic_1_1_contact_syncing.html#a0da78ea432c0dd09442d19ec02b4c3b5" target="_top" xlink:title="Construct a JSON packet representing this Outlook item, and despatch it to CRM. ">
<polygon fill="white" stroke="black" points="434,-169 434,-210 625,-210 625,-169 434,-169"/>
<text text-anchor="start" x="442" y="-198" font-family="Helvetica,sans-Serif" font-size="10.00">SuiteCRMAddIn.BusinessLogic.</text>
<text text-anchor="start" x="442" y="-187" font-family="Helvetica,sans-Serif" font-size="10.00">ContactSyncing.ConstructAndDespatch</text>
<text text-anchor="middle" x="529.5" y="-176" font-family="Helvetica,sans-Serif" font-size="10.00">CrmItem</text>
</a>
</g>
</g>
<!-- Node2&#45;&gt;Node4 -->
<g id="edge3" class="edge"><title>Node2&#45;&gt;Node4</title>
<path fill="none" stroke="midnightblue" d="M373.493,-147.225C398.542,-154.057 427.355,-161.915 453.292,-168.989"/>
<polygon fill="midnightblue" stroke="midnightblue" points="374.3,-143.818 363.731,-144.563 372.458,-150.571 374.3,-143.818"/>
</g>
<!-- Node5 -->
<g id="node5" class="node"><title>Node5</title>
<g id="a_node5"><a xlink:href="class_suite_c_r_m_add_in_1_1_business_logic_1_1_synchroniser.html#a3df7723090576b81797aa38a31eb67aa" target="_top" xlink:title="Remove the item implied by this sync state from CRM. ">
<polygon fill="white" stroke="black" points="442.5,-109 442.5,-150 616.5,-150 616.5,-109 442.5,-109"/>
<text text-anchor="start" x="450.5" y="-138" font-family="Helvetica,sans-Serif" font-size="10.00">SuiteCRMAddIn.BusinessLogic.</text>
<text text-anchor="start" x="450.5" y="-127" font-family="Helvetica,sans-Serif" font-size="10.00">Synchroniser&lt; Outlook.Appointment</text>
<text text-anchor="middle" x="529.5" y="-116" font-family="Helvetica,sans-Serif" font-size="10.00">Item &gt;::RemoveFromCrm</text>
</a>
</g>
</g>
<!-- Node2&#45;&gt;Node5 -->
<g id="edge4" class="edge"><title>Node2&#45;&gt;Node5</title>
<path fill="none" stroke="midnightblue" d="M408.558,-129.5C419.785,-129.5 431.152,-129.5 442.185,-129.5"/>
<polygon fill="midnightblue" stroke="midnightblue" points="408.3,-126 398.3,-129.5 408.3,-133 408.3,-126"/>
</g>
<!-- Node6 -->
<g id="node6" class="node"><title>Node6</title>
<g id="a_node6"><a xlink:href="class_suite_c_r_m_add_in_1_1_business_logic_1_1_task_syncing.html#a5ffca39ee66e0c50f42ea434e3f9af9d" target="_top" xlink:title="Construct a JSON packet representing this Outlook item, and despatch it to CRM. ">
<polygon fill="white" stroke="black" points="440,-49 440,-90 619,-90 619,-49 440,-49"/>
<text text-anchor="start" x="448" y="-78" font-family="Helvetica,sans-Serif" font-size="10.00">SuiteCRMAddIn.BusinessLogic.</text>
<text text-anchor="start" x="448" y="-67" font-family="Helvetica,sans-Serif" font-size="10.00">TaskSyncing.ConstructAndDespatch</text>
<text text-anchor="middle" x="529.5" y="-56" font-family="Helvetica,sans-Serif" font-size="10.00">CrmItem</text>
</a>
</g>
</g>
<!-- Node2&#45;&gt;Node6 -->
<g id="edge5" class="edge"><title>Node2&#45;&gt;Node6</title>
<path fill="none" stroke="midnightblue" d="M373.493,-111.775C398.542,-104.943 427.355,-97.0849 453.292,-90.0114"/>
<polygon fill="midnightblue" stroke="midnightblue" points="372.458,-108.429 363.731,-114.437 374.3,-115.182 372.458,-108.429"/>
</g>
<!-- Node7 -->
<g id="node7" class="node"><title>Node7</title>
<g id="a_node7"><a xlink:href="class_suite_c_r_m_client_1_1cls_suite_c_r_m_helper.html#aca5e6959e4cc77c59ef2b6f3586ee6cb" target="_top" xlink:title="Sets an entry in CRM and returns the id. &#39;Unsafe&#39; because if it fails (for whatever reason)...">
<polygon fill="white" stroke="black" points="439,-0.5 439,-30.5 620,-30.5 620,-0.5 439,-0.5"/>
<text text-anchor="start" x="447" y="-18.5" font-family="Helvetica,sans-Serif" font-size="10.00">SuiteCRMClient.clsSuiteCRMHelper.</text>
<text text-anchor="middle" x="529.5" y="-7.5" font-family="Helvetica,sans-Serif" font-size="10.00">SetEntryUnsafe</text>
</a>
</g>
</g>
<!-- Node2&#45;&gt;Node7 -->
<g id="edge6" class="edge"><title>Node2&#45;&gt;Node7</title>
<path fill="none" stroke="midnightblue" d="M332.965,-107.668C357.063,-87.249 395.727,-57.3045 434,-39.5 441.29,-36.1086 449.128,-33.1495 457.06,-30.579"/>
<polygon fill="midnightblue" stroke="midnightblue" points="330.371,-105.282 325.073,-114.457 334.936,-110.589 330.371,-105.282"/>
</g>
</g>
</svg>
