<?xml version="1.0" encoding="UTF-8" standalone="no"?>
<!DOCTYPE svg PUBLIC "-//W3C//DTD SVG 1.1//EN"
 "http://www.w3.org/Graphics/SVG/1.1/DTD/svg11.dtd">
<!-- Generated by graphviz version 2.38.0 (20140413.2041)
 -->
<!-- Title: SuiteCRMAddIn.BusinessLogic.RepeatingProcess.Start Pages: 1 -->
<svg width="356pt" height="57pt"
 viewBox="0.00 0.00 356.00 57.00" xmlns="http://www.w3.org/2000/svg" xmlns:xlink="http://www.w3.org/1999/xlink">
<g id="graph0" class="graph" transform="scale(1 1) rotate(0) translate(4 53)">
<title>SuiteCRMAddIn.BusinessLogic.RepeatingProcess.Start</title>
<polygon fill="white" stroke="none" points="-4,4 -4,-53 352,-53 352,4 -4,4"/>
<!-- Node1 -->
<g id="node1" class="node"><title>Node1</title>
<polygon fill="#bfbfbf" stroke="black" points="0,-0.5 0,-30.5 158,-30.5 158,-0.5 0,-0.5"/>
<text text-anchor="start" x="8" y="-18.5" font-family="Helvetica,sans-Serif" font-size="10.00">SuiteCRMAddIn.BusinessLogic.</text>
<text text-anchor="middle" x="79" y="-7.5" font-family="Helvetica,sans-Serif" font-size="10.00">RepeatingProcess.Start</text>
</g>
<!-- Node1&#45;&gt;Node1 -->
<g id="edge1" class="edge"><title>Node1&#45;&gt;Node1</title>
<path fill="none" stroke="midnightblue" d="M44.8839,-40.9579C49.1182,-45.679 60.4902,-49 79,-49 109.375,-49 120.528,-40.0566 112.46,-30.659"/>
<polygon fill="midnightblue" stroke="midnightblue" points="48.3971,-40.8613 45.54,-30.659 41.4112,-40.4162 48.3971,-40.8613"/>
</g>
<!-- Node2 -->
<g id="node2" class="node"><title>Node2</title>
<g id="a_node2"><a xlink:href="class_suite_c_r_m_add_in_1_1_this_add_in.html#a4672086c412924ca3bf5c6aa52466c89" target="_top" xlink:title="SuiteCRMAddIn.ThisAddIn.\lStartSynchronisationProcesses">
<polygon fill="white" stroke="black" points="194,-0.5 194,-30.5 348,-30.5 348,-0.5 194,-0.5"/>
<text text-anchor="start" x="202" y="-18.5" font-family="Helvetica,sans-Serif" font-size="10.00">SuiteCRMAddIn.ThisAddIn.</text>
<text text-anchor="middle" x="271" y="-7.5" font-family="Helvetica,sans-Serif" font-size="10.00">StartSynchronisationProcesses</text>
</a>
</g>
</g>
<!-- Node1&#45;&gt;Node2 -->
<g id="edge2" class="edge"><title>Node1&#45;&gt;Node2</title>
<path fill="none" stroke="midnightblue" d="M168.381,-15.5C176.852,-15.5 185.393,-15.5 193.733,-15.5"/>
<polygon fill="midnightblue" stroke="midnightblue" points="168.103,-12.0001 158.103,-15.5 168.103,-19.0001 168.103,-12.0001"/>
</g>
</g>
</svg>
