<?xml version="1.0" encoding="UTF-8" standalone="no"?>
<!DOCTYPE svg PUBLIC "-//W3C//DTD SVG 1.1//EN"
 "http://www.w3.org/Graphics/SVG/1.1/DTD/svg11.dtd">
<!-- Generated by graphviz version 2.38.0 (20140413.2041)
 -->
<!-- Title: SuiteCRMAddIn.Dialogs.ArchiveDialog Pages: 1 -->
<svg width="168pt" height="106pt"
 viewBox="0.00 0.00 168.00 106.00" xmlns="http://www.w3.org/2000/svg" xmlns:xlink="http://www.w3.org/1999/xlink">
<g id="graph0" class="graph" transform="scale(1 1) rotate(0) translate(4 102)">
<title>SuiteCRMAddIn.Dialogs.ArchiveDialog</title>
<polygon fill="white" stroke="none" points="-4,4 -4,-102 164,-102 164,4 -4,4"/>
<!-- Node1 -->
<g id="node1" class="node"><title>Node1</title>
<polygon fill="#bfbfbf" stroke="black" points="0,-0.5 0,-30.5 160,-30.5 160,-0.5 0,-0.5"/>
<text text-anchor="start" x="8" y="-18.5" font-family="Helvetica,sans-Serif" font-size="10.00">SuiteCRMAddIn.Dialogs.Archive</text>
<text text-anchor="middle" x="80" y="-7.5" font-family="Helvetica,sans-Serif" font-size="10.00">Dialog</text>
</g>
<!-- Node2 -->
<g id="node2" class="node"><title>Node2</title>
<polygon fill="white" stroke="#bfbfbf" points="29.5,-78.5 29.5,-97.5 68.5,-97.5 68.5,-78.5 29.5,-78.5"/>
<text text-anchor="middle" x="49" y="-85.5" font-family="Helvetica,sans-Serif" font-size="10.00">Form</text>
</g>
<!-- Node2&#45;&gt;Node1 -->
<g id="edge1" class="edge"><title>Node2&#45;&gt;Node1</title>
<path fill="none" stroke="midnightblue" d="M56.9308,-68.9637C62.1786,-57.0293 68.9606,-41.6057 73.8105,-30.5762"/>
<polygon fill="midnightblue" stroke="midnightblue" points="53.6225,-67.7924 52.8012,-78.3553 60.0304,-70.61 53.6225,-67.7924"/>
</g>
<!-- Node3 -->
<g id="node3" class="node"><title>Node3</title>
<polygon fill="white" stroke="#bfbfbf" points="87,-78.5 87,-97.5 137,-97.5 137,-78.5 87,-78.5"/>
<text text-anchor="middle" x="112" y="-85.5" font-family="Helvetica,sans-Serif" font-size="10.00">System</text>
</g>
<!-- Node3&#45;&gt;Node1 -->
<g id="edge2" class="edge"><title>Node3&#45;&gt;Node1</title>
<path fill="none" stroke="#9a32cd" stroke-dasharray="5,2" d="M103.813,-68.9637C98.3963,-57.0293 91.3955,-41.6057 86.3892,-30.5762"/>
<polygon fill="#9a32cd" stroke="#9a32cd" points="100.756,-70.6961 108.076,-78.3553 107.13,-67.8028 100.756,-70.6961"/>
<text text-anchor="middle" x="122" y="-52" font-family="Helvetica,sans-Serif" font-size="10.00"> txtSearch</text>
</g>
</g>
</svg>
