<?xml version="1.0" encoding="UTF-8" standalone="no"?>
<!DOCTYPE svg PUBLIC "-//W3C//DTD SVG 1.1//EN"
 "http://www.w3.org/Graphics/SVG/1.1/DTD/svg11.dtd">
<!-- Generated by graphviz version 2.38.0 (20140413.2041)
 -->
<!-- Title: SuiteCRMAddIn.ProtoItems.ProtoAppointment Pages: 1 -->
<svg width="168pt" height="106pt"
 viewBox="0.00 0.00 168.00 106.00" xmlns="http://www.w3.org/2000/svg" xmlns:xlink="http://www.w3.org/1999/xlink">
<g id="graph0" class="graph" transform="scale(1 1) rotate(0) translate(4 102)">
<title>SuiteCRMAddIn.ProtoItems.ProtoAppointment</title>
<polygon fill="white" stroke="none" points="-4,4 -4,-102 164,-102 164,4 -4,4"/>
<!-- Node1 -->
<g id="node1" class="node"><title>Node1</title>
<polygon fill="#bfbfbf" stroke="black" points="9,-0.5 9,-30.5 151,-30.5 151,-0.5 9,-0.5"/>
<text text-anchor="start" x="17" y="-18.5" font-family="Helvetica,sans-Serif" font-size="10.00">SuiteCRMAddIn.ProtoItems.</text>
<text text-anchor="middle" x="80" y="-7.5" font-family="Helvetica,sans-Serif" font-size="10.00">ProtoAppointment</text>
</g>
<!-- Node2 -->
<g id="node2" class="node"><title>Node2</title>
<g id="a_node2"><a xlink:href="class_suite_c_r_m_add_in_1_1_proto_items_1_1_proto_item.html" target="_top" xlink:title="ProtoItem\&lt; Outlook.Appointment\lItem \&gt;">
<polygon fill="white" stroke="black" points="0,-67.5 0,-97.5 160,-97.5 160,-67.5 0,-67.5"/>
<text text-anchor="start" x="8" y="-85.5" font-family="Helvetica,sans-Serif" font-size="10.00">ProtoItem&lt; Outlook.Appointment</text>
<text text-anchor="middle" x="80" y="-74.5" font-family="Helvetica,sans-Serif" font-size="10.00">Item &gt;</text>
</a>
</g>
</g>
<!-- Node2&#45;&gt;Node1 -->
<g id="edge1" class="edge"><title>Node2&#45;&gt;Node1</title>
<path fill="none" stroke="midnightblue" d="M80,-57.1081C80,-48.1539 80,-38.3227 80,-30.5765"/>
<polygon fill="midnightblue" stroke="midnightblue" points="76.5001,-57.3959 80,-67.396 83.5001,-57.396 76.5001,-57.3959"/>
</g>
</g>
</svg>
