<?xml version="1.0" encoding="UTF-8" standalone="no"?>
<!DOCTYPE svg PUBLIC "-//W3C//DTD SVG 1.1//EN"
 "http://www.w3.org/Graphics/SVG/1.1/DTD/svg11.dtd">
<!-- Generated by graphviz version 2.38.0 (20140413.2041)
 -->
<!-- Title: SuiteCRMAddIn.clsGlobals.MySqlEscape Pages: 1 -->
<svg width="736pt" height="88pt"
 viewBox="0.00 0.00 736.00 88.00" xmlns="http://www.w3.org/2000/svg" xmlns:xlink="http://www.w3.org/1999/xlink">
<g id="graph0" class="graph" transform="scale(1 1) rotate(0) translate(4 84)">
<title>SuiteCRMAddIn.clsGlobals.MySqlEscape</title>
<polygon fill="white" stroke="none" points="-4,4 -4,-84 732,-84 732,4 -4,4"/>
<!-- Node1 -->
<g id="node1" class="node"><title>Node1</title>
<polygon fill="#bfbfbf" stroke="black" points="0,-24.5 0,-54.5 140,-54.5 140,-24.5 0,-24.5"/>
<text text-anchor="start" x="8" y="-42.5" font-family="Helvetica,sans-Serif" font-size="10.00">SuiteCRMAddIn.clsGlobals.</text>
<text text-anchor="middle" x="70" y="-31.5" font-family="Helvetica,sans-Serif" font-size="10.00">MySqlEscape</text>
</g>
<!-- Node2 -->
<g id="node2" class="node"><title>Node2</title>
<g id="a_node2"><a xlink:href="class_suite_c_r_m_add_in_1_1_business_logic_1_1_appointment_syncing.html#afd5ae8f863e48a0073ed371402dda938" target="_top" xlink:title="SuiteCRMAddIn.BusinessLogic.\lAppointmentSyncing.GetID">
<polygon fill="white" stroke="black" points="177,-49.5 177,-79.5 335,-79.5 335,-49.5 177,-49.5"/>
<text text-anchor="start" x="185" y="-67.5" font-family="Helvetica,sans-Serif" font-size="10.00">SuiteCRMAddIn.BusinessLogic.</text>
<text text-anchor="middle" x="256" y="-56.5" font-family="Helvetica,sans-Serif" font-size="10.00">AppointmentSyncing.GetID</text>
</a>
</g>
</g>
<!-- Node1&#45;&gt;Node2 -->
<g id="edge1" class="edge"><title>Node1&#45;&gt;Node2</title>
<path fill="none" stroke="midnightblue" d="M150.016,-50.2359C158.933,-51.4474 168.015,-52.6814 176.92,-53.8912"/>
<polygon fill="midnightblue" stroke="midnightblue" points="150.419,-46.7585 140.038,-48.8802 149.476,-53.6948 150.419,-46.7585"/>
</g>
<!-- Node4 -->
<g id="node4" class="node"><title>Node4</title>
<g id="a_node4"><a xlink:href="class_suite_c_r_m_add_in_1_1_dialogs_1_1_archive_dialog.html#a1b2d6e63a13ef6a7a3331a99cbd122e7" target="_top" xlink:title="SuiteCRMAddIn.Dialogs.Archive\lDialog.Search">
<polygon fill="white" stroke="black" points="176,-0.5 176,-30.5 336,-30.5 336,-0.5 176,-0.5"/>
<text text-anchor="start" x="184" y="-18.5" font-family="Helvetica,sans-Serif" font-size="10.00">SuiteCRMAddIn.Dialogs.Archive</text>
<text text-anchor="middle" x="256" y="-7.5" font-family="Helvetica,sans-Serif" font-size="10.00">Dialog.Search</text>
</a>
</g>
</g>
<!-- Node1&#45;&gt;Node4 -->
<g id="edge3" class="edge"><title>Node1&#45;&gt;Node4</title>
<path fill="none" stroke="midnightblue" d="M150.041,-29.1903C158.637,-28.0691 167.388,-26.9277 175.984,-25.8064"/>
<polygon fill="midnightblue" stroke="midnightblue" points="149.502,-25.7309 140.038,-30.495 150.407,-32.6721 149.502,-25.7309"/>
</g>
<!-- Node3 -->
<g id="node3" class="node"><title>Node3</title>
<g id="a_node3"><a xlink:href="class_suite_c_r_m_add_in_1_1_business_logic_1_1_appointment_syncing.html#a5d2d80bf950c4a4fd241610e65bd4713" target="_top" xlink:title="SuiteCRMAddIn.BusinessLogic.\lAppointmentSyncing.IsMatch">
<polygon fill="white" stroke="black" points="373,-49.5 373,-79.5 531,-79.5 531,-49.5 373,-49.5"/>
<text text-anchor="start" x="381" y="-67.5" font-family="Helvetica,sans-Serif" font-size="10.00">SuiteCRMAddIn.BusinessLogic.</text>
<text text-anchor="middle" x="452" y="-56.5" font-family="Helvetica,sans-Serif" font-size="10.00">AppointmentSyncing.IsMatch</text>
</a>
</g>
</g>
<!-- Node2&#45;&gt;Node3 -->
<g id="edge2" class="edge"><title>Node2&#45;&gt;Node3</title>
<path fill="none" stroke="midnightblue" d="M345.339,-64.5C354.491,-64.5 363.746,-64.5 372.775,-64.5"/>
<polygon fill="midnightblue" stroke="midnightblue" points="345.069,-61.0001 335.069,-64.5 345.069,-68.0001 345.069,-61.0001"/>
</g>
<!-- Node5 -->
<g id="node5" class="node"><title>Node5</title>
<g id="a_node5"><a xlink:href="class_suite_c_r_m_add_in_1_1_dialogs_1_1_archive_dialog.html#a3160bc88861f266746f9631068fc9ed7" target="_top" xlink:title="SuiteCRMAddIn.Dialogs.Archive\lDialog.btnSearch_Click">
<polygon fill="white" stroke="black" points="372,-0.5 372,-30.5 532,-30.5 532,-0.5 372,-0.5"/>
<text text-anchor="start" x="380" y="-18.5" font-family="Helvetica,sans-Serif" font-size="10.00">SuiteCRMAddIn.Dialogs.Archive</text>
<text text-anchor="middle" x="452" y="-7.5" font-family="Helvetica,sans-Serif" font-size="10.00">Dialog.btnSearch_Click</text>
</a>
</g>
</g>
<!-- Node4&#45;&gt;Node5 -->
<g id="edge4" class="edge"><title>Node4&#45;&gt;Node5</title>
<path fill="none" stroke="midnightblue" d="M346.436,-8.76828C354.884,-8.72738 363.408,-8.75512 371.752,-8.85149"/>
<polygon fill="midnightblue" stroke="midnightblue" points="346.158,-5.27034 336.187,-8.8522 346.215,-12.2701 346.158,-5.27034"/>
</g>
<!-- Node5&#45;&gt;Node4 -->
<g id="edge5" class="edge"><title>Node5&#45;&gt;Node4</title>
<path fill="none" stroke="midnightblue" d="M361.502,-22.232C353.054,-22.2726 344.529,-22.2445 336.187,-22.1478"/>
<polygon fill="midnightblue" stroke="midnightblue" points="361.781,-25.73 371.752,-22.1485 361.724,-18.7302 361.781,-25.73"/>
</g>
<!-- Node6 -->
<g id="node6" class="node"><title>Node6</title>
<g id="a_node6"><a xlink:href="class_suite_c_r_m_add_in_1_1_dialogs_1_1_archive_dialog.html#a1f34c87c999c13b787aab281472014cd" target="_top" xlink:title="Clean up any resources being used. ">
<polygon fill="white" stroke="black" points="568,-0.5 568,-30.5 728,-30.5 728,-0.5 568,-0.5"/>
<text text-anchor="start" x="576" y="-18.5" font-family="Helvetica,sans-Serif" font-size="10.00">SuiteCRMAddIn.Dialogs.Archive</text>
<text text-anchor="middle" x="648" y="-7.5" font-family="Helvetica,sans-Serif" font-size="10.00">Dialog.Dispose</text>
</a>
</g>
</g>
<!-- Node5&#45;&gt;Node6 -->
<g id="edge6" class="edge"><title>Node5&#45;&gt;Node6</title>
<path fill="none" stroke="midnightblue" d="M542.436,-15.5C550.884,-15.5 559.408,-15.5 567.752,-15.5"/>
<polygon fill="midnightblue" stroke="midnightblue" points="542.187,-12.0001 532.187,-15.5 542.187,-19.0001 542.187,-12.0001"/>
</g>
</g>
</svg>
