<?xml version="1.0" encoding="UTF-8" standalone="no"?>
<!DOCTYPE svg PUBLIC "-//W3C//DTD SVG 1.1//EN"
 "http://www.w3.org/Graphics/SVG/1.1/DTD/svg11.dtd">
<!-- Generated by graphviz version 2.38.0 (20140413.2041)
 -->
<!-- Title: SuiteCRMAddIn.BusinessLogic.Synchroniser&lt; OutlookItemType &gt; Pages: 1 -->
<svg width="192pt" height="95pt"
 viewBox="0.00 0.00 191.50 95.00" xmlns="http://www.w3.org/2000/svg" xmlns:xlink="http://www.w3.org/1999/xlink">
<g id="graph0" class="graph" transform="scale(1 1) rotate(0) translate(4 91)">
<title>SuiteCRMAddIn.BusinessLogic.Synchroniser&lt; OutlookItemType &gt;</title>
<polygon fill="white" stroke="none" points="-4,4 -4,-91 187.5,-91 187.5,4 -4,4"/>
<!-- Node1 -->
<g id="node1" class="node"><title>Node1</title>
<polygon fill="#bfbfbf" stroke="black" points="15,-0.5 15,-30.5 182,-30.5 182,-0.5 15,-0.5"/>
<text text-anchor="start" x="23" y="-18.5" font-family="Helvetica,sans-Serif" font-size="10.00">SuiteCRMAddIn.BusinessLogic.</text>
<text text-anchor="middle" x="98.5" y="-7.5" font-family="Helvetica,sans-Serif" font-size="10.00">Synchroniser&lt; OutlookItemType &gt;</text>
</g>
<!-- Node2 -->
<g id="node2" class="node"><title>Node2</title>
<g id="a_node2"><a xlink:href="class_suite_c_r_m_add_in_1_1_business_logic_1_1_repeating_process.html" target="_top" xlink:title="An agent which does something repeatedly. ">
<polygon fill="white" stroke="black" points="0,-67.5 0,-86.5 97,-86.5 97,-67.5 0,-67.5"/>
<text text-anchor="middle" x="48.5" y="-74.5" font-family="Helvetica,sans-Serif" font-size="10.00">RepeatingProcess</text>
</a>
</g>
</g>
<!-- Node2&#45;&gt;Node1 -->
<g id="edge1" class="edge"><title>Node2&#45;&gt;Node1</title>
<path fill="none" stroke="midnightblue" d="M62.1044,-59.8108C69.8037,-50.6486 79.3376,-39.3032 86.716,-30.523"/>
<polygon fill="midnightblue" stroke="midnightblue" points="59.4177,-57.5676 55.6638,-67.4751 64.7768,-62.071 59.4177,-57.5676"/>
</g>
<!-- Node3 -->
<g id="node3" class="node"><title>Node3</title>
<polygon fill="white" stroke="#bfbfbf" points="115.5,-67.5 115.5,-86.5 183.5,-86.5 183.5,-67.5 115.5,-67.5"/>
<text text-anchor="middle" x="149.5" y="-74.5" font-family="Helvetica,sans-Serif" font-size="10.00">IDisposable</text>
</g>
<!-- Node3&#45;&gt;Node1 -->
<g id="edge2" class="edge"><title>Node3&#45;&gt;Node1</title>
<path fill="none" stroke="midnightblue" d="M135.624,-59.8108C127.77,-50.6486 118.046,-39.3032 110.52,-30.523"/>
<polygon fill="midnightblue" stroke="midnightblue" points="133.028,-62.1603 142.193,-67.4751 138.342,-57.6047 133.028,-62.1603"/>
</g>
</g>
</svg>
