<?xml version="1.0" encoding="UTF-8" standalone="no"?>
<!DOCTYPE svg PUBLIC "-//W3C//DTD SVG 1.1//EN"
 "http://www.w3.org/Graphics/SVG/1.1/DTD/svg11.dtd">
<!-- Generated by graphviz version 2.38.0 (20140413.2041)
 -->
<!-- Title: SuiteCRMAddIn.BusinessLogic.EmailArchiving.ProcessEligibleNewMailItem Pages: 1 -->
<svg width="575pt" height="88pt"
 viewBox="0.00 0.00 575.00 88.00" xmlns="http://www.w3.org/2000/svg" xmlns:xlink="http://www.w3.org/1999/xlink">
<g id="graph0" class="graph" transform="scale(1 1) rotate(0) translate(4 84)">
<title>SuiteCRMAddIn.BusinessLogic.EmailArchiving.ProcessEligibleNewMailItem</title>
<polygon fill="white" stroke="none" points="-4,4 -4,-84 571,-84 571,4 -4,4"/>
<!-- Node1 -->
<g id="node1" class="node"><title>Node1</title>
<polygon fill="#bfbfbf" stroke="black" points="0,-19 0,-60 173,-60 173,-19 0,-19"/>
<text text-anchor="start" x="8" y="-48" font-family="Helvetica,sans-Serif" font-size="10.00">SuiteCRMAddIn.BusinessLogic.</text>
<text text-anchor="start" x="8" y="-37" font-family="Helvetica,sans-Serif" font-size="10.00">EmailArchiving.ProcessEligibleNew</text>
<text text-anchor="middle" x="86.5" y="-26" font-family="Helvetica,sans-Serif" font-size="10.00">MailItem</text>
</g>
<!-- Node2 -->
<g id="node2" class="node"><title>Node2</title>
<g id="a_node2"><a xlink:href="class_suite_c_r_m_add_in_1_1_this_add_in.html#a3d3136423943e3e4f71d3ea2b1062147" target="_top" xlink:title="SuiteCRMAddIn.ThisAddIn.\lManualArchive">
<polygon fill="white" stroke="black" points="209,-24.5 209,-54.5 347,-54.5 347,-24.5 209,-24.5"/>
<text text-anchor="start" x="217" y="-42.5" font-family="Helvetica,sans-Serif" font-size="10.00">SuiteCRMAddIn.ThisAddIn.</text>
<text text-anchor="middle" x="278" y="-31.5" font-family="Helvetica,sans-Serif" font-size="10.00">ManualArchive</text>
</a>
</g>
</g>
<!-- Node1&#45;&gt;Node2 -->
<g id="edge1" class="edge"><title>Node1&#45;&gt;Node2</title>
<path fill="none" stroke="midnightblue" d="M183.228,-39.5C191.864,-39.5 200.49,-39.5 208.817,-39.5"/>
<polygon fill="midnightblue" stroke="midnightblue" points="183.102,-36.0001 173.102,-39.5 183.102,-43.0001 183.102,-36.0001"/>
</g>
<!-- Node3 -->
<g id="node3" class="node"><title>Node3</title>
<g id="a_node3"><a xlink:href="class_suite_c_r_m_add_in_1_1_suite_c_r_m_ribbon.html#af45e3d97607869f229558ab49c84379b" target="_top" xlink:title="SuiteCRMAddIn.SuiteCRMRibbon.btn\lArchive_Action">
<polygon fill="white" stroke="black" points="383,-49.5 383,-79.5 567,-79.5 567,-49.5 383,-49.5"/>
<text text-anchor="start" x="391" y="-67.5" font-family="Helvetica,sans-Serif" font-size="10.00">SuiteCRMAddIn.SuiteCRMRibbon.btn</text>
<text text-anchor="middle" x="475" y="-56.5" font-family="Helvetica,sans-Serif" font-size="10.00">Archive_Action</text>
</a>
</g>
</g>
<!-- Node2&#45;&gt;Node3 -->
<g id="edge2" class="edge"><title>Node2&#45;&gt;Node3</title>
<path fill="none" stroke="midnightblue" d="M357.335,-49.543C365.738,-50.6203 374.339,-51.7229 382.874,-52.8172"/>
<polygon fill="midnightblue" stroke="midnightblue" points="357.565,-46.0439 347.202,-48.2438 356.675,-52.9871 357.565,-46.0439"/>
</g>
<!-- Node4 -->
<g id="node4" class="node"><title>Node4</title>
<g id="a_node4"><a xlink:href="class_suite_c_r_m_add_in_1_1_this_add_in.html#a4672086c412924ca3bf5c6aa52466c89" target="_top" xlink:title="SuiteCRMAddIn.ThisAddIn.\lStartSynchronisationProcesses">
<polygon fill="white" stroke="black" points="398,-0.5 398,-30.5 552,-30.5 552,-0.5 398,-0.5"/>
<text text-anchor="start" x="406" y="-18.5" font-family="Helvetica,sans-Serif" font-size="10.00">SuiteCRMAddIn.ThisAddIn.</text>
<text text-anchor="middle" x="475" y="-7.5" font-family="Helvetica,sans-Serif" font-size="10.00">StartSynchronisationProcesses</text>
</a>
</g>
</g>
<!-- Node2&#45;&gt;Node4 -->
<g id="edge3" class="edge"><title>Node2&#45;&gt;Node4</title>
<path fill="none" stroke="midnightblue" d="M357.306,-29.8623C370.671,-28.2174 384.537,-26.5109 397.844,-24.873"/>
<polygon fill="midnightblue" stroke="midnightblue" points="356.699,-26.4105 347.202,-31.106 357.554,-33.3581 356.699,-26.4105"/>
</g>
</g>
</svg>
