<?xml version="1.0" encoding="UTF-8" standalone="no"?>
<!DOCTYPE svg PUBLIC "-//W3C//DTD SVG 1.1//EN"
 "http://www.w3.org/Graphics/SVG/1.1/DTD/svg11.dtd">
<!-- Generated by graphviz version 2.38.0 (20140413.2041)
 -->
<!-- Title: SuiteCRMClient.clsSuiteCRMHelper.SetEntryUnsafe Pages: 1 -->
<svg width="416pt" height="279pt"
 viewBox="0.00 0.00 416.00 278.50" xmlns="http://www.w3.org/2000/svg" xmlns:xlink="http://www.w3.org/1999/xlink">
<g id="graph0" class="graph" transform="scale(1 1) rotate(0) translate(4 274.5)">
<title>SuiteCRMClient.clsSuiteCRMHelper.SetEntryUnsafe</title>
<polygon fill="white" stroke="none" points="-4,4 -4,-274.5 412,-274.5 412,4 -4,4"/>
<!-- Node1 -->
<g id="node1" class="node"><title>Node1</title>
<polygon fill="#bfbfbf" stroke="black" points="0,-114.5 0,-144.5 181,-144.5 181,-114.5 0,-114.5"/>
<text text-anchor="start" x="8" y="-132.5" font-family="Helvetica,sans-Serif" font-size="10.00">SuiteCRMClient.clsSuiteCRMHelper.</text>
<text text-anchor="middle" x="90.5" y="-121.5" font-family="Helvetica,sans-Serif" font-size="10.00">SetEntryUnsafe</text>
</g>
<!-- Node2 -->
<g id="node2" class="node"><title>Node2</title>
<g id="a_node2"><a xlink:href="class_suite_c_r_m_add_in_1_1_business_logic_1_1_appointment_syncing.html#aedf9bb06e59be22da446a8c56d5c52c1" target="_top" xlink:title="Construct a JSON packet representing this Outlook item, and despatch it to CRM. ">
<polygon fill="white" stroke="black" points="227.5,-229 227.5,-270 397.5,-270 397.5,-229 227.5,-229"/>
<text text-anchor="start" x="235.5" y="-258" font-family="Helvetica,sans-Serif" font-size="10.00">SuiteCRMAddIn.BusinessLogic.</text>
<text text-anchor="start" x="235.5" y="-247" font-family="Helvetica,sans-Serif" font-size="10.00">AppointmentSyncing.ConstructAnd</text>
<text text-anchor="middle" x="312.5" y="-236" font-family="Helvetica,sans-Serif" font-size="10.00">DespatchCrmItem</text>
</a>
</g>
</g>
<!-- Node1&#45;&gt;Node2 -->
<g id="edge1" class="edge"><title>Node1&#45;&gt;Node2</title>
<path fill="none" stroke="midnightblue" d="M116.62,-151.179C140.919,-171.229 179.48,-200.688 217,-219.5 223.847,-222.933 231.17,-226.079 238.595,-228.934"/>
<polygon fill="midnightblue" stroke="midnightblue" points="118.562,-148.241 108.645,-144.513 114.072,-153.612 118.562,-148.241"/>
</g>
<!-- Node3 -->
<g id="node3" class="node"><title>Node3</title>
<g id="a_node3"><a xlink:href="class_suite_c_r_m_add_in_1_1_business_logic_1_1_contact_syncing.html#a0da78ea432c0dd09442d19ec02b4c3b5" target="_top" xlink:title="Construct a JSON packet representing this Outlook item, and despatch it to CRM. ">
<polygon fill="white" stroke="black" points="217,-169 217,-210 408,-210 408,-169 217,-169"/>
<text text-anchor="start" x="225" y="-198" font-family="Helvetica,sans-Serif" font-size="10.00">SuiteCRMAddIn.BusinessLogic.</text>
<text text-anchor="start" x="225" y="-187" font-family="Helvetica,sans-Serif" font-size="10.00">ContactSyncing.ConstructAndDespatch</text>
<text text-anchor="middle" x="312.5" y="-176" font-family="Helvetica,sans-Serif" font-size="10.00">CrmItem</text>
</a>
</g>
</g>
<!-- Node1&#45;&gt;Node3 -->
<g id="edge2" class="edge"><title>Node1&#45;&gt;Node3</title>
<path fill="none" stroke="midnightblue" d="M156.493,-147.225C181.542,-154.057 210.355,-161.915 236.292,-168.989"/>
<polygon fill="midnightblue" stroke="midnightblue" points="157.3,-143.818 146.731,-144.563 155.458,-150.571 157.3,-143.818"/>
</g>
<!-- Node4 -->
<g id="node4" class="node"><title>Node4</title>
<g id="a_node4"><a xlink:href="class_suite_c_r_m_add_in_1_1_business_logic_1_1_synchroniser.html#a3df7723090576b81797aa38a31eb67aa" target="_top" xlink:title="Remove the item implied by this sync state from CRM. ">
<polygon fill="white" stroke="black" points="225.5,-109 225.5,-150 399.5,-150 399.5,-109 225.5,-109"/>
<text text-anchor="start" x="233.5" y="-138" font-family="Helvetica,sans-Serif" font-size="10.00">SuiteCRMAddIn.BusinessLogic.</text>
<text text-anchor="start" x="233.5" y="-127" font-family="Helvetica,sans-Serif" font-size="10.00">Synchroniser&lt; Outlook.Appointment</text>
<text text-anchor="middle" x="312.5" y="-116" font-family="Helvetica,sans-Serif" font-size="10.00">Item &gt;::RemoveFromCrm</text>
</a>
</g>
</g>
<!-- Node1&#45;&gt;Node4 -->
<g id="edge3" class="edge"><title>Node1&#45;&gt;Node4</title>
<path fill="none" stroke="midnightblue" d="M191.558,-129.5C202.785,-129.5 214.152,-129.5 225.185,-129.5"/>
<polygon fill="midnightblue" stroke="midnightblue" points="191.3,-126 181.3,-129.5 191.3,-133 191.3,-126"/>
</g>
<!-- Node5 -->
<g id="node5" class="node"><title>Node5</title>
<g id="a_node5"><a xlink:href="class_suite_c_r_m_add_in_1_1_business_logic_1_1_task_syncing.html#a5ffca39ee66e0c50f42ea434e3f9af9d" target="_top" xlink:title="Construct a JSON packet representing this Outlook item, and despatch it to CRM. ">
<polygon fill="white" stroke="black" points="223,-49 223,-90 402,-90 402,-49 223,-49"/>
<text text-anchor="start" x="231" y="-78" font-family="Helvetica,sans-Serif" font-size="10.00">SuiteCRMAddIn.BusinessLogic.</text>
<text text-anchor="start" x="231" y="-67" font-family="Helvetica,sans-Serif" font-size="10.00">TaskSyncing.ConstructAndDespatch</text>
<text text-anchor="middle" x="312.5" y="-56" font-family="Helvetica,sans-Serif" font-size="10.00">CrmItem</text>
</a>
</g>
</g>
<!-- Node1&#45;&gt;Node5 -->
<g id="edge4" class="edge"><title>Node1&#45;&gt;Node5</title>
<path fill="none" stroke="midnightblue" d="M156.493,-111.775C181.542,-104.943 210.355,-97.0849 236.292,-90.0114"/>
<polygon fill="midnightblue" stroke="midnightblue" points="155.458,-108.429 146.731,-114.437 157.3,-115.182 155.458,-108.429"/>
</g>
<!-- Node6 -->
<g id="node6" class="node"><title>Node6</title>
<g id="a_node6"><a xlink:href="class_suite_c_r_m_client_1_1cls_suite_c_r_m_helper.html#aca5e6959e4cc77c59ef2b6f3586ee6cb" target="_top" xlink:title="Sets an entry in CRM and returns the id. &#39;Unsafe&#39; because if it fails (for whatever reason)...">
<polygon fill="white" stroke="black" points="222,-0.5 222,-30.5 403,-30.5 403,-0.5 222,-0.5"/>
<text text-anchor="start" x="230" y="-18.5" font-family="Helvetica,sans-Serif" font-size="10.00">SuiteCRMClient.clsSuiteCRMHelper.</text>
<text text-anchor="middle" x="312.5" y="-7.5" font-family="Helvetica,sans-Serif" font-size="10.00">SetEntryUnsafe</text>
</a>
</g>
</g>
<!-- Node1&#45;&gt;Node6 -->
<g id="edge5" class="edge"><title>Node1&#45;&gt;Node6</title>
<path fill="none" stroke="midnightblue" d="M115.965,-107.668C140.063,-87.249 178.727,-57.3045 217,-39.5 224.29,-36.1086 232.128,-33.1495 240.06,-30.579"/>
<polygon fill="midnightblue" stroke="midnightblue" points="113.371,-105.282 108.073,-114.457 117.936,-110.589 113.371,-105.282"/>
</g>
</g>
</svg>
