<?xml version="1.0" encoding="UTF-8" standalone="no"?>
<!DOCTYPE svg PUBLIC "-//W3C//DTD SVG 1.1//EN"
 "http://www.w3.org/Graphics/SVG/1.1/DTD/svg11.dtd">
<!-- Generated by graphviz version 2.38.0 (20140413.2041)
 -->
<!-- Title: SuiteCRMAddIn.BusinessLogic.AppointmentSyncing.LogItemAction Pages: 1 -->
<svg width="1303pt" height="273pt"
 viewBox="0.00 0.00 1303.00 273.00" xmlns="http://www.w3.org/2000/svg" xmlns:xlink="http://www.w3.org/1999/xlink">
<g id="graph0" class="graph" transform="scale(1 1) rotate(0) translate(4 269)">
<title>SuiteCRMAddIn.BusinessLogic.AppointmentSyncing.LogItemAction</title>
<polygon fill="white" stroke="none" points="-4,4 -4,-269 1299,-269 1299,4 -4,4"/>
<!-- Node1 -->
<g id="node1" class="node"><title>Node1</title>
<polygon fill="#bfbfbf" stroke="black" points="0,-127.5 0,-157.5 173,-157.5 173,-127.5 0,-127.5"/>
<text text-anchor="start" x="8" y="-145.5" font-family="Helvetica,sans-Serif" font-size="10.00">SuiteCRMAddIn.BusinessLogic.</text>
<text text-anchor="middle" x="86.5" y="-134.5" font-family="Helvetica,sans-Serif" font-size="10.00">AppointmentSyncing.LogItemAction</text>
</g>
<!-- Node2 -->
<g id="node2" class="node"><title>Node2</title>
<g id="a_node2"><a xlink:href="class_suite_c_r_m_add_in_1_1_business_logic_1_1_appointment_syncing.html#a7a750ce308027fee659e8c543cb99b42" target="_top" xlink:title="SuiteCRMAddIn.BusinessLogic.\lAppointmentSyncing.SaveItem">
<polygon fill="white" stroke="black" points="224,-234.5 224,-264.5 382,-264.5 382,-234.5 224,-234.5"/>
<text text-anchor="start" x="232" y="-252.5" font-family="Helvetica,sans-Serif" font-size="10.00">SuiteCRMAddIn.BusinessLogic.</text>
<text text-anchor="middle" x="303" y="-241.5" font-family="Helvetica,sans-Serif" font-size="10.00">AppointmentSyncing.SaveItem</text>
</a>
</g>
</g>
<!-- Node1&#45;&gt;Node2 -->
<g id="edge1" class="edge"><title>Node1&#45;&gt;Node2</title>
<path fill="none" stroke="midnightblue" d="M115.905,-163.422C139.805,-180.294 175.37,-203.731 209,-219.5 221.135,-225.19 234.636,-230.225 247.506,-234.467"/>
<polygon fill="midnightblue" stroke="midnightblue" points="117.825,-160.492 107.653,-157.529 113.757,-166.189 117.825,-160.492"/>
</g>
<!-- Node3 -->
<g id="node3" class="node"><title>Node3</title>
<g id="a_node3"><a xlink:href="class_suite_c_r_m_add_in_1_1_business_logic_1_1_appointment_syncing.html#a778c161dea3f5934089e5866b59f9dad" target="_top" xlink:title="Ensure that this Outlook item has a property of this name with this value. ">
<polygon fill="white" stroke="black" points="433,-196 433,-237 643,-237 643,-196 433,-196"/>
<text text-anchor="start" x="441" y="-225" font-family="Helvetica,sans-Serif" font-size="10.00">SuiteCRMAddIn.BusinessLogic.</text>
<text text-anchor="start" x="441" y="-214" font-family="Helvetica,sans-Serif" font-size="10.00">AppointmentSyncing.EnsureSynchronisation</text>
<text text-anchor="middle" x="538" y="-203" font-family="Helvetica,sans-Serif" font-size="10.00">PropertyForOutlookItem</text>
</a>
</g>
</g>
<!-- Node1&#45;&gt;Node3 -->
<g id="edge7" class="edge"><title>Node1&#45;&gt;Node3</title>
<path fill="none" stroke="midnightblue" d="M136.871,-160.877C158.7,-168.34 184.848,-176.391 209,-181.5 282.957,-197.144 367.851,-205.96 432.74,-210.831"/>
<polygon fill="midnightblue" stroke="midnightblue" points="137.763,-157.481 127.168,-157.502 135.463,-164.093 137.763,-157.481"/>
</g>
<!-- Node5 -->
<g id="node5" class="node"><title>Node5</title>
<g id="a_node5"><a xlink:href="class_suite_c_r_m_add_in_1_1_business_logic_1_1_appointment_syncing.html#af477f9f681874a701880737a2383b5fc" target="_top" xlink:title="Synchronise items in the specified folder with the specified SuiteCRM module. ">
<polygon fill="white" stroke="black" points="925,-176.5 925,-206.5 1084,-206.5 1084,-176.5 925,-176.5"/>
<text text-anchor="start" x="933" y="-194.5" font-family="Helvetica,sans-Serif" font-size="10.00">SuiteCRMAddIn.BusinessLogic.</text>
<text text-anchor="middle" x="1004.5" y="-183.5" font-family="Helvetica,sans-Serif" font-size="10.00">AppointmentSyncing.SyncFolder</text>
</a>
</g>
</g>
<!-- Node1&#45;&gt;Node5 -->
<g id="edge11" class="edge"><title>Node1&#45;&gt;Node5</title>
<path fill="none" stroke="midnightblue" d="M183.354,-147.628C365.293,-157.36 757.445,-178.338 924.998,-187.301"/>
<polygon fill="midnightblue" stroke="midnightblue" points="183.436,-144.127 173.263,-147.088 183.062,-151.117 183.436,-144.127"/>
</g>
<!-- Node7 -->
<g id="node7" class="node"><title>Node7</title>
<g id="a_node7"><a xlink:href="class_suite_c_r_m_add_in_1_1_business_logic_1_1_appointment_syncing.html#aa0ed308dccab107c59df8a91443c5f2b" target="_top" xlink:title="Add the Outlook item referenced by this sync state, which may not exist in CRM, to CRM...">
<polygon fill="white" stroke="black" points="209,-98 209,-139 397,-139 397,-98 209,-98"/>
<text text-anchor="start" x="217" y="-127" font-family="Helvetica,sans-Serif" font-size="10.00">SuiteCRMAddIn.BusinessLogic.</text>
<text text-anchor="start" x="217" y="-116" font-family="Helvetica,sans-Serif" font-size="10.00">AppointmentSyncing.AddOrUpdateItem</text>
<text text-anchor="middle" x="303" y="-105" font-family="Helvetica,sans-Serif" font-size="10.00">FromOutlookToCrm</text>
</a>
</g>
</g>
<!-- Node1&#45;&gt;Node7 -->
<g id="edge8" class="edge"><title>Node1&#45;&gt;Node7</title>
<path fill="none" stroke="midnightblue" d="M183.395,-131.77C191.802,-130.83 200.304,-129.879 208.69,-128.94"/>
<polygon fill="midnightblue" stroke="midnightblue" points="182.75,-128.321 173.201,-132.911 183.528,-135.277 182.75,-128.321"/>
</g>
<!-- Node8 -->
<g id="node8" class="node"><title>Node8</title>
<g id="a_node8"><a xlink:href="class_suite_c_r_m_add_in_1_1_business_logic_1_1_appointment_syncing.html#a6146dd5eac251661abee293d4f4ae9aa" target="_top" xlink:title="Get all items in this appointments folder. Should be called just once (per folder?) when the add&#45;in starts up; initialises the SyncState list. ">
<polygon fill="white" stroke="black" points="211,-49.5 211,-79.5 395,-79.5 395,-49.5 211,-49.5"/>
<text text-anchor="start" x="219" y="-67.5" font-family="Helvetica,sans-Serif" font-size="10.00">SuiteCRMAddIn.BusinessLogic.</text>
<text text-anchor="middle" x="303" y="-56.5" font-family="Helvetica,sans-Serif" font-size="10.00">AppointmentSyncing.GetOutlookItems</text>
</a>
</g>
</g>
<!-- Node1&#45;&gt;Node8 -->
<g id="edge9" class="edge"><title>Node1&#45;&gt;Node8</title>
<path fill="none" stroke="midnightblue" d="M127.149,-122.877C150.573,-111.792 181.03,-98.2492 209,-88.5 218.29,-85.2619 228.238,-82.2416 238.046,-79.5107"/>
<polygon fill="midnightblue" stroke="midnightblue" points="125.405,-119.831 117.893,-127.302 128.425,-126.146 125.405,-119.831"/>
</g>
<!-- Node9 -->
<g id="node9" class="node"><title>Node9</title>
<g id="a_node9"><a xlink:href="class_suite_c_r_m_add_in_1_1_business_logic_1_1_appointment_syncing.html#a5d2d80bf950c4a4fd241610e65bd4713" target="_top" xlink:title="SuiteCRMAddIn.BusinessLogic.\lAppointmentSyncing.IsMatch">
<polygon fill="white" stroke="black" points="224,-0.5 224,-30.5 382,-30.5 382,-0.5 224,-0.5"/>
<text text-anchor="start" x="232" y="-18.5" font-family="Helvetica,sans-Serif" font-size="10.00">SuiteCRMAddIn.BusinessLogic.</text>
<text text-anchor="middle" x="303" y="-7.5" font-family="Helvetica,sans-Serif" font-size="10.00">AppointmentSyncing.IsMatch</text>
</a>
</g>
</g>
<!-- Node1&#45;&gt;Node9 -->
<g id="edge10" class="edge"><title>Node1&#45;&gt;Node9</title>
<path fill="none" stroke="midnightblue" d="M108.352,-119.948C130.999,-96.7605 169.284,-61.2012 209,-40.5 216.413,-36.6361 224.478,-33.3279 232.657,-30.5057"/>
<polygon fill="midnightblue" stroke="midnightblue" points="105.696,-117.662 101.292,-127.298 110.744,-122.511 105.696,-117.662"/>
</g>
<!-- Node2&#45;&gt;Node3 -->
<g id="edge2" class="edge"><title>Node2&#45;&gt;Node3</title>
<path fill="none" stroke="midnightblue" d="M392.269,-236.998C405.541,-235.119 419.333,-233.165 432.898,-231.244"/>
<polygon fill="midnightblue" stroke="midnightblue" points="391.644,-233.552 382.234,-238.42 392.626,-240.483 391.644,-233.552"/>
</g>
<!-- Node4 -->
<g id="node4" class="node"><title>Node4</title>
<g id="a_node4"><a xlink:href="class_suite_c_r_m_add_in_1_1_business_logic_1_1_appointment_syncing.html#a8a922e6ddd966e890c8203d4c91912d1" target="_top" xlink:title="Specialisation: in addition to the standard properties, meetings also require an organiser property...">
<polygon fill="white" stroke="black" points="679,-196 679,-237 889,-237 889,-196 679,-196"/>
<text text-anchor="start" x="687" y="-225" font-family="Helvetica,sans-Serif" font-size="10.00">SuiteCRMAddIn.BusinessLogic.</text>
<text text-anchor="start" x="687" y="-214" font-family="Helvetica,sans-Serif" font-size="10.00">AppointmentSyncing.EnsureSynchronisation</text>
<text text-anchor="middle" x="784" y="-203" font-family="Helvetica,sans-Serif" font-size="10.00">PropertiesForOutlookItem</text>
</a>
</g>
</g>
<!-- Node3&#45;&gt;Node4 -->
<g id="edge3" class="edge"><title>Node3&#45;&gt;Node4</title>
<path fill="none" stroke="midnightblue" d="M653.453,-209.761C661.899,-209.736 670.394,-209.753 678.774,-209.814"/>
<polygon fill="midnightblue" stroke="midnightblue" points="653.168,-206.263 643.186,-209.814 653.204,-213.263 653.168,-206.263"/>
</g>
<!-- Node4&#45;&gt;Node3 -->
<g id="edge4" class="edge"><title>Node4&#45;&gt;Node3</title>
<path fill="none" stroke="midnightblue" d="M668.506,-223.239C660.06,-223.264 651.566,-223.247 643.186,-223.186"/>
<polygon fill="midnightblue" stroke="midnightblue" points="668.792,-226.737 678.774,-223.186 668.756,-219.737 668.792,-226.737"/>
</g>
<!-- Node4&#45;&gt;Node5 -->
<g id="edge5" class="edge"><title>Node4&#45;&gt;Node5</title>
<path fill="none" stroke="midnightblue" d="M899.246,-203.428C907.858,-202.443 916.428,-201.462 924.742,-200.511"/>
<polygon fill="midnightblue" stroke="midnightblue" points="898.668,-199.972 889.131,-204.586 899.464,-206.926 898.668,-199.972"/>
</g>
<!-- Node6 -->
<g id="node6" class="node"><title>Node6</title>
<g id="a_node6"><a xlink:href="class_suite_c_r_m_add_in_1_1_business_logic_1_1_appointment_syncing.html#a7cee33973de0521341615a899e970cba" target="_top" xlink:title="Action method of the thread. ">
<polygon fill="white" stroke="black" points="1120,-176.5 1120,-206.5 1295,-206.5 1295,-176.5 1120,-176.5"/>
<text text-anchor="start" x="1128" y="-194.5" font-family="Helvetica,sans-Serif" font-size="10.00">SuiteCRMAddIn.BusinessLogic.</text>
<text text-anchor="middle" x="1207.5" y="-183.5" font-family="Helvetica,sans-Serif" font-size="10.00">AppointmentSyncing.SynchroniseAll</text>
</a>
</g>
</g>
<!-- Node5&#45;&gt;Node6 -->
<g id="edge6" class="edge"><title>Node5&#45;&gt;Node6</title>
<path fill="none" stroke="midnightblue" d="M1094.1,-191.5C1102.7,-191.5 1111.42,-191.5 1120,-191.5"/>
<polygon fill="midnightblue" stroke="midnightblue" points="1094.08,-188 1084.08,-191.5 1094.08,-195 1094.08,-188"/>
</g>
</g>
</svg>
