<?xml version="1.0" encoding="UTF-8" standalone="no"?>
<!DOCTYPE svg PUBLIC "-//W3C//DTD SVG 1.1//EN"
 "http://www.w3.org/Graphics/SVG/1.1/DTD/svg11.dtd">
<!-- Generated by graphviz version 2.38.0 (20140413.2041)
 -->
<!-- Title: SuiteCRMClient.clsSuiteCRMHelper.TrySetRelationship Pages: 1 -->
<svg width="632pt" height="148pt"
 viewBox="0.00 0.00 632.00 147.50" xmlns="http://www.w3.org/2000/svg" xmlns:xlink="http://www.w3.org/1999/xlink">
<g id="graph0" class="graph" transform="scale(1 1) rotate(0) translate(4 143.5)">
<title>SuiteCRMClient.clsSuiteCRMHelper.TrySetRelationship</title>
<polygon fill="white" stroke="none" points="-4,4 -4,-143.5 628,-143.5 628,4 -4,4"/>
<!-- Node1 -->
<g id="node1" class="node"><title>Node1</title>
<polygon fill="#bfbfbf" stroke="black" points="0,-76.5 0,-106.5 181,-106.5 181,-76.5 0,-76.5"/>
<text text-anchor="start" x="8" y="-94.5" font-family="Helvetica,sans-Serif" font-size="10.00">SuiteCRMClient.clsSuiteCRMHelper.</text>
<text text-anchor="middle" x="90.5" y="-83.5" font-family="Helvetica,sans-Serif" font-size="10.00">TrySetRelationship</text>
</g>
<!-- Node2 -->
<g id="node2" class="node"><title>Node2</title>
<g id="a_node2"><a xlink:href="class_suite_c_r_m_add_in_1_1_business_logic_1_1_email_archiving.html#a0e634b04d9750379118745f192d75a53" target="_top" xlink:title="SuiteCRMAddIn.BusinessLogic.\lEmailArchiving.CreateEmailRelationship\lOrFail">
<polygon fill="white" stroke="black" points="217,-98 217,-139 410,-139 410,-98 217,-98"/>
<text text-anchor="start" x="225" y="-127" font-family="Helvetica,sans-Serif" font-size="10.00">SuiteCRMAddIn.BusinessLogic.</text>
<text text-anchor="start" x="225" y="-116" font-family="Helvetica,sans-Serif" font-size="10.00">EmailArchiving.CreateEmailRelationship</text>
<text text-anchor="middle" x="313.5" y="-105" font-family="Helvetica,sans-Serif" font-size="10.00">OrFail</text>
</a>
</g>
</g>
<!-- Node1&#45;&gt;Node2 -->
<g id="edge1" class="edge"><title>Node1&#45;&gt;Node2</title>
<path fill="none" stroke="midnightblue" d="M191.029,-103.66C199.557,-104.702 208.174,-105.754 216.672,-106.793"/>
<polygon fill="midnightblue" stroke="midnightblue" points="191.421,-100.182 181.071,-102.443 190.572,-107.13 191.421,-100.182"/>
</g>
<!-- Node4 -->
<g id="node4" class="node"><title>Node4</title>
<g id="a_node4"><a xlink:href="class_suite_c_r_m_client_1_1cls_suite_c_r_m_helper.html#a8f51774a4b5d0dcd199c7a5b72ea4096" target="_top" xlink:title="Sets a CRM relationship and returns boolean success. &#39;Unsafe&#39; because most callers ignore the result...">
<polygon fill="white" stroke="black" points="223,-49.5 223,-79.5 404,-79.5 404,-49.5 223,-49.5"/>
<text text-anchor="start" x="231" y="-67.5" font-family="Helvetica,sans-Serif" font-size="10.00">SuiteCRMClient.clsSuiteCRMHelper.</text>
<text text-anchor="middle" x="313.5" y="-56.5" font-family="Helvetica,sans-Serif" font-size="10.00">SetRelationshipUnsafe</text>
</a>
</g>
</g>
<!-- Node1&#45;&gt;Node4 -->
<g id="edge3" class="edge"><title>Node1&#45;&gt;Node4</title>
<path fill="none" stroke="midnightblue" d="M191.134,-79.3275C201.687,-78.0383 212.373,-76.7328 222.802,-75.4586"/>
<polygon fill="midnightblue" stroke="midnightblue" points="190.572,-75.87 181.071,-80.557 191.421,-82.8184 190.572,-75.87"/>
</g>
<!-- Node3 -->
<g id="node3" class="node"><title>Node3</title>
<g id="a_node3"><a xlink:href="class_suite_c_r_m_add_in_1_1_business_logic_1_1_email_archiving.html#a0dcfbb2286b3d50c3ea8863705b19501" target="_top" xlink:title="SuiteCRMAddIn.BusinessLogic.\lEmailArchiving.ArchiveEmailWith\lEntityRelationships">
<polygon fill="white" stroke="black" points="453.5,-98 453.5,-139 616.5,-139 616.5,-98 453.5,-98"/>
<text text-anchor="start" x="461.5" y="-127" font-family="Helvetica,sans-Serif" font-size="10.00">SuiteCRMAddIn.BusinessLogic.</text>
<text text-anchor="start" x="461.5" y="-116" font-family="Helvetica,sans-Serif" font-size="10.00">EmailArchiving.ArchiveEmailWith</text>
<text text-anchor="middle" x="535" y="-105" font-family="Helvetica,sans-Serif" font-size="10.00">EntityRelationships</text>
</a>
</g>
</g>
<!-- Node2&#45;&gt;Node3 -->
<g id="edge2" class="edge"><title>Node2&#45;&gt;Node3</title>
<path fill="none" stroke="midnightblue" d="M420.333,-118.5C431.465,-118.5 442.651,-118.5 453.432,-118.5"/>
<polygon fill="midnightblue" stroke="midnightblue" points="420.137,-115 410.137,-118.5 420.137,-122 420.137,-115"/>
</g>
<!-- Node5 -->
<g id="node5" class="node"><title>Node5</title>
<g id="a_node5"><a xlink:href="class_suite_c_r_m_add_in_1_1_business_logic_1_1_appointment_syncing.html#a5d2d80bf950c4a4fd241610e65bd4713" target="_top" xlink:title="SuiteCRMAddIn.BusinessLogic.\lAppointmentSyncing.IsMatch">
<polygon fill="white" stroke="black" points="456,-49.5 456,-79.5 614,-79.5 614,-49.5 456,-49.5"/>
<text text-anchor="start" x="464" y="-67.5" font-family="Helvetica,sans-Serif" font-size="10.00">SuiteCRMAddIn.BusinessLogic.</text>
<text text-anchor="middle" x="535" y="-56.5" font-family="Helvetica,sans-Serif" font-size="10.00">AppointmentSyncing.IsMatch</text>
</a>
</g>
</g>
<!-- Node4&#45;&gt;Node5 -->
<g id="edge4" class="edge"><title>Node4&#45;&gt;Node5</title>
<path fill="none" stroke="midnightblue" d="M414.232,-64.5C428.224,-64.5 442.435,-64.5 455.946,-64.5"/>
<polygon fill="midnightblue" stroke="midnightblue" points="414.096,-61.0001 404.096,-64.5 414.096,-68.0001 414.096,-61.0001"/>
</g>
<!-- Node6 -->
<g id="node6" class="node"><title>Node6</title>
<g id="a_node6"><a xlink:href="class_suite_c_r_m_add_in_1_1_business_logic_1_1_contact_syncing.html#a20441ed5d82c529e624bba3ef7571e36" target="_top" xlink:title="SuiteCRMAddIn.BusinessLogic.\lContactSyncing.ConstructSyncState">
<polygon fill="white" stroke="black" points="446,-0.5 446,-30.5 624,-30.5 624,-0.5 446,-0.5"/>
<text text-anchor="start" x="454" y="-18.5" font-family="Helvetica,sans-Serif" font-size="10.00">SuiteCRMAddIn.BusinessLogic.</text>
<text text-anchor="middle" x="535" y="-7.5" font-family="Helvetica,sans-Serif" font-size="10.00">ContactSyncing.ConstructSyncState</text>
</a>
</g>
</g>
<!-- Node4&#45;&gt;Node6 -->
<g id="edge5" class="edge"><title>Node4&#45;&gt;Node6</title>
<path fill="none" stroke="midnightblue" d="M391.809,-47.2419C416.267,-41.782 443.087,-35.795 466.778,-30.5062"/>
<polygon fill="midnightblue" stroke="midnightblue" points="390.846,-43.8707 381.849,-49.4654 392.371,-50.7025 390.846,-43.8707"/>
</g>
</g>
</svg>
