<?xml version="1.0" encoding="UTF-8" standalone="no"?>
<!DOCTYPE svg PUBLIC "-//W3C//DTD SVG 1.1//EN"
 "http://www.w3.org/Graphics/SVG/1.1/DTD/svg11.dtd">
<!-- Generated by graphviz version 2.38.0 (20140413.2041)
 -->
<!-- Title: SuiteCRMAddIn.Dialogs.CustomModulesDialog.CustomModulesDialog Pages: 1 -->
<svg width="1292pt" height="117pt"
 viewBox="0.00 0.00 1292.00 116.50" xmlns="http://www.w3.org/2000/svg" xmlns:xlink="http://www.w3.org/1999/xlink">
<g id="graph0" class="graph" transform="scale(1 1) rotate(0) translate(4 112.5)">
<title>SuiteCRMAddIn.Dialogs.CustomModulesDialog.CustomModulesDialog</title>
<polygon fill="white" stroke="none" points="-4,4 -4,-112.5 1288,-112.5 1288,4 -4,4"/>
<!-- Node1 -->
<g id="node1" class="node"><title>Node1</title>
<polygon fill="#bfbfbf" stroke="black" points="0,-68.5 0,-98.5 183,-98.5 183,-68.5 0,-68.5"/>
<text text-anchor="start" x="8" y="-86.5" font-family="Helvetica,sans-Serif" font-size="10.00">SuiteCRMAddIn.Dialogs.Custom</text>
<text text-anchor="middle" x="91.5" y="-75.5" font-family="Helvetica,sans-Serif" font-size="10.00">ModulesDialog.CustomModulesDialog</text>
</g>
<!-- Node2 -->
<g id="node2" class="node"><title>Node2</title>
<g id="a_node2"><a xlink:href="class_suite_c_r_m_client_1_1cls_suite_c_r_m_helper.html#a80f04ec3ab185a736b6633c0df69c536" target="_top" xlink:title="SuiteCRMClient.clsSuiteCRMHelper.\lEnsureLoggedIn">
<polygon fill="white" stroke="black" points="1103,-49.5 1103,-79.5 1284,-79.5 1284,-49.5 1103,-49.5"/>
<text text-anchor="start" x="1111" y="-67.5" font-family="Helvetica,sans-Serif" font-size="10.00">SuiteCRMClient.clsSuiteCRMHelper.</text>
<text text-anchor="middle" x="1193.5" y="-56.5" font-family="Helvetica,sans-Serif" font-size="10.00">EnsureLoggedIn</text>
</a>
</g>
</g>
<!-- Node1&#45;&gt;Node2 -->
<g id="edge1" class="edge"><title>Node1&#45;&gt;Node2</title>
<path fill="none" stroke="midnightblue" d="M183.267,-91.5478C273.616,-98.8561 416.279,-108.5 540,-108.5 540,-108.5 540,-108.5 760.5,-108.5 897.012,-108.5 931.588,-105.798 1067,-88.5 1081.57,-86.6386 1097,-84.1344 1111.87,-81.4444"/>
<polygon fill="midnightblue" stroke="midnightblue" points="1112.86,-84.8204 1122.06,-79.5581 1111.59,-77.9374 1112.86,-84.8204"/>
</g>
<!-- Node3 -->
<g id="node3" class="node"><title>Node3</title>
<g id="a_node3"><a xlink:href="class_suite_c_r_m_add_in_1_1_dialogs_1_1_custom_modules_dialog.html#ad43594486079041890b2cff4f96d3f23" target="_top" xlink:title="Populate this list view with custom modules, marking those saved in my settings as selected...">
<polygon fill="white" stroke="black" points="219,-39 219,-80 413,-80 413,-39 219,-39"/>
<text text-anchor="start" x="227" y="-68" font-family="Helvetica,sans-Serif" font-size="10.00">SuiteCRMAddIn.Dialogs.Custom</text>
<text text-anchor="start" x="227" y="-57" font-family="Helvetica,sans-Serif" font-size="10.00">ModulesDialog.PopulateCustomModules</text>
<text text-anchor="middle" x="316" y="-46" font-family="Helvetica,sans-Serif" font-size="10.00">ListView</text>
</a>
</g>
</g>
<!-- Node1&#45;&gt;Node3 -->
<g id="edge2" class="edge"><title>Node1&#45;&gt;Node3</title>
<path fill="none" stroke="midnightblue" d="M183.32,-73.7037C191.698,-72.8 200.236,-71.8791 208.734,-70.9624"/>
<polygon fill="midnightblue" stroke="midnightblue" points="209.115,-74.4417 218.681,-69.8894 208.364,-67.4821 209.115,-74.4417"/>
</g>
<!-- Node4 -->
<g id="node4" class="node"><title>Node4</title>
<g id="a_node4"><a xlink:href="class_suite_c_r_m_client_1_1cls_suite_c_r_m_helper.html#a510c1dedb473b52cb4d3ce9d5761b57b" target="_top" xlink:title="Return only those modules which have relationships to the email module. ">
<polygon fill="white" stroke="black" points="449,-44.5 449,-74.5 633,-74.5 633,-44.5 449,-44.5"/>
<text text-anchor="start" x="457" y="-62.5" font-family="Helvetica,sans-Serif" font-size="10.00">SuiteCRMClient.clsSuiteCRMHelper.</text>
<text text-anchor="middle" x="541" y="-51.5" font-family="Helvetica,sans-Serif" font-size="10.00">GetModulesHavingEmailRelationships</text>
</a>
</g>
</g>
<!-- Node3&#45;&gt;Node4 -->
<g id="edge3" class="edge"><title>Node3&#45;&gt;Node4</title>
<path fill="none" stroke="midnightblue" d="M413.19,-59.5C421.571,-59.5 430.069,-59.5 438.49,-59.5"/>
<polygon fill="midnightblue" stroke="midnightblue" points="438.712,-63.0001 448.712,-59.5 438.712,-56.0001 438.712,-63.0001"/>
</g>
<!-- Node5 -->
<g id="node5" class="node"><title>Node5</title>
<g id="a_node5"><a xlink:href="class_suite_c_r_m_client_1_1cls_suite_c_r_m_helper.html#afd19c20b8c3d82655e35d46d7829197f" target="_top" xlink:title="Get the list of modules installed in the connected CRM instance, with their associated access control...">
<polygon fill="white" stroke="black" points="886,-49.5 886,-79.5 1067,-79.5 1067,-49.5 886,-49.5"/>
<text text-anchor="start" x="894" y="-67.5" font-family="Helvetica,sans-Serif" font-size="10.00">SuiteCRMClient.clsSuiteCRMHelper.</text>
<text text-anchor="middle" x="976.5" y="-56.5" font-family="Helvetica,sans-Serif" font-size="10.00">GetModules</text>
</a>
</g>
</g>
<!-- Node4&#45;&gt;Node5 -->
<g id="edge4" class="edge"><title>Node4&#45;&gt;Node5</title>
<path fill="none" stroke="midnightblue" d="M633.14,-60.5512C704.177,-61.3706 802.699,-62.5069 875.823,-63.3503"/>
<polygon fill="midnightblue" stroke="midnightblue" points="875.928,-66.8517 885.967,-63.4673 876.008,-59.8521 875.928,-66.8517"/>
</g>
<!-- Node6 -->
<g id="node6" class="node"><title>Node6</title>
<g id="a_node6"><a xlink:href="class_suite_c_r_m_client_1_1cls_suite_c_r_m_helper.html#af93c5906c64452ae63b6c12891f861bc" target="_top" xlink:title="SuiteCRMClient.clsSuiteCRMHelper.\lGetFields">
<polygon fill="white" stroke="black" points="669,-1.5 669,-31.5 850,-31.5 850,-1.5 669,-1.5"/>
<text text-anchor="start" x="677" y="-19.5" font-family="Helvetica,sans-Serif" font-size="10.00">SuiteCRMClient.clsSuiteCRMHelper.</text>
<text text-anchor="middle" x="759.5" y="-8.5" font-family="Helvetica,sans-Serif" font-size="10.00">GetFields</text>
</a>
</g>
</g>
<!-- Node4&#45;&gt;Node6 -->
<g id="edge6" class="edge"><title>Node4&#45;&gt;Node6</title>
<path fill="none" stroke="midnightblue" d="M617.721,-44.4607C635.52,-40.9255 654.613,-37.1334 672.815,-33.5183"/>
<polygon fill="midnightblue" stroke="midnightblue" points="673.695,-36.9119 682.822,-31.5308 672.331,-30.046 673.695,-36.9119"/>
</g>
<!-- Node5&#45;&gt;Node2 -->
<g id="edge5" class="edge"><title>Node5&#45;&gt;Node2</title>
<path fill="none" stroke="midnightblue" d="M1067.12,-64.5C1075.48,-64.5 1083.98,-64.5 1092.42,-64.5"/>
<polygon fill="midnightblue" stroke="midnightblue" points="1092.68,-68.0001 1102.68,-64.5 1092.68,-61.0001 1092.68,-68.0001"/>
</g>
<!-- Node7 -->
<g id="node7" class="node"><title>Node7</title>
<g id="a_node7"><a xlink:href="class_suite_c_r_m_client_1_1cls_suite_c_r_m_helper.html#aae0adc545d51a81ed1297ceaa8b1522a" target="_top" xlink:title="Get the module fields data for the module with this name, if any. ">
<polygon fill="white" stroke="black" points="886,-0.5 886,-30.5 1067,-30.5 1067,-0.5 886,-0.5"/>
<text text-anchor="start" x="894" y="-18.5" font-family="Helvetica,sans-Serif" font-size="10.00">SuiteCRMClient.clsSuiteCRMHelper.</text>
<text text-anchor="middle" x="976.5" y="-7.5" font-family="Helvetica,sans-Serif" font-size="10.00">GetFieldsForModule</text>
</a>
</g>
</g>
<!-- Node6&#45;&gt;Node7 -->
<g id="edge7" class="edge"><title>Node6&#45;&gt;Node7</title>
<path fill="none" stroke="midnightblue" d="M850.123,-16.0832C858.478,-16.0443 866.982,-16.0047 875.424,-15.9655"/>
<polygon fill="midnightblue" stroke="midnightblue" points="875.693,-19.4644 885.677,-15.9178 875.661,-12.4644 875.693,-19.4644"/>
</g>
<!-- Node7&#45;&gt;Node2 -->
<g id="edge8" class="edge"><title>Node7&#45;&gt;Node2</title>
<path fill="none" stroke="midnightblue" d="M1043.47,-30.5346C1066.69,-35.8259 1092.96,-41.8133 1116.9,-47.2712"/>
<polygon fill="midnightblue" stroke="midnightblue" points="1116.13,-50.6841 1126.66,-49.4938 1117.68,-43.8591 1116.13,-50.6841"/>
</g>
</g>
</svg>
