<?xml version="1.0" encoding="UTF-8" standalone="no"?>
<!DOCTYPE svg PUBLIC "-//W3C//DTD SVG 1.1//EN"
 "http://www.w3.org/Graphics/SVG/1.1/DTD/svg11.dtd">
<!-- Generated by graphviz version 2.38.0 (20140413.2041)
 -->
<!-- Title: SuiteCRMClient.clsSuiteCRMHelper.GetModulesHavingEmailRelationships Pages: 1 -->
<svg width="843pt" height="88pt"
 viewBox="0.00 0.00 843.00 88.00" xmlns="http://www.w3.org/2000/svg" xmlns:xlink="http://www.w3.org/1999/xlink">
<g id="graph0" class="graph" transform="scale(1 1) rotate(0) translate(4 84)">
<title>SuiteCRMClient.clsSuiteCRMHelper.GetModulesHavingEmailRelationships</title>
<polygon fill="white" stroke="none" points="-4,4 -4,-84 839,-84 839,4 -4,4"/>
<!-- Node1 -->
<g id="node1" class="node"><title>Node1</title>
<polygon fill="#bfbfbf" stroke="black" points="0,-24.5 0,-54.5 184,-54.5 184,-24.5 0,-24.5"/>
<text text-anchor="start" x="8" y="-42.5" font-family="Helvetica,sans-Serif" font-size="10.00">SuiteCRMClient.clsSuiteCRMHelper.</text>
<text text-anchor="middle" x="92" y="-31.5" font-family="Helvetica,sans-Serif" font-size="10.00">GetModulesHavingEmailRelationships</text>
</g>
<!-- Node2 -->
<g id="node2" class="node"><title>Node2</title>
<g id="a_node2"><a xlink:href="class_suite_c_r_m_client_1_1cls_suite_c_r_m_helper.html#afd19c20b8c3d82655e35d46d7829197f" target="_top" xlink:title="Get the list of modules installed in the connected CRM instance, with their associated access control...">
<polygon fill="white" stroke="black" points="437,-49.5 437,-79.5 618,-79.5 618,-49.5 437,-49.5"/>
<text text-anchor="start" x="445" y="-67.5" font-family="Helvetica,sans-Serif" font-size="10.00">SuiteCRMClient.clsSuiteCRMHelper.</text>
<text text-anchor="middle" x="527.5" y="-56.5" font-family="Helvetica,sans-Serif" font-size="10.00">GetModules</text>
</a>
</g>
</g>
<!-- Node1&#45;&gt;Node2 -->
<g id="edge1" class="edge"><title>Node1&#45;&gt;Node2</title>
<path fill="none" stroke="midnightblue" d="M184.14,-44.7561C255.177,-48.8528 353.699,-54.5346 426.823,-58.7516"/>
<polygon fill="midnightblue" stroke="midnightblue" points="426.782,-62.255 436.967,-59.3366 427.186,-55.2666 426.782,-62.255"/>
</g>
<!-- Node4 -->
<g id="node4" class="node"><title>Node4</title>
<g id="a_node4"><a xlink:href="class_suite_c_r_m_client_1_1cls_suite_c_r_m_helper.html#af93c5906c64452ae63b6c12891f861bc" target="_top" xlink:title="SuiteCRMClient.clsSuiteCRMHelper.\lGetFields">
<polygon fill="white" stroke="black" points="220,-2.5 220,-32.5 401,-32.5 401,-2.5 220,-2.5"/>
<text text-anchor="start" x="228" y="-20.5" font-family="Helvetica,sans-Serif" font-size="10.00">SuiteCRMClient.clsSuiteCRMHelper.</text>
<text text-anchor="middle" x="310.5" y="-9.5" font-family="Helvetica,sans-Serif" font-size="10.00">GetFields</text>
</a>
</g>
</g>
<!-- Node1&#45;&gt;Node4 -->
<g id="edge3" class="edge"><title>Node1&#45;&gt;Node4</title>
<path fill="none" stroke="midnightblue" d="M184.188,-30.2338C192.66,-29.3729 201.275,-28.4974 209.819,-27.6293"/>
<polygon fill="midnightblue" stroke="midnightblue" points="210.208,-31.1079 219.803,-26.6148 209.5,-24.1437 210.208,-31.1079"/>
</g>
<!-- Node3 -->
<g id="node3" class="node"><title>Node3</title>
<g id="a_node3"><a xlink:href="class_suite_c_r_m_client_1_1cls_suite_c_r_m_helper.html#a80f04ec3ab185a736b6633c0df69c536" target="_top" xlink:title="SuiteCRMClient.clsSuiteCRMHelper.\lEnsureLoggedIn">
<polygon fill="white" stroke="black" points="654,-24.5 654,-54.5 835,-54.5 835,-24.5 654,-24.5"/>
<text text-anchor="start" x="662" y="-42.5" font-family="Helvetica,sans-Serif" font-size="10.00">SuiteCRMClient.clsSuiteCRMHelper.</text>
<text text-anchor="middle" x="744.5" y="-31.5" font-family="Helvetica,sans-Serif" font-size="10.00">EnsureLoggedIn</text>
</a>
</g>
</g>
<!-- Node2&#45;&gt;Node3 -->
<g id="edge2" class="edge"><title>Node2&#45;&gt;Node3</title>
<path fill="none" stroke="midnightblue" d="M618.123,-54.0788C626.57,-53.0965 635.168,-52.0967 643.702,-51.1044"/>
<polygon fill="midnightblue" stroke="midnightblue" points="644.148,-54.5762 653.677,-49.9445 643.34,-47.6231 644.148,-54.5762"/>
</g>
<!-- Node5 -->
<g id="node5" class="node"><title>Node5</title>
<g id="a_node5"><a xlink:href="class_suite_c_r_m_client_1_1cls_suite_c_r_m_helper.html#aae0adc545d51a81ed1297ceaa8b1522a" target="_top" xlink:title="Get the module fields data for the module with this name, if any. ">
<polygon fill="white" stroke="black" points="437,-0.5 437,-30.5 618,-30.5 618,-0.5 437,-0.5"/>
<text text-anchor="start" x="445" y="-18.5" font-family="Helvetica,sans-Serif" font-size="10.00">SuiteCRMClient.clsSuiteCRMHelper.</text>
<text text-anchor="middle" x="527.5" y="-7.5" font-family="Helvetica,sans-Serif" font-size="10.00">GetFieldsForModule</text>
</a>
</g>
</g>
<!-- Node4&#45;&gt;Node5 -->
<g id="edge4" class="edge"><title>Node4&#45;&gt;Node5</title>
<path fill="none" stroke="midnightblue" d="M401.123,-16.6663C409.478,-16.5886 417.982,-16.5095 426.424,-16.4309"/>
<polygon fill="midnightblue" stroke="midnightblue" points="426.71,-19.9285 436.677,-16.3356 426.645,-12.9288 426.71,-19.9285"/>
</g>
<!-- Node5&#45;&gt;Node3 -->
<g id="edge5" class="edge"><title>Node5&#45;&gt;Node3</title>
<path fill="none" stroke="midnightblue" d="M618.123,-25.5044C626.57,-26.4473 635.168,-27.4072 643.702,-28.3598"/>
<polygon fill="midnightblue" stroke="midnightblue" points="643.35,-31.8422 653.677,-29.4732 644.127,-24.8854 643.35,-31.8422"/>
</g>
</g>
</svg>
