<?xml version="1.0" encoding="UTF-8" standalone="no"?>
<!DOCTYPE svg PUBLIC "-//W3C//DTD SVG 1.1//EN"
 "http://www.w3.org/Graphics/SVG/1.1/DTD/svg11.dtd">
<!-- Generated by graphviz version 2.38.0 (20140413.2041)
 -->
<!-- Title: SuiteCRMAddIn.Daemon.ArchiveEmailAction.Perform Pages: 1 -->
<svg width="801pt" height="39pt"
 viewBox="0.00 0.00 801.00 39.00" xmlns="http://www.w3.org/2000/svg" xmlns:xlink="http://www.w3.org/1999/xlink">
<g id="graph0" class="graph" transform="scale(1 1) rotate(0) translate(4 35)">
<title>SuiteCRMAddIn.Daemon.ArchiveEmailAction.Perform</title>
<polygon fill="white" stroke="none" points="-4,4 -4,-35 797,-35 797,4 -4,4"/>
<!-- Node1 -->
<g id="node1" class="node"><title>Node1</title>
<polygon fill="#bfbfbf" stroke="black" points="0,-0.5 0,-30.5 164,-30.5 164,-0.5 0,-0.5"/>
<text text-anchor="start" x="8" y="-18.5" font-family="Helvetica,sans-Serif" font-size="10.00">SuiteCRMAddIn.Daemon.Archive</text>
<text text-anchor="middle" x="82" y="-7.5" font-family="Helvetica,sans-Serif" font-size="10.00">EmailAction.Perform</text>
</g>
<!-- Node2 -->
<g id="node2" class="node"><title>Node2</title>
<g id="a_node2"><a xlink:href="class_suite_c_r_m_client_1_1_email_1_1_archiveable_email.html#a02b20863d021aa8b4c1551277da12cfa" target="_top" xlink:title="Save my email to CRM, if it relates to any valid contacts. ">
<polygon fill="white" stroke="black" points="200,-0.5 200,-30.5 370,-30.5 370,-0.5 200,-0.5"/>
<text text-anchor="start" x="208" y="-18.5" font-family="Helvetica,sans-Serif" font-size="10.00">SuiteCRMClient.Email.Archiveable</text>
<text text-anchor="middle" x="285" y="-7.5" font-family="Helvetica,sans-Serif" font-size="10.00">Email.Save</text>
</a>
</g>
</g>
<!-- Node1&#45;&gt;Node2 -->
<g id="edge1" class="edge"><title>Node1&#45;&gt;Node2</title>
<path fill="none" stroke="midnightblue" d="M164.175,-15.5C172.633,-15.5 181.28,-15.5 189.865,-15.5"/>
<polygon fill="midnightblue" stroke="midnightblue" points="189.9,-19.0001 199.9,-15.5 189.9,-12.0001 189.9,-19.0001"/>
</g>
<!-- Node3 -->
<g id="node3" class="node"><title>Node3</title>
<g id="a_node3"><a xlink:href="class_suite_c_r_m_client_1_1_email_1_1_archiveable_email.html#a8432205a44b9dd2f40679ed7d8b73a64" target="_top" xlink:title="Get contact ids of all email addresses in my From, To, or CC fields which are known to CRM and not in...">
<polygon fill="white" stroke="black" points="406,-0.5 406,-30.5 576,-30.5 576,-0.5 406,-0.5"/>
<text text-anchor="start" x="414" y="-18.5" font-family="Helvetica,sans-Serif" font-size="10.00">SuiteCRMClient.Email.Archiveable</text>
<text text-anchor="middle" x="491" y="-7.5" font-family="Helvetica,sans-Serif" font-size="10.00">Email.GetValidContactIDs</text>
</a>
</g>
</g>
<!-- Node2&#45;&gt;Node3 -->
<g id="edge2" class="edge"><title>Node2&#45;&gt;Node3</title>
<path fill="none" stroke="midnightblue" d="M370.152,-15.5C378.501,-15.5 387.015,-15.5 395.46,-15.5"/>
<polygon fill="midnightblue" stroke="midnightblue" points="395.712,-19.0001 405.712,-15.5 395.712,-12.0001 395.712,-19.0001"/>
</g>
<!-- Node4 -->
<g id="node4" class="node"><title>Node4</title>
<g id="a_node4"><a xlink:href="class_suite_c_r_m_client_1_1cls_suite_c_r_m_helper.html#a80f04ec3ab185a736b6633c0df69c536" target="_top" xlink:title="SuiteCRMClient.clsSuiteCRMHelper.\lEnsureLoggedIn">
<polygon fill="white" stroke="black" points="612,-0.5 612,-30.5 793,-30.5 793,-0.5 612,-0.5"/>
<text text-anchor="start" x="620" y="-18.5" font-family="Helvetica,sans-Serif" font-size="10.00">SuiteCRMClient.clsSuiteCRMHelper.</text>
<text text-anchor="middle" x="702.5" y="-7.5" font-family="Helvetica,sans-Serif" font-size="10.00">EnsureLoggedIn</text>
</a>
</g>
</g>
<!-- Node3&#45;&gt;Node4 -->
<g id="edge3" class="edge"><title>Node3&#45;&gt;Node4</title>
<path fill="none" stroke="midnightblue" d="M576.005,-15.5C584.514,-15.5 593.213,-15.5 601.866,-15.5"/>
<polygon fill="midnightblue" stroke="midnightblue" points="601.989,-19.0001 611.988,-15.5 601.988,-12.0001 601.989,-19.0001"/>
</g>
</g>
</svg>
