<?xml version="1.0" encoding="UTF-8" standalone="no"?>
<!DOCTYPE svg PUBLIC "-//W3C//DTD SVG 1.1//EN"
 "http://www.w3.org/Graphics/SVG/1.1/DTD/svg11.dtd">
<!-- Generated by graphviz version 2.38.0 (20140413.2041)
 -->
<!-- Title: SuiteCRMAddIn.BusinessLogic.AppointmentSyncing.GetID Pages: 1 -->
<svg width="600pt" height="137pt"
 viewBox="0.00 0.00 600.00 137.00" xmlns="http://www.w3.org/2000/svg" xmlns:xlink="http://www.w3.org/1999/xlink">
<g id="graph0" class="graph" transform="scale(1 1) rotate(0) translate(4 133)">
<title>SuiteCRMAddIn.BusinessLogic.AppointmentSyncing.GetID</title>
<polygon fill="white" stroke="none" points="-4,4 -4,-133 596,-133 596,4 -4,4"/>
<!-- Node1 -->
<g id="node1" class="node"><title>Node1</title>
<polygon fill="#bfbfbf" stroke="black" points="0,-49.5 0,-79.5 158,-79.5 158,-49.5 0,-49.5"/>
<text text-anchor="start" x="8" y="-67.5" font-family="Helvetica,sans-Serif" font-size="10.00">SuiteCRMAddIn.BusinessLogic.</text>
<text text-anchor="middle" x="79" y="-56.5" font-family="Helvetica,sans-Serif" font-size="10.00">AppointmentSyncing.GetID</text>
</g>
<!-- Node2 -->
<g id="node2" class="node"><title>Node2</title>
<g id="a_node2"><a xlink:href="class_suite_c_r_m_add_in_1_1cls_globals.html#afcc5dc742f8dabdeb434dfb493a9d191" target="_top" xlink:title="SuiteCRMAddIn.clsGlobals.\lMySqlEscape">
<polygon fill="white" stroke="black" points="214.5,-98.5 214.5,-128.5 354.5,-128.5 354.5,-98.5 214.5,-98.5"/>
<text text-anchor="start" x="222.5" y="-116.5" font-family="Helvetica,sans-Serif" font-size="10.00">SuiteCRMAddIn.clsGlobals.</text>
<text text-anchor="middle" x="284.5" y="-105.5" font-family="Helvetica,sans-Serif" font-size="10.00">MySqlEscape</text>
</a>
</g>
</g>
<!-- Node1&#45;&gt;Node2 -->
<g id="edge1" class="edge"><title>Node1&#45;&gt;Node2</title>
<path fill="none" stroke="midnightblue" d="M142.44,-79.5346C164.219,-84.7789 188.839,-90.7069 211.343,-96.1255"/>
<polygon fill="midnightblue" stroke="midnightblue" points="210.637,-99.5555 221.178,-98.4938 212.276,-92.75 210.637,-99.5555"/>
</g>
<!-- Node3 -->
<g id="node3" class="node"><title>Node3</title>
<g id="a_node3"><a xlink:href="class_suite_c_r_m_client_1_1cls_suite_c_r_m_helper.html#a717fcb29df379f859e5bf91cbc1083c8" target="_top" xlink:title="SuiteCRMClient.clsSuiteCRMHelper.\lGetEntryList">
<polygon fill="white" stroke="black" points="194,-49.5 194,-79.5 375,-79.5 375,-49.5 194,-49.5"/>
<text text-anchor="start" x="202" y="-67.5" font-family="Helvetica,sans-Serif" font-size="10.00">SuiteCRMClient.clsSuiteCRMHelper.</text>
<text text-anchor="middle" x="284.5" y="-56.5" font-family="Helvetica,sans-Serif" font-size="10.00">GetEntryList</text>
</a>
</g>
</g>
<!-- Node1&#45;&gt;Node3 -->
<g id="edge2" class="edge"><title>Node1&#45;&gt;Node3</title>
<path fill="none" stroke="midnightblue" d="M158.096,-64.5C166.475,-64.5 175.08,-64.5 183.667,-64.5"/>
<polygon fill="midnightblue" stroke="midnightblue" points="183.724,-68.0001 193.724,-64.5 183.724,-61.0001 183.724,-68.0001"/>
</g>
<!-- Node5 -->
<g id="node5" class="node"><title>Node5</title>
<g id="a_node5"><a xlink:href="class_suite_c_r_m_client_1_1cls_suite_c_r_m_helper.html#aedb6c3b87ff73bef81eb4cb8d16fe2ae" target="_top" xlink:title="SuiteCRMClient.clsSuiteCRMHelper.\lGetValueByKey">
<polygon fill="white" stroke="black" points="194,-0.5 194,-30.5 375,-30.5 375,-0.5 194,-0.5"/>
<text text-anchor="start" x="202" y="-18.5" font-family="Helvetica,sans-Serif" font-size="10.00">SuiteCRMClient.clsSuiteCRMHelper.</text>
<text text-anchor="middle" x="284.5" y="-7.5" font-family="Helvetica,sans-Serif" font-size="10.00">GetValueByKey</text>
</a>
</g>
</g>
<!-- Node1&#45;&gt;Node5 -->
<g id="edge4" class="edge"><title>Node1&#45;&gt;Node5</title>
<path fill="none" stroke="midnightblue" d="M142.44,-49.4654C164.219,-44.2211 188.839,-38.2931 211.343,-32.8745"/>
<polygon fill="midnightblue" stroke="midnightblue" points="212.276,-36.25 221.178,-30.5062 210.637,-29.4445 212.276,-36.25"/>
</g>
<!-- Node4 -->
<g id="node4" class="node"><title>Node4</title>
<g id="a_node4"><a xlink:href="class_suite_c_r_m_client_1_1cls_suite_c_r_m_helper.html#a80f04ec3ab185a736b6633c0df69c536" target="_top" xlink:title="SuiteCRMClient.clsSuiteCRMHelper.\lEnsureLoggedIn">
<polygon fill="white" stroke="black" points="411,-49.5 411,-79.5 592,-79.5 592,-49.5 411,-49.5"/>
<text text-anchor="start" x="419" y="-67.5" font-family="Helvetica,sans-Serif" font-size="10.00">SuiteCRMClient.clsSuiteCRMHelper.</text>
<text text-anchor="middle" x="501.5" y="-56.5" font-family="Helvetica,sans-Serif" font-size="10.00">EnsureLoggedIn</text>
</a>
</g>
</g>
<!-- Node3&#45;&gt;Node4 -->
<g id="edge3" class="edge"><title>Node3&#45;&gt;Node4</title>
<path fill="none" stroke="midnightblue" d="M375.123,-64.5C383.478,-64.5 391.982,-64.5 400.424,-64.5"/>
<polygon fill="midnightblue" stroke="midnightblue" points="400.677,-68.0001 410.677,-64.5 400.677,-61.0001 400.677,-68.0001"/>
</g>
</g>
</svg>
