<?xml version="1.0" encoding="UTF-8" standalone="no"?>
<!DOCTYPE svg PUBLIC "-//W3C//DTD SVG 1.1//EN"
 "http://www.w3.org/Graphics/SVG/1.1/DTD/svg11.dtd">
<!-- Generated by graphviz version 2.38.0 (20140413.2041)
 -->
<!-- Title: SuiteCRMAddIn.ThisAddIn.ShowArchiveForm Pages: 1 -->
<svg width="586pt" height="112pt"
 viewBox="0.00 0.00 586.00 112.00" xmlns="http://www.w3.org/2000/svg" xmlns:xlink="http://www.w3.org/1999/xlink">
<g id="graph0" class="graph" transform="scale(1 1) rotate(0) translate(4 108)">
<title>SuiteCRMAddIn.ThisAddIn.ShowArchiveForm</title>
<polygon fill="white" stroke="none" points="-4,4 -4,-108 582,-108 582,4 -4,4"/>
<!-- Node1 -->
<g id="node1" class="node"><title>Node1</title>
<polygon fill="#bfbfbf" stroke="black" points="0,-48.5 0,-78.5 138,-78.5 138,-48.5 0,-48.5"/>
<text text-anchor="start" x="8" y="-66.5" font-family="Helvetica,sans-Serif" font-size="10.00">SuiteCRMAddIn.ThisAddIn.</text>
<text text-anchor="middle" x="69" y="-55.5" font-family="Helvetica,sans-Serif" font-size="10.00">ShowArchiveForm</text>
</g>
<!-- Node2 -->
<g id="node2" class="node"><title>Node2</title>
<g id="a_node2"><a xlink:href="class_suite_c_r_m_add_in_1_1_suite_c_r_m_ribbon.html#ae7ab1a21f9a62df6f3c3138c99358a6c" target="_top" xlink:title="Send, and also archive to CRM, the current message in the composer window. ">
<polygon fill="white" stroke="black" points="174,-73.5 174,-103.5 358,-103.5 358,-73.5 174,-73.5"/>
<text text-anchor="start" x="182" y="-91.5" font-family="Helvetica,sans-Serif" font-size="10.00">SuiteCRMAddIn.SuiteCRMRibbon.btn</text>
<text text-anchor="middle" x="266" y="-80.5" font-family="Helvetica,sans-Serif" font-size="10.00">SendAndArchive_Action</text>
</a>
</g>
</g>
<!-- Node1&#45;&gt;Node2 -->
<g id="edge1" class="edge"><title>Node1&#45;&gt;Node2</title>
<path fill="none" stroke="midnightblue" d="M148.335,-73.543C156.738,-74.6203 165.339,-75.7229 173.874,-76.8172"/>
<polygon fill="midnightblue" stroke="midnightblue" points="148.565,-70.0439 138.202,-72.2438 147.675,-76.9871 148.565,-70.0439"/>
</g>
<!-- Node3 -->
<g id="node3" class="node"><title>Node3</title>
<g id="a_node3"><a xlink:href="class_suite_c_r_m_add_in_1_1_this_add_in.html#a3d3136423943e3e4f71d3ea2b1062147" target="_top" xlink:title="SuiteCRMAddIn.ThisAddIn.\lManualArchive">
<polygon fill="white" stroke="black" points="197,-24.5 197,-54.5 335,-54.5 335,-24.5 197,-24.5"/>
<text text-anchor="start" x="205" y="-42.5" font-family="Helvetica,sans-Serif" font-size="10.00">SuiteCRMAddIn.ThisAddIn.</text>
<text text-anchor="middle" x="266" y="-31.5" font-family="Helvetica,sans-Serif" font-size="10.00">ManualArchive</text>
</a>
</g>
</g>
<!-- Node1&#45;&gt;Node3 -->
<g id="edge2" class="edge"><title>Node1&#45;&gt;Node3</title>
<path fill="none" stroke="midnightblue" d="M148.127,-53.8844C164.247,-51.9003 181.104,-49.8256 196.837,-47.8893"/>
<polygon fill="midnightblue" stroke="midnightblue" points="147.699,-50.4105 138.202,-55.106 148.554,-57.3581 147.699,-50.4105"/>
</g>
<!-- Node4 -->
<g id="node4" class="node"><title>Node4</title>
<g id="a_node4"><a xlink:href="class_suite_c_r_m_add_in_1_1_suite_c_r_m_ribbon.html#af45e3d97607869f229558ab49c84379b" target="_top" xlink:title="SuiteCRMAddIn.SuiteCRMRibbon.btn\lArchive_Action">
<polygon fill="white" stroke="black" points="394,-49.5 394,-79.5 578,-79.5 578,-49.5 394,-49.5"/>
<text text-anchor="start" x="402" y="-67.5" font-family="Helvetica,sans-Serif" font-size="10.00">SuiteCRMAddIn.SuiteCRMRibbon.btn</text>
<text text-anchor="middle" x="486" y="-56.5" font-family="Helvetica,sans-Serif" font-size="10.00">Archive_Action</text>
</a>
</g>
</g>
<!-- Node3&#45;&gt;Node4 -->
<g id="edge3" class="edge"><title>Node3&#45;&gt;Node4</title>
<path fill="none" stroke="midnightblue" d="M345.279,-48.477C361.027,-50.283 377.707,-52.1958 393.85,-54.0471"/>
<polygon fill="midnightblue" stroke="midnightblue" points="345.414,-44.9695 335.08,-47.3073 344.616,-51.9239 345.414,-44.9695"/>
</g>
<!-- Node5 -->
<g id="node5" class="node"><title>Node5</title>
<g id="a_node5"><a xlink:href="class_suite_c_r_m_add_in_1_1_this_add_in.html#a4672086c412924ca3bf5c6aa52466c89" target="_top" xlink:title="SuiteCRMAddIn.ThisAddIn.\lStartSynchronisationProcesses">
<polygon fill="white" stroke="black" points="409,-0.5 409,-30.5 563,-30.5 563,-0.5 409,-0.5"/>
<text text-anchor="start" x="417" y="-18.5" font-family="Helvetica,sans-Serif" font-size="10.00">SuiteCRMAddIn.ThisAddIn.</text>
<text text-anchor="middle" x="486" y="-7.5" font-family="Helvetica,sans-Serif" font-size="10.00">StartSynchronisationProcesses</text>
</a>
</g>
</g>
<!-- Node3&#45;&gt;Node5 -->
<g id="edge4" class="edge"><title>Node3&#45;&gt;Node5</title>
<path fill="none" stroke="midnightblue" d="M345.095,-30.9024C365.791,-28.6239 388.108,-26.167 408.707,-23.8992"/>
<polygon fill="midnightblue" stroke="midnightblue" points="344.637,-27.4316 335.08,-32.005 345.403,-34.3896 344.637,-27.4316"/>
</g>
</g>
</svg>
