<?xml version="1.0" encoding="UTF-8" standalone="no"?>
<!DOCTYPE svg PUBLIC "-//W3C//DTD SVG 1.1//EN"
 "http://www.w3.org/Graphics/SVG/1.1/DTD/svg11.dtd">
<!-- Generated by graphviz version 2.38.0 (20140413.2041)
 -->
<!-- Title: SuiteCRMClient.RESTObjects.NameValueCollection.AsDictionary Pages: 1 -->
<svg width="356pt" height="88pt"
 viewBox="0.00 0.00 356.00 88.00" xmlns="http://www.w3.org/2000/svg" xmlns:xlink="http://www.w3.org/1999/xlink">
<g id="graph0" class="graph" transform="scale(1 1) rotate(0) translate(4 84)">
<title>SuiteCRMClient.RESTObjects.NameValueCollection.AsDictionary</title>
<polygon fill="white" stroke="none" points="-4,4 -4,-84 352,-84 352,4 -4,4"/>
<!-- Node1 -->
<g id="node1" class="node"><title>Node1</title>
<polygon fill="#bfbfbf" stroke="black" points="0,-24.5 0,-54.5 170,-54.5 170,-24.5 0,-24.5"/>
<text text-anchor="start" x="8" y="-42.5" font-family="Helvetica,sans-Serif" font-size="10.00">SuiteCRMClient.RESTObjects.</text>
<text text-anchor="middle" x="85" y="-31.5" font-family="Helvetica,sans-Serif" font-size="10.00">NameValueCollection.AsDictionary</text>
</g>
<!-- Node2 -->
<g id="node2" class="node"><title>Node2</title>
<g id="a_node2"><a xlink:href="class_suite_c_r_m_add_in_1_1_proto_items_1_1_proto_task.html#a2b1bdedb419b72c23c54796b65c7b0e6" target="_top" xlink:title="True if other is also a ProtoTask I have identically the same content as other. ">
<polygon fill="white" stroke="black" points="206,-49.5 206,-79.5 348,-79.5 348,-49.5 206,-49.5"/>
<text text-anchor="start" x="214" y="-67.5" font-family="Helvetica,sans-Serif" font-size="10.00">SuiteCRMAddIn.ProtoItems.</text>
<text text-anchor="middle" x="277" y="-56.5" font-family="Helvetica,sans-Serif" font-size="10.00">ProtoTask.Equals</text>
</a>
</g>
</g>
<!-- Node1&#45;&gt;Node2 -->
<g id="edge1" class="edge"><title>Node1&#45;&gt;Node2</title>
<path fill="none" stroke="midnightblue" d="M180.254,-51.9019C188.865,-53.0349 197.484,-54.169 205.829,-55.2669"/>
<polygon fill="midnightblue" stroke="midnightblue" points="180.538,-48.4091 170.167,-50.5745 179.624,-55.3493 180.538,-48.4091"/>
</g>
<!-- Node3 -->
<g id="node3" class="node"><title>Node3</title>
<g id="a_node3"><a xlink:href="class_suite_c_r_m_add_in_1_1_proto_items_1_1_proto_task.html#ae0cfb00032214ff9e0b3a8280e3b93bf" target="_top" xlink:title="I&#39;m very like a dictionary constructed from my names/values, but not quite. ">
<polygon fill="white" stroke="black" points="206,-0.5 206,-30.5 348,-30.5 348,-0.5 206,-0.5"/>
<text text-anchor="start" x="214" y="-18.5" font-family="Helvetica,sans-Serif" font-size="10.00">SuiteCRMAddIn.ProtoItems.</text>
<text text-anchor="middle" x="277" y="-7.5" font-family="Helvetica,sans-Serif" font-size="10.00">ProtoTask.GetHashCode</text>
</a>
</g>
</g>
<!-- Node1&#45;&gt;Node3 -->
<g id="edge2" class="edge"><title>Node1&#45;&gt;Node3</title>
<path fill="none" stroke="midnightblue" d="M180.254,-27.5942C188.865,-26.5065 197.484,-25.4178 205.829,-24.3637"/>
<polygon fill="midnightblue" stroke="midnightblue" points="179.649,-24.1427 170.167,-28.8684 180.526,-31.0876 179.649,-24.1427"/>
</g>
</g>
</svg>
