<?xml version="1.0" encoding="UTF-8" standalone="no"?>
<!DOCTYPE svg PUBLIC "-//W3C//DTD SVG 1.1//EN"
 "http://www.w3.org/Graphics/SVG/1.1/DTD/svg11.dtd">
<!-- Generated by graphviz version 2.38.0 (20140413.2041)
 -->
<!-- Title: SuiteCRMAddIn.BusinessLogic.SyncDirection.AllowOutbound Pages: 1 -->
<svg width="925pt" height="268pt"
 viewBox="0.00 0.00 925.00 267.50" xmlns="http://www.w3.org/2000/svg" xmlns:xlink="http://www.w3.org/1999/xlink">
<g id="graph0" class="graph" transform="scale(1 1) rotate(0) translate(4 263.5)">
<title>SuiteCRMAddIn.BusinessLogic.SyncDirection.AllowOutbound</title>
<polygon fill="white" stroke="none" points="-4,4 -4,-263.5 921,-263.5 921,4 -4,4"/>
<!-- Node1 -->
<g id="node1" class="node"><title>Node1</title>
<polygon fill="#bfbfbf" stroke="black" points="0,-126 0,-156 158,-156 158,-126 0,-126"/>
<text text-anchor="start" x="8" y="-144" font-family="Helvetica,sans-Serif" font-size="10.00">SuiteCRMAddIn.BusinessLogic.</text>
<text text-anchor="middle" x="79" y="-133" font-family="Helvetica,sans-Serif" font-size="10.00">SyncDirection.AllowOutbound</text>
</g>
<!-- Node2 -->
<g id="node2" class="node"><title>Node2</title>
<g id="a_node2"><a xlink:href="class_suite_c_r_m_add_in_1_1_business_logic_1_1_appointment_syncing.html#a5d2d80bf950c4a4fd241610e65bd4713" target="_top" xlink:title="SuiteCRMAddIn.BusinessLogic.\lAppointmentSyncing.IsMatch">
<polygon fill="white" stroke="black" points="238,-229 238,-259 396,-259 396,-229 238,-229"/>
<text text-anchor="start" x="246" y="-247" font-family="Helvetica,sans-Serif" font-size="10.00">SuiteCRMAddIn.BusinessLogic.</text>
<text text-anchor="middle" x="317" y="-236" font-family="Helvetica,sans-Serif" font-size="10.00">AppointmentSyncing.IsMatch</text>
</a>
</g>
</g>
<!-- Node1&#45;&gt;Node2 -->
<g id="edge1" class="edge"><title>Node1&#45;&gt;Node2</title>
<path fill="none" stroke="midnightblue" d="M104.627,-162.595C126.587,-180.688 160.373,-205.778 194,-220 207.718,-225.802 222.904,-230.22 237.771,-233.578"/>
<polygon fill="midnightblue" stroke="midnightblue" points="106.726,-159.786 96.8152,-156.04 102.226,-165.149 106.726,-159.786"/>
</g>
<!-- Node3 -->
<g id="node3" class="node"><title>Node3</title>
<g id="a_node3"><a xlink:href="class_suite_c_r_m_add_in_1_1_business_logic_1_1_c_r_m_permissions_cache.html#ae827e3294d872f8fedc440b83ad0b8d2" target="_top" xlink:title="Check whether my synchroniser is allowed access to the specified CRM module, with the specified permi...">
<polygon fill="white" stroke="black" points="229,-180 229,-210 405,-210 405,-180 229,-180"/>
<text text-anchor="start" x="237" y="-198" font-family="Helvetica,sans-Serif" font-size="10.00">SuiteCRMAddIn.BusinessLogic.</text>
<text text-anchor="middle" x="317" y="-187" font-family="Helvetica,sans-Serif" font-size="10.00">CRMPermissionsCache.HasAccess</text>
</a>
</g>
</g>
<!-- Node1&#45;&gt;Node3 -->
<g id="edge2" class="edge"><title>Node1&#45;&gt;Node3</title>
<path fill="none" stroke="midnightblue" d="M144.24,-158.663C160.431,-162.906 177.813,-167.282 194,-171 207.465,-174.093 221.822,-177.139 235.784,-179.969"/>
<polygon fill="midnightblue" stroke="midnightblue" points="144.897,-155.217 134.334,-156.046 143.109,-161.984 144.897,-155.217"/>
</g>
<!-- Node7 -->
<g id="node7" class="node"><title>Node7</title>
<g id="a_node7"><a xlink:href="class_suite_c_r_m_add_in_1_1_business_logic_1_1_synchroniser.html#acf9a5c2b9f70d6b33a4036101ce868b7" target="_top" xlink:title="Perform all the necessary checking before adding or updating an item on CRM. ">
<polygon fill="white" stroke="black" points="194,-120.5 194,-161.5 440,-161.5 440,-120.5 194,-120.5"/>
<text text-anchor="start" x="202" y="-149.5" font-family="Helvetica,sans-Serif" font-size="10.00">SuiteCRMAddIn.BusinessLogic.</text>
<text text-anchor="start" x="202" y="-138.5" font-family="Helvetica,sans-Serif" font-size="10.00">Synchroniser&lt; Outlook.Appointment</text>
<text text-anchor="middle" x="317" y="-127.5" font-family="Helvetica,sans-Serif" font-size="10.00">Item &gt;::ShouldAddOrUpdateItemFromOutlookToCrm</text>
</a>
</g>
</g>
<!-- Node1&#45;&gt;Node7 -->
<g id="edge6" class="edge"><title>Node1&#45;&gt;Node7</title>
<path fill="none" stroke="midnightblue" d="M168.275,-141C176.584,-141 185.104,-141 193.653,-141"/>
<polygon fill="midnightblue" stroke="midnightblue" points="168.257,-137.5 158.257,-141 168.257,-144.5 168.257,-137.5"/>
</g>
<!-- Node8 -->
<g id="node8" class="node"><title>Node8</title>
<g id="a_node8"><a xlink:href="class_suite_c_r_m_add_in_1_1_business_logic_1_1_synchroniser.html#a3df7723090576b81797aa38a31eb67aa" target="_top" xlink:title="Remove the item implied by this sync state from CRM. ">
<polygon fill="white" stroke="black" points="230,-60.5 230,-101.5 404,-101.5 404,-60.5 230,-60.5"/>
<text text-anchor="start" x="238" y="-89.5" font-family="Helvetica,sans-Serif" font-size="10.00">SuiteCRMAddIn.BusinessLogic.</text>
<text text-anchor="start" x="238" y="-78.5" font-family="Helvetica,sans-Serif" font-size="10.00">Synchroniser&lt; Outlook.Appointment</text>
<text text-anchor="middle" x="317" y="-67.5" font-family="Helvetica,sans-Serif" font-size="10.00">Item &gt;::RemoveFromCrm</text>
</a>
</g>
</g>
<!-- Node1&#45;&gt;Node8 -->
<g id="edge7" class="edge"><title>Node1&#45;&gt;Node8</title>
<path fill="none" stroke="midnightblue" d="M146.552,-123.293C162.109,-119.207 178.625,-114.913 194,-111 206.154,-107.907 219.003,-104.689 231.622,-101.56"/>
<polygon fill="midnightblue" stroke="midnightblue" points="145.268,-120.011 136.489,-125.941 147.05,-126.781 145.268,-120.011"/>
</g>
<!-- Node9 -->
<g id="node9" class="node"><title>Node9</title>
<g id="a_node9"><a xlink:href="class_suite_c_r_m_add_in_1_1_business_logic_1_1_tests_1_1_sync_direction_tests.html#a23f3582ca7551973221d8e68c959c053" target="_top" xlink:title="SuiteCRMAddIn.BusinessLogic.\lTests.SyncDirectionTests.SyncDirection\lAllowOutboundTest">
<polygon fill="white" stroke="black" points="219.5,-0.5 219.5,-41.5 414.5,-41.5 414.5,-0.5 219.5,-0.5"/>
<text text-anchor="start" x="227.5" y="-29.5" font-family="Helvetica,sans-Serif" font-size="10.00">SuiteCRMAddIn.BusinessLogic.</text>
<text text-anchor="start" x="227.5" y="-18.5" font-family="Helvetica,sans-Serif" font-size="10.00">Tests.SyncDirectionTests.SyncDirection</text>
<text text-anchor="middle" x="317" y="-7.5" font-family="Helvetica,sans-Serif" font-size="10.00">AllowOutboundTest</text>
</a>
</g>
</g>
<!-- Node1&#45;&gt;Node9 -->
<g id="edge8" class="edge"><title>Node1&#45;&gt;Node9</title>
<path fill="none" stroke="midnightblue" d="M102.107,-118.734C123.725,-98.2031 158.49,-68.3598 194,-51 202.034,-47.0724 210.624,-43.6333 219.386,-40.6271"/>
<polygon fill="midnightblue" stroke="midnightblue" points="99.5167,-116.37 94.7595,-125.836 104.382,-121.403 99.5167,-116.37"/>
</g>
<!-- Node4 -->
<g id="node4" class="node"><title>Node4</title>
<g id="a_node4"><a xlink:href="class_suite_c_r_m_add_in_1_1_business_logic_1_1_c_r_m_permissions_cache.html#ae9c79ed281f1327a689fdd041641b947" target="_top" xlink:title="Check whether my synchroniser is allowed import access for the specified CRM module. ">
<polygon fill="white" stroke="black" points="476.5,-204 476.5,-234 680.5,-234 680.5,-204 476.5,-204"/>
<text text-anchor="start" x="484.5" y="-222" font-family="Helvetica,sans-Serif" font-size="10.00">SuiteCRMAddIn.BusinessLogic.</text>
<text text-anchor="middle" x="578.5" y="-211" font-family="Helvetica,sans-Serif" font-size="10.00">CRMPermissionsCache.HasImportAccess</text>
</a>
</g>
</g>
<!-- Node3&#45;&gt;Node4 -->
<g id="edge3" class="edge"><title>Node3&#45;&gt;Node4</title>
<path fill="none" stroke="midnightblue" d="M415.141,-203.984C435.096,-205.83 456.151,-207.777 476.246,-209.635"/>
<polygon fill="midnightblue" stroke="midnightblue" points="415.412,-200.494 405.132,-203.058 414.767,-207.465 415.412,-200.494"/>
</g>
<!-- Node6 -->
<g id="node6" class="node"><title>Node6</title>
<g id="a_node6"><a xlink:href="class_suite_c_r_m_add_in_1_1_business_logic_1_1_c_r_m_permissions_cache.html#a042a30c67613cb37d8f3d001bccdd032" target="_top" xlink:title="Check whether my synchroniser is allowed export access for the specified CRM module. ">
<polygon fill="white" stroke="black" points="476,-155 476,-185 681,-185 681,-155 476,-155"/>
<text text-anchor="start" x="484" y="-173" font-family="Helvetica,sans-Serif" font-size="10.00">SuiteCRMAddIn.BusinessLogic.</text>
<text text-anchor="middle" x="578.5" y="-162" font-family="Helvetica,sans-Serif" font-size="10.00">CRMPermissionsCache.HasExportAccess</text>
</a>
</g>
</g>
<!-- Node3&#45;&gt;Node6 -->
<g id="edge5" class="edge"><title>Node3&#45;&gt;Node6</title>
<path fill="none" stroke="midnightblue" d="M415.348,-185.622C435.09,-183.72 455.902,-181.715 475.791,-179.799"/>
<polygon fill="midnightblue" stroke="midnightblue" points="414.75,-182.163 405.132,-186.606 415.421,-189.131 414.75,-182.163"/>
</g>
<!-- Node5 -->
<g id="node5" class="node"><title>Node5</title>
<g id="a_node5"><a xlink:href="class_suite_c_r_m_add_in_1_1_business_logic_1_1_c_r_m_permissions_cache.html#a9228e56ed8852ceb135b9835b52e025c" target="_top" xlink:title="Check whether my synchroniser is allowed both import and export access for the specified CRM module...">
<polygon fill="white" stroke="black" points="717,-198.5 717,-239.5 917,-239.5 917,-198.5 717,-198.5"/>
<text text-anchor="start" x="725" y="-227.5" font-family="Helvetica,sans-Serif" font-size="10.00">SuiteCRMAddIn.BusinessLogic.</text>
<text text-anchor="start" x="725" y="-216.5" font-family="Helvetica,sans-Serif" font-size="10.00">CRMPermissionsCache.HasImportExport</text>
<text text-anchor="middle" x="817" y="-205.5" font-family="Helvetica,sans-Serif" font-size="10.00">Access</text>
</a>
</g>
</g>
<!-- Node4&#45;&gt;Node5 -->
<g id="edge4" class="edge"><title>Node4&#45;&gt;Node5</title>
<path fill="none" stroke="midnightblue" d="M690.92,-219C699.547,-219 708.222,-219 716.762,-219"/>
<polygon fill="midnightblue" stroke="midnightblue" points="690.827,-215.5 680.826,-219 690.826,-222.5 690.827,-215.5"/>
</g>
</g>
</svg>
