<?xml version="1.0" encoding="UTF-8" standalone="no"?>
<!DOCTYPE svg PUBLIC "-//W3C//DTD SVG 1.1//EN"
 "http://www.w3.org/Graphics/SVG/1.1/DTD/svg11.dtd">
<!-- Generated by graphviz version 2.38.0 (20140413.2041)
 -->
<!-- Title: SuiteCRMAddIn.ThisAddIn.ShowAndLogError Pages: 1 -->
<svg width="540pt" height="88pt"
 viewBox="0.00 0.00 540.00 88.00" xmlns="http://www.w3.org/2000/svg" xmlns:xlink="http://www.w3.org/1999/xlink">
<g id="graph0" class="graph" transform="scale(1 1) rotate(0) translate(4 84)">
<title>SuiteCRMAddIn.ThisAddIn.ShowAndLogError</title>
<polygon fill="white" stroke="none" points="-4,4 -4,-84 536,-84 536,4 -4,4"/>
<!-- Node1 -->
<g id="node1" class="node"><title>Node1</title>
<polygon fill="#bfbfbf" stroke="black" points="0,-24.5 0,-54.5 138,-54.5 138,-24.5 0,-24.5"/>
<text text-anchor="start" x="8" y="-42.5" font-family="Helvetica,sans-Serif" font-size="10.00">SuiteCRMAddIn.ThisAddIn.</text>
<text text-anchor="middle" x="69" y="-31.5" font-family="Helvetica,sans-Serif" font-size="10.00">ShowAndLogError</text>
</g>
<!-- Node2 -->
<g id="node2" class="node"><title>Node2</title>
<g id="a_node2"><a xlink:href="class_suite_c_r_m_add_in_1_1_suite_c_r_m_ribbon.html#ae7ab1a21f9a62df6f3c3138c99358a6c" target="_top" xlink:title="Send, and also archive to CRM, the current message in the composer window. ">
<polygon fill="white" stroke="black" points="174,-49.5 174,-79.5 358,-79.5 358,-49.5 174,-49.5"/>
<text text-anchor="start" x="182" y="-67.5" font-family="Helvetica,sans-Serif" font-size="10.00">SuiteCRMAddIn.SuiteCRMRibbon.btn</text>
<text text-anchor="middle" x="266" y="-56.5" font-family="Helvetica,sans-Serif" font-size="10.00">SendAndArchive_Action</text>
</a>
</g>
</g>
<!-- Node1&#45;&gt;Node2 -->
<g id="edge1" class="edge"><title>Node1&#45;&gt;Node2</title>
<path fill="none" stroke="midnightblue" d="M148.335,-49.543C156.738,-50.6203 165.339,-51.7229 173.874,-52.8172"/>
<polygon fill="midnightblue" stroke="midnightblue" points="148.565,-46.0439 138.202,-48.2438 147.675,-52.9871 148.565,-46.0439"/>
</g>
<!-- Node3 -->
<g id="node3" class="node"><title>Node3</title>
<g id="a_node3"><a xlink:href="class_suite_c_r_m_add_in_1_1_this_add_in.html#aee77aec45c87898261c4ca5f91ae2476" target="_top" xlink:title="SuiteCRMAddIn.ThisAddIn.\lAuthenticate">
<polygon fill="white" stroke="black" points="197,-0.5 197,-30.5 335,-30.5 335,-0.5 197,-0.5"/>
<text text-anchor="start" x="205" y="-18.5" font-family="Helvetica,sans-Serif" font-size="10.00">SuiteCRMAddIn.ThisAddIn.</text>
<text text-anchor="middle" x="266" y="-7.5" font-family="Helvetica,sans-Serif" font-size="10.00">Authenticate</text>
</a>
</g>
</g>
<!-- Node1&#45;&gt;Node3 -->
<g id="edge2" class="edge"><title>Node1&#45;&gt;Node3</title>
<path fill="none" stroke="midnightblue" d="M148.127,-29.8844C164.247,-27.9003 181.104,-25.8256 196.837,-23.8893"/>
<polygon fill="midnightblue" stroke="midnightblue" points="147.699,-26.4105 138.202,-31.106 148.554,-33.3581 147.699,-26.4105"/>
</g>
<!-- Node4 -->
<g id="node4" class="node"><title>Node4</title>
<g id="a_node4"><a xlink:href="class_suite_c_r_m_add_in_1_1_this_add_in.html#a7079a786abcf4e8a54fe271e79838ff1" target="_top" xlink:title="SuiteCRMAddIn.ThisAddIn.\lSuiteCRMAuthenticate">
<polygon fill="white" stroke="black" points="394,-0.5 394,-30.5 532,-30.5 532,-0.5 394,-0.5"/>
<text text-anchor="start" x="402" y="-18.5" font-family="Helvetica,sans-Serif" font-size="10.00">SuiteCRMAddIn.ThisAddIn.</text>
<text text-anchor="middle" x="463" y="-7.5" font-family="Helvetica,sans-Serif" font-size="10.00">SuiteCRMAuthenticate</text>
</a>
</g>
</g>
<!-- Node3&#45;&gt;Node4 -->
<g id="edge3" class="edge"><title>Node3&#45;&gt;Node4</title>
<path fill="none" stroke="midnightblue" d="M345.583,-15.5C361.565,-15.5 378.253,-15.5 393.837,-15.5"/>
<polygon fill="midnightblue" stroke="midnightblue" points="345.202,-12.0001 335.202,-15.5 345.202,-19.0001 345.202,-12.0001"/>
</g>
</g>
</svg>
