<?xml version="1.0" encoding="UTF-8" standalone="no"?>
<!DOCTYPE svg PUBLIC "-//W3C//DTD SVG 1.1//EN"
 "http://www.w3.org/Graphics/SVG/1.1/DTD/svg11.dtd">
<!-- Generated by graphviz version 2.38.0 (20140413.2041)
 -->
<!-- Title: SuiteCRMAddIn.BusinessLogic.ContactSyncing.ConstructSyncState Pages: 1 -->
<svg width="1271pt" height="148pt"
 viewBox="0.00 0.00 1271.00 147.50" xmlns="http://www.w3.org/2000/svg" xmlns:xlink="http://www.w3.org/1999/xlink">
<g id="graph0" class="graph" transform="scale(1 1) rotate(0) translate(4 143.5)">
<title>SuiteCRMAddIn.BusinessLogic.ContactSyncing.ConstructSyncState</title>
<polygon fill="white" stroke="none" points="-4,4 -4,-143.5 1267,-143.5 1267,4 -4,4"/>
<!-- Node1 -->
<g id="node1" class="node"><title>Node1</title>
<polygon fill="#bfbfbf" stroke="black" points="0,-49.5 0,-79.5 178,-79.5 178,-49.5 0,-49.5"/>
<text text-anchor="start" x="8" y="-67.5" font-family="Helvetica,sans-Serif" font-size="10.00">SuiteCRMAddIn.BusinessLogic.</text>
<text text-anchor="middle" x="89" y="-56.5" font-family="Helvetica,sans-Serif" font-size="10.00">ContactSyncing.ConstructSyncState</text>
</g>
<!-- Node2 -->
<g id="node2" class="node"><title>Node2</title>
<g id="a_node2"><a xlink:href="class_suite_c_r_m_add_in_1_1_business_logic_1_1_synchroniser.html#a9a2c3473c4dc60793fed0588c66f8666" target="_top" xlink:title="Parse a date time object from a user property, assuming the ISO 8601 date&#45;time format but ommitting t...">
<polygon fill="white" stroke="black" points="214.5,-98 214.5,-139 394.5,-139 394.5,-98 214.5,-98"/>
<text text-anchor="start" x="222.5" y="-127" font-family="Helvetica,sans-Serif" font-size="10.00">SuiteCRMAddIn.BusinessLogic.</text>
<text text-anchor="start" x="222.5" y="-116" font-family="Helvetica,sans-Serif" font-size="10.00">Synchroniser&lt; Outlook.ContactItem</text>
<text text-anchor="middle" x="304.5" y="-105" font-family="Helvetica,sans-Serif" font-size="10.00"> &gt;::ParseDateTimeFromUserProperty</text>
</a>
</g>
</g>
<!-- Node1&#45;&gt;Node2 -->
<g id="edge1" class="edge"><title>Node1&#45;&gt;Node2</title>
<path fill="none" stroke="midnightblue" d="M149.472,-79.542C169.052,-84.4945 191.292,-90.1196 212.662,-95.5246"/>
<polygon fill="midnightblue" stroke="midnightblue" points="211.854,-98.9303 222.407,-97.9893 213.57,-92.144 211.854,-98.9303"/>
</g>
<!-- Node3 -->
<g id="node3" class="node"><title>Node3</title>
<g id="a_node3"><a xlink:href="class_suite_c_r_m_client_1_1cls_suite_c_r_m_helper.html#a050637c0cbd1012cf9cf58c5cb3d179c" target="_top" xlink:title="Return the CRM id of the current user. ">
<polygon fill="white" stroke="black" points="214,-49.5 214,-79.5 395,-79.5 395,-49.5 214,-49.5"/>
<text text-anchor="start" x="222" y="-67.5" font-family="Helvetica,sans-Serif" font-size="10.00">SuiteCRMClient.clsSuiteCRMHelper.</text>
<text text-anchor="middle" x="304.5" y="-56.5" font-family="Helvetica,sans-Serif" font-size="10.00">GetUserId</text>
</a>
</g>
</g>
<!-- Node1&#45;&gt;Node3 -->
<g id="edge2" class="edge"><title>Node1&#45;&gt;Node3</title>
<path fill="none" stroke="midnightblue" d="M178.071,-64.5C186.575,-64.5 195.242,-64.5 203.847,-64.5"/>
<polygon fill="midnightblue" stroke="midnightblue" points="203.907,-68.0001 213.907,-64.5 203.906,-61.0001 203.907,-68.0001"/>
</g>
<!-- Node4 -->
<g id="node4" class="node"><title>Node4</title>
<g id="a_node4"><a xlink:href="class_suite_c_r_m_client_1_1cls_suite_c_r_m_helper.html#a8f51774a4b5d0dcd199c7a5b72ea4096" target="_top" xlink:title="Sets a CRM relationship and returns boolean success. &#39;Unsafe&#39; because most callers ignore the result...">
<polygon fill="white" stroke="black" points="214,-0.5 214,-30.5 395,-30.5 395,-0.5 214,-0.5"/>
<text text-anchor="start" x="222" y="-18.5" font-family="Helvetica,sans-Serif" font-size="10.00">SuiteCRMClient.clsSuiteCRMHelper.</text>
<text text-anchor="middle" x="304.5" y="-7.5" font-family="Helvetica,sans-Serif" font-size="10.00">SetRelationshipUnsafe</text>
</a>
</g>
</g>
<!-- Node1&#45;&gt;Node4 -->
<g id="edge3" class="edge"><title>Node1&#45;&gt;Node4</title>
<path fill="none" stroke="midnightblue" d="M155.508,-49.4654C178.46,-44.1976 204.419,-38.2399 228.115,-32.8016"/>
<polygon fill="midnightblue" stroke="midnightblue" points="229.152,-36.1545 238.116,-30.5062 227.586,-29.3319 229.152,-36.1545"/>
</g>
<!-- Node5 -->
<g id="node5" class="node"><title>Node5</title>
<g id="a_node5"><a xlink:href="class_suite_c_r_m_client_1_1cls_suite_c_r_m_helper.html#afdded880e1ddaad804a69c8789c8d268" target="_top" xlink:title="The protocols for how link fields are named vary. Try the most likely two possibilities, and log failures. ">
<polygon fill="white" stroke="black" points="431,-0.5 431,-30.5 612,-30.5 612,-0.5 431,-0.5"/>
<text text-anchor="start" x="439" y="-18.5" font-family="Helvetica,sans-Serif" font-size="10.00">SuiteCRMClient.clsSuiteCRMHelper.</text>
<text text-anchor="middle" x="521.5" y="-7.5" font-family="Helvetica,sans-Serif" font-size="10.00">TrySetRelationship</text>
</a>
</g>
</g>
<!-- Node4&#45;&gt;Node5 -->
<g id="edge4" class="edge"><title>Node4&#45;&gt;Node5</title>
<path fill="none" stroke="midnightblue" d="M395.123,-15.5C403.478,-15.5 411.982,-15.5 420.424,-15.5"/>
<polygon fill="midnightblue" stroke="midnightblue" points="420.677,-19.0001 430.677,-15.5 420.677,-12.0001 420.677,-19.0001"/>
</g>
<!-- Node6 -->
<g id="node6" class="node"><title>Node6</title>
<g id="a_node6"><a xlink:href="class_suite_c_r_m_client_1_1cls_suite_c_r_m_helper.html#a54a65e000ff00bb87a5e8bf5e2ef8d43" target="_top" xlink:title="Find the fields, among the fields of this module, which are links and where the name of the relations...">
<polygon fill="white" stroke="black" points="648,-0.5 648,-30.5 829,-30.5 829,-0.5 648,-0.5"/>
<text text-anchor="start" x="656" y="-18.5" font-family="Helvetica,sans-Serif" font-size="10.00">SuiteCRMClient.clsSuiteCRMHelper.</text>
<text text-anchor="middle" x="738.5" y="-7.5" font-family="Helvetica,sans-Serif" font-size="10.00">GetActivitiesLinks</text>
</a>
</g>
</g>
<!-- Node5&#45;&gt;Node6 -->
<g id="edge5" class="edge"><title>Node5&#45;&gt;Node6</title>
<path fill="none" stroke="midnightblue" d="M612.123,-15.5C620.478,-15.5 628.982,-15.5 637.424,-15.5"/>
<polygon fill="midnightblue" stroke="midnightblue" points="637.677,-19.0001 647.677,-15.5 637.677,-12.0001 637.677,-19.0001"/>
</g>
<!-- Node7 -->
<g id="node7" class="node"><title>Node7</title>
<g id="a_node7"><a xlink:href="class_suite_c_r_m_client_1_1cls_suite_c_r_m_helper.html#aae0adc545d51a81ed1297ceaa8b1522a" target="_top" xlink:title="Get the module fields data for the module with this name, if any. ">
<polygon fill="white" stroke="black" points="865,-0.5 865,-30.5 1046,-30.5 1046,-0.5 865,-0.5"/>
<text text-anchor="start" x="873" y="-18.5" font-family="Helvetica,sans-Serif" font-size="10.00">SuiteCRMClient.clsSuiteCRMHelper.</text>
<text text-anchor="middle" x="955.5" y="-7.5" font-family="Helvetica,sans-Serif" font-size="10.00">GetFieldsForModule</text>
</a>
</g>
</g>
<!-- Node6&#45;&gt;Node7 -->
<g id="edge6" class="edge"><title>Node6&#45;&gt;Node7</title>
<path fill="none" stroke="midnightblue" d="M829.123,-15.5C837.478,-15.5 845.982,-15.5 854.424,-15.5"/>
<polygon fill="midnightblue" stroke="midnightblue" points="854.677,-19.0001 864.677,-15.5 854.677,-12.0001 854.677,-19.0001"/>
</g>
<!-- Node8 -->
<g id="node8" class="node"><title>Node8</title>
<g id="a_node8"><a xlink:href="class_suite_c_r_m_client_1_1cls_suite_c_r_m_helper.html#a80f04ec3ab185a736b6633c0df69c536" target="_top" xlink:title="SuiteCRMClient.clsSuiteCRMHelper.\lEnsureLoggedIn">
<polygon fill="white" stroke="black" points="1082,-0.5 1082,-30.5 1263,-30.5 1263,-0.5 1082,-0.5"/>
<text text-anchor="start" x="1090" y="-18.5" font-family="Helvetica,sans-Serif" font-size="10.00">SuiteCRMClient.clsSuiteCRMHelper.</text>
<text text-anchor="middle" x="1172.5" y="-7.5" font-family="Helvetica,sans-Serif" font-size="10.00">EnsureLoggedIn</text>
</a>
</g>
</g>
<!-- Node7&#45;&gt;Node8 -->
<g id="edge7" class="edge"><title>Node7&#45;&gt;Node8</title>
<path fill="none" stroke="midnightblue" d="M1046.12,-15.5C1054.48,-15.5 1062.98,-15.5 1071.42,-15.5"/>
<polygon fill="midnightblue" stroke="midnightblue" points="1071.68,-19.0001 1081.68,-15.5 1071.68,-12.0001 1071.68,-19.0001"/>
</g>
</g>
</svg>
