<?xml version="1.0" encoding="UTF-8" standalone="no"?>
<!DOCTYPE svg PUBLIC "-//W3C//DTD SVG 1.1//EN"
 "http://www.w3.org/Graphics/SVG/1.1/DTD/svg11.dtd">
<!-- Generated by graphviz version 2.38.0 (20140413.2041)
 -->
<!-- Title: SuiteCRMAddIn.Dialogs.CustomModulesDialog.PopulateCustomModulesListView Pages: 1 -->
<svg width="1073pt" height="88pt"
 viewBox="0.00 0.00 1073.00 88.00" xmlns="http://www.w3.org/2000/svg" xmlns:xlink="http://www.w3.org/1999/xlink">
<g id="graph0" class="graph" transform="scale(1 1) rotate(0) translate(4 84)">
<title>SuiteCRMAddIn.Dialogs.CustomModulesDialog.PopulateCustomModulesListView</title>
<polygon fill="white" stroke="none" points="-4,4 -4,-84 1069,-84 1069,4 -4,4"/>
<!-- Node1 -->
<g id="node1" class="node"><title>Node1</title>
<polygon fill="#bfbfbf" stroke="black" points="0,-19 0,-60 194,-60 194,-19 0,-19"/>
<text text-anchor="start" x="8" y="-48" font-family="Helvetica,sans-Serif" font-size="10.00">SuiteCRMAddIn.Dialogs.Custom</text>
<text text-anchor="start" x="8" y="-37" font-family="Helvetica,sans-Serif" font-size="10.00">ModulesDialog.PopulateCustomModules</text>
<text text-anchor="middle" x="97" y="-26" font-family="Helvetica,sans-Serif" font-size="10.00">ListView</text>
</g>
<!-- Node2 -->
<g id="node2" class="node"><title>Node2</title>
<g id="a_node2"><a xlink:href="class_suite_c_r_m_client_1_1cls_suite_c_r_m_helper.html#a510c1dedb473b52cb4d3ce9d5761b57b" target="_top" xlink:title="Return only those modules which have relationships to the email module. ">
<polygon fill="white" stroke="black" points="230,-24.5 230,-54.5 414,-54.5 414,-24.5 230,-24.5"/>
<text text-anchor="start" x="238" y="-42.5" font-family="Helvetica,sans-Serif" font-size="10.00">SuiteCRMClient.clsSuiteCRMHelper.</text>
<text text-anchor="middle" x="322" y="-31.5" font-family="Helvetica,sans-Serif" font-size="10.00">GetModulesHavingEmailRelationships</text>
</a>
</g>
</g>
<!-- Node1&#45;&gt;Node2 -->
<g id="edge1" class="edge"><title>Node1&#45;&gt;Node2</title>
<path fill="none" stroke="midnightblue" d="M194.19,-39.5C202.571,-39.5 211.069,-39.5 219.49,-39.5"/>
<polygon fill="midnightblue" stroke="midnightblue" points="219.712,-43.0001 229.712,-39.5 219.712,-36.0001 219.712,-43.0001"/>
</g>
<!-- Node3 -->
<g id="node3" class="node"><title>Node3</title>
<g id="a_node3"><a xlink:href="class_suite_c_r_m_client_1_1cls_suite_c_r_m_helper.html#afd19c20b8c3d82655e35d46d7829197f" target="_top" xlink:title="Get the list of modules installed in the connected CRM instance, with their associated access control...">
<polygon fill="white" stroke="black" points="667,-49.5 667,-79.5 848,-79.5 848,-49.5 667,-49.5"/>
<text text-anchor="start" x="675" y="-67.5" font-family="Helvetica,sans-Serif" font-size="10.00">SuiteCRMClient.clsSuiteCRMHelper.</text>
<text text-anchor="middle" x="757.5" y="-56.5" font-family="Helvetica,sans-Serif" font-size="10.00">GetModules</text>
</a>
</g>
</g>
<!-- Node2&#45;&gt;Node3 -->
<g id="edge2" class="edge"><title>Node2&#45;&gt;Node3</title>
<path fill="none" stroke="midnightblue" d="M414.14,-44.7561C485.177,-48.8528 583.699,-54.5346 656.823,-58.7516"/>
<polygon fill="midnightblue" stroke="midnightblue" points="656.782,-62.255 666.967,-59.3366 657.186,-55.2666 656.782,-62.255"/>
</g>
<!-- Node5 -->
<g id="node5" class="node"><title>Node5</title>
<g id="a_node5"><a xlink:href="class_suite_c_r_m_client_1_1cls_suite_c_r_m_helper.html#af93c5906c64452ae63b6c12891f861bc" target="_top" xlink:title="SuiteCRMClient.clsSuiteCRMHelper.\lGetFields">
<polygon fill="white" stroke="black" points="450,-2.5 450,-32.5 631,-32.5 631,-2.5 450,-2.5"/>
<text text-anchor="start" x="458" y="-20.5" font-family="Helvetica,sans-Serif" font-size="10.00">SuiteCRMClient.clsSuiteCRMHelper.</text>
<text text-anchor="middle" x="540.5" y="-9.5" font-family="Helvetica,sans-Serif" font-size="10.00">GetFields</text>
</a>
</g>
</g>
<!-- Node2&#45;&gt;Node5 -->
<g id="edge4" class="edge"><title>Node2&#45;&gt;Node5</title>
<path fill="none" stroke="midnightblue" d="M414.188,-30.2338C422.66,-29.3729 431.275,-28.4974 439.819,-27.6293"/>
<polygon fill="midnightblue" stroke="midnightblue" points="440.208,-31.1079 449.803,-26.6148 439.5,-24.1437 440.208,-31.1079"/>
</g>
<!-- Node4 -->
<g id="node4" class="node"><title>Node4</title>
<g id="a_node4"><a xlink:href="class_suite_c_r_m_client_1_1cls_suite_c_r_m_helper.html#a80f04ec3ab185a736b6633c0df69c536" target="_top" xlink:title="SuiteCRMClient.clsSuiteCRMHelper.\lEnsureLoggedIn">
<polygon fill="white" stroke="black" points="884,-24.5 884,-54.5 1065,-54.5 1065,-24.5 884,-24.5"/>
<text text-anchor="start" x="892" y="-42.5" font-family="Helvetica,sans-Serif" font-size="10.00">SuiteCRMClient.clsSuiteCRMHelper.</text>
<text text-anchor="middle" x="974.5" y="-31.5" font-family="Helvetica,sans-Serif" font-size="10.00">EnsureLoggedIn</text>
</a>
</g>
</g>
<!-- Node3&#45;&gt;Node4 -->
<g id="edge3" class="edge"><title>Node3&#45;&gt;Node4</title>
<path fill="none" stroke="midnightblue" d="M848.123,-54.0788C856.57,-53.0965 865.168,-52.0967 873.702,-51.1044"/>
<polygon fill="midnightblue" stroke="midnightblue" points="874.148,-54.5762 883.677,-49.9445 873.34,-47.6231 874.148,-54.5762"/>
</g>
<!-- Node6 -->
<g id="node6" class="node"><title>Node6</title>
<g id="a_node6"><a xlink:href="class_suite_c_r_m_client_1_1cls_suite_c_r_m_helper.html#aae0adc545d51a81ed1297ceaa8b1522a" target="_top" xlink:title="Get the module fields data for the module with this name, if any. ">
<polygon fill="white" stroke="black" points="667,-0.5 667,-30.5 848,-30.5 848,-0.5 667,-0.5"/>
<text text-anchor="start" x="675" y="-18.5" font-family="Helvetica,sans-Serif" font-size="10.00">SuiteCRMClient.clsSuiteCRMHelper.</text>
<text text-anchor="middle" x="757.5" y="-7.5" font-family="Helvetica,sans-Serif" font-size="10.00">GetFieldsForModule</text>
</a>
</g>
</g>
<!-- Node5&#45;&gt;Node6 -->
<g id="edge5" class="edge"><title>Node5&#45;&gt;Node6</title>
<path fill="none" stroke="midnightblue" d="M631.123,-16.6663C639.478,-16.5886 647.982,-16.5095 656.424,-16.4309"/>
<polygon fill="midnightblue" stroke="midnightblue" points="656.71,-19.9285 666.677,-16.3356 656.645,-12.9288 656.71,-19.9285"/>
</g>
<!-- Node6&#45;&gt;Node4 -->
<g id="edge6" class="edge"><title>Node6&#45;&gt;Node4</title>
<path fill="none" stroke="midnightblue" d="M848.123,-25.5044C856.57,-26.4473 865.168,-27.4072 873.702,-28.3598"/>
<polygon fill="midnightblue" stroke="midnightblue" points="873.35,-31.8422 883.677,-29.4732 874.127,-24.8854 873.35,-31.8422"/>
</g>
</g>
</svg>
