<?xml version="1.0" encoding="UTF-8" standalone="no"?>
<!DOCTYPE svg PUBLIC "-//W3C//DTD SVG 1.1//EN"
 "http://www.w3.org/Graphics/SVG/1.1/DTD/svg11.dtd">
<!-- Generated by graphviz version 2.38.0 (20140413.2041)
 -->
<!-- Title: SuiteCRMAddIn.BusinessLogic.AppointmentSyncing.EnsureSynchronisationPropertiesForOutlookItem Pages: 1 -->
<svg width="675pt" height="99pt"
 viewBox="0.00 0.00 675.00 98.50" xmlns="http://www.w3.org/2000/svg" xmlns:xlink="http://www.w3.org/1999/xlink">
<g id="graph0" class="graph" transform="scale(1 1) rotate(0) translate(4 94.5)">
<title>SuiteCRMAddIn.BusinessLogic.AppointmentSyncing.EnsureSynchronisationPropertiesForOutlookItem</title>
<polygon fill="white" stroke="none" points="-4,4 -4,-94.5 671,-94.5 671,4 -4,4"/>
<!-- Node1 -->
<g id="node1" class="node"><title>Node1</title>
<polygon fill="#bfbfbf" stroke="black" points="0,-49 0,-90 210,-90 210,-49 0,-49"/>
<text text-anchor="start" x="8" y="-78" font-family="Helvetica,sans-Serif" font-size="10.00">SuiteCRMAddIn.BusinessLogic.</text>
<text text-anchor="start" x="8" y="-67" font-family="Helvetica,sans-Serif" font-size="10.00">AppointmentSyncing.EnsureSynchronisation</text>
<text text-anchor="middle" x="105" y="-56" font-family="Helvetica,sans-Serif" font-size="10.00">PropertiesForOutlookItem</text>
</g>
<!-- Node2 -->
<g id="node2" class="node"><title>Node2</title>
<g id="a_node2"><a xlink:href="class_suite_c_r_m_add_in_1_1_business_logic_1_1_appointment_syncing.html#a778c161dea3f5934089e5866b59f9dad" target="_top" xlink:title="Ensure that this Outlook item has a property of this name with this value. ">
<polygon fill="white" stroke="black" points="246,-49 246,-90 456,-90 456,-49 246,-49"/>
<text text-anchor="start" x="254" y="-78" font-family="Helvetica,sans-Serif" font-size="10.00">SuiteCRMAddIn.BusinessLogic.</text>
<text text-anchor="start" x="254" y="-67" font-family="Helvetica,sans-Serif" font-size="10.00">AppointmentSyncing.EnsureSynchronisation</text>
<text text-anchor="middle" x="351" y="-56" font-family="Helvetica,sans-Serif" font-size="10.00">PropertyForOutlookItem</text>
</a>
</g>
</g>
<!-- Node1&#45;&gt;Node2 -->
<g id="edge1" class="edge"><title>Node1&#45;&gt;Node2</title>
<path fill="none" stroke="midnightblue" d="M220.453,-62.7615C228.899,-62.7357 237.394,-62.7533 245.774,-62.8141"/>
<polygon fill="midnightblue" stroke="midnightblue" points="220.168,-59.2628 210.186,-62.8144 220.204,-66.2627 220.168,-59.2628"/>
</g>
<!-- Node3 -->
<g id="node3" class="node"><title>Node3</title>
<g id="a_node3"><a xlink:href="class_suite_c_r_m_add_in_1_1_business_logic_1_1_appointment_syncing.html#af477f9f681874a701880737a2383b5fc" target="_top" xlink:title="Synchronise items in the specified folder with the specified SuiteCRM module. ">
<polygon fill="white" stroke="black" points="271.5,-0.5 271.5,-30.5 430.5,-30.5 430.5,-0.5 271.5,-0.5"/>
<text text-anchor="start" x="279.5" y="-18.5" font-family="Helvetica,sans-Serif" font-size="10.00">SuiteCRMAddIn.BusinessLogic.</text>
<text text-anchor="middle" x="351" y="-7.5" font-family="Helvetica,sans-Serif" font-size="10.00">AppointmentSyncing.SyncFolder</text>
</a>
</g>
</g>
<!-- Node1&#45;&gt;Node3 -->
<g id="edge3" class="edge"><title>Node1&#45;&gt;Node3</title>
<path fill="none" stroke="midnightblue" d="M208.725,-46.7657C233.46,-41.2915 259.28,-35.5773 281.978,-30.5541"/>
<polygon fill="midnightblue" stroke="midnightblue" points="207.949,-43.3526 198.942,-48.9309 209.462,-50.1873 207.949,-43.3526"/>
</g>
<!-- Node2&#45;&gt;Node1 -->
<g id="edge2" class="edge"><title>Node2&#45;&gt;Node1</title>
<path fill="none" stroke="midnightblue" d="M235.506,-76.2386C227.06,-76.2642 218.566,-76.2466 210.186,-76.1856"/>
<polygon fill="midnightblue" stroke="midnightblue" points="235.792,-79.7373 245.774,-76.1859 235.756,-72.7374 235.792,-79.7373"/>
</g>
<!-- Node4 -->
<g id="node4" class="node"><title>Node4</title>
<g id="a_node4"><a xlink:href="class_suite_c_r_m_add_in_1_1_business_logic_1_1_appointment_syncing.html#a7cee33973de0521341615a899e970cba" target="_top" xlink:title="Action method of the thread. ">
<polygon fill="white" stroke="black" points="492,-0.5 492,-30.5 667,-30.5 667,-0.5 492,-0.5"/>
<text text-anchor="start" x="500" y="-18.5" font-family="Helvetica,sans-Serif" font-size="10.00">SuiteCRMAddIn.BusinessLogic.</text>
<text text-anchor="middle" x="579.5" y="-7.5" font-family="Helvetica,sans-Serif" font-size="10.00">AppointmentSyncing.SynchroniseAll</text>
</a>
</g>
</g>
<!-- Node3&#45;&gt;Node4 -->
<g id="edge4" class="edge"><title>Node3&#45;&gt;Node4</title>
<path fill="none" stroke="midnightblue" d="M440.919,-15.5C457.698,-15.5 475.224,-15.5 491.93,-15.5"/>
<polygon fill="midnightblue" stroke="midnightblue" points="440.583,-12.0001 430.583,-15.5 440.583,-19.0001 440.583,-12.0001"/>
</g>
</g>
</svg>
