<?xml version="1.0" encoding="UTF-8" standalone="no"?>
<!DOCTYPE svg PUBLIC "-//W3C//DTD SVG 1.1//EN"
 "http://www.w3.org/Graphics/SVG/1.1/DTD/svg11.dtd">
<!-- Generated by graphviz version 2.38.0 (20140413.2041)
 -->
<!-- Title: SuiteCRMAddIn.BusinessLogic.AppointmentSyncing Pages: 1 -->
<svg width="358pt" height="117pt"
 viewBox="0.00 0.00 358.00 117.00" xmlns="http://www.w3.org/2000/svg" xmlns:xlink="http://www.w3.org/1999/xlink">
<g id="graph0" class="graph" transform="scale(1 1) rotate(0) translate(4 113)">
<title>SuiteCRMAddIn.BusinessLogic.AppointmentSyncing</title>
<polygon fill="white" stroke="none" points="-4,4 -4,-113 354,-113 354,4 -4,4"/>
<!-- Node1 -->
<g id="node1" class="node"><title>Node1</title>
<polygon fill="#bfbfbf" stroke="black" points="100,-0.5 100,-30.5 258,-30.5 258,-0.5 100,-0.5"/>
<text text-anchor="start" x="108" y="-18.5" font-family="Helvetica,sans-Serif" font-size="10.00">SuiteCRMAddIn.BusinessLogic.</text>
<text text-anchor="middle" x="179" y="-7.5" font-family="Helvetica,sans-Serif" font-size="10.00">AppointmentSyncing</text>
</g>
<!-- Node2 -->
<g id="node2" class="node"><title>Node2</title>
<g id="a_node2"><a xlink:href="class_suite_c_r_m_add_in_1_1_business_logic_1_1_synchroniser.html" target="_top" xlink:title="Synchroniser\&lt; Outlook.Appointment\lItem \&gt;">
<polygon fill="white" stroke="black" points="0,-78.5 0,-108.5 174,-108.5 174,-78.5 0,-78.5"/>
<text text-anchor="start" x="8" y="-96.5" font-family="Helvetica,sans-Serif" font-size="10.00">Synchroniser&lt; Outlook.Appointment</text>
<text text-anchor="middle" x="87" y="-85.5" font-family="Helvetica,sans-Serif" font-size="10.00">Item &gt;</text>
</a>
</g>
</g>
<!-- Node2&#45;&gt;Node1 -->
<g id="edge1" class="edge"><title>Node2&#45;&gt;Node1</title>
<path fill="none" stroke="midnightblue" d="M112.114,-71.7533C127.875,-58.7337 147.788,-42.2835 161.773,-30.7309"/>
<polygon fill="midnightblue" stroke="midnightblue" points="109.785,-69.1378 104.304,-78.205 114.243,-74.5345 109.785,-69.1378"/>
</g>
<!-- Node3 -->
<g id="node3" class="node"><title>Node3</title>
<g id="a_node3"><a xlink:href="class_suite_c_r_m_add_in_1_1_business_logic_1_1_sync_direction.html" target="_top" xlink:title="A direction in which things may be synchronised. Directions are named with respect to CRM...">
<polygon fill="white" stroke="black" points="192,-78.5 192,-108.5 350,-108.5 350,-78.5 192,-78.5"/>
<text text-anchor="start" x="200" y="-96.5" font-family="Helvetica,sans-Serif" font-size="10.00">SuiteCRMAddIn.BusinessLogic.</text>
<text text-anchor="middle" x="271" y="-85.5" font-family="Helvetica,sans-Serif" font-size="10.00">SyncDirection</text>
</a>
</g>
</g>
<!-- Node3&#45;&gt;Node1 -->
<g id="edge2" class="edge"><title>Node3&#45;&gt;Node1</title>
<path fill="none" stroke="#9a32cd" stroke-dasharray="5,2" d="M245.886,-71.7533C230.125,-58.7337 210.212,-42.2835 196.227,-30.7309"/>
<polygon fill="#9a32cd" stroke="#9a32cd" points="243.757,-74.5345 253.696,-78.205 248.215,-69.1378 243.757,-74.5345"/>
<text text-anchor="middle" x="252.5" y="-52" font-family="Helvetica,sans-Serif" font-size="10.00"> Direction</text>
</g>
</g>
</svg>
