<?xml version="1.0" encoding="UTF-8" standalone="no"?>
<!DOCTYPE svg PUBLIC "-//W3C//DTD SVG 1.1//EN"
 "http://www.w3.org/Graphics/SVG/1.1/DTD/svg11.dtd">
<!-- Generated by graphviz version 2.38.0 (20140413.2041)
 -->
<!-- Title: SuiteCRMClient.Email.ArchiveResult.Success Pages: 1 -->
<svg width="366pt" height="148pt"
 viewBox="0.00 0.00 366.00 147.50" xmlns="http://www.w3.org/2000/svg" xmlns:xlink="http://www.w3.org/1999/xlink">
<g id="graph0" class="graph" transform="scale(1 1) rotate(0) translate(4 143.5)">
<title>SuiteCRMClient.Email.ArchiveResult.Success</title>
<polygon fill="white" stroke="none" points="-4,4 -4,-143.5 362,-143.5 362,4 -4,4"/>
<!-- Node1 -->
<g id="node1" class="node"><title>Node1</title>
<polygon fill="#bfbfbf" stroke="black" points="0,-49.5 0,-79.5 152,-79.5 152,-49.5 0,-49.5"/>
<text text-anchor="start" x="8" y="-67.5" font-family="Helvetica,sans-Serif" font-size="10.00">SuiteCRMClient.Email.Archive</text>
<text text-anchor="middle" x="76" y="-56.5" font-family="Helvetica,sans-Serif" font-size="10.00">Result.Success</text>
</g>
<!-- Node2 -->
<g id="node2" class="node"><title>Node2</title>
<g id="a_node2"><a xlink:href="class_suite_c_r_m_add_in_1_1_business_logic_1_1_email_archiving.html#a0dcfbb2286b3d50c3ea8863705b19501" target="_top" xlink:title="SuiteCRMAddIn.BusinessLogic.\lEmailArchiving.ArchiveEmailWith\lEntityRelationships">
<polygon fill="white" stroke="black" points="191.5,-98 191.5,-139 354.5,-139 354.5,-98 191.5,-98"/>
<text text-anchor="start" x="199.5" y="-127" font-family="Helvetica,sans-Serif" font-size="10.00">SuiteCRMAddIn.BusinessLogic.</text>
<text text-anchor="start" x="199.5" y="-116" font-family="Helvetica,sans-Serif" font-size="10.00">EmailArchiving.ArchiveEmailWith</text>
<text text-anchor="middle" x="273" y="-105" font-family="Helvetica,sans-Serif" font-size="10.00">EntityRelationships</text>
</a>
</g>
</g>
<!-- Node1&#45;&gt;Node2 -->
<g id="edge1" class="edge"><title>Node1&#45;&gt;Node2</title>
<path fill="none" stroke="midnightblue" d="M141.203,-82.2793C159.353,-87.3056 179.253,-92.8163 197.933,-97.9893"/>
<polygon fill="midnightblue" stroke="midnightblue" points="141.89,-78.8378 131.318,-79.542 140.022,-85.5839 141.89,-78.8378"/>
</g>
<!-- Node3 -->
<g id="node3" class="node"><title>Node3</title>
<g id="a_node3"><a xlink:href="class_suite_c_r_m_add_in_1_1_extensions_1_1_mail_item_extensions.html#aa5efb0b8cc2e392ab5bbe1f0bdf2d11a" target="_top" xlink:title="Archive this email item to CRM. ">
<polygon fill="white" stroke="black" points="201.5,-49.5 201.5,-79.5 344.5,-79.5 344.5,-49.5 201.5,-49.5"/>
<text text-anchor="start" x="209.5" y="-67.5" font-family="Helvetica,sans-Serif" font-size="10.00">SuiteCRMAddIn.Extensions.</text>
<text text-anchor="middle" x="273" y="-56.5" font-family="Helvetica,sans-Serif" font-size="10.00">MailItemExtensions.Archive</text>
</a>
</g>
</g>
<!-- Node1&#45;&gt;Node3 -->
<g id="edge2" class="edge"><title>Node1&#45;&gt;Node3</title>
<path fill="none" stroke="midnightblue" d="M162.463,-64.5C175.47,-64.5 188.766,-64.5 201.407,-64.5"/>
<polygon fill="midnightblue" stroke="midnightblue" points="162.113,-61.0001 152.113,-64.5 162.113,-68.0001 162.113,-61.0001"/>
</g>
<!-- Node4 -->
<g id="node4" class="node"><title>Node4</title>
<g id="a_node4"><a xlink:href="class_suite_c_r_m_client_1_1_email_1_1_archiveable_email.html#a15655535c26c46f9526424df0365218b" target="_top" xlink:title="Save my email to CRM, and link it to these contact ids. ">
<polygon fill="white" stroke="black" points="188,-0.5 188,-30.5 358,-30.5 358,-0.5 188,-0.5"/>
<text text-anchor="start" x="196" y="-18.5" font-family="Helvetica,sans-Serif" font-size="10.00">SuiteCRMClient.Email.Archiveable</text>
<text text-anchor="middle" x="273" y="-7.5" font-family="Helvetica,sans-Serif" font-size="10.00">Email.Save</text>
</a>
</g>
</g>
<!-- Node1&#45;&gt;Node4 -->
<g id="edge3" class="edge"><title>Node1&#45;&gt;Node4</title>
<path fill="none" stroke="midnightblue" d="M146.551,-47.0232C168.043,-41.6225 191.515,-35.7245 212.282,-30.5062"/>
<polygon fill="midnightblue" stroke="midnightblue" points="145.677,-43.6338 136.832,-49.4654 147.383,-50.4227 145.677,-43.6338"/>
</g>
</g>
</svg>
