<?xml version="1.0" encoding="UTF-8" standalone="no"?>
<!DOCTYPE svg PUBLIC "-//W3C//DTD SVG 1.1//EN"
 "http://www.w3.org/Graphics/SVG/1.1/DTD/svg11.dtd">
<!-- Generated by graphviz version 2.38.0 (20140413.2041)
 -->
<!-- Title: SuiteCRMAddIn.BusinessLogic.EmailAccountsArchiveSettings.Combine Pages: 1 -->
<svg width="631pt" height="50pt"
 viewBox="0.00 0.00 631.00 50.00" xmlns="http://www.w3.org/2000/svg" xmlns:xlink="http://www.w3.org/1999/xlink">
<g id="graph0" class="graph" transform="scale(1 1) rotate(0) translate(4 46)">
<title>SuiteCRMAddIn.BusinessLogic.EmailAccountsArchiveSettings.Combine</title>
<polygon fill="white" stroke="none" points="-4,4 -4,-46 627,-46 627,4 -4,4"/>
<!-- Node1 -->
<g id="node1" class="node"><title>Node1</title>
<polygon fill="#bfbfbf" stroke="black" points="0,-6 0,-36 194,-36 194,-6 0,-6"/>
<text text-anchor="start" x="8" y="-24" font-family="Helvetica,sans-Serif" font-size="10.00">SuiteCRMAddIn.BusinessLogic.</text>
<text text-anchor="middle" x="97" y="-13" font-family="Helvetica,sans-Serif" font-size="10.00">EmailAccountsArchiveSettings.Combine</text>
</g>
<!-- Node2 -->
<g id="node2" class="node"><title>Node2</title>
<g id="a_node2"><a xlink:href="class_suite_c_r_m_add_in_1_1_business_logic_1_1_email_accounts_archive_settings.html#a1480c984997d01b643c3db7831dec8c0" target="_top" xlink:title="SuiteCRMAddIn.BusinessLogic.\lEmailAccountsArchiveSettings.Email\lAccountsArchiveSettings">
<polygon fill="white" stroke="black" points="230,-0.5 230,-41.5 409,-41.5 409,-0.5 230,-0.5"/>
<text text-anchor="start" x="238" y="-29.5" font-family="Helvetica,sans-Serif" font-size="10.00">SuiteCRMAddIn.BusinessLogic.</text>
<text text-anchor="start" x="238" y="-18.5" font-family="Helvetica,sans-Serif" font-size="10.00">EmailAccountsArchiveSettings.Email</text>
<text text-anchor="middle" x="319.5" y="-7.5" font-family="Helvetica,sans-Serif" font-size="10.00">AccountsArchiveSettings</text>
</a>
</g>
</g>
<!-- Node1&#45;&gt;Node2 -->
<g id="edge1" class="edge"><title>Node1&#45;&gt;Node2</title>
<path fill="none" stroke="midnightblue" d="M194.073,-21C202.489,-21 211.017,-21 219.456,-21"/>
<polygon fill="midnightblue" stroke="midnightblue" points="219.693,-24.5001 229.693,-21 219.693,-17.5001 219.693,-24.5001"/>
</g>
<!-- Node3 -->
<g id="node3" class="node"><title>Node3</title>
<g id="a_node3"><a xlink:href="class_suite_c_r_m_add_in_1_1_business_logic_1_1_email_accounts_archive_settings.html#a325923b7c2f03c27159ea6ff085e7cf7" target="_top" xlink:title="SuiteCRMAddIn.BusinessLogic.\lEmailAccountsArchiveSettings.Clear">
<polygon fill="white" stroke="black" points="445,-6 445,-36 623,-36 623,-6 445,-6"/>
<text text-anchor="start" x="453" y="-24" font-family="Helvetica,sans-Serif" font-size="10.00">SuiteCRMAddIn.BusinessLogic.</text>
<text text-anchor="middle" x="534" y="-13" font-family="Helvetica,sans-Serif" font-size="10.00">EmailAccountsArchiveSettings.Clear</text>
</a>
</g>
</g>
<!-- Node2&#45;&gt;Node3 -->
<g id="edge2" class="edge"><title>Node2&#45;&gt;Node3</title>
<path fill="none" stroke="midnightblue" d="M409.08,-21C417.593,-21 426.261,-21 434.859,-21"/>
<polygon fill="midnightblue" stroke="midnightblue" points="434.905,-24.5001 444.905,-21 434.905,-17.5001 434.905,-24.5001"/>
</g>
</g>
</svg>
