<?xml version="1.0" encoding="UTF-8" standalone="no"?>
<!DOCTYPE svg PUBLIC "-//W3C//DTD SVG 1.1//EN"
 "http://www.w3.org/Graphics/SVG/1.1/DTD/svg11.dtd">
<!-- Generated by graphviz version 2.38.0 (20140413.2041)
 -->
<!-- Title: SuiteCRMClient.UserSession.LogOut Pages: 1 -->
<svg width="552pt" height="88pt"
 viewBox="0.00 0.00 552.00 88.00" xmlns="http://www.w3.org/2000/svg" xmlns:xlink="http://www.w3.org/1999/xlink">
<g id="graph0" class="graph" transform="scale(1 1) rotate(0) translate(4 84)">
<title>SuiteCRMClient.UserSession.LogOut</title>
<polygon fill="white" stroke="none" points="-4,4 -4,-84 548,-84 548,4 -4,4"/>
<!-- Node1 -->
<g id="node1" class="node"><title>Node1</title>
<polygon fill="#bfbfbf" stroke="black" points="0,-24.5 0,-54.5 150,-54.5 150,-24.5 0,-24.5"/>
<text text-anchor="start" x="8" y="-42.5" font-family="Helvetica,sans-Serif" font-size="10.00">SuiteCRMClient.UserSession.</text>
<text text-anchor="middle" x="75" y="-31.5" font-family="Helvetica,sans-Serif" font-size="10.00">LogOut</text>
</g>
<!-- Node2 -->
<g id="node2" class="node"><title>Node2</title>
<g id="a_node2"><a xlink:href="class_suite_c_r_m_add_in_1_1_this_add_in.html#a3d3136423943e3e4f71d3ea2b1062147" target="_top" xlink:title="SuiteCRMAddIn.ThisAddIn.\lManualArchive">
<polygon fill="white" stroke="black" points="186,-24.5 186,-54.5 324,-54.5 324,-24.5 186,-24.5"/>
<text text-anchor="start" x="194" y="-42.5" font-family="Helvetica,sans-Serif" font-size="10.00">SuiteCRMAddIn.ThisAddIn.</text>
<text text-anchor="middle" x="255" y="-31.5" font-family="Helvetica,sans-Serif" font-size="10.00">ManualArchive</text>
</a>
</g>
</g>
<!-- Node1&#45;&gt;Node2 -->
<g id="edge1" class="edge"><title>Node1&#45;&gt;Node2</title>
<path fill="none" stroke="midnightblue" d="M160.245,-39.5C168.843,-39.5 177.5,-39.5 185.894,-39.5"/>
<polygon fill="midnightblue" stroke="midnightblue" points="160.199,-36.0001 150.199,-39.5 160.199,-43.0001 160.199,-36.0001"/>
</g>
<!-- Node3 -->
<g id="node3" class="node"><title>Node3</title>
<g id="a_node3"><a xlink:href="class_suite_c_r_m_add_in_1_1_suite_c_r_m_ribbon.html#af45e3d97607869f229558ab49c84379b" target="_top" xlink:title="SuiteCRMAddIn.SuiteCRMRibbon.btn\lArchive_Action">
<polygon fill="white" stroke="black" points="360,-49.5 360,-79.5 544,-79.5 544,-49.5 360,-49.5"/>
<text text-anchor="start" x="368" y="-67.5" font-family="Helvetica,sans-Serif" font-size="10.00">SuiteCRMAddIn.SuiteCRMRibbon.btn</text>
<text text-anchor="middle" x="452" y="-56.5" font-family="Helvetica,sans-Serif" font-size="10.00">Archive_Action</text>
</a>
</g>
</g>
<!-- Node2&#45;&gt;Node3 -->
<g id="edge2" class="edge"><title>Node2&#45;&gt;Node3</title>
<path fill="none" stroke="midnightblue" d="M334.335,-49.543C342.738,-50.6203 351.339,-51.7229 359.874,-52.8172"/>
<polygon fill="midnightblue" stroke="midnightblue" points="334.565,-46.0439 324.202,-48.2438 333.675,-52.9871 334.565,-46.0439"/>
</g>
<!-- Node4 -->
<g id="node4" class="node"><title>Node4</title>
<g id="a_node4"><a xlink:href="class_suite_c_r_m_add_in_1_1_this_add_in.html#a4672086c412924ca3bf5c6aa52466c89" target="_top" xlink:title="SuiteCRMAddIn.ThisAddIn.\lStartSynchronisationProcesses">
<polygon fill="white" stroke="black" points="375,-0.5 375,-30.5 529,-30.5 529,-0.5 375,-0.5"/>
<text text-anchor="start" x="383" y="-18.5" font-family="Helvetica,sans-Serif" font-size="10.00">SuiteCRMAddIn.ThisAddIn.</text>
<text text-anchor="middle" x="452" y="-7.5" font-family="Helvetica,sans-Serif" font-size="10.00">StartSynchronisationProcesses</text>
</a>
</g>
</g>
<!-- Node2&#45;&gt;Node4 -->
<g id="edge3" class="edge"><title>Node2&#45;&gt;Node4</title>
<path fill="none" stroke="midnightblue" d="M334.306,-29.8623C347.671,-28.2174 361.537,-26.5109 374.844,-24.873"/>
<polygon fill="midnightblue" stroke="midnightblue" points="333.699,-26.4105 324.202,-31.106 334.554,-33.3581 333.699,-26.4105"/>
</g>
</g>
</svg>
