<?xml version="1.0" encoding="UTF-8" standalone="no"?>
<!DOCTYPE svg PUBLIC "-//W3C//DTD SVG 1.1//EN"
 "http://www.w3.org/Graphics/SVG/1.1/DTD/svg11.dtd">
<!-- Generated by graphviz version 2.38.0 (20140413.2041)
 -->
<!-- Title: SuiteCRMAddIn.BusinessLogic.ContactSyncing.AddOrUpdateItemFromCrmToOutlook Pages: 1 -->
<svg width="688pt" height="164pt"
 viewBox="0.00 0.00 688.00 164.00" xmlns="http://www.w3.org/2000/svg" xmlns:xlink="http://www.w3.org/1999/xlink">
<g id="graph0" class="graph" transform="scale(1 1) rotate(0) translate(4 160)">
<title>SuiteCRMAddIn.BusinessLogic.ContactSyncing.AddOrUpdateItemFromCrmToOutlook</title>
<polygon fill="white" stroke="none" points="-4,4 -4,-160 684,-160 684,4 -4,4"/>
<!-- Node1 -->
<g id="node1" class="node"><title>Node1</title>
<polygon fill="#bfbfbf" stroke="black" points="0,-54.5 0,-95.5 191,-95.5 191,-54.5 0,-54.5"/>
<text text-anchor="start" x="8" y="-83.5" font-family="Helvetica,sans-Serif" font-size="10.00">SuiteCRMAddIn.BusinessLogic.</text>
<text text-anchor="start" x="8" y="-72.5" font-family="Helvetica,sans-Serif" font-size="10.00">ContactSyncing.AddOrUpdateItemFrom</text>
<text text-anchor="middle" x="95.5" y="-61.5" font-family="Helvetica,sans-Serif" font-size="10.00">CrmToOutlook</text>
</g>
<!-- Node2 -->
<g id="node2" class="node"><title>Node2</title>
<g id="a_node2"><a xlink:href="class_suite_c_r_m_add_in_1_1_business_logic_1_1_synchroniser.html#a22031f77a31ab4d27818815ebc85786d" target="_top" xlink:title="Get the existing sync state representing this item, if it exists, else null. ">
<polygon fill="white" stroke="black" points="227,-114.5 227,-155.5 400,-155.5 400,-114.5 227,-114.5"/>
<text text-anchor="start" x="235" y="-143.5" font-family="Helvetica,sans-Serif" font-size="10.00">SuiteCRMAddIn.BusinessLogic.</text>
<text text-anchor="start" x="235" y="-132.5" font-family="Helvetica,sans-Serif" font-size="10.00">Synchroniser&lt; Outlook.ContactItem</text>
<text text-anchor="middle" x="313.5" y="-121.5" font-family="Helvetica,sans-Serif" font-size="10.00"> &gt;::GetExistingSyncState</text>
</a>
</g>
</g>
<!-- Node1&#45;&gt;Node2 -->
<g id="edge1" class="edge"><title>Node1&#45;&gt;Node2</title>
<path fill="none" stroke="midnightblue" d="M170.533,-95.5647C189.338,-100.788 209.673,-106.437 228.916,-111.782"/>
<polygon fill="midnightblue" stroke="midnightblue" points="227.992,-115.158 238.564,-114.462 229.866,-108.413 227.992,-115.158"/>
</g>
<!-- Node3 -->
<g id="node3" class="node"><title>Node3</title>
<g id="a_node3"><a xlink:href="class_suite_c_r_m_add_in_1_1_business_logic_1_1_synchroniser.html#a9e06c6056beacdb87f5d807f4739b9ba" target="_top" xlink:title="Find any existing Outlook items which appear to be identical to this CRM item. ">
<polygon fill="white" stroke="black" points="227,-54.5 227,-95.5 400,-95.5 400,-54.5 227,-54.5"/>
<text text-anchor="start" x="235" y="-83.5" font-family="Helvetica,sans-Serif" font-size="10.00">SuiteCRMAddIn.BusinessLogic.</text>
<text text-anchor="start" x="235" y="-72.5" font-family="Helvetica,sans-Serif" font-size="10.00">Synchroniser&lt; Outlook.ContactItem</text>
<text text-anchor="middle" x="313.5" y="-61.5" font-family="Helvetica,sans-Serif" font-size="10.00"> &gt;::FindMatches</text>
</a>
</g>
</g>
<!-- Node1&#45;&gt;Node3 -->
<g id="edge2" class="edge"><title>Node1&#45;&gt;Node3</title>
<path fill="none" stroke="midnightblue" d="M191.241,-75C199.622,-75 208.111,-75 216.502,-75"/>
<polygon fill="midnightblue" stroke="midnightblue" points="216.675,-78.5001 226.675,-75 216.675,-71.5001 216.675,-78.5001"/>
</g>
<!-- Node4 -->
<g id="node4" class="node"><title>Node4</title>
<g id="a_node4"><a xlink:href="class_suite_c_r_m_add_in_1_1_business_logic_1_1_contact_syncing.html#a9ec0ba9a0d4a426fa90b6856f2c1b0e9" target="_top" xlink:title="Log a message regarding this Outlook item, with detail of the item. ">
<polygon fill="white" stroke="black" points="234.5,-6 234.5,-36 392.5,-36 392.5,-6 234.5,-6"/>
<text text-anchor="start" x="242.5" y="-24" font-family="Helvetica,sans-Serif" font-size="10.00">SuiteCRMAddIn.BusinessLogic.</text>
<text text-anchor="middle" x="313.5" y="-13" font-family="Helvetica,sans-Serif" font-size="10.00">ContactSyncing.LogItemAction</text>
</a>
</g>
</g>
<!-- Node1&#45;&gt;Node4 -->
<g id="edge3" class="edge"><title>Node1&#45;&gt;Node4</title>
<path fill="none" stroke="midnightblue" d="M178.777,-54.4309C199.78,-49.18 222.162,-43.5846 242.486,-38.5034"/>
<polygon fill="midnightblue" stroke="midnightblue" points="243.431,-41.875 252.284,-36.0541 241.733,-35.084 243.431,-41.875"/>
</g>
<!-- Node5 -->
<g id="node5" class="node"><title>Node5</title>
<g id="a_node5"><a xlink:href="class_suite_c_r_m_add_in_1_1_business_logic_1_1_synchroniser.html#a8c1e906f4a8c369c69e5cdbb73c1cfb2" target="_top" xlink:title="Every Outlook item which is to be synchronised must have a property SOModifiedDate, a property SType, and a property SEntryId, referencing respectively the last time it was modified, the type of CRM item it is to be synchronised with, and the id of the CRM item it is to be synchronised with. ">
<polygon fill="white" stroke="black" points="436,-0.5 436,-41.5 680,-41.5 680,-0.5 436,-0.5"/>
<text text-anchor="start" x="444" y="-29.5" font-family="Helvetica,sans-Serif" font-size="10.00">SuiteCRMAddIn.BusinessLogic.</text>
<text text-anchor="start" x="444" y="-18.5" font-family="Helvetica,sans-Serif" font-size="10.00">Synchroniser&lt; Outlook.ContactItem</text>
<text text-anchor="middle" x="558" y="-7.5" font-family="Helvetica,sans-Serif" font-size="10.00"> &gt;::EnsureSynchronisationPropertiesForOutlookItem</text>
</a>
</g>
</g>
<!-- Node4&#45;&gt;Node5 -->
<g id="edge4" class="edge"><title>Node4&#45;&gt;Node5</title>
<path fill="none" stroke="midnightblue" d="M392.563,-21C403.164,-21 414.271,-21 425.497,-21"/>
<polygon fill="midnightblue" stroke="midnightblue" points="425.828,-24.5001 435.828,-21 425.828,-17.5001 425.828,-24.5001"/>
</g>
</g>
</svg>
