<?xml version="1.0" encoding="UTF-8" standalone="no"?>
<!DOCTYPE svg PUBLIC "-//W3C//DTD SVG 1.1//EN"
 "http://www.w3.org/Graphics/SVG/1.1/DTD/svg11.dtd">
<!-- Generated by graphviz version 2.38.0 (20140413.2041)
 -->
<!-- Title: SuiteCRMAddIn.Log4NetLogger Pages: 1 -->
<svg width="165pt" height="207pt"
 viewBox="0.00 0.00 165.00 207.00" xmlns="http://www.w3.org/2000/svg" xmlns:xlink="http://www.w3.org/1999/xlink">
<g id="graph0" class="graph" transform="scale(1 1) rotate(0) translate(4 203)">
<title>SuiteCRMAddIn.Log4NetLogger</title>
<polygon fill="white" stroke="none" points="-4,4 -4,-203 161,-203 161,4 -4,4"/>
<!-- Node1 -->
<g id="node1" class="node"><title>Node1</title>
<polygon fill="#bfbfbf" stroke="black" points="0,-0.5 0,-19.5 157,-19.5 157,-0.5 0,-0.5"/>
<text text-anchor="middle" x="78.5" y="-7.5" font-family="Helvetica,sans-Serif" font-size="10.00">SuiteCRMAddIn.Log4NetLogger</text>
</g>
<!-- Node2 -->
<g id="node2" class="node"><title>Node2</title>
<g id="a_node2"><a xlink:href="class_suite_c_r_m_client_1_1_logging_1_1_abstract_logger.html" target="_top" xlink:title="Provides a common implementation of ShowAndAddEntry for implementations of ILogger. ">
<polygon fill="white" stroke="black" points="14.5,-56.5 14.5,-86.5 142.5,-86.5 142.5,-56.5 14.5,-56.5"/>
<text text-anchor="start" x="22.5" y="-74.5" font-family="Helvetica,sans-Serif" font-size="10.00">SuiteCRMClient::Logging</text>
<text text-anchor="middle" x="78.5" y="-63.5" font-family="Helvetica,sans-Serif" font-size="10.00">::AbstractLogger</text>
</a>
</g>
</g>
<!-- Node2&#45;&gt;Node1 -->
<g id="edge1" class="edge"><title>Node2&#45;&gt;Node1</title>
<path fill="none" stroke="midnightblue" d="M78.5,-46.2892C78.5,-36.857 78.5,-26.6548 78.5,-19.6578"/>
<polygon fill="midnightblue" stroke="midnightblue" points="75.0001,-46.3993 78.5,-56.3993 82.0001,-46.3994 75.0001,-46.3993"/>
</g>
<!-- Node3 -->
<g id="node3" class="node"><title>Node3</title>
<g id="a_node3"><a xlink:href="interface_suite_c_r_m_client_1_1_logging_1_1_i_logger.html" target="_top" xlink:title="Interface implemented by all logging classes ">
<polygon fill="white" stroke="black" points="54,-123.5 54,-142.5 103,-142.5 103,-123.5 54,-123.5"/>
<text text-anchor="middle" x="78.5" y="-130.5" font-family="Helvetica,sans-Serif" font-size="10.00">ILogger</text>
</a>
</g>
</g>
<!-- Node3&#45;&gt;Node2 -->
<g id="edge2" class="edge"><title>Node3&#45;&gt;Node2</title>
<path fill="none" stroke="midnightblue" d="M78.5,-113.235C78.5,-104.586 78.5,-94.4969 78.5,-86.523"/>
<polygon fill="midnightblue" stroke="midnightblue" points="75.0001,-113.475 78.5,-123.475 82.0001,-113.475 75.0001,-113.475"/>
</g>
<!-- Node4 -->
<g id="node4" class="node"><title>Node4</title>
<polygon fill="white" stroke="#bfbfbf" points="44.5,-179.5 44.5,-198.5 112.5,-198.5 112.5,-179.5 44.5,-179.5"/>
<text text-anchor="middle" x="78.5" y="-186.5" font-family="Helvetica,sans-Serif" font-size="10.00">IDisposable</text>
</g>
<!-- Node4&#45;&gt;Node3 -->
<g id="edge3" class="edge"><title>Node4&#45;&gt;Node3</title>
<path fill="none" stroke="midnightblue" d="M78.5,-168.805C78.5,-159.91 78.5,-149.78 78.5,-142.751"/>
<polygon fill="midnightblue" stroke="midnightblue" points="75.0001,-169.083 78.5,-179.083 82.0001,-169.083 75.0001,-169.083"/>
</g>
</g>
</svg>
