<?xml version="1.0" encoding="UTF-8" standalone="no"?>
<!DOCTYPE svg PUBLIC "-//W3C//DTD SVG 1.1//EN"
 "http://www.w3.org/Graphics/SVG/1.1/DTD/svg11.dtd">
<!-- Generated by graphviz version 2.38.0 (20140413.2041)
 -->
<!-- Title: SuiteCRMAddIn.Dialogs.CustomModulesDialog.PopulateCustomModulesListView Pages: 1 -->
<svg width="421pt" height="50pt"
 viewBox="0.00 0.00 421.00 50.00" xmlns="http://www.w3.org/2000/svg" xmlns:xlink="http://www.w3.org/1999/xlink">
<g id="graph0" class="graph" transform="scale(1 1) rotate(0) translate(4 46)">
<title>SuiteCRMAddIn.Dialogs.CustomModulesDialog.PopulateCustomModulesListView</title>
<polygon fill="white" stroke="none" points="-4,4 -4,-46 417,-46 417,4 -4,4"/>
<!-- Node1 -->
<g id="node1" class="node"><title>Node1</title>
<polygon fill="#bfbfbf" stroke="black" points="0,-0.5 0,-41.5 194,-41.5 194,-0.5 0,-0.5"/>
<text text-anchor="start" x="8" y="-29.5" font-family="Helvetica,sans-Serif" font-size="10.00">SuiteCRMAddIn.Dialogs.Custom</text>
<text text-anchor="start" x="8" y="-18.5" font-family="Helvetica,sans-Serif" font-size="10.00">ModulesDialog.PopulateCustomModules</text>
<text text-anchor="middle" x="97" y="-7.5" font-family="Helvetica,sans-Serif" font-size="10.00">ListView</text>
</g>
<!-- Node2 -->
<g id="node2" class="node"><title>Node2</title>
<g id="a_node2"><a xlink:href="class_suite_c_r_m_add_in_1_1_dialogs_1_1_custom_modules_dialog.html#a0690a5a0bafdb53508b3bb0e9743b422" target="_top" xlink:title="SuiteCRMAddIn.Dialogs.Custom\lModulesDialog.CustomModulesDialog">
<polygon fill="white" stroke="black" points="230,-6 230,-36 413,-36 413,-6 230,-6"/>
<text text-anchor="start" x="238" y="-24" font-family="Helvetica,sans-Serif" font-size="10.00">SuiteCRMAddIn.Dialogs.Custom</text>
<text text-anchor="middle" x="321.5" y="-13" font-family="Helvetica,sans-Serif" font-size="10.00">ModulesDialog.CustomModulesDialog</text>
</a>
</g>
</g>
<!-- Node1&#45;&gt;Node2 -->
<g id="edge1" class="edge"><title>Node1&#45;&gt;Node2</title>
<path fill="none" stroke="midnightblue" d="M204.526,-21C212.937,-21 221.384,-21 229.675,-21"/>
<polygon fill="midnightblue" stroke="midnightblue" points="204.298,-17.5001 194.298,-21 204.298,-24.5001 204.298,-17.5001"/>
</g>
</g>
</svg>
