<?xml version="1.0" encoding="UTF-8" standalone="no"?>
<!DOCTYPE svg PUBLIC "-//W3C//DTD SVG 1.1//EN"
 "http://www.w3.org/Graphics/SVG/1.1/DTD/svg11.dtd">
<!-- Generated by graphviz version 2.38.0 (20140413.2041)
 -->
<!-- Title: SuiteCRMAddIn.Dialogs.frmAddressBook.frmAddressBook Pages: 1 -->
<svg width="593pt" height="186pt"
 viewBox="0.00 0.00 593.00 186.00" xmlns="http://www.w3.org/2000/svg" xmlns:xlink="http://www.w3.org/1999/xlink">
<g id="graph0" class="graph" transform="scale(1 1) rotate(0) translate(4 182)">
<title>SuiteCRMAddIn.Dialogs.frmAddressBook.frmAddressBook</title>
<polygon fill="white" stroke="none" points="-4,4 -4,-182 589,-182 589,4 -4,4"/>
<!-- Node1 -->
<g id="node1" class="node"><title>Node1</title>
<polygon fill="#bfbfbf" stroke="black" points="0,-73.5 0,-103.5 151,-103.5 151,-73.5 0,-73.5"/>
<text text-anchor="start" x="8" y="-91.5" font-family="Helvetica,sans-Serif" font-size="10.00">SuiteCRMAddIn.Dialogs.frm</text>
<text text-anchor="middle" x="75.5" y="-80.5" font-family="Helvetica,sans-Serif" font-size="10.00">AddressBook.frmAddressBook</text>
</g>
<!-- Node2 -->
<g id="node2" class="node"><title>Node2</title>
<g id="a_node2"><a xlink:href="class_suite_c_r_m_add_in_1_1_robustness.html#a1c4263fa0ac98393772c3dec7d97a0af" target="_top" xlink:title="SuiteCRMAddIn.Robustness.\lDoOrLogError">
<polygon fill="white" stroke="black" points="204.5,-147.5 204.5,-177.5 350.5,-177.5 350.5,-147.5 204.5,-147.5"/>
<text text-anchor="start" x="212.5" y="-165.5" font-family="Helvetica,sans-Serif" font-size="10.00">SuiteCRMAddIn.Robustness.</text>
<text text-anchor="middle" x="277.5" y="-154.5" font-family="Helvetica,sans-Serif" font-size="10.00">DoOrLogError</text>
</a>
</g>
</g>
<!-- Node1&#45;&gt;Node2 -->
<g id="edge1" class="edge"><title>Node1&#45;&gt;Node2</title>
<path fill="none" stroke="midnightblue" d="M106.438,-103.652C128.362,-114.35 159.044,-128.502 187,-138.5 192.865,-140.597 199.003,-142.61 205.198,-144.514"/>
<polygon fill="midnightblue" stroke="midnightblue" points="204.365,-147.918 214.947,-147.415 206.361,-141.208 204.365,-147.918"/>
</g>
<!-- Node3 -->
<g id="node3" class="node"><title>Node3</title>
<g id="a_node3"><a xlink:href="class_suite_c_r_m_add_in_1_1_this_add_in.html#a241a0e53ef17a70dfa4b991bce8df910" target="_top" xlink:title="SuiteCRMAddIn.ThisAddIn.\lShowSettingsForm">
<polygon fill="white" stroke="black" points="208.5,-98.5 208.5,-128.5 346.5,-128.5 346.5,-98.5 208.5,-98.5"/>
<text text-anchor="start" x="216.5" y="-116.5" font-family="Helvetica,sans-Serif" font-size="10.00">SuiteCRMAddIn.ThisAddIn.</text>
<text text-anchor="middle" x="277.5" y="-105.5" font-family="Helvetica,sans-Serif" font-size="10.00">ShowSettingsForm</text>
</a>
</g>
</g>
<!-- Node1&#45;&gt;Node3 -->
<g id="edge2" class="edge"><title>Node1&#45;&gt;Node3</title>
<path fill="none" stroke="midnightblue" d="M151.257,-97.8446C166.639,-99.7673 182.873,-101.797 198.37,-103.734"/>
<polygon fill="midnightblue" stroke="midnightblue" points="198.074,-107.224 208.431,-104.991 198.942,-100.278 198.074,-107.224"/>
</g>
<!-- Node4 -->
<g id="node4" class="node"><title>Node4</title>
<g id="a_node4"><a xlink:href="class_suite_c_r_m_client_1_1cls_suite_c_r_m_helper.html#a717fcb29df379f859e5bf91cbc1083c8" target="_top" xlink:title="SuiteCRMClient.clsSuiteCRMHelper.\lGetEntryList">
<polygon fill="white" stroke="black" points="187,-49.5 187,-79.5 368,-79.5 368,-49.5 187,-49.5"/>
<text text-anchor="start" x="195" y="-67.5" font-family="Helvetica,sans-Serif" font-size="10.00">SuiteCRMClient.clsSuiteCRMHelper.</text>
<text text-anchor="middle" x="277.5" y="-56.5" font-family="Helvetica,sans-Serif" font-size="10.00">GetEntryList</text>
</a>
</g>
</g>
<!-- Node1&#45;&gt;Node4 -->
<g id="edge3" class="edge"><title>Node1&#45;&gt;Node4</title>
<path fill="none" stroke="midnightblue" d="M151.257,-79.5292C159.63,-78.5244 168.256,-77.4892 176.879,-76.4546"/>
<polygon fill="midnightblue" stroke="midnightblue" points="177.472,-79.9086 186.983,-75.242 176.638,-72.9585 177.472,-79.9086"/>
</g>
<!-- Node6 -->
<g id="node6" class="node"><title>Node6</title>
<g id="a_node6"><a xlink:href="class_suite_c_r_m_client_1_1cls_suite_c_r_m_helper.html#aedb6c3b87ff73bef81eb4cb8d16fe2ae" target="_top" xlink:title="SuiteCRMClient.clsSuiteCRMHelper.\lGetValueByKey">
<polygon fill="white" stroke="black" points="187,-0.5 187,-30.5 368,-30.5 368,-0.5 187,-0.5"/>
<text text-anchor="start" x="195" y="-18.5" font-family="Helvetica,sans-Serif" font-size="10.00">SuiteCRMClient.clsSuiteCRMHelper.</text>
<text text-anchor="middle" x="277.5" y="-7.5" font-family="Helvetica,sans-Serif" font-size="10.00">GetValueByKey</text>
</a>
</g>
</g>
<!-- Node1&#45;&gt;Node6 -->
<g id="edge5" class="edge"><title>Node1&#45;&gt;Node6</title>
<path fill="none" stroke="midnightblue" d="M107.951,-73.461C129.814,-63.3493 159.799,-50.1554 187,-40.5 193.794,-38.0883 200.943,-35.7568 208.117,-33.551"/>
<polygon fill="midnightblue" stroke="midnightblue" points="209.308,-36.848 217.883,-30.6253 207.299,-30.1424 209.308,-36.848"/>
</g>
<!-- Node5 -->
<g id="node5" class="node"><title>Node5</title>
<g id="a_node5"><a xlink:href="class_suite_c_r_m_client_1_1cls_suite_c_r_m_helper.html#a80f04ec3ab185a736b6633c0df69c536" target="_top" xlink:title="SuiteCRMClient.clsSuiteCRMHelper.\lEnsureLoggedIn">
<polygon fill="white" stroke="black" points="404,-49.5 404,-79.5 585,-79.5 585,-49.5 404,-49.5"/>
<text text-anchor="start" x="412" y="-67.5" font-family="Helvetica,sans-Serif" font-size="10.00">SuiteCRMClient.clsSuiteCRMHelper.</text>
<text text-anchor="middle" x="494.5" y="-56.5" font-family="Helvetica,sans-Serif" font-size="10.00">EnsureLoggedIn</text>
</a>
</g>
</g>
<!-- Node4&#45;&gt;Node5 -->
<g id="edge4" class="edge"><title>Node4&#45;&gt;Node5</title>
<path fill="none" stroke="midnightblue" d="M368.123,-64.5C376.478,-64.5 384.982,-64.5 393.424,-64.5"/>
<polygon fill="midnightblue" stroke="midnightblue" points="393.677,-68.0001 403.677,-64.5 393.677,-61.0001 393.677,-68.0001"/>
</g>
</g>
</svg>
