<?xml version="1.0" encoding="UTF-8" standalone="no"?>
<!DOCTYPE svg PUBLIC "-//W3C//DTD SVG 1.1//EN"
 "http://www.w3.org/Graphics/SVG/1.1/DTD/svg11.dtd">
<!-- Generated by graphviz version 2.38.0 (20140413.2041)
 -->
<!-- Title: SuiteCRMAddIn.Daemon.DaemonWorker Pages: 1 -->
<svg width="175pt" height="220pt"
 viewBox="0.00 0.00 175.00 220.00" xmlns="http://www.w3.org/2000/svg" xmlns:xlink="http://www.w3.org/1999/xlink">
<g id="graph0" class="graph" transform="scale(1 1) rotate(0) translate(4 216)">
<title>SuiteCRMAddIn.Daemon.DaemonWorker</title>
<polygon fill="white" stroke="none" points="-4,4 -4,-216 171,-216 171,4 -4,4"/>
<!-- Node1 -->
<g id="node1" class="node"><title>Node1</title>
<polygon fill="#bfbfbf" stroke="black" points="-1.42109e-14,-0.5 -1.42109e-14,-30.5 167,-30.5 167,-0.5 -1.42109e-14,-0.5"/>
<text text-anchor="start" x="8" y="-18.5" font-family="Helvetica,sans-Serif" font-size="10.00">SuiteCRMAddIn.Daemon.Daemon</text>
<text text-anchor="middle" x="83.5" y="-7.5" font-family="Helvetica,sans-Serif" font-size="10.00">Worker</text>
</g>
<!-- Node2 -->
<g id="node2" class="node"><title>Node2</title>
<g id="a_node2"><a xlink:href="class_suite_c_r_m_add_in_1_1_business_logic_1_1_repeating_process.html" target="_top" xlink:title="An agent which does something repeatedly. ">
<polygon fill="white" stroke="black" points="35,-68.5 35,-87.5 132,-87.5 132,-68.5 35,-68.5"/>
<text text-anchor="middle" x="83.5" y="-75.5" font-family="Helvetica,sans-Serif" font-size="10.00">RepeatingProcess</text>
</a>
</g>
</g>
<!-- Node2&#45;&gt;Node1 -->
<g id="edge1" class="edge"><title>Node2&#45;&gt;Node1</title>
<path fill="none" stroke="midnightblue" d="M83.5,-58.2154C83.5,-49.3565 83.5,-38.9577 83.5,-30.7587"/>
<polygon fill="midnightblue" stroke="midnightblue" points="80.0001,-58.3318 83.5,-68.3318 87.0001,-58.3319 80.0001,-58.3318"/>
</g>
<!-- Node3 -->
<g id="node3" class="node"><title>Node3</title>
<g id="a_node3"><a xlink:href="interface_suite_c_r_m_client_1_1_logging_1_1_i_logger.html" target="_top" xlink:title="Interface implemented by all logging classes ">
<polygon fill="white" stroke="black" points="3.5,-135.5 3.5,-154.5 163.5,-154.5 163.5,-135.5 3.5,-135.5"/>
<text text-anchor="middle" x="83.5" y="-142.5" font-family="Helvetica,sans-Serif" font-size="10.00">SuiteCRMClient.Logging.ILogger</text>
</a>
</g>
</g>
<!-- Node3&#45;&gt;Node2 -->
<g id="edge2" class="edge"><title>Node3&#45;&gt;Node2</title>
<path fill="none" stroke="#9a32cd" stroke-dasharray="5,2" d="M83.5,-125.037C83.5,-112.67 83.5,-97.1198 83.5,-87.6273"/>
<polygon fill="#9a32cd" stroke="#9a32cd" points="80.0001,-125.234 83.5,-135.234 87.0001,-125.234 80.0001,-125.234"/>
<text text-anchor="middle" x="93" y="-109" font-family="Helvetica,sans-Serif" font-size="10.00"> Log</text>
</g>
<!-- Node4 -->
<g id="node4" class="node"><title>Node4</title>
<polygon fill="white" stroke="#bfbfbf" points="49.5,-192.5 49.5,-211.5 117.5,-211.5 117.5,-192.5 49.5,-192.5"/>
<text text-anchor="middle" x="83.5" y="-199.5" font-family="Helvetica,sans-Serif" font-size="10.00">IDisposable</text>
</g>
<!-- Node4&#45;&gt;Node3 -->
<g id="edge3" class="edge"><title>Node4&#45;&gt;Node3</title>
<path fill="none" stroke="midnightblue" d="M83.5,-182.117C83.5,-172.817 83.5,-162.056 83.5,-154.715"/>
<polygon fill="midnightblue" stroke="midnightblue" points="80.0001,-182.406 83.5,-192.406 87.0001,-182.406 80.0001,-182.406"/>
</g>
</g>
</svg>
