<?xml version="1.0" encoding="UTF-8" standalone="no"?>
<!DOCTYPE svg PUBLIC "-//W3C//DTD SVG 1.1//EN"
 "http://www.w3.org/Graphics/SVG/1.1/DTD/svg11.dtd">
<!-- Generated by graphviz version 2.38.0 (20140413.2041)
 -->
<!-- Title: SuiteCRMAddIn.BusinessLogic.AppointmentSyncing.IsMatch Pages: 1 -->
<svg width="1264pt" height="269pt"
 viewBox="0.00 0.00 1264.00 269.00" xmlns="http://www.w3.org/2000/svg" xmlns:xlink="http://www.w3.org/1999/xlink">
<g id="graph0" class="graph" transform="scale(1 1) rotate(0) translate(4 265)">
<title>SuiteCRMAddIn.BusinessLogic.AppointmentSyncing.IsMatch</title>
<polygon fill="white" stroke="none" points="-4,4 -4,-265 1260,-265 1260,4 -4,4"/>
<!-- Node1 -->
<g id="node1" class="node"><title>Node1</title>
<polygon fill="#bfbfbf" stroke="black" points="0,-88.5 0,-118.5 158,-118.5 158,-88.5 0,-88.5"/>
<text text-anchor="start" x="8" y="-106.5" font-family="Helvetica,sans-Serif" font-size="10.00">SuiteCRMAddIn.BusinessLogic.</text>
<text text-anchor="middle" x="79" y="-95.5" font-family="Helvetica,sans-Serif" font-size="10.00">AppointmentSyncing.IsMatch</text>
</g>
<!-- Node2 -->
<g id="node2" class="node"><title>Node2</title>
<g id="a_node2"><a xlink:href="class_suite_c_r_m_add_in_1_1_business_logic_1_1_appointment_syncing.html#afd5ae8f863e48a0073ed371402dda938" target="_top" xlink:title="SuiteCRMAddIn.BusinessLogic.\lAppointmentSyncing.GetID">
<polygon fill="white" stroke="black" points="205.5,-186.5 205.5,-216.5 363.5,-216.5 363.5,-186.5 205.5,-186.5"/>
<text text-anchor="start" x="213.5" y="-204.5" font-family="Helvetica,sans-Serif" font-size="10.00">SuiteCRMAddIn.BusinessLogic.</text>
<text text-anchor="middle" x="284.5" y="-193.5" font-family="Helvetica,sans-Serif" font-size="10.00">AppointmentSyncing.GetID</text>
</a>
</g>
</g>
<!-- Node1&#45;&gt;Node2 -->
<g id="edge1" class="edge"><title>Node1&#45;&gt;Node2</title>
<path fill="none" stroke="midnightblue" d="M99.5573,-118.608C121.48,-134.908 158.608,-160.653 194,-176.5 199.377,-178.907 205.041,-181.137 210.8,-183.19"/>
<polygon fill="midnightblue" stroke="midnightblue" points="209.956,-186.598 220.55,-186.478 212.193,-179.966 209.956,-186.598"/>
</g>
<!-- Node7 -->
<g id="node7" class="node"><title>Node7</title>
<g id="a_node7"><a xlink:href="class_suite_c_r_m_client_1_1cls_suite_c_r_m_helper.html#a8f51774a4b5d0dcd199c7a5b72ea4096" target="_top" xlink:title="Sets a CRM relationship and returns boolean success. &#39;Unsafe&#39; because most callers ignore the result...">
<polygon fill="white" stroke="black" points="194,-137.5 194,-167.5 375,-167.5 375,-137.5 194,-137.5"/>
<text text-anchor="start" x="202" y="-155.5" font-family="Helvetica,sans-Serif" font-size="10.00">SuiteCRMClient.clsSuiteCRMHelper.</text>
<text text-anchor="middle" x="284.5" y="-144.5" font-family="Helvetica,sans-Serif" font-size="10.00">SetRelationshipUnsafe</text>
</a>
</g>
</g>
<!-- Node1&#45;&gt;Node7 -->
<g id="edge6" class="edge"><title>Node1&#45;&gt;Node7</title>
<path fill="none" stroke="midnightblue" d="M142.44,-118.535C164.219,-123.779 188.839,-129.707 211.343,-135.126"/>
<polygon fill="midnightblue" stroke="midnightblue" points="210.637,-138.556 221.178,-137.494 212.276,-131.75 210.637,-138.556"/>
</g>
<!-- Node11 -->
<g id="node11" class="node"><title>Node11</title>
<g id="a_node11"><a xlink:href="class_suite_c_r_m_add_in_1_1_business_logic_1_1_appointment_syncing.html#a505217ef3946d0f9996301472cabc026" target="_top" xlink:title="Log a message regarding this Outlook appointment. ">
<polygon fill="white" stroke="black" points="198,-88.5 198,-118.5 371,-118.5 371,-88.5 198,-88.5"/>
<text text-anchor="start" x="206" y="-106.5" font-family="Helvetica,sans-Serif" font-size="10.00">SuiteCRMAddIn.BusinessLogic.</text>
<text text-anchor="middle" x="284.5" y="-95.5" font-family="Helvetica,sans-Serif" font-size="10.00">AppointmentSyncing.LogItemAction</text>
</a>
</g>
</g>
<!-- Node1&#45;&gt;Node11 -->
<g id="edge11" class="edge"><title>Node1&#45;&gt;Node11</title>
<path fill="none" stroke="midnightblue" d="M158.096,-103.5C167.746,-103.5 177.697,-103.5 187.574,-103.5"/>
<polygon fill="midnightblue" stroke="midnightblue" points="187.824,-107 197.824,-103.5 187.824,-100 187.824,-107"/>
</g>
<!-- Node12 -->
<g id="node12" class="node"><title>Node12</title>
<g id="a_node12"><a xlink:href="class_suite_c_r_m_client_1_1cls_suite_c_r_m_helper.html#a26b08c712be5bc8600e7c8355601a45c" target="_top" xlink:title="SuiteCRMClient.clsSuiteCRMHelper.get\lRelationships">
<polygon fill="white" stroke="black" points="845,-44.5 845,-74.5 1039,-74.5 1039,-44.5 845,-44.5"/>
<text text-anchor="start" x="853" y="-62.5" font-family="Helvetica,sans-Serif" font-size="10.00">SuiteCRMClient.clsSuiteCRMHelper.get</text>
<text text-anchor="middle" x="942" y="-51.5" font-family="Helvetica,sans-Serif" font-size="10.00">Relationships</text>
</a>
</g>
</g>
<!-- Node1&#45;&gt;Node12 -->
<g id="edge12" class="edge"><title>Node1&#45;&gt;Node12</title>
<path fill="none" stroke="midnightblue" d="M138.214,-88.4969C156,-84.5198 175.696,-80.7193 194,-78.5 420.854,-50.9953 689.188,-52.3457 834.516,-55.8643"/>
<polygon fill="midnightblue" stroke="midnightblue" points="834.681,-59.3694 844.765,-56.121 834.856,-52.3716 834.681,-59.3694"/>
</g>
<!-- Node13 -->
<g id="node13" class="node"><title>Node13</title>
<g id="a_node13"><a xlink:href="class_suite_c_r_m_add_in_1_1_business_logic_1_1_sync_direction.html#ad456cb19bab5eb78bc35f7b305274d01" target="_top" xlink:title="Does this direction allow outbound transfers from Outlook? ">
<polygon fill="white" stroke="black" points="205.5,-0.5 205.5,-30.5 363.5,-30.5 363.5,-0.5 205.5,-0.5"/>
<text text-anchor="start" x="213.5" y="-18.5" font-family="Helvetica,sans-Serif" font-size="10.00">SuiteCRMAddIn.BusinessLogic.</text>
<text text-anchor="middle" x="284.5" y="-7.5" font-family="Helvetica,sans-Serif" font-size="10.00">SyncDirection.AllowOutbound</text>
</a>
</g>
</g>
<!-- Node1&#45;&gt;Node13 -->
<g id="edge14" class="edge"><title>Node1&#45;&gt;Node13</title>
<path fill="none" stroke="midnightblue" d="M107.107,-88.278C129.874,-75.8432 163.487,-58.2942 194,-45.5 203.735,-41.4181 214.237,-37.4911 224.505,-33.8993"/>
<polygon fill="midnightblue" stroke="midnightblue" points="225.917,-37.1153 234.244,-30.5643 223.649,-30.4928 225.917,-37.1153"/>
</g>
<!-- Node3 -->
<g id="node3" class="node"><title>Node3</title>
<g id="a_node3"><a xlink:href="class_suite_c_r_m_add_in_1_1cls_globals.html#afcc5dc742f8dabdeb434dfb493a9d191" target="_top" xlink:title="SuiteCRMAddIn.clsGlobals.\lMySqlEscape">
<polygon fill="white" stroke="black" points="431.5,-230.5 431.5,-260.5 571.5,-260.5 571.5,-230.5 431.5,-230.5"/>
<text text-anchor="start" x="439.5" y="-248.5" font-family="Helvetica,sans-Serif" font-size="10.00">SuiteCRMAddIn.clsGlobals.</text>
<text text-anchor="middle" x="501.5" y="-237.5" font-family="Helvetica,sans-Serif" font-size="10.00">MySqlEscape</text>
</a>
</g>
</g>
<!-- Node2&#45;&gt;Node3 -->
<g id="edge2" class="edge"><title>Node2&#45;&gt;Node3</title>
<path fill="none" stroke="midnightblue" d="M358.889,-216.519C379.066,-220.648 401.031,-225.144 421.508,-229.334"/>
<polygon fill="midnightblue" stroke="midnightblue" points="420.928,-232.788 431.427,-231.364 422.332,-225.93 420.928,-232.788"/>
</g>
<!-- Node4 -->
<g id="node4" class="node"><title>Node4</title>
<g id="a_node4"><a xlink:href="class_suite_c_r_m_client_1_1cls_suite_c_r_m_helper.html#a717fcb29df379f859e5bf91cbc1083c8" target="_top" xlink:title="SuiteCRMClient.clsSuiteCRMHelper.\lGetEntryList">
<polygon fill="white" stroke="black" points="628,-164.5 628,-194.5 809,-194.5 809,-164.5 628,-164.5"/>
<text text-anchor="start" x="636" y="-182.5" font-family="Helvetica,sans-Serif" font-size="10.00">SuiteCRMClient.clsSuiteCRMHelper.</text>
<text text-anchor="middle" x="718.5" y="-171.5" font-family="Helvetica,sans-Serif" font-size="10.00">GetEntryList</text>
</a>
</g>
</g>
<!-- Node2&#45;&gt;Node4 -->
<g id="edge3" class="edge"><title>Node2&#45;&gt;Node4</title>
<path fill="none" stroke="midnightblue" d="M363.732,-197.516C434.938,-193.89 540.425,-188.518 617.682,-184.583"/>
<polygon fill="midnightblue" stroke="midnightblue" points="618.102,-188.067 627.911,-184.062 617.746,-181.076 618.102,-188.067"/>
</g>
<!-- Node6 -->
<g id="node6" class="node"><title>Node6</title>
<g id="a_node6"><a xlink:href="class_suite_c_r_m_client_1_1cls_suite_c_r_m_helper.html#aedb6c3b87ff73bef81eb4cb8d16fe2ae" target="_top" xlink:title="SuiteCRMClient.clsSuiteCRMHelper.\lGetValueByKey">
<polygon fill="white" stroke="black" points="411,-142.5 411,-172.5 592,-172.5 592,-142.5 411,-142.5"/>
<text text-anchor="start" x="419" y="-160.5" font-family="Helvetica,sans-Serif" font-size="10.00">SuiteCRMClient.clsSuiteCRMHelper.</text>
<text text-anchor="middle" x="501.5" y="-149.5" font-family="Helvetica,sans-Serif" font-size="10.00">GetValueByKey</text>
</a>
</g>
</g>
<!-- Node2&#45;&gt;Node6 -->
<g id="edge5" class="edge"><title>Node2&#45;&gt;Node6</title>
<path fill="none" stroke="midnightblue" d="M358.889,-186.481C377.639,-182.644 397.934,-178.49 417.144,-174.559"/>
<polygon fill="midnightblue" stroke="midnightblue" points="417.981,-177.96 427.076,-172.526 416.578,-171.102 417.981,-177.96"/>
</g>
<!-- Node5 -->
<g id="node5" class="node"><title>Node5</title>
<g id="a_node5"><a xlink:href="class_suite_c_r_m_client_1_1cls_suite_c_r_m_helper.html#a80f04ec3ab185a736b6633c0df69c536" target="_top" xlink:title="SuiteCRMClient.clsSuiteCRMHelper.\lEnsureLoggedIn">
<polygon fill="white" stroke="black" points="1075,-93.5 1075,-123.5 1256,-123.5 1256,-93.5 1075,-93.5"/>
<text text-anchor="start" x="1083" y="-111.5" font-family="Helvetica,sans-Serif" font-size="10.00">SuiteCRMClient.clsSuiteCRMHelper.</text>
<text text-anchor="middle" x="1165.5" y="-100.5" font-family="Helvetica,sans-Serif" font-size="10.00">EnsureLoggedIn</text>
</a>
</g>
</g>
<!-- Node4&#45;&gt;Node5 -->
<g id="edge4" class="edge"><title>Node4&#45;&gt;Node5</title>
<path fill="none" stroke="midnightblue" d="M809.179,-167.356C873.309,-158.416 961.607,-145.586 1039,-132.5 1051.81,-130.334 1065.33,-127.903 1078.56,-125.441"/>
<polygon fill="midnightblue" stroke="midnightblue" points="1079.42,-128.84 1088.61,-123.556 1078.13,-121.96 1079.42,-128.84"/>
</g>
<!-- Node8 -->
<g id="node8" class="node"><title>Node8</title>
<g id="a_node8"><a xlink:href="class_suite_c_r_m_client_1_1cls_suite_c_r_m_helper.html#afdded880e1ddaad804a69c8789c8d268" target="_top" xlink:title="The protocols for how link fields are named vary. Try the most likely two possibilities, and log failures. ">
<polygon fill="white" stroke="black" points="411,-93.5 411,-123.5 592,-123.5 592,-93.5 411,-93.5"/>
<text text-anchor="start" x="419" y="-111.5" font-family="Helvetica,sans-Serif" font-size="10.00">SuiteCRMClient.clsSuiteCRMHelper.</text>
<text text-anchor="middle" x="501.5" y="-100.5" font-family="Helvetica,sans-Serif" font-size="10.00">TrySetRelationship</text>
</a>
</g>
</g>
<!-- Node7&#45;&gt;Node8 -->
<g id="edge7" class="edge"><title>Node7&#45;&gt;Node8</title>
<path fill="none" stroke="midnightblue" d="M358.889,-137.481C377.639,-133.644 397.934,-129.49 417.144,-125.559"/>
<polygon fill="midnightblue" stroke="midnightblue" points="417.981,-128.96 427.076,-123.526 416.578,-122.102 417.981,-128.96"/>
</g>
<!-- Node9 -->
<g id="node9" class="node"><title>Node9</title>
<g id="a_node9"><a xlink:href="class_suite_c_r_m_client_1_1cls_suite_c_r_m_helper.html#a54a65e000ff00bb87a5e8bf5e2ef8d43" target="_top" xlink:title="Find the fields, among the fields of this module, which are links and where the name of the relations...">
<polygon fill="white" stroke="black" points="628,-93.5 628,-123.5 809,-123.5 809,-93.5 628,-93.5"/>
<text text-anchor="start" x="636" y="-111.5" font-family="Helvetica,sans-Serif" font-size="10.00">SuiteCRMClient.clsSuiteCRMHelper.</text>
<text text-anchor="middle" x="718.5" y="-100.5" font-family="Helvetica,sans-Serif" font-size="10.00">GetActivitiesLinks</text>
</a>
</g>
</g>
<!-- Node8&#45;&gt;Node9 -->
<g id="edge8" class="edge"><title>Node8&#45;&gt;Node9</title>
<path fill="none" stroke="midnightblue" d="M592.123,-108.5C600.478,-108.5 608.982,-108.5 617.424,-108.5"/>
<polygon fill="midnightblue" stroke="midnightblue" points="617.677,-112 627.677,-108.5 617.677,-105 617.677,-112"/>
</g>
<!-- Node10 -->
<g id="node10" class="node"><title>Node10</title>
<g id="a_node10"><a xlink:href="class_suite_c_r_m_client_1_1cls_suite_c_r_m_helper.html#aae0adc545d51a81ed1297ceaa8b1522a" target="_top" xlink:title="Get the module fields data for the module with this name, if any. ">
<polygon fill="white" stroke="black" points="851.5,-93.5 851.5,-123.5 1032.5,-123.5 1032.5,-93.5 851.5,-93.5"/>
<text text-anchor="start" x="859.5" y="-111.5" font-family="Helvetica,sans-Serif" font-size="10.00">SuiteCRMClient.clsSuiteCRMHelper.</text>
<text text-anchor="middle" x="942" y="-100.5" font-family="Helvetica,sans-Serif" font-size="10.00">GetFieldsForModule</text>
</a>
</g>
</g>
<!-- Node9&#45;&gt;Node10 -->
<g id="edge9" class="edge"><title>Node9&#45;&gt;Node10</title>
<path fill="none" stroke="midnightblue" d="M809.273,-108.5C819.815,-108.5 830.62,-108.5 841.287,-108.5"/>
<polygon fill="midnightblue" stroke="midnightblue" points="841.459,-112 851.459,-108.5 841.459,-105 841.459,-112"/>
</g>
<!-- Node10&#45;&gt;Node5 -->
<g id="edge10" class="edge"><title>Node10&#45;&gt;Node5</title>
<path fill="none" stroke="midnightblue" d="M1032.77,-108.5C1043.31,-108.5 1054.12,-108.5 1064.79,-108.5"/>
<polygon fill="midnightblue" stroke="midnightblue" points="1064.96,-112 1074.96,-108.5 1064.96,-105 1064.96,-112"/>
</g>
<!-- Node12&#45;&gt;Node5 -->
<g id="edge13" class="edge"><title>Node12&#45;&gt;Node5</title>
<path fill="none" stroke="midnightblue" d="M1010.96,-74.5346C1034.88,-79.8259 1061.95,-85.8133 1086.62,-91.2712"/>
<polygon fill="midnightblue" stroke="midnightblue" points="1086.15,-94.7511 1096.67,-93.4938 1087.66,-87.9164 1086.15,-94.7511"/>
</g>
</g>
</svg>
