<?xml version="1.0" encoding="UTF-8" standalone="no"?>
<!DOCTYPE svg PUBLIC "-//W3C//DTD SVG 1.1//EN"
 "http://www.w3.org/Graphics/SVG/1.1/DTD/svg11.dtd">
<!-- Generated by graphviz version 2.38.0 (20140413.2041)
 -->
<!-- Title: SuiteCRMAddIn.ProtoItems.ProtoTask.Equals Pages: 1 -->
<svg width="573pt" height="161pt"
 viewBox="0.00 0.00 573.00 161.00" xmlns="http://www.w3.org/2000/svg" xmlns:xlink="http://www.w3.org/1999/xlink">
<g id="graph0" class="graph" transform="scale(1 1) rotate(0) translate(4 157)">
<title>SuiteCRMAddIn.ProtoItems.ProtoTask.Equals</title>
<polygon fill="white" stroke="none" points="-4,4 -4,-157 569,-157 569,4 -4,4"/>
<!-- Node1 -->
<g id="node1" class="node"><title>Node1</title>
<polygon fill="#bfbfbf" stroke="black" points="0,-49.5 0,-79.5 142,-79.5 142,-49.5 0,-49.5"/>
<text text-anchor="start" x="8" y="-67.5" font-family="Helvetica,sans-Serif" font-size="10.00">SuiteCRMAddIn.ProtoItems.</text>
<text text-anchor="middle" x="71" y="-56.5" font-family="Helvetica,sans-Serif" font-size="10.00">ProtoTask.Equals</text>
</g>
<!-- Node2 -->
<g id="node2" class="node"><title>Node2</title>
<g id="a_node2"><a xlink:href="class_suite_c_r_m_add_in_1_1_proto_items_1_1_proto_task.html#adcb8a1086d740e37605bee0eefb2c45e" target="_top" xlink:title="Construct a name value list (to be serialised as JSON) representing this task. ">
<polygon fill="white" stroke="black" points="192,-98.5 192,-128.5 334,-128.5 334,-98.5 192,-98.5"/>
<text text-anchor="start" x="200" y="-116.5" font-family="Helvetica,sans-Serif" font-size="10.00">SuiteCRMAddIn.ProtoItems.</text>
<text text-anchor="middle" x="263" y="-105.5" font-family="Helvetica,sans-Serif" font-size="10.00">ProtoTask.AsNameValues</text>
</a>
</g>
</g>
<!-- Node1&#45;&gt;Node2 -->
<g id="edge1" class="edge"><title>Node1&#45;&gt;Node2</title>
<path fill="none" stroke="midnightblue" d="M130.297,-79.5346C150.45,-84.7318 173.206,-90.6006 194.064,-95.9796"/>
<polygon fill="midnightblue" stroke="midnightblue" points="193.256,-99.3856 203.813,-98.4938 195.004,-92.6074 193.256,-99.3856"/>
</g>
<!-- Node5 -->
<g id="node5" class="node"><title>Node5</title>
<g id="a_node5"><a xlink:href="class_suite_c_r_m_client_1_1_r_e_s_t_objects_1_1_name_value_collection.html#a23df23e9099bbe0ecf7697210abcd63b" target="_top" xlink:title="Return my names/values as a dictionary. ">
<polygon fill="white" stroke="black" points="178,-49.5 178,-79.5 348,-79.5 348,-49.5 178,-49.5"/>
<text text-anchor="start" x="186" y="-67.5" font-family="Helvetica,sans-Serif" font-size="10.00">SuiteCRMClient.RESTObjects.</text>
<text text-anchor="middle" x="263" y="-56.5" font-family="Helvetica,sans-Serif" font-size="10.00">NameValueCollection.AsDictionary</text>
</a>
</g>
</g>
<!-- Node1&#45;&gt;Node5 -->
<g id="edge4" class="edge"><title>Node1&#45;&gt;Node5</title>
<path fill="none" stroke="midnightblue" d="M142.209,-64.5C150.567,-64.5 159.2,-64.5 167.824,-64.5"/>
<polygon fill="midnightblue" stroke="midnightblue" points="167.926,-68.0001 177.926,-64.5 167.926,-61.0001 167.926,-68.0001"/>
</g>
<!-- Node6 -->
<g id="node6" class="node"><title>Node6</title>
<g id="a_node6"><a xlink:href="class_suite_c_r_m_add_in_1_1_proto_items_1_1_proto_task.html#a2e63e97472646f87f239c6b9f73be782" target="_top" xlink:title="SuiteCRMAddIn.ProtoItems.\lProtoTask.ProtoTask">
<polygon fill="white" stroke="black" points="192,-0.5 192,-30.5 334,-30.5 334,-0.5 192,-0.5"/>
<text text-anchor="start" x="200" y="-18.5" font-family="Helvetica,sans-Serif" font-size="10.00">SuiteCRMAddIn.ProtoItems.</text>
<text text-anchor="middle" x="263" y="-7.5" font-family="Helvetica,sans-Serif" font-size="10.00">ProtoTask.ProtoTask</text>
</a>
</g>
</g>
<!-- Node1&#45;&gt;Node6 -->
<g id="edge5" class="edge"><title>Node1&#45;&gt;Node6</title>
<path fill="none" stroke="midnightblue" d="M130.297,-49.4654C150.45,-44.2682 173.206,-38.3994 194.064,-33.0204"/>
<polygon fill="midnightblue" stroke="midnightblue" points="195.004,-36.3926 203.813,-30.5062 193.256,-29.6144 195.004,-36.3926"/>
</g>
<!-- Node3 -->
<g id="node3" class="node"><title>Node3</title>
<g id="a_node3"><a xlink:href="class_suite_c_r_m_client_1_1cls_suite_c_r_m_helper.html#a0e1f5bda4e7a7ebf6f9ee988086dd79d" target="_top" xlink:title="SuiteCRMClient.clsSuiteCRMHelper.\lSetNameValuePair">
<polygon fill="white" stroke="black" points="384,-122.5 384,-152.5 565,-152.5 565,-122.5 384,-122.5"/>
<text text-anchor="start" x="392" y="-140.5" font-family="Helvetica,sans-Serif" font-size="10.00">SuiteCRMClient.clsSuiteCRMHelper.</text>
<text text-anchor="middle" x="474.5" y="-129.5" font-family="Helvetica,sans-Serif" font-size="10.00">SetNameValuePair</text>
</a>
</g>
</g>
<!-- Node2&#45;&gt;Node3 -->
<g id="edge2" class="edge"><title>Node2&#45;&gt;Node3</title>
<path fill="none" stroke="midnightblue" d="M334.052,-121.525C346.754,-122.98 360.223,-124.523 373.587,-126.054"/>
<polygon fill="midnightblue" stroke="midnightblue" points="373.438,-129.56 383.771,-127.221 374.234,-122.605 373.438,-129.56"/>
</g>
<!-- Node4 -->
<g id="node4" class="node"><title>Node4</title>
<g id="a_node4"><a xlink:href="class_suite_c_r_m_client_1_1cls_suite_c_r_m_helper.html#a050637c0cbd1012cf9cf58c5cb3d179c" target="_top" xlink:title="Return the CRM id of the current user. ">
<polygon fill="white" stroke="black" points="384,-73.5 384,-103.5 565,-103.5 565,-73.5 384,-73.5"/>
<text text-anchor="start" x="392" y="-91.5" font-family="Helvetica,sans-Serif" font-size="10.00">SuiteCRMClient.clsSuiteCRMHelper.</text>
<text text-anchor="middle" x="474.5" y="-80.5" font-family="Helvetica,sans-Serif" font-size="10.00">GetUserId</text>
</a>
</g>
</g>
<!-- Node2&#45;&gt;Node4 -->
<g id="edge3" class="edge"><title>Node2&#45;&gt;Node4</title>
<path fill="none" stroke="midnightblue" d="M334.052,-105.141C346.754,-103.625 360.223,-102.018 373.587,-100.423"/>
<polygon fill="midnightblue" stroke="midnightblue" points="374.256,-103.868 383.771,-99.2075 373.427,-96.9172 374.256,-103.868"/>
</g>
</g>
</svg>
