<?xml version="1.0" encoding="UTF-8" standalone="no"?>
<!DOCTYPE svg PUBLIC "-//W3C//DTD SVG 1.1//EN"
 "http://www.w3.org/Graphics/SVG/1.1/DTD/svg11.dtd">
<!-- Generated by graphviz version 2.38.0 (20140413.2041)
 -->
<!-- Title: SuiteCRMClient.clsSuiteCRMHelper.GetEntryList Pages: 1 -->
<svg width="798pt" height="245pt"
 viewBox="0.00 0.00 798.00 245.00" xmlns="http://www.w3.org/2000/svg" xmlns:xlink="http://www.w3.org/1999/xlink">
<g id="graph0" class="graph" transform="scale(1 1) rotate(0) translate(4 241)">
<title>SuiteCRMClient.clsSuiteCRMHelper.GetEntryList</title>
<polygon fill="white" stroke="none" points="-4,4 -4,-241 794,-241 794,4 -4,4"/>
<!-- Node1 -->
<g id="node1" class="node"><title>Node1</title>
<polygon fill="#bfbfbf" stroke="black" points="0,-98.5 0,-128.5 181,-128.5 181,-98.5 0,-98.5"/>
<text text-anchor="start" x="8" y="-116.5" font-family="Helvetica,sans-Serif" font-size="10.00">SuiteCRMClient.clsSuiteCRMHelper.</text>
<text text-anchor="middle" x="90.5" y="-105.5" font-family="Helvetica,sans-Serif" font-size="10.00">GetEntryList</text>
</g>
<!-- Node2 -->
<g id="node2" class="node"><title>Node2</title>
<g id="a_node2"><a xlink:href="class_suite_c_r_m_add_in_1_1_business_logic_1_1_appointment_syncing.html#afd5ae8f863e48a0073ed371402dda938" target="_top" xlink:title="SuiteCRMAddIn.BusinessLogic.\lAppointmentSyncing.GetID">
<polygon fill="white" stroke="black" points="228.5,-206.5 228.5,-236.5 386.5,-236.5 386.5,-206.5 228.5,-206.5"/>
<text text-anchor="start" x="236.5" y="-224.5" font-family="Helvetica,sans-Serif" font-size="10.00">SuiteCRMAddIn.BusinessLogic.</text>
<text text-anchor="middle" x="307.5" y="-213.5" font-family="Helvetica,sans-Serif" font-size="10.00">AppointmentSyncing.GetID</text>
</a>
</g>
</g>
<!-- Node1&#45;&gt;Node2 -->
<g id="edge1" class="edge"><title>Node1&#45;&gt;Node2</title>
<path fill="none" stroke="midnightblue" d="M117.949,-134.986C142.353,-153.858 180.265,-180.834 217,-197.5 224.471,-200.89 232.518,-203.881 240.614,-206.499"/>
<polygon fill="midnightblue" stroke="midnightblue" points="119.934,-132.095 109.904,-128.679 115.615,-137.603 119.934,-132.095"/>
</g>
<!-- Node4 -->
<g id="node4" class="node"><title>Node4</title>
<g id="a_node4"><a xlink:href="class_suite_c_r_m_add_in_1_1_business_logic_1_1_synchroniser.html#acc7036a95cd34952cf01c774b1fcefc2" target="_top" xlink:title="Fetch records in pages from CRM, and merge them into Outlook. ">
<polygon fill="white" stroke="black" points="220.5,-147 220.5,-188 394.5,-188 394.5,-147 220.5,-147"/>
<text text-anchor="start" x="228.5" y="-176" font-family="Helvetica,sans-Serif" font-size="10.00">SuiteCRMAddIn.BusinessLogic.</text>
<text text-anchor="start" x="228.5" y="-165" font-family="Helvetica,sans-Serif" font-size="10.00">Synchroniser&lt; Outlook.Appointment</text>
<text text-anchor="middle" x="307.5" y="-154" font-family="Helvetica,sans-Serif" font-size="10.00">Item &gt;::MergeRecordsFromCrm</text>
</a>
</g>
</g>
<!-- Node1&#45;&gt;Node4 -->
<g id="edge3" class="edge"><title>Node1&#45;&gt;Node4</title>
<path fill="none" stroke="midnightblue" d="M161.178,-131.001C181.487,-136.101 203.859,-141.721 224.837,-146.989"/>
<polygon fill="midnightblue" stroke="midnightblue" points="161.941,-127.583 151.389,-128.542 160.236,-134.373 161.941,-127.583"/>
</g>
<!-- Node5 -->
<g id="node5" class="node"><title>Node5</title>
<g id="a_node5"><a xlink:href="class_suite_c_r_m_add_in_1_1_dialogs_1_1frm_address_book.html#a3f4f6f3af970c21ddfe73c19c93e02d2" target="_top" xlink:title="SuiteCRMAddIn.Dialogs.frm\lAddressBook.frmAddressBook">
<polygon fill="white" stroke="black" points="232,-98.5 232,-128.5 383,-128.5 383,-98.5 232,-98.5"/>
<text text-anchor="start" x="240" y="-116.5" font-family="Helvetica,sans-Serif" font-size="10.00">SuiteCRMAddIn.Dialogs.frm</text>
<text text-anchor="middle" x="307.5" y="-105.5" font-family="Helvetica,sans-Serif" font-size="10.00">AddressBook.frmAddressBook</text>
</a>
</g>
</g>
<!-- Node1&#45;&gt;Node5 -->
<g id="edge4" class="edge"><title>Node1&#45;&gt;Node5</title>
<path fill="none" stroke="midnightblue" d="M191.434,-113.5C204.977,-113.5 218.682,-113.5 231.682,-113.5"/>
<polygon fill="midnightblue" stroke="midnightblue" points="191.123,-110 181.123,-113.5 191.122,-117 191.123,-110"/>
</g>
<!-- Node6 -->
<g id="node6" class="node"><title>Node6</title>
<g id="a_node6"><a xlink:href="class_suite_c_r_m_add_in_1_1_dialogs_1_1_archive_dialog.html#a1b2d6e63a13ef6a7a3331a99cbd122e7" target="_top" xlink:title="SuiteCRMAddIn.Dialogs.Archive\lDialog.Search">
<polygon fill="white" stroke="black" points="227.5,-49.5 227.5,-79.5 387.5,-79.5 387.5,-49.5 227.5,-49.5"/>
<text text-anchor="start" x="235.5" y="-67.5" font-family="Helvetica,sans-Serif" font-size="10.00">SuiteCRMAddIn.Dialogs.Archive</text>
<text text-anchor="middle" x="307.5" y="-56.5" font-family="Helvetica,sans-Serif" font-size="10.00">Dialog.Search</text>
</a>
</g>
</g>
<!-- Node1&#45;&gt;Node6 -->
<g id="edge5" class="edge"><title>Node1&#45;&gt;Node6</title>
<path fill="none" stroke="midnightblue" d="M167.224,-96.2419C191.181,-90.782 217.451,-84.795 240.657,-79.5062"/>
<polygon fill="midnightblue" stroke="midnightblue" points="166.44,-92.8307 157.468,-98.4654 167.996,-99.6557 166.44,-92.8307"/>
</g>
<!-- Node9 -->
<g id="node9" class="node"><title>Node9</title>
<g id="a_node9"><a xlink:href="class_suite_c_r_m_client_1_1cls_suite_c_r_m_helper.html#a2fb1754de95a9142e0e0230403e92ec8" target="_top" xlink:title="SuiteCRMClient.clsSuiteCRMHelper.\lFindAccounts">
<polygon fill="white" stroke="black" points="217,-0.5 217,-30.5 398,-30.5 398,-0.5 217,-0.5"/>
<text text-anchor="start" x="225" y="-18.5" font-family="Helvetica,sans-Serif" font-size="10.00">SuiteCRMClient.clsSuiteCRMHelper.</text>
<text text-anchor="middle" x="307.5" y="-7.5" font-family="Helvetica,sans-Serif" font-size="10.00">FindAccounts</text>
</a>
</g>
</g>
<!-- Node1&#45;&gt;Node9 -->
<g id="edge9" class="edge"><title>Node1&#45;&gt;Node9</title>
<path fill="none" stroke="midnightblue" d="M122.291,-92.5996C147.015,-76.5666 183.084,-54.8239 217,-40.5 225.769,-36.7967 235.249,-33.4726 244.648,-30.5494"/>
<polygon fill="midnightblue" stroke="midnightblue" points="120.161,-89.8111 113.721,-98.2238 124.002,-95.6635 120.161,-89.8111"/>
</g>
<!-- Node3 -->
<g id="node3" class="node"><title>Node3</title>
<g id="a_node3"><a xlink:href="class_suite_c_r_m_add_in_1_1_business_logic_1_1_appointment_syncing.html#a5d2d80bf950c4a4fd241610e65bd4713" target="_top" xlink:title="SuiteCRMAddIn.BusinessLogic.\lAppointmentSyncing.IsMatch">
<polygon fill="white" stroke="black" points="435,-206.5 435,-236.5 593,-236.5 593,-206.5 435,-206.5"/>
<text text-anchor="start" x="443" y="-224.5" font-family="Helvetica,sans-Serif" font-size="10.00">SuiteCRMAddIn.BusinessLogic.</text>
<text text-anchor="middle" x="514" y="-213.5" font-family="Helvetica,sans-Serif" font-size="10.00">AppointmentSyncing.IsMatch</text>
</a>
</g>
</g>
<!-- Node2&#45;&gt;Node3 -->
<g id="edge2" class="edge"><title>Node2&#45;&gt;Node3</title>
<path fill="none" stroke="midnightblue" d="M396.771,-221.5C409.44,-221.5 422.4,-221.5 434.855,-221.5"/>
<polygon fill="midnightblue" stroke="midnightblue" points="396.688,-218 386.688,-221.5 396.688,-225 396.688,-218"/>
</g>
<!-- Node7 -->
<g id="node7" class="node"><title>Node7</title>
<g id="a_node7"><a xlink:href="class_suite_c_r_m_add_in_1_1_dialogs_1_1_archive_dialog.html#a3160bc88861f266746f9631068fc9ed7" target="_top" xlink:title="SuiteCRMAddIn.Dialogs.Archive\lDialog.btnSearch_Click">
<polygon fill="white" stroke="black" points="434,-49.5 434,-79.5 594,-79.5 594,-49.5 434,-49.5"/>
<text text-anchor="start" x="442" y="-67.5" font-family="Helvetica,sans-Serif" font-size="10.00">SuiteCRMAddIn.Dialogs.Archive</text>
<text text-anchor="middle" x="514" y="-56.5" font-family="Helvetica,sans-Serif" font-size="10.00">Dialog.btnSearch_Click</text>
</a>
</g>
</g>
<!-- Node6&#45;&gt;Node7 -->
<g id="edge6" class="edge"><title>Node6&#45;&gt;Node7</title>
<path fill="none" stroke="midnightblue" d="M397.611,-57.7998C409.657,-57.708 421.951,-57.7431 433.808,-57.9049"/>
<polygon fill="midnightblue" stroke="midnightblue" points="397.527,-54.3004 387.565,-57.9067 397.602,-61.3 397.527,-54.3004"/>
</g>
<!-- Node7&#45;&gt;Node6 -->
<g id="edge7" class="edge"><title>Node7&#45;&gt;Node6</title>
<path fill="none" stroke="midnightblue" d="M423.76,-71.2012C411.712,-71.292 399.419,-71.2561 387.565,-71.0933"/>
<polygon fill="midnightblue" stroke="midnightblue" points="423.846,-74.7006 433.808,-71.0951 423.772,-67.701 423.846,-74.7006"/>
</g>
<!-- Node8 -->
<g id="node8" class="node"><title>Node8</title>
<g id="a_node8"><a xlink:href="class_suite_c_r_m_add_in_1_1_dialogs_1_1_archive_dialog.html#a1f34c87c999c13b787aab281472014cd" target="_top" xlink:title="Clean up any resources being used. ">
<polygon fill="white" stroke="black" points="630,-49.5 630,-79.5 790,-79.5 790,-49.5 630,-49.5"/>
<text text-anchor="start" x="638" y="-67.5" font-family="Helvetica,sans-Serif" font-size="10.00">SuiteCRMAddIn.Dialogs.Archive</text>
<text text-anchor="middle" x="710" y="-56.5" font-family="Helvetica,sans-Serif" font-size="10.00">Dialog.Dispose</text>
</a>
</g>
</g>
<!-- Node7&#45;&gt;Node8 -->
<g id="edge8" class="edge"><title>Node7&#45;&gt;Node8</title>
<path fill="none" stroke="midnightblue" d="M604.436,-64.5C612.884,-64.5 621.408,-64.5 629.752,-64.5"/>
<polygon fill="midnightblue" stroke="midnightblue" points="604.187,-61.0001 594.187,-64.5 604.187,-68.0001 604.187,-61.0001"/>
</g>
</g>
</svg>
