<?xml version="1.0" encoding="UTF-8" standalone="no"?>
<!DOCTYPE svg PUBLIC "-//W3C//DTD SVG 1.1//EN"
 "http://www.w3.org/Graphics/SVG/1.1/DTD/svg11.dtd">
<!-- Generated by graphviz version 2.38.0 (20140413.2041)
 -->
<!-- Title: SuiteCRMAddIn.Dialogs.ArchiveDialog.btnSearch_Click Pages: 1 -->
<svg width="1015pt" height="268pt"
 viewBox="0.00 0.00 1015.00 268.00" xmlns="http://www.w3.org/2000/svg" xmlns:xlink="http://www.w3.org/1999/xlink">
<g id="graph0" class="graph" transform="scale(1 1) rotate(0) translate(4 264)">
<title>SuiteCRMAddIn.Dialogs.ArchiveDialog.btnSearch_Click</title>
<polygon fill="white" stroke="none" points="-4,4 -4,-264 1011,-264 1011,4 -4,4"/>
<!-- Node1 -->
<g id="node1" class="node"><title>Node1</title>
<polygon fill="#bfbfbf" stroke="black" points="0,-122.5 0,-152.5 160,-152.5 160,-122.5 0,-122.5"/>
<text text-anchor="start" x="8" y="-140.5" font-family="Helvetica,sans-Serif" font-size="10.00">SuiteCRMAddIn.Dialogs.Archive</text>
<text text-anchor="middle" x="80" y="-129.5" font-family="Helvetica,sans-Serif" font-size="10.00">Dialog.btnSearch_Click</text>
</g>
<!-- Node2 -->
<g id="node2" class="node"><title>Node2</title>
<g id="a_node2"><a xlink:href="class_suite_c_r_m_add_in_1_1_dialogs_1_1_archive_dialog.html#a1b2d6e63a13ef6a7a3331a99cbd122e7" target="_top" xlink:title="SuiteCRMAddIn.Dialogs.Archive\lDialog.Search">
<polygon fill="white" stroke="black" points="196,-122.5 196,-152.5 356,-152.5 356,-122.5 196,-122.5"/>
<text text-anchor="start" x="204" y="-140.5" font-family="Helvetica,sans-Serif" font-size="10.00">SuiteCRMAddIn.Dialogs.Archive</text>
<text text-anchor="middle" x="276" y="-129.5" font-family="Helvetica,sans-Serif" font-size="10.00">Dialog.Search</text>
</a>
</g>
</g>
<!-- Node1&#45;&gt;Node2 -->
<g id="edge1" class="edge"><title>Node1&#45;&gt;Node2</title>
<path fill="none" stroke="midnightblue" d="M160.187,-130.852C168.529,-130.755 177.054,-130.727 185.502,-130.768"/>
<polygon fill="midnightblue" stroke="midnightblue" points="185.724,-134.27 195.752,-130.851 185.781,-127.27 185.724,-134.27"/>
</g>
<!-- Node2&#45;&gt;Node1 -->
<g id="edge13" class="edge"><title>Node2&#45;&gt;Node1</title>
<path fill="none" stroke="midnightblue" d="M195.752,-144.149C187.408,-144.245 178.884,-144.273 170.436,-144.232"/>
<polygon fill="midnightblue" stroke="midnightblue" points="170.215,-140.73 160.187,-144.148 170.158,-147.73 170.215,-140.73"/>
</g>
<!-- Node3 -->
<g id="node3" class="node"><title>Node3</title>
<g id="a_node3"><a xlink:href="struct_suite_c_r_m_add_in_1_1_wait_cursor.html#a7ba13e6acae32dbe5c97f21ba6c323b9" target="_top" xlink:title="SuiteCRMAddIn.WaitCursor.For">
<polygon fill="white" stroke="black" points="403.5,-235 403.5,-254 561.5,-254 561.5,-235 403.5,-235"/>
<text text-anchor="middle" x="482.5" y="-242" font-family="Helvetica,sans-Serif" font-size="10.00">SuiteCRMAddIn.WaitCursor.For</text>
</a>
</g>
</g>
<!-- Node2&#45;&gt;Node3 -->
<g id="edge2" class="edge"><title>Node2&#45;&gt;Node3</title>
<path fill="none" stroke="midnightblue" d="M293.664,-152.574C314.985,-171.105 353.748,-202.324 392,-220.5 401.79,-225.152 412.626,-229.017 423.279,-232.188"/>
<polygon fill="midnightblue" stroke="midnightblue" points="422.403,-235.578 432.976,-234.908 424.293,-228.838 422.403,-235.578"/>
</g>
<!-- Node5 -->
<g id="node5" class="node"><title>Node5</title>
<g id="a_node5"><a xlink:href="class_suite_c_r_m_client_1_1cls_suite_c_r_m_helper.html#a717fcb29df379f859e5bf91cbc1083c8" target="_top" xlink:title="SuiteCRMClient.clsSuiteCRMHelper.\lGetEntryList">
<polygon fill="white" stroke="black" points="609,-164.5 609,-194.5 790,-194.5 790,-164.5 609,-164.5"/>
<text text-anchor="start" x="617" y="-182.5" font-family="Helvetica,sans-Serif" font-size="10.00">SuiteCRMClient.clsSuiteCRMHelper.</text>
<text text-anchor="middle" x="699.5" y="-171.5" font-family="Helvetica,sans-Serif" font-size="10.00">GetEntryList</text>
</a>
</g>
</g>
<!-- Node2&#45;&gt;Node5 -->
<g id="edge4" class="edge"><title>Node2&#45;&gt;Node5</title>
<path fill="none" stroke="midnightblue" d="M303.377,-152.698C326.041,-164.827 360.028,-180.85 392,-187.5 459.862,-201.614 537.989,-199.3 598.38,-193.618"/>
<polygon fill="midnightblue" stroke="midnightblue" points="599.07,-197.067 608.677,-192.601 598.381,-190.101 599.07,-197.067"/>
</g>
<!-- Node7 -->
<g id="node7" class="node"><title>Node7</title>
<g id="a_node7"><a xlink:href="class_suite_c_r_m_add_in_1_1cls_globals.html#afcc5dc742f8dabdeb434dfb493a9d191" target="_top" xlink:title="SuiteCRMAddIn.clsGlobals.\lMySqlEscape">
<polygon fill="white" stroke="black" points="412.5,-147.5 412.5,-177.5 552.5,-177.5 552.5,-147.5 412.5,-147.5"/>
<text text-anchor="start" x="420.5" y="-165.5" font-family="Helvetica,sans-Serif" font-size="10.00">SuiteCRMAddIn.clsGlobals.</text>
<text text-anchor="middle" x="482.5" y="-154.5" font-family="Helvetica,sans-Serif" font-size="10.00">MySqlEscape</text>
</a>
</g>
</g>
<!-- Node2&#45;&gt;Node7 -->
<g id="edge6" class="edge"><title>Node2&#45;&gt;Node7</title>
<path fill="none" stroke="midnightblue" d="M356.065,-147.166C371.133,-149.008 386.91,-150.936 401.992,-152.78"/>
<polygon fill="midnightblue" stroke="midnightblue" points="401.954,-156.301 412.305,-154.041 402.803,-149.353 401.954,-156.301"/>
</g>
<!-- Node8 -->
<g id="node8" class="node"><title>Node8</title>
<g id="a_node8"><a xlink:href="class_suite_c_r_m_client_1_1cls_suite_c_r_m_helper.html#a6aaf13d4bb3d9a87db8540482a5e9754" target="_top" xlink:title="Get the names of all the fields of the module with this name whose data type is char or varchar or na...">
<polygon fill="white" stroke="black" points="392,-98.5 392,-128.5 573,-128.5 573,-98.5 392,-98.5"/>
<text text-anchor="start" x="400" y="-116.5" font-family="Helvetica,sans-Serif" font-size="10.00">SuiteCRMClient.clsSuiteCRMHelper.</text>
<text text-anchor="middle" x="482.5" y="-105.5" font-family="Helvetica,sans-Serif" font-size="10.00">GetCharacterFields</text>
</a>
</g>
</g>
<!-- Node2&#45;&gt;Node8 -->
<g id="edge7" class="edge"><title>Node2&#45;&gt;Node8</title>
<path fill="none" stroke="midnightblue" d="M356.065,-128.221C364.467,-127.235 373.089,-126.223 381.688,-125.214"/>
<polygon fill="midnightblue" stroke="midnightblue" points="382.233,-128.674 391.757,-124.032 381.417,-121.722 382.233,-128.674"/>
</g>
<!-- Node10 -->
<g id="node10" class="node"><title>Node10</title>
<g id="a_node10"><a xlink:href="class_suite_c_r_m_client_1_1cls_suite_c_r_m_helper.html#a54a65e000ff00bb87a5e8bf5e2ef8d43" target="_top" xlink:title="Find the fields, among the fields of this module, which are links and where the name of the relations...">
<polygon fill="white" stroke="black" points="392,-49.5 392,-79.5 573,-79.5 573,-49.5 392,-49.5"/>
<text text-anchor="start" x="400" y="-67.5" font-family="Helvetica,sans-Serif" font-size="10.00">SuiteCRMClient.clsSuiteCRMHelper.</text>
<text text-anchor="middle" x="482.5" y="-56.5" font-family="Helvetica,sans-Serif" font-size="10.00">GetActivitiesLinks</text>
</a>
</g>
</g>
<!-- Node2&#45;&gt;Node10 -->
<g id="edge10" class="edge"><title>Node2&#45;&gt;Node10</title>
<path fill="none" stroke="midnightblue" d="M309.238,-122.319C332.032,-111.943 363.485,-98.3433 392,-88.5 397.988,-86.4331 404.251,-84.4342 410.563,-82.5314"/>
<polygon fill="midnightblue" stroke="midnightblue" points="411.876,-85.7937 420.49,-79.6242 409.909,-79.0759 411.876,-85.7937"/>
</g>
<!-- Node11 -->
<g id="node11" class="node"><title>Node11</title>
<g id="a_node11"><a xlink:href="class_suite_c_r_m_client_1_1cls_suite_c_r_m_helper.html#aedb6c3b87ff73bef81eb4cb8d16fe2ae" target="_top" xlink:title="SuiteCRMClient.clsSuiteCRMHelper.\lGetValueByKey">
<polygon fill="white" stroke="black" points="392,-0.5 392,-30.5 573,-30.5 573,-0.5 392,-0.5"/>
<text text-anchor="start" x="400" y="-18.5" font-family="Helvetica,sans-Serif" font-size="10.00">SuiteCRMClient.clsSuiteCRMHelper.</text>
<text text-anchor="middle" x="482.5" y="-7.5" font-family="Helvetica,sans-Serif" font-size="10.00">GetValueByKey</text>
</a>
</g>
</g>
<!-- Node2&#45;&gt;Node11 -->
<g id="edge12" class="edge"><title>Node2&#45;&gt;Node11</title>
<path fill="none" stroke="midnightblue" d="M290.673,-122.164C310.772,-100.553 350.436,-61.3436 392,-39.5 395.685,-37.5635 399.539,-35.7733 403.491,-34.1196"/>
<polygon fill="midnightblue" stroke="midnightblue" points="404.787,-37.3712 412.855,-30.504 402.265,-30.841 404.787,-37.3712"/>
</g>
<!-- Node4 -->
<g id="node4" class="node"><title>Node4</title>
<g id="a_node4"><a xlink:href="struct_suite_c_r_m_add_in_1_1_wait_cursor.html#a5a3235a0e82ff01664e64e15a542babc" target="_top" xlink:title="SuiteCRMAddIn.WaitCursor.\lWaitCursor">
<polygon fill="white" stroke="black" points="628,-229.5 628,-259.5 771,-259.5 771,-229.5 628,-229.5"/>
<text text-anchor="start" x="636" y="-247.5" font-family="Helvetica,sans-Serif" font-size="10.00">SuiteCRMAddIn.WaitCursor.</text>
<text text-anchor="middle" x="699.5" y="-236.5" font-family="Helvetica,sans-Serif" font-size="10.00">WaitCursor</text>
</a>
</g>
</g>
<!-- Node3&#45;&gt;Node4 -->
<g id="edge3" class="edge"><title>Node3&#45;&gt;Node4</title>
<path fill="none" stroke="midnightblue" d="M561.728,-244.5C579.963,-244.5 599.415,-244.5 617.756,-244.5"/>
<polygon fill="midnightblue" stroke="midnightblue" points="617.817,-248 627.817,-244.5 617.817,-241 617.817,-248"/>
</g>
<!-- Node6 -->
<g id="node6" class="node"><title>Node6</title>
<g id="a_node6"><a xlink:href="class_suite_c_r_m_client_1_1cls_suite_c_r_m_helper.html#a80f04ec3ab185a736b6633c0df69c536" target="_top" xlink:title="SuiteCRMClient.clsSuiteCRMHelper.\lEnsureLoggedIn">
<polygon fill="white" stroke="black" points="826,-131.5 826,-161.5 1007,-161.5 1007,-131.5 826,-131.5"/>
<text text-anchor="start" x="834" y="-149.5" font-family="Helvetica,sans-Serif" font-size="10.00">SuiteCRMClient.clsSuiteCRMHelper.</text>
<text text-anchor="middle" x="916.5" y="-138.5" font-family="Helvetica,sans-Serif" font-size="10.00">EnsureLoggedIn</text>
</a>
</g>
</g>
<!-- Node5&#45;&gt;Node6 -->
<g id="edge5" class="edge"><title>Node5&#45;&gt;Node6</title>
<path fill="none" stroke="midnightblue" d="M790.123,-165.744C798.57,-164.447 807.168,-163.128 815.702,-161.818"/>
<polygon fill="midnightblue" stroke="midnightblue" points="816.324,-165.263 825.677,-160.287 815.262,-158.345 816.324,-165.263"/>
</g>
<!-- Node9 -->
<g id="node9" class="node"><title>Node9</title>
<g id="a_node9"><a xlink:href="class_suite_c_r_m_client_1_1cls_suite_c_r_m_helper.html#aae0adc545d51a81ed1297ceaa8b1522a" target="_top" xlink:title="Get the module fields data for the module with this name, if any. ">
<polygon fill="white" stroke="black" points="609,-98.5 609,-128.5 790,-128.5 790,-98.5 609,-98.5"/>
<text text-anchor="start" x="617" y="-116.5" font-family="Helvetica,sans-Serif" font-size="10.00">SuiteCRMClient.clsSuiteCRMHelper.</text>
<text text-anchor="middle" x="699.5" y="-105.5" font-family="Helvetica,sans-Serif" font-size="10.00">GetFieldsForModule</text>
</a>
</g>
</g>
<!-- Node8&#45;&gt;Node9 -->
<g id="edge8" class="edge"><title>Node8&#45;&gt;Node9</title>
<path fill="none" stroke="midnightblue" d="M573.123,-113.5C581.478,-113.5 589.982,-113.5 598.424,-113.5"/>
<polygon fill="midnightblue" stroke="midnightblue" points="598.677,-117 608.677,-113.5 598.677,-110 598.677,-117"/>
</g>
<!-- Node9&#45;&gt;Node6 -->
<g id="edge9" class="edge"><title>Node9&#45;&gt;Node6</title>
<path fill="none" stroke="midnightblue" d="M790.123,-127.256C798.57,-128.553 807.168,-129.872 815.702,-131.182"/>
<polygon fill="midnightblue" stroke="midnightblue" points="815.262,-134.655 825.677,-132.713 816.324,-127.737 815.262,-134.655"/>
</g>
<!-- Node10&#45;&gt;Node9 -->
<g id="edge11" class="edge"><title>Node10&#45;&gt;Node9</title>
<path fill="none" stroke="midnightblue" d="M549.468,-79.5346C572.685,-84.8259 598.956,-90.8133 622.904,-96.2712"/>
<polygon fill="midnightblue" stroke="midnightblue" points="622.129,-99.6841 632.657,-98.4938 623.684,-92.8591 622.129,-99.6841"/>
</g>
</g>
</svg>
