<?xml version="1.0" encoding="UTF-8" standalone="no"?>
<!DOCTYPE svg PUBLIC "-//W3C//DTD SVG 1.1//EN"
 "http://www.w3.org/Graphics/SVG/1.1/DTD/svg11.dtd">
<!-- Generated by graphviz version 2.38.0 (20140413.2041)
 -->
<!-- Title: SuiteCRMAddIn.BusinessLogic.EmailAccountsArchiveSettings.EmailAccountsArchiveSettings Pages: 1 -->
<svg width="401pt" height="50pt"
 viewBox="0.00 0.00 401.00 50.00" xmlns="http://www.w3.org/2000/svg" xmlns:xlink="http://www.w3.org/1999/xlink">
<g id="graph0" class="graph" transform="scale(1 1) rotate(0) translate(4 46)">
<title>SuiteCRMAddIn.BusinessLogic.EmailAccountsArchiveSettings.EmailAccountsArchiveSettings</title>
<polygon fill="white" stroke="none" points="-4,4 -4,-46 397,-46 397,4 -4,4"/>
<!-- Node1 -->
<g id="node1" class="node"><title>Node1</title>
<polygon fill="#bfbfbf" stroke="black" points="0,-0.5 0,-41.5 179,-41.5 179,-0.5 0,-0.5"/>
<text text-anchor="start" x="8" y="-29.5" font-family="Helvetica,sans-Serif" font-size="10.00">SuiteCRMAddIn.BusinessLogic.</text>
<text text-anchor="start" x="8" y="-18.5" font-family="Helvetica,sans-Serif" font-size="10.00">EmailAccountsArchiveSettings.Email</text>
<text text-anchor="middle" x="89.5" y="-7.5" font-family="Helvetica,sans-Serif" font-size="10.00">AccountsArchiveSettings</text>
</g>
<!-- Node2 -->
<g id="node2" class="node"><title>Node2</title>
<g id="a_node2"><a xlink:href="class_suite_c_r_m_add_in_1_1_business_logic_1_1_email_accounts_archive_settings.html#a325923b7c2f03c27159ea6ff085e7cf7" target="_top" xlink:title="SuiteCRMAddIn.BusinessLogic.\lEmailAccountsArchiveSettings.Clear">
<polygon fill="white" stroke="black" points="215,-6 215,-36 393,-36 393,-6 215,-6"/>
<text text-anchor="start" x="223" y="-24" font-family="Helvetica,sans-Serif" font-size="10.00">SuiteCRMAddIn.BusinessLogic.</text>
<text text-anchor="middle" x="304" y="-13" font-family="Helvetica,sans-Serif" font-size="10.00">EmailAccountsArchiveSettings.Clear</text>
</a>
</g>
</g>
<!-- Node1&#45;&gt;Node2 -->
<g id="edge1" class="edge"><title>Node1&#45;&gt;Node2</title>
<path fill="none" stroke="midnightblue" d="M179.08,-21C187.593,-21 196.261,-21 204.859,-21"/>
<polygon fill="midnightblue" stroke="midnightblue" points="204.905,-24.5001 214.905,-21 204.905,-17.5001 204.905,-24.5001"/>
</g>
</g>
</svg>
