<?xml version="1.0" encoding="UTF-8" standalone="no"?>
<!DOCTYPE svg PUBLIC "-//W3C//DTD SVG 1.1//EN"
 "http://www.w3.org/Graphics/SVG/1.1/DTD/svg11.dtd">
<!-- Generated by graphviz version 2.38.0 (20140413.2041)
 -->
<!-- Title: SuiteCRMAddIn.BusinessLogic.TaskSyncing.SyncFolder Pages: 1 -->
<svg width="363pt" height="110pt"
 viewBox="0.00 0.00 363.00 110.00" xmlns="http://www.w3.org/2000/svg" xmlns:xlink="http://www.w3.org/1999/xlink">
<g id="graph0" class="graph" transform="scale(1 1) rotate(0) translate(4 106)">
<title>SuiteCRMAddIn.BusinessLogic.TaskSyncing.SyncFolder</title>
<polygon fill="white" stroke="none" points="-4,4 -4,-106 359,-106 359,4 -4,4"/>
<!-- Node1 -->
<g id="node1" class="node"><title>Node1</title>
<polygon fill="#bfbfbf" stroke="black" points="0,-36 0,-66 158,-66 158,-36 0,-36"/>
<text text-anchor="start" x="8" y="-54" font-family="Helvetica,sans-Serif" font-size="10.00">SuiteCRMAddIn.BusinessLogic.</text>
<text text-anchor="middle" x="79" y="-43" font-family="Helvetica,sans-Serif" font-size="10.00">TaskSyncing.SyncFolder</text>
</g>
<!-- Node2 -->
<g id="node2" class="node"><title>Node2</title>
<g id="a_node2"><a xlink:href="class_suite_c_r_m_add_in_1_1_business_logic_1_1_synchroniser.html#acc7036a95cd34952cf01c774b1fcefc2" target="_top" xlink:title="Fetch records in pages from CRM, and merge them into Outlook. ">
<polygon fill="white" stroke="black" points="194,-60.5 194,-101.5 355,-101.5 355,-60.5 194,-60.5"/>
<text text-anchor="start" x="202" y="-89.5" font-family="Helvetica,sans-Serif" font-size="10.00">SuiteCRMAddIn.BusinessLogic.</text>
<text text-anchor="start" x="202" y="-78.5" font-family="Helvetica,sans-Serif" font-size="10.00">Synchroniser&lt; Outlook.TaskItem</text>
<text text-anchor="middle" x="274.5" y="-67.5" font-family="Helvetica,sans-Serif" font-size="10.00"> &gt;::MergeRecordsFromCrm</text>
</a>
</g>
</g>
<!-- Node1&#45;&gt;Node2 -->
<g id="edge1" class="edge"><title>Node1&#45;&gt;Node2</title>
<path fill="none" stroke="midnightblue" d="M158.146,-63.1157C166.59,-64.4248 175.23,-65.7643 183.796,-67.0924"/>
<polygon fill="midnightblue" stroke="midnightblue" points="183.383,-70.5701 193.801,-68.6436 184.456,-63.6528 183.383,-70.5701"/>
</g>
<!-- Node3 -->
<g id="node3" class="node"><title>Node3</title>
<g id="a_node3"><a xlink:href="class_suite_c_r_m_add_in_1_1_business_logic_1_1_synchroniser.html#a483e9fe3f7b8356dd85b53d7d4014f50" target="_top" xlink:title="Given a list of items which exist in Outlook but are missing from CRM, resolve how to handle them...">
<polygon fill="white" stroke="black" points="194,-0.5 194,-41.5 355,-41.5 355,-0.5 194,-0.5"/>
<text text-anchor="start" x="202" y="-29.5" font-family="Helvetica,sans-Serif" font-size="10.00">SuiteCRMAddIn.BusinessLogic.</text>
<text text-anchor="start" x="202" y="-18.5" font-family="Helvetica,sans-Serif" font-size="10.00">Synchroniser&lt; Outlook.TaskItem</text>
<text text-anchor="middle" x="274.5" y="-7.5" font-family="Helvetica,sans-Serif" font-size="10.00"> &gt;::ResolveUnmatchedItems</text>
</a>
</g>
</g>
<!-- Node1&#45;&gt;Node3 -->
<g id="edge2" class="edge"><title>Node1&#45;&gt;Node3</title>
<path fill="none" stroke="midnightblue" d="M158.146,-38.8843C166.59,-37.5752 175.23,-36.2357 183.796,-34.9076"/>
<polygon fill="midnightblue" stroke="midnightblue" points="184.456,-38.3472 193.801,-33.3564 183.383,-31.4299 184.456,-38.3472"/>
</g>
</g>
</svg>
