<?xml version="1.0" encoding="UTF-8" standalone="no"?>
<!DOCTYPE svg PUBLIC "-//W3C//DTD SVG 1.1//EN"
 "http://www.w3.org/Graphics/SVG/1.1/DTD/svg11.dtd">
<!-- Generated by graphviz version 2.38.0 (20140413.2041)
 -->
<!-- Title: SuiteCRMClient.clsSuiteCRMHelper.GetActivitiesLinks Pages: 1 -->
<svg width="849pt" height="196pt"
 viewBox="0.00 0.00 849.00 196.00" xmlns="http://www.w3.org/2000/svg" xmlns:xlink="http://www.w3.org/1999/xlink">
<g id="graph0" class="graph" transform="scale(1 1) rotate(0) translate(4 192)">
<title>SuiteCRMClient.clsSuiteCRMHelper.GetActivitiesLinks</title>
<polygon fill="white" stroke="none" points="-4,4 -4,-192 845,-192 845,4 -4,4"/>
<!-- Node1 -->
<g id="node1" class="node"><title>Node1</title>
<polygon fill="#bfbfbf" stroke="black" points="0,-130.5 0,-160.5 181,-160.5 181,-130.5 0,-130.5"/>
<text text-anchor="start" x="8" y="-148.5" font-family="Helvetica,sans-Serif" font-size="10.00">SuiteCRMClient.clsSuiteCRMHelper.</text>
<text text-anchor="middle" x="90.5" y="-137.5" font-family="Helvetica,sans-Serif" font-size="10.00">GetActivitiesLinks</text>
</g>
<!-- Node2 -->
<g id="node2" class="node"><title>Node2</title>
<g id="a_node2"><a xlink:href="class_suite_c_r_m_add_in_1_1_dialogs_1_1_archive_dialog.html#a1b2d6e63a13ef6a7a3331a99cbd122e7" target="_top" xlink:title="SuiteCRMAddIn.Dialogs.Archive\lDialog.Search">
<polygon fill="white" stroke="black" points="227.5,-157.5 227.5,-187.5 387.5,-187.5 387.5,-157.5 227.5,-157.5"/>
<text text-anchor="start" x="235.5" y="-175.5" font-family="Helvetica,sans-Serif" font-size="10.00">SuiteCRMAddIn.Dialogs.Archive</text>
<text text-anchor="middle" x="307.5" y="-164.5" font-family="Helvetica,sans-Serif" font-size="10.00">Dialog.Search</text>
</a>
</g>
</g>
<!-- Node1&#45;&gt;Node2 -->
<g id="edge1" class="edge"><title>Node1&#45;&gt;Node2</title>
<path fill="none" stroke="midnightblue" d="M191.237,-158.025C203.332,-159.544 215.558,-161.079 227.299,-162.554"/>
<polygon fill="midnightblue" stroke="midnightblue" points="191.481,-154.528 181.123,-156.755 190.608,-161.474 191.481,-154.528"/>
</g>
<!-- Node5 -->
<g id="node5" class="node"><title>Node5</title>
<g id="a_node5"><a xlink:href="class_suite_c_r_m_client_1_1cls_suite_c_r_m_helper.html#afdded880e1ddaad804a69c8789c8d268" target="_top" xlink:title="The protocols for how link fields are named vary. Try the most likely two possibilities, and log failures. ">
<polygon fill="white" stroke="black" points="217,-103.5 217,-133.5 398,-133.5 398,-103.5 217,-103.5"/>
<text text-anchor="start" x="225" y="-121.5" font-family="Helvetica,sans-Serif" font-size="10.00">SuiteCRMClient.clsSuiteCRMHelper.</text>
<text text-anchor="middle" x="307.5" y="-110.5" font-family="Helvetica,sans-Serif" font-size="10.00">TrySetRelationship</text>
</a>
</g>
</g>
<!-- Node1&#45;&gt;Node5 -->
<g id="edge5" class="edge"><title>Node1&#45;&gt;Node5</title>
<path fill="none" stroke="midnightblue" d="M191.095,-132.993C199.628,-131.921 208.227,-130.841 216.677,-129.78"/>
<polygon fill="midnightblue" stroke="midnightblue" points="190.608,-129.526 181.123,-134.245 191.481,-136.472 190.608,-129.526"/>
</g>
<!-- Node3 -->
<g id="node3" class="node"><title>Node3</title>
<g id="a_node3"><a xlink:href="class_suite_c_r_m_add_in_1_1_dialogs_1_1_archive_dialog.html#a3160bc88861f266746f9631068fc9ed7" target="_top" xlink:title="SuiteCRMAddIn.Dialogs.Archive\lDialog.btnSearch_Click">
<polygon fill="white" stroke="black" points="450.5,-157.5 450.5,-187.5 610.5,-187.5 610.5,-157.5 450.5,-157.5"/>
<text text-anchor="start" x="458.5" y="-175.5" font-family="Helvetica,sans-Serif" font-size="10.00">SuiteCRMAddIn.Dialogs.Archive</text>
<text text-anchor="middle" x="530.5" y="-164.5" font-family="Helvetica,sans-Serif" font-size="10.00">Dialog.btnSearch_Click</text>
</a>
</g>
</g>
<!-- Node2&#45;&gt;Node3 -->
<g id="edge2" class="edge"><title>Node2&#45;&gt;Node3</title>
<path fill="none" stroke="midnightblue" d="M397.77,-165.862C415.103,-165.677 433.16,-165.721 450.148,-165.994"/>
<polygon fill="midnightblue" stroke="midnightblue" points="397.614,-162.364 387.662,-165.997 397.708,-169.363 397.614,-162.364"/>
</g>
<!-- Node3&#45;&gt;Node2 -->
<g id="edge3" class="edge"><title>Node3&#45;&gt;Node2</title>
<path fill="none" stroke="midnightblue" d="M440.036,-179.14C422.697,-179.323 404.642,-179.277 387.662,-179.003"/>
<polygon fill="midnightblue" stroke="midnightblue" points="440.195,-182.638 450.148,-179.006 440.102,-175.639 440.195,-182.638"/>
</g>
<!-- Node4 -->
<g id="node4" class="node"><title>Node4</title>
<g id="a_node4"><a xlink:href="class_suite_c_r_m_add_in_1_1_dialogs_1_1_archive_dialog.html#a1f34c87c999c13b787aab281472014cd" target="_top" xlink:title="Clean up any resources being used. ">
<polygon fill="white" stroke="black" points="672,-157.5 672,-187.5 832,-187.5 832,-157.5 672,-157.5"/>
<text text-anchor="start" x="680" y="-175.5" font-family="Helvetica,sans-Serif" font-size="10.00">SuiteCRMAddIn.Dialogs.Archive</text>
<text text-anchor="middle" x="752" y="-164.5" font-family="Helvetica,sans-Serif" font-size="10.00">Dialog.Dispose</text>
</a>
</g>
</g>
<!-- Node3&#45;&gt;Node4 -->
<g id="edge4" class="edge"><title>Node3&#45;&gt;Node4</title>
<path fill="none" stroke="midnightblue" d="M621.116,-172.5C637.933,-172.5 655.402,-172.5 671.872,-172.5"/>
<polygon fill="midnightblue" stroke="midnightblue" points="620.745,-169 610.745,-172.5 620.745,-176 620.745,-169"/>
</g>
<!-- Node6 -->
<g id="node6" class="node"><title>Node6</title>
<g id="a_node6"><a xlink:href="class_suite_c_r_m_add_in_1_1_business_logic_1_1_email_archiving.html#a0e634b04d9750379118745f192d75a53" target="_top" xlink:title="SuiteCRMAddIn.BusinessLogic.\lEmailArchiving.CreateEmailRelationship\lOrFail">
<polygon fill="white" stroke="black" points="434,-98 434,-139 627,-139 627,-98 434,-98"/>
<text text-anchor="start" x="442" y="-127" font-family="Helvetica,sans-Serif" font-size="10.00">SuiteCRMAddIn.BusinessLogic.</text>
<text text-anchor="start" x="442" y="-116" font-family="Helvetica,sans-Serif" font-size="10.00">EmailArchiving.CreateEmailRelationship</text>
<text text-anchor="middle" x="530.5" y="-105" font-family="Helvetica,sans-Serif" font-size="10.00">OrFail</text>
</a>
</g>
</g>
<!-- Node5&#45;&gt;Node6 -->
<g id="edge6" class="edge"><title>Node5&#45;&gt;Node6</title>
<path fill="none" stroke="midnightblue" d="M408.307,-118.5C416.745,-118.5 425.266,-118.5 433.672,-118.5"/>
<polygon fill="midnightblue" stroke="midnightblue" points="408.071,-115 398.071,-118.5 408.071,-122 408.071,-115"/>
</g>
<!-- Node8 -->
<g id="node8" class="node"><title>Node8</title>
<g id="a_node8"><a xlink:href="class_suite_c_r_m_client_1_1cls_suite_c_r_m_helper.html#a8f51774a4b5d0dcd199c7a5b72ea4096" target="_top" xlink:title="Sets a CRM relationship and returns boolean success. &#39;Unsafe&#39; because most callers ignore the result...">
<polygon fill="white" stroke="black" points="440,-49.5 440,-79.5 621,-79.5 621,-49.5 440,-49.5"/>
<text text-anchor="start" x="448" y="-67.5" font-family="Helvetica,sans-Serif" font-size="10.00">SuiteCRMClient.clsSuiteCRMHelper.</text>
<text text-anchor="middle" x="530.5" y="-56.5" font-family="Helvetica,sans-Serif" font-size="10.00">SetRelationshipUnsafe</text>
</a>
</g>
</g>
<!-- Node5&#45;&gt;Node8 -->
<g id="edge8" class="edge"><title>Node5&#45;&gt;Node8</title>
<path fill="none" stroke="midnightblue" d="M379.913,-101.051C408.272,-94.1213 440.575,-86.2284 467.886,-79.5549"/>
<polygon fill="midnightblue" stroke="midnightblue" points="378.944,-97.6843 370.061,-103.458 380.606,-104.484 378.944,-97.6843"/>
</g>
<!-- Node7 -->
<g id="node7" class="node"><title>Node7</title>
<g id="a_node7"><a xlink:href="class_suite_c_r_m_add_in_1_1_business_logic_1_1_email_archiving.html#a0dcfbb2286b3d50c3ea8863705b19501" target="_top" xlink:title="SuiteCRMAddIn.BusinessLogic.\lEmailArchiving.ArchiveEmailWith\lEntityRelationships">
<polygon fill="white" stroke="black" points="670.5,-98 670.5,-139 833.5,-139 833.5,-98 670.5,-98"/>
<text text-anchor="start" x="678.5" y="-127" font-family="Helvetica,sans-Serif" font-size="10.00">SuiteCRMAddIn.BusinessLogic.</text>
<text text-anchor="start" x="678.5" y="-116" font-family="Helvetica,sans-Serif" font-size="10.00">EmailArchiving.ArchiveEmailWith</text>
<text text-anchor="middle" x="752" y="-105" font-family="Helvetica,sans-Serif" font-size="10.00">EntityRelationships</text>
</a>
</g>
</g>
<!-- Node6&#45;&gt;Node7 -->
<g id="edge7" class="edge"><title>Node6&#45;&gt;Node7</title>
<path fill="none" stroke="midnightblue" d="M637.333,-118.5C648.465,-118.5 659.651,-118.5 670.432,-118.5"/>
<polygon fill="midnightblue" stroke="midnightblue" points="637.137,-115 627.137,-118.5 637.137,-122 637.137,-115"/>
</g>
<!-- Node9 -->
<g id="node9" class="node"><title>Node9</title>
<g id="a_node9"><a xlink:href="class_suite_c_r_m_add_in_1_1_business_logic_1_1_appointment_syncing.html#a5d2d80bf950c4a4fd241610e65bd4713" target="_top" xlink:title="SuiteCRMAddIn.BusinessLogic.\lAppointmentSyncing.IsMatch">
<polygon fill="white" stroke="black" points="673,-49.5 673,-79.5 831,-79.5 831,-49.5 673,-49.5"/>
<text text-anchor="start" x="681" y="-67.5" font-family="Helvetica,sans-Serif" font-size="10.00">SuiteCRMAddIn.BusinessLogic.</text>
<text text-anchor="middle" x="752" y="-56.5" font-family="Helvetica,sans-Serif" font-size="10.00">AppointmentSyncing.IsMatch</text>
</a>
</g>
</g>
<!-- Node8&#45;&gt;Node9 -->
<g id="edge9" class="edge"><title>Node8&#45;&gt;Node9</title>
<path fill="none" stroke="midnightblue" d="M631.232,-64.5C645.224,-64.5 659.435,-64.5 672.946,-64.5"/>
<polygon fill="midnightblue" stroke="midnightblue" points="631.096,-61.0001 621.096,-64.5 631.096,-68.0001 631.096,-61.0001"/>
</g>
<!-- Node10 -->
<g id="node10" class="node"><title>Node10</title>
<g id="a_node10"><a xlink:href="class_suite_c_r_m_add_in_1_1_business_logic_1_1_contact_syncing.html#a20441ed5d82c529e624bba3ef7571e36" target="_top" xlink:title="SuiteCRMAddIn.BusinessLogic.\lContactSyncing.ConstructSyncState">
<polygon fill="white" stroke="black" points="663,-0.5 663,-30.5 841,-30.5 841,-0.5 663,-0.5"/>
<text text-anchor="start" x="671" y="-18.5" font-family="Helvetica,sans-Serif" font-size="10.00">SuiteCRMAddIn.BusinessLogic.</text>
<text text-anchor="middle" x="752" y="-7.5" font-family="Helvetica,sans-Serif" font-size="10.00">ContactSyncing.ConstructSyncState</text>
</a>
</g>
</g>
<!-- Node8&#45;&gt;Node10 -->
<g id="edge10" class="edge"><title>Node8&#45;&gt;Node10</title>
<path fill="none" stroke="midnightblue" d="M608.809,-47.2419C633.267,-41.782 660.087,-35.795 683.778,-30.5062"/>
<polygon fill="midnightblue" stroke="midnightblue" points="607.846,-43.8707 598.849,-49.4654 609.371,-50.7025 607.846,-43.8707"/>
</g>
</g>
</svg>
