<?xml version="1.0" encoding="UTF-8" standalone="no"?>
<!DOCTYPE svg PUBLIC "-//W3C//DTD SVG 1.1//EN"
 "http://www.w3.org/Graphics/SVG/1.1/DTD/svg11.dtd">
<!-- Generated by graphviz version 2.38.0 (20140413.2041)
 -->
<!-- Title: SuiteCRMAddIn.BusinessLogic.Synchroniser.GetDefaultFolder Pages: 1 -->
<svg width="376pt" height="230pt"
 viewBox="0.00 0.00 376.00 230.00" xmlns="http://www.w3.org/2000/svg" xmlns:xlink="http://www.w3.org/1999/xlink">
<g id="graph0" class="graph" transform="scale(1 1) rotate(0) translate(4 226)">
<title>SuiteCRMAddIn.BusinessLogic.Synchroniser.GetDefaultFolder</title>
<polygon fill="white" stroke="none" points="-4,4 -4,-226 372,-226 372,4 -4,4"/>
<!-- Node1 -->
<g id="node1" class="node"><title>Node1</title>
<polygon fill="#bfbfbf" stroke="black" points="0,-96 0,-126 158,-126 158,-96 0,-96"/>
<text text-anchor="start" x="8" y="-114" font-family="Helvetica,sans-Serif" font-size="10.00">SuiteCRMAddIn.BusinessLogic.</text>
<text text-anchor="middle" x="79" y="-103" font-family="Helvetica,sans-Serif" font-size="10.00">Synchroniser.GetDefaultFolder</text>
</g>
<!-- Node2 -->
<g id="node2" class="node"><title>Node2</title>
<g id="a_node2"><a xlink:href="class_suite_c_r_m_add_in_1_1_business_logic_1_1_synchroniser.html#a442d98ec1e21c06b8f658c91e0f44be1" target="_top" xlink:title="Construct a new instance of a synchroniser with this thread name and context. ">
<polygon fill="white" stroke="black" points="194,-180.5 194,-221.5 368,-221.5 368,-180.5 194,-180.5"/>
<text text-anchor="start" x="202" y="-209.5" font-family="Helvetica,sans-Serif" font-size="10.00">SuiteCRMAddIn.BusinessLogic.</text>
<text text-anchor="start" x="202" y="-198.5" font-family="Helvetica,sans-Serif" font-size="10.00">Synchroniser&lt; Outlook.Appointment</text>
<text text-anchor="middle" x="281" y="-187.5" font-family="Helvetica,sans-Serif" font-size="10.00">Item &gt;::Synchroniser</text>
</a>
</g>
</g>
<!-- Node1&#45;&gt;Node2 -->
<g id="edge1" class="edge"><title>Node1&#45;&gt;Node2</title>
<path fill="none" stroke="midnightblue" d="M114.912,-131.11C137.143,-143.477 166.778,-159.167 194,-171 201.541,-174.278 209.567,-177.462 217.569,-180.455"/>
<polygon fill="midnightblue" stroke="midnightblue" points="116.605,-128.046 106.171,-126.206 113.18,-134.151 116.605,-128.046"/>
</g>
<!-- Node3 -->
<g id="node3" class="node"><title>Node3</title>
<g id="a_node3"><a xlink:href="class_suite_c_r_m_add_in_1_1_business_logic_1_1_synchroniser.html#ae4ab7ed23cae7151e664c2c88ebcf700" target="_top" xlink:title="Run a single iteration of the synchronisation process for the items for which I am responsible...">
<polygon fill="white" stroke="black" points="194,-120.5 194,-161.5 368,-161.5 368,-120.5 194,-120.5"/>
<text text-anchor="start" x="202" y="-149.5" font-family="Helvetica,sans-Serif" font-size="10.00">SuiteCRMAddIn.BusinessLogic.</text>
<text text-anchor="start" x="202" y="-138.5" font-family="Helvetica,sans-Serif" font-size="10.00">Synchroniser&lt; Outlook.Appointment</text>
<text text-anchor="middle" x="281" y="-127.5" font-family="Helvetica,sans-Serif" font-size="10.00">Item &gt;::SynchroniseAll</text>
</a>
</g>
</g>
<!-- Node1&#45;&gt;Node3 -->
<g id="edge2" class="edge"><title>Node1&#45;&gt;Node3</title>
<path fill="none" stroke="midnightblue" d="M168.16,-124.224C176.717,-125.508 185.391,-126.809 193.927,-128.089"/>
<polygon fill="midnightblue" stroke="midnightblue" points="168.593,-120.75 158.185,-122.728 167.555,-127.672 168.593,-120.75"/>
</g>
<!-- Node4 -->
<g id="node4" class="node"><title>Node4</title>
<g id="a_node4"><a xlink:href="class_suite_c_r_m_add_in_1_1_business_logic_1_1_synchroniser.html#a1cdd24df65f5475d8911465ed70859f0" target="_top" xlink:title="SuiteCRMAddIn.BusinessLogic.\lSynchroniser\&lt; Outlook.Appointment\lItem \&gt;::InstallEventHandlers">
<polygon fill="white" stroke="black" points="194,-60.5 194,-101.5 368,-101.5 368,-60.5 194,-60.5"/>
<text text-anchor="start" x="202" y="-89.5" font-family="Helvetica,sans-Serif" font-size="10.00">SuiteCRMAddIn.BusinessLogic.</text>
<text text-anchor="start" x="202" y="-78.5" font-family="Helvetica,sans-Serif" font-size="10.00">Synchroniser&lt; Outlook.Appointment</text>
<text text-anchor="middle" x="281" y="-67.5" font-family="Helvetica,sans-Serif" font-size="10.00">Item &gt;::InstallEventHandlers</text>
</a>
</g>
</g>
<!-- Node1&#45;&gt;Node4 -->
<g id="edge3" class="edge"><title>Node1&#45;&gt;Node4</title>
<path fill="none" stroke="midnightblue" d="M168.16,-97.776C176.717,-96.4925 185.391,-95.1914 193.927,-93.911"/>
<polygon fill="midnightblue" stroke="midnightblue" points="167.555,-94.3276 158.185,-99.2723 168.593,-101.25 167.555,-94.3276"/>
</g>
<!-- Node5 -->
<g id="node5" class="node"><title>Node5</title>
<g id="a_node5"><a xlink:href="class_suite_c_r_m_add_in_1_1_business_logic_1_1_synchroniser.html#a39a299e28dff602fec9c2291328e27d4" target="_top" xlink:title="Entry point from event handler, called when an Outlook item of class AppointmentItem is believed to h...">
<polygon fill="white" stroke="black" points="194,-0.5 194,-41.5 368,-41.5 368,-0.5 194,-0.5"/>
<text text-anchor="start" x="202" y="-29.5" font-family="Helvetica,sans-Serif" font-size="10.00">SuiteCRMAddIn.BusinessLogic.</text>
<text text-anchor="start" x="202" y="-18.5" font-family="Helvetica,sans-Serif" font-size="10.00">Synchroniser&lt; Outlook.Appointment</text>
<text text-anchor="middle" x="281" y="-7.5" font-family="Helvetica,sans-Serif" font-size="10.00">Item &gt;::OutlookItemChanged</text>
</a>
</g>
</g>
<!-- Node1&#45;&gt;Node5 -->
<g id="edge4" class="edge"><title>Node1&#45;&gt;Node5</title>
<path fill="none" stroke="midnightblue" d="M114.912,-90.89C137.143,-78.5228 166.778,-62.8333 194,-51 201.541,-47.7219 209.567,-44.5378 217.569,-41.5446"/>
<polygon fill="midnightblue" stroke="midnightblue" points="113.18,-87.8486 106.171,-95.7938 116.605,-93.9536 113.18,-87.8486"/>
</g>
</g>
</svg>
