<?xml version="1.0" encoding="UTF-8" standalone="no"?>
<!DOCTYPE svg PUBLIC "-//W3C//DTD SVG 1.1//EN"
 "http://www.w3.org/Graphics/SVG/1.1/DTD/svg11.dtd">
<!-- Generated by graphviz version 2.38.0 (20140413.2041)
 -->
<!-- Title: SuiteCRMAddIn.BusinessLogic.EmailArchiving.ArchiveEmailWithEntityRelationships Pages: 1 -->
<svg width="1268pt" height="99pt"
 viewBox="0.00 0.00 1268.00 98.50" xmlns="http://www.w3.org/2000/svg" xmlns:xlink="http://www.w3.org/1999/xlink">
<g id="graph0" class="graph" transform="scale(1 1) rotate(0) translate(4 94.5)">
<title>SuiteCRMAddIn.BusinessLogic.EmailArchiving.ArchiveEmailWithEntityRelationships</title>
<polygon fill="white" stroke="none" points="-4,4 -4,-94.5 1264,-94.5 1264,4 -4,4"/>
<!-- Node1 -->
<g id="node1" class="node"><title>Node1</title>
<polygon fill="#bfbfbf" stroke="black" points="0,-27.5 0,-68.5 163,-68.5 163,-27.5 0,-27.5"/>
<text text-anchor="start" x="8" y="-56.5" font-family="Helvetica,sans-Serif" font-size="10.00">SuiteCRMAddIn.BusinessLogic.</text>
<text text-anchor="start" x="8" y="-45.5" font-family="Helvetica,sans-Serif" font-size="10.00">EmailArchiving.ArchiveEmailWith</text>
<text text-anchor="middle" x="81.5" y="-34.5" font-family="Helvetica,sans-Serif" font-size="10.00">EntityRelationships</text>
</g>
<!-- Node2 -->
<g id="node2" class="node"><title>Node2</title>
<g id="a_node2"><a xlink:href="class_suite_c_r_m_client_1_1_email_1_1_archive_result.html#acdd4c7fbb608c683a25bb71e53c04481" target="_top" xlink:title="SuiteCRMClient.Email.Archive\lResult.Success">
<polygon fill="white" stroke="black" points="219.5,-60 219.5,-90 371.5,-90 371.5,-60 219.5,-60"/>
<text text-anchor="start" x="227.5" y="-78" font-family="Helvetica,sans-Serif" font-size="10.00">SuiteCRMClient.Email.Archive</text>
<text text-anchor="middle" x="295.5" y="-67" font-family="Helvetica,sans-Serif" font-size="10.00">Result.Success</text>
</a>
</g>
</g>
<!-- Node1&#45;&gt;Node2 -->
<g id="edge1" class="edge"><title>Node1&#45;&gt;Node2</title>
<path fill="none" stroke="midnightblue" d="M163.253,-58.2846C178.179,-60.1856 193.815,-62.1769 208.88,-64.0956"/>
<polygon fill="midnightblue" stroke="midnightblue" points="208.841,-67.6188 219.203,-65.4103 209.725,-60.6749 208.841,-67.6188"/>
</g>
<!-- Node3 -->
<g id="node3" class="node"><title>Node3</title>
<g id="a_node3"><a xlink:href="class_suite_c_r_m_add_in_1_1_business_logic_1_1_email_archiving.html#a0e634b04d9750379118745f192d75a53" target="_top" xlink:title="SuiteCRMAddIn.BusinessLogic.\lEmailArchiving.CreateEmailRelationship\lOrFail">
<polygon fill="white" stroke="black" points="199,-0.5 199,-41.5 392,-41.5 392,-0.5 199,-0.5"/>
<text text-anchor="start" x="207" y="-29.5" font-family="Helvetica,sans-Serif" font-size="10.00">SuiteCRMAddIn.BusinessLogic.</text>
<text text-anchor="start" x="207" y="-18.5" font-family="Helvetica,sans-Serif" font-size="10.00">EmailArchiving.CreateEmailRelationship</text>
<text text-anchor="middle" x="295.5" y="-7.5" font-family="Helvetica,sans-Serif" font-size="10.00">OrFail</text>
</a>
</g>
</g>
<!-- Node1&#45;&gt;Node3 -->
<g id="edge2" class="edge"><title>Node1&#45;&gt;Node3</title>
<path fill="none" stroke="midnightblue" d="M163.253,-37.7154C171.579,-36.655 180.126,-35.5665 188.672,-34.4782"/>
<polygon fill="midnightblue" stroke="midnightblue" points="189.211,-37.9377 198.689,-33.2023 188.327,-30.9938 189.211,-37.9377"/>
</g>
<!-- Node4 -->
<g id="node4" class="node"><title>Node4</title>
<g id="a_node4"><a xlink:href="class_suite_c_r_m_client_1_1cls_suite_c_r_m_helper.html#afdded880e1ddaad804a69c8789c8d268" target="_top" xlink:title="The protocols for how link fields are named vary. Try the most likely two possibilities, and log failures. ">
<polygon fill="white" stroke="black" points="428,-6 428,-36 609,-36 609,-6 428,-6"/>
<text text-anchor="start" x="436" y="-24" font-family="Helvetica,sans-Serif" font-size="10.00">SuiteCRMClient.clsSuiteCRMHelper.</text>
<text text-anchor="middle" x="518.5" y="-13" font-family="Helvetica,sans-Serif" font-size="10.00">TrySetRelationship</text>
</a>
</g>
</g>
<!-- Node3&#45;&gt;Node4 -->
<g id="edge3" class="edge"><title>Node3&#45;&gt;Node4</title>
<path fill="none" stroke="midnightblue" d="M392.148,-21C400.701,-21 409.374,-21 417.958,-21"/>
<polygon fill="midnightblue" stroke="midnightblue" points="417.982,-24.5001 427.982,-21 417.982,-17.5001 417.982,-24.5001"/>
</g>
<!-- Node5 -->
<g id="node5" class="node"><title>Node5</title>
<g id="a_node5"><a xlink:href="class_suite_c_r_m_client_1_1cls_suite_c_r_m_helper.html#a54a65e000ff00bb87a5e8bf5e2ef8d43" target="_top" xlink:title="Find the fields, among the fields of this module, which are links and where the name of the relations...">
<polygon fill="white" stroke="black" points="645,-6 645,-36 826,-36 826,-6 645,-6"/>
<text text-anchor="start" x="653" y="-24" font-family="Helvetica,sans-Serif" font-size="10.00">SuiteCRMClient.clsSuiteCRMHelper.</text>
<text text-anchor="middle" x="735.5" y="-13" font-family="Helvetica,sans-Serif" font-size="10.00">GetActivitiesLinks</text>
</a>
</g>
</g>
<!-- Node4&#45;&gt;Node5 -->
<g id="edge4" class="edge"><title>Node4&#45;&gt;Node5</title>
<path fill="none" stroke="midnightblue" d="M609.123,-21C617.478,-21 625.982,-21 634.424,-21"/>
<polygon fill="midnightblue" stroke="midnightblue" points="634.677,-24.5001 644.677,-21 634.677,-17.5001 634.677,-24.5001"/>
</g>
<!-- Node6 -->
<g id="node6" class="node"><title>Node6</title>
<g id="a_node6"><a xlink:href="class_suite_c_r_m_client_1_1cls_suite_c_r_m_helper.html#aae0adc545d51a81ed1297ceaa8b1522a" target="_top" xlink:title="Get the module fields data for the module with this name, if any. ">
<polygon fill="white" stroke="black" points="862,-6 862,-36 1043,-36 1043,-6 862,-6"/>
<text text-anchor="start" x="870" y="-24" font-family="Helvetica,sans-Serif" font-size="10.00">SuiteCRMClient.clsSuiteCRMHelper.</text>
<text text-anchor="middle" x="952.5" y="-13" font-family="Helvetica,sans-Serif" font-size="10.00">GetFieldsForModule</text>
</a>
</g>
</g>
<!-- Node5&#45;&gt;Node6 -->
<g id="edge5" class="edge"><title>Node5&#45;&gt;Node6</title>
<path fill="none" stroke="midnightblue" d="M826.123,-21C834.478,-21 842.982,-21 851.424,-21"/>
<polygon fill="midnightblue" stroke="midnightblue" points="851.677,-24.5001 861.677,-21 851.677,-17.5001 851.677,-24.5001"/>
</g>
<!-- Node7 -->
<g id="node7" class="node"><title>Node7</title>
<g id="a_node7"><a xlink:href="class_suite_c_r_m_client_1_1cls_suite_c_r_m_helper.html#a80f04ec3ab185a736b6633c0df69c536" target="_top" xlink:title="SuiteCRMClient.clsSuiteCRMHelper.\lEnsureLoggedIn">
<polygon fill="white" stroke="black" points="1079,-6 1079,-36 1260,-36 1260,-6 1079,-6"/>
<text text-anchor="start" x="1087" y="-24" font-family="Helvetica,sans-Serif" font-size="10.00">SuiteCRMClient.clsSuiteCRMHelper.</text>
<text text-anchor="middle" x="1169.5" y="-13" font-family="Helvetica,sans-Serif" font-size="10.00">EnsureLoggedIn</text>
</a>
</g>
</g>
<!-- Node6&#45;&gt;Node7 -->
<g id="edge6" class="edge"><title>Node6&#45;&gt;Node7</title>
<path fill="none" stroke="midnightblue" d="M1043.12,-21C1051.48,-21 1059.98,-21 1068.42,-21"/>
<polygon fill="midnightblue" stroke="midnightblue" points="1068.68,-24.5001 1078.68,-21 1068.68,-17.5001 1068.68,-24.5001"/>
</g>
</g>
</svg>
