<?xml version="1.0" encoding="UTF-8" standalone="no"?>
<!DOCTYPE svg PUBLIC "-//W3C//DTD SVG 1.1//EN"
 "http://www.w3.org/Graphics/SVG/1.1/DTD/svg11.dtd">
<!-- Generated by graphviz version 2.38.0 (20140413.2041)
 -->
<!-- Title: SuiteCRMClient.clsSuiteCRMHelper.SetNameValuePair Pages: 1 -->
<svg width="577pt" height="221pt"
 viewBox="0.00 0.00 577.00 220.50" xmlns="http://www.w3.org/2000/svg" xmlns:xlink="http://www.w3.org/1999/xlink">
<g id="graph0" class="graph" transform="scale(1 1) rotate(0) translate(4 216.5)">
<title>SuiteCRMClient.clsSuiteCRMHelper.SetNameValuePair</title>
<polygon fill="white" stroke="none" points="-4,4 -4,-216.5 573,-216.5 573,4 -4,4"/>
<!-- Node1 -->
<g id="node1" class="node"><title>Node1</title>
<polygon fill="#bfbfbf" stroke="black" points="0,-97.5 0,-127.5 181,-127.5 181,-97.5 0,-97.5"/>
<text text-anchor="start" x="8" y="-115.5" font-family="Helvetica,sans-Serif" font-size="10.00">SuiteCRMClient.clsSuiteCRMHelper.</text>
<text text-anchor="middle" x="90.5" y="-104.5" font-family="Helvetica,sans-Serif" font-size="10.00">SetNameValuePair</text>
</g>
<!-- Node2 -->
<g id="node2" class="node"><title>Node2</title>
<g id="a_node2"><a xlink:href="class_suite_c_r_m_add_in_1_1_business_logic_1_1_synchroniser.html#a3df7723090576b81797aa38a31eb67aa" target="_top" xlink:title="Remove the item implied by this sync state from CRM. ">
<polygon fill="white" stroke="black" points="217,-171 217,-212 391,-212 391,-171 217,-171"/>
<text text-anchor="start" x="225" y="-200" font-family="Helvetica,sans-Serif" font-size="10.00">SuiteCRMAddIn.BusinessLogic.</text>
<text text-anchor="start" x="225" y="-189" font-family="Helvetica,sans-Serif" font-size="10.00">Synchroniser&lt; Outlook.Appointment</text>
<text text-anchor="middle" x="304" y="-178" font-family="Helvetica,sans-Serif" font-size="10.00">Item &gt;::RemoveFromCrm</text>
</a>
</g>
</g>
<!-- Node1&#45;&gt;Node2 -->
<g id="edge1" class="edge"><title>Node1&#45;&gt;Node2</title>
<path fill="none" stroke="midnightblue" d="M137.258,-131.418C160.942,-141.034 190.396,-152.723 217,-162.5 224.691,-165.326 232.805,-168.201 240.854,-170.988"/>
<polygon fill="midnightblue" stroke="midnightblue" points="138.401,-128.104 127.82,-127.571 135.759,-134.586 138.401,-128.104"/>
</g>
<!-- Node3 -->
<g id="node3" class="node"><title>Node3</title>
<g id="a_node3"><a xlink:href="class_suite_c_r_m_add_in_1_1_proto_items_1_1_proto_appointment.html#a98c232151162aef4b32084ca5648cf4c" target="_top" xlink:title="SuiteCRMAddIn.ProtoItems.\lProtoAppointment.AsNameValues">
<polygon fill="white" stroke="black" points="221,-122.5 221,-152.5 387,-152.5 387,-122.5 221,-122.5"/>
<text text-anchor="start" x="229" y="-140.5" font-family="Helvetica,sans-Serif" font-size="10.00">SuiteCRMAddIn.ProtoItems.</text>
<text text-anchor="middle" x="304" y="-129.5" font-family="Helvetica,sans-Serif" font-size="10.00">ProtoAppointment.AsNameValues</text>
</a>
</g>
</g>
<!-- Node1&#45;&gt;Node3 -->
<g id="edge2" class="edge"><title>Node1&#45;&gt;Node3</title>
<path fill="none" stroke="midnightblue" d="M191.437,-124.313C201.302,-125.479 211.235,-126.653 220.89,-127.794"/>
<polygon fill="midnightblue" stroke="midnightblue" points="191.537,-120.8 181.195,-123.102 190.715,-127.752 191.537,-120.8"/>
</g>
<!-- Node4 -->
<g id="node4" class="node"><title>Node4</title>
<g id="a_node4"><a xlink:href="class_suite_c_r_m_add_in_1_1_proto_items_1_1_proto_contact.html#a491dedc0d84e767185d36c92638ae94e" target="_top" xlink:title="SuiteCRMAddIn.ProtoItems.\lProtoContact.AsNameValues">
<polygon fill="white" stroke="black" points="231,-73.5 231,-103.5 377,-103.5 377,-73.5 231,-73.5"/>
<text text-anchor="start" x="239" y="-91.5" font-family="Helvetica,sans-Serif" font-size="10.00">SuiteCRMAddIn.ProtoItems.</text>
<text text-anchor="middle" x="304" y="-80.5" font-family="Helvetica,sans-Serif" font-size="10.00">ProtoContact.AsNameValues</text>
</a>
</g>
</g>
<!-- Node1&#45;&gt;Node4 -->
<g id="edge3" class="edge"><title>Node1&#45;&gt;Node4</title>
<path fill="none" stroke="midnightblue" d="M191.333,-101.171C204.64,-99.6614 218.073,-98.1371 230.784,-96.6947"/>
<polygon fill="midnightblue" stroke="midnightblue" points="190.737,-97.7166 181.195,-102.322 191.526,-104.672 190.737,-97.7166"/>
</g>
<!-- Node5 -->
<g id="node5" class="node"><title>Node5</title>
<g id="a_node5"><a xlink:href="class_suite_c_r_m_add_in_1_1_proto_items_1_1_proto_task.html#adcb8a1086d740e37605bee0eefb2c45e" target="_top" xlink:title="Construct a name value list (to be serialised as JSON) representing this task. ">
<polygon fill="white" stroke="black" points="233,-24.5 233,-54.5 375,-54.5 375,-24.5 233,-24.5"/>
<text text-anchor="start" x="241" y="-42.5" font-family="Helvetica,sans-Serif" font-size="10.00">SuiteCRMAddIn.ProtoItems.</text>
<text text-anchor="middle" x="304" y="-31.5" font-family="Helvetica,sans-Serif" font-size="10.00">ProtoTask.AsNameValues</text>
</a>
</g>
</g>
<!-- Node1&#45;&gt;Node5 -->
<g id="edge4" class="edge"><title>Node1&#45;&gt;Node5</title>
<path fill="none" stroke="midnightblue" d="M137.935,-93.6919C161.459,-84.4319 190.568,-73.3798 217,-64.5 227.17,-61.0834 238.105,-57.6924 248.655,-54.5614"/>
<polygon fill="midnightblue" stroke="midnightblue" points="136.56,-90.4715 128.551,-97.4069 139.137,-96.98 136.56,-90.4715"/>
</g>
<!-- Node6 -->
<g id="node6" class="node"><title>Node6</title>
<g id="a_node6"><a xlink:href="class_suite_c_r_m_add_in_1_1_proto_items_1_1_proto_task.html#a2b1bdedb419b72c23c54796b65c7b0e6" target="_top" xlink:title="True if other is also a ProtoTask I have identically the same content as other. ">
<polygon fill="white" stroke="black" points="427,-49.5 427,-79.5 569,-79.5 569,-49.5 427,-49.5"/>
<text text-anchor="start" x="435" y="-67.5" font-family="Helvetica,sans-Serif" font-size="10.00">SuiteCRMAddIn.ProtoItems.</text>
<text text-anchor="middle" x="498" y="-56.5" font-family="Helvetica,sans-Serif" font-size="10.00">ProtoTask.Equals</text>
</a>
</g>
</g>
<!-- Node5&#45;&gt;Node6 -->
<g id="edge5" class="edge"><title>Node5&#45;&gt;Node6</title>
<path fill="none" stroke="midnightblue" d="M385.1,-49.9297C398.923,-51.7296 413.199,-53.5884 426.737,-55.3512"/>
<polygon fill="midnightblue" stroke="midnightblue" points="385.5,-46.4523 375.131,-48.6317 384.596,-53.3937 385.5,-46.4523"/>
</g>
<!-- Node7 -->
<g id="node7" class="node"><title>Node7</title>
<g id="a_node7"><a xlink:href="class_suite_c_r_m_add_in_1_1_proto_items_1_1_proto_task.html#ae0cfb00032214ff9e0b3a8280e3b93bf" target="_top" xlink:title="I&#39;m very like a dictionary constructed from my names/values, but not quite. ">
<polygon fill="white" stroke="black" points="427,-0.5 427,-30.5 569,-30.5 569,-0.5 427,-0.5"/>
<text text-anchor="start" x="435" y="-18.5" font-family="Helvetica,sans-Serif" font-size="10.00">SuiteCRMAddIn.ProtoItems.</text>
<text text-anchor="middle" x="498" y="-7.5" font-family="Helvetica,sans-Serif" font-size="10.00">ProtoTask.GetHashCode</text>
</a>
</g>
</g>
<!-- Node5&#45;&gt;Node7 -->
<g id="edge6" class="edge"><title>Node5&#45;&gt;Node7</title>
<path fill="none" stroke="midnightblue" d="M385.1,-29.4875C398.923,-27.7596 413.199,-25.9751 426.737,-24.2828"/>
<polygon fill="midnightblue" stroke="midnightblue" points="384.62,-26.0202 375.131,-30.7336 385.488,-32.9661 384.62,-26.0202"/>
</g>
</g>
</svg>
