<?xml version="1.0" encoding="UTF-8" standalone="no"?>
<!DOCTYPE svg PUBLIC "-//W3C//DTD SVG 1.1//EN"
 "http://www.w3.org/Graphics/SVG/1.1/DTD/svg11.dtd">
<!-- Generated by graphviz version 2.38.0 (20140413.2041)
 -->
<!-- Title: SuiteCRMAddIn.BusinessLogic.AppointmentSyncing.SynchroniseAll Pages: 1 -->
<svg width="1359pt" height="461pt"
 viewBox="0.00 0.00 1359.00 460.50" xmlns="http://www.w3.org/2000/svg" xmlns:xlink="http://www.w3.org/1999/xlink">
<g id="graph0" class="graph" transform="scale(1 1) rotate(0) translate(4 456.5)">
<title>SuiteCRMAddIn.BusinessLogic.AppointmentSyncing.SynchroniseAll</title>
<polygon fill="white" stroke="none" points="-4,4 -4,-456.5 1355,-456.5 1355,4 -4,4"/>
<!-- Node1 -->
<g id="node1" class="node"><title>Node1</title>
<polygon fill="#bfbfbf" stroke="black" points="0,-158 0,-188 175,-188 175,-158 0,-158"/>
<text text-anchor="start" x="8" y="-176" font-family="Helvetica,sans-Serif" font-size="10.00">SuiteCRMAddIn.BusinessLogic.</text>
<text text-anchor="middle" x="87.5" y="-165" font-family="Helvetica,sans-Serif" font-size="10.00">AppointmentSyncing.SynchroniseAll</text>
</g>
<!-- Node2 -->
<g id="node2" class="node"><title>Node2</title>
<g id="a_node2"><a xlink:href="class_suite_c_r_m_add_in_1_1_business_logic_1_1_appointment_syncing.html#af477f9f681874a701880737a2383b5fc" target="_top" xlink:title="Synchronise items in the specified folder with the specified SuiteCRM module. ">
<polygon fill="white" stroke="black" points="223.5,-183 223.5,-213 382.5,-213 382.5,-183 223.5,-183"/>
<text text-anchor="start" x="231.5" y="-201" font-family="Helvetica,sans-Serif" font-size="10.00">SuiteCRMAddIn.BusinessLogic.</text>
<text text-anchor="middle" x="303" y="-190" font-family="Helvetica,sans-Serif" font-size="10.00">AppointmentSyncing.SyncFolder</text>
</a>
</g>
</g>
<!-- Node1&#45;&gt;Node2 -->
<g id="edge1" class="edge"><title>Node1&#45;&gt;Node2</title>
<path fill="none" stroke="midnightblue" d="M175.031,-183.132C187.617,-184.606 200.593,-186.126 213.223,-187.605"/>
<polygon fill="midnightblue" stroke="midnightblue" points="212.925,-191.094 223.264,-188.78 213.739,-184.141 212.925,-191.094"/>
</g>
<!-- Node16 -->
<g id="node16" class="node"><title>Node16</title>
<g id="a_node16"><a xlink:href="class_suite_c_r_m_add_in_1_1_business_logic_1_1_appointment_syncing.html#a4603f714477bf39f8ac544cb17223453" target="_top" xlink:title="SuiteCRMAddIn.BusinessLogic.\lAppointmentSyncing.GetDefaultFolder">
<polygon fill="white" stroke="black" points="211,-134 211,-164 395,-164 395,-134 211,-134"/>
<text text-anchor="start" x="219" y="-152" font-family="Helvetica,sans-Serif" font-size="10.00">SuiteCRMAddIn.BusinessLogic.</text>
<text text-anchor="middle" x="303" y="-141" font-family="Helvetica,sans-Serif" font-size="10.00">AppointmentSyncing.GetDefaultFolder</text>
</a>
</g>
</g>
<!-- Node1&#45;&gt;Node16 -->
<g id="edge20" class="edge"><title>Node1&#45;&gt;Node16</title>
<path fill="none" stroke="midnightblue" d="M175.031,-163.273C183.505,-162.32 192.156,-161.348 200.758,-160.381"/>
<polygon fill="midnightblue" stroke="midnightblue" points="201.275,-163.845 210.822,-159.25 200.493,-156.889 201.275,-163.845"/>
</g>
<!-- Node3 -->
<g id="node3" class="node"><title>Node3</title>
<g id="a_node3"><a xlink:href="class_suite_c_r_m_add_in_1_1_business_logic_1_1_synchroniser.html#acc7036a95cd34952cf01c774b1fcefc2" target="_top" xlink:title="Fetch records in pages from CRM, and merge them into Outlook. ">
<polygon fill="white" stroke="black" points="454.5,-348.5 454.5,-389.5 628.5,-389.5 628.5,-348.5 454.5,-348.5"/>
<text text-anchor="start" x="462.5" y="-377.5" font-family="Helvetica,sans-Serif" font-size="10.00">SuiteCRMAddIn.BusinessLogic.</text>
<text text-anchor="start" x="462.5" y="-366.5" font-family="Helvetica,sans-Serif" font-size="10.00">Synchroniser&lt; Outlook.Appointment</text>
<text text-anchor="middle" x="541.5" y="-355.5" font-family="Helvetica,sans-Serif" font-size="10.00">Item &gt;::MergeRecordsFromCrm</text>
</a>
</g>
</g>
<!-- Node2&#45;&gt;Node3 -->
<g id="edge2" class="edge"><title>Node2&#45;&gt;Node3</title>
<path fill="none" stroke="midnightblue" d="M314.018,-213.028C333.361,-240.909 378.597,-300.817 431,-334 437.086,-337.854 443.633,-341.317 450.389,-344.422"/>
<polygon fill="midnightblue" stroke="midnightblue" points="449.14,-347.695 459.708,-348.439 451.91,-341.267 449.14,-347.695"/>
</g>
<!-- Node4 -->
<g id="node4" class="node"><title>Node4</title>
<g id="a_node4"><a xlink:href="class_suite_c_r_m_client_1_1cls_suite_c_r_m_helper.html#a26b08c712be5bc8600e7c8355601a45c" target="_top" xlink:title="SuiteCRMClient.clsSuiteCRMHelper.get\lRelationships">
<polygon fill="white" stroke="black" points="696,-378 696,-408 890,-408 890,-378 696,-378"/>
<text text-anchor="start" x="704" y="-396" font-family="Helvetica,sans-Serif" font-size="10.00">SuiteCRMClient.clsSuiteCRMHelper.get</text>
<text text-anchor="middle" x="793" y="-385" font-family="Helvetica,sans-Serif" font-size="10.00">Relationships</text>
</a>
</g>
</g>
<!-- Node2&#45;&gt;Node4 -->
<g id="edge3" class="edge"><title>Node2&#45;&gt;Node4</title>
<path fill="none" stroke="midnightblue" d="M317.55,-213.114C339.121,-236.127 383.689,-279.539 431,-301 521.762,-342.171 555.926,-312.493 652,-339 685.471,-348.235 722.039,-362.491 749.406,-374.037"/>
<polygon fill="midnightblue" stroke="midnightblue" points="748.111,-377.29 758.682,-377.995 750.858,-370.852 748.111,-377.29"/>
</g>
<!-- Node6 -->
<g id="node6" class="node"><title>Node6</title>
<g id="a_node6"><a xlink:href="class_suite_c_r_m_client_1_1cls_suite_c_r_m_helper.html#a050637c0cbd1012cf9cf58c5cb3d179c" target="_top" xlink:title="Return the CRM id of the current user. ">
<polygon fill="white" stroke="black" points="943.5,-204 943.5,-234 1124.5,-234 1124.5,-204 943.5,-204"/>
<text text-anchor="start" x="951.5" y="-222" font-family="Helvetica,sans-Serif" font-size="10.00">SuiteCRMClient.clsSuiteCRMHelper.</text>
<text text-anchor="middle" x="1034" y="-211" font-family="Helvetica,sans-Serif" font-size="10.00">GetUserId</text>
</a>
</g>
</g>
<!-- Node2&#45;&gt;Node6 -->
<g id="edge5" class="edge"><title>Node2&#45;&gt;Node6</title>
<path fill="none" stroke="midnightblue" d="M382.708,-200.267C516.098,-204.11 786.332,-211.894 932.947,-216.118"/>
<polygon fill="midnightblue" stroke="midnightblue" points="933.19,-219.626 943.286,-216.416 933.391,-212.629 933.19,-219.626"/>
</g>
<!-- Node7 -->
<g id="node7" class="node"><title>Node7</title>
<g id="a_node7"><a xlink:href="class_suite_c_r_m_client_1_1cls_suite_c_r_m_helper.html#a366fc594dfb70b02b5290655e49cacf4" target="_top" xlink:title="SuiteCRMClient.clsSuiteCRMHelper.\lGetSugarFields">
<polygon fill="white" stroke="black" points="451,-120 451,-150 632,-150 632,-120 451,-120"/>
<text text-anchor="start" x="459" y="-138" font-family="Helvetica,sans-Serif" font-size="10.00">SuiteCRMClient.clsSuiteCRMHelper.</text>
<text text-anchor="middle" x="541.5" y="-127" font-family="Helvetica,sans-Serif" font-size="10.00">GetSugarFields</text>
</a>
</g>
</g>
<!-- Node2&#45;&gt;Node7 -->
<g id="edge6" class="edge"><title>Node2&#45;&gt;Node7</title>
<path fill="none" stroke="midnightblue" d="M361.29,-182.928C372.472,-179.976 384.105,-176.897 395,-174 421.105,-167.059 449.831,-159.37 474.813,-152.667"/>
<polygon fill="midnightblue" stroke="midnightblue" points="475.798,-156.026 484.549,-150.054 473.983,-149.266 475.798,-156.026"/>
</g>
<!-- Node8 -->
<g id="node8" class="node"><title>Node8</title>
<g id="a_node8"><a xlink:href="class_suite_c_r_m_add_in_1_1_business_logic_1_1_synchroniser.html#ae80c795df262f881c995b9cadd54a5d4" target="_top" xlink:title="Update these items, which may or may not already exist in Outlook. ">
<polygon fill="white" stroke="black" points="431,-60.5 431,-101.5 652,-101.5 652,-60.5 431,-60.5"/>
<text text-anchor="start" x="439" y="-89.5" font-family="Helvetica,sans-Serif" font-size="10.00">SuiteCRMAddIn.BusinessLogic.</text>
<text text-anchor="start" x="439" y="-78.5" font-family="Helvetica,sans-Serif" font-size="10.00">Synchroniser&lt; Outlook.Appointment</text>
<text text-anchor="middle" x="541.5" y="-67.5" font-family="Helvetica,sans-Serif" font-size="10.00">Item &gt;::AddOrUpdateItemsFromCrmToOutlook</text>
</a>
</g>
</g>
<!-- Node2&#45;&gt;Node8 -->
<g id="edge7" class="edge"><title>Node2&#45;&gt;Node8</title>
<path fill="none" stroke="midnightblue" d="M380.67,-182.79C385.753,-180.291 390.594,-177.383 395,-174 420.58,-154.361 405.514,-130.76 431,-111 432.867,-109.553 434.799,-108.175 436.786,-106.864"/>
<polygon fill="midnightblue" stroke="midnightblue" points="438.988,-109.628 445.819,-101.529 435.428,-103.601 438.988,-109.628"/>
</g>
<!-- Node9 -->
<g id="node9" class="node"><title>Node9</title>
<g id="a_node9"><a xlink:href="class_suite_c_r_m_add_in_1_1_business_logic_1_1_synchroniser.html#a483e9fe3f7b8356dd85b53d7d4014f50" target="_top" xlink:title="Given a list of items which exist in Outlook but are missing from CRM, resolve how to handle them...">
<polygon fill="white" stroke="black" points="454.5,-0.5 454.5,-41.5 628.5,-41.5 628.5,-0.5 454.5,-0.5"/>
<text text-anchor="start" x="462.5" y="-29.5" font-family="Helvetica,sans-Serif" font-size="10.00">SuiteCRMAddIn.BusinessLogic.</text>
<text text-anchor="start" x="462.5" y="-18.5" font-family="Helvetica,sans-Serif" font-size="10.00">Synchroniser&lt; Outlook.Appointment</text>
<text text-anchor="middle" x="541.5" y="-7.5" font-family="Helvetica,sans-Serif" font-size="10.00">Item &gt;::ResolveUnmatchedItems</text>
</a>
</g>
</g>
<!-- Node2&#45;&gt;Node9 -->
<g id="edge8" class="edge"><title>Node2&#45;&gt;Node9</title>
<path fill="none" stroke="midnightblue" d="M382.909,-183.158C387.286,-180.562 391.371,-177.533 395,-174 435.814,-134.268 390.376,-90.9265 431,-51 435.323,-46.7514 440.187,-43.0906 445.4,-39.9378"/>
<polygon fill="midnightblue" stroke="midnightblue" points="447.295,-42.8937 454.469,-35.0971 443.999,-36.7183 447.295,-42.8937"/>
</g>
<!-- Node10 -->
<g id="node10" class="node"><title>Node10</title>
<g id="a_node10"><a xlink:href="class_suite_c_r_m_add_in_1_1_business_logic_1_1_appointment_syncing.html#a505217ef3946d0f9996301472cabc026" target="_top" xlink:title="Log a message regarding this Outlook appointment. ">
<polygon fill="white" stroke="black" points="1174,-312 1174,-342 1347,-342 1347,-312 1174,-312"/>
<text text-anchor="start" x="1182" y="-330" font-family="Helvetica,sans-Serif" font-size="10.00">SuiteCRMAddIn.BusinessLogic.</text>
<text text-anchor="middle" x="1260.5" y="-319" font-family="Helvetica,sans-Serif" font-size="10.00">AppointmentSyncing.LogItemAction</text>
</a>
</g>
</g>
<!-- Node2&#45;&gt;Node10 -->
<g id="edge9" class="edge"><title>Node2&#45;&gt;Node10</title>
<path fill="none" stroke="midnightblue" d="M382.696,-189.866C562.975,-172.485 1000.58,-137.754 1134,-195 1185.31,-217.016 1225.54,-271.457 1245.57,-303.121"/>
<polygon fill="midnightblue" stroke="midnightblue" points="1242.68,-305.099 1250.9,-311.779 1248.64,-301.429 1242.68,-305.099"/>
</g>
<!-- Node11 -->
<g id="node11" class="node"><title>Node11</title>
<g id="a_node11"><a xlink:href="class_suite_c_r_m_add_in_1_1_business_logic_1_1_appointment_syncing.html#a8a922e6ddd966e890c8203d4c91912d1" target="_top" xlink:title="Specialisation: in addition to the standard properties, meetings also require an organiser property...">
<polygon fill="white" stroke="black" points="436.5,-250.5 436.5,-291.5 646.5,-291.5 646.5,-250.5 436.5,-250.5"/>
<text text-anchor="start" x="444.5" y="-279.5" font-family="Helvetica,sans-Serif" font-size="10.00">SuiteCRMAddIn.BusinessLogic.</text>
<text text-anchor="start" x="444.5" y="-268.5" font-family="Helvetica,sans-Serif" font-size="10.00">AppointmentSyncing.EnsureSynchronisation</text>
<text text-anchor="middle" x="541.5" y="-257.5" font-family="Helvetica,sans-Serif" font-size="10.00">PropertiesForOutlookItem</text>
</a>
</g>
</g>
<!-- Node2&#45;&gt;Node11 -->
<g id="edge10" class="edge"><title>Node2&#45;&gt;Node11</title>
<path fill="none" stroke="midnightblue" d="M352.716,-213.037C384.865,-222.96 427.649,-236.166 464.258,-247.467"/>
<polygon fill="midnightblue" stroke="midnightblue" points="463.325,-250.842 473.913,-250.447 465.39,-244.153 463.325,-250.842"/>
</g>
<!-- Node5 -->
<g id="node5" class="node"><title>Node5</title>
<g id="a_node5"><a xlink:href="class_suite_c_r_m_client_1_1cls_suite_c_r_m_helper.html#a80f04ec3ab185a736b6633c0df69c536" target="_top" xlink:title="SuiteCRMClient.clsSuiteCRMHelper.\lEnsureLoggedIn">
<polygon fill="white" stroke="black" points="1170,-422 1170,-452 1351,-452 1351,-422 1170,-422"/>
<text text-anchor="start" x="1178" y="-440" font-family="Helvetica,sans-Serif" font-size="10.00">SuiteCRMClient.clsSuiteCRMHelper.</text>
<text text-anchor="middle" x="1260.5" y="-429" font-family="Helvetica,sans-Serif" font-size="10.00">EnsureLoggedIn</text>
</a>
</g>
</g>
<!-- Node4&#45;&gt;Node5 -->
<g id="edge4" class="edge"><title>Node4&#45;&gt;Node5</title>
<path fill="none" stroke="midnightblue" d="M828.299,-408.001C856.164,-419.328 896.804,-433.923 934,-440 1008.91,-452.239 1094.82,-450.809 1159.56,-446.685"/>
<polygon fill="midnightblue" stroke="midnightblue" points="1160.02,-450.162 1169.76,-446.002 1159.55,-443.178 1160.02,-450.162"/>
</g>
<!-- Node12 -->
<g id="node12" class="node"><title>Node12</title>
<g id="a_node12"><a xlink:href="class_suite_c_r_m_add_in_1_1_business_logic_1_1_appointment_syncing.html#a778c161dea3f5934089e5866b59f9dad" target="_top" xlink:title="Ensure that this Outlook item has a property of this name with this value. ">
<polygon fill="white" stroke="black" points="688,-252.5 688,-293.5 898,-293.5 898,-252.5 688,-252.5"/>
<text text-anchor="start" x="696" y="-281.5" font-family="Helvetica,sans-Serif" font-size="10.00">SuiteCRMAddIn.BusinessLogic.</text>
<text text-anchor="start" x="696" y="-270.5" font-family="Helvetica,sans-Serif" font-size="10.00">AppointmentSyncing.EnsureSynchronisation</text>
<text text-anchor="middle" x="793" y="-259.5" font-family="Helvetica,sans-Serif" font-size="10.00">PropertyForOutlookItem</text>
</a>
</g>
</g>
<!-- Node11&#45;&gt;Node12 -->
<g id="edge11" class="edge"><title>Node11&#45;&gt;Node12</title>
<path fill="none" stroke="midnightblue" d="M646.504,-265.167C656.733,-265.166 667.153,-265.229 677.479,-265.352"/>
<polygon fill="midnightblue" stroke="midnightblue" points="677.715,-268.856 687.764,-265.496 677.814,-261.856 677.715,-268.856"/>
</g>
<!-- Node12&#45;&gt;Node6 -->
<g id="edge15" class="edge"><title>Node12&#45;&gt;Node6</title>
<path fill="none" stroke="midnightblue" d="M885.037,-252.431C908.594,-247.108 933.718,-241.432 956.45,-236.296"/>
<polygon fill="midnightblue" stroke="midnightblue" points="957.389,-239.672 966.372,-234.054 955.846,-232.844 957.389,-239.672"/>
</g>
<!-- Node12&#45;&gt;Node10 -->
<g id="edge14" class="edge"><title>Node12&#45;&gt;Node10</title>
<path fill="none" stroke="midnightblue" d="M820.582,-293.575C847.47,-312.982 891.082,-340.726 934,-352 1022.25,-375.181 1128.23,-359.321 1194.74,-344.355"/>
<polygon fill="midnightblue" stroke="midnightblue" points="1195.71,-347.723 1204.66,-342.062 1194.13,-340.903 1195.71,-347.723"/>
</g>
<!-- Node12&#45;&gt;Node11 -->
<g id="edge18" class="edge"><title>Node12&#45;&gt;Node11</title>
<path fill="none" stroke="midnightblue" d="M687.764,-278.833C677.532,-278.833 667.111,-278.77 656.786,-278.645"/>
<polygon fill="midnightblue" stroke="midnightblue" points="656.552,-275.141 646.504,-278.5 656.453,-282.141 656.552,-275.141"/>
</g>
<!-- Node13 -->
<g id="node13" class="node"><title>Node13</title>
<g id="a_node13"><a xlink:href="class_suite_c_r_m_add_in_1_1_business_logic_1_1_appointment_syncing.html#a7a750ce308027fee659e8c543cb99b42" target="_top" xlink:title="SuiteCRMAddIn.BusinessLogic.\lAppointmentSyncing.SaveItem">
<polygon fill="white" stroke="black" points="955,-312 955,-342 1113,-342 1113,-312 955,-312"/>
<text text-anchor="start" x="963" y="-330" font-family="Helvetica,sans-Serif" font-size="10.00">SuiteCRMAddIn.BusinessLogic.</text>
<text text-anchor="middle" x="1034" y="-319" font-family="Helvetica,sans-Serif" font-size="10.00">AppointmentSyncing.SaveItem</text>
</a>
</g>
</g>
<!-- Node12&#45;&gt;Node13 -->
<g id="edge12" class="edge"><title>Node12&#45;&gt;Node13</title>
<path fill="none" stroke="midnightblue" d="M885.037,-293.569C908.594,-298.892 933.718,-304.568 956.45,-309.704"/>
<polygon fill="midnightblue" stroke="midnightblue" points="955.846,-313.156 966.372,-311.946 957.389,-306.328 955.846,-313.156"/>
</g>
<!-- Node14 -->
<g id="node14" class="node"><title>Node14</title>
<g id="a_node14"><a xlink:href="class_suite_c_r_m_client_1_1cls_suite_c_r_m_helper.html#a3ce19594e2c04282ab6e9737c3a9b84f" target="_top" xlink:title="SuiteCRMClient.clsSuiteCRMHelper.get\lRelationship">
<polygon fill="white" stroke="black" points="937,-400 937,-430 1131,-430 1131,-400 937,-400"/>
<text text-anchor="start" x="945" y="-418" font-family="Helvetica,sans-Serif" font-size="10.00">SuiteCRMClient.clsSuiteCRMHelper.get</text>
<text text-anchor="middle" x="1034" y="-407" font-family="Helvetica,sans-Serif" font-size="10.00">Relationship</text>
</a>
</g>
</g>
<!-- Node12&#45;&gt;Node14 -->
<g id="edge16" class="edge"><title>Node12&#45;&gt;Node14</title>
<path fill="none" stroke="midnightblue" d="M814.476,-293.644C840.257,-318.565 886.9,-360.21 934,-385 942.375,-389.408 951.496,-393.272 960.702,-396.63"/>
<polygon fill="midnightblue" stroke="midnightblue" points="959.704,-399.988 970.299,-399.947 961.991,-393.372 959.704,-399.988"/>
</g>
<!-- Node15 -->
<g id="node15" class="node"><title>Node15</title>
<g id="a_node15"><a xlink:href="class_suite_c_r_m_add_in_1_1_business_logic_1_1_synchroniser.html#a9a2c3473c4dc60793fed0588c66f8666" target="_top" xlink:title="Parse a date time object from a user property, assuming the ISO 8601 date&#45;time format but ommitting t...">
<polygon fill="white" stroke="black" points="934,-252.5 934,-293.5 1134,-293.5 1134,-252.5 934,-252.5"/>
<text text-anchor="start" x="942" y="-281.5" font-family="Helvetica,sans-Serif" font-size="10.00">SuiteCRMAddIn.BusinessLogic.</text>
<text text-anchor="start" x="942" y="-270.5" font-family="Helvetica,sans-Serif" font-size="10.00">Synchroniser&lt; Outlook.Appointment</text>
<text text-anchor="middle" x="1034" y="-259.5" font-family="Helvetica,sans-Serif" font-size="10.00">Item &gt;::ParseDateTimeFromUserProperty</text>
</a>
</g>
</g>
<!-- Node12&#45;&gt;Node15 -->
<g id="edge19" class="edge"><title>Node12&#45;&gt;Node15</title>
<path fill="none" stroke="midnightblue" d="M898.134,-273C906.54,-273 915.05,-273 923.492,-273"/>
<polygon fill="midnightblue" stroke="midnightblue" points="923.746,-276.5 933.746,-273 923.746,-269.5 923.746,-276.5"/>
</g>
<!-- Node13&#45;&gt;Node10 -->
<g id="edge13" class="edge"><title>Node13&#45;&gt;Node10</title>
<path fill="none" stroke="midnightblue" d="M1113.2,-327C1129.45,-327 1146.74,-327 1163.54,-327"/>
<polygon fill="midnightblue" stroke="midnightblue" points="1163.92,-330.5 1173.92,-327 1163.92,-323.5 1163.92,-330.5"/>
</g>
<!-- Node14&#45;&gt;Node5 -->
<g id="edge17" class="edge"><title>Node14&#45;&gt;Node5</title>
<path fill="none" stroke="midnightblue" d="M1131.19,-424.426C1140.62,-425.351 1150.22,-426.291 1159.69,-427.219"/>
<polygon fill="midnightblue" stroke="midnightblue" points="1159.62,-430.729 1169.91,-428.221 1160.3,-423.762 1159.62,-430.729"/>
</g>
</g>
</svg>
