<?xml version="1.0" encoding="UTF-8" standalone="no"?>
<!DOCTYPE svg PUBLIC "-//W3C//DTD SVG 1.1//EN"
 "http://www.w3.org/Graphics/SVG/1.1/DTD/svg11.dtd">
<!-- Generated by graphviz version 2.38.0 (20140413.2041)
 -->
<!-- Title: SuiteCRMAddIn.BusinessLogic.Synchroniser.Items_ItemChange Pages: 1 -->
<svg width="378pt" height="50pt"
 viewBox="0.00 0.00 378.00 50.00" xmlns="http://www.w3.org/2000/svg" xmlns:xlink="http://www.w3.org/1999/xlink">
<g id="graph0" class="graph" transform="scale(1 1) rotate(0) translate(4 46)">
<title>SuiteCRMAddIn.BusinessLogic.Synchroniser.Items_ItemChange</title>
<polygon fill="white" stroke="none" points="-4,4 -4,-46 374,-46 374,4 -4,4"/>
<!-- Node1 -->
<g id="node1" class="node"><title>Node1</title>
<polygon fill="#bfbfbf" stroke="black" points="0,-6 0,-36 160,-36 160,-6 0,-6"/>
<text text-anchor="start" x="8" y="-24" font-family="Helvetica,sans-Serif" font-size="10.00">SuiteCRMAddIn.BusinessLogic.</text>
<text text-anchor="middle" x="80" y="-13" font-family="Helvetica,sans-Serif" font-size="10.00">Synchroniser.Items_ItemChange</text>
</g>
<!-- Node2 -->
<g id="node2" class="node"><title>Node2</title>
<g id="a_node2"><a xlink:href="class_suite_c_r_m_add_in_1_1_business_logic_1_1_synchroniser.html#a1cdd24df65f5475d8911465ed70859f0" target="_top" xlink:title="SuiteCRMAddIn.BusinessLogic.\lSynchroniser\&lt; Outlook.Appointment\lItem \&gt;::InstallEventHandlers">
<polygon fill="white" stroke="black" points="196,-0.5 196,-41.5 370,-41.5 370,-0.5 196,-0.5"/>
<text text-anchor="start" x="204" y="-29.5" font-family="Helvetica,sans-Serif" font-size="10.00">SuiteCRMAddIn.BusinessLogic.</text>
<text text-anchor="start" x="204" y="-18.5" font-family="Helvetica,sans-Serif" font-size="10.00">Synchroniser&lt; Outlook.Appointment</text>
<text text-anchor="middle" x="283" y="-7.5" font-family="Helvetica,sans-Serif" font-size="10.00">Item &gt;::InstallEventHandlers</text>
</a>
</g>
</g>
<!-- Node1&#45;&gt;Node2 -->
<g id="edge1" class="edge"><title>Node1&#45;&gt;Node2</title>
<path fill="none" stroke="midnightblue" d="M170.432,-21C178.916,-21 187.506,-21 195.958,-21"/>
<polygon fill="midnightblue" stroke="midnightblue" points="170.152,-17.5001 160.152,-21 170.152,-24.5001 170.152,-17.5001"/>
</g>
</g>
</svg>
