<?xml version="1.0" encoding="UTF-8" standalone="no"?>
<!DOCTYPE svg PUBLIC "-//W3C//DTD SVG 1.1//EN"
 "http://www.w3.org/Graphics/SVG/1.1/DTD/svg11.dtd">
<!-- Generated by graphviz version 2.38.0 (20140413.2041)
 -->
<!-- Title: SuiteCRMAddIn.BusinessLogic.Synchroniser&lt; OutlookItemType &gt; Pages: 1 -->
<svg width="316pt" height="241pt"
 viewBox="0.00 0.00 315.50 241.00" xmlns="http://www.w3.org/2000/svg" xmlns:xlink="http://www.w3.org/1999/xlink">
<g id="graph0" class="graph" transform="scale(1 1) rotate(0) translate(4 237)">
<title>SuiteCRMAddIn.BusinessLogic.Synchroniser&lt; OutlookItemType &gt;</title>
<polygon fill="white" stroke="none" points="-4,4 -4,-237 311.5,-237 311.5,4 -4,4"/>
<!-- Node1 -->
<g id="node1" class="node"><title>Node1</title>
<polygon fill="#bfbfbf" stroke="black" points="-1.42109e-14,-0.5 -1.42109e-14,-30.5 167,-30.5 167,-0.5 -1.42109e-14,-0.5"/>
<text text-anchor="start" x="8" y="-18.5" font-family="Helvetica,sans-Serif" font-size="10.00">SuiteCRMAddIn.BusinessLogic.</text>
<text text-anchor="middle" x="83.5" y="-7.5" font-family="Helvetica,sans-Serif" font-size="10.00">Synchroniser&lt; OutlookItemType &gt;</text>
</g>
<!-- Node2 -->
<g id="node2" class="node"><title>Node2</title>
<g id="a_node2"><a xlink:href="class_suite_c_r_m_add_in_1_1_business_logic_1_1_repeating_process.html" target="_top" xlink:title="An agent which does something repeatedly. ">
<polygon fill="white" stroke="black" points="35,-84 35,-103 132,-103 132,-84 35,-84"/>
<text text-anchor="middle" x="83.5" y="-91" font-family="Helvetica,sans-Serif" font-size="10.00">RepeatingProcess</text>
</a>
</g>
</g>
<!-- Node2&#45;&gt;Node1 -->
<g id="edge1" class="edge"><title>Node2&#45;&gt;Node1</title>
<path fill="none" stroke="midnightblue" d="M83.5,-73.7816C83.5,-60.4036 83.5,-42.688 83.5,-30.5198"/>
<polygon fill="midnightblue" stroke="midnightblue" points="80.0001,-73.7818 83.5,-83.7818 87.0001,-73.7819 80.0001,-73.7818"/>
</g>
<!-- Node3 -->
<g id="node3" class="node"><title>Node3</title>
<g id="a_node3"><a xlink:href="interface_suite_c_r_m_client_1_1_logging_1_1_i_logger.html" target="_top" xlink:title="Interface implemented by all logging classes ">
<polygon fill="white" stroke="black" points="34.5,-156.5 34.5,-175.5 194.5,-175.5 194.5,-156.5 34.5,-156.5"/>
<text text-anchor="middle" x="114.5" y="-163.5" font-family="Helvetica,sans-Serif" font-size="10.00">SuiteCRMClient.Logging.ILogger</text>
</a>
</g>
</g>
<!-- Node3&#45;&gt;Node2 -->
<g id="edge2" class="edge"><title>Node3&#45;&gt;Node2</title>
<path fill="none" stroke="#9a32cd" stroke-dasharray="5,2" d="M106.665,-147.182C100.486,-133.13 92.1353,-114.138 87.3323,-103.215"/>
<polygon fill="#9a32cd" stroke="#9a32cd" points="103.47,-148.61 110.699,-156.355 109.877,-145.792 103.47,-148.61"/>
<text text-anchor="middle" x="111" y="-130" font-family="Helvetica,sans-Serif" font-size="10.00"> Log</text>
</g>
<!-- Node5 -->
<g id="node5" class="node"><title>Node5</title>
<g id="a_node5"><a xlink:href="class_suite_c_r_m_add_in_1_1_business_logic_1_1_sync_context.html" target="_top" xlink:title="A bundle of handles onto all the things which are needed to allow synchronisation to take place...">
<polygon fill="white" stroke="black" points="149.5,-78.5 149.5,-108.5 307.5,-108.5 307.5,-78.5 149.5,-78.5"/>
<text text-anchor="start" x="157.5" y="-96.5" font-family="Helvetica,sans-Serif" font-size="10.00">SuiteCRMAddIn.BusinessLogic.</text>
<text text-anchor="middle" x="228.5" y="-85.5" font-family="Helvetica,sans-Serif" font-size="10.00">SyncContext</text>
</a>
</g>
</g>
<!-- Node3&#45;&gt;Node5 -->
<g id="edge6" class="edge"><title>Node3&#45;&gt;Node5</title>
<path fill="none" stroke="#9a32cd" stroke-dasharray="5,2" d="M137.188,-150.969C157.073,-138.672 185.832,-120.887 205.739,-108.576"/>
<polygon fill="#9a32cd" stroke="#9a32cd" points="135.143,-148.119 128.479,-156.355 138.825,-154.072 135.143,-148.119"/>
<text text-anchor="middle" x="184" y="-130" font-family="Helvetica,sans-Serif" font-size="10.00"> Log</text>
</g>
<!-- Node4 -->
<g id="node4" class="node"><title>Node4</title>
<polygon fill="white" stroke="#bfbfbf" points="5.5,-213.5 5.5,-232.5 73.5,-232.5 73.5,-213.5 5.5,-213.5"/>
<text text-anchor="middle" x="39.5" y="-220.5" font-family="Helvetica,sans-Serif" font-size="10.00">IDisposable</text>
</g>
<!-- Node4&#45;&gt;Node1 -->
<g id="edge4" class="edge"><title>Node4&#45;&gt;Node1</title>
<path fill="none" stroke="midnightblue" d="M32.7343,-203.837C23.3832,-175.756 9.47981,-120.597 26.5,-78 34.2242,-58.6685 51.1045,-41.7442 64.5018,-30.5698"/>
<polygon fill="midnightblue" stroke="midnightblue" points="29.5124,-205.226 36.1345,-213.496 36.1152,-202.901 29.5124,-205.226"/>
</g>
<!-- Node4&#45;&gt;Node3 -->
<g id="edge3" class="edge"><title>Node4&#45;&gt;Node3</title>
<path fill="none" stroke="midnightblue" d="M59.5632,-207.287C73.3052,-197.21 91.0658,-184.185 102.616,-175.715"/>
<polygon fill="midnightblue" stroke="midnightblue" points="57.213,-204.67 51.2187,-213.406 61.3526,-210.315 57.213,-204.67"/>
</g>
<!-- Node5&#45;&gt;Node1 -->
<g id="edge5" class="edge"><title>Node5&#45;&gt;Node1</title>
<path fill="none" stroke="#9a32cd" stroke-dasharray="5,2" d="M192.582,-73.6739C167.097,-60.3166 133.442,-42.6762 110.289,-30.5413"/>
<polygon fill="#9a32cd" stroke="#9a32cd" points="191.084,-76.8407 201.566,-78.3831 194.334,-70.6407 191.084,-76.8407"/>
<text text-anchor="middle" x="183.5" y="-52" font-family="Helvetica,sans-Serif" font-size="10.00"> Context</text>
</g>
</g>
</svg>
