<?xml version="1.0" encoding="UTF-8" standalone="no"?>
<!DOCTYPE svg PUBLIC "-//W3C//DTD SVG 1.1//EN"
 "http://www.w3.org/Graphics/SVG/1.1/DTD/svg11.dtd">
<!-- Generated by graphviz version 2.38.0 (20140413.2041)
 -->
<!-- Title: SuiteCRMClient.clsSuiteCRMHelper.GetFieldsForModule Pages: 1 -->
<svg width="1075pt" height="295pt"
 viewBox="0.00 0.00 1075.00 295.00" xmlns="http://www.w3.org/2000/svg" xmlns:xlink="http://www.w3.org/1999/xlink">
<g id="graph0" class="graph" transform="scale(1 1) rotate(0) translate(4 291)">
<title>SuiteCRMClient.clsSuiteCRMHelper.GetFieldsForModule</title>
<polygon fill="white" stroke="none" points="-4,4 -4,-291 1071,-291 1071,4 -4,4"/>
<!-- Node1 -->
<g id="node1" class="node"><title>Node1</title>
<polygon fill="#bfbfbf" stroke="black" points="0,-182.5 0,-212.5 181,-212.5 181,-182.5 0,-182.5"/>
<text text-anchor="start" x="8" y="-200.5" font-family="Helvetica,sans-Serif" font-size="10.00">SuiteCRMClient.clsSuiteCRMHelper.</text>
<text text-anchor="middle" x="90.5" y="-189.5" font-family="Helvetica,sans-Serif" font-size="10.00">GetFieldsForModule</text>
</g>
<!-- Node2 -->
<g id="node2" class="node"><title>Node2</title>
<g id="a_node2"><a xlink:href="class_suite_c_r_m_add_in_1_1_daemon_1_1_fetch_email_categories_action.html#ae1b0321e4a3371328b7d571b51af6e80" target="_top" xlink:title="Replace the items in my items list, which is the list passed in by the caller, with the options retur...">
<polygon fill="white" stroke="black" points="230,-256.5 230,-286.5 385,-286.5 385,-256.5 230,-256.5"/>
<text text-anchor="start" x="238" y="-274.5" font-family="Helvetica,sans-Serif" font-size="10.00">SuiteCRMAddIn.Daemon.Fetch</text>
<text text-anchor="middle" x="307.5" y="-263.5" font-family="Helvetica,sans-Serif" font-size="10.00">EmailCategoriesAction.Perform</text>
</a>
</g>
</g>
<!-- Node1&#45;&gt;Node2 -->
<g id="edge1" class="edge"><title>Node1&#45;&gt;Node2</title>
<path fill="none" stroke="midnightblue" d="M135.473,-216.486C159.343,-226.418 189.513,-238.374 217,-247.5 226.466,-250.643 236.596,-253.671 246.514,-256.456"/>
<polygon fill="midnightblue" stroke="midnightblue" points="136.565,-213.149 125.989,-212.509 133.858,-219.604 136.565,-213.149"/>
</g>
<!-- Node3 -->
<g id="node3" class="node"><title>Node3</title>
<g id="a_node3"><a xlink:href="class_suite_c_r_m_client_1_1cls_suite_c_r_m_helper.html#af93c5906c64452ae63b6c12891f861bc" target="_top" xlink:title="SuiteCRMClient.clsSuiteCRMHelper.\lGetFields">
<polygon fill="white" stroke="black" points="217,-207.5 217,-237.5 398,-237.5 398,-207.5 217,-207.5"/>
<text text-anchor="start" x="225" y="-225.5" font-family="Helvetica,sans-Serif" font-size="10.00">SuiteCRMClient.clsSuiteCRMHelper.</text>
<text text-anchor="middle" x="307.5" y="-214.5" font-family="Helvetica,sans-Serif" font-size="10.00">GetFields</text>
</a>
</g>
</g>
<!-- Node1&#45;&gt;Node3 -->
<g id="edge2" class="edge"><title>Node1&#45;&gt;Node3</title>
<path fill="none" stroke="midnightblue" d="M191.095,-209.081C199.628,-210.073 208.227,-211.073 216.677,-212.055"/>
<polygon fill="midnightblue" stroke="midnightblue" points="191.46,-205.6 181.123,-207.921 190.651,-212.553 191.46,-205.6"/>
</g>
<!-- Node7 -->
<g id="node7" class="node"><title>Node7</title>
<g id="a_node7"><a xlink:href="class_suite_c_r_m_client_1_1cls_suite_c_r_m_helper.html#a6aaf13d4bb3d9a87db8540482a5e9754" target="_top" xlink:title="Get the names of all the fields of the module with this name whose data type is char or varchar or na...">
<polygon fill="white" stroke="black" points="217,-158.5 217,-188.5 398,-188.5 398,-158.5 217,-158.5"/>
<text text-anchor="start" x="225" y="-176.5" font-family="Helvetica,sans-Serif" font-size="10.00">SuiteCRMClient.clsSuiteCRMHelper.</text>
<text text-anchor="middle" x="307.5" y="-165.5" font-family="Helvetica,sans-Serif" font-size="10.00">GetCharacterFields</text>
</a>
</g>
</g>
<!-- Node1&#45;&gt;Node7 -->
<g id="edge6" class="edge"><title>Node1&#45;&gt;Node7</title>
<path fill="none" stroke="midnightblue" d="M191.095,-186.382C199.628,-185.43 208.227,-184.47 216.677,-183.527"/>
<polygon fill="midnightblue" stroke="midnightblue" points="190.672,-182.908 181.123,-187.496 191.449,-189.865 190.672,-182.908"/>
</g>
<!-- Node11 -->
<g id="node11" class="node"><title>Node11</title>
<g id="a_node11"><a xlink:href="class_suite_c_r_m_client_1_1cls_suite_c_r_m_helper.html#a54a65e000ff00bb87a5e8bf5e2ef8d43" target="_top" xlink:title="Find the fields, among the fields of this module, which are links and where the name of the relations...">
<polygon fill="white" stroke="black" points="217,-109.5 217,-139.5 398,-139.5 398,-109.5 217,-109.5"/>
<text text-anchor="start" x="225" y="-127.5" font-family="Helvetica,sans-Serif" font-size="10.00">SuiteCRMClient.clsSuiteCRMHelper.</text>
<text text-anchor="middle" x="307.5" y="-116.5" font-family="Helvetica,sans-Serif" font-size="10.00">GetActivitiesLinks</text>
</a>
</g>
</g>
<!-- Node1&#45;&gt;Node11 -->
<g id="edge11" class="edge"><title>Node1&#45;&gt;Node11</title>
<path fill="none" stroke="midnightblue" d="M137.636,-178.676C161.195,-169.365 190.424,-158.273 217,-149.5 227.418,-146.061 238.616,-142.685 249.444,-139.581"/>
<polygon fill="midnightblue" stroke="midnightblue" points="136.241,-175.464 128.243,-182.412 138.828,-181.968 136.241,-175.464"/>
</g>
<!-- Node4 -->
<g id="node4" class="node"><title>Node4</title>
<g id="a_node4"><a xlink:href="class_suite_c_r_m_client_1_1cls_suite_c_r_m_helper.html#a510c1dedb473b52cb4d3ce9d5761b57b" target="_top" xlink:title="Return only those modules which have relationships to the email module. ">
<polygon fill="white" stroke="black" points="434,-209.5 434,-239.5 618,-239.5 618,-209.5 434,-209.5"/>
<text text-anchor="start" x="442" y="-227.5" font-family="Helvetica,sans-Serif" font-size="10.00">SuiteCRMClient.clsSuiteCRMHelper.</text>
<text text-anchor="middle" x="526" y="-216.5" font-family="Helvetica,sans-Serif" font-size="10.00">GetModulesHavingEmailRelationships</text>
</a>
</g>
</g>
<!-- Node3&#45;&gt;Node4 -->
<g id="edge3" class="edge"><title>Node3&#45;&gt;Node4</title>
<path fill="none" stroke="midnightblue" d="M408.372,-223.423C416.815,-223.501 425.326,-223.579 433.699,-223.657"/>
<polygon fill="midnightblue" stroke="midnightblue" points="408.154,-219.921 398.122,-223.328 408.089,-226.92 408.154,-219.921"/>
</g>
<!-- Node5 -->
<g id="node5" class="node"><title>Node5</title>
<g id="a_node5"><a xlink:href="class_suite_c_r_m_add_in_1_1_dialogs_1_1_custom_modules_dialog.html#ad43594486079041890b2cff4f96d3f23" target="_top" xlink:title="Populate this list view with custom modules, marking those saved in my settings as selected...">
<polygon fill="white" stroke="black" points="654,-206 654,-247 848,-247 848,-206 654,-206"/>
<text text-anchor="start" x="662" y="-235" font-family="Helvetica,sans-Serif" font-size="10.00">SuiteCRMAddIn.Dialogs.Custom</text>
<text text-anchor="start" x="662" y="-224" font-family="Helvetica,sans-Serif" font-size="10.00">ModulesDialog.PopulateCustomModules</text>
<text text-anchor="middle" x="751" y="-213" font-family="Helvetica,sans-Serif" font-size="10.00">ListView</text>
</a>
</g>
</g>
<!-- Node4&#45;&gt;Node5 -->
<g id="edge4" class="edge"><title>Node4&#45;&gt;Node5</title>
<path fill="none" stroke="midnightblue" d="M628.046,-225.406C636.625,-225.483 645.288,-225.561 653.829,-225.637"/>
<polygon fill="midnightblue" stroke="midnightblue" points="628.055,-221.906 618.024,-225.316 627.992,-228.906 628.055,-221.906"/>
</g>
<!-- Node6 -->
<g id="node6" class="node"><title>Node6</title>
<g id="a_node6"><a xlink:href="class_suite_c_r_m_add_in_1_1_dialogs_1_1_custom_modules_dialog.html#a0690a5a0bafdb53508b3bb0e9743b422" target="_top" xlink:title="SuiteCRMAddIn.Dialogs.Custom\lModulesDialog.CustomModulesDialog">
<polygon fill="white" stroke="black" points="884,-211.5 884,-241.5 1067,-241.5 1067,-211.5 884,-211.5"/>
<text text-anchor="start" x="892" y="-229.5" font-family="Helvetica,sans-Serif" font-size="10.00">SuiteCRMAddIn.Dialogs.Custom</text>
<text text-anchor="middle" x="975.5" y="-218.5" font-family="Helvetica,sans-Serif" font-size="10.00">ModulesDialog.CustomModulesDialog</text>
</a>
</g>
</g>
<!-- Node5&#45;&gt;Node6 -->
<g id="edge5" class="edge"><title>Node5&#45;&gt;Node6</title>
<path fill="none" stroke="midnightblue" d="M858.526,-226.5C866.937,-226.5 875.384,-226.5 883.675,-226.5"/>
<polygon fill="midnightblue" stroke="midnightblue" points="858.298,-223 848.298,-226.5 858.298,-230 858.298,-223"/>
</g>
<!-- Node8 -->
<g id="node8" class="node"><title>Node8</title>
<g id="a_node8"><a xlink:href="class_suite_c_r_m_add_in_1_1_dialogs_1_1_archive_dialog.html#a1b2d6e63a13ef6a7a3331a99cbd122e7" target="_top" xlink:title="SuiteCRMAddIn.Dialogs.Archive\lDialog.Search">
<polygon fill="white" stroke="black" points="446,-157.5 446,-187.5 606,-187.5 606,-157.5 446,-157.5"/>
<text text-anchor="start" x="454" y="-175.5" font-family="Helvetica,sans-Serif" font-size="10.00">SuiteCRMAddIn.Dialogs.Archive</text>
<text text-anchor="middle" x="526" y="-164.5" font-family="Helvetica,sans-Serif" font-size="10.00">Dialog.Search</text>
</a>
</g>
</g>
<!-- Node7&#45;&gt;Node8 -->
<g id="edge7" class="edge"><title>Node7&#45;&gt;Node8</title>
<path fill="none" stroke="midnightblue" d="M408.193,-173.04C420.809,-172.981 433.582,-172.922 445.819,-172.866"/>
<polygon fill="midnightblue" stroke="midnightblue" points="408.105,-169.54 398.122,-173.086 408.138,-176.54 408.105,-169.54"/>
</g>
<!-- Node9 -->
<g id="node9" class="node"><title>Node9</title>
<g id="a_node9"><a xlink:href="class_suite_c_r_m_add_in_1_1_dialogs_1_1_archive_dialog.html#a3160bc88861f266746f9631068fc9ed7" target="_top" xlink:title="SuiteCRMAddIn.Dialogs.Archive\lDialog.btnSearch_Click">
<polygon fill="white" stroke="black" points="671,-157.5 671,-187.5 831,-187.5 831,-157.5 671,-157.5"/>
<text text-anchor="start" x="679" y="-175.5" font-family="Helvetica,sans-Serif" font-size="10.00">SuiteCRMAddIn.Dialogs.Archive</text>
<text text-anchor="middle" x="751" y="-164.5" font-family="Helvetica,sans-Serif" font-size="10.00">Dialog.btnSearch_Click</text>
</a>
</g>
</g>
<!-- Node8&#45;&gt;Node9 -->
<g id="edge8" class="edge"><title>Node8&#45;&gt;Node9</title>
<path fill="none" stroke="midnightblue" d="M616.408,-165.869C634.34,-165.673 653.067,-165.719 670.63,-166.006"/>
<polygon fill="midnightblue" stroke="midnightblue" points="616.201,-162.372 606.249,-166.007 616.296,-169.371 616.201,-162.372"/>
</g>
<!-- Node9&#45;&gt;Node8 -->
<g id="edge9" class="edge"><title>Node9&#45;&gt;Node8</title>
<path fill="none" stroke="midnightblue" d="M660.469,-179.132C642.533,-179.327 623.808,-179.28 606.249,-178.993"/>
<polygon fill="midnightblue" stroke="midnightblue" points="660.679,-182.63 670.63,-178.994 660.584,-175.63 660.679,-182.63"/>
</g>
<!-- Node10 -->
<g id="node10" class="node"><title>Node10</title>
<g id="a_node10"><a xlink:href="class_suite_c_r_m_add_in_1_1_dialogs_1_1_archive_dialog.html#a1f34c87c999c13b787aab281472014cd" target="_top" xlink:title="Clean up any resources being used. ">
<polygon fill="white" stroke="black" points="895.5,-157.5 895.5,-187.5 1055.5,-187.5 1055.5,-157.5 895.5,-157.5"/>
<text text-anchor="start" x="903.5" y="-175.5" font-family="Helvetica,sans-Serif" font-size="10.00">SuiteCRMAddIn.Dialogs.Archive</text>
<text text-anchor="middle" x="975.5" y="-164.5" font-family="Helvetica,sans-Serif" font-size="10.00">Dialog.Dispose</text>
</a>
</g>
</g>
<!-- Node9&#45;&gt;Node10 -->
<g id="edge10" class="edge"><title>Node9&#45;&gt;Node10</title>
<path fill="none" stroke="midnightblue" d="M841.457,-172.5C859.273,-172.5 877.866,-172.5 895.308,-172.5"/>
<polygon fill="midnightblue" stroke="midnightblue" points="841.072,-169 831.072,-172.5 841.072,-176 841.072,-169"/>
</g>
<!-- Node11&#45;&gt;Node8 -->
<g id="edge12" class="edge"><title>Node11&#45;&gt;Node8</title>
<path fill="none" stroke="midnightblue" d="M386.234,-141.734C409.486,-146.889 434.783,-152.498 457.333,-157.498"/>
<polygon fill="midnightblue" stroke="midnightblue" points="386.928,-138.303 376.408,-139.556 385.413,-145.137 386.928,-138.303"/>
</g>
<!-- Node12 -->
<g id="node12" class="node"><title>Node12</title>
<g id="a_node12"><a xlink:href="class_suite_c_r_m_client_1_1cls_suite_c_r_m_helper.html#afdded880e1ddaad804a69c8789c8d268" target="_top" xlink:title="The protocols for how link fields are named vary. Try the most likely two possibilities, and log failures. ">
<polygon fill="white" stroke="black" points="435.5,-103.5 435.5,-133.5 616.5,-133.5 616.5,-103.5 435.5,-103.5"/>
<text text-anchor="start" x="443.5" y="-121.5" font-family="Helvetica,sans-Serif" font-size="10.00">SuiteCRMClient.clsSuiteCRMHelper.</text>
<text text-anchor="middle" x="526" y="-110.5" font-family="Helvetica,sans-Serif" font-size="10.00">TrySetRelationship</text>
</a>
</g>
</g>
<!-- Node11&#45;&gt;Node12 -->
<g id="edge13" class="edge"><title>Node11&#45;&gt;Node12</title>
<path fill="none" stroke="midnightblue" d="M408.298,-121.734C417.353,-121.483 426.487,-121.23 435.446,-120.982"/>
<polygon fill="midnightblue" stroke="midnightblue" points="408.021,-118.24 398.122,-122.016 408.215,-125.238 408.021,-118.24"/>
</g>
<!-- Node13 -->
<g id="node13" class="node"><title>Node13</title>
<g id="a_node13"><a xlink:href="class_suite_c_r_m_add_in_1_1_business_logic_1_1_email_archiving.html#a0e634b04d9750379118745f192d75a53" target="_top" xlink:title="SuiteCRMAddIn.BusinessLogic.\lEmailArchiving.CreateEmailRelationship\lOrFail">
<polygon fill="white" stroke="black" points="654.5,-98 654.5,-139 847.5,-139 847.5,-98 654.5,-98"/>
<text text-anchor="start" x="662.5" y="-127" font-family="Helvetica,sans-Serif" font-size="10.00">SuiteCRMAddIn.BusinessLogic.</text>
<text text-anchor="start" x="662.5" y="-116" font-family="Helvetica,sans-Serif" font-size="10.00">EmailArchiving.CreateEmailRelationship</text>
<text text-anchor="middle" x="751" y="-105" font-family="Helvetica,sans-Serif" font-size="10.00">OrFail</text>
</a>
</g>
</g>
<!-- Node12&#45;&gt;Node13 -->
<g id="edge14" class="edge"><title>Node12&#45;&gt;Node13</title>
<path fill="none" stroke="midnightblue" d="M626.935,-118.5C636.017,-118.5 645.202,-118.5 654.246,-118.5"/>
<polygon fill="midnightblue" stroke="midnightblue" points="626.739,-115 616.739,-118.5 626.739,-122 626.739,-115"/>
</g>
<!-- Node15 -->
<g id="node15" class="node"><title>Node15</title>
<g id="a_node15"><a xlink:href="class_suite_c_r_m_client_1_1cls_suite_c_r_m_helper.html#a8f51774a4b5d0dcd199c7a5b72ea4096" target="_top" xlink:title="Sets a CRM relationship and returns boolean success. &#39;Unsafe&#39; because most callers ignore the result...">
<polygon fill="white" stroke="black" points="660.5,-49.5 660.5,-79.5 841.5,-79.5 841.5,-49.5 660.5,-49.5"/>
<text text-anchor="start" x="668.5" y="-67.5" font-family="Helvetica,sans-Serif" font-size="10.00">SuiteCRMClient.clsSuiteCRMHelper.</text>
<text text-anchor="middle" x="751" y="-56.5" font-family="Helvetica,sans-Serif" font-size="10.00">SetRelationshipUnsafe</text>
</a>
</g>
</g>
<!-- Node12&#45;&gt;Node15 -->
<g id="edge16" class="edge"><title>Node12&#45;&gt;Node15</title>
<path fill="none" stroke="midnightblue" d="M599.059,-101.051C627.675,-94.1213 660.27,-86.2284 687.829,-79.5549"/>
<polygon fill="midnightblue" stroke="midnightblue" points="598.013,-97.7027 589.118,-103.458 599.661,-104.506 598.013,-97.7027"/>
</g>
<!-- Node14 -->
<g id="node14" class="node"><title>Node14</title>
<g id="a_node14"><a xlink:href="class_suite_c_r_m_add_in_1_1_business_logic_1_1_email_archiving.html#a0dcfbb2286b3d50c3ea8863705b19501" target="_top" xlink:title="SuiteCRMAddIn.BusinessLogic.\lEmailArchiving.ArchiveEmailWith\lEntityRelationships">
<polygon fill="white" stroke="black" points="894,-98 894,-139 1057,-139 1057,-98 894,-98"/>
<text text-anchor="start" x="902" y="-127" font-family="Helvetica,sans-Serif" font-size="10.00">SuiteCRMAddIn.BusinessLogic.</text>
<text text-anchor="start" x="902" y="-116" font-family="Helvetica,sans-Serif" font-size="10.00">EmailArchiving.ArchiveEmailWith</text>
<text text-anchor="middle" x="975.5" y="-105" font-family="Helvetica,sans-Serif" font-size="10.00">EntityRelationships</text>
</a>
</g>
</g>
<!-- Node13&#45;&gt;Node14 -->
<g id="edge15" class="edge"><title>Node13&#45;&gt;Node14</title>
<path fill="none" stroke="midnightblue" d="M857.823,-118.5C869.971,-118.5 882.206,-118.5 893.946,-118.5"/>
<polygon fill="midnightblue" stroke="midnightblue" points="857.651,-115 847.651,-118.5 857.651,-122 857.651,-115"/>
</g>
<!-- Node16 -->
<g id="node16" class="node"><title>Node16</title>
<g id="a_node16"><a xlink:href="class_suite_c_r_m_add_in_1_1_business_logic_1_1_appointment_syncing.html#a5d2d80bf950c4a4fd241610e65bd4713" target="_top" xlink:title="SuiteCRMAddIn.BusinessLogic.\lAppointmentSyncing.IsMatch">
<polygon fill="white" stroke="black" points="896.5,-49.5 896.5,-79.5 1054.5,-79.5 1054.5,-49.5 896.5,-49.5"/>
<text text-anchor="start" x="904.5" y="-67.5" font-family="Helvetica,sans-Serif" font-size="10.00">SuiteCRMAddIn.BusinessLogic.</text>
<text text-anchor="middle" x="975.5" y="-56.5" font-family="Helvetica,sans-Serif" font-size="10.00">AppointmentSyncing.IsMatch</text>
</a>
</g>
</g>
<!-- Node15&#45;&gt;Node16 -->
<g id="edge17" class="edge"><title>Node15&#45;&gt;Node16</title>
<path fill="none" stroke="midnightblue" d="M851.797,-64.5C866.7,-64.5 881.88,-64.5 896.252,-64.5"/>
<polygon fill="midnightblue" stroke="midnightblue" points="851.538,-61.0001 841.537,-64.5 851.537,-68.0001 851.538,-61.0001"/>
</g>
<!-- Node17 -->
<g id="node17" class="node"><title>Node17</title>
<g id="a_node17"><a xlink:href="class_suite_c_r_m_add_in_1_1_business_logic_1_1_contact_syncing.html#a20441ed5d82c529e624bba3ef7571e36" target="_top" xlink:title="SuiteCRMAddIn.BusinessLogic.\lContactSyncing.ConstructSyncState">
<polygon fill="white" stroke="black" points="886.5,-0.5 886.5,-30.5 1064.5,-30.5 1064.5,-0.5 886.5,-0.5"/>
<text text-anchor="start" x="894.5" y="-18.5" font-family="Helvetica,sans-Serif" font-size="10.00">SuiteCRMAddIn.BusinessLogic.</text>
<text text-anchor="middle" x="975.5" y="-7.5" font-family="Helvetica,sans-Serif" font-size="10.00">ContactSyncing.ConstructSyncState</text>
</a>
</g>
</g>
<!-- Node15&#45;&gt;Node17 -->
<g id="edge18" class="edge"><title>Node15&#45;&gt;Node17</title>
<path fill="none" stroke="midnightblue" d="M830.036,-47.3146C854.916,-41.8353 882.237,-35.8185 906.36,-30.5062"/>
<polygon fill="midnightblue" stroke="midnightblue" points="829.283,-43.8965 820.269,-49.4654 830.788,-50.7327 829.283,-43.8965"/>
</g>
</g>
</svg>
