<?xml version="1.0" encoding="UTF-8" standalone="no"?>
<!DOCTYPE svg PUBLIC "-//W3C//DTD SVG 1.1//EN"
 "http://www.w3.org/Graphics/SVG/1.1/DTD/svg11.dtd">
<!-- Generated by graphviz version 2.38.0 (20140413.2041)
 -->
<!-- Title: SuiteCRMAddIn.BusinessLogic.EmailArchiving.CreateEmailRelationshipOrFail Pages: 1 -->
<svg width="1069pt" height="50pt"
 viewBox="0.00 0.00 1069.00 50.00" xmlns="http://www.w3.org/2000/svg" xmlns:xlink="http://www.w3.org/1999/xlink">
<g id="graph0" class="graph" transform="scale(1 1) rotate(0) translate(4 46)">
<title>SuiteCRMAddIn.BusinessLogic.EmailArchiving.CreateEmailRelationshipOrFail</title>
<polygon fill="white" stroke="none" points="-4,4 -4,-46 1065,-46 1065,4 -4,4"/>
<!-- Node1 -->
<g id="node1" class="node"><title>Node1</title>
<polygon fill="#bfbfbf" stroke="black" points="0,-0.5 0,-41.5 193,-41.5 193,-0.5 0,-0.5"/>
<text text-anchor="start" x="8" y="-29.5" font-family="Helvetica,sans-Serif" font-size="10.00">SuiteCRMAddIn.BusinessLogic.</text>
<text text-anchor="start" x="8" y="-18.5" font-family="Helvetica,sans-Serif" font-size="10.00">EmailArchiving.CreateEmailRelationship</text>
<text text-anchor="middle" x="96.5" y="-7.5" font-family="Helvetica,sans-Serif" font-size="10.00">OrFail</text>
</g>
<!-- Node2 -->
<g id="node2" class="node"><title>Node2</title>
<g id="a_node2"><a xlink:href="class_suite_c_r_m_client_1_1cls_suite_c_r_m_helper.html#afdded880e1ddaad804a69c8789c8d268" target="_top" xlink:title="The protocols for how link fields are named vary. Try the most likely two possibilities, and log failures. ">
<polygon fill="white" stroke="black" points="229,-6 229,-36 410,-36 410,-6 229,-6"/>
<text text-anchor="start" x="237" y="-24" font-family="Helvetica,sans-Serif" font-size="10.00">SuiteCRMClient.clsSuiteCRMHelper.</text>
<text text-anchor="middle" x="319.5" y="-13" font-family="Helvetica,sans-Serif" font-size="10.00">TrySetRelationship</text>
</a>
</g>
</g>
<!-- Node1&#45;&gt;Node2 -->
<g id="edge1" class="edge"><title>Node1&#45;&gt;Node2</title>
<path fill="none" stroke="midnightblue" d="M193.148,-21C201.701,-21 210.374,-21 218.958,-21"/>
<polygon fill="midnightblue" stroke="midnightblue" points="218.982,-24.5001 228.982,-21 218.982,-17.5001 218.982,-24.5001"/>
</g>
<!-- Node3 -->
<g id="node3" class="node"><title>Node3</title>
<g id="a_node3"><a xlink:href="class_suite_c_r_m_client_1_1cls_suite_c_r_m_helper.html#a54a65e000ff00bb87a5e8bf5e2ef8d43" target="_top" xlink:title="Find the fields, among the fields of this module, which are links and where the name of the relations...">
<polygon fill="white" stroke="black" points="446,-6 446,-36 627,-36 627,-6 446,-6"/>
<text text-anchor="start" x="454" y="-24" font-family="Helvetica,sans-Serif" font-size="10.00">SuiteCRMClient.clsSuiteCRMHelper.</text>
<text text-anchor="middle" x="536.5" y="-13" font-family="Helvetica,sans-Serif" font-size="10.00">GetActivitiesLinks</text>
</a>
</g>
</g>
<!-- Node2&#45;&gt;Node3 -->
<g id="edge2" class="edge"><title>Node2&#45;&gt;Node3</title>
<path fill="none" stroke="midnightblue" d="M410.123,-21C418.478,-21 426.982,-21 435.424,-21"/>
<polygon fill="midnightblue" stroke="midnightblue" points="435.677,-24.5001 445.677,-21 435.677,-17.5001 435.677,-24.5001"/>
</g>
<!-- Node4 -->
<g id="node4" class="node"><title>Node4</title>
<g id="a_node4"><a xlink:href="class_suite_c_r_m_client_1_1cls_suite_c_r_m_helper.html#aae0adc545d51a81ed1297ceaa8b1522a" target="_top" xlink:title="Get the module fields data for the module with this name, if any. ">
<polygon fill="white" stroke="black" points="663,-6 663,-36 844,-36 844,-6 663,-6"/>
<text text-anchor="start" x="671" y="-24" font-family="Helvetica,sans-Serif" font-size="10.00">SuiteCRMClient.clsSuiteCRMHelper.</text>
<text text-anchor="middle" x="753.5" y="-13" font-family="Helvetica,sans-Serif" font-size="10.00">GetFieldsForModule</text>
</a>
</g>
</g>
<!-- Node3&#45;&gt;Node4 -->
<g id="edge3" class="edge"><title>Node3&#45;&gt;Node4</title>
<path fill="none" stroke="midnightblue" d="M627.123,-21C635.478,-21 643.982,-21 652.424,-21"/>
<polygon fill="midnightblue" stroke="midnightblue" points="652.677,-24.5001 662.677,-21 652.677,-17.5001 652.677,-24.5001"/>
</g>
<!-- Node5 -->
<g id="node5" class="node"><title>Node5</title>
<g id="a_node5"><a xlink:href="class_suite_c_r_m_client_1_1cls_suite_c_r_m_helper.html#a80f04ec3ab185a736b6633c0df69c536" target="_top" xlink:title="SuiteCRMClient.clsSuiteCRMHelper.\lEnsureLoggedIn">
<polygon fill="white" stroke="black" points="880,-6 880,-36 1061,-36 1061,-6 880,-6"/>
<text text-anchor="start" x="888" y="-24" font-family="Helvetica,sans-Serif" font-size="10.00">SuiteCRMClient.clsSuiteCRMHelper.</text>
<text text-anchor="middle" x="970.5" y="-13" font-family="Helvetica,sans-Serif" font-size="10.00">EnsureLoggedIn</text>
</a>
</g>
</g>
<!-- Node4&#45;&gt;Node5 -->
<g id="edge4" class="edge"><title>Node4&#45;&gt;Node5</title>
<path fill="none" stroke="midnightblue" d="M844.123,-21C852.478,-21 860.982,-21 869.424,-21"/>
<polygon fill="midnightblue" stroke="midnightblue" points="869.677,-24.5001 879.677,-21 869.677,-17.5001 869.677,-24.5001"/>
</g>
</g>
</svg>
