<?xml version="1.0" encoding="UTF-8" standalone="no"?>
<!DOCTYPE svg PUBLIC "-//W3C//DTD SVG 1.1//EN"
 "http://www.w3.org/Graphics/SVG/1.1/DTD/svg11.dtd">
<!-- Generated by graphviz version 2.38.0 (20140413.2041)
 -->
<!-- Title: SuiteCRMClient.Email.ArchiveableEmail.Save Pages: 1 -->
<svg width="395pt" height="137pt"
 viewBox="0.00 0.00 395.00 137.00" xmlns="http://www.w3.org/2000/svg" xmlns:xlink="http://www.w3.org/1999/xlink">
<g id="graph0" class="graph" transform="scale(1 1) rotate(0) translate(4 133)">
<title>SuiteCRMClient.Email.ArchiveableEmail.Save</title>
<polygon fill="white" stroke="none" points="-4,4 -4,-133 391,-133 391,4 -4,4"/>
<!-- Node1 -->
<g id="node1" class="node"><title>Node1</title>
<polygon fill="#bfbfbf" stroke="black" points="0,-49.5 0,-79.5 170,-79.5 170,-49.5 0,-49.5"/>
<text text-anchor="start" x="8" y="-67.5" font-family="Helvetica,sans-Serif" font-size="10.00">SuiteCRMClient.Email.Archiveable</text>
<text text-anchor="middle" x="85" y="-56.5" font-family="Helvetica,sans-Serif" font-size="10.00">Email.Save</text>
</g>
<!-- Node2 -->
<g id="node2" class="node"><title>Node2</title>
<g id="a_node2"><a xlink:href="class_suite_c_r_m_client_1_1_email_1_1_archive_result.html#a5a3871828abad99891c4fbf8bb350c61" target="_top" xlink:title="SuiteCRMClient.Email.Archive\lResult.Failure">
<polygon fill="white" stroke="black" points="220.5,-98.5 220.5,-128.5 372.5,-128.5 372.5,-98.5 220.5,-98.5"/>
<text text-anchor="start" x="228.5" y="-116.5" font-family="Helvetica,sans-Serif" font-size="10.00">SuiteCRMClient.Email.Archive</text>
<text text-anchor="middle" x="296.5" y="-105.5" font-family="Helvetica,sans-Serif" font-size="10.00">Result.Failure</text>
</a>
</g>
</g>
<!-- Node1&#45;&gt;Node2 -->
<g id="edge1" class="edge"><title>Node1&#45;&gt;Node2</title>
<path fill="none" stroke="midnightblue" d="M150.281,-79.5346C172.803,-84.8024 198.275,-90.7601 221.527,-96.1984"/>
<polygon fill="midnightblue" stroke="midnightblue" points="220.807,-99.6243 231.341,-98.4938 222.401,-92.8083 220.807,-99.6243"/>
</g>
<!-- Node3 -->
<g id="node3" class="node"><title>Node3</title>
<g id="a_node3"><a xlink:href="class_suite_c_r_m_client_1_1_email_1_1_archive_result.html#acdd4c7fbb608c683a25bb71e53c04481" target="_top" xlink:title="SuiteCRMClient.Email.Archive\lResult.Success">
<polygon fill="white" stroke="black" points="220.5,-49.5 220.5,-79.5 372.5,-79.5 372.5,-49.5 220.5,-49.5"/>
<text text-anchor="start" x="228.5" y="-67.5" font-family="Helvetica,sans-Serif" font-size="10.00">SuiteCRMClient.Email.Archive</text>
<text text-anchor="middle" x="296.5" y="-56.5" font-family="Helvetica,sans-Serif" font-size="10.00">Result.Success</text>
</a>
</g>
</g>
<!-- Node1&#45;&gt;Node3 -->
<g id="edge2" class="edge"><title>Node1&#45;&gt;Node3</title>
<path fill="none" stroke="midnightblue" d="M170.005,-64.5C183.249,-64.5 196.954,-64.5 210.227,-64.5"/>
<polygon fill="midnightblue" stroke="midnightblue" points="210.277,-68.0001 220.277,-64.5 210.277,-61.0001 210.277,-68.0001"/>
</g>
<!-- Node4 -->
<g id="node4" class="node"><title>Node4</title>
<g id="a_node4"><a xlink:href="class_suite_c_r_m_client_1_1cls_suite_c_r_m_helper.html#a050637c0cbd1012cf9cf58c5cb3d179c" target="_top" xlink:title="Return the CRM id of the current user. ">
<polygon fill="white" stroke="black" points="206,-0.5 206,-30.5 387,-30.5 387,-0.5 206,-0.5"/>
<text text-anchor="start" x="214" y="-18.5" font-family="Helvetica,sans-Serif" font-size="10.00">SuiteCRMClient.clsSuiteCRMHelper.</text>
<text text-anchor="middle" x="296.5" y="-7.5" font-family="Helvetica,sans-Serif" font-size="10.00">GetUserId</text>
</a>
</g>
</g>
<!-- Node1&#45;&gt;Node4 -->
<g id="edge3" class="edge"><title>Node1&#45;&gt;Node4</title>
<path fill="none" stroke="midnightblue" d="M150.281,-49.4654C172.803,-44.1976 198.275,-38.2399 221.527,-32.8016"/>
<polygon fill="midnightblue" stroke="midnightblue" points="222.401,-36.1917 231.341,-30.5062 220.807,-29.3757 222.401,-36.1917"/>
</g>
</g>
</svg>
