<?xml version="1.0" encoding="UTF-8" standalone="no"?>
<!DOCTYPE svg PUBLIC "-//W3C//DTD SVG 1.1//EN"
 "http://www.w3.org/Graphics/SVG/1.1/DTD/svg11.dtd">
<!-- Generated by graphviz version 2.38.0 (20140413.2041)
 -->
<!-- Title: SuiteCRMAddIn.ThisAddIn.SuiteCRMAuthenticate Pages: 1 -->
<svg width="692pt" height="110pt"
 viewBox="0.00 0.00 692.00 110.00" xmlns="http://www.w3.org/2000/svg" xmlns:xlink="http://www.w3.org/1999/xlink">
<g id="graph0" class="graph" transform="scale(1 1) rotate(0) translate(4 106)">
<title>SuiteCRMAddIn.ThisAddIn.SuiteCRMAuthenticate</title>
<polygon fill="white" stroke="none" points="-4,4 -4,-106 688,-106 688,4 -4,4"/>
<!-- Node1 -->
<g id="node1" class="node"><title>Node1</title>
<polygon fill="#bfbfbf" stroke="black" points="0,-49.5 0,-79.5 138,-79.5 138,-49.5 0,-49.5"/>
<text text-anchor="start" x="8" y="-67.5" font-family="Helvetica,sans-Serif" font-size="10.00">SuiteCRMAddIn.ThisAddIn.</text>
<text text-anchor="middle" x="69" y="-56.5" font-family="Helvetica,sans-Serif" font-size="10.00">SuiteCRMAuthenticate</text>
</g>
<!-- Node2 -->
<g id="node2" class="node"><title>Node2</title>
<g id="a_node2"><a xlink:href="class_suite_c_r_m_add_in_1_1_this_add_in.html#aee77aec45c87898261c4ca5f91ae2476" target="_top" xlink:title="SuiteCRMAddIn.ThisAddIn.\lAuthenticate">
<polygon fill="white" stroke="black" points="174,-49.5 174,-79.5 312,-79.5 312,-49.5 174,-49.5"/>
<text text-anchor="start" x="182" y="-67.5" font-family="Helvetica,sans-Serif" font-size="10.00">SuiteCRMAddIn.ThisAddIn.</text>
<text text-anchor="middle" x="243" y="-56.5" font-family="Helvetica,sans-Serif" font-size="10.00">Authenticate</text>
</a>
</g>
</g>
<!-- Node1&#45;&gt;Node2 -->
<g id="edge1" class="edge"><title>Node1&#45;&gt;Node2</title>
<path fill="none" stroke="midnightblue" d="M138.473,-64.5C146.732,-64.5 155.216,-64.5 163.602,-64.5"/>
<polygon fill="midnightblue" stroke="midnightblue" points="163.762,-68.0001 173.762,-64.5 163.762,-61.0001 163.762,-68.0001"/>
</g>
<!-- Node3 -->
<g id="node3" class="node"><title>Node3</title>
<g id="a_node3"><a xlink:href="class_suite_c_r_m_client_1_1_user_session.html#a85104699962c1ee8d45e5659237661e7" target="_top" xlink:title="Authenticate against LDAP using my configured credentials. ">
<polygon fill="white" stroke="black" points="534,-71.5 534,-101.5 684,-101.5 684,-71.5 534,-71.5"/>
<text text-anchor="start" x="542" y="-89.5" font-family="Helvetica,sans-Serif" font-size="10.00">SuiteCRMClient.UserSession.</text>
<text text-anchor="middle" x="609" y="-78.5" font-family="Helvetica,sans-Serif" font-size="10.00">AuthenticateLDAP</text>
</a>
</g>
</g>
<!-- Node2&#45;&gt;Node3 -->
<g id="edge2" class="edge"><title>Node2&#45;&gt;Node3</title>
<path fill="none" stroke="midnightblue" d="M295.938,-79.5274C312.435,-83.6126 330.85,-87.4676 348,-89.5 406.417,-96.4226 472.731,-95.5202 523.766,-92.9654"/>
<polygon fill="midnightblue" stroke="midnightblue" points="523.963,-96.46 533.763,-92.4343 523.591,-89.4699 523.963,-96.46"/>
</g>
<!-- Node4 -->
<g id="node4" class="node"><title>Node4</title>
<g id="a_node4"><a xlink:href="class_suite_c_r_m_client_1_1_user_session.html#a8382d9c050d8e5da8924dc536cd03245" target="_top" xlink:title="Logs in to the CRM server. ">
<polygon fill="white" stroke="black" points="348,-49.5 348,-79.5 498,-79.5 498,-49.5 348,-49.5"/>
<text text-anchor="start" x="356" y="-67.5" font-family="Helvetica,sans-Serif" font-size="10.00">SuiteCRMClient.UserSession.</text>
<text text-anchor="middle" x="423" y="-56.5" font-family="Helvetica,sans-Serif" font-size="10.00">Login</text>
</a>
</g>
</g>
<!-- Node2&#45;&gt;Node4 -->
<g id="edge3" class="edge"><title>Node2&#45;&gt;Node4</title>
<path fill="none" stroke="midnightblue" d="M312.056,-64.5C320.451,-64.5 329.109,-64.5 337.708,-64.5"/>
<polygon fill="midnightblue" stroke="midnightblue" points="337.756,-68.0001 347.756,-64.5 337.756,-61.0001 337.756,-68.0001"/>
</g>
<!-- Node5 -->
<g id="node5" class="node"><title>Node5</title>
<g id="a_node5"><a xlink:href="class_suite_c_r_m_add_in_1_1_this_add_in.html#a8f019e8cd74b651865a318ef26ceb30f" target="_top" xlink:title="SuiteCRMAddIn.ThisAddIn.\lShowAndLogError">
<polygon fill="white" stroke="black" points="354,-0.5 354,-30.5 492,-30.5 492,-0.5 354,-0.5"/>
<text text-anchor="start" x="362" y="-18.5" font-family="Helvetica,sans-Serif" font-size="10.00">SuiteCRMAddIn.ThisAddIn.</text>
<text text-anchor="middle" x="423" y="-7.5" font-family="Helvetica,sans-Serif" font-size="10.00">ShowAndLogError</text>
</a>
</g>
</g>
<!-- Node2&#45;&gt;Node5 -->
<g id="edge5" class="edge"><title>Node2&#45;&gt;Node5</title>
<path fill="none" stroke="midnightblue" d="M298.858,-49.3986C317.386,-44.2981 338.242,-38.5571 357.45,-33.2695"/>
<polygon fill="midnightblue" stroke="midnightblue" points="358.61,-36.5802 367.323,-30.5516 356.753,-29.8313 358.61,-36.5802"/>
</g>
<!-- Node4&#45;&gt;Node3 -->
<g id="edge4" class="edge"><title>Node4&#45;&gt;Node3</title>
<path fill="none" stroke="midnightblue" d="M498.044,-73.3531C506.514,-74.3658 515.195,-75.4037 523.784,-76.4307"/>
<polygon fill="midnightblue" stroke="midnightblue" points="523.463,-79.9171 533.808,-77.6292 524.294,-72.9666 523.463,-79.9171"/>
</g>
</g>
</svg>
