<?xml version="1.0" encoding="UTF-8" standalone="no"?>
<!DOCTYPE svg PUBLIC "-//W3C//DTD SVG 1.1//EN"
 "http://www.w3.org/Graphics/SVG/1.1/DTD/svg11.dtd">
<!-- Generated by graphviz version 2.38.0 (20140413.2041)
 -->
<!-- Title: SuiteCRMAddIn.BusinessLogic.TaskSyncing.ConstructAndDespatchCrmItem Pages: 1 -->
<svg width="838pt" height="50pt"
 viewBox="0.00 0.00 838.00 50.00" xmlns="http://www.w3.org/2000/svg" xmlns:xlink="http://www.w3.org/1999/xlink">
<g id="graph0" class="graph" transform="scale(1 1) rotate(0) translate(4 46)">
<title>SuiteCRMAddIn.BusinessLogic.TaskSyncing.ConstructAndDespatchCrmItem</title>
<polygon fill="white" stroke="none" points="-4,4 -4,-46 834,-46 834,4 -4,4"/>
<!-- Node1 -->
<g id="node1" class="node"><title>Node1</title>
<polygon fill="#bfbfbf" stroke="black" points="0,-0.5 0,-41.5 179,-41.5 179,-0.5 0,-0.5"/>
<text text-anchor="start" x="8" y="-29.5" font-family="Helvetica,sans-Serif" font-size="10.00">SuiteCRMAddIn.BusinessLogic.</text>
<text text-anchor="start" x="8" y="-18.5" font-family="Helvetica,sans-Serif" font-size="10.00">TaskSyncing.ConstructAndDespatch</text>
<text text-anchor="middle" x="89.5" y="-7.5" font-family="Helvetica,sans-Serif" font-size="10.00">CrmItem</text>
</g>
<!-- Node2 -->
<g id="node2" class="node"><title>Node2</title>
<g id="a_node2"><a xlink:href="class_suite_c_r_m_client_1_1cls_suite_c_r_m_helper.html#a7bbecd35543154e9785fcfd7788f54e8" target="_top" xlink:title="Sets an entry in CRM and returns the id. &#39;Unsafe&#39; because if it fails (for whatever reason)...">
<polygon fill="white" stroke="black" points="215,-6 215,-36 396,-36 396,-6 215,-6"/>
<text text-anchor="start" x="223" y="-24" font-family="Helvetica,sans-Serif" font-size="10.00">SuiteCRMClient.clsSuiteCRMHelper.</text>
<text text-anchor="middle" x="305.5" y="-13" font-family="Helvetica,sans-Serif" font-size="10.00">SetEntryUnsafe</text>
</a>
</g>
</g>
<!-- Node1&#45;&gt;Node2 -->
<g id="edge1" class="edge"><title>Node1&#45;&gt;Node2</title>
<path fill="none" stroke="midnightblue" d="M179.087,-21C187.599,-21 196.272,-21 204.881,-21"/>
<polygon fill="midnightblue" stroke="midnightblue" points="204.944,-24.5001 214.944,-21 204.944,-17.5001 204.944,-24.5001"/>
</g>
<!-- Node3 -->
<g id="node3" class="node"><title>Node3</title>
<g id="a_node3"><a xlink:href="class_suite_c_r_m_client_1_1cls_suite_c_r_m_helper.html#a428cdd093678cff52df358c232c8350c" target="_top" xlink:title="SuiteCRMClient.clsSuiteCRMHelper.\lSetEntry">
<polygon fill="white" stroke="black" points="432,-6 432,-36 613,-36 613,-6 432,-6"/>
<text text-anchor="start" x="440" y="-24" font-family="Helvetica,sans-Serif" font-size="10.00">SuiteCRMClient.clsSuiteCRMHelper.</text>
<text text-anchor="middle" x="522.5" y="-13" font-family="Helvetica,sans-Serif" font-size="10.00">SetEntry</text>
</a>
</g>
</g>
<!-- Node2&#45;&gt;Node3 -->
<g id="edge2" class="edge"><title>Node2&#45;&gt;Node3</title>
<path fill="none" stroke="midnightblue" d="M396.123,-21C404.478,-21 412.982,-21 421.424,-21"/>
<polygon fill="midnightblue" stroke="midnightblue" points="421.677,-24.5001 431.677,-21 421.677,-17.5001 421.677,-24.5001"/>
</g>
<!-- Node4 -->
<g id="node4" class="node"><title>Node4</title>
<g id="a_node4"><a xlink:href="class_suite_c_r_m_client_1_1cls_suite_c_r_m_helper.html#a80f04ec3ab185a736b6633c0df69c536" target="_top" xlink:title="SuiteCRMClient.clsSuiteCRMHelper.\lEnsureLoggedIn">
<polygon fill="white" stroke="black" points="649,-6 649,-36 830,-36 830,-6 649,-6"/>
<text text-anchor="start" x="657" y="-24" font-family="Helvetica,sans-Serif" font-size="10.00">SuiteCRMClient.clsSuiteCRMHelper.</text>
<text text-anchor="middle" x="739.5" y="-13" font-family="Helvetica,sans-Serif" font-size="10.00">EnsureLoggedIn</text>
</a>
</g>
</g>
<!-- Node3&#45;&gt;Node4 -->
<g id="edge3" class="edge"><title>Node3&#45;&gt;Node4</title>
<path fill="none" stroke="midnightblue" d="M613.123,-21C621.478,-21 629.982,-21 638.424,-21"/>
<polygon fill="midnightblue" stroke="midnightblue" points="638.677,-24.5001 648.677,-21 638.677,-17.5001 638.677,-24.5001"/>
</g>
</g>
</svg>
