<?xml version="1.0" encoding="UTF-8" standalone="no"?>
<!DOCTYPE svg PUBLIC "-//W3C//DTD SVG 1.1//EN"
 "http://www.w3.org/Graphics/SVG/1.1/DTD/svg11.dtd">
<!-- Generated by graphviz version 2.38.0 (20140413.2041)
 -->
<!-- Title: SuiteCRMAddIn.BusinessLogic.CRMPermissionsCache.HasAccess Pages: 1 -->
<svg width="661pt" height="94pt"
 viewBox="0.00 0.00 661.00 93.50" xmlns="http://www.w3.org/2000/svg" xmlns:xlink="http://www.w3.org/1999/xlink">
<g id="graph0" class="graph" transform="scale(1 1) rotate(0) translate(4 89.5)">
<title>SuiteCRMAddIn.BusinessLogic.CRMPermissionsCache.HasAccess</title>
<polygon fill="white" stroke="none" points="-4,4 -4,-89.5 657,-89.5 657,4 -4,4"/>
<!-- Node1 -->
<g id="node1" class="node"><title>Node1</title>
<polygon fill="#bfbfbf" stroke="black" points="0,-24.5 0,-54.5 176,-54.5 176,-24.5 0,-24.5"/>
<text text-anchor="start" x="8" y="-42.5" font-family="Helvetica,sans-Serif" font-size="10.00">SuiteCRMAddIn.BusinessLogic.</text>
<text text-anchor="middle" x="88" y="-31.5" font-family="Helvetica,sans-Serif" font-size="10.00">CRMPermissionsCache.HasAccess</text>
</g>
<!-- Node2 -->
<g id="node2" class="node"><title>Node2</title>
<g id="a_node2"><a xlink:href="class_suite_c_r_m_add_in_1_1_business_logic_1_1_c_r_m_permissions_cache.html#ae9c79ed281f1327a689fdd041641b947" target="_top" xlink:title="Check whether my synchroniser is allowed import access for the specified CRM module. ">
<polygon fill="white" stroke="black" points="212.5,-49.5 212.5,-79.5 416.5,-79.5 416.5,-49.5 212.5,-49.5"/>
<text text-anchor="start" x="220.5" y="-67.5" font-family="Helvetica,sans-Serif" font-size="10.00">SuiteCRMAddIn.BusinessLogic.</text>
<text text-anchor="middle" x="314.5" y="-56.5" font-family="Helvetica,sans-Serif" font-size="10.00">CRMPermissionsCache.HasImportAccess</text>
</a>
</g>
</g>
<!-- Node1&#45;&gt;Node2 -->
<g id="edge1" class="edge"><title>Node1&#45;&gt;Node2</title>
<path fill="none" stroke="midnightblue" d="M186.183,-50.3222C194.814,-51.2833 203.566,-52.258 212.231,-53.2228"/>
<polygon fill="midnightblue" stroke="midnightblue" points="186.445,-46.8298 176.119,-49.2014 185.67,-53.7868 186.445,-46.8298"/>
</g>
<!-- Node4 -->
<g id="node4" class="node"><title>Node4</title>
<g id="a_node4"><a xlink:href="class_suite_c_r_m_add_in_1_1_business_logic_1_1_c_r_m_permissions_cache.html#a042a30c67613cb37d8f3d001bccdd032" target="_top" xlink:title="Check whether my synchroniser is allowed export access for the specified CRM module. ">
<polygon fill="white" stroke="black" points="212,-0.5 212,-30.5 417,-30.5 417,-0.5 212,-0.5"/>
<text text-anchor="start" x="220" y="-18.5" font-family="Helvetica,sans-Serif" font-size="10.00">SuiteCRMAddIn.BusinessLogic.</text>
<text text-anchor="middle" x="314.5" y="-7.5" font-family="Helvetica,sans-Serif" font-size="10.00">CRMPermissionsCache.HasExportAccess</text>
</a>
</g>
</g>
<!-- Node1&#45;&gt;Node4 -->
<g id="edge3" class="edge"><title>Node1&#45;&gt;Node4</title>
<path fill="none" stroke="midnightblue" d="M186.077,-29.122C194.618,-28.209 203.277,-27.2833 211.854,-26.3664"/>
<polygon fill="midnightblue" stroke="midnightblue" points="185.69,-25.6434 176.119,-30.1866 186.434,-32.6037 185.69,-25.6434"/>
</g>
<!-- Node3 -->
<g id="node3" class="node"><title>Node3</title>
<g id="a_node3"><a xlink:href="class_suite_c_r_m_add_in_1_1_business_logic_1_1_c_r_m_permissions_cache.html#a9228e56ed8852ceb135b9835b52e025c" target="_top" xlink:title="Check whether my synchroniser is allowed both import and export access for the specified CRM module...">
<polygon fill="white" stroke="black" points="453,-44 453,-85 653,-85 653,-44 453,-44"/>
<text text-anchor="start" x="461" y="-73" font-family="Helvetica,sans-Serif" font-size="10.00">SuiteCRMAddIn.BusinessLogic.</text>
<text text-anchor="start" x="461" y="-62" font-family="Helvetica,sans-Serif" font-size="10.00">CRMPermissionsCache.HasImportExport</text>
<text text-anchor="middle" x="553" y="-51" font-family="Helvetica,sans-Serif" font-size="10.00">Access</text>
</a>
</g>
</g>
<!-- Node2&#45;&gt;Node3 -->
<g id="edge2" class="edge"><title>Node2&#45;&gt;Node3</title>
<path fill="none" stroke="midnightblue" d="M426.92,-64.5C435.547,-64.5 444.222,-64.5 452.762,-64.5"/>
<polygon fill="midnightblue" stroke="midnightblue" points="426.827,-61.0001 416.826,-64.5 426.826,-68.0001 426.827,-61.0001"/>
</g>
</g>
</svg>
