<?xml version="1.0" encoding="UTF-8" standalone="no"?>
<!DOCTYPE svg PUBLIC "-//W3C//DTD SVG 1.1//EN"
 "http://www.w3.org/Graphics/SVG/1.1/DTD/svg11.dtd">
<!-- Generated by graphviz version 2.38.0 (20140413.2041)
 -->
<!-- Title: SuiteCRMAddIn.ProtoItems.ProtoAppointment.ProtoAppointment Pages: 1 -->
<svg width="401pt" height="39pt"
 viewBox="0.00 0.00 401.00 39.00" xmlns="http://www.w3.org/2000/svg" xmlns:xlink="http://www.w3.org/1999/xlink">
<g id="graph0" class="graph" transform="scale(1 1) rotate(0) translate(4 35)">
<title>SuiteCRMAddIn.ProtoItems.ProtoAppointment.ProtoAppointment</title>
<polygon fill="white" stroke="none" points="-4,4 -4,-35 397,-35 397,4 -4,4"/>
<!-- Node1 -->
<g id="node1" class="node"><title>Node1</title>
<polygon fill="#bfbfbf" stroke="black" points="0,-0.5 0,-30.5 176,-30.5 176,-0.5 0,-0.5"/>
<text text-anchor="start" x="8" y="-18.5" font-family="Helvetica,sans-Serif" font-size="10.00">SuiteCRMAddIn.ProtoItems.</text>
<text text-anchor="middle" x="88" y="-7.5" font-family="Helvetica,sans-Serif" font-size="10.00">ProtoAppointment.ProtoAppointment</text>
</g>
<!-- Node2 -->
<g id="node2" class="node"><title>Node2</title>
<g id="a_node2"><a xlink:href="class_suite_c_r_m_client_1_1cls_suite_c_r_m_helper.html#a050637c0cbd1012cf9cf58c5cb3d179c" target="_top" xlink:title="Return the CRM id of the current user. ">
<polygon fill="white" stroke="black" points="212,-0.5 212,-30.5 393,-30.5 393,-0.5 212,-0.5"/>
<text text-anchor="start" x="220" y="-18.5" font-family="Helvetica,sans-Serif" font-size="10.00">SuiteCRMClient.clsSuiteCRMHelper.</text>
<text text-anchor="middle" x="302.5" y="-7.5" font-family="Helvetica,sans-Serif" font-size="10.00">GetUserId</text>
</a>
</g>
</g>
<!-- Node1&#45;&gt;Node2 -->
<g id="edge1" class="edge"><title>Node1&#45;&gt;Node2</title>
<path fill="none" stroke="midnightblue" d="M176.045,-15.5C184.53,-15.5 193.185,-15.5 201.782,-15.5"/>
<polygon fill="midnightblue" stroke="midnightblue" points="201.834,-19.0001 211.834,-15.5 201.834,-12.0001 201.834,-19.0001"/>
</g>
</g>
</svg>
