<?xml version="1.0" encoding="UTF-8" standalone="no"?>
<!DOCTYPE svg PUBLIC "-//W3C//DTD SVG 1.1//EN"
 "http://www.w3.org/Graphics/SVG/1.1/DTD/svg11.dtd">
<!-- Generated by graphviz version 2.38.0 (20140413.2041)
 -->
<!-- Title: SuiteCRMClient.clsSuiteCRMHelper.GetUserId Pages: 1 -->
<svg width="1087pt" height="453pt"
 viewBox="0.00 0.00 1087.00 452.50" xmlns="http://www.w3.org/2000/svg" xmlns:xlink="http://www.w3.org/1999/xlink">
<g id="graph0" class="graph" transform="scale(1 1) rotate(0) translate(4 448.5)">
<title>SuiteCRMClient.clsSuiteCRMHelper.GetUserId</title>
<polygon fill="white" stroke="none" points="-4,4 -4,-448.5 1083,-448.5 1083,4 -4,4"/>
<!-- Node1 -->
<g id="node1" class="node"><title>Node1</title>
<polygon fill="#bfbfbf" stroke="black" points="0,-201.5 0,-231.5 181,-231.5 181,-201.5 0,-201.5"/>
<text text-anchor="start" x="8" y="-219.5" font-family="Helvetica,sans-Serif" font-size="10.00">SuiteCRMClient.clsSuiteCRMHelper.</text>
<text text-anchor="middle" x="90.5" y="-208.5" font-family="Helvetica,sans-Serif" font-size="10.00">GetUserId</text>
</g>
<!-- Node2 -->
<g id="node2" class="node"><title>Node2</title>
<g id="a_node2"><a xlink:href="class_suite_c_r_m_add_in_1_1_business_logic_1_1_appointment_syncing.html#a778c161dea3f5934089e5866b59f9dad" target="_top" xlink:title="Ensure that this Outlook item has a property of this name with this value. ">
<polygon fill="white" stroke="black" points="217,-403 217,-444 427,-444 427,-403 217,-403"/>
<text text-anchor="start" x="225" y="-432" font-family="Helvetica,sans-Serif" font-size="10.00">SuiteCRMAddIn.BusinessLogic.</text>
<text text-anchor="start" x="225" y="-421" font-family="Helvetica,sans-Serif" font-size="10.00">AppointmentSyncing.EnsureSynchronisation</text>
<text text-anchor="middle" x="322" y="-410" font-family="Helvetica,sans-Serif" font-size="10.00">PropertyForOutlookItem</text>
</a>
</g>
</g>
<!-- Node1&#45;&gt;Node2 -->
<g id="edge1" class="edge"><title>Node1&#45;&gt;Node2</title>
<path fill="none" stroke="midnightblue" d="M102.944,-240.644C121.694,-277.696 162.401,-348.479 217,-388.5 224.682,-394.131 233.331,-398.898 242.276,-402.923"/>
<polygon fill="midnightblue" stroke="midnightblue" points="106.023,-238.974 98.4495,-231.565 99.7497,-242.08 106.023,-238.974"/>
</g>
<!-- Node4 -->
<g id="node4" class="node"><title>Node4</title>
<g id="a_node4"><a xlink:href="class_suite_c_r_m_add_in_1_1_business_logic_1_1_appointment_syncing.html#af477f9f681874a701880737a2383b5fc" target="_top" xlink:title="Synchronise items in the specified folder with the specified SuiteCRM module. ">
<polygon fill="white" stroke="black" points="709,-383.5 709,-413.5 868,-413.5 868,-383.5 709,-383.5"/>
<text text-anchor="start" x="717" y="-401.5" font-family="Helvetica,sans-Serif" font-size="10.00">SuiteCRMAddIn.BusinessLogic.</text>
<text text-anchor="middle" x="788.5" y="-390.5" font-family="Helvetica,sans-Serif" font-size="10.00">AppointmentSyncing.SyncFolder</text>
</a>
</g>
</g>
<!-- Node1&#45;&gt;Node4 -->
<g id="edge6" class="edge"><title>Node1&#45;&gt;Node4</title>
<path fill="none" stroke="midnightblue" d="M105.054,-240.539C124.896,-273.109 165.188,-330.099 217,-355.5 238.711,-366.144 557.554,-385.479 708.882,-394.121"/>
<polygon fill="midnightblue" stroke="midnightblue" points="107.899,-238.474 99.7845,-231.662 101.879,-242.047 107.899,-238.474"/>
</g>
<!-- Node6 -->
<g id="node6" class="node"><title>Node6</title>
<g id="a_node6"><a xlink:href="class_suite_c_r_m_add_in_1_1_business_logic_1_1_contact_syncing.html#a20441ed5d82c529e624bba3ef7571e36" target="_top" xlink:title="SuiteCRMAddIn.BusinessLogic.\lContactSyncing.ConstructSyncState">
<polygon fill="white" stroke="black" points="233,-315.5 233,-345.5 411,-345.5 411,-315.5 233,-315.5"/>
<text text-anchor="start" x="241" y="-333.5" font-family="Helvetica,sans-Serif" font-size="10.00">SuiteCRMAddIn.BusinessLogic.</text>
<text text-anchor="middle" x="322" y="-322.5" font-family="Helvetica,sans-Serif" font-size="10.00">ContactSyncing.ConstructSyncState</text>
</a>
</g>
</g>
<!-- Node1&#45;&gt;Node6 -->
<g id="edge7" class="edge"><title>Node1&#45;&gt;Node6</title>
<path fill="none" stroke="midnightblue" d="M115.565,-238.251C139.578,-258.812 178.366,-289.04 217,-306.5 224.599,-309.934 232.739,-312.902 240.997,-315.463"/>
<polygon fill="midnightblue" stroke="midnightblue" points="117.852,-235.601 108.01,-231.681 113.259,-240.884 117.852,-235.601"/>
</g>
<!-- Node7 -->
<g id="node7" class="node"><title>Node7</title>
<g id="a_node7"><a xlink:href="class_suite_c_r_m_add_in_1_1_business_logic_1_1_synchroniser.html#acc7036a95cd34952cf01c774b1fcefc2" target="_top" xlink:title="Fetch records in pages from CRM, and merge them into Outlook. ">
<polygon fill="white" stroke="black" points="235,-256 235,-297 409,-297 409,-256 235,-256"/>
<text text-anchor="start" x="243" y="-285" font-family="Helvetica,sans-Serif" font-size="10.00">SuiteCRMAddIn.BusinessLogic.</text>
<text text-anchor="start" x="243" y="-274" font-family="Helvetica,sans-Serif" font-size="10.00">Synchroniser&lt; Outlook.Appointment</text>
<text text-anchor="middle" x="322" y="-263" font-family="Helvetica,sans-Serif" font-size="10.00">Item &gt;::MergeRecordsFromCrm</text>
</a>
</g>
</g>
<!-- Node1&#45;&gt;Node7 -->
<g id="edge8" class="edge"><title>Node1&#45;&gt;Node7</title>
<path fill="none" stroke="midnightblue" d="M158.952,-234.135C185.165,-240.987 215.368,-248.884 242.544,-255.989"/>
<polygon fill="midnightblue" stroke="midnightblue" points="159.676,-230.706 149.116,-231.563 157.906,-237.479 159.676,-230.706"/>
</g>
<!-- Node8 -->
<g id="node8" class="node"><title>Node8</title>
<g id="a_node8"><a xlink:href="class_suite_c_r_m_add_in_1_1_business_logic_1_1_task_syncing.html#a2024b479b443ef00135870d5bbbfa4be" target="_top" xlink:title="Update a single item in the specified Outlook folder with changes from CRM. If the item does not exis...">
<polygon fill="white" stroke="black" points="233,-196 233,-237 411,-237 411,-196 233,-196"/>
<text text-anchor="start" x="241" y="-225" font-family="Helvetica,sans-Serif" font-size="10.00">SuiteCRMAddIn.BusinessLogic.</text>
<text text-anchor="start" x="241" y="-214" font-family="Helvetica,sans-Serif" font-size="10.00">TaskSyncing.AddOrUpdateItemFrom</text>
<text text-anchor="middle" x="322" y="-203" font-family="Helvetica,sans-Serif" font-size="10.00">CrmToOutlook</text>
</a>
</g>
</g>
<!-- Node1&#45;&gt;Node8 -->
<g id="edge9" class="edge"><title>Node1&#45;&gt;Node8</title>
<path fill="none" stroke="midnightblue" d="M191.237,-216.5C205.087,-216.5 219.234,-216.5 232.852,-216.5"/>
<polygon fill="midnightblue" stroke="midnightblue" points="191.217,-213 181.217,-216.5 191.217,-220 191.217,-213"/>
</g>
<!-- Node9 -->
<g id="node9" class="node"><title>Node9</title>
<g id="a_node9"><a xlink:href="class_suite_c_r_m_add_in_1_1_proto_items_1_1_proto_appointment.html#a9185831d640f7d46d6207eab84253971" target="_top" xlink:title="SuiteCRMAddIn.ProtoItems.\lProtoAppointment.ProtoAppointment">
<polygon fill="white" stroke="black" points="234,-147.5 234,-177.5 410,-177.5 410,-147.5 234,-147.5"/>
<text text-anchor="start" x="242" y="-165.5" font-family="Helvetica,sans-Serif" font-size="10.00">SuiteCRMAddIn.ProtoItems.</text>
<text text-anchor="middle" x="322" y="-154.5" font-family="Helvetica,sans-Serif" font-size="10.00">ProtoAppointment.ProtoAppointment</text>
</a>
</g>
</g>
<!-- Node1&#45;&gt;Node9 -->
<g id="edge10" class="edge"><title>Node1&#45;&gt;Node9</title>
<path fill="none" stroke="midnightblue" d="M164.093,-199.045C181.423,-194.906 199.863,-190.525 217,-186.5 229.447,-183.576 242.74,-180.485 255.518,-177.529"/>
<polygon fill="midnightblue" stroke="midnightblue" points="162.948,-195.72 154.036,-201.449 164.576,-202.528 162.948,-195.72"/>
</g>
<!-- Node10 -->
<g id="node10" class="node"><title>Node10</title>
<g id="a_node10"><a xlink:href="class_suite_c_r_m_add_in_1_1_proto_items_1_1_proto_contact.html#a491dedc0d84e767185d36c92638ae94e" target="_top" xlink:title="SuiteCRMAddIn.ProtoItems.\lProtoContact.AsNameValues">
<polygon fill="white" stroke="black" points="249,-98.5 249,-128.5 395,-128.5 395,-98.5 249,-98.5"/>
<text text-anchor="start" x="257" y="-116.5" font-family="Helvetica,sans-Serif" font-size="10.00">SuiteCRMAddIn.ProtoItems.</text>
<text text-anchor="middle" x="322" y="-105.5" font-family="Helvetica,sans-Serif" font-size="10.00">ProtoContact.AsNameValues</text>
</a>
</g>
</g>
<!-- Node1&#45;&gt;Node10 -->
<g id="edge11" class="edge"><title>Node1&#45;&gt;Node10</title>
<path fill="none" stroke="midnightblue" d="M118.886,-195.447C143.366,-177.589 180.853,-152.541 217,-137.5 227.094,-133.3 238.059,-129.761 248.958,-126.802"/>
<polygon fill="midnightblue" stroke="midnightblue" points="116.749,-192.674 110.793,-201.436 120.913,-198.301 116.749,-192.674"/>
</g>
<!-- Node11 -->
<g id="node11" class="node"><title>Node11</title>
<g id="a_node11"><a xlink:href="class_suite_c_r_m_add_in_1_1_proto_items_1_1_proto_task.html#adcb8a1086d740e37605bee0eefb2c45e" target="_top" xlink:title="Construct a name value list (to be serialised as JSON) representing this task. ">
<polygon fill="white" stroke="black" points="251,-49.5 251,-79.5 393,-79.5 393,-49.5 251,-49.5"/>
<text text-anchor="start" x="259" y="-67.5" font-family="Helvetica,sans-Serif" font-size="10.00">SuiteCRMAddIn.ProtoItems.</text>
<text text-anchor="middle" x="322" y="-56.5" font-family="Helvetica,sans-Serif" font-size="10.00">ProtoTask.AsNameValues</text>
</a>
</g>
</g>
<!-- Node1&#45;&gt;Node11 -->
<g id="edge12" class="edge"><title>Node1&#45;&gt;Node11</title>
<path fill="none" stroke="midnightblue" d="M108.017,-192.752C129.618,-163.568 170.259,-114.708 217,-88.5 227.425,-82.6546 239.199,-78.2312 250.98,-74.8844"/>
<polygon fill="midnightblue" stroke="midnightblue" points="104.978,-190.98 101.939,-201.13 110.644,-195.091 104.978,-190.98"/>
</g>
<!-- Node14 -->
<g id="node14" class="node"><title>Node14</title>
<g id="a_node14"><a xlink:href="class_suite_c_r_m_client_1_1_email_1_1_archiveable_email.html#a15655535c26c46f9526424df0365218b" target="_top" xlink:title="Save my email to CRM, and link it to these contact ids. ">
<polygon fill="white" stroke="black" points="237,-0.5 237,-30.5 407,-30.5 407,-0.5 237,-0.5"/>
<text text-anchor="start" x="245" y="-18.5" font-family="Helvetica,sans-Serif" font-size="10.00">SuiteCRMClient.Email.Archiveable</text>
<text text-anchor="middle" x="322" y="-7.5" font-family="Helvetica,sans-Serif" font-size="10.00">Email.Save</text>
</a>
</g>
</g>
<!-- Node1&#45;&gt;Node14 -->
<g id="edge15" class="edge"><title>Node1&#45;&gt;Node14</title>
<path fill="none" stroke="midnightblue" d="M101.886,-191.853C119.558,-153.058 159.261,-78.1938 217,-39.5 223.157,-35.3737 229.929,-31.9509 236.974,-29.1125"/>
<polygon fill="midnightblue" stroke="midnightblue" points="98.5348,-190.777 97.6796,-201.338 104.934,-193.616 98.5348,-190.777"/>
</g>
<!-- Node3 -->
<g id="node3" class="node"><title>Node3</title>
<g id="a_node3"><a xlink:href="class_suite_c_r_m_add_in_1_1_business_logic_1_1_appointment_syncing.html#a8a922e6ddd966e890c8203d4c91912d1" target="_top" xlink:title="Specialisation: in addition to the standard properties, meetings also require an organiser property...">
<polygon fill="white" stroke="black" points="463,-403 463,-444 673,-444 673,-403 463,-403"/>
<text text-anchor="start" x="471" y="-432" font-family="Helvetica,sans-Serif" font-size="10.00">SuiteCRMAddIn.BusinessLogic.</text>
<text text-anchor="start" x="471" y="-421" font-family="Helvetica,sans-Serif" font-size="10.00">AppointmentSyncing.EnsureSynchronisation</text>
<text text-anchor="middle" x="568" y="-410" font-family="Helvetica,sans-Serif" font-size="10.00">PropertiesForOutlookItem</text>
</a>
</g>
</g>
<!-- Node2&#45;&gt;Node3 -->
<g id="edge2" class="edge"><title>Node2&#45;&gt;Node3</title>
<path fill="none" stroke="midnightblue" d="M437.453,-416.761C445.899,-416.736 454.394,-416.753 462.774,-416.814"/>
<polygon fill="midnightblue" stroke="midnightblue" points="437.168,-413.263 427.186,-416.814 437.204,-420.263 437.168,-413.263"/>
</g>
<!-- Node3&#45;&gt;Node2 -->
<g id="edge3" class="edge"><title>Node3&#45;&gt;Node2</title>
<path fill="none" stroke="midnightblue" d="M452.506,-430.239C444.06,-430.264 435.566,-430.247 427.186,-430.186"/>
<polygon fill="midnightblue" stroke="midnightblue" points="452.792,-433.737 462.774,-430.186 452.756,-426.737 452.792,-433.737"/>
</g>
<!-- Node3&#45;&gt;Node4 -->
<g id="edge4" class="edge"><title>Node3&#45;&gt;Node4</title>
<path fill="none" stroke="midnightblue" d="M683.246,-410.428C691.858,-409.443 700.428,-408.462 708.742,-407.511"/>
<polygon fill="midnightblue" stroke="midnightblue" points="682.668,-406.972 673.131,-411.586 683.464,-413.926 682.668,-406.972"/>
</g>
<!-- Node5 -->
<g id="node5" class="node"><title>Node5</title>
<g id="a_node5"><a xlink:href="class_suite_c_r_m_add_in_1_1_business_logic_1_1_appointment_syncing.html#a7cee33973de0521341615a899e970cba" target="_top" xlink:title="Action method of the thread. ">
<polygon fill="white" stroke="black" points="904,-383.5 904,-413.5 1079,-413.5 1079,-383.5 904,-383.5"/>
<text text-anchor="start" x="912" y="-401.5" font-family="Helvetica,sans-Serif" font-size="10.00">SuiteCRMAddIn.BusinessLogic.</text>
<text text-anchor="middle" x="991.5" y="-390.5" font-family="Helvetica,sans-Serif" font-size="10.00">AppointmentSyncing.SynchroniseAll</text>
</a>
</g>
</g>
<!-- Node4&#45;&gt;Node5 -->
<g id="edge5" class="edge"><title>Node4&#45;&gt;Node5</title>
<path fill="none" stroke="midnightblue" d="M878.101,-398.5C886.7,-398.5 895.418,-398.5 903.996,-398.5"/>
<polygon fill="midnightblue" stroke="midnightblue" points="878.075,-395 868.075,-398.5 878.075,-402 878.075,-395"/>
</g>
<!-- Node12 -->
<g id="node12" class="node"><title>Node12</title>
<g id="a_node12"><a xlink:href="class_suite_c_r_m_add_in_1_1_proto_items_1_1_proto_task.html#a2b1bdedb419b72c23c54796b65c7b0e6" target="_top" xlink:title="True if other is also a ProtoTask I have identically the same content as other. ">
<polygon fill="white" stroke="black" points="497,-74.5 497,-104.5 639,-104.5 639,-74.5 497,-74.5"/>
<text text-anchor="start" x="505" y="-92.5" font-family="Helvetica,sans-Serif" font-size="10.00">SuiteCRMAddIn.ProtoItems.</text>
<text text-anchor="middle" x="568" y="-81.5" font-family="Helvetica,sans-Serif" font-size="10.00">ProtoTask.Equals</text>
</a>
</g>
</g>
<!-- Node11&#45;&gt;Node12 -->
<g id="edge13" class="edge"><title>Node11&#45;&gt;Node12</title>
<path fill="none" stroke="midnightblue" d="M403.33,-72.7306C433.536,-75.8254 467.615,-79.3172 496.826,-82.31"/>
<polygon fill="midnightblue" stroke="midnightblue" points="403.552,-69.2351 393.248,-71.6975 402.839,-76.1986 403.552,-69.2351"/>
</g>
<!-- Node13 -->
<g id="node13" class="node"><title>Node13</title>
<g id="a_node13"><a xlink:href="class_suite_c_r_m_add_in_1_1_proto_items_1_1_proto_task.html#ae0cfb00032214ff9e0b3a8280e3b93bf" target="_top" xlink:title="I&#39;m very like a dictionary constructed from my names/values, but not quite. ">
<polygon fill="white" stroke="black" points="497,-25.5 497,-55.5 639,-55.5 639,-25.5 497,-25.5"/>
<text text-anchor="start" x="505" y="-43.5" font-family="Helvetica,sans-Serif" font-size="10.00">SuiteCRMAddIn.ProtoItems.</text>
<text text-anchor="middle" x="568" y="-32.5" font-family="Helvetica,sans-Serif" font-size="10.00">ProtoTask.GetHashCode</text>
</a>
</g>
</g>
<!-- Node11&#45;&gt;Node13 -->
<g id="edge14" class="edge"><title>Node11&#45;&gt;Node13</title>
<path fill="none" stroke="midnightblue" d="M403.33,-56.5987C433.536,-53.6276 467.615,-50.2755 496.826,-47.4024"/>
<polygon fill="midnightblue" stroke="midnightblue" points="402.857,-53.1282 393.248,-57.5904 403.542,-60.0946 402.857,-53.1282"/>
</g>
</g>
</svg>
