<?xml version="1.0" encoding="UTF-8" standalone="no"?>
<!DOCTYPE svg PUBLIC "-//W3C//DTD SVG 1.1//EN"
 "http://www.w3.org/Graphics/SVG/1.1/DTD/svg11.dtd">
<!-- Generated by graphviz version 2.38.0 (20140413.2041)
 -->
<!-- Title: SuiteCRMAddIn.Daemon.DaemonWorker.AddTask Pages: 1 -->
<svg width="385pt" height="110pt"
 viewBox="0.00 0.00 385.00 110.00" xmlns="http://www.w3.org/2000/svg" xmlns:xlink="http://www.w3.org/1999/xlink">
<g id="graph0" class="graph" transform="scale(1 1) rotate(0) translate(4 106)">
<title>SuiteCRMAddIn.Daemon.DaemonWorker.AddTask</title>
<polygon fill="white" stroke="none" points="-4,4 -4,-106 381,-106 381,4 -4,4"/>
<!-- Node1 -->
<g id="node1" class="node"><title>Node1</title>
<polygon fill="#bfbfbf" stroke="black" points="0,-36 0,-66 167,-66 167,-36 0,-36"/>
<text text-anchor="start" x="8" y="-54" font-family="Helvetica,sans-Serif" font-size="10.00">SuiteCRMAddIn.Daemon.Daemon</text>
<text text-anchor="middle" x="83.5" y="-43" font-family="Helvetica,sans-Serif" font-size="10.00">Worker.AddTask</text>
</g>
<!-- Node2 -->
<g id="node2" class="node"><title>Node2</title>
<g id="a_node2"><a xlink:href="class_suite_c_r_m_add_in_1_1_business_logic_1_1_synchroniser.html#a3c7972ebc9fde19403be4cb526b58898" target="_top" xlink:title="Entry point from event handler when an item is added in Outlook. ">
<polygon fill="white" stroke="black" points="203,-60.5 203,-101.5 377,-101.5 377,-60.5 203,-60.5"/>
<text text-anchor="start" x="211" y="-89.5" font-family="Helvetica,sans-Serif" font-size="10.00">SuiteCRMAddIn.BusinessLogic.</text>
<text text-anchor="start" x="211" y="-78.5" font-family="Helvetica,sans-Serif" font-size="10.00">Synchroniser&lt; Outlook.Appointment</text>
<text text-anchor="middle" x="290" y="-67.5" font-family="Helvetica,sans-Serif" font-size="10.00">Item &gt;::OutlookItemAdded</text>
</a>
</g>
</g>
<!-- Node1&#45;&gt;Node2 -->
<g id="edge1" class="edge"><title>Node1&#45;&gt;Node2</title>
<path fill="none" stroke="midnightblue" d="M177.074,-64.5805C185.628,-65.8354 194.273,-67.1036 202.767,-68.3496"/>
<polygon fill="midnightblue" stroke="midnightblue" points="177.491,-61.1043 167.089,-63.1157 176.475,-68.0302 177.491,-61.1043"/>
</g>
<!-- Node3 -->
<g id="node3" class="node"><title>Node3</title>
<g id="a_node3"><a xlink:href="class_suite_c_r_m_add_in_1_1_business_logic_1_1_synchroniser.html#a39a299e28dff602fec9c2291328e27d4" target="_top" xlink:title="Entry point from event handler, called when an Outlook item of class AppointmentItem is believed to h...">
<polygon fill="white" stroke="black" points="203,-0.5 203,-41.5 377,-41.5 377,-0.5 203,-0.5"/>
<text text-anchor="start" x="211" y="-29.5" font-family="Helvetica,sans-Serif" font-size="10.00">SuiteCRMAddIn.BusinessLogic.</text>
<text text-anchor="start" x="211" y="-18.5" font-family="Helvetica,sans-Serif" font-size="10.00">Synchroniser&lt; Outlook.Appointment</text>
<text text-anchor="middle" x="290" y="-7.5" font-family="Helvetica,sans-Serif" font-size="10.00">Item &gt;::OutlookItemChanged</text>
</a>
</g>
</g>
<!-- Node1&#45;&gt;Node3 -->
<g id="edge2" class="edge"><title>Node1&#45;&gt;Node3</title>
<path fill="none" stroke="midnightblue" d="M177.074,-37.4195C185.628,-36.1646 194.273,-34.8964 202.767,-33.6504"/>
<polygon fill="midnightblue" stroke="midnightblue" points="176.475,-33.9698 167.089,-38.8843 177.491,-40.8957 176.475,-33.9698"/>
</g>
</g>
</svg>
