<?xml version="1.0" encoding="UTF-8" standalone="no"?>
<!DOCTYPE svg PUBLIC "-//W3C//DTD SVG 1.1//EN"
 "http://www.w3.org/Graphics/SVG/1.1/DTD/svg11.dtd">
<!-- Generated by graphviz version 2.38.0 (20140413.2041)
 -->
<!-- Title: SuiteCRMAddIn.Dialogs.SettingsDialog.SettingsDialog Pages: 1 -->
<svg width="830pt" height="274pt"
 viewBox="0.00 0.00 830.00 274.00" xmlns="http://www.w3.org/2000/svg" xmlns:xlink="http://www.w3.org/1999/xlink">
<g id="graph0" class="graph" transform="scale(1 1) rotate(0) translate(4 270)">
<title>SuiteCRMAddIn.Dialogs.SettingsDialog.SettingsDialog</title>
<polygon fill="white" stroke="none" points="-4,4 -4,-270 826,-270 826,4 -4,4"/>
<!-- Node1 -->
<g id="node1" class="node"><title>Node1</title>
<polygon fill="#bfbfbf" stroke="black" points="0,-115.5 0,-145.5 163,-145.5 163,-115.5 0,-115.5"/>
<text text-anchor="start" x="8" y="-133.5" font-family="Helvetica,sans-Serif" font-size="10.00">SuiteCRMAddIn.Dialogs.Settings</text>
<text text-anchor="middle" x="81.5" y="-122.5" font-family="Helvetica,sans-Serif" font-size="10.00">Dialog.SettingsDialog</text>
</g>
<!-- Node2 -->
<g id="node2" class="node"><title>Node2</title>
<g id="a_node2"><a xlink:href="class_suite_c_r_m_add_in_1_1_business_logic_1_1_sync_direction.html#a6cd05d3633205d522a5ba84702d16bc0" target="_top" xlink:title="Convert this direction into a human&#45;readable string ">
<polygon fill="white" stroke="black" points="217,-235.5 217,-265.5 375,-265.5 375,-235.5 217,-235.5"/>
<text text-anchor="start" x="225" y="-253.5" font-family="Helvetica,sans-Serif" font-size="10.00">SuiteCRMAddIn.BusinessLogic.</text>
<text text-anchor="middle" x="296" y="-242.5" font-family="Helvetica,sans-Serif" font-size="10.00">SyncDirection.ToString</text>
</a>
</g>
</g>
<!-- Node1&#45;&gt;Node2 -->
<g id="edge1" class="edge"><title>Node1&#45;&gt;Node2</title>
<path fill="none" stroke="midnightblue" d="M96.4103,-145.597C116.845,-166.857 157.113,-205.375 199,-226.5 202.84,-228.436 206.846,-230.224 210.95,-231.872"/>
<polygon fill="midnightblue" stroke="midnightblue" points="210.078,-235.281 220.671,-235.473 212.509,-228.717 210.078,-235.281"/>
</g>
<!-- Node3 -->
<g id="node3" class="node"><title>Node3</title>
<g id="a_node3"><a xlink:href="class_suite_c_r_m_add_in_1_1_business_logic_1_1_email_accounts_archive_settings.html#a27ae6b3fa16f5ec92fe043a467c1db08" target="_top" xlink:title="SuiteCRMAddIn.BusinessLogic.\lEmailAccountsArchiveSettings.Combine">
<polygon fill="white" stroke="black" points="199,-186.5 199,-216.5 393,-216.5 393,-186.5 199,-186.5"/>
<text text-anchor="start" x="207" y="-204.5" font-family="Helvetica,sans-Serif" font-size="10.00">SuiteCRMAddIn.BusinessLogic.</text>
<text text-anchor="middle" x="296" y="-193.5" font-family="Helvetica,sans-Serif" font-size="10.00">EmailAccountsArchiveSettings.Combine</text>
</a>
</g>
</g>
<!-- Node1&#45;&gt;Node3 -->
<g id="edge2" class="edge"><title>Node1&#45;&gt;Node3</title>
<path fill="none" stroke="midnightblue" d="M116.196,-145.539C139.217,-155.454 170.584,-168.265 199,-177.5 205.74,-179.69 212.8,-181.798 219.902,-183.792"/>
<polygon fill="midnightblue" stroke="midnightblue" points="219.019,-187.179 229.588,-186.44 220.864,-180.427 219.019,-187.179"/>
</g>
<!-- Node6 -->
<g id="node6" class="node"><title>Node6</title>
<g id="a_node6"><a xlink:href="class_suite_c_r_m_add_in_1_1_business_logic_1_1_email_accounts_archive_settings.html#a5641854b191783ce06c6a91746e605bf" target="_top" xlink:title="SuiteCRMAddIn.BusinessLogic.\lEmailAccountsArchiveSettings.Save">
<polygon fill="white" stroke="black" points="207.5,-137.5 207.5,-167.5 384.5,-167.5 384.5,-137.5 207.5,-137.5"/>
<text text-anchor="start" x="215.5" y="-155.5" font-family="Helvetica,sans-Serif" font-size="10.00">SuiteCRMAddIn.BusinessLogic.</text>
<text text-anchor="middle" x="296" y="-144.5" font-family="Helvetica,sans-Serif" font-size="10.00">EmailAccountsArchiveSettings.Save</text>
</a>
</g>
</g>
<!-- Node1&#45;&gt;Node6 -->
<g id="edge5" class="edge"><title>Node1&#45;&gt;Node6</title>
<path fill="none" stroke="midnightblue" d="M163.14,-138.849C174.31,-140.005 185.881,-141.203 197.319,-142.387"/>
<polygon fill="midnightblue" stroke="midnightblue" points="197.015,-145.874 207.323,-143.423 197.736,-138.912 197.015,-145.874"/>
</g>
<!-- Node7 -->
<g id="node7" class="node"><title>Node7</title>
<g id="a_node7"><a xlink:href="class_suite_c_r_m_client_1_1_user_session.html#a85104699962c1ee8d45e5659237661e7" target="_top" xlink:title="Authenticate against LDAP using my configured credentials. ">
<polygon fill="white" stroke="black" points="443.5,-71.5 443.5,-101.5 593.5,-101.5 593.5,-71.5 443.5,-71.5"/>
<text text-anchor="start" x="451.5" y="-89.5" font-family="Helvetica,sans-Serif" font-size="10.00">SuiteCRMClient.UserSession.</text>
<text text-anchor="middle" x="518.5" y="-78.5" font-family="Helvetica,sans-Serif" font-size="10.00">AuthenticateLDAP</text>
</a>
</g>
</g>
<!-- Node1&#45;&gt;Node7 -->
<g id="edge6" class="edge"><title>Node1&#45;&gt;Node7</title>
<path fill="none" stroke="midnightblue" d="M163.047,-122.353C239.788,-114.59 354.879,-102.949 432.928,-95.0544"/>
<polygon fill="midnightblue" stroke="midnightblue" points="433.613,-98.5031 443.21,-94.0144 432.908,-91.5387 433.613,-98.5031"/>
</g>
<!-- Node8 -->
<g id="node8" class="node"><title>Node8</title>
<g id="a_node8"><a xlink:href="class_suite_c_r_m_client_1_1_user_session.html#a8382d9c050d8e5da8924dc536cd03245" target="_top" xlink:title="Logs in to the CRM server. ">
<polygon fill="white" stroke="black" points="221,-49.5 221,-79.5 371,-79.5 371,-49.5 221,-49.5"/>
<text text-anchor="start" x="229" y="-67.5" font-family="Helvetica,sans-Serif" font-size="10.00">SuiteCRMClient.UserSession.</text>
<text text-anchor="middle" x="296" y="-56.5" font-family="Helvetica,sans-Serif" font-size="10.00">Login</text>
</a>
</g>
</g>
<!-- Node1&#45;&gt;Node8 -->
<g id="edge7" class="edge"><title>Node1&#45;&gt;Node8</title>
<path fill="none" stroke="midnightblue" d="M130.985,-115.441C162.425,-105.676 203.561,-92.9 236.77,-82.5857"/>
<polygon fill="midnightblue" stroke="midnightblue" points="237.844,-85.9171 246.355,-79.6084 235.767,-79.2321 237.844,-85.9171"/>
</g>
<!-- Node9 -->
<g id="node9" class="node"><title>Node9</title>
<g id="a_node9"><a xlink:href="class_suite_c_r_m_client_1_1cls_suite_c_r_m_helper.html#a9f613ccab49d795f49d78d4e98c884ec" target="_top" xlink:title="Clear the user id cache. ">
<polygon fill="white" stroke="black" points="205.5,-0.5 205.5,-30.5 386.5,-30.5 386.5,-0.5 205.5,-0.5"/>
<text text-anchor="start" x="213.5" y="-18.5" font-family="Helvetica,sans-Serif" font-size="10.00">SuiteCRMClient.clsSuiteCRMHelper.</text>
<text text-anchor="middle" x="296" y="-7.5" font-family="Helvetica,sans-Serif" font-size="10.00">FlushUserIdCache</text>
</a>
</g>
</g>
<!-- Node1&#45;&gt;Node9 -->
<g id="edge9" class="edge"><title>Node1&#45;&gt;Node9</title>
<path fill="none" stroke="midnightblue" d="M97.6277,-115.198C118.565,-94.8941 158.407,-59.3118 199,-39.5 203.061,-37.5179 207.301,-35.6898 211.641,-34.0048"/>
<polygon fill="midnightblue" stroke="midnightblue" points="213.044,-37.2197 221.268,-30.5409 210.674,-30.6331 213.044,-37.2197"/>
</g>
<!-- Node4 -->
<g id="node4" class="node"><title>Node4</title>
<g id="a_node4"><a xlink:href="class_suite_c_r_m_add_in_1_1_business_logic_1_1_email_accounts_archive_settings.html#a1480c984997d01b643c3db7831dec8c0" target="_top" xlink:title="SuiteCRMAddIn.BusinessLogic.\lEmailAccountsArchiveSettings.Email\lAccountsArchiveSettings">
<polygon fill="white" stroke="black" points="429,-181 429,-222 608,-222 608,-181 429,-181"/>
<text text-anchor="start" x="437" y="-210" font-family="Helvetica,sans-Serif" font-size="10.00">SuiteCRMAddIn.BusinessLogic.</text>
<text text-anchor="start" x="437" y="-199" font-family="Helvetica,sans-Serif" font-size="10.00">EmailAccountsArchiveSettings.Email</text>
<text text-anchor="middle" x="518.5" y="-188" font-family="Helvetica,sans-Serif" font-size="10.00">AccountsArchiveSettings</text>
</a>
</g>
</g>
<!-- Node3&#45;&gt;Node4 -->
<g id="edge3" class="edge"><title>Node3&#45;&gt;Node4</title>
<path fill="none" stroke="midnightblue" d="M393.073,-201.5C401.489,-201.5 410.017,-201.5 418.456,-201.5"/>
<polygon fill="midnightblue" stroke="midnightblue" points="418.693,-205 428.693,-201.5 418.693,-198 418.693,-205"/>
</g>
<!-- Node5 -->
<g id="node5" class="node"><title>Node5</title>
<g id="a_node5"><a xlink:href="class_suite_c_r_m_add_in_1_1_business_logic_1_1_email_accounts_archive_settings.html#a325923b7c2f03c27159ea6ff085e7cf7" target="_top" xlink:title="SuiteCRMAddIn.BusinessLogic.\lEmailAccountsArchiveSettings.Clear">
<polygon fill="white" stroke="black" points="644,-186.5 644,-216.5 822,-216.5 822,-186.5 644,-186.5"/>
<text text-anchor="start" x="652" y="-204.5" font-family="Helvetica,sans-Serif" font-size="10.00">SuiteCRMAddIn.BusinessLogic.</text>
<text text-anchor="middle" x="733" y="-193.5" font-family="Helvetica,sans-Serif" font-size="10.00">EmailAccountsArchiveSettings.Clear</text>
</a>
</g>
</g>
<!-- Node4&#45;&gt;Node5 -->
<g id="edge4" class="edge"><title>Node4&#45;&gt;Node5</title>
<path fill="none" stroke="midnightblue" d="M608.08,-201.5C616.593,-201.5 625.261,-201.5 633.859,-201.5"/>
<polygon fill="midnightblue" stroke="midnightblue" points="633.905,-205 643.905,-201.5 633.905,-198 633.905,-205"/>
</g>
<!-- Node8&#45;&gt;Node7 -->
<g id="edge8" class="edge"><title>Node8&#45;&gt;Node7</title>
<path fill="none" stroke="midnightblue" d="M371.037,-71.8869C391.035,-73.8822 412.822,-76.0559 433.331,-78.1022"/>
<polygon fill="midnightblue" stroke="midnightblue" points="432.985,-81.585 443.283,-79.0952 433.68,-74.6196 432.985,-81.585"/>
</g>
</g>
</svg>
