<?xml version="1.0" encoding="UTF-8" standalone="no"?>
<!DOCTYPE svg PUBLIC "-//W3C//DTD SVG 1.1//EN"
 "http://www.w3.org/Graphics/SVG/1.1/DTD/svg11.dtd">
<!-- Generated by graphviz version 2.38.0 (20140413.2041)
 -->
<!-- Title: SuiteCRMAddIn.BusinessLogic.RepeatingProcess.PrepareShutdown Pages: 1 -->
<svg width="828pt" height="112pt"
 viewBox="0.00 0.00 828.00 112.00" xmlns="http://www.w3.org/2000/svg" xmlns:xlink="http://www.w3.org/1999/xlink">
<g id="graph0" class="graph" transform="scale(1 1) rotate(0) translate(4 108)">
<title>SuiteCRMAddIn.BusinessLogic.RepeatingProcess.PrepareShutdown</title>
<polygon fill="white" stroke="none" points="-4,4 -4,-108 824,-108 824,4 -4,4"/>
<!-- Node1 -->
<g id="node1" class="node"><title>Node1</title>
<polygon fill="#bfbfbf" stroke="black" points="0,-48.5 0,-78.5 177,-78.5 177,-48.5 0,-48.5"/>
<text text-anchor="start" x="8" y="-66.5" font-family="Helvetica,sans-Serif" font-size="10.00">SuiteCRMAddIn.BusinessLogic.</text>
<text text-anchor="middle" x="88.5" y="-55.5" font-family="Helvetica,sans-Serif" font-size="10.00">RepeatingProcess.PrepareShutdown</text>
</g>
<!-- Node2 -->
<g id="node2" class="node"><title>Node2</title>
<g id="a_node2"><a xlink:href="class_suite_c_r_m_add_in_1_1_business_logic_1_1_repeating_process.html#aa335ddd9d301cfa4c127e795ec5beeb5" target="_top" xlink:title="Prepare to shutdown all running processes. ">
<polygon fill="white" stroke="black" points="213,-48.5 213,-78.5 401,-78.5 401,-48.5 213,-48.5"/>
<text text-anchor="start" x="221" y="-66.5" font-family="Helvetica,sans-Serif" font-size="10.00">SuiteCRMAddIn.BusinessLogic.</text>
<text text-anchor="middle" x="307" y="-55.5" font-family="Helvetica,sans-Serif" font-size="10.00">RepeatingProcess.PrepareShutdownAll</text>
</a>
</g>
</g>
<!-- Node1&#45;&gt;Node2 -->
<g id="edge1" class="edge"><title>Node1&#45;&gt;Node2</title>
<path fill="none" stroke="midnightblue" d="M187.481,-63.5C195.917,-63.5 204.436,-63.5 212.832,-63.5"/>
<polygon fill="midnightblue" stroke="midnightblue" points="187.247,-60.0001 177.247,-63.5 187.247,-67.0001 187.247,-60.0001"/>
</g>
<!-- Node3 -->
<g id="node3" class="node"><title>Node3</title>
<g id="a_node3"><a xlink:href="class_suite_c_r_m_add_in_1_1_dialogs_1_1_shutting_down_dialog.html#a30e50091326bca134b6e405c1f53ff34" target="_top" xlink:title="Create a new instance of a ShuttingDownDialog with this number of tasks to complete. ">
<polygon fill="white" stroke="black" points="437,-73.5 437,-103.5 600,-103.5 600,-73.5 437,-73.5"/>
<text text-anchor="start" x="445" y="-91.5" font-family="Helvetica,sans-Serif" font-size="10.00">SuiteCRMAddIn.Dialogs.Shutting</text>
<text text-anchor="middle" x="518.5" y="-80.5" font-family="Helvetica,sans-Serif" font-size="10.00">DownDialog.ShuttingDownDialog</text>
</a>
</g>
</g>
<!-- Node2&#45;&gt;Node3 -->
<g id="edge2" class="edge"><title>Node2&#45;&gt;Node3</title>
<path fill="none" stroke="midnightblue" d="M411.195,-75.8144C419.803,-76.8416 428.425,-77.8705 436.828,-78.8733"/>
<polygon fill="midnightblue" stroke="midnightblue" points="411.454,-72.3206 401.11,-74.611 410.625,-79.2713 411.454,-72.3206"/>
</g>
<!-- Node4 -->
<g id="node4" class="node"><title>Node4</title>
<g id="a_node4"><a xlink:href="class_suite_c_r_m_add_in_1_1_this_add_in.html#a3d3136423943e3e4f71d3ea2b1062147" target="_top" xlink:title="SuiteCRMAddIn.ThisAddIn.\lManualArchive">
<polygon fill="white" stroke="black" points="449.5,-24.5 449.5,-54.5 587.5,-54.5 587.5,-24.5 449.5,-24.5"/>
<text text-anchor="start" x="457.5" y="-42.5" font-family="Helvetica,sans-Serif" font-size="10.00">SuiteCRMAddIn.ThisAddIn.</text>
<text text-anchor="middle" x="518.5" y="-31.5" font-family="Helvetica,sans-Serif" font-size="10.00">ManualArchive</text>
</a>
</g>
</g>
<!-- Node2&#45;&gt;Node4 -->
<g id="edge3" class="edge"><title>Node2&#45;&gt;Node4</title>
<path fill="none" stroke="midnightblue" d="M411.066,-51.6929C424.112,-50.1984 437.192,-48.6999 449.498,-47.2902"/>
<polygon fill="midnightblue" stroke="midnightblue" points="410.646,-48.218 401.11,-52.8335 411.443,-55.1725 410.646,-48.218"/>
</g>
<!-- Node5 -->
<g id="node5" class="node"><title>Node5</title>
<g id="a_node5"><a xlink:href="class_suite_c_r_m_add_in_1_1_suite_c_r_m_ribbon.html#af45e3d97607869f229558ab49c84379b" target="_top" xlink:title="SuiteCRMAddIn.SuiteCRMRibbon.btn\lArchive_Action">
<polygon fill="white" stroke="black" points="636,-49.5 636,-79.5 820,-79.5 820,-49.5 636,-49.5"/>
<text text-anchor="start" x="644" y="-67.5" font-family="Helvetica,sans-Serif" font-size="10.00">SuiteCRMAddIn.SuiteCRMRibbon.btn</text>
<text text-anchor="middle" x="728" y="-56.5" font-family="Helvetica,sans-Serif" font-size="10.00">Archive_Action</text>
</a>
</g>
</g>
<!-- Node4&#45;&gt;Node5 -->
<g id="edge4" class="edge"><title>Node4&#45;&gt;Node5</title>
<path fill="none" stroke="midnightblue" d="M597.961,-48.9531C610.302,-50.44 623.151,-51.988 635.75,-53.5061"/>
<polygon fill="midnightblue" stroke="midnightblue" points="598.078,-45.4419 587.731,-47.7206 597.24,-52.3917 598.078,-45.4419"/>
</g>
<!-- Node6 -->
<g id="node6" class="node"><title>Node6</title>
<g id="a_node6"><a xlink:href="class_suite_c_r_m_add_in_1_1_this_add_in.html#a4672086c412924ca3bf5c6aa52466c89" target="_top" xlink:title="SuiteCRMAddIn.ThisAddIn.\lStartSynchronisationProcesses">
<polygon fill="white" stroke="black" points="651,-0.5 651,-30.5 805,-30.5 805,-0.5 651,-0.5"/>
<text text-anchor="start" x="659" y="-18.5" font-family="Helvetica,sans-Serif" font-size="10.00">SuiteCRMAddIn.ThisAddIn.</text>
<text text-anchor="middle" x="728" y="-7.5" font-family="Helvetica,sans-Serif" font-size="10.00">StartSynchronisationProcesses</text>
</a>
</g>
</g>
<!-- Node4&#45;&gt;Node6 -->
<g id="edge5" class="edge"><title>Node4&#45;&gt;Node6</title>
<path fill="none" stroke="midnightblue" d="M597.821,-30.4412C615.185,-28.4328 633.562,-26.3073 650.838,-24.3091"/>
<polygon fill="midnightblue" stroke="midnightblue" points="597.262,-26.9824 587.731,-31.6083 598.067,-33.936 597.262,-26.9824"/>
</g>
</g>
</svg>
