<?xml version="1.0" encoding="UTF-8" standalone="no"?>
<!DOCTYPE svg PUBLIC "-//W3C//DTD SVG 1.1//EN"
 "http://www.w3.org/Graphics/SVG/1.1/DTD/svg11.dtd">
<!-- Generated by graphviz version 2.38.0 (20140413.2041)
 -->
<!-- Title: SuiteCRMAddIn.BusinessLogic.CRMPermissionsCache&lt; OutlookItemType &gt; Pages: 1 -->
<svg width="193pt" height="231pt"
 viewBox="0.00 0.00 193.00 231.00" xmlns="http://www.w3.org/2000/svg" xmlns:xlink="http://www.w3.org/1999/xlink">
<g id="graph0" class="graph" transform="scale(1 1) rotate(0) translate(4 227)">
<title>SuiteCRMAddIn.BusinessLogic.CRMPermissionsCache&lt; OutlookItemType &gt;</title>
<polygon fill="white" stroke="none" points="-4,4 -4,-227 189,-227 189,4 -4,4"/>
<!-- Node1 -->
<g id="node1" class="node"><title>Node1</title>
<polygon fill="#bfbfbf" stroke="black" points="-1.42109e-14,-0.5 -1.42109e-14,-41.5 185,-41.5 185,-0.5 -1.42109e-14,-0.5"/>
<text text-anchor="start" x="8" y="-29.5" font-family="Helvetica,sans-Serif" font-size="10.00">SuiteCRMAddIn.BusinessLogic.</text>
<text text-anchor="start" x="8" y="-18.5" font-family="Helvetica,sans-Serif" font-size="10.00">CRMPermissionsCache&lt; OutlookItem</text>
<text text-anchor="middle" x="92.5" y="-7.5" font-family="Helvetica,sans-Serif" font-size="10.00">Type &gt;</text>
</g>
<!-- Node2 -->
<g id="node2" class="node"><title>Node2</title>
<g id="a_node2"><a xlink:href="class_suite_c_r_m_add_in_1_1_business_logic_1_1_repeating_process.html" target="_top" xlink:title="An agent which does something repeatedly. ">
<polygon fill="white" stroke="black" points="44,-79.5 44,-98.5 141,-98.5 141,-79.5 44,-79.5"/>
<text text-anchor="middle" x="92.5" y="-86.5" font-family="Helvetica,sans-Serif" font-size="10.00">RepeatingProcess</text>
</a>
</g>
</g>
<!-- Node2&#45;&gt;Node1 -->
<g id="edge1" class="edge"><title>Node2&#45;&gt;Node1</title>
<path fill="none" stroke="midnightblue" d="M92.5,-69.2462C92.5,-60.647 92.5,-50.4506 92.5,-41.7351"/>
<polygon fill="midnightblue" stroke="midnightblue" points="89.0001,-69.3716 92.5,-79.3717 96.0001,-69.3717 89.0001,-69.3716"/>
</g>
<!-- Node3 -->
<g id="node3" class="node"><title>Node3</title>
<g id="a_node3"><a xlink:href="interface_suite_c_r_m_client_1_1_logging_1_1_i_logger.html" target="_top" xlink:title="Interface implemented by all logging classes ">
<polygon fill="white" stroke="black" points="12.5,-146.5 12.5,-165.5 172.5,-165.5 172.5,-146.5 12.5,-146.5"/>
<text text-anchor="middle" x="92.5" y="-153.5" font-family="Helvetica,sans-Serif" font-size="10.00">SuiteCRMClient.Logging.ILogger</text>
</a>
</g>
</g>
<!-- Node3&#45;&gt;Node2 -->
<g id="edge2" class="edge"><title>Node3&#45;&gt;Node2</title>
<path fill="none" stroke="#9a32cd" stroke-dasharray="5,2" d="M92.5,-136.037C92.5,-123.67 92.5,-108.12 92.5,-98.6273"/>
<polygon fill="#9a32cd" stroke="#9a32cd" points="89.0001,-136.234 92.5,-146.234 96.0001,-136.234 89.0001,-136.234"/>
<text text-anchor="middle" x="102" y="-120" font-family="Helvetica,sans-Serif" font-size="10.00"> Log</text>
</g>
<!-- Node4 -->
<g id="node4" class="node"><title>Node4</title>
<polygon fill="white" stroke="#bfbfbf" points="58.5,-203.5 58.5,-222.5 126.5,-222.5 126.5,-203.5 58.5,-203.5"/>
<text text-anchor="middle" x="92.5" y="-210.5" font-family="Helvetica,sans-Serif" font-size="10.00">IDisposable</text>
</g>
<!-- Node4&#45;&gt;Node3 -->
<g id="edge3" class="edge"><title>Node4&#45;&gt;Node3</title>
<path fill="none" stroke="midnightblue" d="M92.5,-193.117C92.5,-183.817 92.5,-173.056 92.5,-165.715"/>
<polygon fill="midnightblue" stroke="midnightblue" points="89.0001,-193.406 92.5,-203.406 96.0001,-193.406 89.0001,-193.406"/>
</g>
</g>
</svg>
