<?xml version="1.0" encoding="UTF-8" standalone="no"?>
<!DOCTYPE svg PUBLIC "-//W3C//DTD SVG 1.1//EN"
 "http://www.w3.org/Graphics/SVG/1.1/DTD/svg11.dtd">
<!-- Generated by graphviz version 2.38.0 (20140413.2041)
 -->
<!-- Title: SuiteCRMAddIn.BusinessLogic.AppointmentSyncing.SyncFolder Pages: 1 -->
<svg width="1123pt" height="461pt"
 viewBox="0.00 0.00 1123.00 460.50" xmlns="http://www.w3.org/2000/svg" xmlns:xlink="http://www.w3.org/1999/xlink">
<g id="graph0" class="graph" transform="scale(1 1) rotate(0) translate(4 456.5)">
<title>SuiteCRMAddIn.BusinessLogic.AppointmentSyncing.SyncFolder</title>
<polygon fill="white" stroke="none" points="-4,4 -4,-456.5 1119,-456.5 1119,4 -4,4"/>
<!-- Node1 -->
<g id="node1" class="node"><title>Node1</title>
<polygon fill="#bfbfbf" stroke="black" points="0,-183 0,-213 159,-213 159,-183 0,-183"/>
<text text-anchor="start" x="8" y="-201" font-family="Helvetica,sans-Serif" font-size="10.00">SuiteCRMAddIn.BusinessLogic.</text>
<text text-anchor="middle" x="79.5" y="-190" font-family="Helvetica,sans-Serif" font-size="10.00">AppointmentSyncing.SyncFolder</text>
</g>
<!-- Node2 -->
<g id="node2" class="node"><title>Node2</title>
<g id="a_node2"><a xlink:href="class_suite_c_r_m_add_in_1_1_business_logic_1_1_synchroniser.html#acc7036a95cd34952cf01c774b1fcefc2" target="_top" xlink:title="Fetch records in pages from CRM, and merge them into Outlook. ">
<polygon fill="white" stroke="black" points="218.5,-348.5 218.5,-389.5 392.5,-389.5 392.5,-348.5 218.5,-348.5"/>
<text text-anchor="start" x="226.5" y="-377.5" font-family="Helvetica,sans-Serif" font-size="10.00">SuiteCRMAddIn.BusinessLogic.</text>
<text text-anchor="start" x="226.5" y="-366.5" font-family="Helvetica,sans-Serif" font-size="10.00">Synchroniser&lt; Outlook.Appointment</text>
<text text-anchor="middle" x="305.5" y="-355.5" font-family="Helvetica,sans-Serif" font-size="10.00">Item &gt;::MergeRecordsFromCrm</text>
</a>
</g>
</g>
<!-- Node1&#45;&gt;Node2 -->
<g id="edge1" class="edge"><title>Node1&#45;&gt;Node2</title>
<path fill="none" stroke="midnightblue" d="M89.159,-213.066C105.976,-241.01 145.764,-301.02 195,-334 200.626,-337.769 206.684,-341.153 212.961,-344.189"/>
<polygon fill="midnightblue" stroke="midnightblue" points="211.735,-347.475 222.29,-348.392 214.61,-341.093 211.735,-347.475"/>
</g>
<!-- Node3 -->
<g id="node3" class="node"><title>Node3</title>
<g id="a_node3"><a xlink:href="class_suite_c_r_m_client_1_1cls_suite_c_r_m_helper.html#a26b08c712be5bc8600e7c8355601a45c" target="_top" xlink:title="SuiteCRMClient.clsSuiteCRMHelper.get\lRelationships">
<polygon fill="white" stroke="black" points="460,-378 460,-408 654,-408 654,-378 460,-378"/>
<text text-anchor="start" x="468" y="-396" font-family="Helvetica,sans-Serif" font-size="10.00">SuiteCRMClient.clsSuiteCRMHelper.get</text>
<text text-anchor="middle" x="557" y="-385" font-family="Helvetica,sans-Serif" font-size="10.00">Relationships</text>
</a>
</g>
</g>
<!-- Node1&#45;&gt;Node3 -->
<g id="edge2" class="edge"><title>Node1&#45;&gt;Node3</title>
<path fill="none" stroke="midnightblue" d="M92.381,-213.142C111.38,-236.193 150.971,-279.654 195,-301 284.68,-344.478 319.926,-312.493 416,-339 449.471,-348.235 486.039,-362.491 513.406,-374.037"/>
<polygon fill="midnightblue" stroke="midnightblue" points="512.111,-377.29 522.682,-377.995 514.858,-370.852 512.111,-377.29"/>
</g>
<!-- Node5 -->
<g id="node5" class="node"><title>Node5</title>
<g id="a_node5"><a xlink:href="class_suite_c_r_m_client_1_1cls_suite_c_r_m_helper.html#a050637c0cbd1012cf9cf58c5cb3d179c" target="_top" xlink:title="Return the CRM id of the current user. ">
<polygon fill="white" stroke="black" points="707.5,-204 707.5,-234 888.5,-234 888.5,-204 707.5,-204"/>
<text text-anchor="start" x="715.5" y="-222" font-family="Helvetica,sans-Serif" font-size="10.00">SuiteCRMClient.clsSuiteCRMHelper.</text>
<text text-anchor="middle" x="798" y="-211" font-family="Helvetica,sans-Serif" font-size="10.00">GetUserId</text>
</a>
</g>
</g>
<!-- Node1&#45;&gt;Node5 -->
<g id="edge4" class="edge"><title>Node1&#45;&gt;Node5</title>
<path fill="none" stroke="midnightblue" d="M159.228,-200.307C290.315,-204.149 553.105,-211.852 697.062,-216.071"/>
<polygon fill="midnightblue" stroke="midnightblue" points="697.12,-219.574 707.218,-216.369 697.325,-212.577 697.12,-219.574"/>
</g>
<!-- Node6 -->
<g id="node6" class="node"><title>Node6</title>
<g id="a_node6"><a xlink:href="class_suite_c_r_m_client_1_1cls_suite_c_r_m_helper.html#a366fc594dfb70b02b5290655e49cacf4" target="_top" xlink:title="SuiteCRMClient.clsSuiteCRMHelper.\lGetSugarFields">
<polygon fill="white" stroke="black" points="215,-120 215,-150 396,-150 396,-120 215,-120"/>
<text text-anchor="start" x="223" y="-138" font-family="Helvetica,sans-Serif" font-size="10.00">SuiteCRMClient.clsSuiteCRMHelper.</text>
<text text-anchor="middle" x="305.5" y="-127" font-family="Helvetica,sans-Serif" font-size="10.00">GetSugarFields</text>
</a>
</g>
</g>
<!-- Node1&#45;&gt;Node6 -->
<g id="edge5" class="edge"><title>Node1&#45;&gt;Node6</title>
<path fill="none" stroke="midnightblue" d="M132.042,-182.989C151.726,-177.297 174.387,-170.794 195,-165 209.261,-160.991 224.587,-156.751 239.122,-152.76"/>
<polygon fill="midnightblue" stroke="midnightblue" points="240.317,-156.062 249.036,-150.043 238.467,-149.311 240.317,-156.062"/>
</g>
<!-- Node7 -->
<g id="node7" class="node"><title>Node7</title>
<g id="a_node7"><a xlink:href="class_suite_c_r_m_add_in_1_1_business_logic_1_1_synchroniser.html#ae80c795df262f881c995b9cadd54a5d4" target="_top" xlink:title="Update these items, which may or may not already exist in Outlook. ">
<polygon fill="white" stroke="black" points="195,-60.5 195,-101.5 416,-101.5 416,-60.5 195,-60.5"/>
<text text-anchor="start" x="203" y="-89.5" font-family="Helvetica,sans-Serif" font-size="10.00">SuiteCRMAddIn.BusinessLogic.</text>
<text text-anchor="start" x="203" y="-78.5" font-family="Helvetica,sans-Serif" font-size="10.00">Synchroniser&lt; Outlook.Appointment</text>
<text text-anchor="middle" x="305.5" y="-67.5" font-family="Helvetica,sans-Serif" font-size="10.00">Item &gt;::AddOrUpdateItemsFromCrmToOutlook</text>
</a>
</g>
</g>
<!-- Node1&#45;&gt;Node7 -->
<g id="edge6" class="edge"><title>Node1&#45;&gt;Node7</title>
<path fill="none" stroke="midnightblue" d="M96.2278,-182.859C117.15,-163.511 156.048,-130.23 195,-111 199.087,-108.982 203.33,-107.084 207.666,-105.301"/>
<polygon fill="midnightblue" stroke="midnightblue" points="209.222,-108.451 217.284,-101.577 206.695,-101.923 209.222,-108.451"/>
</g>
<!-- Node8 -->
<g id="node8" class="node"><title>Node8</title>
<g id="a_node8"><a xlink:href="class_suite_c_r_m_add_in_1_1_business_logic_1_1_synchroniser.html#a483e9fe3f7b8356dd85b53d7d4014f50" target="_top" xlink:title="Given a list of items which exist in Outlook but are missing from CRM, resolve how to handle them...">
<polygon fill="white" stroke="black" points="218.5,-0.5 218.5,-41.5 392.5,-41.5 392.5,-0.5 218.5,-0.5"/>
<text text-anchor="start" x="226.5" y="-29.5" font-family="Helvetica,sans-Serif" font-size="10.00">SuiteCRMAddIn.BusinessLogic.</text>
<text text-anchor="start" x="226.5" y="-18.5" font-family="Helvetica,sans-Serif" font-size="10.00">Synchroniser&lt; Outlook.Appointment</text>
<text text-anchor="middle" x="305.5" y="-7.5" font-family="Helvetica,sans-Serif" font-size="10.00">Item &gt;::ResolveUnmatchedItems</text>
</a>
</g>
</g>
<!-- Node1&#45;&gt;Node8 -->
<g id="edge7" class="edge"><title>Node1&#45;&gt;Node8</title>
<path fill="none" stroke="midnightblue" d="M87.9662,-182.901C103.556,-152.973 142.522,-86.0028 195,-51 199.509,-47.9922 204.314,-45.2845 209.297,-42.847"/>
<polygon fill="midnightblue" stroke="midnightblue" points="210.747,-46.0329 218.437,-38.7449 207.88,-39.6467 210.747,-46.0329"/>
</g>
<!-- Node9 -->
<g id="node9" class="node"><title>Node9</title>
<g id="a_node9"><a xlink:href="class_suite_c_r_m_add_in_1_1_business_logic_1_1_appointment_syncing.html#a505217ef3946d0f9996301472cabc026" target="_top" xlink:title="Log a message regarding this Outlook appointment. ">
<polygon fill="white" stroke="black" points="938,-312 938,-342 1111,-342 1111,-312 938,-312"/>
<text text-anchor="start" x="946" y="-330" font-family="Helvetica,sans-Serif" font-size="10.00">SuiteCRMAddIn.BusinessLogic.</text>
<text text-anchor="middle" x="1024.5" y="-319" font-family="Helvetica,sans-Serif" font-size="10.00">AppointmentSyncing.LogItemAction</text>
</a>
</g>
</g>
<!-- Node1&#45;&gt;Node9 -->
<g id="edge8" class="edge"><title>Node1&#45;&gt;Node9</title>
<path fill="none" stroke="midnightblue" d="M159.005,-189.888C337.178,-172.724 766.838,-138.721 898,-195 949.31,-217.016 989.543,-271.457 1009.57,-303.121"/>
<polygon fill="midnightblue" stroke="midnightblue" points="1006.68,-305.099 1014.9,-311.779 1012.64,-301.429 1006.68,-305.099"/>
</g>
<!-- Node10 -->
<g id="node10" class="node"><title>Node10</title>
<g id="a_node10"><a xlink:href="class_suite_c_r_m_add_in_1_1_business_logic_1_1_appointment_syncing.html#a8a922e6ddd966e890c8203d4c91912d1" target="_top" xlink:title="Specialisation: in addition to the standard properties, meetings also require an organiser property...">
<polygon fill="white" stroke="black" points="200.5,-250.5 200.5,-291.5 410.5,-291.5 410.5,-250.5 200.5,-250.5"/>
<text text-anchor="start" x="208.5" y="-279.5" font-family="Helvetica,sans-Serif" font-size="10.00">SuiteCRMAddIn.BusinessLogic.</text>
<text text-anchor="start" x="208.5" y="-268.5" font-family="Helvetica,sans-Serif" font-size="10.00">AppointmentSyncing.EnsureSynchronisation</text>
<text text-anchor="middle" x="305.5" y="-257.5" font-family="Helvetica,sans-Serif" font-size="10.00">PropertiesForOutlookItem</text>
</a>
</g>
</g>
<!-- Node1&#45;&gt;Node10 -->
<g id="edge9" class="edge"><title>Node1&#45;&gt;Node10</title>
<path fill="none" stroke="midnightblue" d="M126.641,-213.037C156.961,-222.918 197.269,-236.054 231.845,-247.322"/>
<polygon fill="midnightblue" stroke="midnightblue" points="230.84,-250.676 241.432,-250.447 233.009,-244.02 230.84,-250.676"/>
</g>
<!-- Node4 -->
<g id="node4" class="node"><title>Node4</title>
<g id="a_node4"><a xlink:href="class_suite_c_r_m_client_1_1cls_suite_c_r_m_helper.html#a80f04ec3ab185a736b6633c0df69c536" target="_top" xlink:title="SuiteCRMClient.clsSuiteCRMHelper.\lEnsureLoggedIn">
<polygon fill="white" stroke="black" points="934,-422 934,-452 1115,-452 1115,-422 934,-422"/>
<text text-anchor="start" x="942" y="-440" font-family="Helvetica,sans-Serif" font-size="10.00">SuiteCRMClient.clsSuiteCRMHelper.</text>
<text text-anchor="middle" x="1024.5" y="-429" font-family="Helvetica,sans-Serif" font-size="10.00">EnsureLoggedIn</text>
</a>
</g>
</g>
<!-- Node3&#45;&gt;Node4 -->
<g id="edge3" class="edge"><title>Node3&#45;&gt;Node4</title>
<path fill="none" stroke="midnightblue" d="M592.299,-408.001C620.164,-419.328 660.804,-433.923 698,-440 772.912,-452.239 858.818,-450.809 923.561,-446.685"/>
<polygon fill="midnightblue" stroke="midnightblue" points="924.021,-450.162 933.765,-446.002 923.553,-443.178 924.021,-450.162"/>
</g>
<!-- Node11 -->
<g id="node11" class="node"><title>Node11</title>
<g id="a_node11"><a xlink:href="class_suite_c_r_m_add_in_1_1_business_logic_1_1_appointment_syncing.html#a778c161dea3f5934089e5866b59f9dad" target="_top" xlink:title="Ensure that this Outlook item has a property of this name with this value. ">
<polygon fill="white" stroke="black" points="452,-252.5 452,-293.5 662,-293.5 662,-252.5 452,-252.5"/>
<text text-anchor="start" x="460" y="-281.5" font-family="Helvetica,sans-Serif" font-size="10.00">SuiteCRMAddIn.BusinessLogic.</text>
<text text-anchor="start" x="460" y="-270.5" font-family="Helvetica,sans-Serif" font-size="10.00">AppointmentSyncing.EnsureSynchronisation</text>
<text text-anchor="middle" x="557" y="-259.5" font-family="Helvetica,sans-Serif" font-size="10.00">PropertyForOutlookItem</text>
</a>
</g>
</g>
<!-- Node10&#45;&gt;Node11 -->
<g id="edge10" class="edge"><title>Node10&#45;&gt;Node11</title>
<path fill="none" stroke="midnightblue" d="M410.504,-265.167C420.733,-265.166 431.153,-265.229 441.479,-265.352"/>
<polygon fill="midnightblue" stroke="midnightblue" points="441.715,-268.856 451.764,-265.496 441.814,-261.856 441.715,-268.856"/>
</g>
<!-- Node11&#45;&gt;Node5 -->
<g id="edge14" class="edge"><title>Node11&#45;&gt;Node5</title>
<path fill="none" stroke="midnightblue" d="M649.037,-252.431C672.594,-247.108 697.718,-241.432 720.45,-236.296"/>
<polygon fill="midnightblue" stroke="midnightblue" points="721.389,-239.672 730.372,-234.054 719.846,-232.844 721.389,-239.672"/>
</g>
<!-- Node11&#45;&gt;Node9 -->
<g id="edge13" class="edge"><title>Node11&#45;&gt;Node9</title>
<path fill="none" stroke="midnightblue" d="M584.582,-293.575C611.47,-312.982 655.082,-340.726 698,-352 786.248,-375.181 892.226,-359.321 958.738,-344.355"/>
<polygon fill="midnightblue" stroke="midnightblue" points="959.705,-347.723 968.661,-342.062 958.13,-340.903 959.705,-347.723"/>
</g>
<!-- Node11&#45;&gt;Node10 -->
<g id="edge17" class="edge"><title>Node11&#45;&gt;Node10</title>
<path fill="none" stroke="midnightblue" d="M451.764,-278.833C441.532,-278.833 431.111,-278.77 420.786,-278.645"/>
<polygon fill="midnightblue" stroke="midnightblue" points="420.552,-275.141 410.504,-278.5 420.453,-282.141 420.552,-275.141"/>
</g>
<!-- Node12 -->
<g id="node12" class="node"><title>Node12</title>
<g id="a_node12"><a xlink:href="class_suite_c_r_m_add_in_1_1_business_logic_1_1_appointment_syncing.html#a7a750ce308027fee659e8c543cb99b42" target="_top" xlink:title="SuiteCRMAddIn.BusinessLogic.\lAppointmentSyncing.SaveItem">
<polygon fill="white" stroke="black" points="719,-312 719,-342 877,-342 877,-312 719,-312"/>
<text text-anchor="start" x="727" y="-330" font-family="Helvetica,sans-Serif" font-size="10.00">SuiteCRMAddIn.BusinessLogic.</text>
<text text-anchor="middle" x="798" y="-319" font-family="Helvetica,sans-Serif" font-size="10.00">AppointmentSyncing.SaveItem</text>
</a>
</g>
</g>
<!-- Node11&#45;&gt;Node12 -->
<g id="edge11" class="edge"><title>Node11&#45;&gt;Node12</title>
<path fill="none" stroke="midnightblue" d="M649.037,-293.569C672.594,-298.892 697.718,-304.568 720.45,-309.704"/>
<polygon fill="midnightblue" stroke="midnightblue" points="719.846,-313.156 730.372,-311.946 721.389,-306.328 719.846,-313.156"/>
</g>
<!-- Node13 -->
<g id="node13" class="node"><title>Node13</title>
<g id="a_node13"><a xlink:href="class_suite_c_r_m_client_1_1cls_suite_c_r_m_helper.html#a3ce19594e2c04282ab6e9737c3a9b84f" target="_top" xlink:title="SuiteCRMClient.clsSuiteCRMHelper.get\lRelationship">
<polygon fill="white" stroke="black" points="701,-400 701,-430 895,-430 895,-400 701,-400"/>
<text text-anchor="start" x="709" y="-418" font-family="Helvetica,sans-Serif" font-size="10.00">SuiteCRMClient.clsSuiteCRMHelper.get</text>
<text text-anchor="middle" x="798" y="-407" font-family="Helvetica,sans-Serif" font-size="10.00">Relationship</text>
</a>
</g>
</g>
<!-- Node11&#45;&gt;Node13 -->
<g id="edge15" class="edge"><title>Node11&#45;&gt;Node13</title>
<path fill="none" stroke="midnightblue" d="M578.476,-293.644C604.257,-318.565 650.9,-360.21 698,-385 706.375,-389.408 715.496,-393.272 724.702,-396.63"/>
<polygon fill="midnightblue" stroke="midnightblue" points="723.704,-399.988 734.299,-399.947 725.991,-393.372 723.704,-399.988"/>
</g>
<!-- Node14 -->
<g id="node14" class="node"><title>Node14</title>
<g id="a_node14"><a xlink:href="class_suite_c_r_m_add_in_1_1_business_logic_1_1_synchroniser.html#a9a2c3473c4dc60793fed0588c66f8666" target="_top" xlink:title="Parse a date time object from a user property, assuming the ISO 8601 date&#45;time format but ommitting t...">
<polygon fill="white" stroke="black" points="698,-252.5 698,-293.5 898,-293.5 898,-252.5 698,-252.5"/>
<text text-anchor="start" x="706" y="-281.5" font-family="Helvetica,sans-Serif" font-size="10.00">SuiteCRMAddIn.BusinessLogic.</text>
<text text-anchor="start" x="706" y="-270.5" font-family="Helvetica,sans-Serif" font-size="10.00">Synchroniser&lt; Outlook.Appointment</text>
<text text-anchor="middle" x="798" y="-259.5" font-family="Helvetica,sans-Serif" font-size="10.00">Item &gt;::ParseDateTimeFromUserProperty</text>
</a>
</g>
</g>
<!-- Node11&#45;&gt;Node14 -->
<g id="edge18" class="edge"><title>Node11&#45;&gt;Node14</title>
<path fill="none" stroke="midnightblue" d="M662.134,-273C670.54,-273 679.05,-273 687.492,-273"/>
<polygon fill="midnightblue" stroke="midnightblue" points="687.746,-276.5 697.746,-273 687.746,-269.5 687.746,-276.5"/>
</g>
<!-- Node12&#45;&gt;Node9 -->
<g id="edge12" class="edge"><title>Node12&#45;&gt;Node9</title>
<path fill="none" stroke="midnightblue" d="M877.204,-327C893.447,-327 910.741,-327 927.537,-327"/>
<polygon fill="midnightblue" stroke="midnightblue" points="927.918,-330.5 937.918,-327 927.917,-323.5 927.918,-330.5"/>
</g>
<!-- Node13&#45;&gt;Node4 -->
<g id="edge16" class="edge"><title>Node13&#45;&gt;Node4</title>
<path fill="none" stroke="midnightblue" d="M895.185,-424.426C904.624,-425.351 914.218,-426.291 923.692,-427.219"/>
<polygon fill="midnightblue" stroke="midnightblue" points="923.619,-430.729 933.912,-428.221 924.301,-423.762 923.619,-430.729"/>
</g>
</g>
</svg>
