<?xml version="1.0" encoding="UTF-8" standalone="no"?>
<!DOCTYPE svg PUBLIC "-//W3C//DTD SVG 1.1//EN"
 "http://www.w3.org/Graphics/SVG/1.1/DTD/svg11.dtd">
<!-- Generated by graphviz version 2.38.0 (20140413.2041)
 -->
<!-- Title: SuiteCRMClient.clsSuiteCRMHelper.GetSugarFields Pages: 1 -->
<svg width="610pt" height="99pt"
 viewBox="0.00 0.00 610.00 98.50" xmlns="http://www.w3.org/2000/svg" xmlns:xlink="http://www.w3.org/1999/xlink">
<g id="graph0" class="graph" transform="scale(1 1) rotate(0) translate(4 94.5)">
<title>SuiteCRMClient.clsSuiteCRMHelper.GetSugarFields</title>
<polygon fill="white" stroke="none" points="-4,4 -4,-94.5 606,-94.5 606,4 -4,4"/>
<!-- Node1 -->
<g id="node1" class="node"><title>Node1</title>
<polygon fill="#bfbfbf" stroke="black" points="0,-33 0,-63 181,-63 181,-33 0,-33"/>
<text text-anchor="start" x="8" y="-51" font-family="Helvetica,sans-Serif" font-size="10.00">SuiteCRMClient.clsSuiteCRMHelper.</text>
<text text-anchor="middle" x="90.5" y="-40" font-family="Helvetica,sans-Serif" font-size="10.00">GetSugarFields</text>
</g>
<!-- Node2 -->
<g id="node2" class="node"><title>Node2</title>
<g id="a_node2"><a xlink:href="class_suite_c_r_m_add_in_1_1_business_logic_1_1_appointment_syncing.html#af477f9f681874a701880737a2383b5fc" target="_top" xlink:title="Synchronise items in the specified folder with the specified SuiteCRM module. ">
<polygon fill="white" stroke="black" points="224.5,-60 224.5,-90 383.5,-90 383.5,-60 224.5,-60"/>
<text text-anchor="start" x="232.5" y="-78" font-family="Helvetica,sans-Serif" font-size="10.00">SuiteCRMAddIn.BusinessLogic.</text>
<text text-anchor="middle" x="304" y="-67" font-family="Helvetica,sans-Serif" font-size="10.00">AppointmentSyncing.SyncFolder</text>
</a>
</g>
</g>
<!-- Node1&#45;&gt;Node2 -->
<g id="edge1" class="edge"><title>Node1&#45;&gt;Node2</title>
<path fill="none" stroke="midnightblue" d="M191.301,-60.7405C202.347,-62.1506 213.479,-63.5718 224.215,-64.9423"/>
<polygon fill="midnightblue" stroke="midnightblue" points="191.558,-57.245 181.195,-59.4504 190.671,-64.1887 191.558,-57.245"/>
</g>
<!-- Node4 -->
<g id="node4" class="node"><title>Node4</title>
<g id="a_node4"><a xlink:href="class_suite_c_r_m_add_in_1_1_business_logic_1_1_synchroniser.html#acc7036a95cd34952cf01c774b1fcefc2" target="_top" xlink:title="Fetch records in pages from CRM, and merge them into Outlook. ">
<polygon fill="white" stroke="black" points="217,-0.5 217,-41.5 391,-41.5 391,-0.5 217,-0.5"/>
<text text-anchor="start" x="225" y="-29.5" font-family="Helvetica,sans-Serif" font-size="10.00">SuiteCRMAddIn.BusinessLogic.</text>
<text text-anchor="start" x="225" y="-18.5" font-family="Helvetica,sans-Serif" font-size="10.00">Synchroniser&lt; Outlook.Appointment</text>
<text text-anchor="middle" x="304" y="-7.5" font-family="Helvetica,sans-Serif" font-size="10.00">Item &gt;::MergeRecordsFromCrm</text>
</a>
</g>
</g>
<!-- Node1&#45;&gt;Node4 -->
<g id="edge3" class="edge"><title>Node1&#45;&gt;Node4</title>
<path fill="none" stroke="midnightblue" d="M191.221,-35.2697C199.794,-34.1752 208.42,-33.0741 216.872,-31.995"/>
<polygon fill="midnightblue" stroke="midnightblue" points="190.671,-31.8113 181.195,-36.5496 191.558,-38.755 190.671,-31.8113"/>
</g>
<!-- Node3 -->
<g id="node3" class="node"><title>Node3</title>
<g id="a_node3"><a xlink:href="class_suite_c_r_m_add_in_1_1_business_logic_1_1_appointment_syncing.html#a7cee33973de0521341615a899e970cba" target="_top" xlink:title="Action method of the thread. ">
<polygon fill="white" stroke="black" points="427,-60 427,-90 602,-90 602,-60 427,-60"/>
<text text-anchor="start" x="435" y="-78" font-family="Helvetica,sans-Serif" font-size="10.00">SuiteCRMAddIn.BusinessLogic.</text>
<text text-anchor="middle" x="514.5" y="-67" font-family="Helvetica,sans-Serif" font-size="10.00">AppointmentSyncing.SynchroniseAll</text>
</a>
</g>
</g>
<!-- Node2&#45;&gt;Node3 -->
<g id="edge2" class="edge"><title>Node2&#45;&gt;Node3</title>
<path fill="none" stroke="midnightblue" d="M393.862,-75C404.73,-75 415.826,-75 426.664,-75"/>
<polygon fill="midnightblue" stroke="midnightblue" points="393.528,-71.5001 383.528,-75 393.528,-78.5001 393.528,-71.5001"/>
</g>
</g>
</svg>
