<?xml version="1.0" encoding="UTF-8" standalone="no"?>
<!DOCTYPE svg PUBLIC "-//W3C//DTD SVG 1.1//EN"
 "http://www.w3.org/Graphics/SVG/1.1/DTD/svg11.dtd">
<!-- Generated by graphviz version 2.38.0 (20140413.2041)
 -->
<!-- Title: SuiteCRMClient.clsSuiteCRMHelper.GetCharacterFields Pages: 1 -->
<svg width="777pt" height="39pt"
 viewBox="0.00 0.00 777.00 39.00" xmlns="http://www.w3.org/2000/svg" xmlns:xlink="http://www.w3.org/1999/xlink">
<g id="graph0" class="graph" transform="scale(1 1) rotate(0) translate(4 35)">
<title>SuiteCRMClient.clsSuiteCRMHelper.GetCharacterFields</title>
<polygon fill="white" stroke="none" points="-4,4 -4,-35 773,-35 773,4 -4,4"/>
<!-- Node1 -->
<g id="node1" class="node"><title>Node1</title>
<polygon fill="#bfbfbf" stroke="black" points="0,-0.5 0,-30.5 181,-30.5 181,-0.5 0,-0.5"/>
<text text-anchor="start" x="8" y="-18.5" font-family="Helvetica,sans-Serif" font-size="10.00">SuiteCRMClient.clsSuiteCRMHelper.</text>
<text text-anchor="middle" x="90.5" y="-7.5" font-family="Helvetica,sans-Serif" font-size="10.00">GetCharacterFields</text>
</g>
<!-- Node2 -->
<g id="node2" class="node"><title>Node2</title>
<g id="a_node2"><a xlink:href="class_suite_c_r_m_add_in_1_1_dialogs_1_1_archive_dialog.html#a1b2d6e63a13ef6a7a3331a99cbd122e7" target="_top" xlink:title="SuiteCRMAddIn.Dialogs.Archive\lDialog.Search">
<polygon fill="white" stroke="black" points="217,-0.5 217,-30.5 377,-30.5 377,-0.5 217,-0.5"/>
<text text-anchor="start" x="225" y="-18.5" font-family="Helvetica,sans-Serif" font-size="10.00">SuiteCRMAddIn.Dialogs.Archive</text>
<text text-anchor="middle" x="297" y="-7.5" font-family="Helvetica,sans-Serif" font-size="10.00">Dialog.Search</text>
</a>
</g>
</g>
<!-- Node1&#45;&gt;Node2 -->
<g id="edge1" class="edge"><title>Node1&#45;&gt;Node2</title>
<path fill="none" stroke="midnightblue" d="M191.288,-15.5C199.905,-15.5 208.546,-15.5 216.966,-15.5"/>
<polygon fill="midnightblue" stroke="midnightblue" points="191.197,-12.0001 181.197,-15.5 191.197,-19.0001 191.197,-12.0001"/>
</g>
<!-- Node3 -->
<g id="node3" class="node"><title>Node3</title>
<g id="a_node3"><a xlink:href="class_suite_c_r_m_add_in_1_1_dialogs_1_1_archive_dialog.html#a3160bc88861f266746f9631068fc9ed7" target="_top" xlink:title="SuiteCRMAddIn.Dialogs.Archive\lDialog.btnSearch_Click">
<polygon fill="white" stroke="black" points="413,-0.5 413,-30.5 573,-30.5 573,-0.5 413,-0.5"/>
<text text-anchor="start" x="421" y="-18.5" font-family="Helvetica,sans-Serif" font-size="10.00">SuiteCRMAddIn.Dialogs.Archive</text>
<text text-anchor="middle" x="493" y="-7.5" font-family="Helvetica,sans-Serif" font-size="10.00">Dialog.btnSearch_Click</text>
</a>
</g>
</g>
<!-- Node2&#45;&gt;Node3 -->
<g id="edge2" class="edge"><title>Node2&#45;&gt;Node3</title>
<path fill="none" stroke="midnightblue" d="M387.436,-8.76828C395.884,-8.72738 404.408,-8.75512 412.752,-8.85149"/>
<polygon fill="midnightblue" stroke="midnightblue" points="387.158,-5.27034 377.187,-8.8522 387.215,-12.2701 387.158,-5.27034"/>
</g>
<!-- Node3&#45;&gt;Node2 -->
<g id="edge3" class="edge"><title>Node3&#45;&gt;Node2</title>
<path fill="none" stroke="midnightblue" d="M402.502,-22.232C394.054,-22.2726 385.529,-22.2445 377.187,-22.1478"/>
<polygon fill="midnightblue" stroke="midnightblue" points="402.781,-25.73 412.752,-22.1485 402.724,-18.7302 402.781,-25.73"/>
</g>
<!-- Node4 -->
<g id="node4" class="node"><title>Node4</title>
<g id="a_node4"><a xlink:href="class_suite_c_r_m_add_in_1_1_dialogs_1_1_archive_dialog.html#a1f34c87c999c13b787aab281472014cd" target="_top" xlink:title="Clean up any resources being used. ">
<polygon fill="white" stroke="black" points="609,-0.5 609,-30.5 769,-30.5 769,-0.5 609,-0.5"/>
<text text-anchor="start" x="617" y="-18.5" font-family="Helvetica,sans-Serif" font-size="10.00">SuiteCRMAddIn.Dialogs.Archive</text>
<text text-anchor="middle" x="689" y="-7.5" font-family="Helvetica,sans-Serif" font-size="10.00">Dialog.Dispose</text>
</a>
</g>
</g>
<!-- Node3&#45;&gt;Node4 -->
<g id="edge4" class="edge"><title>Node3&#45;&gt;Node4</title>
<path fill="none" stroke="midnightblue" d="M583.436,-15.5C591.884,-15.5 600.408,-15.5 608.752,-15.5"/>
<polygon fill="midnightblue" stroke="midnightblue" points="583.187,-12.0001 573.187,-15.5 583.187,-19.0001 583.187,-12.0001"/>
</g>
</g>
</svg>
