<?xml version="1.0" encoding="UTF-8" standalone="no"?>
<!DOCTYPE svg PUBLIC "-//W3C//DTD SVG 1.1//EN"
 "http://www.w3.org/Graphics/SVG/1.1/DTD/svg11.dtd">
<!-- Generated by graphviz version 2.38.0 (20140413.2041)
 -->
<!-- Title: SuiteCRMAddIn.BusinessLogic.RepeatingProcess.PrepareShutdownAll Pages: 1 -->
<svg width="615pt" height="88pt"
 viewBox="0.00 0.00 615.00 88.00" xmlns="http://www.w3.org/2000/svg" xmlns:xlink="http://www.w3.org/1999/xlink">
<g id="graph0" class="graph" transform="scale(1 1) rotate(0) translate(4 84)">
<title>SuiteCRMAddIn.BusinessLogic.RepeatingProcess.PrepareShutdownAll</title>
<polygon fill="white" stroke="none" points="-4,4 -4,-84 611,-84 611,4 -4,4"/>
<!-- Node1 -->
<g id="node1" class="node"><title>Node1</title>
<polygon fill="#bfbfbf" stroke="black" points="0,-24.5 0,-54.5 188,-54.5 188,-24.5 0,-24.5"/>
<text text-anchor="start" x="8" y="-42.5" font-family="Helvetica,sans-Serif" font-size="10.00">SuiteCRMAddIn.BusinessLogic.</text>
<text text-anchor="middle" x="94" y="-31.5" font-family="Helvetica,sans-Serif" font-size="10.00">RepeatingProcess.PrepareShutdownAll</text>
</g>
<!-- Node2 -->
<g id="node2" class="node"><title>Node2</title>
<g id="a_node2"><a xlink:href="class_suite_c_r_m_add_in_1_1_business_logic_1_1_repeating_process.html#a75baab6367c7ce36a63695d23a646c95" target="_top" xlink:title="Put me into a mode where I finish all the work I have to do quickly. ">
<polygon fill="white" stroke="black" points="224,-49.5 224,-79.5 401,-79.5 401,-49.5 224,-49.5"/>
<text text-anchor="start" x="232" y="-67.5" font-family="Helvetica,sans-Serif" font-size="10.00">SuiteCRMAddIn.BusinessLogic.</text>
<text text-anchor="middle" x="312.5" y="-56.5" font-family="Helvetica,sans-Serif" font-size="10.00">RepeatingProcess.PrepareShutdown</text>
</a>
</g>
</g>
<!-- Node1&#45;&gt;Node2 -->
<g id="edge1" class="edge"><title>Node1&#45;&gt;Node2</title>
<path fill="none" stroke="midnightblue" d="M188.072,-50.2473C196.639,-51.2366 205.335,-52.2408 213.94,-53.2345"/>
<polygon fill="midnightblue" stroke="midnightblue" points="213.652,-56.7243 223.987,-54.3946 214.455,-49.7705 213.652,-56.7243"/>
</g>
<!-- Node4 -->
<g id="node4" class="node"><title>Node4</title>
<g id="a_node4"><a xlink:href="class_suite_c_r_m_add_in_1_1_business_logic_1_1_repeating_process.html#a1484b532908abdfad6640cc758cd2f37" target="_top" xlink:title="Stop me at the end of my current iteration; does not force an immediate stop unless no work is curren...">
<polygon fill="white" stroke="black" points="233.5,-0.5 233.5,-30.5 391.5,-30.5 391.5,-0.5 233.5,-0.5"/>
<text text-anchor="start" x="241.5" y="-18.5" font-family="Helvetica,sans-Serif" font-size="10.00">SuiteCRMAddIn.BusinessLogic.</text>
<text text-anchor="middle" x="312.5" y="-7.5" font-family="Helvetica,sans-Serif" font-size="10.00">RepeatingProcess.Stop</text>
</a>
</g>
</g>
<!-- Node1&#45;&gt;Node4 -->
<g id="edge3" class="edge"><title>Node1&#45;&gt;Node4</title>
<path fill="none" stroke="midnightblue" d="M188.072,-29.1826C199.773,-27.8855 211.715,-26.5617 223.337,-25.2733"/>
<polygon fill="midnightblue" stroke="midnightblue" points="223.9,-28.7324 233.453,-24.1518 223.128,-21.775 223.9,-28.7324"/>
</g>
<!-- Node3 -->
<g id="node3" class="node"><title>Node3</title>
<g id="a_node3"><a xlink:href="class_suite_c_r_m_add_in_1_1_business_logic_1_1_repeating_process.html#a13a459becdd7115fdd3af289318e74b7" target="_top" xlink:title="Do whatever it is I do, once. ">
<polygon fill="white" stroke="black" points="437,-49.5 437,-79.5 607,-79.5 607,-49.5 437,-49.5"/>
<text text-anchor="start" x="445" y="-67.5" font-family="Helvetica,sans-Serif" font-size="10.00">SuiteCRMAddIn.BusinessLogic.</text>
<text text-anchor="middle" x="522" y="-56.5" font-family="Helvetica,sans-Serif" font-size="10.00">RepeatingProcess.PerformIteration</text>
</a>
</g>
</g>
<!-- Node2&#45;&gt;Node3 -->
<g id="edge2" class="edge"><title>Node2&#45;&gt;Node3</title>
<path fill="none" stroke="midnightblue" d="M401.198,-64.5C409.704,-64.5 418.358,-64.5 426.924,-64.5"/>
<polygon fill="midnightblue" stroke="midnightblue" points="426.924,-68.0001 436.924,-64.5 426.924,-61.0001 426.924,-68.0001"/>
</g>
</g>
</svg>
