<?xml version="1.0" encoding="UTF-8" standalone="no"?>
<!DOCTYPE svg PUBLIC "-//W3C//DTD SVG 1.1//EN"
 "http://www.w3.org/Graphics/SVG/1.1/DTD/svg11.dtd">
<!-- Generated by graphviz version 2.38.0 (20140413.2041)
 -->
<!-- Title: SuiteCRMAddIn.BusinessLogic.TaskSyncing.LogItemAction Pages: 1 -->
<svg width="593pt" height="104pt"
 viewBox="0.00 0.00 593.00 104.00" xmlns="http://www.w3.org/2000/svg" xmlns:xlink="http://www.w3.org/1999/xlink">
<g id="graph0" class="graph" transform="scale(1 1) rotate(0) translate(4 100)">
<title>SuiteCRMAddIn.BusinessLogic.TaskSyncing.LogItemAction</title>
<polygon fill="white" stroke="none" points="-4,4 -4,-100 589,-100 589,4 -4,4"/>
<!-- Node1 -->
<g id="node1" class="node"><title>Node1</title>
<polygon fill="#bfbfbf" stroke="black" points="0,-33 0,-63 158,-63 158,-33 0,-33"/>
<text text-anchor="start" x="8" y="-51" font-family="Helvetica,sans-Serif" font-size="10.00">SuiteCRMAddIn.BusinessLogic.</text>
<text text-anchor="middle" x="79" y="-40" font-family="Helvetica,sans-Serif" font-size="10.00">TaskSyncing.LogItemAction</text>
</g>
<!-- Node2 -->
<g id="node2" class="node"><title>Node2</title>
<g id="a_node2"><a xlink:href="class_suite_c_r_m_add_in_1_1_business_logic_1_1_task_syncing.html#a214d7e1a0000e29128954b3e6516fbb8" target="_top" xlink:title="SuiteCRMAddIn.BusinessLogic.\lTaskSyncing.SaveItem">
<polygon fill="white" stroke="black" points="204,-60 204,-90 362,-90 362,-60 204,-60"/>
<text text-anchor="start" x="212" y="-78" font-family="Helvetica,sans-Serif" font-size="10.00">SuiteCRMAddIn.BusinessLogic.</text>
<text text-anchor="middle" x="283" y="-67" font-family="Helvetica,sans-Serif" font-size="10.00">TaskSyncing.SaveItem</text>
</a>
</g>
</g>
<!-- Node1&#45;&gt;Node2 -->
<g id="edge1" class="edge"><title>Node1&#45;&gt;Node2</title>
<path fill="none" stroke="midnightblue" d="M168.021,-59.7652C179.92,-61.3557 192.064,-62.9788 203.776,-64.5443"/>
<polygon fill="midnightblue" stroke="midnightblue" points="168.474,-56.2947 158.098,-58.4389 167.547,-63.233 168.474,-56.2947"/>
</g>
<!-- Node4 -->
<g id="node4" class="node"><title>Node4</title>
<g id="a_node4"><a xlink:href="class_suite_c_r_m_add_in_1_1_business_logic_1_1_task_syncing.html#a2024b479b443ef00135870d5bbbfa4be" target="_top" xlink:title="Update a single item in the specified Outlook folder with changes from CRM. If the item does not exis...">
<polygon fill="white" stroke="black" points="194,-0.5 194,-41.5 372,-41.5 372,-0.5 194,-0.5"/>
<text text-anchor="start" x="202" y="-29.5" font-family="Helvetica,sans-Serif" font-size="10.00">SuiteCRMAddIn.BusinessLogic.</text>
<text text-anchor="start" x="202" y="-18.5" font-family="Helvetica,sans-Serif" font-size="10.00">TaskSyncing.AddOrUpdateItemFrom</text>
<text text-anchor="middle" x="283" y="-7.5" font-family="Helvetica,sans-Serif" font-size="10.00">CrmToOutlook</text>
</a>
</g>
</g>
<!-- Node1&#45;&gt;Node4 -->
<g id="edge3" class="edge"><title>Node1&#45;&gt;Node4</title>
<path fill="none" stroke="midnightblue" d="M168.021,-36.2348C176.536,-35.0967 185.175,-33.9419 193.693,-32.8035"/>
<polygon fill="midnightblue" stroke="midnightblue" points="167.547,-32.767 158.098,-37.5611 168.474,-39.7053 167.547,-32.767"/>
</g>
<!-- Node3 -->
<g id="node3" class="node"><title>Node3</title>
<g id="a_node3"><a xlink:href="class_suite_c_r_m_add_in_1_1_business_logic_1_1_task_syncing.html#a8c5a8adf1dff2b0d9074b2bd75ec27dd" target="_top" xlink:title="SuiteCRMAddIn.BusinessLogic.\lTaskSyncing.EnsureSynchronisation\lPropertyForOutlookItem">
<polygon fill="white" stroke="black" points="408,-54.5 408,-95.5 585,-95.5 585,-54.5 408,-54.5"/>
<text text-anchor="start" x="416" y="-83.5" font-family="Helvetica,sans-Serif" font-size="10.00">SuiteCRMAddIn.BusinessLogic.</text>
<text text-anchor="start" x="416" y="-72.5" font-family="Helvetica,sans-Serif" font-size="10.00">TaskSyncing.EnsureSynchronisation</text>
<text text-anchor="middle" x="496.5" y="-61.5" font-family="Helvetica,sans-Serif" font-size="10.00">PropertyForOutlookItem</text>
</a>
</g>
</g>
<!-- Node2&#45;&gt;Node3 -->
<g id="edge2" class="edge"><title>Node2&#45;&gt;Node3</title>
<path fill="none" stroke="midnightblue" d="M372.336,-75C384.026,-75 396.007,-75 407.688,-75"/>
<polygon fill="midnightblue" stroke="midnightblue" points="372.154,-71.5001 362.154,-75 372.154,-78.5001 372.154,-71.5001"/>
</g>
</g>
</svg>
