<?xml version="1.0" encoding="UTF-8" standalone="no"?>
<!DOCTYPE svg PUBLIC "-//W3C//DTD SVG 1.1//EN"
 "http://www.w3.org/Graphics/SVG/1.1/DTD/svg11.dtd">
<!-- Generated by graphviz version 2.38.0 (20140413.2041)
 -->
<!-- Title: SuiteCRMClient.CrmServerErrorException Pages: 1 -->
<svg width="246pt" height="117pt"
 viewBox="0.00 0.00 246.00 117.00" xmlns="http://www.w3.org/2000/svg" xmlns:xlink="http://www.w3.org/1999/xlink">
<g id="graph0" class="graph" transform="scale(1 1) rotate(0) translate(4 113)">
<title>SuiteCRMClient.CrmServerErrorException</title>
<polygon fill="white" stroke="none" points="-4,4 -4,-113 242,-113 242,4 -4,4"/>
<!-- Node1 -->
<g id="node1" class="node"><title>Node1</title>
<polygon fill="#bfbfbf" stroke="black" points="25,-0.5 25,-30.5 163,-30.5 163,-0.5 25,-0.5"/>
<text text-anchor="start" x="33" y="-18.5" font-family="Helvetica,sans-Serif" font-size="10.00">SuiteCRMClient.CrmServer</text>
<text text-anchor="middle" x="94" y="-7.5" font-family="Helvetica,sans-Serif" font-size="10.00">ErrorException</text>
</g>
<!-- Node2 -->
<g id="node2" class="node"><title>Node2</title>
<polygon fill="white" stroke="#bfbfbf" points="0,-84 0,-103 60,-103 60,-84 0,-84"/>
<text text-anchor="middle" x="30" y="-91" font-family="Helvetica,sans-Serif" font-size="10.00">Exception</text>
</g>
<!-- Node2&#45;&gt;Node1 -->
<g id="edge1" class="edge"><title>Node2&#45;&gt;Node1</title>
<path fill="none" stroke="midnightblue" d="M44.1015,-75.7545C55.525,-62.189 71.4346,-43.2964 82.1938,-30.5198"/>
<polygon fill="midnightblue" stroke="midnightblue" points="41.1058,-73.8782 37.3416,-83.7818 46.4602,-78.3872 41.1058,-73.8782"/>
</g>
<!-- Node3 -->
<g id="node3" class="node"><title>Node3</title>
<g id="a_node3"><a xlink:href="class_suite_c_r_m_client_1_1_r_e_s_t_objects_1_1e_error_value.html" target="_top" xlink:title="SuiteCRMClient.RESTObjects.e\lErrorValue">
<polygon fill="white" stroke="black" points="78,-78.5 78,-108.5 238,-108.5 238,-78.5 78,-78.5"/>
<text text-anchor="start" x="86" y="-96.5" font-family="Helvetica,sans-Serif" font-size="10.00">SuiteCRMClient.RESTObjects.e</text>
<text text-anchor="middle" x="158" y="-85.5" font-family="Helvetica,sans-Serif" font-size="10.00">ErrorValue</text>
</a>
</g>
</g>
<!-- Node3&#45;&gt;Node1 -->
<g id="edge2" class="edge"><title>Node3&#45;&gt;Node1</title>
<path fill="none" stroke="#9a32cd" stroke-dasharray="5,2" d="M139.311,-70.3065C128.554,-57.5329 115.355,-41.8596 105.984,-30.7309"/>
<polygon fill="#9a32cd" stroke="#9a32cd" points="136.844,-72.8103 145.962,-78.205 142.198,-68.3014 136.844,-72.8103"/>
<text text-anchor="middle" x="141.5" y="-52" font-family="Helvetica,sans-Serif" font-size="10.00"> Error</text>
</g>
</g>
</svg>
