<?xml version="1.0" encoding="UTF-8" standalone="no"?>
<!DOCTYPE svg PUBLIC "-//W3C//DTD SVG 1.1//EN"
 "http://www.w3.org/Graphics/SVG/1.1/DTD/svg11.dtd">
<!-- Generated by graphviz version 2.38.0 (20140413.2041)
 -->
<!-- Title: SuiteCRMAddIn.Daemon.AbstractDaemonAction Pages: 1 -->
<svg width="497pt" height="186pt"
 viewBox="0.00 0.00 497.00 186.00" xmlns="http://www.w3.org/2000/svg" xmlns:xlink="http://www.w3.org/1999/xlink">
<g id="graph0" class="graph" transform="scale(1 1) rotate(0) translate(4 182)">
<title>SuiteCRMAddIn.Daemon.AbstractDaemonAction</title>
<polygon fill="white" stroke="none" points="-4,4 -4,-182 493,-182 493,4 -4,4"/>
<!-- Node1 -->
<g id="node1" class="node"><title>Node1</title>
<polygon fill="#bfbfbf" stroke="black" points="117,-73.5 117,-103.5 284,-103.5 284,-73.5 117,-73.5"/>
<text text-anchor="start" x="125" y="-91.5" font-family="Helvetica,sans-Serif" font-size="10.00">SuiteCRMAddIn.Daemon.Abstract</text>
<text text-anchor="middle" x="200.5" y="-80.5" font-family="Helvetica,sans-Serif" font-size="10.00">DaemonAction</text>
</g>
<!-- Node3 -->
<g id="node3" class="node"><title>Node3</title>
<g id="a_node3"><a xlink:href="class_suite_c_r_m_add_in_1_1_daemon_1_1_archive_email_action.html" target="_top" xlink:title="An action which archives one email. ">
<polygon fill="white" stroke="black" points="322.5,-147.5 322.5,-177.5 486.5,-177.5 486.5,-147.5 322.5,-147.5"/>
<text text-anchor="start" x="330.5" y="-165.5" font-family="Helvetica,sans-Serif" font-size="10.00">SuiteCRMAddIn.Daemon.Archive</text>
<text text-anchor="middle" x="404.5" y="-154.5" font-family="Helvetica,sans-Serif" font-size="10.00">EmailAction</text>
</a>
</g>
</g>
<!-- Node1&#45;&gt;Node3 -->
<g id="edge2" class="edge"><title>Node1&#45;&gt;Node3</title>
<path fill="none" stroke="midnightblue" d="M243.525,-107.677C265.967,-117.549 294.209,-129.389 320,-138.5 328.818,-141.615 338.262,-144.629 347.512,-147.408"/>
<polygon fill="midnightblue" stroke="midnightblue" points="244.847,-104.435 234.286,-103.581 242.009,-110.834 244.847,-104.435"/>
</g>
<!-- Node4 -->
<g id="node4" class="node"><title>Node4</title>
<g id="a_node4"><a xlink:href="class_suite_c_r_m_add_in_1_1_daemon_1_1_fetch_email_categories_action.html" target="_top" xlink:title="The idea here is that at startup, the addin fires off one instance of this action, passing in its (initially empty) list of email categories by reference. When this action runs, it populates that list, so that if the email archiving dialogue is subsequently opened, it has the appropriate values. ">
<polygon fill="white" stroke="black" points="327,-98.5 327,-128.5 482,-128.5 482,-98.5 327,-98.5"/>
<text text-anchor="start" x="335" y="-116.5" font-family="Helvetica,sans-Serif" font-size="10.00">SuiteCRMAddIn.Daemon.Fetch</text>
<text text-anchor="middle" x="404.5" y="-105.5" font-family="Helvetica,sans-Serif" font-size="10.00">EmailCategoriesAction</text>
</a>
</g>
</g>
<!-- Node1&#45;&gt;Node4 -->
<g id="edge3" class="edge"><title>Node1&#45;&gt;Node4</title>
<path fill="none" stroke="midnightblue" d="M294.192,-99.9718C305.081,-101.319 316.098,-102.683 326.735,-103.999"/>
<polygon fill="midnightblue" stroke="midnightblue" points="294.598,-96.4954 284.244,-98.7406 293.738,-103.442 294.598,-96.4954"/>
</g>
<!-- Node5 -->
<g id="node5" class="node"><title>Node5</title>
<g id="a_node5"><a xlink:href="class_suite_c_r_m_add_in_1_1_daemon_1_1_transmit_new_action.html" target="_top" xlink:title="An action to transmit to the server an item which is a new item, and does not already have a SyncStat...">
<polygon fill="white" stroke="black" points="320,-49.5 320,-79.5 489,-79.5 489,-49.5 320,-49.5"/>
<text text-anchor="start" x="328" y="-67.5" font-family="Helvetica,sans-Serif" font-size="10.00">SuiteCRMAddIn.Daemon.Transmit</text>
<text text-anchor="middle" x="404.5" y="-56.5" font-family="Helvetica,sans-Serif" font-size="10.00">NewAction&lt; OutlookItemType &gt;</text>
</a>
</g>
</g>
<!-- Node1&#45;&gt;Node5 -->
<g id="edge4" class="edge"><title>Node1&#45;&gt;Node5</title>
<path fill="none" stroke="midnightblue" d="M294.239,-77.4815C302.797,-76.4647 311.434,-75.4385 319.904,-74.4323"/>
<polygon fill="midnightblue" stroke="midnightblue" points="293.761,-74.0136 284.244,-78.669 294.587,-80.9647 293.761,-74.0136"/>
</g>
<!-- Node6 -->
<g id="node6" class="node"><title>Node6</title>
<g id="a_node6"><a xlink:href="class_suite_c_r_m_add_in_1_1_daemon_1_1_transmit_update_action.html" target="_top" xlink:title="An action to transmit to the server an item which is not a new item, but already has a SyncState...">
<polygon fill="white" stroke="black" points="320,-0.5 320,-30.5 489,-30.5 489,-0.5 320,-0.5"/>
<text text-anchor="start" x="328" y="-18.5" font-family="Helvetica,sans-Serif" font-size="10.00">SuiteCRMAddIn.Daemon.Transmit</text>
<text text-anchor="middle" x="404.5" y="-7.5" font-family="Helvetica,sans-Serif" font-size="10.00">UpdateAction&lt; OutlookItemType &gt;</text>
</a>
</g>
</g>
<!-- Node1&#45;&gt;Node6 -->
<g id="edge5" class="edge"><title>Node1&#45;&gt;Node6</title>
<path fill="none" stroke="midnightblue" d="M244.285,-69.4462C266.618,-59.8492 294.529,-48.3951 320,-39.5 328.971,-36.367 338.584,-33.3225 347.979,-30.5128"/>
<polygon fill="midnightblue" stroke="midnightblue" points="242.865,-66.2472 235.079,-73.4327 245.646,-72.6709 242.865,-66.2472"/>
</g>
<!-- Node2 -->
<g id="node2" class="node"><title>Node2</title>
<g id="a_node2"><a xlink:href="interface_suite_c_r_m_add_in_1_1_daemon_1_1_daemon_action.html" target="_top" xlink:title="An action to be queued and performed by the DaemonWorker.">
<polygon fill="white" stroke="black" points="0,-79 0,-98 81,-98 81,-79 0,-79"/>
<text text-anchor="middle" x="40.5" y="-86" font-family="Helvetica,sans-Serif" font-size="10.00">DaemonAction</text>
</a>
</g>
</g>
<!-- Node2&#45;&gt;Node1 -->
<g id="edge1" class="edge"><title>Node2&#45;&gt;Node1</title>
<path fill="none" stroke="midnightblue" d="M91.3777,-88.5C99.5052,-88.5 108.111,-88.5 116.776,-88.5"/>
<polygon fill="midnightblue" stroke="midnightblue" points="91.3701,-85.0001 81.3701,-88.5 91.37,-92.0001 91.3701,-85.0001"/>
</g>
</g>
</svg>
