<?xml version="1.0" encoding="UTF-8" standalone="no"?>
<!DOCTYPE svg PUBLIC "-//W3C//DTD SVG 1.1//EN"
 "http://www.w3.org/Graphics/SVG/1.1/DTD/svg11.dtd">
<!-- Generated by graphviz version 2.38.0 (20140413.2041)
 -->
<!-- Title: SuiteCRMAddIn.ProtoItems.ProtoTask.GetHashCode Pages: 1 -->
<svg width="573pt" height="112pt"
 viewBox="0.00 0.00 573.00 112.00" xmlns="http://www.w3.org/2000/svg" xmlns:xlink="http://www.w3.org/1999/xlink">
<g id="graph0" class="graph" transform="scale(1 1) rotate(0) translate(4 108)">
<title>SuiteCRMAddIn.ProtoItems.ProtoTask.GetHashCode</title>
<polygon fill="white" stroke="none" points="-4,4 -4,-108 569,-108 569,4 -4,4"/>
<!-- Node1 -->
<g id="node1" class="node"><title>Node1</title>
<polygon fill="#bfbfbf" stroke="black" points="0,-24.5 0,-54.5 142,-54.5 142,-24.5 0,-24.5"/>
<text text-anchor="start" x="8" y="-42.5" font-family="Helvetica,sans-Serif" font-size="10.00">SuiteCRMAddIn.ProtoItems.</text>
<text text-anchor="middle" x="71" y="-31.5" font-family="Helvetica,sans-Serif" font-size="10.00">ProtoTask.GetHashCode</text>
</g>
<!-- Node2 -->
<g id="node2" class="node"><title>Node2</title>
<g id="a_node2"><a xlink:href="class_suite_c_r_m_add_in_1_1_proto_items_1_1_proto_task.html#adcb8a1086d740e37605bee0eefb2c45e" target="_top" xlink:title="Construct a name value list (to be serialised as JSON) representing this task. ">
<polygon fill="white" stroke="black" points="192,-49.5 192,-79.5 334,-79.5 334,-49.5 192,-49.5"/>
<text text-anchor="start" x="200" y="-67.5" font-family="Helvetica,sans-Serif" font-size="10.00">SuiteCRMAddIn.ProtoItems.</text>
<text text-anchor="middle" x="263" y="-56.5" font-family="Helvetica,sans-Serif" font-size="10.00">ProtoTask.AsNameValues</text>
</a>
</g>
</g>
<!-- Node1&#45;&gt;Node2 -->
<g id="edge1" class="edge"><title>Node1&#45;&gt;Node2</title>
<path fill="none" stroke="midnightblue" d="M142.209,-48.738C155.098,-50.4339 168.641,-52.2159 181.796,-53.9468"/>
<polygon fill="midnightblue" stroke="midnightblue" points="181.391,-57.4237 191.762,-55.2582 182.304,-50.4835 181.391,-57.4237"/>
</g>
<!-- Node5 -->
<g id="node5" class="node"><title>Node5</title>
<g id="a_node5"><a xlink:href="class_suite_c_r_m_client_1_1_r_e_s_t_objects_1_1_name_value_collection.html#a23df23e9099bbe0ecf7697210abcd63b" target="_top" xlink:title="Return my names/values as a dictionary. ">
<polygon fill="white" stroke="black" points="178,-0.5 178,-30.5 348,-30.5 348,-0.5 178,-0.5"/>
<text text-anchor="start" x="186" y="-18.5" font-family="Helvetica,sans-Serif" font-size="10.00">SuiteCRMClient.RESTObjects.</text>
<text text-anchor="middle" x="263" y="-7.5" font-family="Helvetica,sans-Serif" font-size="10.00">NameValueCollection.AsDictionary</text>
</a>
</g>
</g>
<!-- Node1&#45;&gt;Node5 -->
<g id="edge4" class="edge"><title>Node1&#45;&gt;Node5</title>
<path fill="none" stroke="midnightblue" d="M142.209,-30.6315C150.567,-29.5758 159.2,-28.4853 167.824,-27.3959"/>
<polygon fill="midnightblue" stroke="midnightblue" points="168.444,-30.8455 177.926,-26.1198 167.567,-23.9007 168.444,-30.8455"/>
</g>
<!-- Node3 -->
<g id="node3" class="node"><title>Node3</title>
<g id="a_node3"><a xlink:href="class_suite_c_r_m_client_1_1cls_suite_c_r_m_helper.html#a0e1f5bda4e7a7ebf6f9ee988086dd79d" target="_top" xlink:title="SuiteCRMClient.clsSuiteCRMHelper.\lSetNameValuePair">
<polygon fill="white" stroke="black" points="384,-73.5 384,-103.5 565,-103.5 565,-73.5 384,-73.5"/>
<text text-anchor="start" x="392" y="-91.5" font-family="Helvetica,sans-Serif" font-size="10.00">SuiteCRMClient.clsSuiteCRMHelper.</text>
<text text-anchor="middle" x="474.5" y="-80.5" font-family="Helvetica,sans-Serif" font-size="10.00">SetNameValuePair</text>
</a>
</g>
</g>
<!-- Node2&#45;&gt;Node3 -->
<g id="edge2" class="edge"><title>Node2&#45;&gt;Node3</title>
<path fill="none" stroke="midnightblue" d="M334.052,-72.525C346.754,-73.9801 360.223,-75.5231 373.587,-77.0541"/>
<polygon fill="midnightblue" stroke="midnightblue" points="373.438,-80.5598 383.771,-78.2208 374.234,-73.6053 373.438,-80.5598"/>
</g>
<!-- Node4 -->
<g id="node4" class="node"><title>Node4</title>
<g id="a_node4"><a xlink:href="class_suite_c_r_m_client_1_1cls_suite_c_r_m_helper.html#a050637c0cbd1012cf9cf58c5cb3d179c" target="_top" xlink:title="Return the CRM id of the current user. ">
<polygon fill="white" stroke="black" points="384,-24.5 384,-54.5 565,-54.5 565,-24.5 384,-24.5"/>
<text text-anchor="start" x="392" y="-42.5" font-family="Helvetica,sans-Serif" font-size="10.00">SuiteCRMClient.clsSuiteCRMHelper.</text>
<text text-anchor="middle" x="474.5" y="-31.5" font-family="Helvetica,sans-Serif" font-size="10.00">GetUserId</text>
</a>
</g>
</g>
<!-- Node2&#45;&gt;Node4 -->
<g id="edge3" class="edge"><title>Node2&#45;&gt;Node4</title>
<path fill="none" stroke="midnightblue" d="M334.052,-56.1406C346.754,-54.6249 360.223,-53.0176 373.587,-51.4228"/>
<polygon fill="midnightblue" stroke="midnightblue" points="374.256,-54.8678 383.771,-50.2075 373.427,-47.9172 374.256,-54.8678"/>
</g>
</g>
</svg>
