<?xml version="1.0" encoding="UTF-8" standalone="no"?>
<!DOCTYPE svg PUBLIC "-//W3C//DTD SVG 1.1//EN"
 "http://www.w3.org/Graphics/SVG/1.1/DTD/svg11.dtd">
<!-- Generated by graphviz version 2.38.0 (20140413.2041)
 -->
<!-- Title: Graphical Class Hierarchy Pages: 1 -->
<svg width="262pt" height="333pt"
 viewBox="0.00 0.00 262.00 333.00" xmlns="http://www.w3.org/2000/svg" xmlns:xlink="http://www.w3.org/1999/xlink">
<g id="graph0" class="graph" transform="scale(1 1) rotate(0) translate(4 329)">
<title>Graphical Class Hierarchy</title>
<polygon fill="white" stroke="none" points="-4,4 -4,-329 258,-329 258,4 -4,4"/>
<!-- Node1 -->
<g id="node1" class="node"><title>Node1</title>
<polygon fill="white" stroke="#bfbfbf" points="0,-153 0,-172 39,-172 39,-153 0,-153"/>
<text text-anchor="middle" x="19.5" y="-160" font-family="Helvetica,sans-Serif" font-size="10.00">Form</text>
</g>
<!-- Node2 -->
<g id="node2" class="node"><title>Node2</title>
<g id="a_node2"><a xlink:href="class_suite_c_r_m_add_in_1_1_dialogs_1_1_archive_dialog.html" target="_top" xlink:title="SuiteCRMAddIn.Dialogs.Archive\lDialog">
<polygon fill="white" stroke="black" points="84.5,-294.5 84.5,-324.5 244.5,-324.5 244.5,-294.5 84.5,-294.5"/>
<text text-anchor="start" x="92.5" y="-312.5" font-family="Helvetica,sans-Serif" font-size="10.00">SuiteCRMAddIn.Dialogs.Archive</text>
<text text-anchor="middle" x="164.5" y="-301.5" font-family="Helvetica,sans-Serif" font-size="10.00">Dialog</text>
</a>
</g>
</g>
<!-- Node1&#45;&gt;Node2 -->
<g id="edge1" class="edge"><title>Node1&#45;&gt;Node2</title>
<path fill="none" stroke="midnightblue" d="M23.7695,-182.065C29.3608,-209.305 43.3773,-258.36 75,-285.5 78.9865,-288.921 83.4159,-291.86 88.1076,-294.382"/>
<polygon fill="midnightblue" stroke="midnightblue" points="27.1959,-181.347 21.9142,-172.162 20.3156,-182.636 27.1959,-181.347"/>
</g>
<!-- Node3 -->
<g id="node3" class="node"><title>Node3</title>
<g id="a_node3"><a xlink:href="class_suite_c_r_m_add_in_1_1_dialogs_1_1_custom_modules_dialog.html" target="_top" xlink:title="SuiteCRMAddIn.Dialogs.Custom\lModulesDialog">
<polygon fill="white" stroke="black" points="84,-245.5 84,-275.5 245,-275.5 245,-245.5 84,-245.5"/>
<text text-anchor="start" x="92" y="-263.5" font-family="Helvetica,sans-Serif" font-size="10.00">SuiteCRMAddIn.Dialogs.Custom</text>
<text text-anchor="middle" x="164.5" y="-252.5" font-family="Helvetica,sans-Serif" font-size="10.00">ModulesDialog</text>
</a>
</g>
</g>
<!-- Node1&#45;&gt;Node3 -->
<g id="edge2" class="edge"><title>Node1&#45;&gt;Node3</title>
<path fill="none" stroke="midnightblue" d="M29.4936,-181.012C38.6527,-197.934 54.4205,-222.408 75,-236.5 79.9914,-239.918 85.451,-242.85 91.1297,-245.365"/>
<polygon fill="midnightblue" stroke="midnightblue" points="32.5704,-179.341 24.8781,-172.056 26.3481,-182.548 32.5704,-179.341"/>
</g>
<!-- Node4 -->
<g id="node4" class="node"><title>Node4</title>
<g id="a_node4"><a xlink:href="class_suite_c_r_m_add_in_1_1_dialogs_1_1frm_address_book.html" target="_top" xlink:title="SuiteCRMAddIn.Dialogs.frm\lAddressBook">
<polygon fill="white" stroke="black" points="94,-196.5 94,-226.5 235,-226.5 235,-196.5 94,-196.5"/>
<text text-anchor="start" x="102" y="-214.5" font-family="Helvetica,sans-Serif" font-size="10.00">SuiteCRMAddIn.Dialogs.frm</text>
<text text-anchor="middle" x="164.5" y="-203.5" font-family="Helvetica,sans-Serif" font-size="10.00">AddressBook</text>
</a>
</g>
</g>
<!-- Node1&#45;&gt;Node4 -->
<g id="edge3" class="edge"><title>Node1&#45;&gt;Node4</title>
<path fill="none" stroke="midnightblue" d="M48.3902,-176.367C56.8204,-180.265 66.1818,-184.307 75,-187.5 83.8313,-190.698 93.2926,-193.697 102.625,-196.418"/>
<polygon fill="midnightblue" stroke="midnightblue" points="49.8819,-173.201 39.3465,-172.08 46.8837,-179.526 49.8819,-173.201"/>
</g>
<!-- Node5 -->
<g id="node5" class="node"><title>Node5</title>
<g id="a_node5"><a xlink:href="class_suite_c_r_m_add_in_1_1_dialogs_1_1_reconfigure_or_disable_dialog.html" target="_top" xlink:title="A simple dialog asking the user whether they wish to reconfigure or disable the add in following a li...">
<polygon fill="white" stroke="black" points="75,-147.5 75,-177.5 254,-177.5 254,-147.5 75,-147.5"/>
<text text-anchor="start" x="83" y="-165.5" font-family="Helvetica,sans-Serif" font-size="10.00">SuiteCRMAddIn.Dialogs.Reconfigure</text>
<text text-anchor="middle" x="164.5" y="-154.5" font-family="Helvetica,sans-Serif" font-size="10.00">OrDisableDialog</text>
</a>
</g>
</g>
<!-- Node1&#45;&gt;Node5 -->
<g id="edge4" class="edge"><title>Node1&#45;&gt;Node5</title>
<path fill="none" stroke="midnightblue" d="M49.3387,-162.5C57.0541,-162.5 65.8143,-162.5 74.9701,-162.5"/>
<polygon fill="midnightblue" stroke="midnightblue" points="49.1948,-159 39.1948,-162.5 49.1947,-166 49.1948,-159"/>
</g>
<!-- Node6 -->
<g id="node6" class="node"><title>Node6</title>
<g id="a_node6"><a xlink:href="class_suite_c_r_m_add_in_1_1_dialogs_1_1_settings_dialog.html" target="_top" xlink:title="SuiteCRMAddIn.Dialogs.Settings\lDialog">
<polygon fill="white" stroke="black" points="83,-98.5 83,-128.5 246,-128.5 246,-98.5 83,-98.5"/>
<text text-anchor="start" x="91" y="-116.5" font-family="Helvetica,sans-Serif" font-size="10.00">SuiteCRMAddIn.Dialogs.Settings</text>
<text text-anchor="middle" x="164.5" y="-105.5" font-family="Helvetica,sans-Serif" font-size="10.00">Dialog</text>
</a>
</g>
</g>
<!-- Node1&#45;&gt;Node6 -->
<g id="edge5" class="edge"><title>Node1&#45;&gt;Node6</title>
<path fill="none" stroke="midnightblue" d="M48.729,-149.174C57.0897,-145.472 66.3289,-141.617 75,-138.5 84.7661,-134.99 95.2783,-131.65 105.528,-128.621"/>
<polygon fill="midnightblue" stroke="midnightblue" points="47.0705,-146.083 39.4044,-153.396 49.9578,-152.46 47.0705,-146.083"/>
</g>
<!-- Node7 -->
<g id="node7" class="node"><title>Node7</title>
<g id="a_node7"><a xlink:href="class_suite_c_r_m_add_in_1_1_dialogs_1_1_shutting_down_dialog.html" target="_top" xlink:title="SuiteCRMAddIn.Dialogs.Shutting\lDownDialog">
<polygon fill="white" stroke="black" points="83,-49.5 83,-79.5 246,-79.5 246,-49.5 83,-49.5"/>
<text text-anchor="start" x="91" y="-67.5" font-family="Helvetica,sans-Serif" font-size="10.00">SuiteCRMAddIn.Dialogs.Shutting</text>
<text text-anchor="middle" x="164.5" y="-56.5" font-family="Helvetica,sans-Serif" font-size="10.00">DownDialog</text>
</a>
</g>
</g>
<!-- Node1&#45;&gt;Node7 -->
<g id="edge6" class="edge"><title>Node1&#45;&gt;Node7</title>
<path fill="none" stroke="midnightblue" d="M29.9976,-143.551C39.2786,-126.924 54.9266,-103.304 75,-89.5 80.6569,-85.61 86.9103,-82.3214 93.4002,-79.542"/>
<polygon fill="midnightblue" stroke="midnightblue" points="26.6587,-142.376 25.0591,-152.85 32.8409,-145.66 26.6587,-142.376"/>
</g>
<!-- Node8 -->
<g id="node8" class="node"><title>Node8</title>
<g id="a_node8"><a xlink:href="class_suite_c_r_m_add_in_1_1_dialogs_1_1_with_custom_modules_selector_form.html" target="_top" xlink:title="Both CustomModulesDialog and ArchiveDialog use a custom modules selector, which each was building in ...">
<polygon fill="white" stroke="black" points="91,-0.5 91,-30.5 238,-30.5 238,-0.5 91,-0.5"/>
<text text-anchor="start" x="99" y="-18.5" font-family="Helvetica,sans-Serif" font-size="10.00">SuiteCRMAddIn.Dialogs.With</text>
<text text-anchor="middle" x="164.5" y="-7.5" font-family="Helvetica,sans-Serif" font-size="10.00">CustomModulesSelectorForm</text>
</a>
</g>
</g>
<!-- Node1&#45;&gt;Node8 -->
<g id="edge7" class="edge"><title>Node1&#45;&gt;Node8</title>
<path fill="none" stroke="midnightblue" d="M23.9329,-142.775C29.6781,-115.737 43.832,-67.4524 75,-40.5 79.7099,-36.4271 85.0387,-33.015 90.6886,-30.1568"/>
<polygon fill="midnightblue" stroke="midnightblue" points="20.4299,-142.455 21.9604,-152.939 27.3016,-143.789 20.4299,-142.455"/>
</g>
</g>
</svg>
