<?xml version="1.0" encoding="UTF-8" standalone="no"?>
<!DOCTYPE svg PUBLIC "-//W3C//DTD SVG 1.1//EN"
 "http://www.w3.org/Graphics/SVG/1.1/DTD/svg11.dtd">
<!-- Generated by graphviz version 2.38.0 (20140413.2041)
 -->
<!-- Title: Graphical Class Hierarchy Pages: 1 -->
<svg width="274pt" height="176pt"
 viewBox="0.00 0.00 274.00 176.00" xmlns="http://www.w3.org/2000/svg" xmlns:xlink="http://www.w3.org/1999/xlink">
<g id="graph0" class="graph" transform="scale(1 1) rotate(0) translate(4 172)">
<title>Graphical Class Hierarchy</title>
<polygon fill="white" stroke="none" points="-4,4 -4,-172 270,-172 270,4 -4,4"/>
<!-- Node1 -->
<g id="node1" class="node"><title>Node1</title>
<polygon fill="white" stroke="#bfbfbf" points="0,-77 0,-96 60,-96 60,-77 0,-77"/>
<text text-anchor="middle" x="30" y="-84" font-family="Helvetica,sans-Serif" font-size="10.00">Exception</text>
</g>
<!-- Node2 -->
<g id="node2" class="node"><title>Node2</title>
<g id="a_node2"><a xlink:href="class_suite_c_r_m_add_in_1_1_exceptions_1_1_could_not_construct_query_exception.html" target="_top" xlink:title="An exception thrown if a search query could not be constructed. ">
<polygon fill="white" stroke="black" points="96,-137.5 96,-167.5 266,-167.5 266,-137.5 96,-137.5"/>
<text text-anchor="start" x="104" y="-155.5" font-family="Helvetica,sans-Serif" font-size="10.00">SuiteCRMAddIn.Exceptions.</text>
<text text-anchor="middle" x="181" y="-144.5" font-family="Helvetica,sans-Serif" font-size="10.00">CouldNotConstructQueryException</text>
</a>
</g>
</g>
<!-- Node1&#45;&gt;Node2 -->
<g id="edge1" class="edge"><title>Node1&#45;&gt;Node2</title>
<path fill="none" stroke="midnightblue" d="M52.0859,-101.878C64.4166,-110.33 80.5529,-120.49 96,-127.5 104.175,-131.21 113.043,-134.537 121.851,-137.462"/>
<polygon fill="midnightblue" stroke="midnightblue" points="54.0402,-98.9739 43.844,-96.0952 50.0195,-104.704 54.0402,-98.9739"/>
</g>
<!-- Node3 -->
<g id="node3" class="node"><title>Node3</title>
<g id="a_node3"><a xlink:href="class_suite_c_r_m_client_1_1cls_my_exceptions.html" target="_top" xlink:title="SuiteCRMClient.clsMyExceptions">
<polygon fill="white" stroke="black" points="98,-99 98,-118 264,-118 264,-99 98,-99"/>
<text text-anchor="middle" x="181" y="-106" font-family="Helvetica,sans-Serif" font-size="10.00">SuiteCRMClient.clsMyExceptions</text>
</a>
</g>
</g>
<!-- Node1&#45;&gt;Node3 -->
<g id="edge2" class="edge"><title>Node1&#45;&gt;Node3</title>
<path fill="none" stroke="midnightblue" d="M70.2365,-92.2933C84.1144,-94.3424 100.114,-96.7048 115.531,-98.9811"/>
<polygon fill="midnightblue" stroke="midnightblue" points="70.4864,-88.7923 60.0824,-90.794 69.4639,-95.7173 70.4864,-88.7923"/>
</g>
<!-- Node4 -->
<g id="node4" class="node"><title>Node4</title>
<g id="a_node4"><a xlink:href="class_suite_c_r_m_client_1_1_crm_server_error_exception.html" target="_top" xlink:title="An exception which wraps an eErrorValue object. ">
<polygon fill="white" stroke="black" points="112,-49.5 112,-79.5 250,-79.5 250,-49.5 112,-49.5"/>
<text text-anchor="start" x="120" y="-67.5" font-family="Helvetica,sans-Serif" font-size="10.00">SuiteCRMClient.CrmServer</text>
<text text-anchor="middle" x="181" y="-56.5" font-family="Helvetica,sans-Serif" font-size="10.00">ErrorException</text>
</a>
</g>
</g>
<!-- Node1&#45;&gt;Node4 -->
<g id="edge3" class="edge"><title>Node1&#45;&gt;Node4</title>
<path fill="none" stroke="midnightblue" d="M70.3194,-80.6944C83.0599,-78.8133 97.5821,-76.6691 111.796,-74.5703"/>
<polygon fill="midnightblue" stroke="midnightblue" points="69.4639,-77.2827 60.0824,-82.206 70.4864,-84.2077 69.4639,-77.2827"/>
</g>
<!-- Node5 -->
<g id="node5" class="node"><title>Node5</title>
<g id="a_node5"><a xlink:href="class_suite_c_r_m_client_1_1_exceptions_1_1_crm_save_data_exception.html" target="_top" xlink:title="SuiteCRMClient.Exceptions.\lCrmSaveDataException">
<polygon fill="white" stroke="black" points="109.5,-0.5 109.5,-30.5 252.5,-30.5 252.5,-0.5 109.5,-0.5"/>
<text text-anchor="start" x="117.5" y="-18.5" font-family="Helvetica,sans-Serif" font-size="10.00">SuiteCRMClient.Exceptions.</text>
<text text-anchor="middle" x="181" y="-7.5" font-family="Helvetica,sans-Serif" font-size="10.00">CrmSaveDataException</text>
</a>
</g>
</g>
<!-- Node1&#45;&gt;Node5 -->
<g id="edge4" class="edge"><title>Node1&#45;&gt;Node5</title>
<path fill="none" stroke="midnightblue" d="M50.0748,-70.4703C62.5023,-60.6876 79.4331,-48.5553 96,-40.5 103.663,-36.7741 111.993,-33.482 120.331,-30.6122"/>
<polygon fill="midnightblue" stroke="midnightblue" points="47.8317,-67.783 42.2504,-76.7886 52.2295,-73.229 47.8317,-67.783"/>
</g>
</g>
</svg>
