<?xml version="1.0" encoding="UTF-8" standalone="no"?>
<!DOCTYPE svg PUBLIC "-//W3C//DTD SVG 1.1//EN"
 "http://www.w3.org/Graphics/SVG/1.1/DTD/svg11.dtd">
<!-- Generated by graphviz version 2.38.0 (20140413.2041)
 -->
<!-- Title: Graphical Class Hierarchy Pages: 1 -->
<svg width="330pt" height="137pt"
 viewBox="0.00 0.00 330.00 137.00" xmlns="http://www.w3.org/2000/svg" xmlns:xlink="http://www.w3.org/1999/xlink">
<g id="graph0" class="graph" transform="scale(1 1) rotate(0) translate(4 133)">
<title>Graphical Class Hierarchy</title>
<polygon fill="white" stroke="none" points="-4,4 -4,-133 326,-133 326,4 -4,4"/>
<!-- Node1 -->
<g id="node1" class="node"><title>Node1</title>
<polygon fill="white" stroke="#bfbfbf" points="0,-55 0,-74 123,-74 123,-55 0,-55"/>
<text text-anchor="middle" x="61.5" y="-62" font-family="Helvetica,sans-Serif" font-size="10.00">ApplicationSettingsBase</text>
</g>
<!-- Node2 -->
<g id="node2" class="node"><title>Node2</title>
<g id="a_node2"><a xlink:href="class_suite_c_r_m_add_in_1_1_properties_1_1_settings.html" target="_top" xlink:title="SuiteCRMAddIn.Properties.\lSettings">
<polygon fill="white" stroke="black" points="171.5,-98.5 171.5,-128.5 309.5,-128.5 309.5,-98.5 171.5,-98.5"/>
<text text-anchor="start" x="179.5" y="-116.5" font-family="Helvetica,sans-Serif" font-size="10.00">SuiteCRMAddIn.Properties.</text>
<text text-anchor="middle" x="240.5" y="-105.5" font-family="Helvetica,sans-Serif" font-size="10.00">Settings</text>
</a>
</g>
</g>
<!-- Node1&#45;&gt;Node2 -->
<g id="edge1" class="edge"><title>Node1&#45;&gt;Node2</title>
<path fill="none" stroke="midnightblue" d="M106.85,-76.7776C130.604,-83.3537 160.064,-91.5092 185.183,-98.463"/>
<polygon fill="midnightblue" stroke="midnightblue" points="107.619,-73.359 97.0476,-74.064 105.751,-80.1052 107.619,-73.359"/>
</g>
<!-- Node3 -->
<g id="node3" class="node"><title>Node3</title>
<g id="a_node3"><a xlink:href="class_suite_c_r_m_add_in_tests_1_1_properties_1_1_settings.html" target="_top" xlink:title="SuiteCRMAddInTests.Properties.\lSettings">
<polygon fill="white" stroke="black" points="159,-49.5 159,-79.5 322,-79.5 322,-49.5 159,-49.5"/>
<text text-anchor="start" x="167" y="-67.5" font-family="Helvetica,sans-Serif" font-size="10.00">SuiteCRMAddInTests.Properties.</text>
<text text-anchor="middle" x="240.5" y="-56.5" font-family="Helvetica,sans-Serif" font-size="10.00">Settings</text>
</a>
</g>
</g>
<!-- Node1&#45;&gt;Node3 -->
<g id="edge2" class="edge"><title>Node1&#45;&gt;Node3</title>
<path fill="none" stroke="midnightblue" d="M133.448,-64.5C141.78,-64.5 150.329,-64.5 158.782,-64.5"/>
<polygon fill="midnightblue" stroke="midnightblue" points="133.413,-61.0001 123.413,-64.5 133.413,-68.0001 133.413,-61.0001"/>
</g>
<!-- Node4 -->
<g id="node4" class="node"><title>Node4</title>
<g id="a_node4"><a xlink:href="class_suite_c_r_m_client_1_1_properties_1_1_settings.html" target="_top" xlink:title="SuiteCRMClient.Properties.\lSettings">
<polygon fill="white" stroke="black" points="171.5,-0.5 171.5,-30.5 309.5,-30.5 309.5,-0.5 171.5,-0.5"/>
<text text-anchor="start" x="179.5" y="-18.5" font-family="Helvetica,sans-Serif" font-size="10.00">SuiteCRMClient.Properties.</text>
<text text-anchor="middle" x="240.5" y="-7.5" font-family="Helvetica,sans-Serif" font-size="10.00">Settings</text>
</a>
</g>
</g>
<!-- Node1&#45;&gt;Node4 -->
<g id="edge3" class="edge"><title>Node1&#45;&gt;Node4</title>
<path fill="none" stroke="midnightblue" d="M106.85,-52.2224C130.604,-45.6463 160.064,-37.4908 185.183,-30.537"/>
<polygon fill="midnightblue" stroke="midnightblue" points="105.751,-48.8948 97.0476,-54.936 107.619,-55.641 105.751,-48.8948"/>
</g>
</g>
</svg>
