<?xml version="1.0" encoding="UTF-8" standalone="no"?>
<!DOCTYPE svg PUBLIC "-//W3C//DTD SVG 1.1//EN"
 "http://www.w3.org/Graphics/SVG/1.1/DTD/svg11.dtd">
<!-- Generated by graphviz version 2.38.0 (20140413.2041)
 -->
<!-- Title: Graphical Class Hierarchy Pages: 1 -->
<svg width="600pt" height="137pt"
 viewBox="0.00 0.00 600.00 137.00" xmlns="http://www.w3.org/2000/svg" xmlns:xlink="http://www.w3.org/1999/xlink">
<g id="graph0" class="graph" transform="scale(1 1) rotate(0) translate(4 133)">
<title>Graphical Class Hierarchy</title>
<polygon fill="white" stroke="none" points="-4,4 -4,-133 596,-133 596,4 -4,4"/>
<!-- Node1 -->
<g id="node1" class="node"><title>Node1</title>
<g id="a_node1"><a xlink:href="class_suite_c_r_m_add_in_1_1_tests_1_1_with_logger_tests.html" target="_top" xlink:title="An abstract superclass for test classes which need a logger. ">
<polygon fill="white" stroke="black" points="0,-49.5 0,-79.5 139,-79.5 139,-49.5 0,-49.5"/>
<text text-anchor="start" x="8" y="-67.5" font-family="Helvetica,sans-Serif" font-size="10.00">SuiteCRMAddIn.Tests.With</text>
<text text-anchor="middle" x="69.5" y="-56.5" font-family="Helvetica,sans-Serif" font-size="10.00">LoggerTests</text>
</a>
</g>
</g>
<!-- Node2 -->
<g id="node2" class="node"><title>Node2</title>
<g id="a_node2"><a xlink:href="class_suite_c_r_m_add_in_1_1_business_logic_1_1_tests_1_1_licence_validation_helper_tests.html" target="_top" xlink:title="SuiteCRMAddIn.BusinessLogic.\lTests.LicenceValidationHelperTests">
<polygon fill="white" stroke="black" points="175,-98.5 175,-128.5 349,-128.5 349,-98.5 175,-98.5"/>
<text text-anchor="start" x="183" y="-116.5" font-family="Helvetica,sans-Serif" font-size="10.00">SuiteCRMAddIn.BusinessLogic.</text>
<text text-anchor="middle" x="262" y="-105.5" font-family="Helvetica,sans-Serif" font-size="10.00">Tests.LicenceValidationHelperTests</text>
</a>
</g>
</g>
<!-- Node1&#45;&gt;Node2 -->
<g id="edge1" class="edge"><title>Node1&#45;&gt;Node2</title>
<path fill="none" stroke="midnightblue" d="M138.729,-82.0498C159.649,-87.4306 182.464,-93.299 202.66,-98.4938"/>
<polygon fill="midnightblue" stroke="midnightblue" points="139.508,-78.6361 128.951,-79.5346 137.764,-85.4154 139.508,-78.6361"/>
</g>
<!-- Node3 -->
<g id="node3" class="node"><title>Node3</title>
<g id="a_node3"><a xlink:href="class_suite_c_r_m_add_in_1_1_tests_1_1_abstract_with_crm_connection_test.html" target="_top" xlink:title="Abstract superclass for a test class which needs a CRM connection. ">
<polygon fill="white" stroke="black" points="184.5,-49.5 184.5,-79.5 339.5,-79.5 339.5,-49.5 184.5,-49.5"/>
<text text-anchor="start" x="192.5" y="-67.5" font-family="Helvetica,sans-Serif" font-size="10.00">SuiteCRMAddIn.Tests.Abstract</text>
<text text-anchor="middle" x="262" y="-56.5" font-family="Helvetica,sans-Serif" font-size="10.00">WithCrmConnectionTest</text>
</a>
</g>
</g>
<!-- Node1&#45;&gt;Node3 -->
<g id="edge2" class="edge"><title>Node1&#45;&gt;Node3</title>
<path fill="none" stroke="midnightblue" d="M149.135,-64.5C160.783,-64.5 172.773,-64.5 184.379,-64.5"/>
<polygon fill="midnightblue" stroke="midnightblue" points="149.006,-61.0001 139.006,-64.5 149.006,-68.0001 149.006,-61.0001"/>
</g>
<!-- Node5 -->
<g id="node5" class="node"><title>Node5</title>
<g id="a_node5"><a xlink:href="class_suite_c_r_m_add_in_tests_1_1_with_rest_service_tests.html" target="_top" xlink:title="An abstract superclass for test classes which need a REST service. ">
<polygon fill="white" stroke="black" points="183.5,-0.5 183.5,-30.5 340.5,-30.5 340.5,-0.5 183.5,-0.5"/>
<text text-anchor="start" x="191.5" y="-18.5" font-family="Helvetica,sans-Serif" font-size="10.00">SuiteCRMAddInTests.WithRest</text>
<text text-anchor="middle" x="262" y="-7.5" font-family="Helvetica,sans-Serif" font-size="10.00">ServiceTests</text>
</a>
</g>
</g>
<!-- Node1&#45;&gt;Node5 -->
<g id="edge4" class="edge"><title>Node1&#45;&gt;Node5</title>
<path fill="none" stroke="midnightblue" d="M138.729,-46.9502C159.649,-41.5694 182.464,-35.701 202.66,-30.5062"/>
<polygon fill="midnightblue" stroke="midnightblue" points="137.764,-43.5846 128.951,-49.4654 139.508,-50.3639 137.764,-43.5846"/>
</g>
<!-- Node4 -->
<g id="node4" class="node"><title>Node4</title>
<g id="a_node4"><a xlink:href="class_suite_c_r_m_add_in_1_1_daemon_1_1_tests_1_1_fetch_email_categories_action_tests.html" target="_top" xlink:title="Test that FetchEmailCategoriesAction actually fetches some categories. ">
<polygon fill="white" stroke="black" points="405.5,-49.5 405.5,-79.5 571.5,-79.5 571.5,-49.5 405.5,-49.5"/>
<text text-anchor="start" x="413.5" y="-67.5" font-family="Helvetica,sans-Serif" font-size="10.00">SuiteCRMAddIn.Daemon.Tests.</text>
<text text-anchor="middle" x="488.5" y="-56.5" font-family="Helvetica,sans-Serif" font-size="10.00">FetchEmailCategoriesActionTests</text>
</a>
</g>
</g>
<!-- Node3&#45;&gt;Node4 -->
<g id="edge3" class="edge"><title>Node3&#45;&gt;Node4</title>
<path fill="none" stroke="midnightblue" d="M349.701,-64.5C368.027,-64.5 387.312,-64.5 405.459,-64.5"/>
<polygon fill="midnightblue" stroke="midnightblue" points="349.632,-61.0001 339.632,-64.5 349.632,-68.0001 349.632,-61.0001"/>
</g>
<!-- Node6 -->
<g id="node6" class="node"><title>Node6</title>
<g id="a_node6"><a xlink:href="class_suite_c_r_m_client_1_1_tests_1_1_l_d_a_p_authentication_helper_tests.html" target="_top" xlink:title="SuiteCRMClient.Tests.LDAPAuthentication\lHelperTests">
<polygon fill="white" stroke="black" points="385,-0.5 385,-30.5 592,-30.5 592,-0.5 385,-0.5"/>
<text text-anchor="start" x="393" y="-18.5" font-family="Helvetica,sans-Serif" font-size="10.00">SuiteCRMClient.Tests.LDAPAuthentication</text>
<text text-anchor="middle" x="488.5" y="-7.5" font-family="Helvetica,sans-Serif" font-size="10.00">HelperTests</text>
</a>
</g>
</g>
<!-- Node5&#45;&gt;Node6 -->
<g id="edge5" class="edge"><title>Node5&#45;&gt;Node6</title>
<path fill="none" stroke="midnightblue" d="M350.768,-15.5C361.988,-15.5 373.551,-15.5 384.978,-15.5"/>
<polygon fill="midnightblue" stroke="midnightblue" points="350.575,-12.0001 340.575,-15.5 350.574,-19.0001 350.575,-12.0001"/>
</g>
</g>
</svg>
