<?xml version="1.0" encoding="UTF-8" standalone="no"?>
<!DOCTYPE svg PUBLIC "-//W3C//DTD SVG 1.1//EN"
 "http://www.w3.org/Graphics/SVG/1.1/DTD/svg11.dtd">
<!-- Generated by graphviz version 2.38.0 (20140413.2041)
 -->
<!-- Title: Graphical Class Hierarchy Pages: 1 -->
<svg width="234pt" height="88pt"
 viewBox="0.00 0.00 234.00 88.00" xmlns="http://www.w3.org/2000/svg" xmlns:xlink="http://www.w3.org/1999/xlink">
<g id="graph0" class="graph" transform="scale(1 1) rotate(0) translate(4 84)">
<title>Graphical Class Hierarchy</title>
<polygon fill="white" stroke="none" points="-4,4 -4,-84 230,-84 230,4 -4,4"/>
<!-- Node1 -->
<g id="node1" class="node"><title>Node1</title>
<polygon fill="white" stroke="#bfbfbf" points="0,-30 0,-49 32,-49 32,-30 0,-30"/>
<text text-anchor="middle" x="16" y="-37" font-family="Helvetica,sans-Serif" font-size="10.00">List</text>
</g>
<!-- Node2 -->
<g id="node2" class="node"><title>Node2</title>
<g id="a_node2"><a xlink:href="class_suite_c_r_m_add_in_1_1_business_logic_1_1_email_categories_collection.html" target="_top" xlink:title="A list of the email categories known to the connected CRM instance, if that CRM instance supports the...">
<polygon fill="white" stroke="black" points="68,-49.5 68,-79.5 226,-79.5 226,-49.5 68,-49.5"/>
<text text-anchor="start" x="76" y="-67.5" font-family="Helvetica,sans-Serif" font-size="10.00">SuiteCRMAddIn.BusinessLogic.</text>
<text text-anchor="middle" x="147" y="-56.5" font-family="Helvetica,sans-Serif" font-size="10.00">EmailCategoriesCollection</text>
</a>
</g>
</g>
<!-- Node1&#45;&gt;Node2 -->
<g id="edge1" class="edge"><title>Node1&#45;&gt;Node2</title>
<path fill="none" stroke="midnightblue" d="M41.9257,-44.3306C49.814,-45.8593 58.9894,-47.6375 68.5614,-49.4925"/>
<polygon fill="midnightblue" stroke="midnightblue" points="42.5337,-40.8833 32.0504,-42.4167 41.2018,-47.7555 42.5337,-40.8833"/>
</g>
<!-- Node3 -->
<g id="node3" class="node"><title>Node3</title>
<g id="a_node3"><a xlink:href="class_suite_c_r_m_client_1_1_r_e_s_t_objects_1_1_name_value_collection.html" target="_top" xlink:title="A collection of names and values, implemented as a list of name/value objects. ">
<polygon fill="white" stroke="black" points="69.5,-0.5 69.5,-30.5 224.5,-30.5 224.5,-0.5 69.5,-0.5"/>
<text text-anchor="start" x="77.5" y="-18.5" font-family="Helvetica,sans-Serif" font-size="10.00">SuiteCRMClient.RESTObjects.</text>
<text text-anchor="middle" x="147" y="-7.5" font-family="Helvetica,sans-Serif" font-size="10.00">NameValueCollection</text>
</a>
</g>
</g>
<!-- Node1&#45;&gt;Node3 -->
<g id="edge2" class="edge"><title>Node1&#45;&gt;Node3</title>
<path fill="none" stroke="midnightblue" d="M42.1517,-34.8206C50.2305,-33.3176 59.6421,-31.5666 69.4387,-29.744"/>
<polygon fill="midnightblue" stroke="midnightblue" points="41.2415,-31.4298 32.0504,-36.6999 42.5219,-38.3117 41.2415,-31.4298"/>
</g>
</g>
</svg>
