<?xml version="1.0" encoding="UTF-8" standalone="no"?>
<!DOCTYPE svg PUBLIC "-//W3C//DTD SVG 1.1//EN"
 "http://www.w3.org/Graphics/SVG/1.1/DTD/svg11.dtd">
<!-- Generated by graphviz version 2.38.0 (20140413.2041)
 -->
<!-- Title: Graphical Class Hierarchy Pages: 1 -->
<svg width="780pt" height="273pt"
 viewBox="0.00 0.00 780.00 272.50" xmlns="http://www.w3.org/2000/svg" xmlns:xlink="http://www.w3.org/1999/xlink">
<g id="graph0" class="graph" transform="scale(1 1) rotate(0) translate(4 268.5)">
<title>Graphical Class Hierarchy</title>
<polygon fill="white" stroke="none" points="-4,4 -4,-268.5 776,-268.5 776,4 -4,4"/>
<!-- Node1 -->
<g id="node1" class="node"><title>Node1</title>
<polygon fill="white" stroke="#bfbfbf" points="45,-207 45,-226 113,-226 113,-207 45,-207"/>
<text text-anchor="middle" x="79" y="-214" font-family="Helvetica,sans-Serif" font-size="10.00">IDisposable</text>
</g>
<!-- Node2 -->
<g id="node2" class="node"><title>Node2</title>
<g id="a_node2"><a xlink:href="class_suite_c_r_m_add_in_1_1_business_logic_1_1_synchroniser.html" target="_top" xlink:title="Synchronise items of the class for which I am responsible. ">
<polygon fill="white" stroke="black" points="203,-157.5 203,-187.5 370,-187.5 370,-157.5 203,-157.5"/>
<text text-anchor="start" x="211" y="-175.5" font-family="Helvetica,sans-Serif" font-size="10.00">SuiteCRMAddIn.BusinessLogic.</text>
<text text-anchor="middle" x="286.5" y="-164.5" font-family="Helvetica,sans-Serif" font-size="10.00">Synchroniser&lt; OutlookItemType &gt;</text>
</a>
</g>
</g>
<!-- Node1&#45;&gt;Node2 -->
<g id="edge1" class="edge"><title>Node1&#45;&gt;Node2</title>
<path fill="none" stroke="midnightblue" d="M122.806,-207.335C149.474,-201.625 184.427,-194.141 215.097,-187.574"/>
<polygon fill="midnightblue" stroke="midnightblue" points="122.063,-203.914 113.017,-209.431 123.528,-210.759 122.063,-203.914"/>
</g>
<!-- Node3 -->
<g id="node3" class="node"><title>Node3</title>
<g id="a_node3"><a xlink:href="struct_suite_c_r_m_add_in_1_1_wait_cursor.html" target="_top" xlink:title="SuiteCRMAddIn.WaitCursor">
<polygon fill="white" stroke="black" points="216.5,-245 216.5,-264 356.5,-264 356.5,-245 216.5,-245"/>
<text text-anchor="middle" x="286.5" y="-252" font-family="Helvetica,sans-Serif" font-size="10.00">SuiteCRMAddIn.WaitCursor</text>
</a>
</g>
</g>
<!-- Node1&#45;&gt;Node3 -->
<g id="edge2" class="edge"><title>Node1&#45;&gt;Node3</title>
<path fill="none" stroke="midnightblue" d="M123.071,-224.465C155.434,-230.449 199.887,-238.669 234.108,-244.997"/>
<polygon fill="midnightblue" stroke="midnightblue" points="123.487,-220.982 113.017,-222.605 122.214,-227.865 123.487,-220.982"/>
</g>
<!-- Node4 -->
<g id="node4" class="node"><title>Node4</title>
<g id="a_node4"><a xlink:href="interface_suite_c_r_m_client_1_1_logging_1_1_i_logger.html" target="_top" xlink:title="Interface implemented by all logging classes ">
<polygon fill="white" stroke="black" points="206.5,-207 206.5,-226 366.5,-226 366.5,-207 206.5,-207"/>
<text text-anchor="middle" x="286.5" y="-214" font-family="Helvetica,sans-Serif" font-size="10.00">SuiteCRMClient.Logging.ILogger</text>
</a>
</g>
</g>
<!-- Node1&#45;&gt;Node4 -->
<g id="edge3" class="edge"><title>Node1&#45;&gt;Node4</title>
<path fill="none" stroke="midnightblue" d="M123.255,-216.5C147.372,-216.5 178.159,-216.5 206.42,-216.5"/>
<polygon fill="midnightblue" stroke="midnightblue" points="123.017,-213 113.017,-216.5 123.017,-220 123.017,-213"/>
</g>
<!-- Node5 -->
<g id="node5" class="node"><title>Node5</title>
<g id="a_node5"><a xlink:href="class_suite_c_r_m_client_1_1_logging_1_1_abstract_logger.html" target="_top" xlink:title="Provides a common implementation of ShowAndAddEntry for implementations of ILogger. ">
<polygon fill="white" stroke="black" points="415,-201.5 415,-231.5 579,-231.5 579,-201.5 415,-201.5"/>
<text text-anchor="start" x="423" y="-219.5" font-family="Helvetica,sans-Serif" font-size="10.00">SuiteCRMClient.Logging.Abstract</text>
<text text-anchor="middle" x="497" y="-208.5" font-family="Helvetica,sans-Serif" font-size="10.00">Logger</text>
</a>
</g>
</g>
<!-- Node4&#45;&gt;Node5 -->
<g id="edge4" class="edge"><title>Node4&#45;&gt;Node5</title>
<path fill="none" stroke="midnightblue" d="M376.704,-216.5C389.374,-216.5 402.348,-216.5 414.854,-216.5"/>
<polygon fill="midnightblue" stroke="midnightblue" points="376.622,-213 366.622,-216.5 376.622,-220 376.622,-213"/>
</g>
<!-- Node6 -->
<g id="node6" class="node"><title>Node6</title>
<g id="a_node6"><a xlink:href="class_suite_c_r_m_add_in_1_1_file_logger.html" target="_top" xlink:title="A logger which logs to file? ">
<polygon fill="white" stroke="black" points="625.5,-226 625.5,-245 761.5,-245 761.5,-226 625.5,-226"/>
<text text-anchor="middle" x="693.5" y="-233" font-family="Helvetica,sans-Serif" font-size="10.00">SuiteCRMAddIn.FileLogger</text>
</a>
</g>
</g>
<!-- Node5&#45;&gt;Node6 -->
<g id="edge5" class="edge"><title>Node5&#45;&gt;Node6</title>
<path fill="none" stroke="midnightblue" d="M589.264,-225.415C601.447,-226.605 613.756,-227.808 625.422,-228.947"/>
<polygon fill="midnightblue" stroke="midnightblue" points="589.37,-221.909 579.077,-224.42 588.689,-228.876 589.37,-221.909"/>
</g>
<!-- Node7 -->
<g id="node7" class="node"><title>Node7</title>
<g id="a_node7"><a xlink:href="class_suite_c_r_m_add_in_1_1_log4_net_logger.html" target="_top" xlink:title="SuiteCRMAddIn.Log4NetLogger">
<polygon fill="white" stroke="black" points="615,-188 615,-207 772,-207 772,-188 615,-188"/>
<text text-anchor="middle" x="693.5" y="-195" font-family="Helvetica,sans-Serif" font-size="10.00">SuiteCRMAddIn.Log4NetLogger</text>
</a>
</g>
</g>
<!-- Node5&#45;&gt;Node7 -->
<g id="edge6" class="edge"><title>Node5&#45;&gt;Node7</title>
<path fill="none" stroke="midnightblue" d="M589.166,-207.594C597.798,-206.751 606.496,-205.901 614.983,-205.072"/>
<polygon fill="midnightblue" stroke="midnightblue" points="588.689,-204.124 579.077,-208.58 589.37,-211.091 588.689,-204.124"/>
</g>
<!-- Node8 -->
<g id="node8" class="node"><title>Node8</title>
<g id="a_node8"><a xlink:href="class_suite_c_r_m_add_in_1_1_business_logic_1_1_repeating_process.html" target="_top" xlink:title="An agent which does something repeatedly. ">
<polygon fill="white" stroke="black" points="0,-76.5 0,-106.5 158,-106.5 158,-76.5 0,-76.5"/>
<text text-anchor="start" x="8" y="-94.5" font-family="Helvetica,sans-Serif" font-size="10.00">SuiteCRMAddIn.BusinessLogic.</text>
<text text-anchor="middle" x="79" y="-83.5" font-family="Helvetica,sans-Serif" font-size="10.00">RepeatingProcess</text>
</a>
</g>
</g>
<!-- Node8&#45;&gt;Node2 -->
<g id="edge9" class="edge"><title>Node8&#45;&gt;Node2</title>
<path fill="none" stroke="midnightblue" d="M115.467,-111.625C137.544,-123.544 166.82,-138.267 194,-148.5 202.607,-151.74 211.827,-154.712 220.979,-157.376"/>
<polygon fill="midnightblue" stroke="midnightblue" points="116.926,-108.434 106.472,-106.709 113.569,-114.576 116.926,-108.434"/>
</g>
<!-- Node9 -->
<g id="node9" class="node"><title>Node9</title>
<g id="a_node9"><a xlink:href="class_suite_c_r_m_add_in_1_1_business_logic_1_1_c_r_m_permissions_cache.html" target="_top" xlink:title="Cache of CRM import/export permissions, flushed hourly. ">
<polygon fill="white" stroke="black" points="194,-98 194,-139 379,-139 379,-98 194,-98"/>
<text text-anchor="start" x="202" y="-127" font-family="Helvetica,sans-Serif" font-size="10.00">SuiteCRMAddIn.BusinessLogic.</text>
<text text-anchor="start" x="202" y="-116" font-family="Helvetica,sans-Serif" font-size="10.00">CRMPermissionsCache&lt; OutlookItem</text>
<text text-anchor="middle" x="286.5" y="-105" font-family="Helvetica,sans-Serif" font-size="10.00">Type &gt;</text>
</a>
</g>
</g>
<!-- Node8&#45;&gt;Node9 -->
<g id="edge7" class="edge"><title>Node8&#45;&gt;Node9</title>
<path fill="none" stroke="midnightblue" d="M168.405,-103.115C176.773,-104.215 185.27,-105.331 193.67,-106.435"/>
<polygon fill="midnightblue" stroke="midnightblue" points="168.648,-99.6171 158.277,-101.785 167.736,-106.557 168.648,-99.6171"/>
</g>
<!-- Node10 -->
<g id="node10" class="node"><title>Node10</title>
<g id="a_node10"><a xlink:href="class_suite_c_r_m_add_in_1_1_business_logic_1_1_email_archiving.html" target="_top" xlink:title="The agent which handles the automatic and manual archiving of emails. ">
<polygon fill="white" stroke="black" points="207.5,-49.5 207.5,-79.5 365.5,-79.5 365.5,-49.5 207.5,-49.5"/>
<text text-anchor="start" x="215.5" y="-67.5" font-family="Helvetica,sans-Serif" font-size="10.00">SuiteCRMAddIn.BusinessLogic.</text>
<text text-anchor="middle" x="286.5" y="-56.5" font-family="Helvetica,sans-Serif" font-size="10.00">EmailArchiving</text>
</a>
</g>
</g>
<!-- Node8&#45;&gt;Node10 -->
<g id="edge8" class="edge"><title>Node8&#45;&gt;Node10</title>
<path fill="none" stroke="midnightblue" d="M168.567,-79.8635C181.5,-78.1643 194.738,-76.425 207.441,-74.756"/>
<polygon fill="midnightblue" stroke="midnightblue" points="167.736,-76.4425 158.277,-81.2154 168.648,-83.3829 167.736,-76.4425"/>
</g>
<!-- Node11 -->
<g id="node11" class="node"><title>Node11</title>
<g id="a_node11"><a xlink:href="class_suite_c_r_m_add_in_1_1_daemon_1_1_daemon_worker.html" target="_top" xlink:title="A thing which maintains a queue of tasks (instances of DaemonAction) and executes them in turn...">
<polygon fill="white" stroke="black" points="203,-0.5 203,-30.5 370,-30.5 370,-0.5 203,-0.5"/>
<text text-anchor="start" x="211" y="-18.5" font-family="Helvetica,sans-Serif" font-size="10.00">SuiteCRMAddIn.Daemon.Daemon</text>
<text text-anchor="middle" x="286.5" y="-7.5" font-family="Helvetica,sans-Serif" font-size="10.00">Worker</text>
</a>
</g>
</g>
<!-- Node8&#45;&gt;Node11 -->
<g id="edge10" class="edge"><title>Node8&#45;&gt;Node11</title>
<path fill="none" stroke="midnightblue" d="M119.641,-71.9556C141.284,-61.7479 168.749,-49.5372 194,-40.5 203.923,-36.9486 214.603,-33.6105 225.042,-30.6008"/>
<polygon fill="midnightblue" stroke="midnightblue" points="117.963,-68.8779 110.441,-76.3388 120.974,-75.1974 117.963,-68.8779"/>
</g>
</g>
</svg>
