<?xml version="1.0" encoding="UTF-8" standalone="no"?>
<!DOCTYPE svg PUBLIC "-//W3C//DTD SVG 1.1//EN"
 "http://www.w3.org/Graphics/SVG/1.1/DTD/svg11.dtd">
<!-- Generated by graphviz version 2.38.0 (20140413.2041)
 -->
<!-- Title: SuiteCRMAddIn.Daemon.DaemonAction Pages: 1 -->
<svg width="583pt" height="186pt"
 viewBox="0.00 0.00 583.00 186.00" xmlns="http://www.w3.org/2000/svg" xmlns:xlink="http://www.w3.org/1999/xlink">
<g id="graph0" class="graph" transform="scale(1 1) rotate(0) translate(4 182)">
<title>SuiteCRMAddIn.Daemon.DaemonAction</title>
<polygon fill="white" stroke="none" points="-4,4 -4,-182 579,-182 579,4 -4,4"/>
<!-- Node1 -->
<g id="node1" class="node"><title>Node1</title>
<polygon fill="#bfbfbf" stroke="black" points="0,-73.5 0,-103.5 167,-103.5 167,-73.5 0,-73.5"/>
<text text-anchor="start" x="8" y="-91.5" font-family="Helvetica,sans-Serif" font-size="10.00">SuiteCRMAddIn.Daemon.Daemon</text>
<text text-anchor="middle" x="83.5" y="-80.5" font-family="Helvetica,sans-Serif" font-size="10.00">Action</text>
</g>
<!-- Node2 -->
<g id="node2" class="node"><title>Node2</title>
<g id="a_node2"><a xlink:href="class_suite_c_r_m_add_in_1_1_daemon_1_1_abstract_daemon_action.html" target="_top" xlink:title="The Attempts/MaxAttempts plumbing for implementing a DaemonAction. Of course, you do not need to spec...">
<polygon fill="white" stroke="black" points="203,-73.5 203,-103.5 370,-103.5 370,-73.5 203,-73.5"/>
<text text-anchor="start" x="211" y="-91.5" font-family="Helvetica,sans-Serif" font-size="10.00">SuiteCRMAddIn.Daemon.Abstract</text>
<text text-anchor="middle" x="286.5" y="-80.5" font-family="Helvetica,sans-Serif" font-size="10.00">DaemonAction</text>
</a>
</g>
</g>
<!-- Node1&#45;&gt;Node2 -->
<g id="edge1" class="edge"><title>Node1&#45;&gt;Node2</title>
<path fill="none" stroke="midnightblue" d="M177.148,-88.5C185.73,-88.5 194.389,-88.5 202.872,-88.5"/>
<polygon fill="midnightblue" stroke="midnightblue" points="177.125,-85.0001 167.125,-88.5 177.124,-92.0001 177.125,-85.0001"/>
</g>
<!-- Node3 -->
<g id="node3" class="node"><title>Node3</title>
<g id="a_node3"><a xlink:href="class_suite_c_r_m_add_in_1_1_daemon_1_1_archive_email_action.html" target="_top" xlink:title="An action which archives one email. ">
<polygon fill="white" stroke="black" points="408.5,-147.5 408.5,-177.5 572.5,-177.5 572.5,-147.5 408.5,-147.5"/>
<text text-anchor="start" x="416.5" y="-165.5" font-family="Helvetica,sans-Serif" font-size="10.00">SuiteCRMAddIn.Daemon.Archive</text>
<text text-anchor="middle" x="490.5" y="-154.5" font-family="Helvetica,sans-Serif" font-size="10.00">EmailAction</text>
</a>
</g>
</g>
<!-- Node2&#45;&gt;Node3 -->
<g id="edge2" class="edge"><title>Node2&#45;&gt;Node3</title>
<path fill="none" stroke="midnightblue" d="M329.525,-107.677C351.967,-117.549 380.209,-129.389 406,-138.5 414.818,-141.615 424.262,-144.629 433.512,-147.408"/>
<polygon fill="midnightblue" stroke="midnightblue" points="330.847,-104.435 320.286,-103.581 328.009,-110.834 330.847,-104.435"/>
</g>
<!-- Node4 -->
<g id="node4" class="node"><title>Node4</title>
<g id="a_node4"><a xlink:href="class_suite_c_r_m_add_in_1_1_daemon_1_1_fetch_email_categories_action.html" target="_top" xlink:title="The idea here is that at startup, the addin fires off one instance of this action, passing in its (initially empty) list of email categories by reference. When this action runs, it populates that list, so that if the email archiving dialogue is subsequently opened, it has the appropriate values. ">
<polygon fill="white" stroke="black" points="413,-98.5 413,-128.5 568,-128.5 568,-98.5 413,-98.5"/>
<text text-anchor="start" x="421" y="-116.5" font-family="Helvetica,sans-Serif" font-size="10.00">SuiteCRMAddIn.Daemon.Fetch</text>
<text text-anchor="middle" x="490.5" y="-105.5" font-family="Helvetica,sans-Serif" font-size="10.00">EmailCategoriesAction</text>
</a>
</g>
</g>
<!-- Node2&#45;&gt;Node4 -->
<g id="edge3" class="edge"><title>Node2&#45;&gt;Node4</title>
<path fill="none" stroke="midnightblue" d="M380.192,-99.9718C391.081,-101.319 402.098,-102.683 412.735,-103.999"/>
<polygon fill="midnightblue" stroke="midnightblue" points="380.598,-96.4954 370.244,-98.7406 379.738,-103.442 380.598,-96.4954"/>
</g>
<!-- Node5 -->
<g id="node5" class="node"><title>Node5</title>
<g id="a_node5"><a xlink:href="class_suite_c_r_m_add_in_1_1_daemon_1_1_transmit_new_action.html" target="_top" xlink:title="An action to transmit to the server an item which is a new item, and does not already have a SyncStat...">
<polygon fill="white" stroke="black" points="406,-49.5 406,-79.5 575,-79.5 575,-49.5 406,-49.5"/>
<text text-anchor="start" x="414" y="-67.5" font-family="Helvetica,sans-Serif" font-size="10.00">SuiteCRMAddIn.Daemon.Transmit</text>
<text text-anchor="middle" x="490.5" y="-56.5" font-family="Helvetica,sans-Serif" font-size="10.00">NewAction&lt; OutlookItemType &gt;</text>
</a>
</g>
</g>
<!-- Node2&#45;&gt;Node5 -->
<g id="edge4" class="edge"><title>Node2&#45;&gt;Node5</title>
<path fill="none" stroke="midnightblue" d="M380.239,-77.4815C388.797,-76.4647 397.434,-75.4385 405.904,-74.4323"/>
<polygon fill="midnightblue" stroke="midnightblue" points="379.761,-74.0136 370.244,-78.669 380.587,-80.9647 379.761,-74.0136"/>
</g>
<!-- Node6 -->
<g id="node6" class="node"><title>Node6</title>
<g id="a_node6"><a xlink:href="class_suite_c_r_m_add_in_1_1_daemon_1_1_transmit_update_action.html" target="_top" xlink:title="An action to transmit to the server an item which is not a new item, but already has a SyncState...">
<polygon fill="white" stroke="black" points="406,-0.5 406,-30.5 575,-30.5 575,-0.5 406,-0.5"/>
<text text-anchor="start" x="414" y="-18.5" font-family="Helvetica,sans-Serif" font-size="10.00">SuiteCRMAddIn.Daemon.Transmit</text>
<text text-anchor="middle" x="490.5" y="-7.5" font-family="Helvetica,sans-Serif" font-size="10.00">UpdateAction&lt; OutlookItemType &gt;</text>
</a>
</g>
</g>
<!-- Node2&#45;&gt;Node6 -->
<g id="edge5" class="edge"><title>Node2&#45;&gt;Node6</title>
<path fill="none" stroke="midnightblue" d="M331.631,-69.4736C353.766,-60.2259 381.1,-49.249 406,-40.5 415.708,-37.0889 426.15,-33.7261 436.252,-30.6265"/>
<polygon fill="midnightblue" stroke="midnightblue" points="330.032,-66.3493 322.171,-73.4527 332.746,-72.8018 330.032,-66.3493"/>
</g>
</g>
</svg>
