<?xml version="1.0" encoding="UTF-8" standalone="no"?>
<!DOCTYPE svg PUBLIC "-//W3C//DTD SVG 1.1//EN"
 "http://www.w3.org/Graphics/SVG/1.1/DTD/svg11.dtd">
<!-- Generated by graphviz version 2.38.0 (20140413.2041)
 -->
<!-- Title: SuiteCRMClient.Logging.ILogger.ShowAndAddEntry Pages: 1 -->
<svg width="580pt" height="50pt"
 viewBox="0.00 0.00 580.00 50.00" xmlns="http://www.w3.org/2000/svg" xmlns:xlink="http://www.w3.org/1999/xlink">
<g id="graph0" class="graph" transform="scale(1 1) rotate(0) translate(4 46)">
<title>SuiteCRMClient.Logging.ILogger.ShowAndAddEntry</title>
<polygon fill="white" stroke="none" points="-4,4 -4,-46 576,-46 576,4 -4,4"/>
<!-- Node1 -->
<g id="node1" class="node"><title>Node1</title>
<polygon fill="#bfbfbf" stroke="black" points="0,-6 0,-36 163,-36 163,-6 0,-6"/>
<text text-anchor="start" x="8" y="-24" font-family="Helvetica,sans-Serif" font-size="10.00">SuiteCRMClient.Logging.ILogger.</text>
<text text-anchor="middle" x="81.5" y="-13" font-family="Helvetica,sans-Serif" font-size="10.00">ShowAndAddEntry</text>
</g>
<!-- Node2 -->
<g id="node2" class="node"><title>Node2</title>
<g id="a_node2"><a xlink:href="class_suite_c_r_m_add_in_1_1_business_logic_1_1_licence_validation_helper.html#afbc91cc3a89487a4f8a4d737adbab0c4" target="_top" xlink:title="Validate my key pair. ">
<polygon fill="white" stroke="black" points="199,-6 199,-36 359,-36 359,-6 199,-6"/>
<text text-anchor="start" x="207" y="-24" font-family="Helvetica,sans-Serif" font-size="10.00">SuiteCRMAddIn.BusinessLogic.</text>
<text text-anchor="middle" x="279" y="-13" font-family="Helvetica,sans-Serif" font-size="10.00">LicenceValidationHelper.Validate</text>
</a>
</g>
</g>
<!-- Node1&#45;&gt;Node2 -->
<g id="edge1" class="edge"><title>Node1&#45;&gt;Node2</title>
<path fill="none" stroke="midnightblue" d="M173.151,-21C181.716,-21 190.354,-21 198.8,-21"/>
<polygon fill="midnightblue" stroke="midnightblue" points="173.146,-17.5001 163.146,-21 173.146,-24.5001 173.146,-17.5001"/>
</g>
<!-- Node3 -->
<g id="node3" class="node"><title>Node3</title>
<g id="a_node3"><a xlink:href="class_suite_c_r_m_add_in_1_1_business_logic_1_1_tests_1_1_licence_validation_helper_tests.html#a99b34331b764d9dc42f1cd52f818bf9b" target="_top" xlink:title="SuiteCRMAddIn.BusinessLogic.\lTests.LicenceValidationHelperTests.\lLicenceValidationHelperValidateTest">
<polygon fill="white" stroke="black" points="395,-0.5 395,-41.5 572,-41.5 572,-0.5 395,-0.5"/>
<text text-anchor="start" x="403" y="-29.5" font-family="Helvetica,sans-Serif" font-size="10.00">SuiteCRMAddIn.BusinessLogic.</text>
<text text-anchor="start" x="403" y="-18.5" font-family="Helvetica,sans-Serif" font-size="10.00">Tests.LicenceValidationHelperTests.</text>
<text text-anchor="middle" x="483.5" y="-7.5" font-family="Helvetica,sans-Serif" font-size="10.00">LicenceValidationHelperValidateTest</text>
</a>
</g>
</g>
<!-- Node2&#45;&gt;Node3 -->
<g id="edge2" class="edge"><title>Node2&#45;&gt;Node3</title>
<path fill="none" stroke="midnightblue" d="M369.349,-21C377.759,-21 386.28,-21 394.676,-21"/>
<polygon fill="midnightblue" stroke="midnightblue" points="369.162,-17.5001 359.162,-21 369.162,-24.5001 369.162,-17.5001"/>
</g>
</g>
</svg>
