<?xml version="1.0" encoding="UTF-8" standalone="no"?>
<!DOCTYPE svg PUBLIC "-//W3C//DTD SVG 1.1//EN"
 "http://www.w3.org/Graphics/SVG/1.1/DTD/svg11.dtd">
<!-- Generated by graphviz version 2.38.0 (20140413.2041)
 -->
<!-- Title: SuiteCRMClient.Logging.ILogger.AddEntry Pages: 1 -->
<svg width="392pt" height="137pt"
 viewBox="0.00 0.00 392.00 137.00" xmlns="http://www.w3.org/2000/svg" xmlns:xlink="http://www.w3.org/1999/xlink">
<g id="graph0" class="graph" transform="scale(1 1) rotate(0) translate(4 133)">
<title>SuiteCRMClient.Logging.ILogger.AddEntry</title>
<polygon fill="white" stroke="none" points="-4,4 -4,-133 388,-133 388,4 -4,4"/>
<!-- Node1 -->
<g id="node1" class="node"><title>Node1</title>
<polygon fill="#bfbfbf" stroke="black" points="0,-49.5 0,-79.5 163,-79.5 163,-49.5 0,-49.5"/>
<text text-anchor="start" x="8" y="-67.5" font-family="Helvetica,sans-Serif" font-size="10.00">SuiteCRMClient.Logging.ILogger.</text>
<text text-anchor="middle" x="81.5" y="-56.5" font-family="Helvetica,sans-Serif" font-size="10.00">AddEntry</text>
</g>
<!-- Node2 -->
<g id="node2" class="node"><title>Node2</title>
<g id="a_node2"><a xlink:href="class_suite_c_r_m_add_in_1_1_extensions_1_1_recipient_extensions.html#a054f7a4d5a82c3e3b28cda0d474345ab" target="_top" xlink:title="From this email recipient, extract the SMTP address (if that&#39;s possible). ">
<polygon fill="white" stroke="black" points="199,-98.5 199,-128.5 384,-128.5 384,-98.5 199,-98.5"/>
<text text-anchor="start" x="207" y="-116.5" font-family="Helvetica,sans-Serif" font-size="10.00">SuiteCRMAddIn.Extensions.</text>
<text text-anchor="middle" x="291.5" y="-105.5" font-family="Helvetica,sans-Serif" font-size="10.00">RecipientExtensions.GetSmtpAddress</text>
</a>
</g>
</g>
<!-- Node1&#45;&gt;Node2 -->
<g id="edge1" class="edge"><title>Node1&#45;&gt;Node2</title>
<path fill="none" stroke="midnightblue" d="M156.068,-81.8309C179.161,-87.2712 204.45,-93.2285 226.8,-98.4938"/>
<polygon fill="midnightblue" stroke="midnightblue" points="156.857,-78.4209 146.32,-79.5346 155.251,-85.2344 156.857,-78.4209"/>
</g>
<!-- Node3 -->
<g id="node3" class="node"><title>Node3</title>
<g id="a_node3"><a xlink:href="class_suite_c_r_m_add_in_1_1_suite_c_r_m_ribbon.html#ae7ab1a21f9a62df6f3c3138c99358a6c" target="_top" xlink:title="Send, and also archive to CRM, the current message in the composer window. ">
<polygon fill="white" stroke="black" points="199.5,-49.5 199.5,-79.5 383.5,-79.5 383.5,-49.5 199.5,-49.5"/>
<text text-anchor="start" x="207.5" y="-67.5" font-family="Helvetica,sans-Serif" font-size="10.00">SuiteCRMAddIn.SuiteCRMRibbon.btn</text>
<text text-anchor="middle" x="291.5" y="-56.5" font-family="Helvetica,sans-Serif" font-size="10.00">SendAndArchive_Action</text>
</a>
</g>
</g>
<!-- Node1&#45;&gt;Node3 -->
<g id="edge2" class="edge"><title>Node1&#45;&gt;Node3</title>
<path fill="none" stroke="midnightblue" d="M173.323,-64.5C181.994,-64.5 190.789,-64.5 199.462,-64.5"/>
<polygon fill="midnightblue" stroke="midnightblue" points="173.216,-61.0001 163.216,-64.5 173.216,-68.0001 173.216,-61.0001"/>
</g>
<!-- Node4 -->
<g id="node4" class="node"><title>Node4</title>
<g id="a_node4"><a xlink:href="class_suite_c_r_m_client_1_1_logging_1_1_logger_extensions.html#a54cc9eb697aef08f00cbce1d3efb9b9d" target="_top" xlink:title="SuiteCRMClient.Logging.Logger\lExtensions.Error">
<polygon fill="white" stroke="black" points="213,-0.5 213,-30.5 370,-30.5 370,-0.5 213,-0.5"/>
<text text-anchor="start" x="221" y="-18.5" font-family="Helvetica,sans-Serif" font-size="10.00">SuiteCRMClient.Logging.Logger</text>
<text text-anchor="middle" x="291.5" y="-7.5" font-family="Helvetica,sans-Serif" font-size="10.00">Extensions.Error</text>
</a>
</g>
</g>
<!-- Node1&#45;&gt;Node4 -->
<g id="edge3" class="edge"><title>Node1&#45;&gt;Node4</title>
<path fill="none" stroke="midnightblue" d="M156.068,-47.1691C179.161,-41.7288 204.45,-35.7715 226.8,-30.5062"/>
<polygon fill="midnightblue" stroke="midnightblue" points="155.251,-43.7656 146.32,-49.4654 156.857,-50.5791 155.251,-43.7656"/>
</g>
</g>
</svg>
